<?xml version="1.0" encoding="utf-8"?>
<!-- Generator: Adobe Illustrator 25.4.1, SVG Export Plug-In . SVG Version: 6.00 Build 0)  -->
<svg version="1.1" id="Layer_1" xmlns="http://www.w3.org/2000/svg" xmlns:xlink="http://www.w3.org/1999/xlink" x="0px" y="0px"
	 width="80px" height="80px" viewBox="0 0 80 80" style="enable-background:new 0 0 80 80;" xml:space="preserve">
<style type="text/css">
	.st0{fill:#0078b9;}
</style>
<g>
	<path class="st0" d="M8.3701191,3.2444782c0.1866007,0.1905365,0.3732014,0.3810737,0.5598135,0.5716281
		c0.7680359,0.8544569,1.5652399,1.6795726,2.4389687,2.4278126c0.1202898,0.1247797,0.2405729,0.2495589,0.360857,0.3743167
		c0.7575645,0.8718071,1.5722837,1.686492,2.4440823,2.4440937c0.121254,0.1212549,0.2425032,0.2425079,0.3637524,0.3637409
		c0.8145189,0.8198843,1.6290426,1.6397877,2.443574,2.459692c0.1319885,0.1628561,0.2639713,0.3257113,0.395977,0.4885921
		c0.7573128,0.7573099,1.5146046,1.514596,2.2718945,2.271884c0.1228027,0.234479,0.3014278,0.4131346,0.5359402,0.5359507
		c0.7414494,0.7628975,1.4828758,1.5257692,2.224308,2.2886438c0.1889439,0.1889458,0.3778858,0.3778915,0.5668125,0.5668163
		c0.8106499,0.8108635,1.6213131,1.6217461,2.4319763,2.4326286c0.0605526,0.0642738,0.1211128,0.1285458,0.1816769,0.1928387
		c0.8744316,0.8752041,1.7488461,1.7503891,2.6232624,2.625576c0.0588551,0.0588551,0.117712,0.117712,0.1765633,0.1765518
		c0.8769169,0.8822784,1.7538395,1.7645798,2.6307621,2.646883c0.0538235,0.0538216,0.1076469,0.1076412,0.1615105,0.161478
		c0.8354836,0.8663387,1.6709213,1.732666,2.5063629,2.5989952c0.1162415,0.1162472,0.2324944,0.2324944,0.3487625,0.3487682
		c0.8196983,0.819706,1.639389,1.6393852,2.4590721,2.4590664c0.1162415,0.1162472,0.2324867,0.2324944,0.3487625,0.3487663
		c0.8038406,0.8252983,1.607666,1.6505661,2.4114952,2.4758377c0.126545,0.126545,0.2530899,0.2530899,0.379612,0.3796196
		c0.872982,0.8777962,1.7459793,1.7556114,2.6189728,2.6334305c0.855442,0.8959999,1.7108803,1.791996,2.8032417,2.9361382
		c-2.842247,2.727829-5.6872444,5.4582939-8.5322304,8.1887589l-0.0042686,0.0159264
		c-0.9897957,0.8016319-1.7885933,1.7925758-2.6704178,2.7014198c-0.0646515,0.0647163-0.1293068,0.1294365-0.1939545,0.1941605
		c-0.8268585,0.836895-1.6537094,1.67379-2.4805622,2.510685c-0.1438599,0.1437073-0.2877121,0.287426-0.4315662,0.4311409
		c-0.8537521,0.7305794-1.6463528,1.5223007-2.3762684,2.3766937c-0.1225681,0.1532669-0.2451439,0.30653-0.3676834,0.459774
		c-0.862402,0.7450066-1.6662827,1.5485802-2.4110851,2.4112396c-0.1321945,0.1321564-0.2643833,0.2643013-0.3965778,0.3964577
		c-0.8694115,0.8697586-1.738821,1.7395172-2.6082382,2.6092758c-0.9339848,0.9386444-1.8679714,1.877285-2.8019619,2.8159218
		c-0.9336433,0.9387131-1.8672924,1.8774109-2.8009396,2.8161087l0.0025139-0.0025101
		c-0.8226719,0.8442993-1.6453419,1.6885986-2.4680128,2.5328979c-0.2062521,0.2061157-0.4125032,0.4122238-0.6187553,0.6183395
		c-0.7907372,0.6688004-1.520853,1.3982086-2.1890793,2.1894989c-0.2062521,0.2061081-0.4125032,0.4122238-0.6187553,0.6183319
		c-0.8049278,0.6694565-1.5411329,1.4047928-2.1599913,2.2526703c-0.1945868,0.1945496-0.3891792,0.3890991-0.583766,0.5836487
		c-0.7995291,0.6832352-1.5412183,1.4243011-2.2240801,2.2241974c-0.1261563,0.1272888-0.2523122,0.25457-0.3784738,0.3818512
		c-0.1894283-0.0987625-0.3788624-0.1975174-0.5683193-0.2963028c-0.8814645-0.6901398-1.4084818-1.6063995-1.7039065-2.6704254
		c0.0090601-0.2488098,0.0260494-0.4976273,0.0260608-0.7464371C3.4990182,52.4167671,3.4990182,28.7659836,3.4977729,5.115201
		C3.4977615,4.8664222,3.4802754,4.6176448,3.4709468,4.368866C3.480618,4.1179872,3.4902894,3.8671081,3.4999609,3.6162291
		c0.3639467-0.8939655,0.9049315-1.6769525,1.514895-2.4167027c0.1836872-0.1354011,0.3673744-0.2708015,0.5510674-0.4062076
		c0.2286334-0.0543835,0.4057913,0.0510388,0.5738034,0.1848597C6.8046565,1.8109076,7.5904355,2.5246921,8.3701191,3.2444782z"/>
	<path class="st0" d="M8.5547314,0c1.9364481,0.962539,3.8728895,1.9250787,5.8093596,2.8876207
		c1.6714945,1.0729582,3.4786139,1.8891604,5.2496958,2.7735765c1.8639717,1.0084801,3.7279434,2.0169601,5.591898,3.0254245
		c0.5119019,0.2873554,1.0238113,0.5747261,1.5357533,0.862112c0.5762539,0.2294998,1.0376682,0.6899357,1.6605873,0.8254747
		c0.8032932,0.6184168,1.7227802,1.0281544,2.6280899,1.463357c0.3709736,0.1978512,0.7419395,0.3957024,1.112936,0.5935688
		c0.5079613,0.2880611,1.0159035,0.5761099,1.5238419,0.8641577c0.9334526,0.5166225,1.866909,1.0332441,2.8003616,1.5498657
		c0.1896019,0.1073732,0.3792038,0.2147465,0.5688057,0.3221197c0.8088455,0.454237,1.6176987,0.908473,2.4265442,1.3627119
		c1.8704834,1.0402927,3.7409706,2.0805836,5.611454,3.1208763c1.8108292,1.0186749,3.6216507,2.0373478,5.4324837,3.0560207
		c0.4583321,0.3028927,0.9154739,0.6080437,1.4532623,0.7588654c0.4521942,0.4117298,1.0196686,0.631443,1.5420723,0.926218
		c0.8738594,0.4891167,1.7477074,0.9782352,2.6215706,1.4673538c0.3672943,0.2033539,0.7345886,0.4067097,1.1018829,0.6100616
		c0.5669708,0.3180408,0.6887856,0.5765018,0.1277542,1.1299038c-3.2614098,3.2170792-6.4757729,6.4818497-9.7046051,9.7319336
		c-1.174839,1.1825714-1.1756859,1.1870232-2.3506317,0.0047951c-4.4802017-4.5079308-8.9634705-9.0128193-13.4363003-13.5280628
		c-5.4799557-5.5319233-10.9542961-11.069417-16.4233932-16.612072c-2.2101755-2.2399011-4.4009237-4.4989734-6.5968695-6.752872
		C8.7194014,0.3179165,8.5186796,0.2319176,8.5547314,0z"/>
	<path class="st0" d="M56.1118622,32.076786c0.126545-0.1265469,0.2530785-0.2530918,0.3796005-0.3796158
		c0.8037872-0.825243,1.6076012-1.6505032,2.4114151-2.4757671c0.1162643-0.1162567,0.2325134-0.2325096,0.3487968-0.3487797
		c0.5396538-0.8055477,1.1583481-0.6867867,1.8314476-0.1746483c0.2409782,0.1833553,0.4937363,0.3734322,0.8215332,0.3871593
		c0.8645821,0.680748,1.8387108,1.1751499,2.819809,1.6577015c1.7599716,1.1401367,3.6064682,2.1303864,5.4408875,3.1415939
		c0.616272,0.336422,1.2325363,0.6728401,1.8488312,1.0092773c0.2983246,0.363884,0.7402725,0.49403,1.1365509,0.6984749
		c0.9572067,0.578598,1.9200211,1.1497955,2.6594315,2.0157356c0.623764,1.069294,0.7476349,2.2420921,0.7138062,3.4475365
		c-0.1408005,0.4309845-0.2596817,0.8706627-0.4264603,1.2913475c-0.5426483,1.368763-1.8628006,1.8849106-2.9495468,2.6559372
		c-0.4930954,0.2632027-0.9861908,0.5264015-1.4792786,0.789608c-0.5025101,0.2939949-1.0050278,0.5879936-1.5075378,0.8819885
		c-1.8696976,1.0158768-3.7393951,2.0317574-5.6090775,3.0476379c-1.2708054,0.6842957-2.558815,1.3391418-3.8042068,2.0669136
		c-0.5219002,0.304985-0.9322891,0.3840637-1.3569374-0.0890579c-0.145546-0.1479874-0.2910805-0.2959709-0.4366226-0.4439621
		c-0.7700882-0.8942032-1.5701752-1.7591705-2.4661217-2.5307236l0.0016899,0.001812
		c-0.8775864-0.9945107-1.8149681-1.9292641-2.8074913-2.8088913c-0.0604286-0.0640221-0.120842-0.1280479-0.1812706-0.1920738
		c-1.604393-1.6337357-3.1887131-3.2879829-4.8251991-4.8889122c-0.5014496-0.4905663-0.5102463-0.7848816,0.0054131-1.2523956
		c0.7078667-0.6417694,1.3414688-1.3654594,2.0069122-2.0540771c0.9383202-0.9448814,1.8766098-1.8897247,2.8149071-2.834568
		l-0.0081444,0.0080719C54.3672829,33.8283081,55.2395668,32.952549,56.1118622,32.076786z"/>
	<path class="st0" d="M53.438282,48.7810173c1.432869,1.5023689,2.8657494,3.0047302,4.3386993,4.549118
		c-0.5110703,0.32024-1.0191879,0.6386375-1.5270805,0.957058l0.018692,0.0157204
		c-1.0604134,0.3822098-1.9774475,1.0335388-2.9538269,1.5734978c-0.6384239,0.3442955-1.3467674,0.5654106-1.891861,1.0740967
		c-0.3435516,0.0667267-0.6336479,0.2424583-0.9100075,0.4462128c-0.8755302,0.4814758-1.751049,0.9629478-2.6265755,1.4444237
		c-0.6631317,0.3697739-1.3262558,0.7395477-1.9893875,1.1093216c-0.3679924,0.1448479-0.739193,0.2837143-1.037735,0.5577698
		c-0.8643875,0.463131-1.7287712,0.9262733-2.5931549,1.3894081c-0.3794556,0.222805-0.7589111,0.4455986-1.1383743,0.668396
		c-0.617588,0.3284073-1.2351799,0.6568222-1.8527641,0.9852371c-1.8092346,0.9881897-3.6184616,1.9763794-5.4276962,2.9645691
		c-1.9363346,1.0645294-3.8726616,2.1290665-5.8089886,3.1935883c-0.7582741,0.4181519-1.588707,0.7089081-2.2602119,1.2802429
		c-0.26721,0.0200729-0.461689,0.1674881-0.6303864,0.3600464c-0.933403,0.2903519-1.7322693,0.8326035-2.5406818,1.3569794
		c-0.8552723,0.2985916-1.5747566,0.8464279-2.3548965,1.2829361c-0.1340008-0.0060043-0.2382832,0.0332794-0.2727299,0.178978
		c-1.0472374,0.4265213-2.008688,1.015213-2.9836388,1.5782547c-0.539053,0.2245407-1.0594788,0.4820404-1.5126266,0.8581314
		c-0.4925823,0.2660294-0.9851589,0.532074-1.4777298,0.7981033c-0.9167051,0.4141312-1.7988892,0.8912582-2.6382799,1.4464264
		c-0.4518461,0.2427902-0.9681301,0.3721466-1.3376236,0.759903c-0.4143658-0.0140686-0.6546297,0.4820557-1.1005516,0.3755722
		c-0.1173592-0.4407959,0.3049641-0.5505219,0.5093765-0.7572784c3.2726936-3.3103027,6.5631361-6.6030426,9.8471594-9.902153
		c0.2378292-0.2389221,0.5278454-0.4412308,0.6217079-0.7944183c0.0017033-0.0363922-0.0149441-0.0617447-0.050087-0.0762558
		c1.1201515-0.7574615,2.0589008-1.6965256,2.8158779-2.8173676l-0.0430107-0.0223389c0,0,0.0358639,0.0325928,0.034956,0.031868
		c1.1148167-0.7606125,2.0616894-1.6879959,2.7989006-2.8233414l0.0597763,0.0375824
		c0.9418507-0.924572,1.8833942-1.8497658,2.824955-2.7749443c2.7010612-2.7034264,5.4029045-5.4060631,8.1000977-8.1133461
		c0.1048393-0.1052284,0.1649513-0.2550201,0.245945-0.3840065c1.0924339-0.7791481,1.9102249-1.8328247,2.8067703-2.8077698
		c0.9359703-0.9359322,1.8718834-1.8719177,2.8078575-2.8078499c0.9996567-0.8746338,1.9117355-1.8342628,2.7660599-2.8499413
		c0.4775162-0.4173241,0.9396133-1.1352615,1.4372101-1.1607742c0.4297333-0.0220337,0.8998299,0.7433052,1.352066,1.1605797
		c0.9219284,0.9498596,1.8438683,1.8997078,2.7657585,2.8496094C51.5662231,46.9089432,52.5022469,47.8449821,53.438282,48.7810173z
		"/>
</g>
</svg>
