<?xml version="1.0" encoding="utf-8"?>
<!-- Generator: Adobe Illustrator 25.4.1, SVG Export Plug-In . SVG Version: 6.00 Build 0)  -->
<svg version="1.1" id="Layer_1" xmlns="http://www.w3.org/2000/svg" xmlns:xlink="http://www.w3.org/1999/xlink" x="0px" y="0px"
	 width="80px" height="80px" viewBox="0 0 80 80" style="enable-background:new 0 0 80 80;" xml:space="preserve">
<style type="text/css">
	.st0{fill:#0078b9;}
</style>
<g>
	<path class="st0" d="M73.6928711,58.7253952c-0.3159256,0.840519-0.6277466,1.7097054-0.9675903,2.5678062
		c-2.1638489,5.4637871-5.3776016,10.2620277-9.3357849,14.5713615c-1.4584427,1.5878296-3.171978,2.8492584-5.249321,3.5579376
		c-2.123188,0.7243347-4.2427177,0.574791-6.3382492-0.0544052c-1.3818169-0.4149017-2.7284584-0.9478073-4.0880165-1.4357681
		c-2.3253937-0.8346252-4.7074394-1.3067703-7.1898575-1.1190643c-2.2495575,0.170105-4.3798561,0.8081207-6.463131,1.6457291
		c-1.6822281,0.6763611-3.3990002,1.2400208-5.2114601,1.4732895c-2.1402397,0.2754593-4.0617867-0.3056259-5.8408051-1.4486313
		c-1.7427044-1.1196671-3.1888676-2.5702362-4.5310097-4.1327286c-5.7388773-6.6810989-9.518014-14.33078-11.3060665-22.9539909
		c-0.7856822-3.789093-1.0748482-7.6177826-0.7049665-11.4806519c0.5122752-5.3499641,2.3043866-10.1851444,5.976871-14.1833649
		c3.8661003-4.2090111,8.7008438-6.416069,14.4288731-6.5531616c2.0005112-0.0478802,3.9192448,0.4945183,5.8034172,1.1185112
		c2.0644722,0.6836987,4.1192551,1.3967438,6.1767197,2.1015034c1.1171036,0.3826504,2.2152138,0.3730068,3.3390884-0.0211029
		c2.2905693-0.8032322,4.5865097-1.5939159,6.8986359-2.3321228c2.2029419-0.7033405,4.4603996-1.1937141,6.7895317-1.0561924
		c5.2652588,0.3108921,10.032795,1.867981,13.815937,5.7475796c0.6631851,0.680088,1.2474747,1.4370995,1.9000626,2.1956158
		c-6.2269669,3.8104267-9.4330482,9.1933632-8.9161797,16.5278625
		C63.1951447,50.7775497,67.3005447,55.5476532,73.6928711,58.7253952z"/>
	<path class="st0" d="M56.7616539,0c0.2457504,2.4058332,0.0129242,4.689714-0.8272057,6.8672223
		c-1.9543533,5.0653768-5.3247108,8.8597107-10.305481,11.1303062c-1.3938332,0.6354084-2.8890648,0.8970585-4.4202538,0.933321
		c-0.3482666,0.0082474-0.6968956,0.0012169-1.0596657,0.0012169c-0.2020683-1.1751881-0.1416855-2.2762585,0.0046387-3.3752365
		C40.965126,9.4625816,45.7478409,2.0992928,55.178566,0.2028106C55.683773,0.1012162,56.2030869,0.0698078,56.7616539,0z"/>
</g>
</svg>
