<?xml version="1.0" encoding="utf-8"?>
<!-- Generator: Adobe Illustrator 19.0.0, SVG Export Plug-In . SVG Version: 6.00 Build 0)  -->
<svg version="1.1" id="Layer_1" xmlns="http://www.w3.org/2000/svg" xmlns:xlink="http://www.w3.org/1999/xlink" x="0px" y="0px"
	 viewBox="770 -90 2500 741" style="enable-background:new 770 -90 2500 741;" xml:space="preserve">
<style type="text/css">
	.st0{fill:#FFFFFF;}
</style>
<g>
	<path d="M3177.4074707,650.8703613H862.5925903C810.7407227,650.8703613,770,610.1296387,770,558.277771V2.7222309
		c0-51.8518524,40.7407227-92.5925903,92.5925903-92.5925903h2314.8149414C3229.2592773-89.8703613,3270-49.1296196,3270,2.7222309
		v555.555542C3270,610.1296387,3229.2592773,650.8703613,3177.4074707,650.8703613z"/>
	<g>
		<path class="st0" d="M1327.8345947,261.5638733c-0.5373535-59.717514,48.90979-88.7703094,51.1708984-90.122879
			c-28.0040283-40.8184052-71.4094238-46.3954926-86.6624756-46.8401794
			c-36.4553223-3.8354111-71.8171387,21.8081055-90.3876953,21.8081055c-18.9411621,0-47.5383301-21.4375305-78.3594971-20.8075714
			c-39.661499,0.6114426-76.7655029,23.5683289-97.1152344,59.2172546
			c-41.9968262,72.6875-10.675293,179.5046082,29.560791,238.258606
			c20.1273193,28.793396,43.6463623,60.9033813,74.4304199,59.7731018
			c30.1168213-1.2228699,41.3666992-19.1770325,77.7108154-19.1770325c36.010498,0,46.574585,19.1770325,77.9702148,18.4544373
			c32.3223877-0.5002747,52.6721191-28.9045105,72.0952148-57.9387817
			c23.2595215-32.9622803,32.6003418-65.4613647,32.9709473-67.1289368
			C1390.4776611,356.8005981,1328.4647217,333.1211243,1327.8345947,261.5638733L1327.8345947,261.5638733z
			 M1268.5275879,85.9502487c16.1982422-20.2517166,27.28125-47.8036613,24.2047119-75.7632523
			c-23.4448242,1.0376024-52.7647705,16.2124825-69.6488037,36.0194969
			c-14.9379883,17.4539032-28.2819824,46.0619812-24.8348389,72.9654312
			c26.3360596,1.9640198,53.3763428-13.2849731,70.2789307-33.2216949V85.9502487z"/>
		<g>
			<path class="st0" d="M1764.0566406,478.7184753h-42.0894775l-23.055542-72.4281311h-80.1386719l-21.9622803,72.4281311
				h-40.977417l79.4158936-246.5779724h49.0395508l79.7679443,246.5779419V478.7184753z M1691.9615479,375.9035339
				l-20.8500977-64.3867188c-2.2055664-6.5776062-6.3569336-22.0675049-12.4360352-46.4510803h-0.741333
				c-2.4464111,10.4871826-6.3569336,25.9770508-11.7131348,46.4510803l-20.4980469,64.3867188H1691.9615479z
				 M1967.8876953,387.6321106c0,30.2385864-8.2103271,54.1404114-24.6495361,71.6869507
				c-14.7155762,15.6195679-33.0080566,23.4200745-54.8220215,23.4200745c-23.5560303,0-40.4956055-8.3934021-50.7816162-25.2173462
				v93.2911987h-39.5134277V359.3575439c0-18.9917603-0.5003662-38.465271-1.4641113-58.4390259h34.7502441l2.2055664,28.1819153
				h0.741333c13.1772461-21.2337036,33.1749268-31.8505554,60.0113525-31.8505554
				c20.9798584,0,38.4938965,8.2822571,52.505249,24.8653259c13.9926758,16.6200867,21.0169678,38.4467468,21.0169678,65.5169373
				V387.6321106z M1927.6330566,389.077301c0-17.3056641-3.8920898-31.5726318-11.7131348-42.8194885
				c-8.5439453-11.6915283-20.0162354-17.5465393-34.3981934-17.5465393c-9.7485352,0-18.6075439,3.2610474-26.5213623,9.6904297
				c-7.932251,6.4850159-13.1217041,14.9525452-15.5495605,25.4396973c-1.0838623,3.9219666-1.699707,7.958374-1.8347168,12.0250244
				v29.6642151c0,12.9143982,3.9660645,23.8276978,11.8984375,32.7584839
				c7.932251,8.8936768,18.2369385,13.3591003,30.9136963,13.3591003c14.8824463,0,26.4658203-5.7624207,34.7502441-17.1944885
				C1923.4815674,422.9845581,1927.6330566,407.8652649,1927.6330566,389.077301z M2172.4414063,387.6321106
				c0,30.2385864-8.2104492,54.1404114-24.6496582,71.6869507c-14.7338867,15.6195679-33.0080566,23.4200745-54.840332,23.4200745
				c-23.5561523,0-40.4956055-8.3934021-50.7817383-25.2173462v93.2911987h-39.5131836V359.3575439
				c0-18.9917603-0.5004883-38.465271-1.4642334-58.4390259h34.7502441l2.2055664,28.1819153h0.741333
				c13.1586914-21.2337036,33.1564941-31.8505554,60.0112305-31.8505554c20.9614258,0,38.4755859,8.2822571,52.5239258,24.8653259
				c13.9741211,16.6200867,21.0170898,38.4467468,21.0170898,65.5169373L2172.4414063,387.6321106z M2132.1682129,389.077301
				c0-17.3056641-3.9104004-31.5726318-11.7316895-42.8194885c-8.5439453-11.6915283-19.9790039-17.5465393-34.361084-17.5465393
				c-9.7485352,0-18.6074219,3.2610474-26.5583496,9.6904297c-7.932373,6.4850159-13.1031494,14.9525452-15.5310059,25.4396973
				c-1.2047119,4.8915405-1.8532715,8.8751831-1.8532715,12.0250244v29.6642151
				c0,12.9143982,3.9846191,23.8276978,11.8798828,32.7584839c7.932373,8.8751526,18.2370605,13.3591003,30.9509277,13.3591003
				c14.9008789,0,26.484375-5.7624207,34.7502441-17.1944885
				C2128.0168457,422.9845581,2132.1682129,407.8652649,2132.1682129,389.077301z M2401.1442871,409.5513916
				c0,20.9928284-7.3393555,38.0576477-21.9250488,51.2314453c-16.0498047,14.3781433-38.4567871,21.5857544-67.1838379,21.5857544
				c-26.5397949,0-47.8161621-5.1138611-63.8662109-15.3601685l9.1369629-32.9252319
				c17.3288574,10.2648315,36.3625488,15.3786926,57.0830078,15.3786926c14.901123,0,26.484375-3.3721924,34.7502441-10.0610046
				c8.2844238-6.7073059,12.4731445-15.6751709,12.4731445-26.866394c0-10.0239563-3.4658203-18.4173889-10.2675781-25.2544556
				c-6.8391113-6.8184814-18.1442871-13.1737976-34.0275879-19.0102539
				c-43.1828613-16.1013184-64.7929688-39.6510925-64.7929688-70.6308594c0-20.2331543,7.6359863-36.797699,22.8703613-49.7491455
				c15.234375-12.9329224,35.4360352-19.3993988,60.5673828-19.3993988c22.4438477,0,41.1442871,3.9095306,55.989502,11.7100372
				l-9.9155273,32.2026367c-13.9741211-7.5596619-29.7463379-11.339447-47.3901367-11.339447
				c-13.9370117,0-24.8718262,3.4277649-32.6928711,10.2462769c-6.5795898,6.0958862-9.9155273,13.5258179-9.9155273,22.3453979
				c0,9.7275085,3.7993164,17.8059692,11.361084,24.1427002c6.560791,5.8365173,18.5334473,12.1917725,35.8435059,19.0102844
				c21.239502,8.5601807,36.8444824,18.5285339,46.8342285,29.979187
				c10.0634766,11.4506531,15.067627,25.736145,15.067627,42.763916L2401.1442871,409.5513916z M2532.1203613,330.5641785
				h-43.5537109v86.3245239c0,21.9563293,7.6730957,32.9067078,23.0559082,32.9067078
				c7.0610352,0,12.9177246-0.5928955,17.5510254-1.8343201l1.0935059,29.9977112
				c-7.7841797,2.9089661-18.0332031,4.3727417-30.7285156,4.3727417c-15.6052246,0-27.8000488-4.7618408-36.6035156-14.2855225
				c-8.7663574-9.5236816-13.1772461-25.4767456-13.1772461-47.9333496v-89.6226196h-25.9467773v-29.6456909h25.9467773v-32.554657
				l38.809082-11.7100525v44.2647095h43.5537109v29.7198181H2532.1203613z M2728.2414551,388.3547363
				c0,27.3296204-7.8210449,49.7677002-23.4262695,67.314209c-16.3278809,18.0653687-38.0493164,27.0702209-65.126709,27.0702209
				c-26.1320801,0-46.907959-8.6528015-62.4020996-25.9399414c-15.4938965-17.3241882-23.2407227-39.1508484-23.2407227-65.4799194
				c0-27.5519409,8.0063477-50.1197205,23.963623-67.6662598c15.9943848-17.5650635,37.5302734-26.3476257,64.607666-26.3476257
				c26.0949707,0,47.0563965,8.6713562,62.9211426,25.9770203c15.1601563,16.7868958,22.7033691,38.4653015,22.7033691,65.0722656
				V388.3547363z M2687.2824707,389.2626343c0-16.2865906-3.5214844-30.2571106-10.5825195-41.9486389
				c-8.2844238-14.1187439-20.145752-21.1781311-35.5102539-21.1781311c-15.8273926,0-27.967041,7.0593872-36.2329102,21.1781311
				c-7.079834,11.6915283-10.6010742,25.9029236-10.6010742,42.6897583c0,16.3051147,3.5214844,30.3127136,10.6010742,41.9671631
				c8.5439453,14.1187439,20.4609375,21.1781311,35.8994141,21.1781311c15.1047363,0,26.9475098-7.2076111,35.5100098-21.5301819
				c7.2651367-11.9694519,10.9162598-26.0326233,10.9162598-42.3562622V389.2626343z M2856.7338867,335.6595459
				c-4.1096191-0.7417603-8.2783203-1.107666-12.4543457-1.0931702c-13.9001465,0-24.6496582,5.2250366-32.2111816,15.7492676
				c-6.560791,9.2642822-9.8598633,20.9743042-9.8598633,35.1116028v93.2912598h-39.5134277V356.9117737
				c0.0354004-18.6644592-0.3476563-37.3274231-1.1489258-55.9747314h34.416748l1.4455566,34.0184326h1.0935059
				c4.1884766-11.6915283,10.7495117-21.1225586,19.7565918-28.1819458
				c8.244873-6.1685486,18.2624512-9.5090332,28.5600586-9.5236511c3.651123,0,6.9501953,0.2593994,9.878418,0.7225952
				l0.0371094,37.6870728H2856.7338867z M3033.4504395,381.4065247c0.1000977,6.005127-0.3840332,12.0057068-1.4458008,17.9171448
				h-118.5397949c0.4448242,17.5650635,6.1901855,31.0167847,17.1989746,40.2810669
				c9.989502,8.2637024,22.9074707,12.4141235,38.7719727,12.4141235c17.5512695,0,33.564209-2.7792664,47.9645996-8.3934021
				l6.1901855,27.403717c-16.8283691,7.3373108-36.6962891,10.9874268-59.6220703,10.9874268
				c-27.5778809,0-49.2248535-8.1154785-64.9782715-24.3094482c-15.7165527-16.2124939-23.5932617-38.0020752-23.5932617-65.2946167
				c0-26.7922668,7.3208008-49.1191711,21.9807129-66.9251099c15.3457031-19.0102844,36.0844727-28.5154419,62.1796875-28.5154419
				c25.6318359,0,45.036377,9.5051575,58.213623,28.5154419c10.4343262,15.0636902,15.6794434,33.740448,15.6794434,55.9191589
				V381.4065247z M2995.7719727,371.1602478c0.277832-11.7285461-2.3168945-21.8265991-7.6728516-30.3682861
				c-6.8391113-11.0059509-17.3659668-16.490387-31.4699707-16.490387c-12.9177246,0-23.4448242,5.3547363-31.4511719,16.1012878
				c-6.5793457,8.541687-10.4899902,18.8064575-11.6945801,30.7203674l82.2885742,0.0370789V371.1602478z"/>
		</g>
		<g>
			<path class="st0" d="M1607.3747559,144.9636841c-10.9902344,0-20.4979248-0.537323-28.4117432-1.4452209V24.3057652
				c11.0683594-1.7093544,22.2532959-2.551878,33.4528809-2.519886c45.3143311,0,66.1829834,22.2898388,66.1829834,58.6243362
				C1678.598877,122.3218002,1653.9493408,144.9636841,1607.3747559,144.9636841z M1614.0097656,37.0719376
				c-6.1160889,0-11.3239746,0.3705711-15.6422119,1.2599411v90.6231384
				c2.3352051,0.370575,6.8203125,0.5373383,13.1217041,0.5373383c29.6905518,0,46.5930176-16.8980408,46.5930176-48.5448074
				C1658.0822754,52.728569,1642.7922363,37.0719376,1614.0097656,37.0719376z M1743.6328125,145.871582
				c-25.5390625,0-42.0894775-19.0658798-42.0894775-44.9502563c0-26.9775772,16.9024658-46.2101936,43.5350342-46.2101936
				c25.168457,0,42.0894775,18.1579704,42.0894775,44.7835045c0,27.3110809-17.4399414,46.3769608-43.5350342,46.3769608V145.871582
				z M1744.3741455,68.9039764c-14.0297852,0-23.0185547,13.1182175-23.0185547,31.4614792
				c0,17.9912186,9.1740723,31.1094437,22.833252,31.1094437c13.6590576,0,22.8331299-14.0261154,22.8331299-31.4800186
				C1767.0219727,82.2074661,1758.0332031,68.9039764,1744.3741455,68.9039764L1744.3741455,68.9039764z M1932.803833,56.5083847
				l-27.336792,87.3806534h-17.8106689l-11.3239746-37.9464722c-2.8155518-9.2819672-5.1599121-18.7003098-7.0241699-28.2189789
				H1868.9375c-1.427002,9.523674-4.1329346,19.0658798-7.0056152,28.2189789l-12.0467529,37.9464722h-17.9959717
				l-25.7244873-87.3806305h19.9605713l9.8968506,41.5410194c2.3352051,9.8942566,4.2998047,19.2326355,5.9306641,28.0522232
				h0.3707275c1.427124-7.355835,3.7623291-16.54599,7.19104-27.8669357l12.4173584-41.707756h15.8275146l11.8800049,40.8183975
				c2.8726807,9.8942566,5.2078857,19.6032028,7.0241699,28.7748489h0.5189209
				c1.2602539-8.9863358,3.2434082-18.5285492,5.9306641-28.774826l10.619751-40.8184013l19.0709229-0.0185356V56.5083847z
				 M2033.4404297,143.8890228h-19.4229736V93.713707c0-15.4528046-5.9306641-23.1977463-17.6252441-23.1977463
				c-11.5092773,0-19.4229736,9.8942566-19.4229736,21.4004745v51.9725876h-19.4230957V81.4848633
				c0-7.7264023-0.1853027-16.0086746-0.7227783-24.9950142h17.0877686l0.9082031,13.488781h0.5374756
				c5.2264404-9.3383865,15.8275146-15.2675362,27.7076416-15.2675362c18.3480225,0,30.3947754,14.0261116,30.3947754,36.8532982
				l-0.0184326,52.3246155L2033.4404297,143.8890228z M2087.0021973,143.8890228h-19.4416504V16.4125919h19.4416504V143.8890228z
				 M2157.8186035,145.871582c-25.5205078,0-42.0895996-19.0658798-42.0895996-44.9502563
				c0-26.9775772,16.9025879-46.2101936,43.5166016-46.2101936c25.1870117,0,42.0895996,18.1579704,42.0895996,44.7835045
				c0.0185547,27.3110809-17.4399414,46.3769608-43.5166016,46.3769608V145.871582z M2158.5415039,68.9039764
				c-14.0300293,0-23.0185547,13.1182175-23.0185547,31.4614792c0,17.9912186,9.192627,31.1094437,22.8146973,31.1094437
				c13.6777344,0,22.833252-14.0261154,22.833252-31.4800186
				C2181.1894531,82.2074661,2172.2192383,68.9039764,2158.5415039,68.9039764L2158.5415039,68.9039764z M2277.9152832,143.8890228
				l-1.4084473-10.0610046h-0.5187988c-5.9309082,8.0969849-14.5859375,12.0435486-25.5576172,12.0435486
				c-15.6608887,0-26.7810059-10.9689026-26.7810059-25.7176361c0-21.5672226,18.7004395-32.7214203,51.078125-32.7214203
				v-1.6119766c0-11.5062408-6.0974121-17.2686157-18.144043-17.2686157c-8.6179199,0-16.1796875,2.1678314-22.833252,6.4850006
				l-3.9475098-12.7661743c8.0803223-5.039772,18.1628418-7.5596504,30.0056152-7.5596504
				c22.833252,0,34.361084,12.0435524,34.361084,36.1492119v32.184082c0,8.8195801,0.3891602,15.6566315,1.2602539,20.8631592
				l-17.5141602-0.0185394L2277.9152832,143.8890228z M2275.246582,100.3654556
				c-21.572998,0-32.3964844,5.2250443-32.3964844,17.6206589c0,9.1716309,5.5786133,13.6555328,13.3256836,13.6555328
				c9.8781738,0,19.0708008-7.5411148,19.0708008-17.7874069V100.3654556z M2388.486084,143.8890228l-0.9082031-14.0261078
				h-0.5375977c-5.5786133,10.5983124-14.9562988,16.008667-28.0595703,16.008667
				c-21.0725098,0-36.6777344-18.5285492-36.6777344-44.5982285c0-27.3296204,16.1799316-46.5807762,38.2717285-46.5807762
				c11.6945801,0,19.979248,3.9465866,24.6496582,11.8767967h0.3891602V16.4125996h19.4416504v103.9266586
				c0,8.449028,0.2038574,16.3607101,0.7229004,23.5497818h-17.291748L2388.486084,143.8890228z M2385.6132813,92.4722824
				c0-12.2288361-8.098877-22.660408-20.4606934-22.660408c-14.4006348,0-23.2038574,12.7661743-23.2038574,30.7388763
				c0,17.6206512,9.1367188,29.6827393,22.8146973,29.6827393c12.2133789,0,20.8500977-10.6168594,20.8500977-23.1977463V92.4723053
				L2385.6132813,92.4722824z M2528.3210449,145.871582c-25.520752,0-42.0710449-19.0658798-42.0710449-44.9502563
				c0-26.9775772,16.9025879-46.2101936,43.5166016-46.2101936c25.1870117,0,42.0895996,18.1579704,42.0895996,44.7835045
				c0.0185547,27.3110809-17.4216309,46.3769608-43.5351563,46.3769608V145.871582z M2529.0437012,68.9039764
				c-14.0112305,0-23,13.1182175-23,31.4614792c0,17.9912186,9.1743164,31.1094437,22.8149414,31.1094437
				c13.6774902,0,22.833252-14.0261154,22.833252-31.4800186c0.0368652-17.7874146-8.9516602-31.0909042-22.6479492-31.0909042
				H2529.0437012z M2676.3105469,143.8890228h-19.4416504V93.713707c0-15.4528046-5.9306641-23.1977463-17.6252441-23.1977463
				c-11.5092773,0-19.4042969,9.8942566-19.4042969,21.4004745v51.9725876h-19.4416504V81.4848633
				c0-7.7264023-0.1855469-16.0086746-0.7229004-24.9950142h17.0876465l0.9082031,13.488781h0.5375977
				c5.2077637-9.3383865,15.8273926-15.2860527,27.6889648-15.2860527c18.3481445,0,30.4133301,14.0261116,30.4133301,36.8532906
				V143.8890228z M2806.9902344,71.0718307h-21.3691406v42.4303818c0,10.8021469,3.7436523,16.1939392,11.3054199,16.1939392
				c3.4287109,0,6.3012695-0.370575,8.6179199-0.9078827l0.5375977,14.748703
				c-3.7624512,1.4452362-8.8034668,2.1678467-15.0678711,2.1678467c-15.3085938,0-24.4641113-8.4490356-24.4641113-30.5721054
				V71.0718307h-12.7512207v-14.563446h12.7512207V40.4997215l19.0708008-5.7623787v21.7525253h21.3691406v14.5819626H2806.9902344z
				 M2909.8137207,143.8890228h-19.404541V94.0842819c0-15.638092-5.9121094-23.5497818-17.6252441-23.5497818
				c-10.0637207,0-19.4416504,6.8370438-19.4416504,20.6778641v52.6766739h-19.404541V16.4126091h19.404541v52.4913902h0.3891602
				c6.1162109-9.5236778,14.9750977-14.2114029,26.2805176-14.2114029c18.4963379,0,29.8017578,14.3781509,29.8017578,37.2238541
				v51.9725876V143.8890228z M3015.1577148,104.867897h-58.2875977c0.3706055,16.54599,11.3239746,25.8843918,27.5407715,25.8843918
				c8.6179199,0,16.550293-1.4452362,23.5561523-4.1318588l3.0209961,13.4887772
				c-8.2658691,3.5945435-17.9960938,5.3918152-29.3200684,5.3918152c-27.3366699,0-43.5166016-17.2686157-43.5166016-44.042366
				c0-26.7922821,16.5688477-46.9328156,41.329834-46.9328156c22.3327637,0,36.3439941,16.54599,36.3439941,41.5410233
				c0.1254883,2.9497375-0.0983887,5.9039459-0.6672363,8.8010712L3015.1577148,104.867897z M2997.347168,91.0270767
				c0-13.4887848-6.8017578-23.0124588-19.2192383-23.0124588c-11.1569824,0-19.9790039,9.7089691-21.239502,23.0124588H2997.347168
				L2997.347168,91.0270767z"/>
		</g>
	</g>
</g>
</svg>
