<?xml version="1.0" encoding="utf-8"?>
<!-- Generator: Adobe Illustrator 25.4.1, SVG Export Plug-In . SVG Version: 6.00 Build 0)  -->
<svg version="1.1" id="Layer_1" xmlns="http://www.w3.org/2000/svg" xmlns:xlink="http://www.w3.org/1999/xlink" x="0px" y="0px"
	 width="17px" height="16px" viewBox="0 0 17 16" style="enable-background:new 0 0 17 16;" xml:space="preserve">
<style type="text/css">
	.st0{fill:#0078b9;}
</style>
<path class="st0" d="M15.9999876,8.7500038c0.4142141,0,0.750001-0.3357906,0.750001-0.75c0-0.4142103-0.3357868-0.75-0.750001-0.75
	V8.7500038z M0.4696875,7.4696741c-0.2929001,0.2928896-0.2929001,0.7677698,0,1.0606594l4.7729006,4.7729702
	c0.2928991,0.2928896,0.7677994,0.2928896,1.0606995,0s0.2929001-0.7677698,0-1.0606604L2.060688,8.0000038l4.2425995-4.2426004
	c0.2929001-0.2928991,0.2929001-0.7677994,0-1.0606995s-0.7678003-0.2929001-1.0606995,0L0.4696875,7.4696741z
	 M15.9999876,7.2500038h-15v1.5h15V7.2500038z"/>
</svg>
