<?xml version="1.0" encoding="utf-8"?>
<!-- Generator: Adobe Illustrator 25.4.1, SVG Export Plug-In . SVG Version: 6.00 Build 0)  -->
<svg version="1.1" id="Layer_1" xmlns="http://www.w3.org/2000/svg" xmlns:xlink="http://www.w3.org/1999/xlink" x="0px" y="0px"
	 width="17px" height="16px" viewBox="0 0 17 16" style="enable-background:new 0 0 17 16;" xml:space="preserve">
<style type="text/css">
	.st0{fill:#0078b9;}
</style>
<path class="st0" d="M1.0000124,7.2499981c-0.414214,0-0.75,0.3357902-0.75,0.75c0,0.4142103,0.335786,0.75,0.75,0.75V7.2499981z
	 M16.5303135,8.5303278c0.2929001-0.2928896,0.2929001-0.7677698,0-1.0606599L11.757412,2.6966982
	c-0.2928991-0.2928901-0.7677994-0.2928901-1.0606995,0s-0.2929001,0.7677698,0,1.0606599l4.2425995,4.24264l-4.2425995,4.2426004
	c-0.2929001,0.2928991-0.2929001,0.7677994,0,1.0606995s0.7678003,0.2929001,1.0606995,0L16.5303135,8.5303278z
	 M1.0000124,8.7499981h15.000001v-1.5H1.0000124V8.7499981z"/>
</svg>
