<?xml version="1.0" encoding="utf-8"?>
<!-- Generator: Adobe Illustrator 25.4.1, SVG Export Plug-In . SVG Version: 6.00 Build 0)  -->
<svg version="1.1" id="Layer_1" xmlns="http://www.w3.org/2000/svg" xmlns:xlink="http://www.w3.org/1999/xlink" x="0px" y="0px"
	 width="147.6312103px" height="147.6330872px" viewBox="0 0 147.6312103 147.6330872"
	 style="enable-background:new 0 0 147.6312103 147.6330872;" xml:space="preserve">
<style type="text/css">
	.st0{fill:#0078B9;}
</style>
<g>
	<path class="st0" d="M88.2590179,58.2442703c3.6066513-0.224308,7.0437012-0.4239197,10.4784317-0.6577873
		c1.6539383-0.1126251,3.2900543-0.0497322,4.9038467,0.332058c3.2090073,0.759182,5.2006531,3.6965942,4.7080078,6.951149
		c-1.1345215,7.4949799-2.2815628,14.9880753-3.4198685,22.4824905
		c-1.1058884,7.2808456-6.6066208,10.5837479-12.5174408,11.0413666c-4.0767059,0.3156357-8.0832596-0.3582993-12.1074066-0.8401337
		c-5.4203568-0.6489868-10.7881622-1.6221085-16.1763077-2.47258c-1.2962456-0.2046051-2.6428719-0.1257706-3.9655914-0.1110458
		c-0.6183167,0.0068893-0.8254204-0.1569138-0.8225441-0.8042603c0.038723-8.7118073,0.0266228-17.423912,0.0856018-26.1355362
		c0.0160637-2.373024,0.4029465-3.0836258,2.7124481-3.6197815c3.4019127-0.7897987,5.692318-2.9220848,7.8347206-5.4340782
		c2.0048294-2.3506508,4.0910645-4.6333923,6.1827469-6.9080505c2.6667252-2.9000168,3.861557-6.4149818,4.3886795-10.2218742
		c0.1705856-1.231884,0.3046799-2.4688492,0.4527054-3.7038155c0.2338409-1.9510345,1.0910797-2.659359,3.0463715-2.5135727
		c3.9218903,0.2924042,7.192421,3.5235329,7.5892792,7.47435c0.2330551,2.3203049-0.1617432,4.5486183-0.8511353,6.7551956
		C89.9248199,52.6005211,89.123764,55.3600616,88.2590179,58.2442703z"/>
	<path class="st0" d="M54.8232536,95.3970413c-0.4069939,1.5151291-1.0898438,2.1142654-2.6196213,2.1266861
		c-3.4489098,0.027977-6.8984795,0.0365982-10.3471985-0.0007706c-1.7126656-0.0185318-2.6679649-1.0020294-2.6708794-2.736412
		c-0.0174446-10.3875961-0.0177689-20.7752304-0.0044785-31.162838c0.0023842-1.8631859,0.9773827-2.7996483,2.835144-2.8054504
		c3.4090347-0.0106354,6.8181725-0.0132637,10.2271614,0.0023689c1.4392586,0.0065994,2.1434937,0.5930519,2.5568428,2.0321808
		c-0.2650604,0.2126198-0.1747742,0.5126991-0.1748466,0.7811623c-0.0029297,10.3313332-0.0019951,20.6626701,0.0031471,30.9939995
		C54.6286583,94.8941116,54.5312805,95.1989212,54.8232536,95.3970413z"/>
	<path class="st0" d="M125.3764343,63.0691643c1.8049545,0.4487724,3.7733917,0.8521347,5.6823883,1.4464302
		c1.0745697,0.3345337,1.6946716,0.0740814,2.3415222-0.7763443c1.0186462-1.3392181,2.1582642-2.5860481,3.2368774-3.8801613
		c0.5639496-0.6766357,1.243988-1.0390244,2.117691-0.7322731c0.8470001,0.2973785,1.0393677,1.0140991,1.079834,1.8318024
		c0.091217,1.8425064,0.2433014,3.6822815,0.3154755,5.525322c0.0292664,0.7471085,0.3313751,1.1438522,1.0284424,1.4102631
		c1.6457825,0.6289978,3.2580719,1.3450851,4.8938751,2.0010529c0.818161,0.3280945,1.5408173,0.6928101,1.5583496,1.7386017
		c0.0178223,1.0620117-0.7000885,1.4179916-1.5322723,1.7353287c-1.6833954,0.6419144-3.3444672,1.3425064-5.0297699,1.9791336
		c-0.6898041,0.2605743-0.9799042,0.6613159-1.0141907,1.422554c-0.0829163,1.8418961-0.281189,3.6783066-0.4072571,5.5186768
		c-0.0570679,0.832962-0.3426819,1.484848-1.1820984,1.7706604c-0.8607178,0.2930679-1.4593048-0.118187-1.9797668-0.7541428
		c-1.143158-1.3967972-2.3334656-2.7569351-3.4305878-4.1886749c-0.5471954-0.7140656-1.1255951-0.9019775-1.9709015-0.6740265
		c-1.7014618,0.4588089-3.4227219,0.8435898-5.129097,1.2849197c-0.8437347,0.2182007-1.5993881,0.1914902-2.1549149-0.5794144
		c-0.5374374-0.7457657-0.2609634-1.4413986,0.1685944-2.1195755c0.9870605-1.5583267,1.9407349-3.1391449,2.9725647-4.6671829
		c0.4523544-0.6698914,0.4306717-1.1806564-0.0082474-1.8468933c-1.0359726-1.5725479-2.0290451-3.1763306-2.9700851-4.8075104
		C123.219429,64.4190445,123.8956909,63.0883408,125.3764343,63.0691643z"/>
	<path class="st0" d="M88.6047134,137.9773865c0.0129013,1.1591492-0.6006317,1.760437-1.7943802,1.8439178
		c-1.8404388,0.1286774-3.6824112,0.2589111-5.5259094,0.3102264c-0.8436661,0.0234985-1.2921448,0.338623-1.5888901,1.1322327
		c-0.6310806,1.6877136-1.3663177,3.3361969-2.0367813,5.0095825c-0.3249435,0.8110046-0.7958603,1.378418-1.7565689,1.3592682
		c-0.9345474-0.018631-1.3022156-0.6534576-1.5940857-1.3985596c-0.6574936-1.6784821-1.3527832-3.3428955-1.9733276-5.0348053
		c-0.2861481-0.7802277-0.7067108-1.1212311-1.5770264-1.1507568c-1.8018723-0.061142-3.5983582-0.2698975-5.3985062-0.3975525
		c-0.825264-0.0585022-1.480587-0.3259277-1.7743759-1.1737976c-0.2995491-0.8644867,0.0877991-1.4581909,0.7300034-1.9815979
		c1.3368912-1.0895996,2.617775-2.2537689,4.0057144-3.2727966c0.9364166-0.6875305,1.1005859-1.4105988,0.7777176-2.4807281
		c-0.4736557-1.5699005-0.7881393-3.1872711-1.1945114-4.7782822c-0.2139664-0.8377304-0.2098999-1.6048355,0.5608063-2.1624146
		c0.7387619-0.5344849,1.4376984-0.2731476,2.120636,0.1595001c1.5581589,0.9871292,3.1408157,1.9372711,4.6730728,2.9628448
		c0.6579742,0.4404449,1.1707077,0.4747849,1.8469009,0.0231247c1.4657974-0.979126,2.9923248-1.8669052,4.4859848-2.8048248
		c0.7577286-0.4757996,1.5364838-0.7649689,2.344574-0.179718c0.7891693,0.5715332,0.6635666,1.3787231,0.4532928,2.1862793
		c-0.4542313,1.7445679-0.8824692,3.4962006-1.3611679,5.2339478c-0.2058029,0.7471008-0.0643768,1.2652283,0.5736771,1.7673645
		c1.41745,1.1154938,2.7726517,2.3102417,4.1492233,3.477417C88.2198334,137.0249786,88.6241913,137.466568,88.6047134,137.9773865z
		"/>
	<path class="st0" d="M63.0831833,22.1810246c0.4468536-1.7779236,0.8688927-3.7431908,1.4515762-5.6596165
		c0.3101578-1.0200453,0.0652237-1.6321545-0.7430191-2.2541323c-1.3355179-1.0277424-2.5887108-2.1619129-3.8892097-3.2359562
		c-0.6771202-0.559207-1.0657082-1.2292328-0.7843895-2.1074991c0.2936592-0.9167814,1.0619392-1.089561,1.9210091-1.1293111
		c1.7249413-0.0798211,3.4468269-0.2407985,5.1722069-0.2897105c0.9149857-0.0259399,1.4493332-0.3318439,1.7748184-1.2387762
		c0.5955658-1.6595106,1.327179-3.2698593,1.9869308-4.9068103c0.3247452-0.805772,0.7863083-1.3840414,1.7592545-1.3583919
		c0.9380493,0.0247264,1.2999115,0.6507714,1.592308,1.3995878c0.6711655,1.7188903,1.3789902,3.4237642,2.0284271,5.1506906
		c0.2600708,0.6915336,0.6541977,0.9921632,1.4170837,1.0277724c1.844101,0.086081,3.6826019,0.2859812,5.5255737,0.4059644
		c0.8429108,0.0548782,1.4849014,0.3604507,1.7694855,1.1890917c0.2940674,0.8563499-0.1173096,1.4542303-0.7614975,1.9764519
		c-1.4038315,1.1380434-2.7650452,2.3303089-4.1957092,3.4329004c-0.7143631,0.5505381-0.8857422,1.142375-0.6580811,1.9844618
		c0.4500732,1.664793,0.8251114,3.3497257,1.2590866,5.0190716c0.2150574,0.8272057,0.2734604,1.6013336-0.4791794,2.1921711
		c-0.823204,0.6462173-1.5763016,0.2819595-2.3218155-0.1941566c-1.5224609-0.9722977-3.07341-1.9018612-4.5691986-2.9132633
		c-0.6803665-0.460043-1.1972733-0.3865662-1.8520279,0.0424137c-1.5771866,1.0333366-3.1783447,2.0352497-4.8145905,2.971632
		C64.3774414,24.4265842,63.0670662,23.7141418,63.0831833,22.1810246z"/>
	<path class="st0" d="M36.231926,22.5706234c-0.1941261,2.0885429-0.3467293,3.9680634-0.5539284,5.8415546
		c-0.0819206,0.7407684,0.1665573,1.1947594,0.8097534,1.5644455c1.5642242,0.899065,3.091362,1.8624115,4.642601,2.7844276
		c0.7433357,0.4417992,1.2713623,0.9884491,1.1130981,1.9344254c-0.1521835,0.9096336-0.8347931,1.1965675-1.6190987,1.3720818
		c-1.6813507,0.3762398-3.348011,0.8385963-5.0451202,1.1165619c-1.0926666,0.1789665-1.5600662,0.7013435-1.7532883,1.7474861
		c-0.2981567,1.614315-0.723938,3.2048759-1.0861435,4.8076363c-0.1975822,0.874321-0.5611763,1.6457329-1.5378609,1.7854996
		c-0.9337044,0.1336174-1.4408169-0.5099754-1.8671856-1.2424698c-0.887598-1.5248413-1.833313-3.0167885-2.6879654-4.5594673
		c-0.3992043-0.7205849-0.8396969-1.0418015-1.710537-0.9335556c-1.7101707,0.2125816-3.4374504,0.2834854-5.1539593,0.4508057
		c-0.8925343,0.0869942-1.7198944,0.0327835-2.203949-0.8357773c-0.4957771-0.8895988-0.0670834-1.5876389,0.542944-2.2605476
		c1.2124577-1.3374557,2.3625813-2.7319527,3.5902958-4.0547676c0.5082607-0.5476303,0.612072-1.0123234,0.2942295-1.7085304
		c-0.7152233-1.5666676-1.3275013-3.1799831-2.0085201-4.7627583c-0.3607845-0.8385124-0.7040634-1.6589451,0.0587292-2.4504395
		c0.8204823-0.8513489,1.6817913-0.4367771,2.5441208-0.0606785c1.578989,0.6886768,3.1765041,1.336689,4.7390366,2.0604954
		c0.6829758,0.3163719,1.1660213,0.2341633,1.723978-0.2729416c1.3651848-1.2407551,2.7861919-2.4201641,4.1870003-3.6216164
		c0.6162071-0.5285034,1.291687-0.8376446,2.0884476-0.4206829C36.1206818,21.2610855,36.3559341,21.9406319,36.231926,22.5706234z"
		/>
	<path class="st0" d="M22.2204151,84.5565796c-1.5079231-0.3817215-3.2520313-0.7074509-4.9123955-1.2772217
		c-1.5515289-0.5324402-2.6066465-0.2771225-3.5278521,1.1362c-0.7391253,1.1339874-1.7403145,2.0952454-2.603097,3.1512222
		c-0.5972691,0.7309952-1.2722197,1.2686768-2.2720947,0.938858C7.9201312,88.1807785,7.830862,87.329834,7.786808,86.4534073
		c-0.0885925-1.7624664-0.2297678-3.5225525-0.2985258-5.2855988c-0.0285735-0.7327347-0.2798796-1.1507187-1.0048923-1.4217224
		c-1.7248964-0.6447296-3.4103327-1.3943863-5.1180897-2.0858841c-0.8041207-0.3256073-1.3881239-0.7896576-1.3646148-1.7557449
		c0.022619-0.9296494,0.6454054-1.301239,1.3969361-1.5938873c1.7169592-0.6685638,3.4192147-1.3754883,5.1429152-2.0258408
		c0.6837473-0.2579727,1.0002327-0.6360626,1.0339994-1.406517c0.0789638-1.8017044,0.2823029-3.59758,0.3972769-5.3982391
		c0.0553155-0.8662643,0.2834764-1.5912514,1.1771979-1.9039307c0.9109478-0.3187256,1.518342,0.142849,2.0627241,0.818512
		c1.1071224,1.3741226,2.2794762,2.6973267,3.348875,4.0995483c0.5793362,0.7596359,1.2000074,0.9159393,2.0848618,0.6719131
		c1.6210537-0.4470596,3.2694435-0.7940826,4.8958378-1.2230148c0.8718281-0.2299347,1.6818504-0.2999954,2.2828465,0.5157852
		c0.6209354,0.8428345,0.1923599,1.591568-0.2713757,2.3246918c-0.9432087,1.491127-1.8528423,3.0047989-2.8397217,4.466362
		c-0.4437733,0.6572266-0.4777489,1.1671906-0.0279522,1.8456039c1.0405388,1.5694199,2.0348606,3.1725998,2.9781055,4.8024673
		C24.4232159,83.2111664,23.7804775,84.5180054,22.2204151,84.5565796z"/>
	<path class="st0" d="M111.4307709,124.7424927c0.164856-1.7569809,0.2839127-3.5199356,0.512146-5.2686386
		c0.1219025-0.9338531-0.162262-1.4926987-0.9830246-1.9468918c-1.4720764-0.8146057-2.8854141-1.7346649-4.3373184-2.5867233
		c-0.7723541-0.4532623-1.3922272-0.9738312-1.2372665-1.9862366c0.1601181-1.0459595,0.9975586-1.2668686,1.8317719-1.4574814
		c1.6795273-0.3837967,3.3583908-0.775032,5.0492172-1.1028519c0.8525162-0.1652527,1.312294-0.5546494,1.4834061-1.4450073
		c0.3249893-1.6908951,0.7661438-3.35923,1.1449509-5.0401077c0.1966934-0.8727493,0.5436325-1.6390228,1.5210571-1.8009415
		c0.9542618-0.1580887,1.4381638,0.494606,1.8644638,1.2257538c0.9087982,1.5587234,1.8753204,3.0845718,2.7552185,4.6590729
		c0.3882599,0.6948013,0.8467789,0.9361115,1.6427307,0.8431931c1.7117538-0.1997986,3.4362717-0.2875519,5.1523285-0.4544678
		c0.9400558-0.0914459,1.815773-0.0117569,2.274559,0.9297714c0.4390564,0.9010315-0.0529327,1.5882111-0.6571045,2.2507706
		c-1.1891022,1.3040161-2.3014526,2.6790695-3.5125809,3.9614563c-0.5618896,0.5949783-0.59935,1.0981293-0.2729568,1.8160095
		c0.7459641,1.6406708,1.4000778,3.322876,2.1087646,4.9808197c0.341507,0.7989502,0.430069,1.5540237-0.2595901,2.2151108
		c-0.6614151,0.6340103-1.3852463,0.4624023-2.1223984,0.1411743c-1.6530914-0.7203674-3.3260117-1.3976212-4.959549-2.1595612
		c-0.7564774-0.3528595-1.3055115-0.3076096-1.9372711,0.2794418c-1.2920837,1.2007141-2.6621399,2.3172684-3.9944992,3.4749069
		c-0.6427612,0.5584793-1.3313751,0.9203644-2.1877975,0.5165939
		C111.5899734,126.448143,111.3664169,125.8977737,111.4307709,124.7424927z"/>
	<path class="st0" d="M125.0036163,36.2278481c-1.9060135-0.1820335-3.6306686-0.2912445-5.337204-0.529995
		c-1.0680313-0.1494179-1.7109375,0.1557198-2.2232513,1.1264229c-0.7661591,1.4516296-1.6856766,2.8217926-2.523941,4.2360954
		c-0.4598541,0.775856-1.0175781,1.3683472-2.0183487,1.1785812c-0.9615707-0.182312-1.2003937-0.9599915-1.381897-1.7661552
		c-0.3960876-1.759613-0.8099213-3.5156403-1.1736526-5.2819633c-0.1464539-0.7112198-0.4610901-1.0944557-1.2174377-1.2489853
		c-1.8048096-0.3687668-3.5864182-0.849453-5.3838882-1.2563133c-0.8605347-0.1947784-1.5200653-0.613369-1.6407013-1.5231495
		c-0.116951-0.8821316,0.480217-1.3716793,1.1797028-1.7794094c1.593277-0.928709,3.1589737-1.9051342,4.7610168-2.8180656
		c0.6362457-0.3625736,0.8966217-0.7758923,0.8066635-1.5438042c-0.2099075-1.7916794-0.3071747-3.5962753-0.4703293-5.3938103
		c-0.0779266-0.8585491,0.0505676-1.6324635,0.8771286-2.0679398c0.8370743-0.4410057,1.5247955-0.0838032,2.1704941,0.4989796
		c1.3400116,1.209425,2.744873,2.3497601,4.0438614,3.6007385c0.6328278,0.6094475,1.1631622,0.6413631,1.9185715,0.2957382
		c1.6023788-0.7331696,3.2449036-1.3782768,4.8668213-2.0692482c0.7829285-0.3335476,1.5466385-0.4860535,2.231575,0.1881905
		c0.6939697,0.683136,0.5137405,1.4410877,0.1731415,2.2203217c-0.6740417,1.5421124-1.2687531,3.1226292-2.0168304,4.6273155
		c-0.4798737,0.9651794-0.4386673,1.6443958,0.3462448,2.4438038c1.1780014,1.1997318,2.2175751,2.5352745,3.3176727,3.8116226
		c0.5569458,0.6461678,0.9133377,1.3413239,0.4510422,2.1857262
		C126.336731,36.1358147,125.6513748,36.3580971,125.0036163,36.2278481z"/>
	<path class="st0" d="M22.6257401,111.4031448c2.0174503,0.1906052,3.8182945,0.3244629,5.6084137,0.5452576
		c0.8865452,0.1093445,1.414278-0.1848373,1.8465385-0.9551468c0.8628235-1.5375443,1.8134232-3.0256195,2.7139091-4.5423584
		c0.4204178-0.7081375,0.9547386-1.1862488,1.8427544-1.0693665c0.9145126,0.1203537,1.243309,0.7751083,1.4229355,1.5654984
		c0.4173088,1.8361435,0.8610573,3.6668167,1.2408066,5.5106812c0.1495934,0.7263565,0.4892311,1.0872726,1.2307816,1.2393875
		c1.7654114,0.3621521,3.5125885,0.8126068,5.2693939,1.2175522c0.8299141,0.1912842,1.5523071,0.5361481,1.7180328,1.4562531
		c0.170948,0.9490662-0.451767,1.4549866-1.1855927,1.8852234c-1.5213852,0.8919907-3.0062256,1.848999-4.5517235,2.6960297
		c-0.7666969,0.4202042-1.1108513,0.8704529-0.9867516,1.7965546c0.2234154,1.6671982,0.2873878,3.3551407,0.4535484,5.0308838
		c0.0925217,0.9330521,0.0433083,1.8067398-0.885891,2.2973404c-0.898941,0.4746399-1.5871391,0.0041046-2.2522888-0.5995789
		c-1.2770424-1.1590576-2.6353111-2.2320786-3.8684845-3.4345398c-0.6983624-0.6809845-1.2911491-0.7058487-2.127285-0.3143463
		c-1.5587215,0.7298431-3.1691475,1.3487549-4.7530346,2.0255737c-0.7882652,0.336853-1.551712,0.4643402-2.2280598-0.2119751
		c-0.6884995-0.6884689-0.493372-1.4441757-0.1522789-2.2223816c0.739851-1.6880493,1.4329033-3.3970566,2.1982098-5.0732422
		c0.2921638-0.6399231,0.2260284-1.1023636-0.2424965-1.624855c-1.2314644-1.3733368-2.4135418-2.790863-3.6215496-4.1853561
		c-0.5323296-0.6145172-0.8665237-1.2879181-0.4844646-2.0860214
		C21.2340755,111.5085373,21.9581089,111.2644882,22.6257401,111.4031448z"/>
	<path class="st0" d="M54.8232536,95.3970413c-0.2919731-0.1981201-0.1945953-0.5029297-0.1947289-0.7690735
		c-0.0051422-10.3313293-0.0060768-20.6626663-0.0031471-30.9939995c0.0000725-0.2684631-0.0902138-0.5685425,0.1748466-0.7811623
		c0.2446747,0.2779083,0.1419792,0.6143837,0.1421432,0.9233627c0.0052643,10.2710648,0.0045586,20.5421295-0.0007515,30.8131943
		C54.9414673,94.859848,55.032711,95.153389,54.8232536,95.3970413z"/>
</g>
</svg>
