<?xml version="1.0" encoding="utf-8"?>
<!-- Generator: Adobe Illustrator 25.4.1, SVG Export Plug-In . SVG Version: 6.00 Build 0)  -->
<svg version="1.1" id="Layer_1" xmlns="http://www.w3.org/2000/svg" xmlns:xlink="http://www.w3.org/1999/xlink" x="0px" y="0px"
	 width="9.9739685px" height="9.9739685px" viewBox="0 0 9.9739685 9.9739685"
	 style="enable-background:new 0 0 9.9739685 9.9739685;" xml:space="preserve">
<style type="text/css">
	.st0{fill:url(#SVGID_1_);}
	.st1{fill:#FFFFFF;}
</style>
<linearGradient id="SVGID_1_" gradientUnits="userSpaceOnUse" x1="4.9869843" y1="10.4711409" x2="4.9869843" y2="1.0460598">
	<stop  offset="0" style="stop-color:#444C4C"/>
	<stop  offset="1" style="stop-color:#5D6567"/>
</linearGradient>
<path class="st0" d="M9.284584,2.3361328c2.4952555,4.7125587-2.2358923,9.4437065-6.948451,6.948451
	C1.6398228,8.9158945,1.0578851,8.33391,0.6892456,7.6375732c-2.4948437-4.7126017,2.2357256-9.4431715,6.9483275-6.9483275
	C8.33391,1.0578851,8.9158945,1.6398228,9.284584,2.3361328z"/>
<g>
	<g>
		<path class="st1" d="M3.725405,7.8978944c-0.0148487,0-0.0296974-0.0006242-0.0439222-0.0012479
			C3.5050449,7.8842931,3.3414595,7.7984452,3.2309053,7.6595659l-1.960405-2.459147
			c-0.2172405-0.272892-0.172819-0.6704383,0.100572-0.8883023c0.2722681-0.2172408,0.6698143-0.1728191,0.8883026,0.1006966
			L3.7907891,6.333663l3.6184702-3.4270587C7.6629353,2.668401,8.0622282,2.6782584,8.3030519,2.9313107
			c0.2394514,0.2536759,0.2289696,0.6537178-0.0247059,0.8937929L4.1598859,7.7249503
			C4.0419698,7.8361287,3.8864949,7.8978944,3.725405,7.8978944z"/>
	</g>
</g>
</svg>
