                    <svg xmlns="http://www.w3.org/2000/svg" width="1.2em" height="1.2em" viewBox="0 0 48 48"><path fill="rgb(0,120,185)" stroke="currentColor" stroke-linecap="round" stroke-linejoin="round" d="m33.3 23.395l-7.119-7.118a3.08 3.08 0 0 0-4.353-.01l-.01.01L6.433 31.664a3.08 3.08 0 0 0-.01 4.353l.01.01l5.561 5.56c1.208 1.209 3.154 1.209 4.313.049l5.512-5.511a3.08 3.08 0 0 1 4.353-.01l.01.01l5.511 5.51c1.161 1.16 3.106 1.16 4.315-.047l5.561-5.561a3.08 3.08 0 0 0 .01-4.353l-.01-.01zm0-9.87l-7.12-7.119a3.08 3.08 0 0 0-4.353-.009l-.009.01L6.431 21.792a3.08 3.08 0 0 0-.01 4.353l.01.01l5.561 5.561c1.208 1.208 3.155 1.208 4.313.048l5.513-5.511a3.08 3.08 0 0 1 4.353-.01l.01.01l5.511 5.51c1.16 1.161 3.105 1.161 4.314-.047l5.561-5.561a3.08 3.08 0 0 0 .01-4.353l-.01-.01L33.3 9.488z"/></svg>
