<?xml version="1.0" encoding="utf-8"?>
<!-- Generator: Adobe Illustrator 19.0.0, SVG Export Plug-In . SVG Version: 6.00 Build 0)  -->
<svg version="1.1" id="Layer_1" xmlns="http://www.w3.org/2000/svg" xmlns:xlink="http://www.w3.org/1999/xlink" x="0px" y="0px"
	 width="100px" height="100px" viewBox="0 0 100 100" style="enable-background:new 0 0 100 100;" xml:space="preserve">
<style type="text/css">
	.st0{fill:#FFFFFF;}
</style>
<path id="XMLID_53_" class="st0" d="M0,50.2985306c0.0028162,11.9065819,4.2523713,23.4218674,11.9848022,32.4756699
	c7.7324657,9.0541687,18.4407711,15.0534668,30.2002525,16.9193726V64.7486877H29.5000153V50.2985306h12.7001343V39.2985802
	c-0.2804947-2.574604,0.0091972-5.1793213,0.848835-7.6292133c0.8396416-2.449894,2.2086067-4.6848526,4.0093536-6.5461922
	c1.8007507-1.8612995,3.9891052-3.303297,6.4097328-4.2235489c2.4209938-0.9202499,5.0146294-1.296154,7.596859-1.1010971
	c3.7502098,0.0599995,7.500042,0.3950062,11.2001991,1.0000172V33.093544h-6.3199158
	c-1.0744858-0.140686-2.1662788-0.0382042-3.1954842,0.2998924c-1.029213,0.3381004-1.9693375,0.9031715-2.7508163,1.6534386
	c-0.7814827,0.7502594-1.3844261,1.6665344-1.7639389,2.6810188c-0.379879,1.0148582-0.5267525,2.10149-0.4299469,3.1807594
	v9.3898773h13.8549461l-2.2148666,14.4549408H57.805027V99.693573c9.4380989-1.491539,18.2511635-5.6562347,25.3956261-12.0011826
	c7.1448288-6.3449402,12.3218002-14.6040192,14.9180069-23.7999115c2.5965805-9.1955185,2.5034637-18.9428177-0.267601-28.0872803
	c-2.771431-9.1445389-8.1048431-17.3035259-15.3693085-23.510952C75.217659,6.0867825,66.326561,2.090867,56.8619576,0.7795385
	C47.3969879-0.5317866,37.7545967,0.8964068,29.0762577,4.89502C20.3979168,8.8936596,13.0470972,15.2952595,7.8940206,23.3419361
	C2.7409723,31.3885765,0.0015168,40.7433739,0,50.2985306z"/>
</svg>
