<?xml version="1.0" encoding="utf-8"?>
<!-- Generator: Adobe Illustrator 25.4.1, SVG Export Plug-In . SVG Version: 6.00 Build 0)  -->
<svg version="1.1" id="Layer_1" xmlns="http://www.w3.org/2000/svg" xmlns:xlink="http://www.w3.org/1999/xlink" x="0px" y="0px"
	 width="100px" height="100px" viewBox="0 0 100 100" style="enable-background:new 0 0 100 100;" xml:space="preserve">
<style type="text/css">
	.st0{fill:#0078B9;}
</style>
<g>
	<path class="st0" d="M23.8816032,13.9789591c0-1.2866755-0.0147762-2.5123301,0.0036335-3.7374868
		c0.0244789-1.6290245,1.343008-2.8988099,2.9665794-2.88515c1.5909138,0.0133853,2.8817997,1.2825441,2.9128666,2.89153
		c0.0203075,1.051816,0.0036774,2.1043291,0.0064201,3.1565208c0.0004539,0.1734982,0.0154762,0.3469543,0.024971,0.5456467
		c13.4740829,0,26.9133568,0,40.4068527,0c0.0096512-0.1754761,0.0266647-0.3457193,0.0271378-0.5160084
		c0.0029297-1.0700264-0.013649-2.140357,0.0063705-3.2100248c0.0298767-1.5963287,1.3422318-2.8671126,2.9341278-2.8684778
		c1.598175-0.0013714,2.9104156,1.2597179,2.9431229,2.8570786c0.0248108,1.2118511,0.0161362,2.4243832,0.0232773,3.6366081
		c0.0000992,0.0158987,0.0122681,0.0317268,0.0524673,0.1292429c0.1535187,0,0.3416061,0.0000029,0.5296936,0
		c2.4967499-0.0000343,4.9934998-0.0042915,7.490242,0.0007238c6.5239868,0.0130987,11.780983,5.245472,11.7841492,11.7651234
		c0.0089188,18.3689232,0.0085373,36.7378578-0.0005112,55.1067886
		c-0.0032196,6.5275955-5.2412186,11.7821274-11.7657776,11.7852936
		c-22.8095665,0.0110779-45.6191444,0.0102997-68.4287109,0.0008469C9.2407045,92.634491,4.006855,87.3833694,4.0045981,80.8257141
		c-0.0063114-18.3332558-0.0059245-36.6665192-0.000071-54.9997787c0.0021162-6.6272659,5.2338095-11.8414583,11.8631811-11.8472681
		c2.4432449-0.002141,4.8864899,0.0000706,7.3297367,0.0002909C23.4061317,13.9789753,23.6148224,13.9789591,23.8816032,13.9789591z
		 M90.1024399,37.5459633c-26.7736816,0-53.4631348,0-80.1828613,0c-0.0091553,0.2083855-0.0235329,0.3829956-0.0235434,0.5576096
		C9.8951664,52.2819786,9.8929672,66.4603882,9.8972988,80.6387939c0.0010967,3.5894699,2.5505476,6.1157913,6.1491013,6.1158371
		c22.6319485,0.0003052,45.2638931,0.0002441,67.8958435,0.0000687c3.6250687-0.0000305,6.1594543-2.5301971,6.1599121-6.1602478
		c0.0018158-14.1427383,0.0004578-28.2854729,0.0002823-42.4282112
		C90.1024323,37.9735298,90.1024399,37.7808228,90.1024399,37.5459633z M70.2328339,19.9023857
		c-13.5248871,0-26.9774437,0-40.4632072,0c0,1.4656639,0.0114117,2.8904362-0.0029583,4.3149529
		c-0.0170155,1.6871433-1.2932053,2.9867764-2.9203262,2.9998894c-1.6510181,0.0133057-2.9523888-1.3017101-2.9644032-3.0044498
		c-0.0069199-0.9808331-0.0011044-1.9617558-0.0010452-2.9426403c0.0000286-0.4565296,0.0000038-0.9130592,0.0000038-1.3810711
		c-2.9615631,0-5.8545837-0.1230583-8.7320929,0.0354557c-2.7436113,0.1511383-4.9636507,2.4027596-5.1722803,5.135479
		c-0.1584063,2.0748825-0.0630751,4.1691704-0.0782661,6.2548409c-0.0006123,0.08395,0.0232515,0.1680813,0.0365343,0.2576752
		c26.7304993,0,53.4303932,0,80.1677856,0c0-1.9196301,0.0034332-3.7904053-0.0007401-5.6611671
		c-0.0077896-3.4848957-2.5634766-6.0406437-6.0521622-6.0487785c-2.4432831-0.0056992-4.8865814-0.0012112-7.3298798-0.0012703
		c-0.1879501-0.0000057-0.3759079-0.0000019-0.5395355-0.0000019c-0.0342636,0.1132374-0.052887,0.1461983-0.0529861,0.1792126
		c-0.0038605,1.3552914,0.0061264,2.7107906-0.0161819,4.0657578c-0.0063553,0.3861599-0.0494919,0.7899857-0.1728516,1.152689
		c-0.4620972,1.3586769-1.8303375,2.1387386-3.2652664,1.9039593c-1.3811874-0.2259884-2.4185104-1.416275-2.4361267-2.8399181
		C70.2187729,22.8630505,70.2328339,21.4027061,70.2328339,19.9023857z"/>
	<path class="st0" d="M67.323288,44.1464577c4.8831024,0,9.7452621,0,14.6444855,0c0,4.6331902,0,9.257782,0,13.9103317
		c-4.8807907,0-9.7422714,0-14.6444855,0C67.323288,53.4272728,67.323288,48.8031197,67.323288,44.1464577z"/>
	<path class="st0" d="M67.3149033,80.0987701c0-4.6163559,0-9.2270584,0-13.8804016c4.8847122,0,9.7559204,0,14.6584244,0
		c0,4.6218338,0,9.2314072,0,13.8804016C77.0940552,80.0987701,72.2202911,80.0987701,67.3149033,80.0987701z"/>
	<path class="st0" d="M32.6669884,58.0659447c-4.8891888,0-9.7367458,0-14.6283665,0c0-4.627861,0-9.2515335,0-13.9137421
		c4.863905,0,9.7241478,0,14.6283665,0C32.6669884,48.7661095,32.6669884,53.3905945,32.6669884,58.0659447z"/>
	<path class="st0" d="M56.9591599,44.1545525c0,4.6420174,0,9.2509308,0,13.8950195c-4.8742905,0-9.7326355,0-14.6359596,0
		c0-4.6121674,0-9.2334137,0-13.8950195C47.1811104,44.1545525,52.0381699,44.1545525,56.9591599,44.1545525z"/>
	<path class="st0" d="M18.0248661,80.0922699c0-4.6403503,0-9.2491302,0-13.8871918c4.8883266,0,9.7461777,0,14.6450634,0
		c0,4.6253662,0,9.2329407,0,13.8871918C27.8096504,80.0922699,22.9388218,80.0922699,18.0248661,80.0922699z"/>
	<path class="st0" d="M56.9588089,66.2145386c0,4.6346054,0,9.2427063,0,13.8874359c-4.8716125,0-9.7296295,0-14.6338921,0
		c0-4.6067505,0-9.2273407,0-13.8874359C47.1785622,66.2145386,52.0355225,66.2145386,56.9588089,66.2145386z"/>
</g>
</svg>
