<?xml version="1.0" encoding="utf-8"?>
<!-- Generator: Adobe Illustrator 25.4.1, SVG Export Plug-In . SVG Version: 6.00 Build 0)  -->
<svg version="1.1" id="Layer_1" xmlns="http://www.w3.org/2000/svg" xmlns:xlink="http://www.w3.org/1999/xlink" x="0px" y="0px"
	 width="100px" height="100px" viewBox="0 0 100 100" style="enable-background:new 0 0 100 100;" xml:space="preserve">
<style type="text/css">
	.st0{fill:#0078B9;}
</style>
<g>
	<path class="st0" d="M24.5614853,67.5527267c-0.5221062,2.0833664-1.1714859,4.1443481-1.5423908,6.2542953
		c-1.0995197,6.2547836-0.8365021,12.536911-0.1028957,18.8084488c0.2742424,2.3445053-0.6271286,3.4420013-2.9764652,3.442955
		c-4.2736235,0.0017319-8.5472469,0.0015945-12.8208714,0.0005035c-2.7192616-0.0006943-3.7682178-1.6884308-2.5699191-4.1017456
		c2.6105442-5.2574844,4.1418447-10.8677597,5.2777491-16.5886765c0.6717062-3.3830032,1.1514072-6.8041687,1.7125092-10.208992
		c0.0373993-0.2269516,0.0328646-0.4608154,0.0568838-0.8309021c-1.0547619,0-2.0671282,0.0043411-3.0794477-0.0007858
		c-3.6534486-0.0185089-5.6099677-3.2107811-3.8782392-6.4396477c1.2571731-2.3440437,2.6513653-4.6146011,3.9843621-6.9179878
		c0.1404762-0.2427406,0.2802563-0.4858856,0.4999304-0.8668213c-1.0084648,0-1.8743138,0.0099335-2.7398496-0.0022545
		c-1.3991776-0.0197144-2.3360128-0.8943825-2.3515229-2.1775551c-0.0160246-1.3262062,0.9242926-2.2356071,2.3748775-2.2371635
		c7.3763804-0.0079269,14.752779-0.0034409,22.1291676-0.0032959c0.3450775,0.0000076,0.690155,0,1.221262,0
		c-0.6838207-1.7537613-1.2318325-3.4159203-1.9774513-4.984127c-0.5254841-1.1051941-1.7970734-1.4658508-3.0384102-1.1257896
		c-3.3671055,0.9224319-5.7315903-0.2826996-6.9326591-3.5387154c-0.7884102-2.13731-1.5706024-4.2769032-2.3989878-6.5337372
		c6.6282225-2.666975,13.2254534-5.3214798,19.9031067-8.0083427c0.2032471,0.5514164,0.382946,1.0385761,0.5623779,1.5258331
		c0.7579041,2.0581818,1.5472946,4.105444,2.2656898,6.1773281c0.921463,2.6575623-0.2828827,5.3478031-2.8443222,6.4807873
		c-1.8153954,0.80299-2.356514,2.0490456-1.6797752,3.8928413c0.6549377,1.78442,1.3485641,3.5554123,1.9620934,5.3538246
		c0.2092705,0.6134529,0.5214195,0.774704,1.1383476,0.7728462c6.8494492-0.0206604,13.6989746-0.012764,20.548481-0.0125885
		c0.3490601,0.0000076,0.6981239-0.0000038,1.1077423-0.0000038c0,6.2150116,0,12.3721962,0,18.6359558
		c-9.9653435,0-19.9281502,0-30.0410748,0c0.1923161,1.0071335,0.3247471,1.894722,0.533556,2.7639694
		c2.00354,8.340683,6.3748741,15.1330795,13.2829285,20.2613754c1.1570778,0.8589706,1.4245644,2.0607986,0.6855278,3.0164795
		c-0.7238464,0.9360352-1.8868141,1.0053864-3.0339699,0.1486816c-7.5109482-5.6091461-12.3543568-12.9937057-14.662569-22.0618896
		c-0.050478-0.1982956-0.0967789-0.3977203-0.150425-0.5951538c-0.0225239-0.0828781-0.059145-0.1619263-0.0893555-0.2427139
		C24.7854805,67.5908813,24.6734829,67.5718079,24.5614853,67.5527267z M26.6076336,48.9972076v-0.0058594
		c-2.3994751,0-4.7991924-0.0205269-7.1983356,0.007618c-1.464323,0.0171738-2.5404034,1.091011-2.5580063,2.464119
		c-0.0175228,1.3673401,1.060524,2.5190697,2.4959068,2.5269623c4.8573036,0.0267372,9.7150574,0.031559,14.5720024-0.0177879
		c0.5619698-0.0057144,1.1987915-0.2975616,1.6624336-0.6427383c0.8219376-0.6119308,1.0622635-1.7605209,0.6825333-2.7045517
		c-0.4088745-1.0164604-1.1712723-1.6105614-2.2827225-1.6207504
		C31.5236969,48.9816933,29.0655956,48.9972076,26.6076336,48.9972076z"/>
	<path class="st0" d="M62.4211502,55.0041046c0.0004807-2.749897-0.0060577-5.4998207,0.0025101-8.2496948
		c0.0070839-2.2739487,1.2737389-3.550869,3.5214996-3.5541458c3.8030472-0.0055389,7.6061249-0.0063934,11.4091721,0.0001335
		c2.2554855,0.0038719,3.5278625,1.2677193,3.532814,3.5461502c0.0119705,5.4997749,0.0118866,10.9996071-0.0019073,16.4993782
		c-0.0058136,2.3165207-1.2826691,3.5476608-3.6088638,3.5471802c-3.7737961-0.0007782-7.5475922,0.001564-11.3213806,0.0003815
		c-2.2531891-0.0007095-3.5226212-1.2639084-3.531723-3.5396881C62.4122734,60.5039368,62.4206581,57.7540092,62.4211502,55.0041046
		z M71.66465,63.1408958V63.136879c1.314537,0,2.6294632,0.019825,3.9434891-0.0058479
		c1.1943436-0.0233383,2.0367432-0.8398438,2.0631332-1.9393349c0.0274658-1.1445541-0.8076935-2.0431175-2.0367966-2.0589104
		c-2.6286163-0.0337677-5.2582779-0.0350189-7.8868942-0.0013885c-1.3103714,0.0167694-2.1433029,0.8918419-2.1041794,2.0775566
		c0.0375977,1.1396294,0.8855591,1.9103241,2.1652985,1.9280281C69.0937958,63.1547661,70.3793182,63.1408958,71.66465,63.1408958z
		 M71.6295319,50.8562431c1.2850189,0,2.5701141,0.0086632,3.8550339-0.0024109
		c1.311882-0.0113068,2.1878738-0.8146667,2.1892776-1.9839439c0.0014267-1.1725349-0.8698807-1.990921-2.1797104-1.9975357
		c-2.5699692-0.0129814-5.1401062-0.0144348-7.7100449,0.0012856c-1.3052139,0.007988-2.1586685,0.8400688-2.1437836,2.031002
		c0.0141449,1.1322937,0.8801422,1.9358025,2.1342087,1.9494171C69.0593796,50.8680077,70.3445129,50.857151,71.6295319,50.8562431z
		"/>
	<path class="st0" d="M30.535284,8.8131981c-6.5616264,2.6390343-13.1367188,5.2834826-19.778698,7.954834
		c-0.5983562-1.4368629-1.2718849-2.8078451-1.0162048-4.3897467c0.3373318-2.0870686,1.5271397-3.4896231,3.5093727-4.2203159
		c3.3148489-1.2219076,6.6287642-2.4463429,9.9454889-3.6631451C26.6663227,3.2213933,29.8102016,5.0458302,30.535284,8.8131981z"/>
	<path class="st0" d="M14.0168571,25.7290173c-0.6503611-1.7624798-1.2646103-3.4270935-1.9097452-5.175396
		c6.642787-2.6715736,13.2387743-5.3243246,19.9073792-8.0062809c0.6392021,1.7272043,1.2541847,3.3889818,1.9141159,5.1722012
		C27.2849255,20.3919525,20.6714153,23.052227,14.0168571,25.7290173z"/>
	<path class="st0" d="M84.9101562,58.9287262c0-2.6516113,0-5.1942978,0-7.8477478
		c0.2880478-0.0169106,0.5652618-0.0469017,0.842514-0.0473328c2.6048431-0.0040245,5.2097015-0.0091858,7.8145065-0.001236
		c1.7132645,0.0052299,2.5887527,0.8810768,2.6074524,2.5969543c0.0108414,0.9949722,0.0264816,1.9910431-0.0069122,2.9850464
		c-0.0436249,1.2991142-0.7668762,2.2576523-1.9722061,2.288372C91.1322784,58.9808502,88.0657196,58.9287262,84.9101562,58.9287262
		z"/>
</g>
</svg>
