<?xml version="1.0" encoding="utf-8"?>
<!-- Generator: Adobe Illustrator 25.4.1, SVG Export Plug-In . SVG Version: 6.00 Build 0)  -->
<svg version="1.1" id="Layer_1" xmlns="http://www.w3.org/2000/svg" xmlns:xlink="http://www.w3.org/1999/xlink" x="0px" y="0px"
	 width="100px" height="100px" viewBox="0 0 100 100" style="enable-background:new 0 0 100 100;" xml:space="preserve">
<style type="text/css">
	.st0{fill:#0078B9;}
</style>
<g>
	<path class="st0" d="M49.9798813,77.3854065c-12.3865929-0.0002823-24.7731934,0.009491-37.1597672-0.0055389
		c-4.3753452-0.0053101-8.043663-2.8799973-8.6355238-7.1068039c-0.3093388-2.2091522-0.1922274-4.5432739,0.1255383-6.7647018
		c2.6300488-18.3860626,12.5274582-31.3336182,29.8604012-37.9435654
		c26.2598877-10.0142565,55.4788017,6.4605503,60.9226875,34.0286789c0.5629578,2.8508415,0.8066483,5.7931862,0.8979263,8.7024956
		c0.1665955,5.3099213-3.6305008,9.0814514-8.9375,9.0861816C74.6957321,77.3931961,62.3378029,77.3856888,49.9798813,77.3854065z
		 M50.012825,72.1648331c12.2737007,0,24.5473938,0.0022583,36.8210907-0.0017853
		c2.6665573-0.000885,4.0992432-1.3783112,3.9427872-4.0474472c-0.1505051-2.5675278-0.3455124-5.1586838-0.8440628-7.6754646
		c-4.0901794-20.6473808-24.125885-35.0250931-44.9336548-32.2252731
		C32.660984,29.875021,22.9616871,35.9446754,15.9967318,46.2484016
		c-4.5161276,6.6810188-6.6911335,14.1382713-6.7765265,22.2050896c-0.0153246,1.4477692,0.5064535,2.6217499,1.8235102,3.2437286
		c0.669095,0.3159866,1.4844093,0.4474258,2.2340927,0.4490433C25.5227699,72.172699,37.7678032,72.1650009,50.012825,72.1648331z"
		/>
	<path class="st0" d="M49.8169022,69.9819717c-0.830986-0.0139847-1.8692245-0.4427414-2.7036591-1.3075485
		c-5.0146027-5.197113-10.0255318-10.3977814-15.0281601-15.6063995c-0.8704796-0.9063263-0.9274769-2.0934029-0.200676-2.9494972
		c0.7552299-0.8895798,1.8799782-1.0378647,2.9325104-0.3179016c5.9813042,4.0914078,11.9621696,8.1836014,17.9222565,12.3057899
		c1.6340942,1.1301994,2.21661,3.1082764,1.5885124,4.954834C53.7300453,68.8182526,52.0715599,69.9897156,49.8169022,69.9819717z
		 M52.1000481,65.3841019c0.004631-1.2048645-0.9536209-2.1838188-2.1602898-2.2069817
		c-1.1983795-0.0230103-2.1898842,0.9404259-2.2119598,2.1493111c-0.0228844,1.2529602,0.9559059,2.253273,2.1974831,2.2457886
		C51.1284599,67.5649719,52.0954056,66.5920944,52.1000481,65.3841019z"/>
	<path class="st0" d="M84.3764954,67.7448273c-1.8248444,0.0045547-3.2783661-1.4423141-3.2844238-3.2694168
		c-0.0060577-1.8266068,1.4406815-3.2824669,3.2655029-3.2861023c1.81073-0.0036011,3.2970428,1.4659996,3.3039093,3.266777
		C87.6683426,66.254097,86.1838379,67.7403107,84.3764954,67.7448273z"/>
	<path class="st0" d="M15.6283054,61.1898155c1.8316975-0.0156288,3.2913342,1.4123535,3.3117332,3.2399254
		c0.0203609,1.8239365-1.4215946,3.299675-3.2395582,3.3154678c-1.813343,0.0157394-3.3040066-1.4356689-3.3311005-3.2434082
		C12.3425226,62.7104912,13.8236856,61.2052116,15.6283054,61.1898155z"/>
	<path class="st0" d="M77.8066635,53.1644363c0.0230179-1.8173409,1.5123825-3.266201,3.3253326-3.23489
		c1.8230209,0.0314827,3.2729568,1.5171432,3.2427597,3.3226891c-0.0301666,1.8049431-1.5438919,3.2811813-3.3304749,3.2480545
		C79.2311554,56.4666443,77.7837372,54.9753265,77.8066635,53.1644363z"/>
	<path class="st0" d="M18.9387817,49.9298363c1.8172722-0.0059471,3.286356,1.4574471,3.2871227,3.2743759
		c0.0007629,1.8069077-1.4794674,3.2959595-3.277916,3.297451c-1.7967148,0.0014915-3.2918491-1.4923401-3.2908087-3.2879562
		C15.6582298,51.3982544,17.1196899,49.9357872,18.9387817,49.9298363z"/>
	<path class="st0" d="M50.0194931,36.4521637c-1.8375435,0.0015182-3.2790184-1.4330597-3.2810287-3.2653275
		c-0.0019951-1.8161831,1.4622002-3.2878838,3.2735558-3.2903309c1.8104706-0.0024509,3.2795029,1.4673843,3.2811317,3.282896
		C53.2947807,35.0107841,51.8545265,36.4506493,50.0194931,36.4521637z"/>
	<path class="st0" d="M23.8079071,43.4519081c-0.009594-1.8444214,1.4107742-3.274498,3.2560272-3.2782898
		c1.8277111-0.0037498,3.2978096,1.4447746,3.303215,3.2547455c0.0053616,1.7963066-1.4803772,3.2903786-3.2806263,3.2990341
		C25.2747765,46.7361107,23.8174133,45.2801399,23.8079071,43.4519081z"/>
	<path class="st0" d="M76.22332,43.4867516c-0.0246353,1.8254318-1.5000992,3.2684593-3.3133163,3.2404938
		c-1.799675-0.0277672-3.2753906-1.5434647-3.2456665-3.3336067c0.0301285-1.8145142,1.5048828-3.2371445,3.337944-3.2199669
		C74.8392029,40.1908798,76.2482452,41.6401939,76.22332,43.4867516z"/>
	<path class="st0" d="M37.3802567,32.9047356c1.8210144,0.012661,3.2781639,1.4814873,3.2690773,3.2952919
		c-0.0089798,1.7934875-1.5252991,3.294323-3.3092041,3.2754288c-1.7932968-0.0189972-3.2897491-1.5347481-3.2738953-3.3161087
		C34.0823593,34.3475723,35.5643883,32.8921089,37.3802567,32.9047356z"/>
	<path class="st0" d="M62.6548805,32.9064445c1.8182564-0.010582,3.2973824,1.4444809,3.3105202,3.2566643
		c0.0129318,1.7833595-1.4895248,3.3015327-3.2776947,3.3119888c-1.7915955,0.0104713-3.2994156-1.4851494-3.3056259-3.2788887
		C59.3758011,34.3808975,60.8321037,32.9170532,62.6548805,32.9064445z"/>
</g>
</svg>
