<?xml version="1.0" encoding="utf-8"?>
<!-- Generator: Adobe Illustrator 25.4.1, SVG Export Plug-In . SVG Version: 6.00 Build 0)  -->
<svg version="1.1" id="Layer_1" xmlns="http://www.w3.org/2000/svg" xmlns:xlink="http://www.w3.org/1999/xlink" x="0px" y="0px"
	 width="100px" height="100px" viewBox="0 0 100 100" style="enable-background:new 0 0 100 100;" xml:space="preserve">
<style type="text/css">
	.st0{fill:#0078B9;}
</style>
<g>
	<path class="st0" d="M6.9592261,57.2227745c-1.516192-0.5938416-2.0842967-1.2907867-2.016768-2.3905563
		c0.0714388-1.1634064,0.746377-1.7586288,2.5189295-2.1745224c0.1357985-1.3426323,0.3146939-2.7075119,0.4042344-4.0782242
		c0.2046971-3.1337471,1.4941468-5.6378365,4.1296945-7.4124985c8.7919493-5.9201393,17.5768089-11.8508129,26.3711128-17.7674484
		c2.6073227-1.7541561,5.4832306-2.7033024,8.6399345-2.704649c16.0630684-0.0068607,32.1261368-0.0053272,48.189209-0.0043793
		C95.4330902,20.6905079,95.6706161,20.7206383,96,20.7429409c-0.0796051,1.8155708-0.1500702,3.5819378-0.2356339,5.34758
		c-0.4139633,8.5411587-0.8333511,17.0820522-1.2481232,25.6231747c-0.3835602,7.8982544-0.7427979,15.7978096-1.1737823,23.69347
		c-0.0494995,0.9071808-0.358696,1.8633347-0.7876511,2.6689224c-0.4295273,0.806694-1.3022156,1.1781464-2.2582397,1.1889038
		c-0.7049789,0.0079346-1.4101028,0.0055084-2.1151505,0.0055237c-26.4549713,0.0002136-52.9100151-0.0272522-79.3648148,0.0398102
		c-2.8560429,0.0072403-4.2520704-1.9829712-3.8067937-4.4287415c0.0602474-0.3309021,0.0688424-0.6710663,0.1259351-1.0027084
		c0.1081667-0.628334,0.0083981-1.1002579-0.5193348-1.5976105c-1.0219622-0.9631195-0.7167809-2.4961395,0.4996076-3.2926102
		c0.264164-0.1729584,0.5682197-0.494339,0.6023068-0.7776489C6.1570897,64.5646439,6.5501862,60.9127731,6.9592261,57.2227745z
		 M19.5265255,43.8770523c23.4171352,0,46.5690689,0,69.7651291,0c0.0343857-0.2264404,0.0677872-0.4021568,0.0870209-0.579422
		c0.5087128-4.6904182,1.0088501-9.3817863,1.5261841-14.0712585c0.3062134-2.775629-1.0461655-4.3232746-3.8218536-4.3237019
		c-11.8319092-0.0018139-23.663868,0.0154877-35.4957237-0.0119076c-3.207058-0.0074215-6.0856514,0.8904934-8.7024536,2.7216644
		c-3.9657402,2.7751255-7.9447479,5.5312691-11.9172935,8.2966537
		C27.222765,38.5159149,23.4790421,41.1242676,19.5265255,43.8770523z M77.5922623,52.1851578
		c1.1627579,0,2.3258286,0.0165024,3.488205-0.0046272c1.1599045-0.0210838,1.9306564-0.7351646,1.9470291-1.7567253
		c0.0166855-1.0406227-0.7310333-1.8034019-1.88134-1.8155212c-2.3558197-0.024826-4.7122498-0.021225-7.0680923,0.0035095
		c-1.1409836,0.0119667-1.9268265,0.7837448-1.9157257,1.7917404c0.0111008,1.0093231,0.8036652,1.7546883,1.9417343,1.7766151
		C75.2663956,52.2025604,76.4295044,52.1851006,77.5922623,52.1851578z"/>
	<path class="st0" d="M71.1609192,42.769455c-0.2685928-0.2254333-0.633934-0.3970528-0.7573013-0.6757698
		c-0.1105804-0.249836-0.0045471-0.6358109,0.1022034-0.926342c0.0631561-0.1718674,0.3046112-0.2876472,0.480423-0.4073105
		c5.0065384-3.4077492,10.0158539-6.8114204,15.021698-10.2201881c0.5608978-0.3819485,1.1484146-0.6100883,1.5892334,0.0764713
		c0.4335251,0.6752014,0.0081635,1.1413345-0.5709686,1.4951572c-0.1564484,0.0955811-0.3039017,0.2058525-0.4557266,0.3090172
		c-4.1238708,2.8021278-8.2477188,5.6043053-12.3717422,8.4062119c-0.7337723,0.4985428-1.4648438,1.001194-2.2045822,1.4907455
		C71.7711792,42.465023,71.5231857,42.5748062,71.1609192,42.769455z"/>
	<path class="st0" d="M71.1576996,37.4487724c-0.2694092-0.2244682-0.6360016-0.3946838-0.7589417-0.6726608
		c-0.1098175-0.2482872-0.0105515-0.6413727,0.1102066-0.9215202c0.085022-0.1972046,0.3528061-0.3234825,0.5523148-0.4622955
		c2.9592438-2.0590439,5.9226685-4.1121025,8.879982-6.173912c0.5720291-0.3988113,1.1696854-0.711956,1.6563034,0.0275364
		c0.4465485,0.678587-0.0139999,1.1135902-0.5662918,1.4947643c-2.9921417,2.0650864-5.9741898,4.1447906-8.9643784,6.212719
		C71.8230515,37.1220436,71.5443115,37.2402191,71.1576996,37.4487724z"/>
</g>
</svg>
