<?xml version="1.0" encoding="utf-8"?>
<!-- Generator: Adobe Illustrator 25.4.1, SVG Export Plug-In . SVG Version: 6.00 Build 0)  -->
<svg version="1.1" id="Layer_1" xmlns="http://www.w3.org/2000/svg" xmlns:xlink="http://www.w3.org/1999/xlink" x="0px" y="0px"
	 width="100px" height="100px" viewBox="0 0 100 100" style="enable-background:new 0 0 100 100;" xml:space="preserve">
<style type="text/css">
	.st0{fill:#0078B9;}
</style>
<g>
	<path class="st0" d="M81.9915466,75.4745712c0-2.5051804,0-4.8995514,0-7.3465271c-1.1348953,0-2.1770859,0-3.3115921,0
		c0,3.6235123,0,7.1927338,0,10.8239822c-0.3984756,0.0174561-0.7079544,0.0428772-1.0174332,0.0428772
		c-17.3512726,0.0003738-34.7025375-0.0044861-52.0538025,0.0101166c-0.6049728,0.0005035-0.9867821-0.1875381-1.3700123-0.6512833
		c-2.1371002-2.5860825-4.3231049-5.1317368-6.4599781-7.7180023c-0.419714-0.5079651-0.8393383-0.7433319-1.5160084-0.7260818
		c-1.8900328,0.0481644-3.7820873,0.0167465-5.7892532,0.0167465c0-3.2692871,0-6.4930649,0-9.7620049
		c-0.9605255,0-1.8048944,0-2.7186127,0c-0.0156727,0.3422089-0.0412087,0.6483498-0.0418811,0.9545326
		c-0.0048633,2.2083054,0.0047007,4.4166718-0.0096955,6.6248932c-0.008461,1.2977524-0.7516565,2.1098785-1.8777943,2.1013565
		c-1.1289744-0.0085373-1.8225493-0.8062439-1.823009-2.1332092C3.9991488,58.0755539,3.999217,48.4391403,4.0024261,38.8027267
		c0.0004387-1.318737,0.7006764-2.1418648,1.809164-2.1620102c1.1212482-0.0203781,1.8879867,0.8474503,1.8957391,2.1923218
		c0.0124002,2.1509056,0.0027728,4.3019485,0.0024791,6.4529305c-0.0000424,0.3364944-0.0000052,0.6729927-0.0000052,1.0480537
		c0.9381566,0,1.763412,0,2.7162433,0c0-3.2292061,0-6.4477463,0-9.7712593c1.9505482,0,3.7770605-0.0373001,5.6008205,0.0174103
		c0.7867565,0.0235977,1.3117771-0.1962967,1.8235283-0.8227081c2.1223259-2.5978508,4.3166752-5.1367378,6.4580517-7.719265
		c0.3481312-0.4198437,0.703289-0.5732079,1.2401218-0.5685863c2.8655834,0.0247173,5.7314892,0.0116482,8.7303352,0.0116482
		c0-0.8414726,0.0416298-1.6366711-0.0375366-2.419651c-0.0146255-0.1446781-0.5167046-0.3409252-0.7949486-0.3427906
		c-3.4987793-0.0234184-6.9977665-0.0150623-10.4967022-0.0163021c-0.286623-0.0000992-0.5756874,0.0109825-0.8594112-0.020752
		c-0.8890114-0.0994396-1.5179672-0.7545547-1.5995388-1.6417561c-0.0841351-0.9150887,0.4574127-1.7241631,1.3424854-1.9425907
		c0.3291874-0.0812454,0.6808834-0.0987835,1.0223293-0.0988884c14.368578-0.0044842,28.737154-0.0037861,43.1057281-0.002882
		c0.2867279,0.0000153,0.5743408-0.0024071,0.8600388,0.017662c1.1128998,0.0781479,1.8678818,0.8317318,1.8686447,1.8543434
		c0.0008011,1.0600815-0.7902451,1.8253212-1.9578781,1.8295803c-3.5849266,0.0130768-7.1699219,0.0059395-10.7549019,0.0066433
		c-0.3359909,0.0000687-0.6719742,0.0000114-1.0579567,0.0000114c0,0.9623051,0,1.8103771,0,2.7769852
		c0.3253288,0,0.6299133-0.0000591,0.9345016,0.0000153c2.6098633,0.0006199,5.2200356-0.0181732,7.8292198,0.0242596
		c0.363018,0.0059032,0.8286858,0.2209911,1.0648308,0.495697c2.261673,2.6310902,4.4917145,5.2895851,6.71035,7.9572449
		c0.3599167,0.4327507,0.7329483,0.6291466,1.3110123,0.618248c1.9192734-0.0361862,3.8396454-0.0136757,5.8776932-0.0136757
		c0,3.6400414,0,7.2325172,0,10.8799591c1.1614304,0,2.2050705,0,3.3414841,0c0-2.4468536,0-4.8694954,0-7.3968811
		c1.1127396,0,2.1352158,0.0001259,3.1576996-0.0000305c1.5487061-0.0002365,3.0990601,0.043541,4.6456528-0.0138779
		c1.4489899-0.053791,2.4682617,0.5863075,3.237793,1.7394676c1.1377487,1.7049294,1.7103653,3.631485,2.0481339,5.6149712
		c1.2389832,7.2757072,1.2985229,14.5570793-0.2425995,21.7943993c-0.3227158,1.5155258-0.9897308,2.9871902-1.6865082,4.3851547
		c-0.6687393,1.3417206-1.8137589,2.0059586-3.440712,1.9369278C87.1901016,75.3959122,84.6644974,75.4745712,81.9915466,75.4745712
		z"/>
</g>
</svg>
