<?xml version="1.0" encoding="utf-8"?>
<!-- Generator: Adobe Illustrator 25.4.1, SVG Export Plug-In . SVG Version: 6.00 Build 0)  -->
<svg version="1.1" id="Layer_1" xmlns="http://www.w3.org/2000/svg" xmlns:xlink="http://www.w3.org/1999/xlink" x="0px" y="0px"
	 width="100px" height="100px" viewBox="0 0 100 100" style="enable-background:new 0 0 100 100;" xml:space="preserve">
<style type="text/css">
	.st0{fill:#0078B9;}
</style>
<g>
	<path class="st0" d="M27.1026878,71.9828339c-0.3026161,0.2727432-0.511013,0.460556-0.7460861,0.6724091
		c-0.2344151-0.2045822-0.4431458-0.3867416-0.6417351-0.5600586c-4.6828823,4.6961517-9.3454704,9.3719406-13.9825621,14.022171
		C9.0648699,83.4243546,6.5413184,80.8766174,4,78.3109283c4.5798206-4.5575256,9.2601223-9.2150574,13.971077-13.9030914
		c-0.2918911-0.3531647-0.4652977-0.5629692-0.6668224-0.8067894c0.2075768-0.2464333,0.4030819-0.4785271,0.616663-0.7320786
		c-2.1691771-2.1448135-4.3134737-4.2650261-6.4473419-6.3749237c0.4758263-0.470974,0.8497248-0.841053,1.2973223-1.2840767
		c0.3028002,0.2797623,0.6679096,0.6170769,0.9691992,0.8954239c9.8006649-9.8046684,19.5737495-19.581749,29.3943138-29.4063263
		c-0.2511711-0.27565-0.5890427-0.6464443-0.9771576-1.0723763c0.4203262-0.3754616,0.8213348-0.7336617,1.2255096-1.0946941
		c2.6958504,2.7053719,5.4063225,5.4254169,8.1415634,8.1703243c0.3360176-0.2725182,0.5715103-0.4635048,0.8436737-0.6842346
		c0.2129173,0.165451,0.4316254,0.3353882,0.7769127,0.6036797c0.8844109-0.9159641,1.7604065-1.8461761,2.6611748-2.751749
		c2.5352211-2.5487232,5.0775566-5.0903759,7.6227989-7.6290913c3.3761902-3.367548,8.2138748-3.3601341,11.6064606,0.0132523
		c0.8092957,0.8047276,1.6114197,1.6166859,2.4203491,2.4217854c1.2092056,1.2034836,2.1736679,1.2094078,3.3702698,0.014286
		c3.4723663-3.4680386,6.9417496-6.9390526,10.413353-10.4078598c0.1577225-0.1575899,0.3256912-0.3049116,0.4274368-0.3997431
		C93.0742874,15.2948284,94.4541779,16.6792755,96,18.2301998c-0.2599869,0.1927662-0.6160202,0.3951187-0.8960953,0.6738129
		c-3.3574982,3.34091-6.7001801,6.6966953-10.0538788,10.0414562c-3.5133591,3.5040054-8.2916336,3.5043449-11.7847977,0.0113907
		c-0.8877563-0.8877068-1.7629166-1.7888298-2.673027-2.6530914c-0.8299103-0.7880936-1.887886-0.8310051-2.6873169-0.0387611
		c-3.525032,3.4933987-7.021595,7.0155334-10.5574417,10.5562668c0.1821938,0.235611,0.3522301,0.4555206,0.5612373,0.7258301
		c-0.1692619,0.2262154-0.3490181,0.4664574-0.5896645,0.7880669c2.730217,2.6764755,5.4675026,5.35989,8.2214279,8.0596199
		c-0.5193787,0.5203094-0.8940964,0.8956947-1.3041306,1.3064613c-0.3852081-0.3518944-0.755661-0.6903076-1.0439529-0.9536591
		c-9.8165131,9.8154564-19.5944328,19.5923424-29.4054184,29.4022865c0.2749748,0.2936707,0.6024017,0.643364,0.9177399,0.9801483
		c-0.3897133,0.3882294-0.7636566,0.7607422-1.2229614,1.2182999
		C31.3931694,76.2642059,29.2518559,74.1274414,27.1026878,71.9828339z M16.1015224,58.4863701
		c9.8442478-9.8441887,19.6147022-19.6146011,29.3937397-29.3935909c-0.4356346-0.4348469-0.9323311-0.9306564-1.327755-1.3253613
		C34.3789444,37.553421,24.5910969,47.338707,14.8185558,57.108696
		C15.213397,57.5326805,15.6764736,58.0299454,16.1015224,58.4863701z M54.8797798,34.5006332
		c0.2999611-0.3519096,0.4882469-0.6056633,0.7090836-0.826931c3.2050323-3.2112427,6.4100838-6.4224987,9.6241875-9.6246548
		c2.4131622-2.4042034,5.6305542-2.3877735,8.0536194,0.0262985c0.7681656,0.7653122,1.5343018,1.5326729,2.3008118,2.2996311
		c2.3523941,2.3537598,4.8048248,2.3588123,7.1640167,0.0039387c3.1505508-3.1447906,6.2956848-6.2949963,9.4417343-9.4442883
		c0.1954117-0.1956158,0.3784866-0.4035568,0.6017227-0.642622c-0.2826996-0.2600613-0.5012817-0.461154-0.8517075-0.7835178
		c-0.2350769,0.3079681-0.400528,0.5833607-0.6206512,0.8042469c-3.1823578,3.193388-6.3671951,6.3843479-9.5620651,9.5652103
		c-1.5841522,1.577219-3.5599136,1.582262-5.1528549,0.0265713c-0.898201-0.8771877-1.7744598-1.7768002-2.6662369-2.6606255
		c-2.7510452-2.7264938-6.6518021-2.7299423-9.3947067,0.0028801c-3.2744522,3.2624111-6.5390244,6.5347729-9.8059959,9.8046741
		c-0.1951523,0.1953125-0.3737984,0.4070854-0.6015587,0.6565742
		C54.3612251,33.9602509,54.5547142,34.1618805,54.8797798,34.5006332z M18.7824497,65.191803
		c-4.4520311,4.4424896-8.8663721,8.847374-13.2873592,13.2588882c0.3113542,0.335434,0.6715145,0.7234497,0.9655204,1.0401917
		c4.4777465-4.4724426,8.8931427-8.8826141,13.3586979-13.3428802C19.483614,65.8384247,19.1089535,65.4929047,18.7824497,65.191803
		z"/>
</g>
</svg>
