<?xml version="1.0" encoding="utf-8"?>
<!-- Generator: Adobe Illustrator 25.4.1, SVG Export Plug-In . SVG Version: 6.00 Build 0)  -->
<svg version="1.1" id="Layer_1" xmlns="http://www.w3.org/2000/svg" xmlns:xlink="http://www.w3.org/1999/xlink" x="0px" y="0px"
	 width="100px" height="100px" viewBox="0 0 100 100" style="enable-background:new 0 0 100 100;" xml:space="preserve">
<style type="text/css">
	.st0{fill:#0078B9;}
</style>
<g>
	<path class="st0" d="M43.6529236,27.4359894c0,0.9439373,0,1.8181,0,2.7840996
		c-1.2350845,0.0527439-2.464241,0.0959377-3.6923523,0.159399c-3.8992577,0.2014713-7.7534904,0.6655369-11.5064392,1.8223209
		c-1.9471111,0.6001625-3.5108299,1.6684341-4.7354527,3.2972221c-2.6404877,3.5119286-4.5264454,7.4305115-6.3098679,11.3604202
		c8.7514668-0.3304214,17.45434-0.6590118,26.225523-0.990181c0,9.7190819,0,19.2084122,0,28.8201752
		c-0.2960014,0-0.5871124-0.0000076-0.8782196-0.0000076c-10.2518883-0.000061-20.5037975-0.011261-30.7556343,0.0114059
		c-1.5978594,0.0035324-2.8249493-0.5363007-3.721571-1.8828964c-2.6712146-4.011795-4.0953875-8.4439697-4.2591338-13.2324257
		c-0.115706-3.3835487,1.3832531-6.0776711,4.1316504-8.0633163c0.241189-0.1742516,0.4820795-0.3489189,0.881731-0.6382065
		c-0.5490017-0.0930672-0.9395981-0.1429062-1.3226504-0.2270889c-1.545362-0.3395882-2.738461-1.1792221-3.4392419-2.6072044
		c-0.7236881-1.4746666,0.0546336-2.7833519,1.6927357-2.8384781c1.5180163-0.0510941,3.0396128-0.0335541,4.5586958-0.0016556
		c0.9462156,0.0198669,1.7128458,0.4725914,2.2013369,1.2748718c0.2639494,0.433506,0.5718231,0.7374077,1.0386915,0.5459442
		c0.2931585-0.1202202,0.5509901-0.4567871,0.7086744-0.7571793c1.7819681-3.3947487,3.4826593-6.8334465,5.3219671-10.1964684
		c2.2779732-4.1650791,5.8361168-6.5344524,10.5127277-7.4186287c4.2254105-0.7988586,8.4676285-1.2409458,12.759903-1.2758827
		C43.2287064,27.3809071,43.3916779,27.411108,43.6529236,27.4359894z M21.9001255,68.7111816
		c0.0174732,0.0692749,0.0349522,0.1385498,0.0524254,0.2078171c1.3820782-0.3319931,2.8142586-0.5323563,4.1318283-1.0338211
		c1.2610531-0.4799881,1.5621796-1.6291428,0.8961735-2.8080215c-0.3470993-0.6143951-0.8068027-1.2028618-1.3324471-1.672245
		c-2.3168621-2.0688705-5.0323544-3.3766556-8.0746555-3.9780502c-0.6691494-0.132267-1.3765793-0.1698837-2.0573769-0.1222878
		c-1.1964722,0.0836678-1.8293476,0.5473824-1.9879684,1.7360573c-0.1615696,1.2107468-0.1177273,2.4663277-0.0169773,3.6901894
		c0.1207037,1.466362,1.0332727,2.3661194,2.3893166,2.8903122C17.8358459,68.3693008,19.8477592,68.6393585,21.9001255,68.7111816z
		"/>
	<path class="st0" d="M92.8047485,25.6145039c-3.0098801,0-5.9599838,0-8.9707108,0c0-1.0647106,0-2.0712452,0-3.1297035
		c0.2730637-0.0153675,0.5148849-0.0406284,0.7567291-0.0408306c3.1776047-0.0026627,6.355217-0.0048637,9.5328217-0.0003948
		c1.4125137,0.0019836,1.9674072,0.5466537,1.9675751,1.9477539c0.0024796,19.2314167,0.0025024,38.4628296-0.0007095,57.694252
		c-0.0002213,1.3575974-0.5621262,1.9297791-1.907547,1.9301376c-15.7498627,0.0043106-31.4997368,0.0044022-47.2496033,0.0006409
		c-1.4468651-0.0003433-1.9326248-0.5483932-1.9329567-2.1493912c-0.0026436-12.544632-0.0024338-25.0892639-0.0026131-37.6338997
		c-0.0000916-6.4380989,0.0002861-12.8762074,0.0016289-19.3143082c0.0004501-2.1387291,0.3448715-2.4763775,2.5150223-2.4765854
		c2.8460274-0.0002689,5.6920586-0.0002117,8.5380821-0.0002975c0.2973633-0.0000114,0.5947266,0,0.9451523,0
		c0,1.0654202,0,2.0476952,0,3.1224823c-2.8842087,0-5.7697678,0-8.7297211,0c0,18.4456596,0,36.7998543,0,55.2172508
		c14.8171196,0,29.6390228,0,44.53685,0C92.8047485,62.4334068,92.8047485,44.079895,92.8047485,25.6145039z"/>
	<path class="st0" d="M66.4220428,20.6164322c0.3453522-3.1141415,1.7636719-4.6555796,4.1576614-4.6309109
		c2.377449,0.0245018,3.7567139,1.557579,4.0615768,4.6318932c0.2772141,0,0.5686188-0.0001011,0.8600159,0.0000153
		c1.9615021,0.0008087,3.9232483,0.0203571,5.8843765-0.0066338c0.792366-0.0109062,1.0956879,0.3412151,1.0874481,1.0966873
		c-0.0150452,1.3811684-0.0131226,2.7627354,0.0018234,4.143919c0.0082626,0.7623043-0.3207169,1.0920124-1.1004181,1.0906963
		c-7.2934723-0.0123215-14.5869827-0.0109348-21.8804512,0.0009117c-0.7570686,0.0012283-1.1304703-0.2805443-1.1199951-1.0677185
		c0.018734-1.4087105,0.0152435-2.8179893-0.0009003-4.2267799c-0.0084381-0.7367039,0.323494-1.0428162,1.0567818-1.0362091
		c2.0165901,0.0181923,4.0334549,0.0049343,6.0502167,0.0041561C65.7800369,20.6163425,66.079895,20.6164322,66.4220428,20.6164322z
		 M72.8253098,20.0364418c0.00811-1.28405-1.0395432-2.3498306-2.2991104-2.3388805
		c-1.2228622,0.010622-2.2647934,1.0561752-2.2778549,2.2857723c-0.0135498,1.2751598,1.035202,2.3319836,2.3067474,2.3244743
		C71.8002472,22.3004551,72.8174362,21.2827473,72.8253098,20.0364418z"/>
	<path class="st0" d="M9.1480885,75.7634888c1.6586847,0.091156,3.2083607,0.2261963,4.7597666,0.2503891
		c2.6132402,0.0407715,5.2275667,0.0111771,7.9227419,0.0111771c0,2.3074036,0.037756,4.5337296-0.0212479,6.7574921
		c-0.019659,0.7407227-0.5714893,1.2116547-1.3335819,1.2164764c-3.3103504,0.0208969-6.6210194,0.0235138-9.9313202-0.0009766
		c-0.8098049-0.0059967-1.3726969-0.5544434-1.3843536-1.3608017C9.1262197,80.2944641,9.1480885,77.9508896,9.1480885,75.7634888z"
		/>
	<path class="st0" d="M52.2559776,48.0103226c0,3.1862144,0,6.3476067,0,9.5787697c3.1967239,0,6.3827896,0,9.7179718,0
		c0-0.8470535,0.0669746-1.7231522-0.0181274-2.5842361c-0.0919952-0.9306259,0.2444115-1.518322,1.1696777-1.887619
		c0,1.9258957,0,3.8214035,0,5.7641335c-4.0133133,0-8.0055122,0-12.0780907,0c0-4.0375099,0-8.0697479,0-12.1492615
		c4.0384293,0,8.0540619,0,12.0615044,0c0.2393303,1.3754425,0.1594162,1.5331497-1.0950203,2.1632881
		c-0.0254745-0.2811127-0.049469-0.5459709-0.0801964-0.8850746C58.7249832,48.0103226,55.517849,48.0103226,52.2559776,48.0103226z
		"/>
	<path class="st0" d="M52.2536011,42.1234436c3.2766533,0,6.4434814,0,9.7204475,0
		c0-0.8947983,0.0729904-1.7495918-0.0191383-2.5862122c-0.1066704-0.9686623,0.24823-1.574707,1.1882401-1.9518547
		c0,1.9057159,0,3.7902679,0,5.7423058c-3.9916344,0-8.0082855,0-12.1006546,0c0-4.0281487,0-8.063839,0-12.1384201
		c4.0266037,0,8.0216293,0,12.0076981,0c0.3832664,1.2531013,0.2119751,1.6138649-1.0332947,2.17593
		c-0.0323868-0.2980309-0.0637398-0.5864601-0.0992203-0.913002c-3.2314186,0-6.4214706,0-9.6640778,0
		C52.2536011,35.6857643,52.2536011,38.8729973,52.2536011,42.1234436z"/>
	<path class="st0" d="M63.1039619,62.2256317c0.2528343,1.3792229,0.1983833,1.4900131-1.0873871,2.2078171
		c-0.0275688-0.3116302-0.0530396-0.5996552-0.08395-0.9490395c-3.2030067,0-6.3914909,0-9.6556053,0
		c0,3.1981621,0,6.4042397,0,9.6599464c3.2169342,0,6.4025116,0,9.6972618,0c0-0.8952026,0.0727272-1.7503128-0.0190468-2.5874023
		c-0.1061859-0.9685211,0.247963-1.577446,1.1865997-1.9453278c0,1.9097061,0,3.8106537,0,5.7594376
		c-4.037674,0-8.0302467,0-12.0988579,0c0-4.0437469,0-8.0777817,0-12.1454315
		C55.0828552,62.2256317,59.098465,62.2256317,63.1039619,62.2256317z"/>
	<path class="st0" d="M66.9824219,53.3780518c0-0.4113388,0-0.7392883,0-1.1356087c7.6816635,0,15.3449249,0,23.0744095,0
		c0,0.3440895,0,0.7101288,0,1.1356087C82.3873215,53.3780518,74.7232208,53.3780518,66.9824219,53.3780518z"/>
	<path class="st0" d="M66.9961014,58.8789635c0-0.4199867,0-0.7711601,0-1.1713181c7.6964569,0,15.3555679,0,23.0704269,0
		c0,0.3847733,0,0.7530022,0,1.1713181C82.3893738,58.8789635,74.7309418,58.8789635,66.9961014,58.8789635z"/>
	<path class="st0" d="M66.9842987,32.3544159c0-0.400547,0-0.7282524,0-1.1297874c7.7033005,0,15.3823242,0,23.1003036,0
		c0,0.3841534,0,0.7309914,0,1.1297874C82.3904572,32.3544159,74.72789,32.3544159,66.9842987,32.3544159z"/>
	<path class="st0" d="M66.9836655,47.8793907c0-0.4038925,0-0.7318077,0-1.1270752c7.6755219,0,15.3365097,0,23.0677338,0
		c0,0.3374672,0,0.703022,0,1.1270752C82.3864288,47.8793907,74.7238159,47.8793907,66.9836655,47.8793907z"/>
	<path class="st0" d="M90.08284,62.2429047c0,0.3858681,0,0.732235,0,1.129673c-7.6972198,0-15.3583069,0-23.0712509,0
		c0-0.3662338,0-0.7118645,0-1.129673C74.6867218,62.2429047,82.3648376,62.2429047,90.08284,62.2429047z"/>
	<path class="st0" d="M66.9966888,37.8438683c0-0.4082603,0-0.7325287,0-1.1187286c7.6976852,0,15.3591003,0,23.0736237,0
		c0,0.377346,0,0.7196846,0,1.1187286C82.3848953,37.8438683,74.7219315,37.8438683,66.9966888,37.8438683z"/>
	<path class="st0" d="M90.0841599,42.2443428c0,0.3621979,0,0.6837845,0,1.0779572c-7.6685715,0-15.3303757,0-23.0585861,0
		c0-0.3188744,0-0.6605682,0-1.0779572C74.6615601,42.2443428,82.3242874,42.2443428,90.0841599,42.2443428z"/>
	<path class="st0" d="M90.0852509,67.7643509c0,0.3714828,0,0.6935959,0,1.0848694c-7.6738434,0-15.3367004,0-23.0626755,0
		c0-0.3263245,0-0.6689072,0-1.0848694C74.6659317,67.7643509,82.3292694,67.7643509,90.0852509,67.7643509z"/>
	<path class="st0" d="M66.992363,74.3566742c0-0.4087601,0-0.7320938,0-1.1091614c7.6972198,0,15.3616714,0,23.0775528,0
		c0,0.3628159,0,0.7049713,0,1.1091614C82.3871231,74.3566742,74.725441,74.3566742,66.992363,74.3566742z"/>
	<path class="st0" d="M54.4925079,67.2985764c0.3234863-0.2680283,0.6145554-0.5092163,0.9543533-0.7907715
		c0.7859459,0.9475327,1.5381889,1.8544388,2.3377457,2.8183746c2.3056564-1.7199478,4.5727386-3.4111176,6.8913879-5.1407547
		c0.2617264,0.3525467,0.4840698,0.6520309,0.7401123,0.9968948c-2.6288795,1.9657135-5.2083054,3.894455-7.8429489,5.8644867
		C56.5452194,69.7961121,55.5363388,68.5686035,54.4925079,67.2985764z"/>
	<path class="st0" d="M57.5729141,55.5372925c-1.0523682-1.2815399-2.0451698-2.4905281-3.0797157-3.75037
		c0.3334312-0.2755165,0.6242867-0.5158577,0.9513054-0.7860794c0.7745285,0.9297638,1.5305862,1.8373489,2.3427353,2.8122826
		c2.2909889-1.7094879,4.5586014-3.4015388,6.8836746-5.1364708c0.2553253,0.3343048,0.4801712,0.6287041,0.7544327,0.9878006
		C62.8041687,51.624836,60.2282143,53.5513992,57.5729141,55.5372925z"/>
	<path class="st0" d="M64.6757889,33.1642532c0.2698669,0.359066,0.4820175,0.641346,0.7453384,0.9916954
		c-2.6290398,1.9665794-5.2200737,3.9047279-7.8461876,5.8691216c-1.035965-1.2589302-2.0322151-2.4696121-3.0822182-3.7455978
		c0.3086395-0.2572708,0.5959625-0.4967728,0.9524002-0.7938843c0.7731209,0.9313431,1.5230675,1.834774,2.3394547,2.8182373
		C60.0699005,36.5993996,62.3326302,34.9118156,64.6757889,33.1642532z"/>
</g>
</svg>
