<?xml version="1.0" encoding="utf-8"?>
<!-- Generator: Adobe Illustrator 25.4.1, SVG Export Plug-In . SVG Version: 6.00 Build 0)  -->
<svg version="1.1" id="Layer_1" xmlns="http://www.w3.org/2000/svg" xmlns:xlink="http://www.w3.org/1999/xlink" x="0px" y="0px"
	 width="100px" height="100px" viewBox="0 0 100 100" style="enable-background:new 0 0 100 100;" xml:space="preserve">
<style type="text/css">
	.st0{fill:#0078B9;}
</style>
<g>
	<path class="st0" d="M63.5433311,45.7676506c1.0700188,0.0503464,2.048481,0.0744896,3.0234489,0.1463356
		c2.9864502,0.2200546,5.6730652,2.2952194,6.3060379,4.9552765c0.2075806,0.8723145,0.2687759,1.804287,0.2397614,2.7039146
		c-0.1545868,4.7911797-0.3730469,9.5802803-0.5356598,14.3712425c-0.0373764,1.1012802-0.0190811,2.2165756,0.1158447,3.3078308
		c0.1113892,0.9010239,0.3756638,1.9034805,1.4608612,2.0741272c1.0921173,0.1717377,1.8998947-0.5444031,2.2360764-1.4693375
		c0.5581512-1.5356522,0.9848557-3.1322861,1.3168335-4.7343521c0.8556671-4.1292953,1.1434021-8.3263397,1.2483368-12.5319901
		c0.1361465-5.4558983,0.2043076-10.9134827,0.3141174-16.3700943c0.011322-0.5623398-0.0889282-0.869854-0.7597656-0.9560318
		c-0.7627258-0.0979691-1.1801834-0.6526947-1.1136398-1.4662819c-3.8964005-0.9037285-5.0187454-3.9272728-5.532753-7.2928467
		c-0.2615509-1.7125759-0.2029343-3.4787636-0.2239685-5.2215042c-0.0118179-0.9799404,0.5945969-1.510952,1.598381-1.5419407
		c0.4862671-0.0150127,0.9733887-0.002594,1.5637207-0.002594c0-0.3521729,0-0.6375122,0-0.9228516
		c0.0000153-2.8032856-0.0008087-5.6065712,0.0015411-8.409853c0.000206-0.2449799-0.006813-0.4951687,0.037735-0.7339487
		c0.1450882-0.7778292,0.7238235-1.2495623,1.4394989-1.2003279c0.658226,0.0452824,1.1704712,0.5975657,1.2333603,1.3421488
		c0.01651,0.1954041,0.0055161,0.393218,0.0055237,0.5899239c0.0001602,2.8032837,0.0000381,5.6065683-0.0000153,8.4098558
		c0,0.2675114,0.0000076,0.5350227,0.0000076,0.8635998c2.0738754,0,4.0963058,0,6.2164993,0
		c0-0.3040009-0.0000076-0.59128,0-0.8785553c0.000145-2.7786942,0.0001831-5.5573893,0.0006027-8.3360863
		c0.0000381-0.1967058-0.0066299-0.3940125,0.0059128-0.5900116c0.055191-0.8622856,0.6201706-1.4275398,1.3934021-1.4014769
		c0.724968,0.0244341,1.2650528,0.6044445,1.2724228,1.4367533c0.0165405,1.8687153,0.0068283,3.7376652,0.0073547,5.6065178
		c0.0003815,1.3715248,0.0000687,2.7430477,0.0000687,4.2250233c0.6531525,0,1.2341461-0.0143566,1.8141479,0.003336
		c0.8900375,0.0271397,1.5294952,0.5383739,1.5552902,1.3549175c0.079277,2.5087109,0.1095657,5.0202274-0.6387558,7.458952
		c-0.4075928,1.3282776-0.9831161,2.5678997-1.9616165,3.5890865c-0.8465958,0.8835106-1.9046021,1.3601913-3.1167755,1.6136894
		c0.0370636,0.9165726-0.3720398,1.4395294-1.2758255,1.6134148c-0.1482468,0.0285263-0.3136902,0.4416428-0.3167038,0.6789703
		c-0.0376587,2.9749413,0.0120468,5.9520035-0.0766449,8.9250641c-0.1458511,4.8892517-0.2077026,9.7906189-0.6299744,14.6586838
		c-0.2894516,3.3366928-1.0396576,6.6453476-1.7577286,9.9285202c-0.4446716,2.0331573-1.5997467,3.6937485-3.5999985,4.5937881
		c-2.316452,1.042305-4.6758957,0.3308182-6.0367355-1.819046c-0.7308121-1.1545181-1.0763016-2.4431458-1.0504608-3.7877197
		c0.0557404-2.8993301,0.1927414-5.7970352,0.2916946-8.6955872c0.0956497-2.8011475,0.1832428-5.602562,0.2781906-8.4037361
		c0.0804672-2.3742218-0.5551682-3.3291168-2.8619385-3.9430161c-0.9586411-0.2551193-1.9875259-0.2466812-2.9846191-0.3568001
		c-0.3931847-0.0434227-0.5296898,0.155983-0.5036163,0.5242844c0.0138512,0.1957169,0.0015297,0.3932686,0.0015221,0.5899887
		c-0.00037,12.3442841-0.0006866,24.6885834-0.0009918,37.0328674c0,0.2893143,0,0.5786285,0,0.9402313
		c0.8756447,0,1.6763725,0,2.5402412,0c0,2.6134949,0,5.1551056,0,7.7599945c-18.6061211,0-37.2280693,0-55.9070358,0
		c0-2.5274429,0-5.0703201,0-7.6967239c0.7862635,0,1.5846167,0,2.505455,0c0-0.4374619,0.0000095-0.7939682-0.0000038-1.1504745
		c-0.0006895-25.9672699,0.0009317-51.9345436-0.0084391-77.9018173c-0.0005045-1.3937135,0.230195-2.6956005,1.1454134-3.7938809
		C14.5982513,4.5219464,15.5864325,3.9998176,16.8308582,4C31.0194149,4.002069,45.2079773,3.9978273,59.396534,4.0030642
		c2.1626358,0.0007973,3.9301033,1.7830768,4.1255074,4.1248178c0.0285492,0.3422508,0.021389,0.6879463,0.0214043,1.0320473
		c0.0006599,11.9013367,0.0001907,23.8026714-0.0001068,35.70401
		C63.5433311,45.1517181,63.5433311,45.4394951,63.5433311,45.7676506z M38.1176872,35.5774651
		c1.5483398,0,3.0966759,0.0000534,4.6450157-0.0000114c3.3178711-0.0001335,6.6357841,0.0094452,9.9535942-0.0043983
		c1.8058662-0.007534,3.0527306-1.0883827,3.0571594-2.6967125c0.0171051-6.1933041,0.00634-12.3866787,0.0046043-18.5800247
		c-0.0002823-1.0125389-0.4934425-1.7712564-1.368454-2.1876411c-0.5556488-0.2644062-1.2167473-0.4284229-1.8311119-0.4300842
		c-9.6340485-0.0260048-19.2681808-0.0201349-28.9022903-0.0116692c-0.4126663,0.0003624-0.8400993,0.0447121-1.235096,0.1578312
		c-1.21521,0.3480215-1.9789467,1.3249741-1.9804459,2.5353661c-0.0076427,6.1687708-0.0024319,12.337554-0.004427,18.5063362
		c-0.0003014,0.9405861,0.381176,1.7226295,1.1940231,2.1406784c0.6088238,0.3131065,1.3382969,0.5397224,2.016489,0.5461159
		C28.4833755,35.5986938,33.3006325,35.5774536,38.1176872,35.5774651z M40.5542107,46.1793327
		c-2.4039574,0-4.664257,0.0220146-6.9235954-0.0151596c-0.5802078-0.0095444-0.8030319,0.1807365-0.9360199,0.7285004
		c-0.9100513,3.7482758-1.8524818,7.488678-2.7807865,11.2325439c-0.2634277,1.0624008-0.5146198,2.1278458-0.7912006,3.273838
		c1.9187775,0,3.7322388,0,5.6076279,0c-1.1886063,5.935112-2.3627663,11.7980957-3.5369263,17.661087
		c0.0502796,0.0213547,0.1005554,0.0427094,0.1508331,0.064064c5.2336426-7.7532196,10.467289-15.5064354,15.7943954-23.3981133
		c-3.2566872,0-6.2983093,0-9.4367142,0C38.6568375,52.5297318,39.5886841,49.4108925,40.5542107,46.1793327z"/>
</g>
</svg>
