<?xml version="1.0" encoding="utf-8"?>
<!-- Generator: Adobe Illustrator 25.4.1, SVG Export Plug-In . SVG Version: 6.00 Build 0)  -->
<svg version="1.1" id="Layer_1" xmlns="http://www.w3.org/2000/svg" xmlns:xlink="http://www.w3.org/1999/xlink" x="0px" y="0px"
	 width="100px" height="100px" viewBox="0 0 100 100" style="enable-background:new 0 0 100 100;" xml:space="preserve">
<style type="text/css">
	.st0{fill:#0078B9;}
</style>
<g>
	<path class="st0" d="M86.7362061,51.7546196c-0.3098297-0.5605736-0.9334641-1.1796303-0.8429031-1.6655884
		c0.0941162-0.5050011,0.9918747-0.700119,1.542572-1.021656c1.5672913-0.9150963,3.1386795-1.823616,4.7230453-2.7086105
		c0.3535233-0.1974716,0.4112701-0.3379898,0.1832504-0.6922302c-2.1577606-3.352211-4.6560059-6.4213943-7.5152512-9.2016411
		c-0.3569031-0.3470421-0.4948807-0.2320328-0.7542648,0.0719604c-1.1951675,1.400692-2.4237442,2.7729492-3.6131668,4.1784172
		c-0.3014145,0.3561707-0.5257568,0.4295235-0.8272858,0.0479012c-0.043808-0.0554619-0.1072006-0.0950584-0.158844-0.1447983
		c-0.4781342-0.4606209-1.3729324-0.8181725-1.3655472-1.3569565c0.007103-0.5170593,0.7582626-1.0293427,1.1937561-1.5339584
		c0.9062424-1.050087,1.8121567-2.1006889,2.7358856-3.1352959c0.2414551-0.2704391,0.2424622-0.4155121-0.0525742-0.6564941
		c-3.630806-2.9657879-7.588295-5.3904915-11.8849411-7.2684002c-0.4015732-0.1755161-0.5210419-0.0673561-0.6546249,0.288353
		c-0.6626434,1.7646103-1.3569336,3.5174141-2.0106354,5.285265c-0.1604538,0.4339409-0.296196,0.639801-0.7949371,0.3838387
		c-0.6523285-0.3347969-1.7084732-0.3315239-1.9337997-0.9033279c-0.1948318-0.4944363,0.4041901-1.3044014,0.6584854-1.9725361
		c0.4838181-1.2711525,0.9587708-2.545969,1.4668045-3.8074226c0.145874-0.3622017,0.1141281-0.5229053-0.281929-0.6559105
		c-3.2940292-1.1062088-6.6559448-1.9151745-10.1073608-2.329771c-1.114933-0.133934-2.239212-0.1895256-3.3548088-0.3188953
		c-0.4905777-0.0568924-0.5955429,0.1105614-0.5916252,0.5761433c0.0217896,2.5833263-0.0030479,5.1670723,0.0233841,7.7503109
		c0.0050964,0.4985905-0.1151199,0.6494331-0.6260376,0.6326275c-1.2186852-0.0400925-2.4411163-0.0494671-3.6588783,0.0026722
		c-0.5798378,0.0248222-0.6482353-0.1947517-0.6438255-0.6909733c0.0227623-2.5593853,0.0030365-5.1191273,0.0180702-7.6786289
		c0.0024834-0.4231777-0.0362091-0.6273479-0.5625458-0.5959568c-4.608696,0.2748528-9.0895042,1.1748562-13.4606133,2.6516151
		c-0.3945389,0.1332932-0.436924,0.2944126-0.2934914,0.656908c0.7022667,1.7747955,1.365551,3.565136,2.0797501,5.3349953
		c0.1757507,0.4355202,0.1127663,0.6159687-0.3346443,0.7529507c-0.5464554,0.1673012-1.0860214,0.3742981-1.6011543,0.6212883
		c-0.4202957,0.2015228-0.5720673,0.0602875-0.717823-0.3293915c-0.6602936-1.7653465-1.3552399-3.5177441-2.0137806-5.2837296
		c-0.14781-0.3963852-0.2499828-0.5668354-0.7326965-0.3537388c-4.2222424,1.8639317-8.1254845,4.2400646-11.7105846,7.1472263
		c-0.3840656,0.3114433-0.4314442,0.4866295-0.0843716,0.8711281c1.2336292,1.3666306,2.4133873,2.7818413,3.6444683,4.150856
		c0.3194923,0.3552895,0.3088207,0.5442657-0.0663166,0.8237076c-0.45891,0.3418617-0.8973637,0.7202148-1.2978287,1.1287041
		c-0.3336163,0.3403091-0.509903,0.2402992-0.7805424-0.0788116c-1.175478-1.386013-2.4031506-2.7284584-3.5561619-4.1324654
		c-0.4011402-0.4884605-0.5980368-0.3480759-0.9600115,0.0057602c-2.9206171,2.8549385-5.4666014,6.0080833-7.6246367,9.4750328
		c-0.3879685-0.2011223-0.775948-0.4022141-1.1639252-0.6033134c4.1176929-6.6592255,9.5029707-12.0727348,16.1183929-16.2407341
		c9.7405453-6.136961,20.4025669-8.9140434,31.8451862-7.7884102c18.4834328,1.8182526,32.2554741,11.0337753,41.2922935,27.2809753
		c0.5506134,0.989933,0.5300522,0.9954529-0.4616394,1.5643044c-2.1123428,1.2116699-4.2307587,2.41325-6.3255692,3.6546135
		c-0.4846191,0.2871819-0.7676468,0.3400993-1.0082321-0.2487106c-0.1516953-0.3712616-0.4009018-0.7026863-0.6063614-1.0519829
		c1.5146713-0.9445,3.0342178-1.88134,4.5383301-2.8423271c0.2084274-0.1331596,0.6962204-0.1522827,0.4451523-0.6225662
		c-0.2556839-0.4789543-0.5287018-0.0914383-0.7579498,0.030632C89.8742905,50.0470886,88.3067093,50.9035873,86.7362061,51.7546196
		z"/>
	<path class="st0" d="M50.1818848,56.4772263c-1.3388367-0.0003242-2.6776886,0.0029106-4.0164871-0.0039024
		c-0.1945-0.000988-0.4899178,0.0919609-0.4922714-0.242218c-0.0019112-0.2713776-0.1463051-0.7419777,0.1061897-0.7850151
		c0.5973053-0.1018257,0.4024544-0.4957542,0.4032097-0.7981415c0.009304-3.7295685,0.0064201-7.4591713,0.003231-11.1887627
		c-0.0011177-1.3081779,0.2803307-1.5955849,1.5898628-1.5959396c1.6974487-0.0004578,3.3949013-0.0019836,5.09235,0.0003548
		c1.0500107,0.0014534,1.3795815,0.3224106,1.3839607,1.3518333c0.0049744,1.1714478,0.015461,2.3431511-0.0046539,3.5142593
		c-0.0064812,0.3776398,0.0359306,0.5747299,0.4836121,0.680954c0.8783264,0.208416,1.2308121,0.7425766,1.2386017,1.6824417
		c0.0106888,1.2909279-0.003067,2.5820465,0.0072365,3.8729744c0.0020599,0.258873,0.0257759,0.5308304,0.1094856,0.7725182
		c0.1109314,0.3202553,0.3786392,0.4990654,0.7271652,0.4618263c0.3184052-0.0340195,0.517395-0.2405624,0.5659447-0.5578728
		c0.0358849-0.2345886,0.0511818-0.4744644,0.0515785-0.7120209c0.003624-2.2234116-0.0231133-4.4473076,0.0182648-6.6699562
		c0.0114861-0.6165085-0.1348572-1.0495186-0.6621056-1.3718719c-0.2625656-0.1605263-0.4785843-0.3953705-0.7264977-0.5822144
		c-0.2080307-0.1567841-0.2768211-0.2961655-0.0661125-0.5153618c0.1614304-0.1679344,0.271389-0.3095551,0.5151787-0.1004066
		c0.5982285,0.5132408,1.2163925,1.00317,1.8229904,1.5067596c0.2503777,0.2078705,0.3866615,0.5319748,0.1554604,0.7503052
		c-0.3788567,0.3577728-0.2982483,0.7699471-0.2992096,1.1836166c-0.0046806,2.0082436-0.0007629,4.0164948-0.0027618,6.0247498
		c-0.0006485,0.6459961-0.1219063,1.2511902-0.730484,1.6130371c-1.0021973,0.59589-2.1813927-0.1592522-2.2161713-1.4504051
		c-0.0360336-1.3378716-0.004467-2.6774712-0.0123634-4.0162621c-0.0013847-0.235199-0.0102234-0.4850922-0.088871-0.7015991
		c-0.114399-0.314949-0.4004326-0.5344238-0.7203026-0.4708595c-0.3077202,0.0611534-0.1548843,0.4011192-0.156189,0.6111755
		c-0.0124168,2.0079842-0.0101738,4.0160789-0.0058098,6.0241318c0.0006218,0.2822762-0.1115112,0.5707359,0.3923225,0.6620026
		c0.3135338,0.056797,0.1295662,0.5433464,0.1326752,0.8329048c0.0031433,0.2918587-0.2665253,0.2131462-0.4391136,0.2138977
		C52.9551811,56.4802208,51.5685272,56.4775505,50.1818848,56.4772263z M50.2225037,43.3369865
		c-0.7407494,0-1.4821777,0.0188789-2.2219582-0.0078583c-0.3777351-0.013649-0.4950294,0.109684-0.4871216,0.4849052
		c0.0216484,1.0270309,0.0166702,2.0549583,0.0017357,3.0822296c-0.0046921,0.3228188,0.0661049,0.4682655,0.4320679,0.4636688
		c1.505146-0.0189056,3.0107231-0.0153961,4.5160027-0.002964c0.3107147,0.0025597,0.4137421-0.0965805,0.4092407-0.4082794
		c-0.0151749-1.0511627-0.0240135-2.1031609,0.0036812-3.15382c0.0106697-0.4044533-0.1555786-0.4740143-0.5032539-0.4645576
		C51.6565704,43.3498001,50.9393539,43.336174,50.2225037,43.3369865z"/>
	<path class="st0" d="M86.7362061,51.7546196c1.5705032-0.8510323,3.1380844-1.707531,4.7147064-2.5470467
		c0.229248-0.1220703,0.5022659-0.5095863,0.7579498-0.030632c0.2510681,0.4702835-0.2367249,0.4894066-0.4451523,0.6225662
		c-1.5041122,0.9609871-3.0236588,1.8978271-4.5383301,2.8423195c-2.1873474,1.3143158-4.3813171,2.6177635-6.5608902,3.9448318
		C71.6714325,62.062233,62.68256,67.5447006,53.6934052,73.0266647c-0.2222939,0.1355667-0.4301376,0.2948074-0.6447182,0.4429932
		c-1.5105972,0.8077545-2.9560471,1.7232742-4.3918304,2.6547852c-1.4901695,0.8968582-2.9885941,1.7804642-4.4646187,2.7000122
		c-0.3624687,0.2258148-0.5446053,0.2463303-0.7540627-0.1694183c-0.32127-0.6376877-0.6665306-1.2702713-1.0720482-1.8562927
		c-0.3188972-0.4608536-0.1403923-0.6155014,0.2663574-0.8353958c1.4867249-0.8037338,2.9538994-1.6436157,4.4284325-2.4699478
		c1.5951576-0.7482147,3.1094055-1.6457138,4.6395607-2.513855c6.2823067-3.4393845,12.5656891-6.8767929,18.8465805-10.3187637
		c5.1920853-2.8453026,10.3813324-5.6957893,15.5712585-8.5450478
		C86.3273621,52.0009727,86.5303802,51.8752441,86.7362061,51.7546196z"/>
	<path class="st0" d="M6.3713093,45.4717789c0.3879771,0.2010994,0.7759566,0.4021912,1.1639252,0.6033134
		c1.9993954,1.2111664,3.9869013,2.4427414,6.0064945,3.6192284c0.5102205,0.2972221,0.5181274,0.5150032,0.2251272,0.9726562
		c-0.669179,1.0452309-1.2911606,2.1212044-1.9132862,3.1956978c-0.1768322,0.3054161-0.3029613,0.3884392-0.6506052,0.1769676
		c-2.2850189-1.3899727-4.5882311-2.7500267-6.8836617-4.1229286c-0.1898975-0.113575-0.4601083-0.172699-0.2323246-0.5200424
		C4.9178796,48.1296501,5.4556398,46.6907921,6.3713093,45.4717789z"/>
	<path class="st0" d="M4.9596276,59.6925049c-0.0000396-1.0750847,0.0290074-2.1513138-0.0129948-3.2247581
		c-0.0193443-0.4943504,0.1540999-0.5975952,0.6040564-0.5882492c1.2178969,0.0252914,2.437027,0.0241203,3.6549239-0.0017281
		c0.4150877-0.0088081,0.5234671,0.1285744,0.5171108,0.5282974c-0.0059881,0.3765793-0.0600948,0.5630798-0.5023403,0.5448189
		c-0.8347483-0.0344582-1.6721368,0.0007858-2.5080142-0.0149727c-0.3127427-0.0058937-0.4502387,0.0429306-0.4657521,0.4175453
		c-0.0687599,1.6606865-0.0847816,1.6600189,1.582283,1.6618538c0.2627993,0.0002899,0.5261068,0.0111008,0.7882748-0.0016251
		c0.3605337-0.0174942,0.6279144-0.024189,0.630374,0.4979897c0.0024319,0.515213-0.2016497,0.5938568-0.6377287,0.5712624
		c-0.5956573-0.0308647-1.1952391,0.0150337-1.7910275-0.0145454c-0.4084339-0.0202789-0.5723023,0.0583153-0.5745149,0.531414
		c-0.0085506,1.8269539-0.0295262,1.82687,1.7794352,1.8268547c0.3583632-0.0000038,0.7172871,0.0123749,1.0749378-0.0036354
		c0.3861923-0.017292,0.6510696-0.0231247,0.6595116,0.5321121c0.0091,0.5986862-0.3228188,0.5098305-0.6759291,0.5095787
		c-1.1945386-0.0008659-2.3896852-0.0204773-3.5833015,0.0131302c-0.4505215,0.0126915-0.5639906-0.1204376-0.5502248-0.5604172
		C4.9823117,61.8433952,4.9596667,60.7675934,4.9596276,59.6925049z"/>
	<path class="st0" d="M90.3842621,59.7135353c0.0000763-1.0746574,0.0215759-2.1499481-0.0101471-3.223671
		c-0.0133514-0.4518204,0.088768-0.6259613,0.5787659-0.6128387c1.264801,0.0338707,2.5313721,0.0266495,3.7966614,0.0038376
		c0.408165-0.0073624,0.5258942,0.1212807,0.517601,0.5250206c-0.0077286,0.375988-0.0651855,0.5609207-0.5018768,0.5454483
		c-0.882515-0.0312653-1.7672195,0.0042152-2.6503296-0.0168991c-0.3462448-0.0082741-0.4287186,0.1081085-0.4418945,0.4467888
		c-0.0709534,1.8253136-0.081665,1.824913,1.7181244,1.8248024c0.2388153-0.0000114,0.4792938,0.0176773,0.7160645-0.0043793
		c0.4134521-0.038517,0.6429138,0.0189896,0.6369095,0.5482941c-0.0057983,0.5104332-0.2431946,0.5166588-0.6157074,0.5065994
		c-0.66819-0.0180397-1.3377304,0.0105209-2.0056686-0.0115242c-0.3374405-0.0111389-0.4605179,0.0857887-0.4469299,0.4394341
		c0.0265884,0.6915245-0.0060806,1.3851585,0.0121536,2.0772247c0.0114517,0.434639,0.0390091,0.7692146-0.6006088,0.7269363
		c-0.5115967-0.0338249-0.7540741-0.0910683-0.7193527-0.6953163
		C90.4268188,61.7697754,90.3841858,60.7404289,90.3842621,59.7135353z"/>
	<path class="st0" d="M51.7004776,70.9795456c-1.5301552,0.8681412-3.0444031,1.7656403-4.6395607,2.513855
		C47.1844978,70.995285,49.584362,69.694931,51.7004776,70.9795456z"/>
	<path class="st0" d="M48.6568565,76.1244431c1.4357834-0.9315109,2.8812332-1.8470306,4.3918304-2.6547852
		C53.0223694,75.7908173,50.8124733,77.1266708,48.6568565,76.1244431z"/>
</g>
</svg>
