<?xml version="1.0" encoding="utf-8"?>
<!-- Generator: Adobe Illustrator 25.4.1, SVG Export Plug-In . SVG Version: 6.00 Build 0)  -->
<svg version="1.1" id="Layer_1" xmlns="http://www.w3.org/2000/svg" xmlns:xlink="http://www.w3.org/1999/xlink" x="0px" y="0px"
	 width="100px" height="100px" viewBox="0 0 100 100" style="enable-background:new 0 0 100 100;" xml:space="preserve">
<style type="text/css">
	.st0{fill:#0078B9;}
</style>
<g>
	<path class="st0" d="M50.0478745,95.9959793c-8.689579,0.0003815-17.379158,0.0031052-26.0687351-0.0009537
		c-3.5563431-0.0016708-5.2434425-1.6802902-5.2435799-5.1939392c-0.0006027-15.662056-0.0014038-31.3241196-0.0022068-46.9861755
		c-0.0001373-2.6944084,1.6853867-4.5716515,4.4412231-4.7234039c2.0743427-0.1142159,4.1603432-0.0130196,6.2411518-0.0142784
		c4.9431629-0.0029755,9.8863735-0.0002594,14.8294315-0.0258217c0.709053-0.0036697,1.7534256,0.3279457,1.7276573-0.9306831
		c-0.0244598-1.1946831,0.7831345-2.8254089-0.9668121-3.3646126c-1.875679-0.5779381-2.3652916-1.7879295-2.3343086-3.5222931
		c0.039032-2.1847305-0.0227623-4.3715496,0.033329-6.5555573c0.0287552-1.1195812-0.3050385-1.9658527-1.1333313-2.753788
		c-5.6895599-5.4123116-3.4283752-13.4565859,2.8046074-16.6013947c5.0825043-2.5643435,11.1883812-1.2156367,14.6231079,2.4492364
		c3.6772461,3.9236312,3.7244568,9.6299801,0.0044441,13.4806423c-1.3639107,1.411829-2.0041466,2.9869652-1.7465897,4.9368019
		c0.2538109,1.9214802-0.0169525,3.8452854-0.0129433,5.768158c0.003006,1.4406738-0.6971664,2.3086891-2.0605888,2.7485428
		c-1.361763,0.4393311-1.6924324,1.430397-1.3365517,3.4116554c0.2300911,1.2809715,1.2034073,0.9289932,1.959877,0.9317093
		c6.6601448,0.0239639,13.3204308,0.0052605,19.9806175,0.0231133c4.0534668,0.0108681,5.4784241,1.4210205,5.4787979,5.4218063
		c0.0014572,15.5579529-0.0061798,31.1159058-0.0211105,46.6738586c-0.0030289,3.1557541-1.6408157,4.8122482-4.8165512,4.8197784
		C67.6352081,96.0092163,58.8415298,95.9955978,50.0478745,95.9959793z M50.0698547,81.9903793c0-0.0028534,0-0.0057144,0-0.0085602
		c5.5145912,0,11.0295067-0.032135,16.5435333,0.0236816c1.299614,0.0131607,1.8501663-0.288063,1.8429718-1.7238617
		c-0.0508118-10.144516-0.0449753-20.2895012,0.0023499-30.4340591c0.0058746-1.2605362-0.4235458-1.6162796-1.6206207-1.5931511
		c-3.2763367,0.0633125-6.5546494,0.0482521-9.8319817,0.0296898c-3.1437492-0.0178032-3.0653801-0.0343895-3.163826,3.12117
		c-0.0404472,1.2965279,0.4940147,1.4852676,1.5514679,1.4680405c2.1842957-0.0355911,4.370739,0.0406075,6.5543022-0.0119896
		c1.1502571-0.02771,1.5512428,0.4084282,1.5458527,1.5529633c-0.0338326,7.1791916-0.0343018,14.3586845-0.0017395,21.5378761
		c0.0052223,1.1511841-0.4324074,1.570694-1.5580025,1.5672607c-7.9076233-0.0241165-15.8153763-0.0274658-23.7229996-0.0061874
		c-1.2351189,0.003334-1.7641106-0.4212265-1.7561569-1.7321777c0.0429115-7.0750732,0.0445213-14.1507187-0.0027962-21.2257538
		c-0.0089188-1.3336945,0.5406189-1.7187271,1.7669563-1.698597c2.0796967,0.0341721,4.1614418-0.0114937,6.2415237-0.0587006
		c1.9622993-0.0445404,1.5565224-1.5279388,1.6160355-2.7267609c0.0592842-1.1942749-0.3361816-1.8019753-1.6916389-1.7776108
		c-3.7443886,0.0673256-7.4916458,0.0597382-11.2361298-0.0083771c-1.3147316-0.0239182-1.6606369,0.4676132-1.6553326,1.7284813
		c0.042244,10.0405426,0.0462227,20.081459-0.0037422,30.121933c-0.0071354,1.4335022,0.4474525,1.8982697,1.880621,1.8813858
		C38.9362869,81.9514618,44.5032997,81.9903793,50.0698547,81.9903793z M44.4013519,27.3359814c0.0030289,0,0.0060616,0,0.0060616,0
		c0.0030327,1.3008652,0.027523,2.6023293-0.0036697,3.902441c-0.0329781,1.3746262,0.5866737,1.9917793,1.9731331,1.9700661
		c2.4450188-0.0382805,4.8924599-0.0625992,7.3360634,0.0067863c1.3148003,0.0373383,1.7650452-0.5550156,1.7569466-1.7624626
		c-0.0160599-2.3934116,0.0635948-4.7893105-0.0221367-7.1796722c-0.0490494-1.3676758,0.3780708-2.2994041,1.4450645-3.2091122
		c4.5426254-3.8729668,3.9194832-10.6935587-1.2012253-13.7507381c-4.0881996-2.440753-8.1136436-2.2166929-12.0023842,0.4650493
		c-3.9713783,2.7387214-4.7165909,9.346262-1.186142,12.6214428c1.5844536,1.4698811,2.0922241,2.9414482,1.9082413,4.9077778
		C44.3485603,25.9781437,44.4013519,26.6595268,44.4013519,27.3359814z M52.1227798,51.0057831
		c0-4.474556,0.0023422-8.9491005-0.00317-13.4236565c-0.0006409-0.5190887,0.0378571-1.0584335-0.0838013-1.5534897
		c-0.4245567-1.7276611-1.8620186-1.100544-2.9605751-1.1787949c-1.0416374-0.0741768-1.2815514,0.5902481-1.2796097,1.5113869
		c0.0200462,9.521389,0.0119667,19.0428352,0.0320015,28.564209c0.0030174,1.432106,0.9842682,2.3204269,2.3925896,2.2420273
		c1.4227409-0.079216,1.9338379-0.8648834,1.918232-2.2700577C52.0870361,60.2673607,52.119091,55.6364021,52.1227798,51.0057831z
		 M45.7853203,60.8351784c-0.1801834,0.0012856-0.3603668,0.0025749-0.5405502,0.0038605
		c0,2.7116051-0.0208054,5.4235115,0.0161743,8.1346169c0.0081596,0.5985031,0.5610008,0.6745834,1.0483742,0.6757507
		c2.5436287,0.0061188,5.0872841,0.0072784,7.6309128,0.0035553c0.7809792-0.0011444,1.0870705-0.4125748,1.0777206-1.184166
		c-0.0270538-2.2318497-0.0114784-4.4641953-0.0257683-6.6962662c-0.0025139-0.3931465,0.1132736-0.949276-0.4584274-0.9976425
		c-0.6592484-0.0557747-0.6709213,0.5250816-0.6818123,0.9902077c-0.032795,1.4007339-0.0164948,2.8029747-0.0693245,4.2027473
		c-0.0448265,1.1876984-0.5796394,2.1008759-1.7424507,2.5139847c-3.5903778,1.2755432-5.9884071-0.4104309-6.0378227-4.1772766
		C45.9871864,63.1490326,46.2671547,61.9549408,45.7853203,60.8351784z"/>
	<path class="st0" d="M50.5818672,9.156538c2.6624146,0.0551157,5.3058548,2.1805086,5.82761,4.6705818
		c0.1330414,0.6349468,0.3350677,1.4450445-0.5721931,1.6930447c-0.9888763,0.2703104-1.016983-0.5551863-1.1799812-1.2073154
		c-0.5440559-2.1767101-2.0390015-3.2693901-4.1799202-3.5852261c-0.5713387-0.0842848-1.2963829-0.0811338-1.2587967-0.8342762
		C49.2626534,9.0104904,50.0680847,9.1850729,50.5818672,9.156538z"/>
</g>
</svg>
