<?xml version="1.0" encoding="utf-8"?>
<!-- Generator: Adobe Illustrator 25.4.1, SVG Export Plug-In . SVG Version: 6.00 Build 0)  -->
<svg version="1.1" id="Layer_1" xmlns="http://www.w3.org/2000/svg" xmlns:xlink="http://www.w3.org/1999/xlink" x="0px" y="0px"
	 width="100px" height="100px" viewBox="0 0 100 100" style="enable-background:new 0 0 100 100;" xml:space="preserve">
<style type="text/css">
	.st0{fill:#0078B9;}
</style>
<g>
	<path class="st0" d="M10.0790443,57.5928955c1.1356697-0.3620949,2.2010336-0.6271439,3.1906853-1.0489807
		c0.5948811-0.2541618,1.1194553-0.7245216,1.6170044-1.1628609c11.5946827-10.3670464,23.1785774-20.7393723,34.7624512-31.11203
		c0.0973511-0.0864792,0.1946831-0.1676788,0.3298874-0.2865067c0.1514244,0.1188278,0.3028488,0.2270927,0.4380531,0.351532
		C61.8603859,34.5766563,73.314476,44.8087006,84.7415466,55.067482c1.4763718,1.3305359,3.0663071,2.2768669,5.175415,2.3092155
		v0.7192345c0.0054245,9.0044937,0.0054245,18.0086517,0,27.0128098c0,3.1205444-2.2280807,5.4135895-5.3430786,5.4350433
		c-4.5481033,0.0217819-9.0908051,0.0217819-13.6389084,0c-3.1203995-0.0161743-5.3322601-2.2765427-5.343071-5.4294357
		c-0.0108337-4.8240662,0-9.6478043,0-14.4771576c0-3.5803375-2.3254318-5.9271851-5.8838844-5.9271851
		c-6.5490494-0.0056076-13.0981178-0.0108948-19.6471672,0.0052795c-2.7256317,0.0056152-4.8996391,1.709137-5.4944992,4.2886887
		c-0.1135674,0.4974213-0.1514206,1.0219193-0.1514206,1.5358429c-0.0108299,4.7861099-0.0108299,9.5666122-0.0054283,14.3474426
		c0,3.4664612-2.1794128,5.6621323-5.6405125,5.6621323c-4.3480167,0-8.701437,0-13.0494328,0
		c-3.4556961-0.0056076-5.6405144-2.2012787-5.6405144-5.6677475c0-8.8962173,0-17.7921143,0-26.6883392V57.5928955z"/>
	<path class="st0" d="M70.8538589,26.8588047c0-0.4485741,0-0.762476,0-1.0707684c0-4.2668991,0-8.5334702,0-12.7950888
		c0.0054092-2.1633224,1.3465729-3.525878,3.4935532-3.5476637c0.751709-0.0052805,1.5088196-0.0108919,2.2605286,0.0052814
		c2.0333939,0.0326777,3.3853912,1.4008455,3.3907928,3.4341173c0.0054092,7.1765242,0.0054092,14.3474398-0.0108109,21.5183525
		c0,0.5030365,0.1622391,0.8222237,0.5299835,1.1519699c4.7103348,4.1965942,9.4098663,8.409359,14.1094131,12.616848
		c1.6440048,1.4708214,1.8332825,3.6773834,0.4488602,5.2294006c-1.3682251,1.5358467-3.5963058,1.600872-5.2457428,0.1244392
		C78.5602188,43.4507637,67.2954102,33.3646164,56.0305939,23.2844048
		c-1.9901352-1.7847233-3.9802666-3.5638371-6.0244942-5.3865185c-0.1784477,0.1515045-0.3569145,0.2973976-0.5245743,0.4541855
		C36.448307,30.0116959,23.4150887,41.6713219,10.3927002,53.3471222c-1.10324,0.9898987-2.2983856,1.5196724-3.763967,1.103447
		c-1.3303528-0.3733177-2.1902232-1.2655144-2.5146885-2.6122284c-0.3352959-1.4005127,0.0757113-2.6013336,1.1410751-3.5582237
		c2.6228709-2.3633499,5.2565522-4.7158051,7.8902335-7.0738716c11.4108295-10.2102604,22.821661-20.4149094,34.227066-30.6360588
		c0.9788437-0.8760233,2.0874863-1.3519945,3.369175-1.0004625c0.6543579,0.1785717,1.3249474,0.546277,1.8387108,0.9951811
		c5.8622437,5.2023373,11.6974449,10.4426336,17.5380669,15.6667547
		C70.3184586,26.4155121,70.5293732,26.5831909,70.8538589,26.8588047"/>
</g>
</svg>
