<?xml version="1.0" encoding="utf-8"?>
<!-- Generator: Adobe Illustrator 25.4.1, SVG Export Plug-In . SVG Version: 6.00 Build 0)  -->
<svg version="1.1" id="Layer_1" xmlns="http://www.w3.org/2000/svg" xmlns:xlink="http://www.w3.org/1999/xlink" x="0px" y="0px"
	 width="100px" height="100px" viewBox="0 0 100 100" style="enable-background:new 0 0 100 100;" xml:space="preserve">
<style type="text/css">
	.st0{fill:#0078B9;}
</style>
<g>
	<path class="st0" d="M61.4943085,89.7249603c5.1798859-4.0924683,9.6764221-8.7194061,13.4577103-14.0309143
		c6.2494125-8.7784653,10.0183868-18.5791092,12.024765-29.1096954c1.1281891-5.9214134,1.6585007-11.9017067,1.7626266-17.9228802
		c0.0455399-2.6336727-0.8910675-3.7225456-3.483345-3.9554882c-6.8008957-0.6111374-13.512558-1.5903397-19.8978806-4.1997433
		c-4.336689-1.7722206-8.4828644-3.8984108-12.2715492-6.6395798c-1.9728508-1.4273815-3.6471329-1.3919821-5.6244965-0.0537577
		c-7.2943001,4.9365759-15.2835045,8.2192659-23.9685383,9.778327c-2.94067,0.5278797-5.9059811,0.8353405-8.8776541,1.1092644
		c-2.1101046,0.1945076-3.189868,1.2300701-3.2452354,3.2888203c-0.2978649,11.0761623,0.5559568,22.010603,4.1849022,32.5846786
		C19.5139351,72.107811,26.293314,81.6065063,36.1928787,89.0571213c-1.6382637,1.0184784-3.147625,2.1104584-4.4519272,3.4535904
		c-1.3184109,1.3576508-1.3245411,1.3539581-2.8207264,0.101265C16.8517628,82.5075836,9.6163568,69.5437546,6.2380185,54.2935867
		c-1.9313827-8.7184219-2.4224772-17.5627747-2.1812654-26.4507923c0.160233-5.9041195,4.0134802-9.8889217,9.9417095-10.3961544
		c7.3348656-0.6275978,14.4690075-2.0156918,21.2101326-5.0832243c3.0675278-1.3958673,5.9498138-3.1189346,8.7591667-4.969696
		c4.0592499-2.6741695,8.7384796-2.6376457,12.764267,0.1537724c6.6523819,4.6126757,13.8705254,7.8554115,21.9252357,9.0405264
		c2.6178589,0.3851738,5.258194,0.621376,7.890831,0.9016018c5.4875946,0.5841217,9.4658966,4.7073765,9.4518661,10.1703548
		c-0.0384827,14.9803867-2.6117935,29.4306355-9.4384689,42.9271851
		c-4.6574936,9.2080307-11.0282364,17.0465927-18.973259,23.6202011c-0.4889069,0.4045105-0.7958221,0.6013641-1.2713165-0.0538864
		C65.0449295,92.4006577,63.4067726,91.0183487,61.4943085,89.7249603z"/>
	<path class="st0" d="M49.9946938,76.0237885c-12.8414116,0.0476074-23.3740139-9.8078156-24.5049019-22.9293861
		c-1.0462265-12.1391296,7.9419212-23.6741123,20.1105003-25.809351c6.506958-1.1417694,12.5241661,0.1065521,18.0617218,3.6986427
		c0.5677452,0.3682861,1.1517906,0.7305813,1.3211708,1.4498653c0.2006454,0.8520813,0.0160446,1.6094322-0.7333679,2.1168671
		c-0.8362999,0.5662613-1.6522026,0.4018669-2.456665-0.1492271c-2.6765099-1.8335495-5.6162109-2.9791355-8.8369637-3.4550152
		c-9.1285934-1.3487663-18.1475067,3.6771679-21.9168949,12.2542324c-3.7279282,8.482708-1.2430077,18.5735397,6.0019245,24.3728333
		c7.1475868,5.721344,17.0728073,6.1494675,24.5658455,1.0596466c7.6255569-5.1798515,10.9297104-14.632206,8.1868057-23.4230309
		c-0.0625-0.2002907-0.1439514-0.3948288-0.2025223-0.5961456c-0.3832092-1.316925,0.0422134-2.3167419,1.1334915-2.6736069
		c1.1583786-0.3788147,2.0908203,0.1854057,2.5695496,1.5505371c0.6288071,1.7930717,1.0261917,3.6401329,1.2042542,5.5273743
		C75.8725128,63.578392,64.6237793,75.9695663,49.9946938,76.0237885z"/>
	<path class="st0" d="M53.0641022,59.8818207c-1.2261734-0.0184937-2.1685982-0.664772-2.8453903-1.6044006
		c-2.5027084-3.4745865-4.955864-6.9850197-7.4100914-10.4942627c-0.5614243-0.8027573-0.6617088-1.6645203,0.1200447-2.3926773
		c0.8533669-0.7948494,1.7535362-0.6602821,2.6030159,0.0486221c2.0637016,1.7221756,4.1724091,3.3954048,6.1592445,5.2024155
		c0.8988533,0.8175201,1.323185,0.6194305,2.0303726-0.2044411c4.7327728-5.5137329,9.5150909-10.9849358,14.2865677-16.4653931
		c0.4684982-0.538105,0.978569-1.039814,1.4580231-1.5686874c0.6526031-0.7199001,1.3819275-0.7497234,2.1291428-0.2015457
		c0.8055191,0.5909576,0.9230804,1.3718529,0.4298706,2.2179222c-0.3800964,0.6520576-0.8111572,1.2748718-1.2292862,1.9042282
		c-4.7163086,7.099144-9.4410248,14.1927223-14.1462135,21.2992096
		C55.7871552,58.9250984,54.7008247,59.802639,53.0641022,59.8818207z"/>
</g>
</svg>
