<?xml version="1.0" encoding="utf-8"?>
<!-- Generator: Adobe Illustrator 25.4.1, SVG Export Plug-In . SVG Version: 6.00 Build 0)  -->
<svg version="1.1" id="Layer_1" xmlns="http://www.w3.org/2000/svg" xmlns:xlink="http://www.w3.org/1999/xlink" x="0px" y="0px"
	 width="100px" height="100px" viewBox="0 0 100 100" style="enable-background:new 0 0 100 100;" xml:space="preserve">
<style type="text/css">
	.st0{fill:#0078B9;}
</style>
<g>
	<g>
		<path class="st0" d="M69.6095505,67.1574326v9.5211411H33.3750763l-1.7054996-5.9683304
			c2.2254925-1.9891281,3.859621-4.0959778,4.9023876-6.3233261c1.0409088-2.2254944,1.5627556-4.9737587,1.5627556-8.2410889
			v-0.142746h-7.7442684v-8.1706429h5.7551365c-0.9000206-3.2200584-1.3495712-6.1805878-1.3495712-8.8806534
			c0-3.2200584,0.7211304-6.0146713,2.167099-8.3838329c1.4441147-2.3673096,3.4684715-4.1673546,6.0739937-5.3992081
			c2.6045952-1.2309265,5.588295-1.8473167,8.9520226-1.8473167c5.4937515,0,9.7093048,1.4923134,12.646656,4.4760132
			c2.9364319,2.9836979,4.4991837,6.8683453,4.6892014,11.6520901H58.1706467
			c-0.0954704-1.8945885-0.6163902-3.3980255-1.5627594-4.5121613c-0.9482193-1.1122818-2.392334-1.6693497-4.3341942-1.6693497
			c-1.8955154,0-3.3637314,0.5802383-4.4055672,1.7407227c-1.0418396,1.1614075-1.5627594,2.8771057-1.5627594,5.150795
			c0,1.0900383,0.1297646,2.2023201,0.3911514,3.3396301c0.2595329,1.1363831,0.6506882,2.5823517,1.171608,4.333271h12.8598442
			v8.1706429H49.6449966v0.2131882c0,1.8473167-0.3800316,3.7660065-1.13731,5.7551384
			c-0.7582054,1.9891319-1.9427872,3.7187309-3.5518913,5.1860237H69.6095505z"/>
	</g>
	<path class="st0" d="M50,4C24.5949097,4,4,24.5949097,4,50s20.5949097,46,46,46s46-20.5949097,46-46S75.4050903,4,50,4z
		 M50,88.8928833c-21.4799194,0-38.8928833-17.4129639-38.8928833-38.8928833S28.5200806,11.1071167,50,11.1071167
		S88.8928833,28.5200806,88.8928833,50S71.4799194,88.8928833,50,88.8928833z"/>
</g>
</svg>
