<?xml version="1.0" encoding="utf-8"?>
<!-- Generator: Adobe Illustrator 25.4.1, SVG Export Plug-In . SVG Version: 6.00 Build 0)  -->
<svg version="1.1" id="Layer_1" xmlns="http://www.w3.org/2000/svg" xmlns:xlink="http://www.w3.org/1999/xlink" x="0px" y="0px"
	 width="100px" height="100px" viewBox="0 0 100 100" style="enable-background:new 0 0 100 100;" xml:space="preserve">
<style type="text/css">
	.st0{fill:#0078B9;}
</style>
<g>
	<g>
		<path class="st0" d="M66.3571396,64.3117294v7.9419785H36.1324577l-1.4226303-4.9784317
			c1.8563766-1.6592178,3.2194748-3.416626,4.0892868-5.2745476c0.8682671-1.8563766,1.3035622-4.148819,1.3035622-6.8742371
			v-0.1190681h-6.4598198v-6.8154755h4.800602c-0.7507477-2.6859856-1.1257324-5.1554871-1.1257324-7.4077225
			c0-2.6859894,0.6015244-5.0170898,1.8076668-6.9933052c1.2045937-1.9746723,2.8931923-3.4761658,5.0665703-4.503706
			c2.1725998-1.0267658,4.6614304-1.5409241,7.4672546-1.5409241c4.5825691,0,8.0989342,1.2448006,10.5491066,3.7336292
			c2.449398,2.4888268,3.7529564,5.7291756,3.9114571,9.7194939h-9.304306
			c-0.0796356-1.5803528-0.5141563-2.8344307-1.3035622-3.7637787c-0.7909508-0.927803-1.9955444-1.3924789-3.6153336-1.3924789
			c-1.5811272,0-2.8058243,0.484005-3.6748657,1.4520111c-0.8690414,0.9687805-1.3035622,2.3999138-1.3035622,4.2964935
			c0,0.9092484,0.108242,1.8370476,0.3262787,2.7857246c0.2164841,0.9479065,0.5427628,2.1540489,0.9772835,3.614563h10.7269325
			v6.8154755h-9.2447701v0.1778297c0,1.5409203-0.3169975,3.1413803-0.9486771,4.8005981
			c-0.6324501,1.6592178-1.6205597,3.1019516-2.96278,4.3258781H66.3571396z"/>
	</g>
	<path class="st0" d="M6.9500885,36.3484573c0.0397673-2.4767799,0.4981475-4.8765526,1.3582983-7.1961403
		c1.8125086-4.8878326,4.9308624-8.8353405,8.8738699-12.1630497c5.5137691-4.6533566,11.8943157-7.6052732,18.8295155-9.4164715
		c7.5126762-1.9620113,15.1334457-2.4222822,22.8366165-1.4868846c7.5340271,0.9148574,14.6395493,3.1306586,21.1426926,7.108232
		c4.7858429,2.9272099,8.8358612,6.6272106,11.7990952,11.440115c0.2915421,0.4735279,0.5610886,0.9606018,0.8573608,1.4697781
		C93.734169,25.8420048,94.8119812,25.5820999,96,25.2956161c-1.1856766,4.0678062-2.3467331,8.0511322-3.5366058,12.1333427
		c-2.9386673-3.0697708-5.8106537-6.0698872-8.7396011-9.1295033c1.0764771-0.2677383,2.0701599-0.514883,3.1448669-0.7821846
		c-0.1182404-0.2232533-0.2131577-0.4177284-0.3213577-0.6045074c-2.4686203-4.2614632-5.9443359-7.5416183-10.0266266-10.2121868
		c-5.6290512-3.6824389-11.8366852-5.8736715-18.4303703-7.0354414C53.4292259,8.8438807,48.732151,8.602232,44.0136948,8.9405842
		c-8.5733109,0.6147776-16.6467609,2.8585377-23.9145241,7.5791035c-4.5202475,2.9359951-8.2599268,6.6338806-10.7336349,11.4934139
		c-1.2131214,2.3831444-2.0007138,4.8990574-2.281126,7.5663166C7.0572639,35.8376198,6.9956841,36.0921974,6.9500885,36.3484573z"
		/>
	<path class="st0" d="M4,77.5987473c0.9760551-4.0563736,1.944231-8.0800018,2.9340582-12.1936188
		c3.0741167,2.9186249,6.080142,5.7726135,9.1606588,8.697319c-1.0548687,0.3202515-2.0367613,0.6183472-3.063385,0.9300156
		c1.0903282,1.6619186,2.3507271,3.1007233,3.7576942,4.412323c4.0476227,3.7732391,8.8105278,6.3405609,13.9689178,8.2238007
		c4.9266453,1.7986374,10.0189838,2.8463669,15.2414799,3.2836609c8.2997971,0.6949844,16.4462776-0.0514145,24.3840675-2.6484146
		c5.3562698-1.7524109,10.3044128-4.2686386,14.5297699-8.0629578c3.0772095-2.7632828,5.4821167-5.9985504,6.7116547-9.9978714
		c0.3668594-1.1932373,0.5725479-2.4360275,0.9067001-3.6559372c-0.1813278,1.1586609-0.290802,2.3340988-0.5568161,3.4729843
		c-0.9806976,4.1986847-3.227478,7.6861725-6.207283,10.7324524c-4.0338211,4.1238251-8.887352,6.9925156-14.1893539,9.149147
		c-5.2837296,2.1491928-10.7849655,3.4288788-16.4502869,4.0369568c-4.6136856,0.4951935-9.2303162,0.5438385-13.8471451,0.0832825
		c-8.4884415-0.8467865-16.5371723-3.093132-23.8382778-7.6380234c-3.9397221-2.452446-7.3454857-5.4884109-9.9190569-9.3907089
		c-0.1661687-0.2519684-0.3192406-0.3024597-0.5967216-0.2164307c-0.9150605,0.2836761-1.8372331,0.5444412-2.7573943,0.8115311
		C4.1404514,77.6366196,4.1037574,77.6178894,4,77.5987473z"/>
</g>
</svg>
