<?xml version="1.0" encoding="utf-8"?>
<!-- Generator: Adobe Illustrator 25.4.1, SVG Export Plug-In . SVG Version: 6.00 Build 0)  -->
<svg version="1.1" id="Layer_1" xmlns="http://www.w3.org/2000/svg" xmlns:xlink="http://www.w3.org/1999/xlink" x="0px" y="0px"
	 width="100px" height="100px" viewBox="0 0 100 100" style="enable-background:new 0 0 100 100;" xml:space="preserve">
<style type="text/css">
	.st0{fill:#0078B9;}
</style>
<g>
	<path class="st0" d="M96.0004425,50.0377159c0.0046692,25.3991814-20.5875092,45.9649925-46.0220566,45.963131
		C24.4562531,95.99897,3.9938073,75.3992157,3.9995568,49.713501C4.0052099,24.4499817,24.7159882,3.9869463,50.2673454,3.9991622
		C75.468689,4.0112133,95.9958038,24.6754303,96.0004425,50.0377159z M88.0106506,50.0017548
		C88.01091,29.0502205,70.9861755,11.9986629,50.0563431,11.9876719
		C29.0572147,11.9766436,12.0027847,28.9874554,11.9874134,49.95924
		c-0.0153818,20.9843712,17.0211258,38.0471916,37.9913864,38.0500603
		C70.9683533,88.0121841,88.0103836,70.9810486,88.0106506,50.0017548z"/>
	<path class="st0" d="M50.0321999,86.5431137c-20.2933311-0.0030975-36.5792122-16.354454-36.5753555-36.7224007
		c0.0037966-20.063242,16.443224-36.3742981,36.650856-36.3646698c20.2184753,0.009634,36.4635773,16.4443455,36.4358368,36.8610954
		C86.5164948,70.2126923,70.0543594,86.5461655,50.0321999,86.5431137z M21.6702061,33.2111511
		c0.3045502,0.1424217,0.4897442,0.2374725,0.6812687,0.3173637c5.9442558,2.479641,11.9134903,4.9016914,17.820507,7.4670296
		c2.0295067,0.8814011,4.3424492-0.8754997,4.1444397-2.9731636c-0.6144028-6.5085468-1.0811157-13.0310307-1.6099625-19.5477123
		c-0.0119247-0.1469173-0.0813217-0.2891731-0.1385345-0.483181C33.5607719,20.2791462,26.6451397,25.3158207,21.6702061,33.2111511
		z M74.859726,71.8874741c6.0041962-7.2027283,8.6531143-15.3535881,8.0304184-24.6584511
		c-0.3214645,0.0557327-0.525589,0.079998-0.7242737,0.1271896c-6.248909,1.4843826-12.4837189,3.0321007-18.7530403,4.4244499
		c-2.2253761,0.4942398-3.1518631,3.269146-1.593235,4.9736176c2.869339,3.1378288,5.5680084,6.4317017,8.3385468,9.6598969
		C71.693573,68.2032318,73.2305374,69.9909821,74.859726,71.8874741z M78.2388153,33.2728844
		c-2.4246368-6.0869274-14.7935524-15.0552597-20.8803711-15.1683178c-0.0214233,0.1085033-0.0550461,0.2201271-0.0642166,0.3337212
		c-0.5264664,6.5169525-0.9888191,13.0400105-1.6106911,19.5478191c-0.2052422,2.1478119,2.1324997,3.8971252,4.1773338,2.9986076
		c5.2761078-2.3183594,10.626152-4.4684219,15.9461899-6.6868629C76.6196747,33.958992,77.4297562,33.6140747,78.2388153,33.2728844
		z M25.1250248,71.8676682c0.231266-0.2508087,0.3765144-0.3988495,0.5113068-0.5558853
		c4.1870136-4.877594,8.3755093-9.7539177,12.5578861-14.6354866c1.5907478-1.856678,0.7808647-4.2918167-1.6120758-4.8610229
		c-4.5671043-1.0863724-9.135664-2.1666565-13.703434-3.2502403c-1.8807831-0.446167-3.7611008-0.89431-5.7644138-1.3707581
		C16.4838123,56.5279694,19.1341228,64.6804428,25.1250248,71.8676682z M62.9563065,80.5265579
		c-0.1616173-0.2869873-0.2679176-0.4896545-0.386734-0.6846848c-3.353302-5.5040894-6.7057037-11.0087204-10.0633812-16.5101318
		c-1.1962929-1.960083-3.8131218-1.9643326-5.0080833-0.0066681c-3.3701248,5.5211563-6.7338905,11.0461807-10.0992813,16.5702286
		c-0.1140518,0.1872025-0.2185822,0.3802185-0.3634644,0.6332474
		C45.7341194,84.0061722,54.3045235,84.0086212,62.9563065,80.5265579z M45.1063309,17.2262459
		c0.0142708,0.1986542,0.0125847,0.3137016,0.0319595,0.4250946c1.0327644,5.9382076,2.062664,11.8769093,3.1046562,17.8135033
		c0.2917519,1.6622353,0.3083458,1.6593246,2.0109482,1.6553726c1.1040154-0.0025597,1.2483673-0.1392937,1.4416046-1.2563744
		c0.7685585-4.4429874,1.5444374-8.8847065,2.3168678-13.3270264c0.3032265-1.7438831,0.6045341-3.4880981,0.9182091-5.2985229
		C51.632534,16.7335014,48.4107246,16.74259,45.1063309,17.2262459z M17.1659451,44.6494408
		c0.340147,0.0627136,0.6313267,0.1270523,0.9256878,0.1690979c5.7592068,0.8225021,11.5198956,1.6347198,17.277626,2.4674149
		c1.779007,0.2572784,1.7754097,0.2821388,2.312973-1.4182358c0.3180351-1.00597,0.2412872-1.2016449-0.6620903-1.6792946
		c-5.3700008-2.8393517-10.7400303-5.6786652-16.110527-8.5170822c-0.2199554-0.1162529-0.444664-0.2235107-0.7099514-0.3563995
		C18.7169266,38.306015,17.7143574,41.3681221,17.1659451,44.6494408z M82.8424683,44.6724472
		c-0.5731049-3.3238182-1.5569534-6.3888397-3.0407639-9.3419762c-0.2393723,0.1128273-0.4285889,0.1930084-0.6096344,0.2886505
		c-5.1988831,2.746376-10.3976898,5.4928513-15.5946579,8.2428169c-1.6871109,0.8927269-1.6686668,0.8918152-1.0489273,2.7390633
		c0.2269478,0.6764984,0.6024399,0.8957253,1.3142319,0.7917671c4.7562027-0.6946259,9.5170822-1.3570518,14.2759323-2.0336533
		C79.6815338,45.1397476,81.2228241,44.9092178,82.8424683,44.6724472z M34.6196861,79.6943588
		c0.1562653-0.3030472,0.276741-0.5269928,0.3886642-0.7551422c2.5790825-5.2574692,5.1568108-10.5156021,7.735817-15.7731171
		c0.7824173-1.5950127,0.7838135-1.5943298-0.6538773-2.6270714c-0.8541336-0.6135521-1.0374718-0.5995598-1.7883224,0.128746
		c-3.7037163,3.5925102-7.4144402,7.177845-11.1067753,10.7820091c-0.8309593,0.8111115-1.598217,1.6875-2.4220924,2.562851
		C29.0392418,76.2385635,31.6483269,78.1312256,34.6196861,79.6943588z M73.3927307,73.8506012
		c-0.2504578-0.2022858-0.4442596-0.3354187-0.6107864-0.4967117c-4.2260513-4.093399-8.4493256-8.189682-12.6729202-12.285614
		c-1.2672157-1.2289085-1.2669907-1.2291145-2.6985474-0.167099c-0.8283081,0.6145134-0.8750648,0.792244-0.4060936,1.7495384
		c2.6891899,5.4892769,5.3811417,10.9771919,8.074398,16.464489c0.0885468,0.1804199,0.2011566,0.3490219,0.3281097,0.5670319
		C68.3410416,78.1341782,70.9529877,76.2467346,73.3927307,73.8506012z M49.9991531,45.6166229
		c-2.4080086,0.0004044-4.3668289,1.9446335-4.3812065,4.348568c-0.0145988,2.4406853,1.9467659,4.4170227,4.3831139,4.416584
		c2.4080811-0.0004425,4.366787-1.9444923,4.3812943-4.3485336C54.3970795,47.5927544,52.4354973,45.6162109,49.9991531,45.6166229z
		 M56.1615562,56.9064484c0.0024643-0.6016922-0.5122795-1.1033134-1.1211281-1.0925598
		c-0.5861015,0.0103531-1.0706902,0.4798889-1.0884819,1.0546799c-0.018383,0.5934029,0.4893227,1.1250496,1.085289,1.1364555
		C55.629509,58.0163498,56.1591263,57.498867,56.1615562,56.9064484z M44.9395103,58.0046463
		c0.5925217,0.0088615,1.1211929-0.5111046,1.1213722-1.1029167c0.0001755-0.5715294-0.4806747-1.066761-1.0570145-1.0886269
		c-0.609314-0.0231171-1.1388016,0.4619598-1.1568794,1.0598488C43.8292809,57.4585228,44.3479652,57.9958038,44.9395103,58.0046463
		z M51.1112404,41.3608551c-0.0012932-0.591156-0.5303841-1.0954285-1.1359558-1.0826683
		c-0.5765495,0.0121498-1.0713081,0.4966431-1.085144,1.062645c-0.0145149,0.5933914,0.4970741,1.1140633,1.0998993,1.1194229
		C50.5932007,42.4656181,51.1125412,41.9563789,51.1112404,41.3608551z M41.8044395,48.4155045
		c0.5876236,0.0196533,1.1200294-0.4999313,1.1235123-1.0964584c0.0033569-0.5749474-0.4641418-1.0766563-1.0356064-1.1113777
		c-0.5908661-0.0359001-1.1344986,0.4589844-1.1610184,1.0569038
		C40.7051697,47.8542595,41.2099304,48.3956184,41.8044395,48.4155045z M59.268364,47.3086205
		c0.0146141-0.5986023-0.4889488-1.114994-1.0920372-1.1198616c-0.6068611-0.0048981-1.1096954,0.4967461-1.1062126,1.1035881
		c0.0033379,0.5810089,0.4718323,1.0618668,1.0543213,1.0821342C58.7341919,48.3957024,59.2536354,47.9117088,59.268364,47.3086205z
		"/>
</g>
</svg>
