<?xml version="1.0" encoding="utf-8"?>
<!-- Generator: Adobe Illustrator 25.4.1, SVG Export Plug-In . SVG Version: 6.00 Build 0)  -->
<svg version="1.1" id="Layer_1" xmlns="http://www.w3.org/2000/svg" xmlns:xlink="http://www.w3.org/1999/xlink" x="0px" y="0px"
	 width="100px" height="100px" viewBox="0 0 100 100" style="enable-background:new 0 0 100 100;" xml:space="preserve">
<style type="text/css">
	.st0{fill:#0078B9;}
</style>
<g>
	<path class="st0" d="M70.4353561,95.985878c-3.0503616,0.0385361-5.9000244-0.4996872-8.6497688-1.5430679
		c-0.5790253-0.2197266-1.1163673-0.2789841-1.7168694-0.1697464c-9.0398788,1.644722-18.1430702,2.1021042-27.3046036,1.4256744
		c-9.0734158-0.6699219-17.9163189-2.5034943-26.5803871-5.2504959c-0.5666561-0.179657-0.7949162-0.4307861-0.7928882-1.0653152
		c0.0262022-8.1966934,0.0058522-16.3935394,0.028923-24.5902405c0.0119066-4.2310104,2.1401358-7.3077049,5.4731178-9.666214
		c3.0233583-2.1394005,6.451004-3.4229698,9.9354649-4.5633812c1.868557-0.6115494,3.7716351-1.1192207,5.6320229-1.7533188
		c0.7282581-0.24823,1.1950035-0.1549072,1.7573662,0.3874588c2.5960712,2.5037689,5.5733089,4.3921471,9.1578159,5.1048241
		c6.0522881,1.2033272,11.1953163-0.720932,15.5946426-4.8300552c0.8402557-0.7848282,1.5336456-1.0300598,2.5599098-0.5648499
		c2.3370285,1.0593719,4.4993477,0.9419403,7.0469894,0.0430946c13.33881-4.7061806,27.7206306,3.1420898,31.2568398,16.8057442
		c3.5132751,13.5750656-5.2705841,27.2901993-19.1481934,29.8763733
		C73.2521973,95.8995285,71.797493,96.0282211,70.4353561,95.985878z M70.4498596,53.0782509
		C60.128788,53.0246124,51.6965675,61.3434296,51.61166,71.6631012c-0.0845642,10.277626,8.3021812,18.7804642,18.5887032,18.846077
		c10.3770676,0.0661926,18.8346024-8.2854385,18.8899384-18.6534271
		C89.1452637,61.5632668,80.775444,53.1319199,70.4498596,53.0782509z"/>
	<path class="st0" d="M40.8014069,49.6606064c-3.2868538,0.0926666-6.0158386-1.2855988-8.4394035-3.3709831
		c-3.0672684-2.6392403-5.2655163-5.9260025-6.9475079-9.5759239c-0.4407597-0.9564323-0.8976765-1.8394814-1.6765003-2.6323433
		c-1.3107262-1.3343582-1.7334309-3.1661453-1.9076614-4.9795399c-0.1679173-1.747654-0.363306-3.5433464,0.9168148-5.0727348
		c0.3371315-0.4027786,0.1832447-0.9921589,0.1706219-1.4964962c-0.0665188-2.6582603,0.1776676-5.2791557,1.1092453-7.7832985
		c2.3660583-6.360136,7.1083698-9.6937504,13.7067604-10.5426121c2.9495926-0.3794568,5.9002762-0.2518177,8.790535,0.5112381
		c6.664566,1.75951,11.2198944,7.1867571,11.899025,14.140192c0.0726814,0.7442074,0.1355362,1.4901447,0.1737556,2.2367764
		c0.0707779,1.3825722,0.0827866,2.6848335,0.747612,4.0536213c1.2898216,2.6555996,0.0273056,7.4464684-2.1677742,9.481411
		c-0.4868126,0.4512978-0.6333923,1.0755615-0.8886185,1.6409607c-1.8374557,4.0704803-4.2436714,7.7230568-7.780529,10.5294418
		C46.2621269,48.5821686,43.75634,49.7200203,40.8014069,49.6606064z"/>
	<path class="st0" d="M76.1937332,57.7978668c2.1782837,0.0878258,4.4176712,1.3894806,5.5764694,4.1108322
		c1.1674347,2.7416534,0.7335892,5.3812103-1.3616638,7.546402c-2.0107346,2.077858-4.5213013,2.6798019-7.2581711,1.6985092
		c-0.8480759-0.3040695-1.2798462-0.1065979-1.8073273,0.4632034c-0.8022995,0.8666229-1.633667,1.7115326-2.5089951,2.5034103
		c-0.5210648,0.4713821-0.4644394,0.774826,0.0158615,1.218811c0.838295,0.7748718,1.6074448,1.6242218,2.4387817,2.4070969
		c0.4393997,0.4137802,0.4340439,0.6850739,0.0091171,1.1422119c-2.2555084,2.4265518-2.2414246,2.4396744-4.5607986,0.102356
		c-0.1110001-0.1118622-0.2215881-0.2241364-0.3325729-0.3360367c-0.9689789-0.9769287-1.9807281-0.7559204-2.6144066,0.5281372
		c-0.1926041,0.390274,0.0978241,0.4957657,0.2654305,0.6672211c0.8536224,0.8732376,1.7095337,1.7450562,2.5913849,2.5894547
		c0.3933258,0.3765945,0.4762802,0.6937256,0.0148849,1.0535126c-0.0615387,0.0479889-0.1088638,0.1137924-0.1656723,0.1683273
		c-0.7074509,0.6791306-1.3567429,1.8119125-2.1392136,1.9130249c-0.8388557,0.1084061-1.4346237-1.1635742-2.1329765-1.8333664
		c-1.2505341-1.1994171-2.4314308-2.4721298-3.6958351-3.656105c-0.5609703-0.5252914-0.5677681-0.8255768-0.0064659-1.3780441
		c3.3691216-3.3160248,6.6835442-6.6875992,10.0502586-10.0061035c0.5490036-0.5411453,0.6587219-0.9386292,0.3784485-1.7058182
		C67.2968674,62.4689636,70.6320114,57.7785301,76.1937332,57.7978668z M75.4538879,61.8552475
		c-1.6840363-0.0114784-2.8547592,1.120388-2.8586578,2.7637482c-0.003952,1.6660843,1.2592087,2.949791,2.8809662,2.9278412
		c1.5412216-0.0208588,2.81147-1.3218994,2.8232498-2.8916702C78.3114853,63.0511894,77.1074982,61.8665199,75.4538879,61.8552475z"
		/>
</g>
</svg>
