<?xml version="1.0" encoding="utf-8"?>
<!-- Generator: Adobe Illustrator 25.4.1, SVG Export Plug-In . SVG Version: 6.00 Build 0)  -->
<svg version="1.1" id="Layer_1" xmlns="http://www.w3.org/2000/svg" xmlns:xlink="http://www.w3.org/1999/xlink" x="0px" y="0px"
	 width="100px" height="100px" viewBox="0 0 100 100" style="enable-background:new 0 0 100 100;" xml:space="preserve">
<style type="text/css">
	.st0{fill:#0078B9;}
</style>
<g>
	<path class="st0" d="M53.8608704,87.3440247c-5.2971458-0.0000305-10.5942955,0.0018158-15.8914413-0.0005569
		c-5.3166618-0.002388-8.659296-2.6143036-9.785059-7.8454208c-0.4583874-2.1300125-0.6211834-4.3260574-0.8755398-6.4970856
		c-0.6470413-5.5227051-1.2691193-11.048336-1.9026051-16.5726395c-0.5542908-4.8335991-1.1104755-9.6669846-1.6658707-14.5004616
		c-0.674387-5.8690147-1.3457508-11.7383747-2.0260029-17.6067104c-0.1247616-1.0762901,0.3127136-1.7018509,1.3710365-1.8352566
		c1.8454742-0.2326202,3.6927872-0.4512291,5.540741-0.6633854c0.8521061-0.0978241,1.4492512,0.3593063,1.619421,1.2223282
		c0.3567829,1.8094349,0.2296028,3.6235638,0.0390244,5.437685c-0.2860794,2.7232418-0.6877403,5.4404411-0.8315678,8.1711998
		c-0.2610455,4.9562035,0.6542778,9.6478157,3.6064606,13.7899475c0.6402359,0.8982887,1.2178955,1.8413086,1.8204842,2.7662582
		c1.5104523,2.3185234,2.6282921,4.7942467,3.0916634,7.5463257c0.5074501,3.0138588,0.0806084,5.9489479-0.6968613,8.8551369
		c-0.4698944,1.7564774-0.9833641,3.5012741-1.4770813,5.2513809c-0.2793274,0.9901657,0.108078,1.4379196,1.1290855,1.3544388
		c4.8499451-0.396553,9.700798-0.7820129,14.5512199-1.1727295c5.8695335-0.4727936,11.7389679-0.9468536,17.6084404-1.4204712
		c2.1805496-0.1759567,4.3601074-0.3654175,6.5419312-0.5239029c1.5999146-0.1162262,2.7012329,0.8802032,2.6776123,2.4784698
		c-0.0256119,1.7330933,0.0014877,3.4854889-0.2501144,5.1917572c-0.277916,1.8848114-1.3056488,3.4659195-2.7086182,4.7681732
		c-1.2970123,1.2038956-2.8155746,1.8215179-4.6133575,1.8140793C65.1096191,87.3293228,59.485218,87.3440399,53.8608704,87.3440247
		z M25.0067902,31.01548c0.8173237-0.0933113,1.7316494-0.190033,2.6437073-0.3047886
		c0.51791-0.0651588,0.8619003-0.3781414,0.8117313-0.8997974c-0.1427021-1.4838009-0.3271904-2.9641361-0.5258541-4.4417133
		c-0.0718746-0.5345573-0.4527035-0.751194-0.9774609-0.696312c-0.9143715,0.0956249-1.8294659,0.1874924-2.740984,0.3061256
		c-0.6150703,0.0800552-0.9025879,0.4487286-0.8359566,1.058754c0.1508179,1.3808651,0.3107357,2.7608643,0.4838161,4.1391029
		C23.9459934,30.8155479,24.2718868,31.0614243,25.0067902,31.01548z"/>
	<path class="st0" d="M65.9308243,89.0223541c0,1.189949-0.0000381,2.3086395,0.0000076,3.4273376
		c0.0000381,0.8382034,0.0032349,1.6764145-0.0006256,2.5146027c-0.0036163,0.7881699-0.2430649,1.0400009-1.0116196,1.0401688
		c-9.4860573,0.002121-18.9721146,0.0007324-28.4581718,0.0034485c-0.5038719,0.0001373-0.9467468-0.1292343-0.9535904-0.7061462
		c-0.0249214-2.1012421-0.0098419-4.2029648-0.0098419-6.2794113C45.65522,89.0223541,55.7606125,89.0223541,65.9308243,89.0223541z
		"/>
	<path class="st0" d="M26.1727486,17.3845272c-0.5493164-0.0482407-1.0979614-0.107193-1.648138-0.1418095
		c-0.5879211-0.0369892-0.8179684-0.3212471-0.7815475-0.9166279c0.1946468-3.1819592,0.3691387-6.3651562,0.549221-9.5479984
		c0.0346355-0.612123,0.0574856-1.2249465,0.0958023-1.8368187c0.0519924-0.8303175,0.2906437-1.0221105,1.1302834-0.9268894
		c4.1028938,0.4652915,6.6559429,3.9023914,5.9010143,7.963244c-0.2866535,1.5419502-0.9622574,2.9039354-2.0243969,4.0603962
		C28.5329533,16.976614,27.5753708,17.717907,26.1727486,17.3845272z"/>
	<path class="st0" d="M25.1401711,26.5821533c0.4377594-0.0586948,0.7948895-0.106575,1.2340031-0.1654549
		c0.110075,0.8963642,0.2153625,1.7537689,0.3305607,2.6918449c-0.4068241,0.0572968-0.7794247,0.1097775-1.2407742,0.1747532
		C25.3565559,28.3873081,25.2535305,27.5278339,25.1401711,26.5821533z"/>
</g>
</svg>
