<?xml version="1.0" encoding="utf-8"?>
<!-- Generator: Adobe Illustrator 25.4.1, SVG Export Plug-In . SVG Version: 6.00 Build 0)  -->
<svg version="1.1" id="Layer_1" xmlns="http://www.w3.org/2000/svg" xmlns:xlink="http://www.w3.org/1999/xlink" x="0px" y="0px"
	 width="100px" height="100px" viewBox="0 0 100 100" style="enable-background:new 0 0 100 100;" xml:space="preserve">
<style type="text/css">
	.st0{fill:#0078B9;}
</style>
<g>
	<path class="st0" d="M87.1373978,76.5887833c-2.6465836-1.6960907-5.2943497-3.3929443-7.9933167-5.122612
		c0.1318817-0.1900787,0.2511749-0.3644485,0.3729095-0.5371017c1.5152206-2.1490097,2.9026947-4.3704529,3.8484192-6.8392334
		c0.4504395-1.1758575,0.7856903-2.3801651,0.769371-3.6536026c-0.0226669-1.7690506-0.8292084-3.029129-2.4655838-3.7372704
		c-1.4250259-0.6166954-2.9205551-0.9753151-4.4552155-1.1581879c-4.5424271-0.5412979-8.9862289-0.1595497-13.2873993,1.4802437
		c-0.2518768,0.0960159-0.4975014,0.2084465-0.8039742,0.3376656c3.2038536-6.7399902,2.2673759-12.8053474-2.766304-18.2695503
		c0.1269989,0.0244942,0.2635078,0.0418396,0.3950653,0.0774879c5.8774147,1.5927849,11.7536812,3.1898422,17.6320305,4.7792015
		c1.2135849,0.328125,2.4409409,0.5704422,3.7102966,0.3966331c1.5894775-0.2176437,2.4699249-1.1719437,2.5611343-2.7810135
		c0.0831833-1.4674568-0.2869644-2.8559799-0.7779465-4.214325c-1.5499878-4.2882309-3.9014816-8.0957661-6.9398117-11.4866314
		c-0.1231155-0.137413-0.2441177-0.2767315-0.4079361-0.4626446c2.4342041-2.0405846,4.8516464-4.067112,7.2675781-6.0923786
		C98.5701523,35.0207787,99.5049057,59.9897041,87.1373978,76.5887833z"/>
	<path class="st0" d="M16.1044312,19.2567768c2.4809704,2.0798969,4.8891468,4.0987663,7.28932,6.1109276
		c-0.8903046,1.1174526-1.79459,2.1691036-2.6067276,3.2876625c-2.302412,3.1711063-4.1626949,6.5722218-5.1753616,10.3879871
		c-0.2663584,1.003643-0.4067936,2.0285683-0.1992474,3.0642853c0.2561054,1.2780457,1.0404205,2.010067,2.3217793,2.2158813
		c1.3034477,0.209362,2.565258-0.0323219,3.8116436-0.3682671c5.8950539-1.5889435,11.7870178-3.1893387,17.6802368-4.7851067
		c0.1293373-0.0350227,0.2604446-0.0634995,0.4325027-0.1051445c-5.0518608,5.4653778-5.9821815,11.5266533-2.7990265,18.2715378
		c-0.1538429-0.0593529-0.2998428-0.1160011-0.4460716-0.1720428c-5.4764481-2.0987854-11.0537262-2.459053-16.7360649-0.9624023
		c-0.3422375,0.0901375-0.6753845,0.2209282-1.0047665,0.3527679c-2.2144203,0.8863449-3.1278868,2.5022812-2.7751026,4.8631134
		c0.3393078,2.2706337,1.3116417,4.2945404,2.4553795,6.2419815c0.7525024,1.2812958,1.5856876,2.5152054,2.4211693,3.8308411
		c-2.6172371,1.6852493-5.256403,3.3846207-7.9631033,5.1274719C7.4770117,69.0753937,4.5676837,60.7089424,4.311799,51.4840584
		C3.9716129,39.2200127,8.0005951,28.5137043,16.1044312,19.2567768z"/>
	<path class="st0" d="M79.4161072,72.8910065c2.0653534,1.3240967,4.1402054,2.6542892,6.2167587,3.9855728
		c-16.9856033,23.0969315-52.8929443,24.3123016-71.292923,0.0149155c2.0722132-1.3364334,4.1405458-2.6703644,6.2034731-4.0008087
		c7.6543369,9.2405624,17.3793278,14.2924118,29.4317837,14.2940826
		C62.0272903,87.1864243,71.7659836,82.1646652,79.4161072,72.8910065z"/>
	<path class="st0" d="M17.6999092,19.1916275C34.4944496,1.0424583,64.6102753,0.4096544,82.3056335,19.1812325
		c-1.9030685,1.5915222-3.8038177,3.1811028-5.6991959,4.766201c-7.4148636-7.2859135-16.241478-11.1399765-26.620842-11.1439867
		c-10.3818436-0.0040112-19.2007828,3.8700418-26.6324158,11.1439676
		C21.4724674,22.3652744,19.5867538,20.7789268,17.6999092,19.1916275z"/>
	<path class="st0" d="M50.0272293,36.0823174c7.6797638,0.0082588,13.9000359,6.262825,13.8900795,13.9666595
		c-0.0099144,7.6763992-6.2671547,13.8861961-13.9793968,13.8734016c-7.6764832-0.0127373-13.8812332-6.27425-13.8609467-13.987751
		C36.0970993,42.2800407,42.346962,36.0740547,50.0272293,36.0823174z M49.9721451,39.5956497
		c-5.7536278,0.0120926-10.389679,4.664463-10.3826485,10.4192009c0.0070534,5.7747192,4.6297798,10.3968239,10.3956413,10.3942451
		c5.7857552-0.0025864,10.4388809-4.6622505,10.418045-10.4326668
		C60.3824425,44.2330589,55.7104645,39.5835915,49.9721451,39.5956497z"/>
	<path class="st0" d="M37.1948929,83.941597c1.0282478-0.1144638,2.0039368-0.1305161,2.9342766-0.344101
		c2.7115669-0.6225128,4.1646576-2.4952164,4.7830772-5.098793c0.5291634-2.2278137,0.4042358-4.4727097,0.0602951-6.711174
		c-0.4521904-2.9429932-1.3117256-5.768364-2.5069771-8.4934044c-0.0455971-0.1039505-0.0848694-0.2106781-0.1588402-0.3954315
		c5.144516,2.7827339,10.2269974,2.776165,15.3774338,0.0022621c-0.1187897,0.2900047-0.2107391,0.5176392-0.3050652,0.7442856
		c-1.5871811,3.8135834-2.680954,7.7433853-2.6165161,11.9107742c0.0173569,1.1226654,0.1604462,2.2719421,0.4455643,3.3564911
		c0.8051453,3.0626831,3.0195999,4.7768173,6.1847038,4.9207611c0.4500656,0.0204773,0.9018631,0.0028305,1.3524094,0.063446
		C54.2516022,86.9414444,45.7551155,86.916153,37.1948929,83.941597z"/>
	<path class="st0" d="M49.9882736,53.7296791c-1.5399323-0.000103-3.0798836,0.0040283-4.6198006-0.0013809
		c-1.2829933-0.004509-1.9693947-0.6991577-1.971035-1.9827995c-0.0015411-1.2014847-0.0051994-2.4029999,0.0011711-3.604454
		c0.0059357-1.1192856,0.7151604-1.8570175,1.834343-1.8614197c3.1305885-0.0123291,6.2612953-0.0134201,9.3918724-0.0002785
		c1.2724648,0.0053444,1.939518,0.6974525,1.9437103,1.9575539c0.003933,1.1845512,0.0049934,2.3691483-0.0003395,3.5536842
		c-0.0056458,1.2529907-0.6961899,1.9352875-1.9601135,1.9383202
		C53.0681496,53.7325974,51.5282097,53.7297783,49.9882736,53.7296791z"/>
</g>
</svg>
