<?xml version="1.0" encoding="utf-8"?>
<!-- Generator: Adobe Illustrator 25.4.1, SVG Export Plug-In . SVG Version: 6.00 Build 0)  -->
<svg version="1.1" id="Layer_1" xmlns="http://www.w3.org/2000/svg" xmlns:xlink="http://www.w3.org/1999/xlink" x="0px" y="0px"
	 width="100px" height="100px" viewBox="0 0 100 100" style="enable-background:new 0 0 100 100;" xml:space="preserve">
<style type="text/css">
	.st0{fill:none;stroke:#0078b9;stroke-width:6;stroke-linecap:round;stroke-linejoin:round;stroke-miterlimit:10;}
</style>
<g>
	<path class="st0" d="M77.8329086,4H22.1670914c-1.9971008,0-3.6160717,1.6189704-3.6160717,3.6160712V96h62.8979645V7.6160712
		C81.4489822,5.6189704,79.8300095,4,77.8329086,4z"/>
	<path class="st0" d="M66.6803436,14.8072224H33.3196564c-0.897892,0-1.6257782,0.7278862-1.6257782,1.6257782v9.4106083
		c0,0.897892,0.7278862,1.6257782,1.6257782,1.6257782h33.3606873c0.8978958,0,1.6257782-0.7278862,1.6257782-1.6257782v-9.4106083
		C68.3061218,15.5351086,67.5782394,14.8072224,66.6803436,14.8072224z"/>
	<path class="st0" d="M49.9998817,46.2448997c-2.2678413,4.0409241-7.8029785,14.1177368-10.1686249,21.055851
		c-0.1256142,0.3682175-0.3925323,1.3721008-0.3925323,2.6994934c0,5.5133286,4.7284431,9.9826813,10.5611572,9.9826813
		c5.8329506,0,10.5613937-4.4693527,10.5613937-9.9826813c0-1.3258209-0.2666779-2.3283615-0.391819-2.6957855
		C57.8058281,60.3687019,52.2672462,50.2852592,49.9998817,46.2448997z"/>
</g>
</svg>
