<?xml version="1.0" encoding="utf-8"?>
<!-- Generator: Adobe Illustrator 25.4.1, SVG Export Plug-In . SVG Version: 6.00 Build 0)  -->
<svg version="1.1" id="Layer_1" xmlns="http://www.w3.org/2000/svg" xmlns:xlink="http://www.w3.org/1999/xlink" x="0px" y="0px"
	 width="100px" height="100px" viewBox="0 0 100 100" style="enable-background:new 0 0 100 100;" xml:space="preserve">
<style type="text/css">
	.st0{fill:none;stroke:#0078b9;stroke-width:6;stroke-linecap:round;stroke-linejoin:round;stroke-miterlimit:10;}
</style>
<g>
	<g>
		<path class="st0" d="M93.9292984,63.054615l-0.5084076,0.5084038c-2.8650208,2.8650284-7.5101395,2.8650284-10.3751678,0.0000038
			l-6.9677582-6.967762c-2.8650284-2.8650246-2.8650284-7.5101433-0.0000076-10.3751678l0.5084076-0.5084038
			c2.8650208-2.8650246,7.5101471-2.8650246,10.3751678-0.0000038l6.9677658,6.967762
			C96.7943192,55.5444679,96.7943192,60.1895905,93.9292984,63.054615z"/>
		<path class="st0" d="M63.5630188,93.4208908l-0.5084038,0.5084076c-2.8650246,2.8650208-7.5101433,2.8650208-10.3751678,0
			l-6.9677582-6.9677582c-2.8650246-2.8650284-2.8650284-7.5101471-0.0000076-10.3751678l0.5084038-0.5084076
			c2.8650246-2.8650284,7.5101471-2.8650284,10.3751717-0.0000076l6.9677658,6.9677658
			C66.4280472,85.9107437,66.4280472,90.5558701,63.5630188,93.4208908z"/>
		<line class="st0" x1="60.0791397" y1="79.5618439" x2="79.5618439" y2="60.0791435"/>
	</g>
	<g>
		<path class="st0" d="M54.2883148,23.4136333l-0.5084038,0.5084038c-2.8650246,2.8650246-7.5101471,2.8650246-10.3751717,0.0000019
			l-6.967762-6.9677601c-2.8650246-2.8650246-2.8650246-7.5101461,0-10.3751698L36.945385,6.070704
			c2.8650208-2.8650227,7.5101433-2.8650224,10.3751678,0.0000005l6.967762,6.9677591
			C57.1533394,15.9034872,57.1533394,20.5486088,54.2883148,23.4136333z"/>
		<path class="st0" d="M23.9220428,53.7799034l-0.5084038,0.5084076c-2.8650227,2.8650246-7.5101471,2.8650284-10.3751726,0.0000038
			l-6.967762-6.967762c-2.8650239-2.8650208-2.8650253-7.5101433-0.0000029-10.3751678l0.5084043-0.5084038
			c2.8650231-2.8650246,7.5101457-2.8650246,10.3751698-0.0000038l6.967762,6.967762
			C26.7870598,46.2697601,26.7870636,50.9148788,23.9220428,53.7799034z"/>
		<line class="st0" x1="20.4381561" y1="39.9208603" x2="39.9208565" y2="20.4381599"/>
	</g>
	<path class="st0" d="M56.3506393,49.3383942v1.3232117c0,3.1419678-2.5470657,5.6890335-5.6890335,5.6890335h-1.3232117
		c-3.1419678,0-5.6890335-2.5470657-5.6890335-5.6890335v-1.3232117c0-3.1419678,2.5470657-5.6890335,5.6890335-5.6890335h1.3232117
		C53.8035736,43.6493607,56.3506393,46.1964264,56.3506393,49.3383942z"/>
	<path class="st0" d="M43.6493607,43.6493607L30.1795082,30.1795082L43.6493607,43.6493607z"/>
	<path class="st0" d="M56.3506393,56.3506393L69.820488,69.820488L56.3506393,56.3506393z"/>
</g>
</svg>
