<?xml version="1.0" encoding="utf-8"?>
<!-- Generator: Adobe Illustrator 25.4.1, SVG Export Plug-In . SVG Version: 6.00 Build 0)  -->
<svg version="1.1" id="Layer_1" xmlns="http://www.w3.org/2000/svg" xmlns:xlink="http://www.w3.org/1999/xlink" x="0px" y="0px"
	 width="100px" height="100px" viewBox="0 0 100 100" style="enable-background:new 0 0 100 100;" xml:space="preserve">
<style type="text/css">
	.st0{fill:none;stroke:#0078b9;stroke-width:6;stroke-linecap:round;stroke-linejoin:round;stroke-miterlimit:10;}
</style>
<g>
	<g>
		<path class="st0" d="M67.6034698,62.1725426H32.396534c-1.3905754,0-2.5178585-1.127285-2.5178585-2.5178566V6.5178571
			C29.8786755,5.1272831,31.0059586,4,32.396534,4h35.2069359c1.3905716,0,2.5178528,1.1272831,2.5178528,2.5178571V59.654686
			C70.1213226,61.0452576,68.9940414,62.1725426,67.6034698,62.1725426z"/>
		<rect x="38.6444016" y="16.0528717" class="st0" width="22.7111988" height="11.6544304"/>
		<line class="st0" x1="61.3555984" y1="50.0200577" x2="38.6444016" y2="50.0200577"/>
		<path class="st0" d="M29.8786755,24.4201565h-9.4629993H29.8786755z"/>
		<path class="st0" d="M70.1213226,24.4201565h9.4629974H70.1213226z"/>
	</g>
	<g>
		<path class="st0" d="M35.2084694,75.7286224c8.1691322,8.1688995,21.413929,8.1688995,29.5828362,0"/>
		<path class="st0" d="M25.2067242,85.7303619c13.6928463,13.6928482,35.8934784,13.6928482,49.5865479,0"/>
	</g>
</g>
</svg>
