<?xml version="1.0" encoding="utf-8"?>
<!-- Generator: Adobe Illustrator 25.4.1, SVG Export Plug-In . SVG Version: 6.00 Build 0)  -->
<svg version="1.1" id="Layer_1" xmlns="http://www.w3.org/2000/svg" xmlns:xlink="http://www.w3.org/1999/xlink" x="0px" y="0px"
	 width="100px" height="100px" viewBox="0 0 100 100" style="enable-background:new 0 0 100 100;" xml:space="preserve">
<style type="text/css">
	.st0{fill:none;stroke:#0078b9;stroke-width:6;stroke-linecap:round;stroke-linejoin:round;stroke-miterlimit:10;}
</style>
<g>
	<path class="st0" d="M44.5461731,34.766674c-1.7748756,3.1142426-3.7141953,7.7331657-3.0602036,13.0053596
		c0.8227959,6.6307297,5.0983086,9.0587311,6.1201172,15.5553818c0.5249977,3.3376617,0.2710686,8.2571487-3.5700912,14.7904053"/>
	<path class="st0" d="M32.6458664,34.766674c-1.7748775,3.1142426-3.7141972,7.7331657-3.0602036,13.0053596
		c0.822794,6.6307297,5.0983047,9.0587311,6.1201172,15.5553818c0.5249977,3.3376617,0.2710686,8.2571487-3.5700912,14.7904053"/>
	<path class="st0" d="M20.7455578,34.766674c-1.7748775,3.1142426-3.7141972,7.7331657-3.0602036,13.0053596
		c0.822794,6.6307297,5.0983067,9.0587311,6.1201172,15.5553818c0.5249958,3.3376617,0.2710686,8.2571487-3.5700932,14.7904053"/>
	<path class="st0" d="M4,68.6824112c19.9754333-0.1274033,39.9511604-0.2549438,59.9265938-0.3823471
		c5.7937202-19.0520477,11.5872154-38.1042023,17.3808784-57.1562767c1.3262253-4.3611999,6.2010803-6.5440054,10.3376541-4.6288881
		l0.0000153,0.0000067c3.4049606,1.5763998,5.1233673,5.4244938,4.0244598,9.0121374
		c-8.0309067,26.2187195-16.062027,52.4373283-24.0928955,78.6560669H15.475297L4,68.6824112z"/>
</g>
</svg>
