<?xml version="1.0" encoding="utf-8"?>
<!-- Generator: Adobe Illustrator 25.4.1, SVG Export Plug-In . SVG Version: 6.00 Build 0)  -->
<svg version="1.1" id="Layer_1" xmlns="http://www.w3.org/2000/svg" xmlns:xlink="http://www.w3.org/1999/xlink" x="0px" y="0px"
	 width="100px" height="100px" viewBox="0 0 100 100" style="enable-background:new 0 0 100 100;" xml:space="preserve">
<style type="text/css">
	.st0{fill:none;stroke:#0078b9;stroke-width:6;stroke-linecap:round;stroke-linejoin:round;stroke-miterlimit:10;}
</style>
<g>
	<path class="st0" d="M61.6880608,4H38.3119392c-3.4550552,0-6.2556572,2.8008537-6.2556572,6.2556562
		s2.800602,6.2556562,6.2556572,6.2556562h23.3761215c3.4550514,0,6.2556572-2.8008537,6.2556572-6.2556562
		S65.1431122,4,61.6880608,4z"/>
	<path class="st0" d="M54.8199692,40.8752365h-9.6399384c-5.7252426,0-10.3664093,4.6411667-10.3664093,10.3664093v14.4459
		h30.372757v-14.4459C65.1863785,45.5164032,60.5452118,40.8752365,54.8199692,40.8752365z"/>
	<rect x="30.6252747" y="78.8572083" class="st0" width="38.7494392" height="16.5626888"/>
	<path class="st0" d="M55.8017693,27.7054749H44.1982307c-14.0865421,0-25.5057716,11.4194794-25.5057716,25.5057716v13.1955223
		c0,6.8763428,5.5741997,12.4505463,12.4502945,12.4505463h37.7144928c6.8760986,0,12.4502945-5.5742035,12.4502945-12.4505463
		V53.2112465C81.3075409,39.1249542,69.8880615,27.7054749,55.8017693,27.7054749z"/>
	<rect x="40.7579918" y="16.5112762" class="st0" width="18.4840012" height="11.1942682"/>
	<path class="st0" d="M31.1427536,78.8573151c-5.3471298,0-9.8690071-3.3882828-11.6325455-8.1212311
		c-4.3303194-0.6449432-8.7456646-0.7557297-11.0538683,1.9658508c-3.2732477,3.8594284-0.2105646,10.9353333,0.3291006,12.1822128
		c3.4943142,8.0727081,11.7898426,10.3516541,12.5055599,10.5357132c4.0539856,1.0420685,7.5165405,0.4496384,9.3343449,0"/>
	<path class="st0" d="M69.3746567,95.4198608c1.8178024,0.4498825,5.2803574,1.0423203,9.334343,0
		c0.7157211-0.1840591,9.0112457-2.4630051,12.5055618-10.5357132c0.5396652-1.2466278,3.6023483-8.3225327,0.3291016-12.1819611
		c-2.3082047-2.7215805-6.7240524-2.6107941-11.0541229-1.9658508c-1.7635345,4.7326965-6.2851639,8.1209793-11.6322937,8.1209793"
		/>
</g>
</svg>
