<?xml version="1.0" encoding="utf-8"?>
<!-- Generator: Adobe Illustrator 25.4.1, SVG Export Plug-In . SVG Version: 6.00 Build 0)  -->
<svg version="1.1" id="Layer_1" xmlns="http://www.w3.org/2000/svg" xmlns:xlink="http://www.w3.org/1999/xlink" x="0px" y="0px"
	 width="100px" height="100px" viewBox="0 0 100 100" style="enable-background:new 0 0 100 100;" xml:space="preserve">
<style type="text/css">
	.st0{fill:none;stroke:#0078b9;stroke-width:6;stroke-linecap:round;stroke-linejoin:round;stroke-miterlimit:10;}
</style>
<g>
	<circle class="st0" cx="50" cy="50" r="46.6071434"/>
	<path class="st0" d="M85.6558151,80.0113373C75.1608505,73.9596863,62.9850159,70.496666,50,70.496666
		s-25.1608467,3.4630508-35.6558151,9.5146942"/>
	<path class="st0" d="M50,13.7876997v8.6058187V13.7876997z"/>
	<path class="st0" d="M24.3940372,24.3940372l6.0852318,6.0852318L24.3940372,24.3940372z"/>
	<path class="st0" d="M13.7876978,50h8.6058187H13.7876978z"/>
	<path class="st0" d="M86.2122955,50h-8.6058121H86.2122955z"/>
	<path class="st0" d="M75.6059723,24.3940411c0,0-30.7139854,18.5435276-31.6911926,19.5207386
		c-3.3607826,3.3607826-3.3607826,8.8096733,0,12.1704521c3.3607826,3.3607826,8.8096695,3.3607826,12.1704521,0
		C57.0624428,55.1080208,75.6059723,24.3940411,75.6059723,24.3940411z"/>
</g>
</svg>
