<?xml version="1.0" encoding="utf-8"?>
<!-- Generator: Adobe Illustrator 25.4.1, SVG Export Plug-In . SVG Version: 6.00 Build 0)  -->
<svg version="1.1" id="Layer_1" xmlns="http://www.w3.org/2000/svg" xmlns:xlink="http://www.w3.org/1999/xlink" x="0px" y="0px"
	 width="100px" height="100px" viewBox="0 0 100 100" style="enable-background:new 0 0 100 100;" xml:space="preserve">
<style type="text/css">
	.st0{fill:none;stroke:#0078b9;stroke-width:6;stroke-linecap:round;stroke-linejoin:round;stroke-miterlimit:10;}
</style>
<g>
	<circle class="st0" cx="50" cy="50" r="18.7267761"/>
	<g>
		<line class="st0" x1="50" y1="31.2732239" x2="50" y2="4"/>
		<polyline class="st0" points="59.7404366,5.3196721 50,15.0601091 40.2595634,5.3196721 		"/>
	</g>
	<g>
		<line class="st0" x1="50" y1="68.7267761" x2="50" y2="96"/>
		<polyline class="st0" points="59.7404366,94.6803284 50,84.939888 40.2595634,94.6803284 		"/>
	</g>
	<g>
		<line class="st0" x1="33.782135" y1="40.6366119" x2="10.1628313" y2="27"/>
		<polyline class="st0" points="16.1759205,19.224371 19.7411671,32.530056 6.4354825,36.0953026 		"/>
	</g>
	<g>
		<line class="st0" x1="66.217865" y1="59.3633881" x2="89.8371658" y2="73"/>
		<polyline class="st0" points="93.5645142,63.9046974 80.2588348,67.4699478 83.8240814,80.7756271 		"/>
	</g>
	<g>
		<line class="st0" x1="33.782135" y1="59.3633881" x2="10.1628313" y2="73"/>
		<polyline class="st0" points="6.4354825,63.9046974 19.7411671,67.4699478 16.1759205,80.7756271 		"/>
	</g>
	<g>
		<line class="st0" x1="66.217865" y1="40.6366119" x2="89.8371658" y2="27"/>
		<polyline class="st0" points="83.8240814,19.224371 80.2588348,32.530056 93.5645142,36.0953026 		"/>
	</g>
</g>
</svg>
