<?xml version="1.0" encoding="utf-8"?>
<!-- Generator: Adobe Illustrator 25.4.1, SVG Export Plug-In . SVG Version: 6.00 Build 0)  -->
<svg version="1.1" id="Layer_1" xmlns="http://www.w3.org/2000/svg" xmlns:xlink="http://www.w3.org/1999/xlink" x="0px" y="0px"
	 width="100px" height="100px" viewBox="0 0 100 100" style="enable-background:new 0 0 100 100;" xml:space="preserve">
<style type="text/css">
	.st0{fill:none;stroke:#0078b9;stroke-width:6;stroke-linecap:round;stroke-linejoin:round;stroke-miterlimit:10;}
</style>
<g>
	<path class="st0" d="M89.7558975,53.1221123c0,21.9565773-17.7993164,39.7559013-39.7558975,39.7559013
		s-39.7559013-17.799324-39.7559013-39.7559013"/>
	<path class="st0" d="M66.3491211,73.6988678c-7.563633,11.7394867-25.1326828,11.7478485-32.6982422,0"/>
	<path class="st0" d="M4,53.1220589C4,27.8871784,24.765049,7.1219878,49.9999275,7.1219878S96,27.8871784,96,53.1220589
		c-2.6073532,0.6187935-12.1643906,2.5532379-21.6624985-2.7419357
		c-9.6267395-5.3668556-15.4807854-16.0906525-15.4184532-27.8525753
		c-1.5707855,4.1012154-6.6540298,15.7658138-19.3972664,23.8736134C23.7998829,56.4041672,7.7005868,53.8150864,4,53.1220589z"/>
	<g>
		<circle class="st0" cx="38.3947601" cy="61.4639816" r="3.0333424"/>
		<circle class="st0" cx="61.6052399" cy="61.4639816" r="3.0333424"/>
	</g>
</g>
</svg>
