<?xml version="1.0" encoding="utf-8"?>
<!-- Generator: Adobe Illustrator 25.4.1, SVG Export Plug-In . SVG Version: 6.00 Build 0)  -->
<svg version="1.1" id="Layer_1" xmlns="http://www.w3.org/2000/svg" xmlns:xlink="http://www.w3.org/1999/xlink" x="0px" y="0px"
	 width="100px" height="100px" viewBox="0 0 100 100" style="enable-background:new 0 0 100 100;" xml:space="preserve">
<style type="text/css">
	.st0{fill:none;stroke:#0078b9;stroke-width:6;stroke-linecap:round;stroke-linejoin:round;stroke-miterlimit:10;}
</style>
<g>
	<path class="st0" d="M44.4781532,94.1867294c-2.6330185-0.2006912-16.9585915-1.4882507-20.3248978-9.9017868
		c-1.3469372-3.3664551,2.1176357-10.5391846,9.1201096-24.7546196
		c5.0332756-10.2181129,7.2476921-13.6282082,11.4654465-15.1133423c4.8174477-1.6963654,9.4440002,0.1061325,10.8037033,0.6359138
		c2.463501,0.9598083,6.7608147,3.2632866,15.7749367,19.9494934c5.0264511,9.3046188,7.5246811,14.0218658,6.774765,17.197876
		c-2.5065384,10.6177063-22.5538559,13.1837769-23.4516182,13.2893143"/>
	<ellipse class="st0" cx="36.7912025" cy="20.8350296" rx="10.5532675" ry="14.9830341"/>
	<ellipse class="st0" cx="64.3401947" cy="19.4934521" rx="10.5532675" ry="14.9830341"/>
	<ellipse class="st0" cx="85.4467316" cy="43.7058563" rx="10.5532675" ry="14.9830341"/>
	<ellipse class="st0" cx="14.5532675" cy="46.9058113" rx="10.5532675" ry="14.9830341"/>
</g>
</svg>
