<?xml version="1.0" encoding="utf-8"?>
<!-- Generator: Adobe Illustrator 25.4.1, SVG Export Plug-In . SVG Version: 6.00 Build 0)  -->
<svg version="1.1" id="Layer_1" xmlns="http://www.w3.org/2000/svg" xmlns:xlink="http://www.w3.org/1999/xlink" x="0px" y="0px"
	 width="100px" height="100px" viewBox="0 0 100 100" style="enable-background:new 0 0 100 100;" xml:space="preserve">
<style type="text/css">
	.st0{fill:none;stroke:#0078b9;stroke-width:6;stroke-linecap:round;stroke-linejoin:round;stroke-miterlimit:10;}
</style>
<g>
	<circle class="st0" cx="41.0436096" cy="23.1544571" r="11.0384512"/>
	<circle class="st0" cx="19.0656414" cy="72.8182831" r="15.0656404"/>
	
		<ellipse transform="matrix(0.229752 -0.9732492 0.9732492 0.229752 -8.5308638 134.8574066)" class="st0" cx="80.9343109" cy="72.8182983" rx="15.0656967" ry="15.0656157"/>
	<path class="st0" d="M52.0820618,23.1544571c1.8366661,2.6065693,5.8777428,9.1038933,6.1712685,18.2577477
		c0.1092148,3.4033394,0.3157425,9.8437309-3.4708748,15.8305473c-3.8823318,6.1381531-8.4850388,6.3018379-8.9233665,10.7080383
		c-0.308773,3.103714,1.8337631,5.8084641,6.1189842,11.2179642c2.9067726,3.6695557,5.6802177,6.3828735,7.6484718,8.1584015"/>
	<path class="st0" d="M58.2533302,41.4122047c-2.1326637,1.5801811-5.2503204,3.5054436-9.3348236,4.8674774
		c-6.8377571,2.28022-12.8167305,1.7920799-16.0620537,1.2748909"/>
</g>
</svg>
