<?xml version="1.0" encoding="utf-8"?>
<!-- Generator: Adobe Illustrator 25.4.1, SVG Export Plug-In . SVG Version: 6.00 Build 0)  -->
<svg version="1.1" id="Layer_1" xmlns="http://www.w3.org/2000/svg" xmlns:xlink="http://www.w3.org/1999/xlink" x="0px" y="0px"
	 width="100px" height="100px" viewBox="0 0 100 100" style="enable-background:new 0 0 100 100;" xml:space="preserve">
<style type="text/css">
	.st0{fill:none;stroke:#0078b9;stroke-width:6;stroke-linecap:round;stroke-linejoin:round;stroke-miterlimit:10;}
</style>
<g>
	<path class="st0" d="M87.2295761,92.3365097H12.7704268C7.9266539,92.3365097,4,88.4098587,4,83.5660858v-55.25
		c0-4.8437729,3.9266539-8.7704277,8.7704268-8.7704277h74.4591522C92.073349,19.5456581,96,23.4723129,96,28.3160858v55.25
		C96,88.4098587,92.073349,92.3365097,87.2295761,92.3365097z"/>
	<g>
		<path class="st0" d="M18.5853653,7.663487V24.806345V7.663487z"/>
		<path class="st0" d="M50,7.663487V24.806345V7.663487z"/>
		<path class="st0" d="M81.4146347,7.663487V24.806345V7.663487z"/>
	</g>
	<circle class="st0" cx="40.2556458" cy="58.7021637" r="2.1348238"/>
	<circle class="st0" cx="59.7443542" cy="58.7021637" r="2.1348238"/>
	<circle class="st0" cx="79.2330627" cy="58.7021637" r="2.1348238"/>
	<circle class="st0" cx="20.7669373" cy="74.8457947" r="2.1348238"/>
	<circle class="st0" cx="40.2556458" cy="74.8457947" r="2.1348238"/>
	<circle class="st0" cx="59.7443542" cy="74.8457947" r="2.1348238"/>
	<circle class="st0" cx="79.2330627" cy="74.8457947" r="2.1348238"/>
	<line class="st0" x1="4" y1="39.3777733" x2="96" y2="39.3777733"/>
</g>
</svg>
