<?xml version="1.0" encoding="utf-8"?>
<!-- Generator: Adobe Illustrator 25.4.1, SVG Export Plug-In . SVG Version: 6.00 Build 0)  -->
<svg version="1.1" id="Layer_1" xmlns="http://www.w3.org/2000/svg" xmlns:xlink="http://www.w3.org/1999/xlink" x="0px" y="0px"
	 width="100px" height="100px" viewBox="0 0 100 100" style="enable-background:new 0 0 100 100;" xml:space="preserve">
<style type="text/css">
	.st0{fill:none;stroke:#0078b9;stroke-width:6;stroke-linecap:round;stroke-linejoin:round;stroke-miterlimit:10;}
</style>
<g>
	<g>
		<path class="st0" d="M57.1294022,64.7439194H20.1436348c-1.3905754,0-2.5178566-1.1272812-2.5178566-2.5178528v-55.70821
			C17.6257782,5.1272831,18.7530594,4,20.1436348,4h36.9857674c1.3905716,0,2.5178566,1.1272831,2.5178566,2.5178571v55.70821
			C59.6472588,63.6166382,58.5199738,64.7439194,57.1294022,64.7439194z"/>
		<rect x="26.7789707" y="16.5856419" class="st0" width="23.7150936" height="12.1695871"/>
		<line class="st0" x1="50.4940643" y1="52.0542679" x2="26.7789707" y2="52.0542679"/>
		<path class="st0" d="M17.6257782,25.3227806H7.7444882H17.6257782z"/>
		<path class="st0" d="M59.6472588,25.3227806h9.8812904H59.6472588z"/>
	</g>
	<g>
		<path class="st0" d="M77.4855881,59.3872261c0,12.0634727-9.7793808,21.8428459-21.8428535,21.8428459"/>
		<path class="st0" d="M92.2555084,59.3872261C92.2555084,79.6079025,75.8634109,96,55.6427345,96"/>
	</g>
</g>
</svg>
