<?xml version="1.0" encoding="utf-8"?>
<!-- Generator: Adobe Illustrator 25.4.1, SVG Export Plug-In . SVG Version: 6.00 Build 0)  -->
<svg version="1.1" id="Layer_1" xmlns="http://www.w3.org/2000/svg" xmlns:xlink="http://www.w3.org/1999/xlink" x="0px" y="0px"
	 width="100px" height="100px" viewBox="0 0 100 100" style="enable-background:new 0 0 100 100;" xml:space="preserve">
<style type="text/css">
	.st0{fill:none;stroke:#0078b9;stroke-width:6;stroke-linecap:round;stroke-linejoin:round;stroke-miterlimit:10;}
</style>
<g>
	<path class="st0" d="M53.1330414,49.6428223c-1.7737961,3.160614-6.1031036,11.0421982-7.9533958,16.4688492
		c-0.0982513,0.288002-0.3070221,1.0731888-0.3070221,2.111412c0,4.3122559,3.6983566,7.8079605,8.2604179,7.8079605
		c4.5622482,0,8.260601-3.4957047,8.260601-7.8079605c0-1.0369949-0.2085838-1.8211288-0.3064613-2.1085129
		C59.2384682,60.6897659,54.9064636,52.8029938,53.1330414,49.6428223z"/>
	<path class="st0" d="M27.749506,23.2820168H8.1782427V17.124754c0-5.4044485,4.3811722-9.7856216,9.7856226-9.7856216h0.0000191
		c5.4044495,0,9.7856216,4.3811727,9.7856216,9.7856216V23.2820168z"/>
	<path class="st0" d="M84.2266617,33.1275635L66.0124588,7.3390613H42.2630997v25.7885017H4v41.2386169
		c0,10.10392,8.1908407,18.2947617,18.2947559,18.2947617H96V33.1275635H84.2266617z"/>
	<polygon class="st0" points="72.4151535,34.0785294 63.3659515,21.2662487 51.566761,21.2662487 51.566761,34.0785294 	"/>
</g>
</svg>
