<?xml version="1.0" encoding="utf-8"?>
<!-- Generator: Adobe Illustrator 25.4.1, SVG Export Plug-In . SVG Version: 6.00 Build 0)  -->
<svg version="1.1" id="Layer_1" xmlns="http://www.w3.org/2000/svg" xmlns:xlink="http://www.w3.org/1999/xlink" x="0px" y="0px"
	 width="100px" height="100px" viewBox="0 0 100 100" style="enable-background:new 0 0 100 100;" xml:space="preserve">
<style type="text/css">
	.st0{fill:none;stroke:#0078b9;stroke-width:6;stroke-linecap:round;stroke-linejoin:round;stroke-miterlimit:10;}
</style>
<g>
	<circle class="st0" cx="46.1230278" cy="45.7001076" r="15.1873779"/>
	<path class="st0" d="M80.9664383,55.6925697c0,14.1919441-11.5048447,25.6967888-25.696785,25.6967888"/>
	<path class="st0" d="M95.5770798,55.6925697C95.5770798,77.9537506,77.5308304,96,55.2696533,96"/>
	<path class="st0" d="M50.3153381,20.0296001L62.7010956,7.6438437c4.8584595-4.858458,12.7355728-4.858458,17.5940323,0
		l3.8841629,3.8841639c4.8584595,4.8584576,4.8584595,12.7355747,0,17.5940323L71.7935333,41.5077972"/>
	<path class="st0" d="M41.9307137,71.3706131L29.5449581,83.7563705c-4.8584576,4.8584595-12.7355747,4.8584595-17.5940323,0
		L8.066762,79.8722076c-4.8584585-4.8584595-4.8584585-12.7355728,0-17.5940323l12.3857565-12.3857574"/>
</g>
</svg>
