<?xml version="1.0" encoding="utf-8"?>
<!-- Generator: Adobe Illustrator 25.4.1, SVG Export Plug-In . SVG Version: 6.00 Build 0)  -->
<svg version="1.1" id="Layer_1" xmlns="http://www.w3.org/2000/svg" xmlns:xlink="http://www.w3.org/1999/xlink" x="0px" y="0px"
	 width="100px" height="100px" viewBox="0 0 100 100" style="enable-background:new 0 0 100 100;" xml:space="preserve">
<style type="text/css">
	.st0{fill:none;stroke:#0078b9;stroke-width:6;stroke-linecap:round;stroke-linejoin:round;stroke-miterlimit:10;}
	.st1{fill:#0078b9;}
</style>
<g>
	<path class="st0" d="M35.79216,83.361618h-1.1306534c-5.8480206,0-10.5887775-4.7407608-10.5887775-10.5887756v-41.26577h51.854538
		v41.26577c0,5.8480148-4.7407532,10.5887756-10.5887756,10.5887756H50.8570175V96"/>
	<rect x="30.0202045" y="4" class="st0" width="39.9595947" height="27.5070705"/>
	<g>
		<rect x="42.1764374" y="14.7969542" class="st0" width="1.6126815" height="5.9131613"/>
		<rect x="56.2108917" y="14.7969542" class="st0" width="1.6126815" height="5.9131613"/>
	</g>
	<path class="st1" d="M58.6860352,41.6279106c-1.1384926-1.033947-2.3362846-1.7105484-3.4619942-2.1757584
		c-2.1363907-0.8828812-3.999794-0.960331-4.6147919-0.9651871v21.7240944
		c-1.2662964-0.5902061-2.6995049-0.9559822-4.2472267-0.9559822c-4.8944321,0-8.8620224,3.3579559-8.8620224,7.5001259
		c0,4.1424255,3.9675903,7.5003815,8.8620224,7.5003815s8.8620186-3.3576965,8.8620186-7.5001221l0,0V43.8995209
		c0.7688789,0.1086349,1.5809555,0.2824516,2.4523315,0.6449051c2.905014,1.2085304,4.3632736,3.3917007,4.8236275,4.1506081
		C62.3387108,47.6902275,61.6736107,44.3409615,58.6860352,41.6279106z"/>
</g>
</svg>
