<?xml version="1.0" encoding="utf-8"?>
<!-- Generator: Adobe Illustrator 19.0.0, SVG Export Plug-In . SVG Version: 6.00 Build 0)  -->
<svg version="1.1" id="Layer_1" xmlns="http://www.w3.org/2000/svg" xmlns:xlink="http://www.w3.org/1999/xlink" x="0px" y="0px"
	 width="100px" height="100px" viewBox="0 0 100 100" style="enable-background:new 0 0 100 100;" xml:space="preserve">
<style type="text/css">
	.st0{fill:#666666;}
	.st1{fill:#4285F4;}
	.st2{fill:#34A853;}
	.st3{fill:#FBBC05;}
	.st4{fill:#EB4335;}
</style>
<path id="XMLID_32_" class="st0" d="M52.4584274,18.4101295c-0.1474342,0.0610905-0.2892914,0.1355038-0.4233475,0.2222919
	l-0.0047379,0.002758l-0.018116,0.0109253l-0.0002785-0.0001678l-0.0103111,0.0068855
	c-0.2904091,0.1938076-0.5398445,0.443079-0.7341003,0.7335148c-0.0108719,0.0161915-0.0192299,0.0303783-0.02174,0.034586
	L52.4584274,18.4101295z"/>
<path id="XMLID_30_" class="st0" d="M51.0075073,19.8852959c-0.0582504,0.146904-0.1031227,0.298769-0.1340561,0.4537258
	l0.1485481-0.491991l-0.0002785-0.0001392l-0.0055733,0.0153294L51.0075073,19.8852959z"/>
<path id="XMLID_29_" class="st0" d="M50.8670387,20.3795738c-0.0002747,0.0022564,0-0.0000839,0.0005608-0.003233
	L50.8670387,20.3795738z"/>
<path id="XMLID_28_" class="st0" d="M52.0387039,18.630331v0.0000267V18.630331z"/>
<g id="XMLID_59_">
	<path id="XMLID_57_" class="st1" d="M99,51.1110687C99,47,98.6664124,44,97.9444656,40.8889313H51v18.5553398h27.5553513
		C78,64.0555267,75,70.9999924,68.3332062,75.6664047l-0.0934525,0.6212158l14.8429718,11.4986649l1.0283432,0.1026382
		C93.5553436,79.1665955,99,66.3332062,99,51.1110611"/>
	<path id="XMLID_56_" class="st2" d="M51,100c13.4998093,0,24.8330154-4.4446564,33.1110687-12.1110687L68.3332062,75.6664124
		C64.1110687,78.6108856,58.4442711,80.66642,51,80.66642c-13.2221336,0-24.444273-8.7219467-28.4446545-20.7774849
		l-0.5863647,0.0497971L6.5350485,71.883194L6.33321,72.4442825C14.5553455,88.7774811,31.444273,100,51,100"/>
	<path id="XMLID_55_" class="st3" d="M22.5553417,59.8889313c-1.0555344-3.1110687-1.6664085-6.4446602-1.6664085-9.8889389
		c0-3.4446564,0.6108761-6.7778625,1.6108761-9.8889313l-0.0279598-0.6625824L6.8445048,27.3121395l-0.5112982,0.2432022
		C2.9444675,34.3332024,1.0000019,41.9444656,1.0000019,50s1.9444656,15.6664124,5.3332052,22.4442749L22.5553417,59.8889313"/>
	<path id="XMLID_54_" class="st4" d="M51,19.3332043c9.3887405,0,15.7219467,4.0555363,19.3332062,7.4446583L84.4442749,12.999999
		C75.7778549,4.9444647,64.4998093,0,51,0C31.444273,0,14.5553465,11.2221365,6.3332076,27.5553417l16.1666012,12.5557232
		C26.555727,28.0555325,37.7778625,19.3332024,51,19.3332024"/>
</g>
</svg>
