<?xml version="1.0" encoding="utf-8"?>
<!-- Generator: Adobe Illustrator 19.0.0, SVG Export Plug-In . SVG Version: 6.00 Build 0)  -->
<svg version="1.1" id="Layer_1" xmlns="http://www.w3.org/2000/svg" xmlns:xlink="http://www.w3.org/1999/xlink" x="0px" y="0px"
	 viewBox="770 -90 2500 741" style="enable-background:new 770 -90 2500 741;" xml:space="preserve">
<style type="text/css">
	.st0{fill:#FFFFFF;stroke:#FFFFFF;stroke-width:0.2;stroke-miterlimit:10;}
	.st1{fill:#FFFFFF;}
	.st2{fill:url(#SVGID_1_);}
	.st3{fill:url(#SVGID_2_);}
	.st4{fill:url(#SVGID_3_);}
	.st5{fill:url(#SVGID_4_);}
	.st6{opacity:0.2;enable-background:new    ;}
	.st7{opacity:0.12;enable-background:new    ;}
	.st8{opacity:0.25;fill:#FFFFFF;enable-background:new    ;}
</style>
<g>
	<path d="M3177.4074707,650.8703613H862.5925903C810.7407227,650.8703613,770,610.1296387,770,558.277771V2.7222309
		c0-51.8518524,40.7407227-92.5925903,92.5925903-92.5925903h2314.8149414C3229.2592773-89.8703613,3270-49.1296196,3270,2.7222309
		v555.555542C3270,610.1296387,3229.2592773,650.8703613,3177.4074707,650.8703613z"/>
	<g>
		<path class="st0" d="M1647.777832,99.0185242c0,14.8148193-3.7037354,27.7777786-12.9630127,37.0370331
			c-11.111084,11.1111145-24.0740967,16.6666565-40.7407227,16.6666565c-16.666748,0-29.6296387-5.5555573-40.7407227-16.6666565
			c-11.111084-11.1111145-16.666748-24.0740738-16.666748-40.7407379s5.555542-29.629631,16.666748-40.7407341
			c11.111084-11.1111069,24.0739746-16.6666679,40.7407227-16.6666679c7.4074707,0,14.8148193,1.8518524,22.222168,5.5555611
			c7.4074707,3.7036972,12.9630127,7.4074059,16.666748,12.9629593l-9.2592773,9.2592506
			c-7.4074707-9.2592621-16.666748-12.9629593-29.6296387-12.9629593c-11.111084,0-22.222168,3.7036972-29.6295166,12.9629593
			c-9.2592773,7.407402-12.9630127,18.5185165-12.9630127,31.4814758s3.7037354,24.0740814,12.9630127,31.4814835
			c9.2592773,7.4073944,18.5184326,12.9629517,29.6295166,12.9629517c12.9630127,0,22.22229-3.7037048,31.4815674-12.9629517
			c5.555542-5.5555649,9.2592773-12.9629669,9.2592773-22.2222214h-40.7408447V91.6111069h53.7037354v7.407402V99.0185242z
			 M1732.9630127,52.722229h-50.0001221v35.185173h46.2963867v12.9629593h-46.2963867v35.1851807h50.0001221v14.8148193h-64.8148193
			V39.7592697h64.8148193V52.722229z M1794.0740967,150.8703766h-14.8148193V52.722229H1747.77771V39.7592697h77.777832V52.722229
			h-31.4814453V150.8703766z M1879.2592773,150.8703766V39.7592697h14.8148193v111.1111069H1879.2592773z M1957.0369873,150.8703766
			h-14.8148193V52.722229h-31.4814453V39.7592697h75.9259033V52.722229h-31.4814453v98.1481476H1957.0369873z
			 M2132.9628906,136.0555573c-11.111084,11.1111145-24.0739746,16.6666565-40.7407227,16.6666565
			c-16.6665039,0-29.6296387-5.5555573-40.7407227-16.6666565c-11.1109619-11.1111145-16.666626-24.0740738-16.666626-40.7407379
			s5.5556641-29.629631,16.666626-40.7407341c11.111084-11.1111069,24.0742188-16.6666679,40.7407227-16.6666679
			c16.666748,0,29.6296387,5.5555611,40.7407227,16.6666679c11.111084,11.1111183,16.666748,24.0740776,16.666748,40.7407341
			S2144.0739746,124.944458,2132.9628906,136.0555573z M2062.5925293,126.7963028
			c7.4074707,7.407402,18.5185547,12.9629593,29.6296387,12.9629593s22.222168-3.7037048,29.6296387-12.9629593
			c7.4072266-7.407402,12.9628906-18.5185165,12.9628906-31.4814835s-3.7036133-24.0740738-12.9628906-31.4814758
			c-7.4074707-7.4074059-18.5185547-12.9629593-29.6296387-12.9629593S2070,54.5740852,2062.5925293,63.8333435
			c-7.4074707,7.407402-12.9628906,18.5185165-12.9628906,31.4814758S2053.333252,119.3889008,2062.5925293,126.7963028z
			 M2170,150.8703766V39.7592697h16.666748l53.7036133,87.0370331V39.7592697h14.8149414v111.1111069h-14.8149414
			l-57.4072266-90.7407303v90.7407303H2170L2170,150.8703766z"/>
		<path class="st1" d="M2031.111084,313.833313c-44.444458,0-79.6296387,33.3333435-79.6296387,79.6296387
			c0,44.4444275,35.1851807,79.6296082,79.6296387,79.6296082c44.4445801,0,79.6296387-33.333313,79.6296387-79.6296082
			C2110.7407227,345.3147888,2075.5556641,313.833313,2031.111084,313.833313z M2031.111084,439.7592468
			c-24.0740967,0-44.444458-20.3703918-44.444458-48.1481628s20.3703613-48.1481628,44.444458-48.1481628
			c24.0742188,0,44.4445801,18.5185242,44.4445801,48.1481628
			C2075.5556641,419.388855,2055.1853027,439.7592468,2031.111084,439.7592468z M1858.888916,313.833313
			c-44.444458,0-79.6296387,33.3333435-79.6296387,79.6296387c0,44.4444275,35.1851807,79.6296082,79.6296387,79.6296082
			c44.4443359,0,79.6295166-33.333313,79.6295166-79.6296082
			C1938.5184326,345.3147888,1903.333252,313.833313,1858.888916,313.833313z M1858.888916,439.7592468
			c-24.0740967,0-44.444458-20.3703918-44.444458-48.1481628s20.3702393-48.1481628,44.444458-48.1481628
			c24.0739746,0,44.444458,18.5185242,44.444458,48.1481628
			C1903.333374,419.388855,1882.9630127,439.7592468,1858.888916,439.7592468z M1653.333252,337.9073792v33.333313h79.6297607
			c-1.8519287,18.5185242-9.2592773,33.3333435-18.5185547,42.5925903
			c-11.111084,11.1111145-29.6296387,24.0740662-61.111084,24.0740662c-50,0-87.0371094-38.8888855-87.0371094-88.8888855
			s38.888916-88.888855,87.0371094-88.888855c25.9259033,0,46.2962646,11.1111145,61.111084,24.0740356l24.0740967-24.0740356
			c-20.3703613-18.5185242-46.2963867-33.3333282-83.333374-33.3333282
			c-66.666626,0-124.0740967,55.5555573-124.0740967,122.2222137s57.4073486,122.222229,124.0740967,122.222229
			c37.0369873,0,62.9630127-11.1111145,85.1851807-35.1851807c22.222168-22.222229,29.6295166-53.7036743,29.6295166-77.7777405
			c0-7.4074097,0-14.8147888-1.8518066-20.3703918H1653.333252V337.9073792z M2494.0739746,363.833313
			c-7.4074707-18.5185242-25.9257813-50.0000305-66.6665039-50.0000305s-74.0742188,31.4815063-74.0742188,79.6296692
			c0,44.4444275,33.3334961,79.6296082,77.777832,79.6296082c35.1850586,0,57.4072266-22.222229,64.8146973-35.1851807
			L2470,419.388855c-9.2592773,12.9629822-20.3703613,22.222229-38.888916,22.222229s-29.6296387-7.4073792-38.888916-24.0740356
			l105.5554199-44.444458l-3.7036133-9.2592468V363.833313z M2386.6665039,389.7592163
			c0-29.6296387,24.0742188-46.2962952,40.7407227-46.2962952c12.9628906,0,25.9260254,7.4074097,29.6296387,16.6666565
			L2386.6665039,389.7592163L2386.6665039,389.7592163z M2299.6296387,465.6851807h35.1850586V234.2037048h-35.1850586V465.6851807z
			 M2244.0739746,330.5000305c-9.2592773-9.2592773-24.0739746-18.5185242-42.5925293-18.5185242
			c-38.888916,0-75.9260254,35.1851807-75.9260254,79.6296082s35.1853027,77.7778015,75.9260254,77.7778015
			c18.5185547,0,33.333252-9.2592773,40.7407227-18.5185242h1.8518066v11.1111145
			c0,29.6296387-16.666748,46.2963257-42.5927734,46.2963257c-20.3703613,0-35.1850586-14.8147888-38.888916-27.777771
			l-29.6293945,12.9629822c9.2592773,20.3703308,31.4812012,46.2962952,70.3703613,46.2962952
			c40.7407227,0,74.0739746-24.0740356,74.0739746-81.4814758V317.5370483h-33.333252V330.5000305L2244.0739746,330.5000305z
			 M2203.333252,439.7592773c-24.0739746,0-44.4443359-20.3703918-44.4443359-48.1481628
			s20.3703613-48.1481628,44.4443359-48.1481628c24.0742188,0,42.5927734,20.3703918,42.5927734,48.1481628
			S2227.4074707,439.7592773,2203.333252,439.7592773z M2655.1853027,234.2037048h-83.3334961v231.4814758h35.1853027v-87.0370483
			h48.1481934c38.8886719,0,75.9257813-27.777771,75.9257813-72.2221985S2694.0739746,234.2037048,2655.1853027,234.2037048z
			 M2657.0371094,345.3148193h-50v-79.6296082h50c25.9257813,0,40.7407227,22.222229,40.7407227,38.8888855
			c-1.8518066,20.3703918-16.666748,40.7407532-40.7407227,40.7407532V345.3148193z M2870,311.9815063
			c-25.9260254,0-51.8518066,11.1111145-61.111084,35.1851807l31.4814453,12.9629822
			c7.4074707-12.9629822,18.5185547-16.6666565,31.4814453-16.6666565c18.5183105,0,35.1850586,11.1111145,37.0368652,29.6296082
			v1.8518677c-5.5556641-3.7037048-20.3703613-9.2592468-35.1850586-9.2592468
			c-33.3334961,0-66.666748,18.5185242-66.666748,51.8518372c0,31.4814758,27.777832,51.8518372,57.4074707,51.8518372
			c24.0739746,0,35.1850586-11.1111145,44.4443359-22.222229h1.8518066v18.5184937h33.3334961v-88.888855
			C2940.3703613,336.0555725,2908.8886719,311.9815063,2870,311.9815063L2870,311.9815063z M2866.2963867,439.7592773
			c-11.111084,0-27.777832-5.555542-27.777832-20.3703918c0-18.5184937,20.3703613-24.0740356,37.0371094-24.0740356
			c14.8149414,0,22.222168,3.7037048,31.4814453,7.4073792
			C2903.3334961,424.944458,2884.8149414,439.7592773,2866.2963867,439.7592773z M3060.7407227,317.5370483l-38.8886719,100
			h-1.8518066l-40.7407227-100h-37.0371094l61.111084,140.7407532l-35.1850586,77.7777405h35.1850586l94.4445801-218.5184937
			h-37.0371094H3060.7407227z M2749.6298828,465.6851807h35.1850586V234.2037048h-35.1850586V465.6851807z"/>
		<g>
			
				<linearGradient id="SVGID_1_" gradientUnits="userSpaceOnUse" x1="1520.215332" y1="522.7913208" x2="1503.432373" y2="539.5733643" gradientTransform="matrix(18.5185184 0 0 18.5185184 -26978.5175781 -9609.9814453)">
				<stop  offset="0" style="stop-color:#00A0FF"/>
				<stop  offset="0.007" style="stop-color:#00A1FF"/>
				<stop  offset="0.26" style="stop-color:#00BEFF"/>
				<stop  offset="0.512" style="stop-color:#00D2FF"/>
				<stop  offset="0.76" style="stop-color:#00DFFF"/>
				<stop  offset="1" style="stop-color:#00E3FF"/>
			</linearGradient>
			<path class="st2" d="M962.5925903,49.018528c-5.555542,5.5555573-7.4074097,14.8148155-7.4074097,25.9259148v409.2592773
				c0,11.1111145,3.7036743,20.3703613,9.2592773,25.9259644l1.8518677,1.8518066l229.6295776-229.6296082v-3.7037048
				L962.5925903,49.018528z"/>
			
				<linearGradient id="SVGID_2_" gradientUnits="userSpaceOnUse" x1="1532.2540283" y1="534.1359863" x2="1508.0570068" y2="534.1359863" gradientTransform="matrix(18.5185184 0 0 18.5185184 -26978.5175781 -9609.9814453)">
				<stop  offset="0" style="stop-color:#FFE000"/>
				<stop  offset="0.409" style="stop-color:#FFBD00"/>
				<stop  offset="0.775" style="stop-color:#FFA500"/>
				<stop  offset="1" style="stop-color:#FF9C00"/>
			</linearGradient>
			<path class="st3" d="M1270,360.1296082l-75.9259033-75.9259033v-5.555542L1270,202.7222137l1.8518066,1.8518677
				l90.7407227,51.8518219c25.9260254,14.8148193,25.9260254,38.888916,0,53.7037048L1270,360.1296082z"/>
			
				<linearGradient id="SVGID_3_" gradientUnits="userSpaceOnUse" x1="1523.2354736" y1="536.3704834" x2="1500.4775391" y2="559.128479" gradientTransform="matrix(18.5185184 0 0 18.5185184 -26978.5175781 -9609.9814453)">
				<stop  offset="0" style="stop-color:#FF3A44"/>
				<stop  offset="1" style="stop-color:#C31162"/>
			</linearGradient>
			<path class="st4" d="M1271.8518066,358.2778015L1194.0740967,280.5L962.5925903,511.9814758
				c9.2592773,9.2592468,22.222229,9.2592468,38.888916,1.8518372l270.3703003-155.555542"/>
			
				<linearGradient id="SVGID_4_" gradientUnits="userSpaceOnUse" x1="1505.6815186" y1="514.2974854" x2="1515.8444824" y2="524.4605103" gradientTransform="matrix(18.5185184 0 0 18.5185184 -26978.5175781 -9609.9814453)">
				<stop  offset="0" style="stop-color:#32A071"/>
				<stop  offset="0.069" style="stop-color:#2DA771"/>
				<stop  offset="0.476" style="stop-color:#15CF74"/>
				<stop  offset="0.801" style="stop-color:#06E775"/>
				<stop  offset="1" style="stop-color:#00F076"/>
			</linearGradient>
			<path class="st5" d="M1271.8518066,202.722229L1001.4815063,49.018528
				c-16.666687-9.2592583-29.6296387-7.4074097-38.888916,1.8518486L1194.0740967,280.5L1271.8518066,202.722229
				L1271.8518066,202.722229z"/>
			<path class="st6" d="M1270,356.4259338L1001.4815063,508.277771c-14.8148193,9.2592773-27.777832,7.4074097-37.0370483,0
				l-1.8518677,1.8518372l1.8518677,1.8518066c9.2592163,7.4074402,22.222229,9.2592468,37.0370483,0L1270,356.4259338z"/>
			<path class="st7" d="M962.5925903,508.277771c-5.555542-5.555542-7.4074097-14.8147888-7.4074097-25.9259338v1.8518677
				c0,11.1111145,3.7036743,20.3703613,9.2592773,25.9259644v-1.8518372h-1.8518677V508.277771z M1362.5925293,304.5740662
				L1270,356.4259033l1.8518066,1.8518677l90.7407227-51.8518372c12.9630127-7.4074097,18.5185547-16.6666565,18.5185547-25.9259338
				C1381.111084,289.7592773,1373.7036133,297.1666565,1362.5925293,304.5740662z"/>
			<path class="st8" d="M1001.4815063,50.8703766l361.1110229,205.5555573
				c11.111084,7.4074097,18.5185547,14.8148193,18.5185547,24.0740662c0-9.2592468-5.555542-18.5185242-18.5185547-25.9259186
				L1001.4815063,49.018528c-25.9259644-14.8148193-46.2963257-3.703701-46.2963257,25.9259148v1.85186
				C955.1851807,49.018528,975.555542,36.0555687,1001.4815063,50.8703766z"/>
		</g>
	</g>
</g>
</svg>
