<?xml version="1.0" encoding="utf-8"?>
<!-- Generator: Adobe Illustrator 25.4.1, SVG Export Plug-In . SVG Version: 6.00 Build 0)  -->
<svg version="1.1" id="Layer_1" xmlns="http://www.w3.org/2000/svg" xmlns:xlink="http://www.w3.org/1999/xlink" x="0px" y="0px"
	 width="300px" height="300px" viewBox="0 0 300 300" style="enable-background:new 0 0 300 300;" xml:space="preserve">
<style type="text/css">
	.st0{fill:#0078b9;}
</style>
<path class="st0" d="M276.8294067,110.1460342l-38.3231354,51.3540421
	c-3.1135406,4.1722412-3.9746704,9.6093445-2.3028259,14.5394897l20.5782013,60.683136
	c4.2102051,12.4153595-7.6435394,24.2690887-20.05896,20.0589752l-60.683075-20.5782776
	c-4.9301453-1.6718445-10.3673096-0.8107147-14.5394897,2.3028259L110.14608,276.8294067
	c-10.5066986,7.8406982-25.4433136,0.2301025-25.2757339-12.8786316l0.8189316-64.072052
	c0.0665741-5.2055206-2.4326553-10.1104431-6.683075-13.1163177l-52.3167953-36.9981079
	c-10.7037172-7.5695496-8.0812702-24.1269302,4.4376945-28.0183716l61.1892204-19.0204468
	c4.9713058-1.5453568,8.8638535-5.4379044,10.4091492-10.4092026l19.0205078-61.1892242
	c3.8914337-12.5189037,20.4488144-15.1413507,28.0183792-4.4376965l36.9981079,52.3168526
	c3.0058594,4.2503662,7.9107819,6.7495956,13.1162415,6.6830139l64.0720673-0.818924
	C277.0595398,84.702713,284.6700745,99.6393356,276.8294067,110.1460342z"/>
</svg>
