<?xml version="1.0" encoding="utf-8"?>
<!-- Generator: Adobe Illustrator 25.4.1, SVG Export Plug-In . SVG Version: 6.00 Build 0)  -->
<svg version="1.1" id="Layer_1" xmlns="http://www.w3.org/2000/svg" xmlns:xlink="http://www.w3.org/1999/xlink" x="0px" y="0px"
	 width="300px" height="300px" viewBox="0 0 300 300" style="enable-background:new 0 0 300 300;" xml:space="preserve">
<style type="text/css">
	.st0{fill:#0078b9;}
</style>
<g>
	<path class="st0" d="M93.3230591,76.6985321c0-0.811058-0.007225-1.4412003,0.0011368-2.0711365
		c0.076149-5.7445908-0.2160797-11.5234756,0.3113174-17.22649c1.0574341-11.4345245,11.0758514-20.7085381,22.5608292-21.0321388
		c9.3570938-0.263649,18.7247696-0.1767693,28.0878525-0.1970406c12.38974-0.0268211,24.7796173-0.0129929,37.1694183-0.003643
		c5.5435181,0.0041847,10.7065887,1.3131371,15.1925659,4.7024994c6.5096741,4.9183693,9.8603058,11.502491,10.024353,19.646553
		c0.0968018,4.8052826,0.0162048,9.6141357,0.0154114,14.4213791c-0.0000916,0.5285797-0.0000153,1.0571518-0.0000153,1.6935425
		c0.6920776,0.0307999,1.1778107,0.0712738,1.663559,0.071312c18.3368988,0.0014954,36.6738129-0.0048981,55.0107117-0.0007477
		c9.6289673,0.002182,16.6333618,6.9933701,16.6332092,16.5816574c-0.0001526,11.6464233-0.0133667,23.2928619,0.0065613,34.9392624
		c0.0062561,3.6461792-1.6139832,6.2213593-4.8529358,7.8443604
		c-20.5455933,10.2951355-41.0885315,20.5956116-61.6298065,30.8993683
		c-4.3380737,2.1760254-8.6230774,4.4645233-13.0213013,6.5103302c-1.5189362,0.7065125-3.3006744,1.133194-4.9741058,1.1711426
		c-6.0431366,0.1370697-12.0912323,0.055542-18.1374817,0.053833c-2.7060547-0.0007629-3.1620483-0.4699707-3.1633606-3.2366943
		c-0.0007782-1.6850128,0.0095215-3.3701019-0.0021515-5.0550385c-0.0343781-4.9650421-3.4833679-8.4226837-8.4354553-8.4268341
		c-10.5561218-0.0088196-21.1122437-0.0059204-31.6683655,0.0033112c-4.9230804,0.004303-8.3862686,3.4954224-8.402504,8.4454498
		c-0.00634,1.9328003,0.0160294,3.8658295-0.0062103,5.7983856c-0.0200958,1.7452545-0.7018433,2.4572601-2.4339523,2.4619293
		c-6.6904526,0.0179901-13.3816986,0.058197-20.0708466-0.0367584c-1.2900314-0.0183105-2.6831818-0.3860321-3.8410873-0.9667664
		c-19.8339539-9.9474182-39.6396179-19.9512329-59.4483719-29.9488678
		c-4.9949379-2.5209961-9.9632359-5.0952454-14.9734612-7.5852814c-3.3753338-1.6774902-4.9510326-4.33255-4.9384975-8.0922699
		c0.0389919-11.6958618,0.0130959-23.391922,0.0145454-35.0879059c0.0011234-9.0873795,7.1028938-16.2565842,16.1986599-16.2688599
		c18.3864517-0.0248337,36.7729568-0.0076828,55.1594391-0.007843
		C91.955864,76.6985245,92.5390015,76.6985321,93.3230591,76.6985321z M190.3730621,76.5930862
		c0.0309906-0.4955292,0.0761566-0.8851318,0.0765533-1.2747803c0.0048065-4.8062592,0.0268402-9.6126709-0.0035706-14.4187469
		c-0.0310516-4.9027405-3.5606232-8.4092369-8.4846802-8.4123001c-21.3061066-0.0132713-42.6122131-0.0128784-63.918335-0.0033875
		c-4.911644,0.0021896-8.4348221,3.5148239-8.4811935,8.4207039c-0.0248184,2.6258698-0.0042648,5.2521629-0.0042343,7.8782692
		c0.0000381,2.5687561,0.0000076,5.1375198,0.0000076,7.8102417
		C136.569458,76.5930862,163.4419403,76.5930862,190.3730621,76.5930862z"/>
	<path class="st0" d="M150.4689484,263.8406982c-34.7398605-0.0000305-69.4797211-0.0039673-104.2195816,0.0032043
		c-7.229805,0.0014954-12.8151588-2.835907-15.9217339-9.5462494c-0.8668652-1.872467-1.3743343-4.0924988-1.3804321-6.1550598
		c-0.0867252-29.3378143-0.0594292-58.6759949-0.057497-88.0140839c0.0001736-2.6362915,1.2127209-3.3719025,3.6015606-2.1659851
		c19.8964119,10.0439758,39.7998199,20.0741882,59.6756363,30.1588135c3.8514938,1.9541931,7.9075546,2.821167,12.1729584,2.8423615
		c6.2441025,0.0310211,12.4884796,0.0043793,18.7327347,0.0094452c2.096199,0.001709,2.622261,0.5292816,2.6386261,2.6372223
		c0.0123062,1.5857391-0.0081329,3.1717377,0.0015945,4.7574921c0.0286407,4.6702271,3.5170135,8.2304077,8.1572418,8.2401276
		c10.753952,0.0225525,21.5080109,0.0210266,32.2619476-0.0022736c4.4661713-0.0096741,7.9915466-3.5305786,8.0827789-8.0131073
		c0.0342712-1.6842499-0.011322-3.3699493,0.0050354-5.0547333c0.0195923-2.0160675,0.5670471-2.5618439,2.5609436-2.5637665
		c5.7486725-0.0055542,11.497757-0.044693,17.2459106,0.0101624c5.1533203,0.0491486,9.9543152-1.0798492,14.5856018-3.4193878
		c19.8079987-10.0063171,39.6736755-19.8984833,59.5189209-29.8310547c0.4424744-0.2214508,0.8745422-0.4845581,1.3419189-0.6315155
		c1.3321533-0.4188995,2.5306702,0.3512115,2.7011719,1.7406921c0.071991,0.5863342,0.0267639,1.1876526,0.0267639,1.7821655
		c0.0006714,28.5947266,0.0001526,57.1894379,0.0004272,85.7841644
		c0.0001221,10.5778809-6.8109741,17.4263916-17.3642578,17.4283752
		c-31.3203888,0.0059204-62.6407776,0.0026855-93.9611664,0.0030212
		C157.4070129,263.8407593,153.9379883,263.8407288,150.4689484,263.8406982z"/>
	<path class="st0" d="M141.9030457,182.2458344c0-1.9299316-0.0189514-3.8601227,0.0057983-5.7897491
		c0.0209198-1.6304474,0.6190643-2.2268677,2.2663574-2.2339478c3.8598022-0.0165863,7.7198029-0.0155945,11.5795746,0.0051422
		c1.7005615,0.0091248,2.2942505,0.6261292,2.3006287,2.3608856c0.0139923,3.810318,0.0148926,7.6208191-0.001709,11.4311218
		c-0.0075378,1.7332458-0.6866302,2.3888855-2.44133,2.3934174c-3.7608795,0.0096893-7.5218353,0.0102692-11.2827301-0.0004578
		c-1.8183136-0.0051727-2.4081116-0.5858154-2.4229736-2.3766022
		C141.8906555,186.1058502,141.9030457,184.1757812,141.9030457,182.2458344z"/>
</g>
</svg>
