<?xml version="1.0" encoding="utf-8"?>
<!-- Generator: Adobe Illustrator 25.4.1, SVG Export Plug-In . SVG Version: 6.00 Build 0)  -->
<svg version="1.1" id="Layer_1" xmlns="http://www.w3.org/2000/svg" xmlns:xlink="http://www.w3.org/1999/xlink" x="0px" y="0px"
	 width="300px" height="300px" viewBox="0 0 300 300" style="enable-background:new 0 0 300 300;" xml:space="preserve">
<style type="text/css">
	.st0{fill:#0078b9;}
</style>
<g>
	<path class="st0" d="M273.6243591,220.1040649l-72.5874176-72.5874939c-3.5158691-3.5158691-9.2161407-3.5158691-12.7320099,0
		l0.1649323-0.1648712l-29.7875061-29.7874985l21.8463745-21.8463745c3.3399353-3.3399353,4.0509949-8.3012161,2.1578827-12.3453979
		l5.8097687-5.809761c8.1803284-8.1803284,8.1803284-21.4433594,0-29.623745l-21.4247284-21.4247169
		c-8.1803741-8.1803284-21.4434052-8.1803284-29.6237335,0l-5.8097076,5.8097
		c-4.0441818-1.8929958-9.0055237-1.1819897-12.345459,2.1579475L57.2181168,96.556488
		c-3.3399353,3.3399429-4.0509415,8.3012772-2.1579475,12.3454666l-5.8097,5.8097
		c-8.1803284,8.1803284-8.1803284,21.4433594,0,29.6237488l21.4247169,21.4246521
		c8.1803894,8.1803894,21.4434204,8.1803894,29.6237488,0.000061l5.8097534-5.8097687
		c4.0441895,1.8931274,9.0054703,1.1820526,12.3454056-2.1578827l21.8464279-21.8464355l29.7874451,29.7875061l0.1648712-0.1648712
		c-3.5158691,3.5158691-3.5158691,9.2161407,0,12.7320099l72.5874939,72.5874329
		c8.5007782,8.5008392,22.2832336,8.5008392,30.7840271,0C282.1252136,242.3873138,282.1252136,228.6048431,273.6243591,220.1040649
		z"/>
	<path class="st0" d="M148.5437317,241.2299194c-5.2812958-11.5290222-16.8945465-19.189682-29.9189301-19.189682h-52.149147
		c-13.0248299,0-24.6380806,7.6606598-29.9189339,19.189682C27.2096004,242.5622406,20,250.6196136,20,260.32901
		c0,10.6377869,8.6546917,19.2920227,19.2924728,19.2920227h106.5150528c10.6377869,0,19.2929382-8.6542358,19.2929382-19.2920227
		C165.1004639,250.6196136,157.8908539,242.5622406,148.5437317,241.2299194z"/>
</g>
</svg>
