<?xml version="1.0" encoding="utf-8"?>
<!-- Generator: Adobe Illustrator 25.4.1, SVG Export Plug-In . SVG Version: 6.00 Build 0)  -->
<svg version="1.1" id="Layer_1" xmlns="http://www.w3.org/2000/svg" xmlns:xlink="http://www.w3.org/1999/xlink" x="0px" y="0px"
	 width="300px" height="300px" viewBox="0 0 300 300" style="enable-background:new 0 0 300 300;" xml:space="preserve">
<style type="text/css">
	.st0{fill:#0078b9;}
</style>
<path class="st0" d="M275.0444336,120.2421265c-13.4609985,4.8320312-28.6702881-1.1895142-35.0169067-14.3590088
	c-6.3435059-13.1633301-1.5841675-28.8027344,10.5698242-36.3250122
	c-12.3602295-15.6706543-28.2516479-28.4234009-46.4718018-37.0681152
	c-4.612915,13.5397949-18.8052368,21.6790771-33.0601807,18.4299927
	c-14.2462158-3.2470703-23.5063477-16.7182007-21.810791-30.9100952C148.9928589,20.0083618,148.7327881,20,148.4707031,20
	c-20.5169067,0-39.9197998,4.7597046-57.1755981,13.2244873c7.715271,12.0490723,5.2316284,28.2242432-6.1983032,37.345459
	c-11.4241333,9.116394-27.7358398,7.9547119-37.7739258-2.2271118
	c-12.409668,15.3525391-21.3932495,33.5845947-25.7935791,53.5401611
	c14.2318115,1.4812622,25.3292236,13.510498,25.3317871,28.1347046
	c0.0025635,14.6243286-11.0907593,26.6575317-25.3221436,28.1436768
	c4.4090576,19.9610596,13.4039307,38.1966553,25.8265991,53.5487671
	c10.0327148-10.1869507,26.3439941-11.3572998,37.7727661-2.2469482
	c11.4349365,9.1153564,13.927124,25.2894897,6.2177734,37.3425903C108.5965576,275.2518311,127.9780273,280,148.4707031,280
	c0.2848511,0,0.5675049-0.0089722,0.8519287-0.0107422c-1.7027588-14.1907959,7.5502319-27.6665039,21.7946167-30.9210815
	c14.2533569-3.2565918,28.4500122,4.8755493,33.0699463,18.4130249
	c18.2151489-8.6541138,34.1004639-21.414856,46.4528809-37.0924072
	c-12.1583862-7.5157471-16.9262695-23.1530151-10.5894165-36.3198853
	c6.3397217-13.1729126,21.5462036-19.2024536,35.0098877-14.3771362c2.2282104-9.5368652,3.4101562-19.4759521,3.4101562-29.6917725
	C278.4707031,139.7605591,277.2827148,129.7991943,275.0444336,120.2421265z M148.4707031,187.916687
	c-20.9407349,0-37.916626-16.9758911-37.916626-37.916687s16.9758911-37.916687,37.916626-37.916687
	c20.9407959,0,37.916687,16.9758911,37.916687,37.916687S169.411499,187.916687,148.4707031,187.916687z"/>
</svg>
