<?xml version="1.0" encoding="utf-8"?>
<!-- Generator: Adobe Illustrator 25.4.1, SVG Export Plug-In . SVG Version: 6.00 Build 0)  -->
<svg version="1.1" id="Layer_1" xmlns="http://www.w3.org/2000/svg" xmlns:xlink="http://www.w3.org/1999/xlink" x="0px" y="0px"
	 width="300px" height="300px" viewBox="0 0 300 300" style="enable-background:new 0 0 300 300;" xml:space="preserve">
<style type="text/css">
	.st0{fill:#0078b9;}
</style>
<g>
	<path class="st0" d="M81.5147018,74.3249817c-5.7746658,0-10.4557724-4.6811218-10.4557724-10.45578V36.7737885
		c0-5.7746563,4.6811066-10.4557819,10.4557724-10.4557819s10.4557724,4.6811256,10.4557724,10.4557819v27.0954132
		C91.9704742,69.6438599,87.2893677,74.3249817,81.5147018,74.3249817z"/>
	<path class="st0" d="M218.4852905,74.3249817c-5.7746582,0-10.4557648-4.6811218-10.4557648-10.45578V36.7737885
		c0-5.7746563,4.6811066-10.4557819,10.4557648-10.4557819c5.7746735,0,10.45578,4.6811256,10.45578,10.4557819v27.0954132
		C228.9410706,69.6438599,224.259964,74.3249817,218.4852905,74.3249817z"/>
	<path class="st0" d="M247.5871124,51.3222733h-2.9623871v12.5469284c0,14.4134445-11.7259827,26.1394196-26.1394348,26.1394196
		c-14.4134369,0-26.1394196-11.725975-26.1394196-26.1394196V51.3222733H107.654129v12.5469284
		c0,14.4134445-11.7259903,26.1394196-26.1394272,26.1394196s-26.1394272-11.725975-26.1394272-26.1394196V51.3222733h-2.9623833
		C34.5405655,51.3222733,20,65.862854,20,83.7351761v157.5339355c0,17.8728485,14.5405655,32.4128876,32.4128914,32.4128876
		h195.1742249c17.872818,0,32.4128876-14.5400391,32.4128876-32.4128876V83.7351761
		C280,65.862854,265.4599304,51.3222733,247.5871124,51.3222733z M259.0884399,241.2691193
		c0,6.3418884-5.1594543,11.5013428-11.5013275,11.5013428H52.4128914c-6.341877,0-11.5013466-5.1594543-11.5013466-11.5013428
		V110.0019073h218.1768951V241.2691193z"/>
	<g>
		<path class="st0" d="M85.0000229,170.6078033h-0.0000458c-11.2066956,0-20.2915192-9.0848083-20.2915192-20.2915192v-0.000061
			c0-11.2066803,9.0848236-20.2915192,20.2915192-20.2915192h0.0000458c11.2066956,0,20.2915192,9.0848389,20.2915192,20.2915192
			v0.000061C105.2915421,161.522995,96.2067184,170.6078033,85.0000229,170.6078033z"/>
		<rect x="129.7084503" y="130.024704" class="st0" width="40.5830879" height="40.5830727"/>
		<rect x="194.7084503" y="130.024704" class="st0" width="40.5830879" height="40.5830727"/>
		<rect x="194.7084503" y="190.1004639" class="st0" width="40.5830879" height="40.5830727"/>
		<rect x="129.7084503" y="190.1004639" class="st0" width="40.5830879" height="40.5830727"/>
		<rect x="64.7084579" y="190.1004639" class="st0" width="40.5830879" height="40.5830727"/>
	</g>
</g>
</svg>
