<?xml version="1.0" encoding="utf-8"?>
<!-- Generator: Adobe Illustrator 25.4.1, SVG Export Plug-In . SVG Version: 6.00 Build 0)  -->
<svg version="1.1" id="Layer_1" xmlns="http://www.w3.org/2000/svg" xmlns:xlink="http://www.w3.org/1999/xlink" x="0px" y="0px"
	 width="300px" height="300px" viewBox="0 0 300 300" style="enable-background:new 0 0 300 300;" xml:space="preserve">
<style type="text/css">
	.st0{fill:#0078b9;}
</style>
<path class="st0" d="M268.7198792,170.6559753l-20.9475708-14.962616L197.3691406,48.2213249
	c-7.2058411-15.3645744-22.6458588-25.1771145-39.6162262-25.1771145H48.7012444
	c-4.7680168,0-8.6332359,3.8652172-8.6332359,8.633234V55.608593h69.6481705c4.275589,0,8.0088043,3.2266045,8.2848892,7.4933014
	c0.302536,4.6752052-3.3996582,8.561161-8.0098877,8.561161H34.7489014c-4.0973644,0-7.6705074,3.1574173-7.7931919,7.2529221
	c-0.1269531,4.2376633,3.2704258,7.712822,7.479475,7.712822h68.9671173c4.2755966,0,8.008812,3.2266083,8.2848969,7.4933014
	c0.302536,4.675209-3.3996658,8.5611649-8.0098877,8.5611649H57.8272057c-4.0972481,0-7.670269,3.1572342-7.7931938,7.2526779
	c-0.1271935,4.2377243,3.2702446,7.7130661,7.4794159,7.7130661h39.5749969c4.2755966,0,8.008812,3.2266006,8.2848969,7.4933014
	c0.302475,4.675209-3.3997269,8.5611649-8.0098877,8.5611649H27.7966537c-4.0972443,0-7.6702061,3.1572266-7.7931919,7.2526093
	c-0.1272545,4.2377319,3.2702465,7.7131958,7.4794159,7.7131958h63.2911911c4.2751694,0,8.0083237,3.2257538,8.2851944,7.4919739
	c0.3033752,4.6751404-3.3990631,8.5624237-8.0097122,8.5624237H40.0680084v62.6085815
	c0,4.7680817,3.8652191,8.6332855,8.6332359,8.6332855h118.9412689c-0.9911652,4.8491669-1.0655823,9.7927704-0.1311035,14.5441437
	c1.7618408,8.9590912,6.8787994,16.5218048,14.4082794,21.2958527c5.506958,3.4903564,11.8076019,5.1512756,18.2228851,5.150238
	c12.6317139-0.000946,25.692627-6.442749,33.9177704-18.0249329c4.9277344-6.9417267,7.5782318-15.0153351,7.6761017-22.9653015
	h15.9172363c8.2568054,0,15.3658447-5.8280029,16.9851379-13.9244995l4.8370972-24.1853638
	C281.5545349,187.4625397,277.344574,176.8165131,268.7198792,170.6559753z M220.970047,249.6356201
	c-7.5372925,10.6151428-21.1958771,14.4778137-30.4538422,8.61026c-4.8357697-3.0650787-6.6122589-7.5843048-7.2521362-10.8345947
	c-0.725174-3.6888428-0.3627777-7.6431427,0.9823151-11.4457397c0.7923126-2.2398834,1.9243774-4.4273682,3.3791656-6.4763489
	c5.1482849-7.2521362,13.1539612-11.3519592,20.6618652-11.3519592c3.4815369,0,6.8581848,0.8828278,9.7900085,2.7427063
	c0.0009613,0,0.0009613,0,0.0009613,0c4.8357544,3.065033,6.6122589,7.5843201,7.2521362,10.834549
	c0.2725983,1.386673,0.3865051,2.8114777,0.3576508,4.2510529
	C225.5950623,240.6113586,223.9653473,245.4164734,220.970047,249.6356201z M193.6700134,155.6933594
	c-13.9544525,0-24.4046326-12.7913818-21.6213989-26.4655304l13.1463776-64.5887299l43.5126495,91.0542603H193.6700134z"/>
</svg>
