<?xml version="1.0" encoding="utf-8"?>
<!-- Generator: Adobe Illustrator 25.4.1, SVG Export Plug-In . SVG Version: 6.00 Build 0)  -->
<svg version="1.1" id="Layer_1" xmlns="http://www.w3.org/2000/svg" xmlns:xlink="http://www.w3.org/1999/xlink" x="0px" y="0px"
	 width="300px" height="300px" viewBox="0 0 300 300" style="enable-background:new 0 0 300 300;" xml:space="preserve">
<style type="text/css">
	.st0{fill:none;stroke:#0078b9;stroke-width:20;stroke-miterlimit:10;}
	.st1{fill:#0078b9;}
</style>
<g>
	<circle class="st0" cx="150" cy="150" r="130"/>
	<g>
		<path class="st1" d="M200.4642944,165.4285736H99.5356979c-8.5209579,0-15.4285583-6.907608-15.4285583-15.4285583v-0.0000305
			c0-8.5209503,6.9076004-15.4285583,15.4285583-15.4285583h100.9285965c8.5209656,0,15.4285583,6.907608,15.4285583,15.4285583
			v0.0000305C215.8928528,158.5209656,208.98526,165.4285736,200.4642944,165.4285736z"/>
		<path class="st1" d="M165.4285736,99.5356979v100.9285965c0,8.5209656-6.907608,15.4285583-15.4285583,15.4285583h-0.0000305
			c-8.5209503,0-15.4285583-6.9075928-15.4285583-15.4285583V99.5356979c0-8.5209579,6.907608-15.4285583,15.4285583-15.4285583
			h0.0000305C158.5209656,84.1071396,165.4285736,91.01474,165.4285736,99.5356979z"/>
	</g>
</g>
</svg>
