<?xml version="1.0" encoding="utf-8"?>
<!-- Generator: Adobe Illustrator 25.4.1, SVG Export Plug-In . SVG Version: 6.00 Build 0)  -->
<svg version="1.1" id="Layer_1" xmlns="http://www.w3.org/2000/svg" xmlns:xlink="http://www.w3.org/1999/xlink" x="0px" y="0px"
	 width="300px" height="300px" viewBox="0 0 300 300" style="enable-background:new 0 0 300 300;" xml:space="preserve">
<style type="text/css">
	.st0{fill:#0078b9;}
</style>
<g>
	<g>
		<path class="st0" d="M254.8557892,100.4015732l21.1853485-21.1853333c5.2784729-5.2784805,5.2784729-13.8365784,0-19.1150589
			L239.898819,23.9588585c-5.2785034-5.2784729-13.8365936-5.2784729-19.1150665,0l-21.1853333,21.1853409
			c-0.9163818,0.9163742-0.9163818,2.4021187,0,3.3184967l51.9388885,51.9388771
			C252.4536896,101.3179474,253.9394073,101.3179474,254.8557892,100.4015732z"/>
		<path class="st0" d="M20,232.1043396v44.6888733C20,278.56427,21.4357357,280,23.2067986,280h44.6888542
			c4.7136307,0,9.2341995-1.8724976,12.5672455-5.2055359l159.4464417-159.4464417
			c0.9163818-0.9163818,0.9163818-2.4021225,0-3.3184967L187.970459,60.0906448
			c-0.9163513-0.9163818-2.4020996-0.9163818-3.3184814,0L25.2055206,219.5370941
			C21.8724842,222.8701324,20,227.3907166,20,232.1043396z"/>
	</g>
	<path class="st0" d="M280,253.5254517v17.3571472C280,275.9179993,275.9179993,280,270.8825989,280H133.9298096
		l32.9216156-32.921524c1.7098389-1.7098389,4.0288849-2.6704102,6.4469604-2.6704102h97.5842133
		C275.9179993,244.4080658,280,248.4900513,280,253.5254517z"/>
</g>
</svg>
