<?xml version="1.0" encoding="utf-8"?>
<!-- Generator: Adobe Illustrator 25.4.1, SVG Export Plug-In . SVG Version: 6.00 Build 0)  -->
<svg version="1.1" id="Layer_1" xmlns="http://www.w3.org/2000/svg" xmlns:xlink="http://www.w3.org/1999/xlink" x="0px" y="0px"
	 width="300px" height="300px" viewBox="0 0 300 300" style="enable-background:new 0 0 300 300;" xml:space="preserve">
<style type="text/css">
	.st0{fill:none;stroke:#0078b9;stroke-width:20;stroke-linecap:round;stroke-linejoin:round;stroke-miterlimit:10;}
	.st1{fill:#0078b9;}
</style>
<g>
	<circle class="st0" cx="206.5554657" cy="202.8283539" r="73.4445343"/>
	<path class="st1" d="M133.1109619,202.8283844c0-0.5409393,0.0291748-1.0747681,0.0407867-1.612915H72.7175293v-25.089798
		h65.4217072c3.1306152-8.0144348,7.6236877-15.3409882,13.2019501-21.6992493H72.7175293v-25.089798h130.873703v0.1221161
		c0.9845734-0.0391388,1.9700623-0.0749359,2.9642334-0.0749359c19.1979065,0,36.6681976,7.3734741,49.7533112,19.4331818
		V71.5064087c0-26.3877831-21.3915253-47.7793121-47.7793121-47.7793121H67.7793045
		C41.3915215,23.7270985,20,45.1186256,20,71.5064087v140.7501526c0,26.3877869,21.3915329,47.7793274,47.7793274,47.7793274
		h92.7383423C143.8101959,246.573349,133.1109619,225.9552155,133.1109619,202.8283844z M72.7175293,82.5475388h130.873703
		v25.0898056H72.7175293V82.5475388z"/>
	<polyline class="st0" points="178.9228058,202.4611969 197.5893402,221.1277618 234.1881409,184.5289459 	"/>
</g>
</svg>
