<?xml version="1.0" encoding="utf-8"?>
<!-- Generator: Adobe Illustrator 25.4.1, SVG Export Plug-In . SVG Version: 6.00 Build 0)  -->
<svg version="1.1" id="Layer_1" xmlns="http://www.w3.org/2000/svg" xmlns:xlink="http://www.w3.org/1999/xlink" x="0px" y="0px"
	 width="100px" height="100px" viewBox="0 0 100 100" style="enable-background:new 0 0 100 100;" xml:space="preserve">
<style type="text/css">
	.st0{fill:#0078b9;}
</style>
<g>
	<path id="XMLID_4_" class="st0" d="M50,25.2363262c5.8612099,0,11.2792625,2.7056847,15.7843018,6.7608929
		c4.511734,4.0618782,6.7675934,9.9231262,6.7675934,15.7909737c0,2.890892-0.6605606,5.6716118-1.8150482,8.2896614
		l13.5029449,13.5029488C91.3407669,63.8797989,96.5016174,56.3380165,100,47.7915001
		c-4.093338-10-10.4533386-18.1866512-19.5466537-24.5466537C71.3666687,16.8781853,61.3666611,13.6981735,50,13.6981735
		c-6.5760803,0-12.6922646,1.0715256-18.4412746,3.2015591l9.9842281,9.98423
		C44.2184753,25.78755,47.109539,25.2363262,50,25.2363262z"/>
	<path class="st0" d="M90.7479858,87.5043945L10.3230619,7.0794768l-5.4161358,5.4161649L17.3100185,24.898737
		C9.4033327,31.0042763,3.7479372,38.6352997,0,47.7915001c4.0933409,10.0000076,10.4533396,18.180027,19.546648,24.5400276
		C28.6333294,78.6981735,38.6333351,81.8781967,50,81.8781967c7.2500534,0,13.940506-1.4872055,20.1956024-4.0938873
		L85.33181,92.9205246L90.7479858,87.5043945z M50,70.3400497c-5.8612442,0-11.2792625-2.2558289-15.7843361-6.7675285
		c-4.5117035-4.5117378-6.7675552-9.9230919-6.7675552-15.7843285c0-3.5563164,0.9985924-6.9431992,2.6858501-10.0655174
		l7.1239223,7.1239243c-0.2530556,0.9533615-0.3928604,1.9355659-0.3928604,2.9415932
		c0,3.413784,1.3138695,6.5655556,3.9416428,9.1933289C43.4305801,59.6092911,46.5862122,60.9231644,50,60.9231644
		c1.0054131,0,2.0104103-0.1171455,2.989399-0.3450546l7.269371,7.2693787
		C57.106041,69.5054855,53.5531464,70.3400497,50,70.3400497z"/>
	<path id="XMLID_1_" class="st0" d="M63.1349831,47.7881927c0-3.4176559-1.3138733-6.83144-3.9416771-9.1972008
		C56.5694199,36.2290916,53.4137878,34.6532059,50,34.6532059c-0.2235107,0-0.4469566,0.0063477-0.6702118,0.0175934
		l13.7843475,13.7843513C63.12743,48.2339668,63.1349831,48.0116997,63.1349831,47.7881927z"/>
</g>
</svg>
