<?xml version="1.0" encoding="utf-8"?>
<!-- Generator: Adobe Illustrator 25.4.1, SVG Export Plug-In . SVG Version: 6.00 Build 0)  -->
<svg version="1.1" id="Layer_1" xmlns="http://www.w3.org/2000/svg" xmlns:xlink="http://www.w3.org/1999/xlink" x="0px" y="0px"
	 width="300px" height="300px" viewBox="0 0 300 300" style="enable-background:new 0 0 300 300;" xml:space="preserve">
<style type="text/css">
	.st0{fill:#0078b9;}
</style>
<path class="st0" d="M150,20C78.2030106,20,20.0000248,78.20298,20.0000248,149.9999695S78.2030106,280,150,280
	s129.9999695-58.2029877,129.9999695-130.0000305S221.7969971,20,150,20z M150.7110291,236.8164368
	c-10.3495331,0-18.7394562-8.3899231-18.7394562-18.7394562s8.3899231-18.7394562,18.7394562-18.7394562
	s18.7394562,8.3899231,18.7394562,18.7394562S161.0605621,236.8164368,150.7110291,236.8164368z M210.006073,120.1689301
	c-1.2665405,18.847229-13.633255,31.219574-17.6971283,35.2850494c-4.096817,4.0968018-7.3190002,6.1929932-9.9075165,7.8763733
	c-2.2206726,1.444046-3.6871948,2.3981628-6.380127,5.230835c-2.200592,2.3154449-5.2163696,5.4886475-7.3993073,10.0159302
	c-1.8291931,3.7928162-2.8022919,7.9960327-2.9313965,12.5362701H133.616394
	c0.156311-9.3741608,2.2217865-18.3954163,6.1151428-26.469101c4.3646545-9.0497589,10.0095062-14.9897614,13.0421448-18.1806335
	c5.2926788-5.567337,9.2505493-8.1417999,12.141037-10.0211487c1.9299316-1.2552948,2.9932861-1.9468079,4.7095947-3.6631012
	c2.5700378-2.572052,7.9205475-7.9245605,8.3799438-14.7612762c0.3895264-5.7954407-2.8439178-10.494194-3.9064636-12.0382309
	c-5.4508972-7.9201355-14.7881775-9.9609146-18.5492706-10.4705048c-14.4038696-1.9480057-24.7197723,8.2779465-25.1518555,8.714447
	c-6.2739105,6.4298172-7.9360046,14.1669998-8.3553467,18.5118256H89.8924255
	c0.3728561-7.8296432,2.9150391-25.9153976,17.5597992-40.9241867c2.2242889-2.2789001,22.5729828-22.1328659,52.4027252-18.085453
	c7.9904175,1.0826302,27.9491882,5.5950584,40.6644592,24.0704384
	C209.3009186,100.5571136,210.5249023,112.4439545,210.006073,120.1689301z"/>
</svg>
