<?xml version="1.0" encoding="utf-8"?>
<!-- Generator: Adobe Illustrator 25.4.1, SVG Export Plug-In . SVG Version: 6.00 Build 0)  -->
<svg version="1.1" id="Layer_1" xmlns="http://www.w3.org/2000/svg" xmlns:xlink="http://www.w3.org/1999/xlink" x="0px" y="0px"
	 width="300px" height="300px" viewBox="0 0 300 300" style="enable-background:new 0 0 300 300;" xml:space="preserve">
<style type="text/css">
	.st0{fill:none;stroke:#0078b9;stroke-width:15;stroke-miterlimit:10;}
	.st1{fill:#0078b9;}
</style>
<g id="XMLID_2_">
	<path id="XMLID_37_" class="st0" d="M150.0005951,20C78.3178864,20,20,78.3178864,20,149.9994049
		C20,221.6821136,78.3178864,280,150.0005951,280C221.6821136,280,280,221.6821136,280,149.9994049
		C280,78.3178864,221.6821136,20,150.0005951,20z"/>
	<path id="XMLID_38_" class="st1" d="M237.2481232,187.2835388c-2.8081512,5.1419373-7.8379517,4.775116-8.8905334,9.8101807
		c-0.8874207,4.2451019,1.9929962,7.8305969,0,9.8101959c-0.9754944,0.9689636-2.0197906,0.4614258-3.6788177,0.9196625
		c-5.0786285,1.4026337-4.6355286,8.7382965-9.50354,13.7955475c-4.0957489,4.2548065-11.4872589,6.4155121-15.3283691,3.9853363
		c-3.0722198-1.9435272-1.7029114-5.450531-4.2920074-14.4087067c-3.3471375-11.5809326-7.3418884-11.6238403-7.357666-18.394043
		c-0.0196381-8.5766754,6.3853455-11.2177887,4.2919922-17.4742126c-1.4372559-4.2960052-4.8005066-4.0775604-6.437851-9.5036774
		c-1.4069519-4.6625061,0.4539337-6.8865356-1.5328369-9.8102112c-2.0997314-3.0897522-6.2561188-3.6638336-8.5840149-3.9853363
		c-8.6025238-1.1880341-10.6776733,3.6199646-17.1677094,2.7591858c-8.0669098-1.0701447-15.649231-9.929718-15.3283691-16.8612213
		c0.1151886-2.4882507,1.169693-3.0208435,1.839325-7.9708405c0.8517151-6.2945862-0.693573-6.6159286,0.3066711-9.8102036
		c1.9708252-6.2940826,8.1964722-5.7661285,9.8101959-12.2626953c0.6364594-2.5622787,0.1225433-4.4748535,1.8393402-6.4378433
		c1.543045-1.7643585,3.7057953-2.2176437,4.905014-2.4525146c13.4145203-2.6268997,20.1216888-3.9401855,23.912384-2.4526596
		c6.9439545,2.7253418,5.227478,7.0305939,11.9560394,9.8101883c9.0910645,3.7555771,14.1968079-3.2888947,21.1532135,0.6131668
		c4.312439,2.4189987,6.4515839,7.5397263,10.7298584,17.7808685c1.3538055,3.2408676,2.2107849,5.9167557,4.5985107,9.8102036
		c2.2934418,3.739624,4.7057343,6.4935303,6.437851,8.2773438c2.8405457-0.7299652,12.4607086-3.030899,14.1022034,0
		c0.5474396,1.0109253,0.2449188,2.6838531-5.8248596,10.7298584c-8.9699707,11.8907776-10.7070312,11.415451-11.9560242,15.6350403
		C234.848587,177.3021393,240.6882782,180.9840088,237.2481232,187.2835388z"/>
	<path class="st1" d="M150.0615692,164.1136475c-3.3668213-5.8225708-23.8463745,1.757019-30.9511719-6.9274902
		c-2.4165649-2.9537964-2.272583-6.5509033-5.9625854-7.743042c-3.2636108-1.0542603-5.4561768,1.0877075-9.6777954,0.1298218
		c-3.3820801-0.767334-3.4694214-2.4812622-7.0917358-4.6055298c-4.461853-2.6167603-11.6155396-4.2893066-18.0297241-1.9541626
		c-4.4730835,1.62854-7.038208,4.6426392-8.0879517,5.9071045c-1.9128418,2.3048096-3.4794312,5.2770996-4.8921509,15.848877
		c-0.5367432,4.0167847-1.098938,9.4871216-1.2567749,16.0402832c4.8430786,5.2991333,9.6860962,10.5981445,14.5289917,15.8971558
		c4.2852783,1.5552979,8.5705566,3.1104126,12.855835,4.6655273c3.2196655,13.0027466,6.5838013,23.9536743,9.4241333,32.4351196
		c6.3927002,19.0880737,10.0612793,25.454834,17.2833862,28.829895c6.2210083,2.9072876,14.026001,3.1027832,15.0165405,1.3082886
		c0.8947144-1.6203613-4.3117676-3.8781128-7.8627319-9.9134521c-3.8057861-6.4686279-3.2348022-13.0698242-3.0007324-15.7772827
		c1.1171875-12.9156494,10.6251221-21.3688354,12.9960327-23.3688354
		c-0.3301392-1.0838013-1.7456055-6.1912842,1.4871826-11.5828857c2.545166-4.2443848,6.4981689-6.2084961,7.8911743-6.8308716
		c0.8190308-1.947937,1.671814-4.614502,1.9302979-7.8145752c0.4533081-5.6107788-1.1519165-9.9899292-2.2793579-12.3901367
		C150.7062225,169.2789307,151.0951385,165.9008179,150.0615692,164.1136475z"/>
	<path id="XMLID_45_" class="st1" d="M273.4800415,124.6956482c-7.7544556,1.3318253-13.1960144,0.0815125-17.0053101-1.8184433
		c-16.5350647-8.2480164-13.7996521-33.1143494-29.9616699-37.4520645
		c-7.4040375-1.9871979-15.8704529,1.1132584-23.5412903-5.3502884c-1.8616333-1.5686874-2.5668182-2.7657166-5.350296-4.6369247
		c-2.5314789-1.7019196-9.5392761-6.4130402-16.0508881-4.6369324c-5.9644012,1.6266937-5.4913635,7.0539627-12.484024,8.9171677
		c-0.9502411,0.2530594-6.6643524,1.775589-9.6305389-1.4267426c-1.4079285-1.5202713-2.2961731-4.2123184-1.4267426-6.4203568
		c1.9274597-4.8952103,11.0269775-3.6884308,11.7706451-7.133728c0.6602478-3.0584831-6.2951355-5.0080643-6.4203491-9.9872169
		c-0.082901-3.3028374,2.876297-6.4565849,5.7069855-7.8471031c5.7745667-2.8369408,10.5077972,1.9123154,14.9808197,0.7133751
		c3.4608002-0.927597,7.0602417-5.5488434,8.9166412-20.0806751
		C232.3827057,46.2255211,262.3255615,81.708847,273.4800415,124.6956482z"/>
	<path id="XMLID_46_" class="st1" d="M86.2145386,41.6298904c3.4607773,1.1067924,6.6102448,2.1607742,9.3452759,3.1123009
		c14.9696884,5.2084084,20.2810211,8.0754738,21.0480347,12.6288185c0.5624084,3.3380852-1.451004,6.7896957-3.5619736,8.7430267
		c-5.6626663,5.2400284-12.1410446-0.1966934-22.0194778,3.2381516
		c-6.5827255,2.2888565-10.6489182,7.1386566-18.7813187,16.8384247c-7.1302719,8.5045929-5.8207779,9.6415939-9.7144737,12.3050079
		c-10.5513687,7.2175446-21.7464142-0.0523376-25.9052658,5.8286819c-2.9910278,4.2296829-0.5684204,12.7537231,3.885788,16.8384247
		c3.3066216,3.032135,6.215271,2.2265472,11.9811859,6.8001251c2.4800034,1.9670944,6.1377983,4.868309,5.5048714,7.1239548
		c-0.7135658,2.542923-6.727562,3.7200928-11.6573715,2.5905304c-5.3543472-1.2269592-7.021965-4.6238556-11.3335533-7.4477692
		c-2.1837006-1.4302979-5.2631149-2.7598648-9.4504261-3.3709717
		C33.5903549,90.9983597,55.9034462,60.4855232,86.2145386,41.6298904z"/>
</g>
</svg>
