<?xml version="1.0" encoding="utf-8"?>
<!-- Generator: Adobe Illustrator 25.4.1, SVG Export Plug-In . SVG Version: 6.00 Build 0)  -->
<svg version="1.1" id="Layer_1" xmlns="http://www.w3.org/2000/svg" xmlns:xlink="http://www.w3.org/1999/xlink" x="0px" y="0px"
	 width="300px" height="300px" viewBox="0 0 300 300" style="enable-background:new 0 0 300 300;" xml:space="preserve">
<style type="text/css">
	.st0{fill:#0078b9;}
</style>
<path class="st0" d="M271.1358337,128.6000214l-99.7358551-99.7358704c-11.8188629-11.8188725-30.9810944-11.8188725-42.7999573,0
	l-99.7358704,99.7358704c-11.8188725,11.8188629-11.8188725,30.9810944,0,42.7999573l99.7358704,99.7358551
	c11.8188629,11.8188782,30.9810944,11.8188782,42.7999573,0l99.7358551-99.7358551
	C282.9547119,159.5811157,282.9547119,140.4188843,271.1358337,128.6000214z M168.7244263,189.9704895v-31.471817h-15.2218628
	c-22.4003143,0-40.6247711,18.2238464-40.6247711,40.6241608H86.7288437c0-36.8192596,29.9544601-66.7737885,66.7737198-66.7737885
	h15.2218628v-31.4718781l44.5467224,44.5466614L168.7244263,189.9704895z"/>
</svg>
