<?xml version="1.0" encoding="utf-8"?>
<!-- Generator: Adobe Illustrator 25.4.1, SVG Export Plug-In . SVG Version: 6.00 Build 0)  -->
<svg version="1.1" id="Layer_1" xmlns="http://www.w3.org/2000/svg" xmlns:xlink="http://www.w3.org/1999/xlink" x="0px" y="0px"
	 width="300px" height="300px" viewBox="0 0 300 300" style="enable-background:new 0 0 300 300;" xml:space="preserve">
<style type="text/css">
	.st0{fill:none;stroke:#0078b9;stroke-width:20;stroke-linecap:round;stroke-linejoin:round;stroke-miterlimit:10;}
	.st1{fill:#0078b9;}
	.st2{fill:#0078b9;stroke:#0078b9;stroke-width:20;stroke-linecap:round;stroke-linejoin:round;stroke-miterlimit:10;}
</style>
<g>
	<path class="st0" d="M60.0327225,96.3214264h51.6523056H60.0327225z"/>
	<path class="st0" d="M60.0327225,135.8571472h78.0055466H60.0327225z"/>
	<path class="st0" d="M60.0327225,175.3928528h57.6257172H60.0327225z"/>
	<path class="st1" d="M274.0758667,133.1307678c-1.9277954-1.9128876-5.0412903-1.9007263-6.954071,0.0271301l-6.706604,6.7594299
		l-8.7402954-8.6720581c3.5718384-3.5999374,7.1436157-7.1998672,10.7154541-10.7997971
		c7.0533447-7.1088486,7.0083008-18.5896301-0.1005249-25.642952l-0.000061-0.0000381
		c-7.1088715-7.0533676-18.5896454-7.0083466-25.6429749,0.1005402
		c-25.9680328,26.1725616-51.9360199,52.3450851-77.9040527,78.5176163
		c8.581192,8.5140839,17.162262,17.0282288,25.7434235,25.5422974
		c20.0872498-20.2453766,40.1745453-40.490799,60.2618103-60.7361908l8.7402802,8.6720581l-37.4383392,37.7332153
		c-1.912735,1.9278259-1.9004974,5.041214,0.0273132,6.953949l0.0002594,0.0002594
		c1.9278259,1.912735,5.0411835,1.9005127,6.9539185-0.0273132l51.0716248-51.4743805
		C276.015686,138.1567841,276.00354,135.0435028,274.0758667,133.1307678z"/>
	<path class="st1" d="M130.2602234,202.1275024c-0.5393372,0.5436096-1.0475922,1.1227722-1.5140228,1.7300415
		c-19.4073639,25.2665558-30.4887466,46.5477448-25.6282196,51.370285
		c4.8605347,4.822525,26.0540924-6.4255371,51.1675568-26.0305786c0.6035461-0.4711609,1.1786957-0.9839172,1.7180328-1.5274811
		c7.22995-7.2868958,14.4598999-14.573761,21.6898804-21.8606567c-8.5811157-8.5140839-17.1623077-17.0281982-25.7434235-25.5422668
		C144.7200775,187.5537415,137.4901733,194.8406067,130.2602234,202.1275024z"/>
	<g>
		<path class="st0" d="M211.7652283,89.5417709V80.8237c0-5.9574203-2.2915192-11.6865845-6.3999023-16.0007629
			l-35.8269653-37.6215477C165.1590729,22.6027508,159.0863495,20,152.7361145,20H47.6725502
			C34.8583527,20,24.470396,30.3879585,24.470396,43.2021523v213.5957031C24.470396,269.61203,34.8583527,280,47.6725502,280
			h140.8905334c12.8141937,0,23.2021484-10.38797,23.2021484-23.2021484v-38.4940338"/>
		<path class="st2" d="M162.680481,66.5805359V32.4079781c0-4.4801502,5.4672241-6.6669025,8.556839-3.4225235
			l32.5424957,34.1725578c3.0090027,3.1597137,0.7692871,8.3854065-3.5939484,8.3854065h-32.5424957
			C164.9024353,71.5434189,162.680481,69.3214645,162.680481,66.5805359z"/>
	</g>
</g>
</svg>
