<?xml version="1.0" encoding="utf-8"?>
<!-- Generator: Adobe Illustrator 25.4.1, SVG Export Plug-In . SVG Version: 6.00 Build 0)  -->
<svg version="1.1" id="Layer_1" xmlns="http://www.w3.org/2000/svg" xmlns:xlink="http://www.w3.org/1999/xlink" x="0px" y="0px"
	 width="300px" height="300px" viewBox="0 0 300 300" style="enable-background:new 0 0 300 300;" xml:space="preserve">
<style type="text/css">
	.st0{fill:#0078b9;}
</style>
<g>
	<path class="st0" d="M37.1799088,171.4581909c3.2094994-1.0233154,6.2203102-1.7723694,9.0171547-2.9645233
		c1.6811829-0.718277,3.1636772-2.0475464,4.5697937-3.2863464c32.7675819-29.298172,65.5046692-58.6112671,98.2416992-87.9253006
		c0.2751312-0.2444,0.5501862-0.4738693,0.9322968-0.8096848c0.4279327,0.3358154,0.8558655,0.641777,1.2379761,0.993454
		c32.3396606,28.9464951,64.7099152,57.8631439,97.0037994,86.8553467c4.172348,3.7602234,8.6656342,6.4346313,14.6261749,6.5260468
		v2.0326233c0.0153198,25.4474792,0.0153198,50.8940125,0,76.3405457c0,8.818924-6.2967529,15.2992706-15.1000061,15.3599091
		c-12.8533325,0.061554-25.691391,0.061554-38.5447388,0c-8.818512-0.0457153-15.0694427-6.4337158-15.0999908-15.3440399
		c-0.0306091-13.6332397,0-27.2655487,0-40.9137115c0-10.1183624-6.5718689-16.7507477-16.6283569-16.7507477
		c-18.508194-0.0158539-37.0164337-0.030777-55.5246124,0.0149231c-7.7028656,0.0158539-13.8468018,4.8301697-15.5279312,12.1201935
		c-0.3209457,1.405777-0.4279327,2.888031-0.4279327,4.3404388c-0.0306091,13.5259705-0.0306091,27.0360718-0.0153275,40.5471191
		c0,9.796524-6.1592178,16.0016632-15.9405823,16.0016632c-12.2878723,0-24.5910263,0-36.8788376,0
		c-9.766098-0.0158386-15.9405823-6.2210083-15.9405823-16.0175323c0-25.1414948,0-50.282074,0-75.4235687V171.4581909z"/>
	<path class="st0" d="M208.9348297,84.6009674c0-1.2677078,0-2.1548233,0-3.0260849c0-12.0586243,0-24.1163254,0-36.1600304
		c0.015274-6.1137352,3.8055115-9.9644394,9.8730774-10.0260048c2.1243896-0.0149269,4.2640533-0.0307846,6.388443,0.0149231
		c5.7465515,0.09235,9.5674133,3.9589119,9.5826874,9.7051163c0.015274,20.2814789,0.015274,40.5471115-0.0305481,60.8127365
		c0,1.4216232,0.4584808,2.3236694,1.497757,3.2555618c13.3118286,11.8599319,26.5931091,23.7655792,39.8744202,35.656311
		c4.6461182,4.156662,5.1810303,10.3925934,1.2685242,14.7787476c-3.8667297,4.3404236-10.1634521,4.5242004-14.8249207,0.3516693
		c-31.8506012-28.4726257-63.6859436-56.9769592-95.521286-85.4645081
		c-5.6242981-5.0437851-11.2485809-10.0717087-17.0257416-15.2227707c-0.5043182,0.4281654-1.0086823,0.8404732-1.4824982,1.2835655
		c-36.8330078,32.9511147-73.6660156,65.9022369-110.4684143,98.8990631
		c-3.1178513,2.7975464-6.4954376,4.2947235-10.6372967,3.1184387c-3.7596931-1.0550385-6.1897621-3.5764618-7.1067295-7.3823853
		c-0.9475746-3.9579773,0.2139664-7.351593,3.2247772-10.0558624c7.4124622-6.6790161,14.8554726-13.3272705,22.2984848-19.9913712
		c32.2479973-28.8550797,64.4960022-57.6942978,96.728653-86.5801697c2.7662964-2.4757156,5.8994293-3.8208504,9.5215912-2.8273926
		c1.8492584,0.5046616,3.7444153,1.5438271,5.1963501,2.8124695c16.567215,14.7022552,33.0579834,29.5117912,49.5641022,44.2756157
		C207.4217224,83.3481827,208.0177917,83.8220596,208.9348297,84.6009674"/>
</g>
</svg>
