<?xml version="1.0" encoding="utf-8"?>
<!-- Generator: Adobe Illustrator 25.4.1, SVG Export Plug-In . SVG Version: 6.00 Build 0)  -->
<svg version="1.1" id="Layer_1" xmlns="http://www.w3.org/2000/svg" xmlns:xlink="http://www.w3.org/1999/xlink" x="0px" y="0px"
	 width="300px" height="300px" viewBox="0 0 300 300" style="enable-background:new 0 0 300 300;" xml:space="preserve">
<style type="text/css">
	.st0{fill:#0078b9;}
</style>
<g>
	<path id="XMLID_30_" class="st0" d="M209.6454163,101.1882019c0-6.128006-1.6239777-11.8210831-4.3956146-16.5818405
		c0.4370728-2.8184204,0.7318268-5.6838531,0.7318268-8.6246338C205.9816284,45.0639343,180.9179077,20,150.0001068,20
		S94.0183716,45.0639343,94.0183716,75.9817276c0,2.9407806,0.2947464,5.8062134,0.7318192,8.6246338
		c-2.7718353,4.7607574-4.395607,10.4538345-4.395607,16.5818405c0,11.2264481,5.426239,21.0012817,13.4603119,26.2027664
		c1.2875977,24.4240036,21.4402847,43.847435,46.1852112,43.847435c24.7447052,0,44.8973999-19.4234314,46.1849976-43.847435
		C204.2191772,122.1894836,209.6454163,112.41465,209.6454163,101.1882019z"/>
	<path id="XMLID_29_" class="st0" d="M258.0741577,213.7599945c-6.1041718-9.4433899-13.4235992-13.5552063-29.8959656-22.8616333
		c-9.943573-5.6179352-22.108551-12.5050201-37.08078-20.9789429
		c-9.2838898,12.6426239-24.2099762,20.8838654-41.0975189,20.8838654c-16.8873291,0-31.8134079-8.2412415-41.09729-20.8838654
		c-14.9722443,8.4739227-27.1372299,15.3607941-37.0807953,20.9787292
		c-16.4723625,9.3066406-23.79179,13.4182434-29.8959656,22.861618c-3.8694496,5.9861298-6.7846794,12.1083374-9.9652481,25.2064819
		c-1.4400158,5.930069-2.9113712,13.1056671-4.145731,21.3162231C63.5715637,272.7930603,105.344429,280,149.9998932,280
		c44.6556854,0,86.4285431-7.2069397,122.185257-19.7177429c-1.234375-8.2105408-2.705719-15.3857117-4.1457214-21.3160095
		C264.8588562,225.8683014,261.9436035,219.7458954,258.0741577,213.7599945z"/>
</g>
</svg>
