<?xml version="1.0" encoding="utf-8"?>
<!-- Generator: Adobe Illustrator 25.4.1, SVG Export Plug-In . SVG Version: 6.00 Build 0)  -->
<svg version="1.1" id="Layer_1" xmlns="http://www.w3.org/2000/svg" xmlns:xlink="http://www.w3.org/1999/xlink" x="0px" y="0px"
	 width="300px" height="300px" viewBox="0 0 300 300" style="enable-background:new 0 0 300 300;" xml:space="preserve">
<style type="text/css">
	.st0{fill:#0078b9;}
</style>
<path class="st0" d="M53.7592163,163.1357727c6.5000992,9.7975464,13.8576202,19.3628235,22.0550003,28.5590515
	c3.3268738,3.7320862,6.7871475,7.4055481,10.3883896,11.0068054c1.8596497,1.8596497,3.7439499,3.6696167,5.6396484,5.4562378
	c1.786499,1.8955688,3.5964813,3.7798767,5.4560089,5.6395264c3.6013565,3.6012268,7.274826,7.0615234,11.0069122,10.3883972
	c9.1961212,8.1973572,18.7615128,15.5547791,28.5590515,22.0549927
	c46.8156738,31.0594482,98.9226532,42.4885254,141.3545837,31.9144287
	c3.5330811-18.3596802,4.6018066-36.8312378,3.1574097-54.8684998c-0.8423157-10.5194702-2.5448303-20.8873901-5.0983887-31.0012817
	c-24.0453491-6.0710449-49.5411072-7.2900696-75.0304413-3.7408142c-7.525116,4.6115112-14.8748474,9.6999817-22.0039368,15.2628479
	c-4.3681793-2.2745056-8.6444702-4.7461548-12.8226013-7.4082336
	c-10.2232361-6.5138245-19.8500366-14.1766357-28.6988525-23.0254517l-11.0957718-11.0957947
	c-8.8488235-8.8488159-16.5117722-18.4756165-23.0254745-28.6988525c-2.662056-4.1781311-5.1337128-8.4545288-7.4082336-12.8226013
	c5.5627747-7.1290894,10.6513596-14.4788208,15.2628479-22.0039368c3.5491409-25.4893188,2.3302307-50.9850769-3.7408066-75.0304565
	c-10.1138992-2.5535278-20.4818192-4.2560425-31.0013962-5.0983582c-18.037262-1.4444275-36.5087051-0.3756714-54.8683624,3.1574097
	C11.2706604,64.2131042,22.6997833,116.3200989,53.7592163,163.1357727z"/>
</svg>
