<?xml version="1.0" encoding="utf-8"?>
<!-- Generator: Adobe Illustrator 19.0.0, SVG Export Plug-In . SVG Version: 6.00 Build 0)  -->
<svg version="1.1" id="Layer_1" xmlns="http://www.w3.org/2000/svg" xmlns:xlink="http://www.w3.org/1999/xlink" x="0px" y="0px"
	 width="300px" height="300px" viewBox="0 0 300 300" style="enable-background:new 0 0 300 300;" xml:space="preserve">
<style type="text/css">
	.st0{fill:#FF4B4B;}
</style>
<g>
	<path class="st0" d="M150,78.9489212c11.5089111-26.0981407,37.4700928-43.9305077,63.4151306-44.3601952
		c26.7614746-0.442688,44.7353821,17.1659851,49.4637451,22.1955872
		c20.4182129,21.7197838,19.2732544,48.6773033,19.0244141,54.5367088
		c-0.2949829,6.9394531-1.6690674,16.6996231-8.8779907,32.9758377
		c-3.9745789,8.9728394-17.9188538,38.4332886-58.3421326,74.8295898
		C200.0908203,232.2654877,178.7165527,249.3075409,150,265.4194641"/>
	<path class="st0" d="M150,265.4194641c-28.7165375-16.1119232-50.0908051-33.1539764-64.6831665-46.2930145
		c-40.4232903-36.3963013-54.3675385-65.8567505-58.3421478-74.8295898
		c-7.2089081-16.2762146-8.5830078-26.0363846-8.8779755-32.9758377c-0.2488556-5.8594055-1.3937988-32.816925,19.024416-54.5367088
		c4.7283478-5.0296021,22.7022705-22.6382751,49.463726-22.1955872C112.5299225,35.0184135,138.4910889,52.8507805,150,78.9489212"
		/>
</g>
</svg>
