<?xml version="1.0" encoding="utf-8"?>
<!-- Generator: Adobe Illustrator 25.4.1, SVG Export Plug-In . SVG Version: 6.00 Build 0)  -->
<svg version="1.1" id="Layer_1" xmlns="http://www.w3.org/2000/svg" xmlns:xlink="http://www.w3.org/1999/xlink" x="0px" y="0px"
	 width="300px" height="300px" viewBox="0 0 300 300" style="enable-background:new 0 0 300 300;" xml:space="preserve">
<style type="text/css">
	.st0{fill:#0078b9;}
</style>
<path class="st0" d="M265.8279724,21.2862358c-80.392395,45.9385262-160.78479,91.8770447-241.1771851,137.8154449
	c-6.8999138,3.9429169-6.2835655,14.0861969,1.0430126,17.1646271c17.086937,7.1794128,34.1737518,14.3587036,51.260685,21.5381317
	c4.6666031,1.9606628,10.0412064,1.1061096,13.8695526-2.2052612L237.5098877,68.7189484L114.9700623,215.7667542
	c-2.1194763,2.543457-3.2155457,5.7853394-3.0741425,9.0932922l1.9634933,45.9451294
	c0.372139,8.7090149,11.2316284,12.4432678,16.8813248,5.8049622l35.7860565-42.0487976
	c21.2294617,8.7850952,42.4589233,17.5702057,63.6883698,26.3551941c5.7049561,2.3607483,12.1214752-1.2069702,13.1266327-7.298645
	l36.7035828-222.445694C281.3599243,23.2046337,272.8391418,17.27985,265.8279724,21.2862358z"/>
</svg>
