<?xml version="1.0" encoding="utf-8"?>
<!-- Generator: Adobe Illustrator 25.4.1, SVG Export Plug-In . SVG Version: 6.00 Build 0)  -->
<svg version="1.1" id="Layer_1" xmlns="http://www.w3.org/2000/svg" xmlns:xlink="http://www.w3.org/1999/xlink" x="0px" y="0px"
	 width="300px" height="300px" viewBox="0 0 300 300" style="enable-background:new 0 0 300 300;" xml:space="preserve">
<style type="text/css">
	.st0{fill:#0078B9;stroke:#0078B9;stroke-width:16;stroke-linecap:round;stroke-linejoin:round;stroke-miterlimit:10;}
</style>
<path class="st0" d="M149.9998779,42.6088257C78.2028809,42.6088257,20,87.8939209,20,143.7562866
	c0,20.4509888,7.8258057,39.47052,21.2384644,55.3833008c-0.1078491,6.3773193-0.8386841,13.8337402-2.8688354,22.0380859
	c-3.982666,16.0941772-11.274231,28.336853-16.956604,36.213501c11.357605-1.1363525,25.5053101-3.5639648,40.9783936-8.7411499
	c11.925415-3.9902344,22.1856689-8.8336792,31.0136108-13.8138428c17.1096191,6.447998,36.3081055,10.0675659,56.5948486,10.0675659
	C221.796875,244.9037476,280,199.6185913,280,143.7562866C280,87.8939209,221.796875,42.6088257,149.9998779,42.6088257z
	 M89.3493042,178.6708374c-15.8344116,0-28.6707764-12.8363647-28.6707764-28.6708984
	c0-15.8344116,12.8363647-28.6707764,28.6707764-28.6707764c15.8344727,0,28.6708374,12.8363647,28.6708374,28.6707764
	C118.0201416,165.8344727,105.1837769,178.6708374,89.3493042,178.6708374z M149.999939,178.6708374
	c-15.8344727,0-28.6708374-12.8363647-28.6708374-28.6708984c0-15.8344116,12.8363647-28.6707764,28.6708374-28.6707764
	c15.8345337,0,28.6708984,12.8363647,28.6708984,28.6707764
	C178.6708374,165.8344727,165.8344727,178.6708374,149.999939,178.6708374z M210.6505737,178.6708374
	c-15.8344727,0-28.6708984-12.8363647-28.6708984-28.6708984c0-15.8344116,12.8364258-28.6707764,28.6708984-28.6707764
	s28.6708374,12.8363647,28.6708374,28.6707764C239.3214111,165.8344727,226.4850464,178.6708374,210.6505737,178.6708374z"/>
</svg>
