<?xml version="1.0" encoding="utf-8"?>
<!-- Generator: Adobe Illustrator 25.4.1, SVG Export Plug-In . SVG Version: 6.00 Build 0)  -->
<svg version="1.1" id="Layer_1" xmlns="http://www.w3.org/2000/svg" xmlns:xlink="http://www.w3.org/1999/xlink" x="0px" y="0px"
	 width="300px" height="300px" viewBox="0 0 300 300" style="enable-background:new 0 0 300 300;" xml:space="preserve">
<style type="text/css">
	.st0{fill:#0078b9;}
</style>
<g>
	<path class="st0" d="M241.1259155,48.6440697H197.372818V36.6434326h0.000061C197.372879,27.4515038,189.9213715,20,180.7294464,20
		l-61.4589615,0.0000668c-9.191864,0-16.643364,7.4515038-16.643364,16.6433659v12.0006371H58.8740807
		c-9.9090004,0-17.9418755,8.0328751-17.9418755,17.9418755v15.7384872h218.1356049V66.5859451
		C259.0678101,56.6769447,251.0349121,48.6440697,241.1259155,48.6440697z M119.2704849,44.6110191
		c0-4.4003906,3.5671921-7.9675865,7.9675827-7.9675865h45.5237274c4.4003906,0,7.9675903,3.5671959,7.9675903,7.9675865v4.0330505
		h-61.4589005V44.6110191z"/>
	<path class="st0" d="M49.7457848,93.8135605l19.5837059,165.4822693C70.7269287,271.104248,80.7375031,280,92.6283188,280
		h114.7434006c11.8908234,0,21.9013977-8.895752,23.2988434-20.7041626l19.5836945-165.4822693H49.7457848z
		 M108.1361542,249.4677124h-0.0000687c-6.060936,0.5359802-11.408699-3.9430237-11.9443512-10.003952l-9.0770798-102.7013092
		c-0.5356522-6.0607452,3.9432755-11.408165,10.0040131-11.9438171c6.06073-0.5356522,11.408165,3.9432831,11.9438171,10.0040131
		l9.0771484,102.7013092C118.6752777,243.5844879,114.1966858,248.9317932,108.1361542,249.4677124z M161.0169678,238.4510956
		c0,6.0843353-4.9323425,11.0166779-11.0166779,11.0166779h-0.0005341c-6.0843353,0-11.0166779-4.9323425-11.0166779-11.0166779
		V135.8353119c0-6.0843353,4.9323425-11.0166779,11.0166779-11.0166779h0.0005341
		c6.0843353,0,11.0166779,4.9323425,11.0166779,11.0166779V238.4510956z M212.8853912,136.7624512l-9.0771484,102.7013092
		c-0.5356445,6.0609283-5.8834229,10.5399323-11.9442902,10.003952h-0.0001221
		c-6.0604706-0.5359192-10.5391388-5.8832245-10.003479-11.9437561L190.9375,134.8226471
		c0.5357208-6.06073,5.8831482-10.5396652,11.9438171-10.0040131h0.000061
		C208.9420471,125.3542862,213.4210358,130.7017059,212.8853912,136.7624512z"/>
</g>
</svg>
