<?xml version="1.0" encoding="utf-8"?>
<!-- Generator: Adobe Illustrator 25.4.1, SVG Export Plug-In . SVG Version: 6.00 Build 0)  -->
<svg version="1.1" id="Layer_1" xmlns="http://www.w3.org/2000/svg" xmlns:xlink="http://www.w3.org/1999/xlink" x="0px" y="0px"
	 width="300px" height="300px" viewBox="0 0 300 300" style="enable-background:new 0 0 300 300;" xml:space="preserve">
<style type="text/css">
	.st0{fill:#0078b9;}
</style>
<path class="st0" d="M252.8568878,106.500946C245.3710632,56.4142151,202.1715851,18,149.9999695,18
	c-52.1715546,0-95.3710861,38.4142151-102.8568573,88.500946c-1.3807297,9.2383118-0.4724884,18.6685486,2.4065018,27.5546875
	c2.4928131,7.6940002,5.9189835,16.9307861,10.6048203,27.0153503c3.5579529,7.657196,9.6241379,19.6215515,27.8720779,44.4615173
	c6.4614105,8.7955322,14.436882,19.1913757,24.3876572,31.6015015c8.996933,11.22052,21.7092285,26.7098389,37.5858002,44.8659973
	c15.8765717-18.1561584,28.5889282-33.6454773,37.5858002-44.8659973
	c9.9507751-12.4101257,17.9263153-22.8059692,24.3877258-31.6015625
	c18.2480011-24.8399048,24.3140564-36.8042603,27.8720093-44.4614563
	c4.6858368-10.0845642,8.1120758-19.3213501,10.6048279-27.0153503
	C253.3293762,125.1694946,254.2376251,115.7392578,252.8568878,106.500946z M150.263031,159.3904114
	c-29.2018127,0-52.8745422-22.4771729-52.8745422-50.2041626c0-27.7269287,23.6727295-50.204071,52.8745422-50.204071
	s52.874527,22.4771423,52.874527,50.204071C203.137558,136.9132385,179.4648438,159.3904114,150.263031,159.3904114z"/>
</svg>
