<?xml version="1.0" encoding="utf-8"?>
<!-- Generator: Adobe Illustrator 25.4.1, SVG Export Plug-In . SVG Version: 6.00 Build 0)  -->
<svg version="1.1" id="Layer_1" xmlns="http://www.w3.org/2000/svg" xmlns:xlink="http://www.w3.org/1999/xlink" x="0px" y="0px"
	 width="300px" height="300px" viewBox="0 0 300 300" style="enable-background:new 0 0 300 300;" xml:space="preserve">
<style type="text/css">
	.st0{fill:none;stroke:#0078b9;stroke-width:20;stroke-linecap:round;stroke-linejoin:round;stroke-miterlimit:10;}
	.st1{fill:#0078b9;}
</style>
<g>
	<path class="st0" d="M91.3079529,47.232048v-1.308754C91.3079529,31.6062622,102.9142075,20,117.2312393,20h133.1448669
		c14.3170471,0,25.9233093,11.6062622,25.9233093,25.9232941v208.1534119C276.299408,268.3937683,264.6931458,280,250.3760986,280
		H117.2312164c-14.3170242,0-25.9232635-11.6062317-25.9232635-25.9232635v-0.0000305"/>
	<path class="st1" d="M169.0235138,124.1232605h-68.5045471V97.1686554c0-3.783226-4.3537445-5.9088516-7.3368225-3.5820389
		l-67.7326889,52.8313522c-2.3318024,1.8187866-2.3318024,5.3452759,0,7.1640625l67.7326889,52.8313446
		c2.983078,2.3268127,7.3368225,0.2012024,7.3368225-3.5820312v-26.9546051h68.5045471
		c1.933136,0,3.5002441-1.5671082,3.5002441-3.5002289v-44.7530212
		C172.5237579,125.6903687,170.9566498,124.1232605,169.0235138,124.1232605z"/>
</g>
</svg>
