<?xml version="1.0" encoding="utf-8"?>
<!-- Generator: Adobe Illustrator 25.4.1, SVG Export Plug-In . SVG Version: 6.00 Build 0)  -->
<svg version="1.1" id="Layer_1" xmlns="http://www.w3.org/2000/svg" xmlns:xlink="http://www.w3.org/1999/xlink" x="0px" y="0px"
	 width="300px" height="300px" viewBox="0 0 300 300" style="enable-background:new 0 0 300 300;" xml:space="preserve">
<style type="text/css">
	.st0{fill:#0078b9;}
</style>
<g>
	<path class="st0" d="M177.0115814,176.2866516c-1.7275238,11.0733032-3.3892212,21.750946-5.1003265,32.6916962H58.3376274
		c0,1.8266296,0.0822182,3.4223022-0.01651,5.0189819c-0.2796669,3.9977264-2.1059303,5.6757355-6.0710716,5.6757355
		c-7.3379326,0-14.6758614,0-22.0302391,0c-3.2247963-0.0160675-5.1497822-1.7764282-5.511734-5.0019073
		c-0.0164433-0.0823517-0.0164433-0.1647034-0.0328865-0.2299652c-1.0529652-19.9082489-2.2704945-39.7994232-3.0602341-59.7076569
		c-0.2796688-7.1569214,0.4936275-14.345993,0.8061829-21.519989c0.1151695-2.5335846,1.1846409-4.5901947,3.0931206-6.2682037
		c1.5137043-1.3165054,2.9615097-2.7314224,4.4422626-4.0800629c3.2082882-2.8961105,6.1204662-5.841423,7.8808918-10.0690994
		c1.3491402-3.1923523,4.2119217-5.759079,6.2849655-8.4734268c-3.5044022-0.3123093-7.5353813-0.5432739-11.5334129-1.1026154
		c-3.1918449-0.4609222-6.3671856-1.2341614-9.4932556-2.0897369c-2.8133888-0.7732315-3.6360798-2.5165253-2.7640572-5.3142166
		c1.2997456-4.1624069,4.2942047-6.7291412,8.1605587-8.3248138c6.1040211-2.5175247,12.5041599-2.6320038,18.9536266-2.1389389
		c4.5409851,0.3625107,4.3270912,0.3123016,6.696312-3.7014771c4.2448082-7.25634,8.7199593-14.380127,13.244503-21.4707794
		c1.1516876-1.793499,2.7969437-3.3078308,4.2777023-4.8703613c3.2741241-3.5046577,7.1898727-5.0671883,12.1586456-5.0511208
		c35.6367569,0.1476173,71.2899628,0.1154823,106.9267273,0.0160675c4.3270264-0.0160675,7.7492065,1.3988457,10.8917236,4.1955414
		c4.080307,3.6532745,7.091156,7.584713,6.0381775,13.5737572c-0.4277802,2.3859787-0.0658264,4.9035034-0.5265045,7.5194397
		c-0.6910248-1.5635376-1.414917-3.1100006-2.1059418-4.6725388c-1.102356-2.4683228-2.2704926-4.9035034-3.2576752-7.4210281
		c-1.3161926-3.3399658-3.7841339-4.9687767-7.2556458-5.1987381c-4.7877808-0.3123055-9.5755463-0.8395081-14.3633118-0.8395081
		c-28.6772156-0.0813408-57.3544464-0.0813408-86.031662,0c-4.7713242,0-9.5590973,0.5603409-14.3468628,0.8234406
		c-3.6854095,0.2138939-6.1039658,1.9742546-7.5847168,5.4286995c-4.5080338,10.496891-9.1970787,20.9285088-13.8039055,31.3922615
		c-1.7604218,3.9816513-1.3820267,4.5901947,2.8957329,4.5901947c46.6929855,0,93.4024811,0,140.0955353,0h3.3070068
		c0.0657806,0.8395081,0.164505,1.4480515,0.164505,2.0405273c0.016449,11.2038498,0.016449,22.4247665,0.016449,33.6296158
		c0,1.1016083,0.0987244,2.023468-1.4972076,2.3197021c-10.3158722,1.8587646-16.6172943,8.3418732-19.9901428,17.9169159
		c-0.8719635,2.5004578-2.1223755,3.092926-4.6561584,3.0768585c-31.1615448-0.0984039-62.3231506-0.0662689-93.4683151-0.0662689
		c-3.9815903,0-4.327095,0.4277802-3.5702438,4.3110199c0.6745758,3.4052429,1.4478683,6.7944183,1.9743195,10.2337952
		c0.3620148,2.3357697,1.3985367,3.2084198,3.8335266,3.1913452c28.8417206-0.0652771,57.6835022-0.0331421,86.5252228-0.0331421
		H177.0115814z M67.1234207,152.8084869c0.2138367-8.1109161-6.2520752-14.8400574-14.4455833-15.0047455
		c-8.0289497-0.1807556-14.7745895,6.2521515-14.9555969,14.2485809
		c-0.1809464,8.2093201,6.2356339,14.9716034,14.3304176,15.152359
		C60.2296638,167.3693695,66.9095306,160.985672,67.1234207,152.8084869"/>
	<path class="st0" d="M232.4756317,146.4308167c5.8407288,0.3454437,13.803894,0.6256104,21.7012329,1.3496399
		c5.8736115,0.5432739,9.8387604,3.9485168,12.224411,9.3942871c3.5209351,8.0617065,5.5445862,16.5190735,7.1898804,25.1069794
		c3.7182922,19.5457306,5.8571777,39.256134,6.4001465,59.1643829c0.1809387,6.8606873-2.4679565,12.3064575-7.3050537,16.864502
		c-6.9430847,6.5152588-15.4327087,10.1183167-24.4817963,12.5856323
		c-18.1144867,4.9366455-35.3734741,2.4191284-51.8098145-6.3013306
		c-5.3800659-2.8629761-10.2830048-6.5152588-13.2116241-11.9941711c-1.414917-2.6480713-2.64888-5.8072815-2.6159363-8.7194519
		c0.312561-26.5218964,3.1917877-52.7314911,10.2994385-78.3646698c0.6251831-2.221283,1.595932-4.344162,2.3198242-6.5483704
		c2.5666046-7.6178589,8.1276703-11.2369995,15.8605042-11.6818542
		C216.1380005,146.8917389,223.2455902,146.7601929,232.4756317,146.4308167 M230.1557922,249.392334
		c-6.6469727,0-13.2774506-0.032135-19.9243622,0.0170746c-3.1589661,0.0160675-5.9230194,0.9047699-7.6998901,3.8169556
		c-1.0200806,1.678009-0.8884583,3.2084198,0.7239075,4.2447357c1.8098145,1.1357727,3.7183533,2.3036499,5.7420044,2.8961182
		c14.0506897,4.1453247,28.1507721,4.1453247,42.2179108,0.0652771c1.8262482-0.5262146,3.6031189-1.4309998,5.2154846-2.4351807
		c2.517334-1.5625305,2.6818542-3.2405548,0.8555908-5.5773315c-1.8921051-2.4351807-4.5738831-3.0105743-7.4366608-3.0276489
		C243.2850647,249.3762665,236.7204285,249.392334,230.1557922,249.392334"/>
	<path class="st0" d="M244.8646088,143.0406342h-29.3517914c-0.0493317-0.806366-0.1316071-1.5474701-0.1316071-2.2875519
		c0-14.7577133-0.016449-29.5164261,0.0328827-44.2741318c0.016449-1.0855331,0.2138977-2.4351807,0.8720245-3.1923447
		c1.4807587-1.7272263,1.8920441-3.5538635,1.8755951-5.742012c-0.0657806-15.4485931-0.1151733-30.9142609,0-46.3638573
		c0.0493927-6.448967,3.8828583-10.7107868,9.1477509-13.7545128c2.5995483-1.497261,5.3800507-0.8224392,7.5847778,1.0041981
		c4.4093018,3.6522694,7.5353851,7.8809528,7.4530945,14.1491604c-0.2303314,15.2347031-0.1316071,30.4543381-0.0164337,45.6729736
		c0.0164337,1.546463,1.0036316,3.0929337,1.546524,4.6233292c0.3619537,0.9871292,1.085907,1.9571838,1.085907,2.9282455
		c0.0657806,15.3833237,0.0493317,30.7505798,0.0493317,46.1339035
		C245.0126648,142.2342682,244.9303894,142.5305023,244.8646088,143.0406342 M226.4703827,30.3052616
		c-2.1224365,0.83951-2.5995483,2.2052212-2.5995483,4.0971317c0.0328827,26.0288353-0.0493317,52.0566673,0.1151733,78.0684204
		c0.0328827,3.8008957,1.2832947,7.5847168,1.9743042,11.3685379c0.181015-0.032135,0.34552-0.0652695,0.5100708-0.0984116
		V30.3052616z M234.762619,30.2229176c-0.2632904,0.1325531-0.5429535,0.2801704-0.8062439,0.4117203
		c-0.0164337,0.3785839-0.0657654,0.7571659-0.0657654,1.1518173c0,29.3025227-0.0658417,58.6050491,0.0822754,87.9075699
		c0.016449,3.3891678,1.233902,6.7783432,1.8920288,10.1675186c0.4277954-0.2299652,0.5265198-0.3615112,0.5265198-0.5101318
		c0-31.9345322,0.0328827-63.8529968-0.0493927-95.7885284C236.342041,32.4442062,235.3055267,31.342598,234.762619,30.2229176"/>
</g>
</svg>
