<?xml version="1.0" encoding="utf-8"?>
<!-- Generator: Adobe Illustrator 25.4.1, SVG Export Plug-In . SVG Version: 6.00 Build 0)  -->
<svg version="1.1" id="Layer_1" xmlns="http://www.w3.org/2000/svg" xmlns:xlink="http://www.w3.org/1999/xlink" x="0px" y="0px"
	 width="300px" height="300px" viewBox="0 0 300 300" style="enable-background:new 0 0 300 300;" xml:space="preserve">
<style type="text/css">
	.st0{fill:#0078b9;}
</style>
<g>
	<path class="st0" d="M234.5671844,20H116.7968674c-15.1970749,0-27.5164261,12.3195572-27.5164261,27.5164261v166.7423401
		c0,15.1970825,12.3193512,27.5164337,27.5164261,27.5164337h117.7703171c15.1970825,0,27.5164337-12.3193512,27.5164337-27.5164337
		V47.5164261C262.0836182,32.3195572,249.764267,20,234.5671844,20z"/>
	<path class="st0" d="M75.5833588,227.9560699V58.2247963H65.4328156c-15.1968689,0-27.5164261,12.3195534-27.5164261,27.5164223
		v166.7423401C37.9163895,267.6806641,50.2359467,280,65.4328156,280h117.7705231
		c14.1859283,0,25.8565369-10.7376404,27.3475494-24.5275116H103.0997849
		C87.902916,255.4724884,75.5833588,243.1529388,75.5833588,227.9560699z"/>
</g>
</svg>
