<?xml version="1.0" encoding="utf-8"?>
<!-- Generator: Adobe Illustrator 25.4.1, SVG Export Plug-In . SVG Version: 6.00 Build 0)  -->
<svg version="1.1" id="Layer_1" xmlns="http://www.w3.org/2000/svg" xmlns:xlink="http://www.w3.org/1999/xlink" x="0px" y="0px"
	 width="300px" height="300px" viewBox="0 0 300 300" style="enable-background:new 0 0 300 300;" xml:space="preserve">
<style type="text/css">
	.st0{fill:#0078b9;}
</style>
<g>
	<path class="st0" d="M239.6460571,197.1367798c-0.5387115-0.5628357-1.0909271-1.1276093-1.6518402-1.6991425
		c-1.7397003-1.7744446-3.5373077-3.609726-5.2094269-5.7210999c-8.9552612-11.3079987-9.6030579-24.2745972-10.0317078-32.8543091
		l-0.064682-1.2656708c-1.7030029-32.3677368-2.4811401-47.1411209-3.7748108-51.6597824
		c-7.7851715-27.1863174-30.7670593-47.1473999-49.4450989-52.8139496c-2.2156525-0.671936-4.5963745-1.2396049-7.1084137-1.6957664
		c3.1434174-3.2066536,4.9506836-7.5418854,4.9506836-12.1155777C167.3107605,27.7658634,159.5449066,20,149.9997711,20
		c-9.5456238,0-17.3114929,7.7658634-17.3114929,17.3114815c0,4.5732117,1.8067932,8.9084435,4.9511719,12.1155777
		c-2.5134735,0.4561615-4.8946838,1.0243149-7.109848,1.6962471c-18.6770782,5.6665497-41.6580048,25.6271515-49.4436569,52.8134689
		c-1.2936707,4.5167313-2.0713196,19.290596-3.7748032,51.6597824l-0.0642014,1.2627716
		c-0.4286499,8.5806885-1.0759659,21.5472717-10.0326767,32.8581696c-1.6706619,2.1104126-3.4687653,3.9447174-5.2074928,5.719162
		c-0.5613937,0.5725098-1.1140976,1.1363068-1.653286,1.700119c-1.6228752,1.2000122-11.5368042,9.0325012-11.2708321,21.0578003
		c0.2765923,12.5099487,11.0632668,23.3622742,25.0903816,25.2419586l151.5564423,0.0135193l0.0975037-0.0135193
		c14.0266418-1.8796844,24.8133087-12.7320099,25.0903778-25.2419586
		C251.1828613,206.169281,241.2689209,198.336792,239.6460571,197.1367798z M76.2177963,220.4816742
		c-2.5487137-0.6313934-3.7526016-2.1181335-4.0904922-2.7186279c0.2934875-0.5087891,1.0576172-1.5186157,1.8579559-2.1403503
		l1.4268951-1.0330048l1.4698563-1.5041199c0.4981537-0.5222931,1.0107956-1.0445862,1.5321274-1.5765381
		c1.9520798-1.9907074,4.3815689-4.4689484,6.8067093-7.5322266c13.5222015-17.076416,14.4615555-35.8731995,14.9659882-45.9715118
		l0.0642014-1.2647095c1.2487717-23.7185211,2.2364044-42.4800644,3.0280533-46.8650131
		c5.9165878-20.0600433,23.3878479-33.5778961,33.9191666-36.7729645
		c6.0647888-1.8400955,12.7493744-1.9477386,12.7870331-1.9487076c0.0666046,0.0009689,6.7512054,0.1086121,12.8150177,1.9482269
		c10.5317993,3.1950684,28.003067,16.7129211,33.9211121,36.7729645c0.7916412,4.3917084,1.7802277,23.17836,3.0304565,46.9243774
		l0.0608215,1.2058258c0.5049133,10.0983124,1.4433136,28.8950958,14.9659882,45.9715118
		c2.4270782,3.0652161,4.8551178,5.5415192,6.8052673,7.5302887l0.2220459,0.2278442
		c0.4450531,0.4537506,0.8833618,0.9017029,1.3120117,1.3506317l1.2656708,1.3264923l1.5900421,1.1807098
		c0.834137,0.6458588,1.604538,1.6614838,1.8980255,2.1712341c-0.3378906,0.6004944-1.5427399,2.0872498-4.0895233,2.7176666
		H76.2177963z"/>
	<path class="st0" d="M120.2488098,250.2485657c0,16.405426,13.3460083,29.7514343,29.7509613,29.7514343
		c16.405426,0,29.7514343-13.3460083,29.7514343-29.7514343v-1.4828949h-59.5023956V250.2485657z"/>
</g>
</svg>
