<?xml version="1.0" encoding="utf-8"?>
<!-- Generator: Adobe Illustrator 25.4.1, SVG Export Plug-In . SVG Version: 6.00 Build 0)  -->
<svg version="1.1" id="Layer_1" xmlns="http://www.w3.org/2000/svg" xmlns:xlink="http://www.w3.org/1999/xlink" x="0px" y="0px"
	 width="100px" height="100px" viewBox="0 0 100 100" style="enable-background:new 0 0 100 100;" xml:space="preserve">
<style type="text/css">
	.st0{fill:#0078b9;}
</style>
<g>
	<path id="XMLID_3_" class="st0" d="M61.6023827,38.4016685C58.2804871,35.0797462,54.4156952,33.4269104,50,33.4269104
		c-1.5730171,0-3.0758133,0.2148705-4.510334,0.6360703c1.6165924,1.6268311,2.4243126,3.522007,2.4243126,5.6903954
		c0,2.1747017-0.8139992,4.0780754-2.4460182,5.7100945c-1.6320229,1.632019-3.5393791,2.4500046-5.714077,2.4500046
		c-2.1635399,0-4.0580521-0.8071785-5.6883812-2.4264221c-0.4204712,1.435318-0.6345787,2.9399643-0.6345787,4.5169945
		c0,4.4156952,1.6528664,8.2804909,4.9666939,11.5942841C41.7195129,64.9202499,45.5842743,66.5730896,50,66.5730896
		c4.4156952,0,8.2885857-1.660965,11.6023827-4.9747581c3.3137932-3.3137932,4.9666634-7.1785889,4.9666634-11.5942841
		C66.569046,45.5802574,64.9161758,41.7154617,61.6023827,38.4016685z"/>
	<path class="st0" d="M80.4533463,25.456665C71.3666687,19.0900059,61.3666611,15.9099922,50,15.9099922
		s-21.3666706,3.1800137-30.453352,9.5466728C10.4533396,31.8166676,4.0933409,40.0033073,0,50.0033188
		C4.0933409,60.0033264,10.4533396,68.183342,19.546648,74.543335C28.6333294,80.909996,38.6333351,84.090004,50,84.090004
		s21.3666687-3.6333313,30.4533463-9.546669C89.5466614,68.6366653,95.906662,60.0033264,100,50.0033188
		C95.906662,40.0033073,89.5466614,31.8166676,80.4533463,25.456665z M67.5431519,67.54319
		C63.0360413,72.5576324,56.5143394,75.0648117,50,75.0648117c-6.51437,0-12.5361061-2.5071793-17.5431862-7.5216217
		C27.4423714,62.5287132,24.9351501,56.51437,24.9351501,50c0-6.521698,3.0071869-12.5361023,7.5216637-17.5505447
		C36.9639282,27.4423771,43.48563,24.9351845,50,24.9351845c6.5143394,0,12.5361061,3.0071487,17.5431519,7.5142708
		C72.5576248,36.963932,75.0648499,43.478302,75.0648499,50C75.0648499,56.51437,72.0576324,62.5287476,67.5431519,67.54319z"/>
</g>
</svg>
