<?xml version="1.0" encoding="utf-8"?>
<!-- Generator: Adobe Illustrator 25.4.1, SVG Export Plug-In . SVG Version: 6.00 Build 0)  -->
<svg version="1.1" id="Layer_1" xmlns="http://www.w3.org/2000/svg" xmlns:xlink="http://www.w3.org/1999/xlink" x="0px" y="0px"
	 width="300px" height="300px" viewBox="0 0 300 300" style="enable-background:new 0 0 300 300;" xml:space="preserve">
<style type="text/css">
	.st0{fill:#0078b9;}
</style>
<g>
	<path class="st0" d="M150,80.0254593c11.3345337-25.702713,36.902359-43.2648926,62.4542999-43.6880684
		c26.3559875-0.4359818,44.0575714,16.9058914,48.7142792,21.8592873
		c20.1088562,21.3906937,18.9812317,47.9397659,18.7361755,53.7103958
		c-0.2905273,6.8343124-1.6437683,16.4465942-8.7434692,32.4761963
		c-3.9143677,8.8368988-17.6473694,37.8509674-57.4581604,73.695816C199.3318634,231.019043,178.2814484,247.802887,150,263.6706848
		"/>
	<path class="st0" d="M150,263.6706848c-28.2814331-15.8677979-49.3318481-32.6516418-63.7031174-45.5915985
		c-39.8108101-35.8448486-53.5437813-64.8589172-57.458168-73.695816
		c-7.0996819-16.0296021-8.4529629-25.6418839-8.7434616-32.4761963
		c-0.2450848-5.7706299-1.3726807-32.3197021,18.736166-53.7103958c4.6567039-4.9533958,22.3582954-22.295269,48.7142754-21.8592873
		C113.0976562,36.7605667,138.6654663,54.3227463,150,80.0254593"/>
</g>
</svg>
