<?xml version="1.0" encoding="utf-8"?>
<!-- Generator: Adobe Illustrator 25.4.1, SVG Export Plug-In . SVG Version: 6.00 Build 0)  -->
<svg version="1.1" id="Layer_1" xmlns="http://www.w3.org/2000/svg" xmlns:xlink="http://www.w3.org/1999/xlink" x="0px" y="0px"
	 width="300px" height="300px" viewBox="0 0 300 300" style="enable-background:new 0 0 300 300;" xml:space="preserve">
<style type="text/css">
	.st0{fill:#0078b9;}
	.st1{fill:none;stroke:#0078b9;stroke-width:20;stroke-linecap:round;stroke-linejoin:round;stroke-miterlimit:10;}
</style>
<g>
	<path class="st0" d="M237.9692688,169.0185547c3.1777802-8.0582581,1.5306396-12.1076202-6.5167236-16.0209656
		c-0.2281952-8.6574249-3.5266113-11.8950043-12.3507538-12.122757c-3.5785675-8.0323792-7.7756958-9.7801819-15.9254303-6.6317291
		c-6.2636871-6.0135651-10.8689575-5.9889221-17.2934418,0.0926208c-8.1743774-3.1304169-12.2446899-1.4750977-16.0143585,6.5126495
		c-8.769516,0.3310699-11.8849487,3.5113068-12.0912933,12.3429565c-8.0247192,3.5697021-9.7993927,7.7702637-6.7275391,15.9238129
		c-5.9522095,6.5133667-5.9363861,10.7574615,0.0645447,17.3273163c-2.9503632,8.53508-1.3265076,12.4475861,6.6356812,15.9878998
		c0.3847198,8.9517212,3.3292389,11.8540039,12.2893219,12.1131439c3.5876617,8.0435333,7.5327911,9.7247925,15.9290619,6.7881165
		c6.6089172,5.8939667,10.6541901,5.8610687,17.349823-0.1412048c8.3148041,3.0344849,12.1417542,1.4589539,16.0216217-6.595871
		c8.9448547-0.5024414,11.8708801-3.4782867,12.1193085-12.3258972c8.0602722-3.7177734,9.6934052-7.6160126,6.6833038-15.9532013
		C244.1008911,179.9938354,244.0565338,175.5635681,237.9692688,169.0185547z M194.6589203,199.7277222
		c-12.1971436,0.0338593-22.1351624-9.851532-22.0996704-21.9828491
		c0.0354767-12.1678925,9.9919739-22.1243134,22.0789032-22.0787811
		c12.0980377,0.0455322,22.0944824,10.1136017,22.0157471,22.1734161
		C216.5750885,189.9024506,206.735611,199.6941833,194.6589203,199.7277222z"/>
	<path class="st0" d="M172.1156616,227.5536804c3.7360687,0.8623047,6.926239,1.1231995,9.7070312,2.3284912
		c8.7792664,3.8049622,17.302475,3.673996,26.0051422-0.2551727c2.5979767-1.1728668,5.6442261-1.3528595,9.1804962-2.143219
		c0,15.5163727,0.0531616,29.8179169-0.1018372,44.1172943c-0.0122986,1.1328735-1.3429413,3.0327454-2.2848206,3.1843262
		c-1.2919922,0.2077942-3.2278442-0.5281067-4.1374969-1.536499c-3.7085571-4.1111755-7.1262512-8.4844666-10.6603241-12.753418
		c-4.3251953-5.2246857-5.4573059-5.2538757-9.7358093-0.2250977c-3.6969604,4.3454285-7.2565613,8.816925-11.1394348,12.9883728
		c-1.0215302,1.0975037-3.3291931,2.1071472-4.4758911,1.6679077c-1.1551056-0.4424438-2.239502-2.7298279-2.2576141-4.2221985
		C172.0467072,256.8599243,172.1156616,243.0124664,172.1156616,227.5536804z"/>
	<line class="st1" x1="161.5" y1="69.7384491" x2="224.517395" y2="69.7384491"/>
	<line class="st1" x1="161.5" y1="98.7384491" x2="203.7717743" y2="98.7384491"/>
	<path class="st0" d="M59.6178894,64.8963852v23.4924164c0,1.8037186,0.5475922,3.5649338,1.5703392,5.0506592
		l13.0309639,18.9298248v59.2298508c0,6.5464783,5.3069763,11.8534546,11.8534546,11.8534546h0.0000153v-52.9344025
		c0-0.7219238,0.5850906-1.3070221,1.3070221-1.3070221c0.7219238,0,1.3070145,0.5850983,1.3070145,1.3070221v51.894455h0.0000153
		c6.9706879-5.0751648,11.0940704-13.1777496,11.0940704-21.8002625v-48.2430954l13.0309296-18.9298248
		c1.0227661-1.4857635,1.5703735-3.2470169,1.5703735-5.050766V64.8963852c0-6.6358376-5.3794098-12.0152473-12.0152512-12.0152473
		H71.6331329C64.9972992,52.8811378,59.6178894,58.2605476,59.6178894,64.8963852z M93.0682907,62.5717659
		c3.5628433,0,6.451088,2.8882408,6.451088,6.4510918c0,3.5628433-2.8882446,6.451088-6.451088,6.451088H80.9316559
		c-3.5628433,0-6.451088-2.8882446-6.451088-6.451088c0-3.562851,2.8882446-6.4510918,6.451088-6.4510918H93.0682907z"/>
	<path class="st1" d="M133.25,211.3655853H50.6390076C33.7175522,211.3655853,20,197.6480408,20,180.7265778V55.6071434
		c0-16.9214592,13.7175522-30.6390095,30.6390076-30.6390095h198.7219849C266.2824402,24.9681339,280,38.6856842,280,55.6071434
		v125.1194305c0,16.921463-13.7175598,30.6390076-30.6390076,30.6390076"/>
</g>
</svg>
