<?xml version="1.0" encoding="utf-8"?>
<!-- Generator: Adobe Illustrator 25.4.1, SVG Export Plug-In . SVG Version: 6.00 Build 0)  -->
<svg version="1.1" id="Layer_1" xmlns="http://www.w3.org/2000/svg" xmlns:xlink="http://www.w3.org/1999/xlink" x="0px" y="0px"
	 width="300px" height="300px" viewBox="0 0 300 300" style="enable-background:new 0 0 300 300;" xml:space="preserve">
<style type="text/css">
	.st0{fill:none;stroke:#0078b9;stroke-width:16;stroke-linecap:round;stroke-linejoin:round;stroke-miterlimit:10;}
	.st1{fill:#0078b9;}
</style>
<g>
	<path id="XMLID_37_" class="st0" d="M205.9602661,174.2819366c0,0-27.2524414,13.4714355-38.8502808,25.111084
		c-27.6347504,27.7345276-31.3059235,62.5665436-32.0152588,73.8240814
		c-17.2809219,1.5793457-27.0402756-4.331604-30.2129211-6.8662415
		c-17.9079285-14.3069305-20.7876663-49.3844299,1.6413803-87.7935181h28.8410416H42.3840828
		c-10.4604683,0-18.9403896-8.2516327-18.9403896-18.7121277s8.4799213-18.7121277,18.9403896-18.7121277h20.6622696H38.9403915
		C28.4798908,141.1330872,20,132.3890533,20,121.9285507s8.4798908-19.2045441,18.9403915-19.2045441h24.1059608H42.3840828
		c-10.4604683,0-18.9403896-8.2516251-18.9403896-18.7121277s8.4799213-18.7121201,18.9403896-18.7121201h20.6622696h-0.7188911
		c-10.0634537,0-16.7214012-8.3285484-16.7214012-18.3920021v-0.2361145c0-9.4287033,6.4243736-17.3945599,15.8124275-18.269165
		c8.3099594-0.7742233,17.4085541-1.4216423,27.830719-1.5670776c28.1096573-0.3923111,27.902977-1.2084599,53.1899567,3.4142094
		c14.9165649,2.7268467,37.6494293,8.8157291,63.6148529,24.0912037"/>
	<path id="XMLID_39_" class="st1" d="M231.8669739,200.223999H280V30.8300648h-48.1330261
		c-14.3078918,0-25.7306061,11.8152943-25.7306061,26.1231899v117.789238
		C206.1363678,189.0503845,217.559082,200.223999,231.8669739,200.223999z M232.2185516,48.2995834
		c6.8944244,0,12.483429,5.5890045,12.483429,12.4834251s-5.5890045,12.4834785-12.483429,12.4834785
		c-6.8944092,0-12.4834747-5.5890579-12.4834747-12.4834785S225.3241425,48.2995834,232.2185516,48.2995834z"/>
</g>
</svg>
