<?xml version="1.0" encoding="utf-8"?>
<!-- Generator: Adobe Illustrator 25.4.1, SVG Export Plug-In . SVG Version: 6.00 Build 0)  -->
<svg version="1.1" id="Layer_1" xmlns="http://www.w3.org/2000/svg" xmlns:xlink="http://www.w3.org/1999/xlink" x="0px" y="0px"
	 width="300px" height="300px" viewBox="0 0 300 300" style="enable-background:new 0 0 300 300;" xml:space="preserve">
<style type="text/css">
	.st0{fill:#0078b9;}
</style>
<g>
	<path class="st0" d="M20,222.8787842c0,11.1502991,9.0390987,20.1893921,20.1893921,20.1893921h219.6212158
		c11.1502991,0,20.1893921-9.039093,20.1893921-20.1893921v-79.280304H20V222.8787842z M219.3318481,189.5665131
		c5.139679,0,9.7987213,2.0161591,13.2655334,5.2833405c3.4667969-3.2671814,8.1257782-5.2833405,13.2653961-5.2833405
		c10.6947174,0,19.3644867,8.6697845,19.3644867,19.3644409c0,10.6947174-8.6697693,19.364502-19.3644867,19.364502
		c-5.1396179,0-9.7985992-2.0161591-13.2653961-5.2833405c-3.4668121,3.2671814-8.1258545,5.2833405-13.2655334,5.2833405
		c-10.6946564,0-19.3644257-8.6697845-19.3644257-19.364502
		C199.9674225,198.2362976,208.6371918,189.5665131,219.3318481,189.5665131z M52.0167122,200.3109436h48.815403
		c5.4391479,0,9.8484802,4.4093323,9.8484802,9.8484802s-4.4093323,9.8484955-9.8484802,9.8484955h-48.815403
		c-5.4391479,0-9.848484-4.4093475-9.848484-9.8484955S46.5775642,200.3109436,52.0167122,200.3109436z"/>
	<path class="st0" d="M259.8106079,56.9318199H40.1893921C29.0390987,56.9318199,20,65.9709167,20,77.1212158v19.6969681h260
		V77.1212158C280,65.9709167,270.960907,56.9318199,259.8106079,56.9318199z"/>
</g>
</svg>
