<?xml version="1.0" encoding="utf-8"?>
<!-- Generator: Adobe Illustrator 25.4.1, SVG Export Plug-In . SVG Version: 6.00 Build 0)  -->
<svg version="1.1" id="Layer_1" xmlns="http://www.w3.org/2000/svg" xmlns:xlink="http://www.w3.org/1999/xlink" x="0px" y="0px"
	 width="300px" height="300px" viewBox="0 0 300 300" style="enable-background:new 0 0 300 300;" xml:space="preserve">
<style type="text/css">
	.st0{fill:none;stroke:#EDD567;stroke-width:2;stroke-miterlimit:10;}
	.st1{fill:none;stroke:#0078b9;stroke-width:20;stroke-linecap:round;stroke-linejoin:round;stroke-miterlimit:10;}
	.st2{fill:#0078b9;}
</style>
<g>
	<path class="st0" d="M118.532074,268.532074"/>
	<path class="st0" d="M247.7063904,239.9082336"/>
	<polyline class="st1" points="118.532074,268.532074 110.4587784,31.4679184 280,53.4862595 247.7063904,239.9082336 	"/>
	<path class="st2" d="M112.4021759,88.534668c3.0062943,0.1008682,20.8871155,0.4019928,35.120697-13.7640152
		c14.9097443-14.8389969,14.0362854-33.8269653,13.8558044-36.6897812l-50.919899-6.6129532L112.4021759,88.534668z"/>
	<path class="st2" d="M270.8436584,106.3434219c-0.0289001,0-0.0565796,0.0043259-0.0854797,0.0043259
		c-25.1316071,0-45.5046082-20.3730316-45.5046082-45.5046387c0-4.9522209,0.8169556-9.7074661,2.2796326-14.1706619L280,53.4862595
		L270.8436584,106.3434219z"/>
	<polyline class="st1" points="76.6972275,64.4954147 20,76.5101013 86.605484,249.9999237 	"/>
	<path class="st2" d="M39.6770134,127.7634888c17.1604309-0.3686295,30.965168-14.3678284,30.965168-31.6167068
		c0-11.5206375-6.1755905-21.5733795-15.3768196-27.1096649L20,76.5101013L39.6770134,127.7634888z"/>
	<g>
		<g>
			<path class="st2" d="M183.9120178,239.0623627c-21.7724457-0.9615784-38.2758484-14.2058868-37.5716248-30.1516113
				l17.7497253,0.783905c-0.1924591,4.3576965,7.7389832,11.0497284,20.6057892,11.617981
				c12.8668213,0.5682526,21.3573303-5.3985138,21.5497894-9.7562103c0.1924286-4.3572845-7.7390137-11.0493164-20.605835-11.617569
				c-21.7724457-0.9615479-38.2758484-14.2058868-37.5716248-30.1515961s18.3109436-27.6833649,40.0833893-26.7218018
				c21.7724457,0.9615479,38.2758636,14.2056732,37.5716248,30.1513672l-17.7497101-0.783905
				c0.1924438-4.3574677-7.7389984-11.0495148-20.6058197-11.6177368
				c-12.866806-0.5682526-21.3573151,5.3985138-21.5497589,9.7559967
				c-0.1924591,4.3576813,7.7389832,11.0497284,20.6058044,11.617981
				c21.7724304,0.9615631,38.2758636,14.2054443,37.57164,30.1511688
				C223.2911682,228.2860413,205.6844635,240.0239258,183.9120178,239.0623627z"/>
		</g>
		<polygon class="st2" points="197.4249725,134.4347839 179.6752472,133.6508789 174.4100494,252.869751 192.5466919,244.892868 		
			"/>
	</g>
</g>
</svg>
