<?xml version="1.0" encoding="utf-8"?>
<!-- Generator: Adobe Illustrator 25.4.1, SVG Export Plug-In . SVG Version: 6.00 Build 0)  -->
<svg version="1.1" id="Layer_1" xmlns="http://www.w3.org/2000/svg" xmlns:xlink="http://www.w3.org/1999/xlink" x="0px" y="0px"
	 width="300px" height="300px" viewBox="0 0 300 300" style="enable-background:new 0 0 300 300;" xml:space="preserve">
<style type="text/css">
	.st0{fill:#0078B9;}
</style>
<path class="st0" d="M64.6373672,28.6269588c1.1960907,68.4155655,2.3921509,136.831131,3.5882339,205.2466888
	c0.1316528,7.5305176,9.2967911,11.1489868,14.5372925,5.7394409
	c12.9893951-13.4084015,25.9787903-26.8167877,38.9681931-40.2252197
	c11.5835648,25.2264557,23.1671677,50.4529114,34.7507553,75.6793671c2.0613098,4.4891052,7.5136871,6.2652588,11.8236389,3.8517151
	c9.3621979-5.2428589,18.724411-10.4856873,28.0866089-15.7285156c3.8331146-2.1465454,5.3858185-6.8695374,3.5741425-10.8718262
	c-11.03302-24.3737946-22.0660248-48.7476044-33.0990601-73.1213989c20.1399841-0.949295,40.2799377-1.8985901,60.4199219-2.8478851
	c7.5375366-0.3552856,10.8751678-9.6526337,5.2845612-14.7207489
	c-51.2637787-46.4727631-102.5275421-92.9455719-153.7913208-139.418335
	C73.2901306,17.2331352,64.5078354,21.2176991,64.6373672,28.6269588z"/>
</svg>
