<?xml version="1.0" encoding="utf-8"?>
<!-- Generator: Adobe Illustrator 25.4.1, SVG Export Plug-In . SVG Version: 6.00 Build 0)  -->
<svg version="1.1" id="Layer_1" xmlns="http://www.w3.org/2000/svg" xmlns:xlink="http://www.w3.org/1999/xlink" x="0px" y="0px"
	 width="300px" height="300px" viewBox="0 0 300 300" style="enable-background:new 0 0 300 300;" xml:space="preserve">
<style type="text/css">
	.st0{fill:#17BEE5;}
</style>
<path class="st0" d="M249.553894,35.1823387H50.446106C33.6311874,35.1823387,20,48.8135262,20,65.6284485v117.9182129
	c0,16.8149109,13.6311874,30.446106,30.446106,30.446106h20.6535034l27.701973,45.7685242
	c4.1231308,6.8121338,14.0357132,6.7239075,18.0369263-0.160553l26.5071335-45.6079712h106.208252
	c16.8149109,0,30.446106-13.6311951,30.446106-30.446106V65.6284485C280,48.8135262,266.3688049,35.1823387,249.553894,35.1823387z
	 M112.7811279,136.420929l-13.1855469,12.8527222c-1.071228,1.0442505-1.5600586,2.5487061-1.3071899,4.0231323
	l3.1126709,18.1483765c0.6368408,3.7130737-3.260376,6.5445557-6.5949097,4.7915039l-16.2982178-8.5684814
	c-1.3241577-0.696167-2.9060059-0.696167-4.2301636,0l-16.2982178,8.5684814
	c-3.3345337,1.7530518-7.2317505-1.0784302-6.5949097-4.7915039l3.1126709-18.1483765
	c0.2528687-1.4744263-0.2359619-2.9788818-1.3071899-4.0231323L40.0045776,136.420929
	c-2.6976929-2.6295776-1.2090454-7.2110596,2.519043-7.7527466l18.2219849-2.6478271
	c1.4804077-0.2151489,2.7601929-1.1449585,3.4222412-2.4864502l8.1491089-16.5119019
	c1.6672974-3.3782349,6.4844971-3.3782349,8.1517944,0l8.1491089,16.5119019
	c0.6620483,1.3414917,1.9418335,2.2713013,3.4223022,2.4864502l18.2219238,2.6478271
	C113.9902344,129.2098694,115.4788208,133.7913513,112.7811279,136.420929z M171.9691162,153.5415344l-19.4455566-10.2231445
	c-1.579895-0.8305664-3.4672241-0.8305664-5.0471191,0l-19.4455566,10.2231445
	c-3.9784546,2.0916138-8.6282959-1.2866821-7.8684692-5.7167969l3.7137451-21.6530151
	c0.3017578-1.7591553-0.2814941-3.5541382-1.5596313-4.8000488l-15.7318115-15.3347168
	c-3.2186279-3.1373901-1.4425659-8.6035767,3.0054932-9.249939l21.7408447-3.1591187
	c1.7662964-0.2566528,3.2932129-1.3660278,4.0831299-2.9666138l9.7228394-19.7005005
	c1.9891968-4.0306396,7.7367554-4.0306396,9.7259521,0l9.7228394,19.7005005
	c0.789917,1.6005859,2.3168335,2.7099609,4.0831299,2.9666138l21.7408447,3.1591187
	c4.4480591,0.6463623,6.2241211,6.1125488,3.0054932,9.249939l-15.7318115,15.3347168
	c-1.2781372,1.2459106-1.8613892,3.0408936-1.5596313,4.8000488l3.7137451,21.6530151
	C180.5974121,152.2548523,175.9475708,155.6331482,171.9691162,153.5415344z M259.9954224,136.420929l-13.1855469,12.8527222
	c-1.071228,1.0442505-1.5600586,2.5487061-1.3071899,4.0231323l3.1126709,18.1483765
	c0.6368408,3.7130737-3.260376,6.5445557-6.5949097,4.7915039l-16.2982178-8.5684814
	c-1.3241577-0.696167-2.9060669-0.696167-4.2301636,0l-16.2982178,8.5684814
	c-3.3345337,1.7530518-7.2317505-1.0784302-6.5949097-4.7915039l3.1126709-18.1483765
	c0.2528687-1.4744263-0.2359619-2.9788818-1.3071899-4.0231323l-13.1855469-12.8527222
	c-2.6976929-2.6295776-1.2091064-7.2110596,2.519043-7.7527466l18.2219238-2.6478271
	c1.4804688-0.2151489,2.7602539-1.1449585,3.4223022-2.4864502l8.1491089-16.5119019
	c1.6672363-3.3782349,6.4844971-3.3782349,8.1517944,0l8.1491089,16.5119019
	c0.6620483,1.3414917,1.9418335,2.2713013,3.4222412,2.4864502l18.2219849,2.6478271
	C261.2044678,129.2098694,262.6931152,133.7913513,259.9954224,136.420929z"/>
</svg>
