<?xml version="1.0" encoding="utf-8"?>
<!-- Generator: Adobe Illustrator 25.4.1, SVG Export Plug-In . SVG Version: 6.00 Build 0)  -->
<svg version="1.1" id="Layer_1" xmlns="http://www.w3.org/2000/svg" xmlns:xlink="http://www.w3.org/1999/xlink" x="0px" y="0px"
	 width="300px" height="300px" viewBox="0 0 300 300" style="enable-background:new 0 0 300 300;" xml:space="preserve">
<style type="text/css">
	.st0{fill:none;stroke:#0078b9;stroke-width:16;stroke-linecap:round;stroke-linejoin:round;stroke-miterlimit:10;}
	.st1{fill:#0078b9;}
</style>
<g>
	<path id="XMLID_37_" class="st0" d="M94.0397339,125.7180557c0,0,27.2524338-13.4714279,38.8502808-25.1110687
		c27.6347504-27.7345352,31.3059235-62.5665627,32.0152588-73.8240814
		c17.2809143-1.5793476,27.0402832,4.331604,30.2129211,6.8662529c17.9079285,14.3069229,20.787674,49.3844147-1.6413727,87.7935104
		h-28.8410492h92.9801331c10.4604797,0,18.9403992,8.2516251,18.9403992,18.7121201s-8.4799194,18.7121277-18.9403992,18.7121277
		h-20.662262h24.105957c10.4605103,0,18.9403992,8.7440338,18.9403992,19.2045441
		c0,10.460495-8.4798889,19.2045441-18.9403992,19.2045441h-24.105957h20.662262
		c10.4604797,0,18.9403992,8.2516174,18.9403992,18.7121124c0,10.4605103-8.4799194,18.7121277-18.9403992,18.7121277h-20.662262
		h0.7189026c10.063446,0,16.7213898,8.3285522,16.7213898,18.3919983v0.2361145
		c0,9.4286957-6.4243622,17.394577-15.8124237,18.2691803c-8.3099518,0.7742004-17.4085541,1.4216309-27.830719,1.5670776
		c-28.1096497,0.3923035-27.9029846,1.2084351-53.1899567-3.4142151
		c-14.9165649-2.7268372-37.6494293-8.8157349-63.6148529-24.0912018"/>
	<path id="XMLID_39_" class="st1" d="M68.1330261,99.7759933H20v169.3939209h48.1330261
		c14.3078918,0,25.7306137-11.8152771,25.7306137-26.1231689V125.2575073
		C93.8636398,110.9496155,82.440918,99.7759933,68.1330261,99.7759933z M67.7814407,251.7004089
		c-6.8944206,0-12.4834213-5.5889893-12.4834213-12.4834137s5.5890007-12.48349,12.4834213-12.48349
		s12.4834824,5.5890656,12.4834824,12.48349S74.6758652,251.7004089,67.7814407,251.7004089z"/>
</g>
</svg>
