<?xml version="1.0" encoding="utf-8"?>
<!-- Generator: Adobe Illustrator 25.4.1, SVG Export Plug-In . SVG Version: 6.00 Build 0)  -->
<svg version="1.1" id="Layer_1" xmlns="http://www.w3.org/2000/svg" xmlns:xlink="http://www.w3.org/1999/xlink" x="0px" y="0px"
	 width="446.2386169px" height="96.3868637px" viewBox="0 0 446.2386169 96.3868637"
	 style="enable-background:new 0 0 446.2386169 96.3868637;" xml:space="preserve">
<style type="text/css">
	.st0{fill:#0078b9;}
	.st1{fill:#E6E6E6;}
</style>
<g>
	<path class="st0" d="M60.2024651,72.9202576c0.0060272,0.5870514-0.0985031,1.1337433-0.3135796,1.6403122
		s-0.504528,0.9446793-0.8683548,1.3145828c-0.3618164,0.3718567-0.7939835,0.6653214-1.296505,0.880394
		c-0.500515,0.215065-1.0351944,0.3256073-1.6020393,0.3317413c-0.5025215,0.006012-1.0130806-0.0824432-1.5296707-0.2674561
		c-0.5165939-0.1828003-0.9748955-0.482399-1.3789215-0.8964691l-30.2357082-30.909111l0.3376942,31.7935562l-8.1850662,0.0864944
		l-0.4422216-41.644989c-0.0100527-0.8402748,0.2191019-1.6039963,0.6834297-2.2915268
		c0.4643278-0.6854477,1.0633345-1.2019539,1.7950087-1.5457191c0.7718716-0.3236465,1.5678654-0.410017,2.3879814-0.261322
		c0.820118,0.148695,1.5276623,0.5246048,2.1226501,1.1276054L51.9128685,63.155323l-0.3376923-31.7935581l8.1850662-0.0884552
		L60.2024651,72.9202576z"/>
	<path class="st0" d="M110.5424271,75.8784637l-29.5281525,0.3155441c-1.1316833,0.0120239-2.373909-0.1748276-3.720665-0.5588303
		c-1.3467636-0.385849-2.5970306-1.0271301-3.750824-1.9276428c-1.1537857-0.9024734-2.1206436-2.0764542-2.902565-3.52771
		c-0.7819214-1.4492874-1.1839371-3.2342453-1.2060471-5.3527832l-0.3135757-29.5281639
		c-0.0060272-0.5669289,0.0924606-1.1035576,0.2975006-1.6101303c0.2050247-0.5065689,0.4884415-0.9487267,0.852272-1.3306503
		c0.3618088-0.3819199,0.7959976-0.6794338,1.2965088-0.8945026c0.5004959-0.2150669,1.0452423-0.3256073,1.6321869-0.3316193
		l36.8629532-0.3919811l0.0864258,8.1830254l-32.80056,0.3497772l0.2713547,25.4657898
		c0.0120621,1.0712891,0.3035202,1.885437,0.8764038,2.446228c0.5728683,0.5607986,1.4050446,0.8341446,2.4945068,0.8221207
		l29.4658432-0.3115005L110.5424271,75.8784637z M106.6629715,57.472023l-25.8436737,0.2754288l-0.0884399-8.2473145
		l25.8436584-0.2754288L106.6629715,57.472023z"/>
	<polygon class="st0" points="138.7523804,46.5523643 152.3686981,30.2888775 163.5427704,30.1702404 144.3625183,53.008831 
		163.8985443,75.3106689 152.78479,75.429306 138.8910675,59.5857773 125.3993759,75.7208099 114.2574768,75.839325 
		133.2829437,53.1274681 113.7127533,30.7008572 124.7943497,30.5823421 	"/>
	<polygon class="st0" points="209.5892029,37.8655891 191.5527191,38.0566101 191.9446716,75.0120544 183.7616119,75.1005096 
		183.36763,38.1450691 165.2989807,38.335968 165.2125397,30.1529408 209.5027466,29.6806011 	"/>
	<path class="st0" d="M280.5566711,74.0708084l-8.1850891,0.0863724l-0.1165771-11.081604L243.482666,63.383152l0.118576,11.0796394
		l-8.1850586,0.0884552l-0.239212-22.5712585c-0.0361938-3.2946053,0.4985046-6.3318176,1.6020355-9.1158066
		c1.1055603-2.7819023,2.6533356-5.1799202,4.6473083-7.1960182c1.9919891-2.0141335,4.3578644-3.5921211,7.0956116-4.7338352
		c2.7377319-1.1417141,5.7327728-1.7286434,8.9850922-1.7648373l18.4465332-0.1949463
		c0.5648499-0.006012,1.1015625,0.0923824,1.6080933,0.2975121c0.5045166,0.2050076,0.948761,0.4924622,1.3326721,0.8662853
		c0.3799133,0.3739471,0.6794128,0.8100948,0.8945007,1.3126163c0.2150574,0.5025215,0.3256531,1.0352249,0.3316345,1.6020317
		L280.5566711,74.0708084z M243.396225,55.19804l28.77034-0.3054886l-0.1869507-17.6906929l-14.3861694,0.1527443
		c-0.2512817,0.0019646-0.7819214,0.0441666-1.5879517,0.1266136c-0.808075,0.0824432-1.738739,0.2773933-2.796051,0.5809174
		c-1.057312,0.3054886-2.168869,0.7678909-3.3387451,1.3889275c-1.1678467,0.6231194-2.2412567,1.4713707-3.2141266,2.552845
		c-0.9769135,1.0814781-1.7748871,2.4281998-2.3980408,4.0402946c-0.6231232,1.6120911-0.9226379,3.5598526-0.8964996,5.847332
		L243.396225,55.19804z"/>
	<path class="st0" d="M334.2467041,69.373291c0.006012,0.5890121-0.0924988,1.135704-0.2975159,1.6422729
		c-0.2050171,0.5046082-0.4924622,0.9427185-0.8663635,1.3145752c-0.375885,0.3718643-0.8120422,0.665329-1.3145752,0.8805161
		c-0.5005188,0.2150726-1.0351868,0.3256149-1.6020508,0.3316193l-18.4465332,0.1949539
		c-1.7407532,0.0201187-3.5056152-0.1507797-5.292572-0.5085373c-1.7889709-0.3598328-3.5196533-0.9225922-5.1980896-1.6945343
		c-1.6764221-0.7677689-3.2563171-1.7528152-4.7377625-2.9547653c-1.4814148-1.2020798-2.7819519-2.6312485-3.9015808-4.2875061
		c-1.1195984-1.6563835-2.0060425-3.5559273-2.6573181-5.7005997c-0.6532898-2.1428337-0.9930115-4.538765-1.0211182-7.1841164
		l-0.2412415-22.5691757l8.1850891-0.0864925l0.2391968,22.5692959c0.0241089,2.3095627,0.3658142,4.2573242,1.0231018,5.8452454
		c0.6573486,1.588047,1.4834595,2.9126854,2.4824829,3.9719582c0.9969788,1.059391,2.0864868,1.8875198,3.2684021,2.4845085
		s2.3035583,1.0352287,3.3669128,1.3165474c1.0632935,0.2835236,1.9980164,0.4563904,2.808075,0.5206757
		c0.8080444,0.0663757,1.3387146,0.0964279,1.5899963,0.0944672l14.3861694-0.1548309l-0.3939819-36.9533539l8.1850586-0.0884552
		L334.2467041,69.373291z"/>
	<polygon class="st0" points="384.1999207,36.007267 366.1633911,36.2002525 366.5553894,73.1556931 358.3722839,73.2421875 
		357.978302,36.286747 339.909668,36.4797287 339.8232117,28.2946186 384.1134338,27.8222771 	"/>
	<path class="st0" d="M437.156189,54.1450272c0.0301514,2.7497559-0.4160767,5.282486-1.3346863,7.602108
		c-0.9206238,2.3155708-2.2110901,4.3236961-3.8714294,6.0201988c-1.662323,1.6985855-3.636261,3.0251846-5.9237366,3.9839783
		c-2.2874756,0.9568253-4.7860107,1.4512482-7.4915466,1.4794693l-11.081604,0.118515
		c-2.7075806,0.0282135-5.2202148-0.4119797-7.5378418-1.3205948c-2.3196411-0.9084854-4.3257141-2.1949692-6.0222168-3.855278
		c-1.6965027-1.6604309-3.0352173-3.6423035-4.0141296-5.9378777c-0.9809265-2.2994995-1.4834595-4.8221664-1.5136108-7.5719261
		l-0.0904236-8.625309c-0.0301514-2.7276764,0.420105-5.2563553,1.350769-7.5860367s2.2251282-4.3357201,3.8854675-6.0222816
		c1.6623535-1.6884041,3.6422729-3.0151291,5.9398193-3.9818935c2.2975464-0.9709358,4.8020935-1.4694099,7.5096741-1.4975052
		l11.0795898-0.1186371c2.7055664-0.0280952,5.2141724,0.416029,7.5237427,1.3366623
		c2.3075867,0.9206352,4.3076477,2.2051563,6.0061646,3.8554058c1.6965027,1.6522102,3.0291748,3.6301537,3.9980469,5.9398346
		c0.9688416,2.3095627,1.4673462,4.8281822,1.4974976,7.5558586L437.156189,54.1450272z M428.8807068,45.6060867
		c-0.0180969-1.6160164-0.2894897-3.0773277-0.8181458-4.3819695c-0.528656-1.3064842-1.2643433-2.4220657-2.2070618-3.3467484
		c-0.9447327-0.9225998-2.0744019-1.6341782-3.3909912-2.1347351c-1.318634-0.5004349-2.7638855-0.743721-4.3377686-0.725563
		l-11.0796204,0.1165504c-1.5959778,0.0180359-3.0452881,0.2915001-4.3518372,0.8180695
		c-1.3065186,0.5286522-2.4261475,1.2644005-3.3608398,2.2090797c-0.9346924,0.9448051-1.6523132,2.0743752-2.1508179,3.3910408
		c-0.5004883,1.3165398-0.7416992,2.783989-0.7256165,4.4001274l0.0924683,8.6232224
		c0.0160828,1.6181068,0.2894592,3.0794182,0.8181152,4.3839378c0.5266113,1.3066025,1.2683411,2.4221878,2.223114,3.3447838
		c0.9548035,0.9246826,2.0905151,1.636261,3.4071045,2.1347313c1.3166199,0.5005646,2.7719116,0.7437286,4.3679199,0.7256927
		l11.0173035-0.1165543c1.5939941-0.018158,3.0452881-0.2895355,4.3518066-0.8181915
		c1.3065491-0.5265694,2.426178-1.2623138,3.3608704-2.2069969c0.9346924-0.9448051,1.6523132-2.0744972,2.1508179-3.391037
		c0.5004883-1.3166656,0.7416687-2.783989,0.7256165-4.4001312L428.8807068,45.6060867z"/>
	<path class="st1" d="M32.6576576,7.8571124c0.0100441,0.8764682-0.0924683,1.662394-0.3075523,2.3538518
		c-0.2150764,0.6935434-0.5005035,1.3045187-0.8603115,1.8352575c-0.3598061,0.5327024-0.7799129,0.986886-1.2643471,1.3668442
		c-0.4844246,0.3798351-0.9869461,0.6934204-1.5055542,0.9407549c-0.5206108,0.2472124-1.0472546,0.428051-1.5839443,0.5426397
		c-0.5366898,0.1126261-1.0412273,0.1728649-1.5135918,0.1788759l-1.5538006,0.0161953l0.074379,6.9629135l-3.8734398,0.0422039
		l-0.0743694-6.9629135l-1.5377159,0.0160713c-0.4723701,0.0039263-0.9789181-0.0442896-1.5176163-0.1467323
		c-0.5387058-0.1025648-1.0733871-0.2734671-1.6020393-0.5086555c-0.5306625-0.2350664-1.0392113-0.5385914-1.5256529-0.9084892
		c-0.4864426-0.3698978-0.9186106-0.8161068-1.2944975-1.338748c-0.3738775-0.5246048-0.6753855-1.1336174-0.9045401-1.8251982
		c-0.2311554-0.6914577-0.3497543-1.4713717-0.3597994-2.3396196l-0.074378-7.0976243l3.8452978-0.042204l0.0743704,7.099587
		c0.0060272,0.5004358,0.0884409,0.9527788,0.2512608,1.3507719s0.387948,0.73771,0.6774015,1.0191517
		c0.2874393,0.2834044,0.6371937,0.4984722,1.0492649,0.6471682c0.4100533,0.148818,0.8663464,0.2210798,1.3688679,0.2150679
		l6.9347954-0.0743475c0.3638248-0.0623245,0.7397041-0.142684,1.1216259-0.2412004
		c0.3839226-0.0964308,0.7316685-0.2613211,1.0452461-0.4924612c0.3135681-0.2291775,0.5708637-0.5468111,0.7738781-0.9547415
		c0.203022-0.4060907,0.2995071-0.9428415,0.2934723-1.6141782l-0.0763798-7.0976243l3.8432808-0.0401183L32.6576576,7.8571124z"/>
	<path class="st1" d="M58.429966,13.1133442c0.0140724,1.2923727-0.1969872,2.48034-0.6271477,3.5699139
		c-0.4321671,1.0894508-1.0392113,2.0321693-1.8191223,2.8281555c-0.7799149,0.7979488-1.7065697,1.4210701-2.7819633,1.8713264
		c-1.0753975,0.4502583-2.2472763,0.6834831-3.5196609,0.695507l-5.2041054,0.0563126
		c-1.2723885,0.0141087-2.4523048-0.1949482-3.5417709-0.6211586c-1.0894661-0.4260883-2.0321999-1.0311737-2.8281937-1.8110886
		c-0.7980042-0.7799149-1.4251518-1.7085247-1.8854599-2.789999c-0.4603119-1.0773058-0.6975021-2.2633104-0.7115707-3.5558062
		l-0.0422134-4.0503521c-0.0140686-1.2824354,0.1969872-2.4704027,0.6351929-3.5639019
		c0.4361839-1.0933766,1.0452461-2.0381808,1.8251495-2.8301182c0.7799149-0.7920601,1.70858-1.4151818,2.7879906-1.8714505
		c1.0814323-0.4522202,2.257328-0.685446,3.5277023-0.6994323l5.204113-0.0563128
		c1.2723846-0.0120232,2.4502907,0.1949479,3.5337296,0.6250846c1.0854492,0.4341853,2.026165,1.0371866,2.8221588,1.8131747
		c0.7980042,0.7739027,1.4231415,1.7044749,1.8774185,2.79c0.4562912,1.0834389,0.6894646,2.2673578,0.7035332,3.5477076
		L58.429966,13.1133442z M54.5424652,9.1031103C54.53442,8.343317,54.405777,7.6578708,54.158535,7.0428462
		c-0.2492523-0.6110983-0.5949898-1.1357031-1.0372009-1.5698886c-0.4442329-0.4341855-0.9748917-0.7678909-1.593998-1.0030799
		c-0.6170998-0.2371516-1.296505-0.3496547-2.0362167-0.34168l-5.204113,0.0542274
		c-0.7497635,0.0080972-1.4311867,0.1367946-2.0442619,0.3859696c-0.6150856,0.2472119-1.1397133,0.5929408-1.5799255,1.0371866
		c-0.4381943,0.4422827-0.7758904,0.9749846-1.0090599,1.5919719c-0.2371902,0.6191959-0.3497543,1.3085675-0.3417206,2.0663981
		l0.0442314,4.0523148c0.0080338,0.7599173,0.1346703,1.4473257,0.3839188,2.058424
		c0.2472458,0.6150246,0.5949898,1.1376657,1.0452461,1.5718527c0.4462395,0.434185,0.9809227,0.7678909,1.6000328,1.0029564
		c0.6170959,0.2351894,1.3025322,0.3497772,2.0502892,0.3418026l5.1759644-0.0563126
		c0.7477531-0.0080967,1.4311829-0.136673,2.0442581-0.3838844c0.6130791-0.2473354,1.1397133-0.5930634,1.577919-1.0371857
		c0.4402046-0.4442463,0.7758865-0.9728994,1.0110703-1.594058c0.2351799-0.6171103,0.347744-1.3066053,0.3397102-2.0663986
		L54.5424652,9.1031103z"/>
	<path class="st1" d="M83.0750351,19.4895744c0.0040131,0.2754307-0.0442352,0.5347881-0.1407242,0.7699776
		c-0.0944672,0.2391148-0.2311554,0.4441223-0.4060287,0.619072c-0.1748734,0.1748276-0.3819199,0.3115005-0.6170959,0.4140663
		c-0.2351913,0.1004791-0.4864502,0.1527424-0.75177,0.154829l-8.6654739,0.0923824
		c-0.8181152,0.0100594-1.6462631-0.0702991-2.4864883-0.2392368c-0.8402176-0.1688175-1.6542892-0.434063-2.4422531-0.7959862
		c-0.7859344-0.3618011-1.5296707-0.8240814-2.2251587-1.3889275c-0.695488-0.5627594-1.3065491-1.2342205-1.8311844-2.0120487
		c-0.5266457-0.7779503-0.9427338-1.6703682-1.2502785-2.6774969c-0.3055344-1.0090914-0.4643288-2.1326485-0.4783974-3.3749657
		L61.6676178,0.4500747l3.843277-0.042204l0.1125641,10.6032505c0.0120621,1.0854015,0.1708679,1.9979391,0.4804153,2.7457094
		c0.3075485,0.7458076,0.6975021,1.3668442,1.1658478,1.8654394c0.4683533,0.4984722,0.9809265,0.8864059,1.5356979,1.1657619
		c0.5547867,0.2814407,1.0814285,0.4864483,1.5819397,0.619194c0.4985046,0.1326237,0.9387207,0.2150688,1.3186188,0.2452507
		c0.3799057,0.0300579,0.629158,0.0461292,0.7477493,0.0422039l6.7558975-0.0704231L79.0246964,0.2651871l3.8452988-0.0422039
		L83.0750351,19.4895744z"/>
	<path class="st1" d="M108.600502,7.0778117c0.0100479,0.8784308-0.0904617,1.662394-0.2995071,2.3559375
		c-0.2110596,0.6914577-0.4964905,1.302433-0.8603134,1.8351355c-0.3658371,0.5307388-0.7859421,0.9870081-1.2643433,1.3668432
		c-0.480423,0.3778725-0.9829407,0.6914577-1.5075607,0.9387922c-0.5246353,0.2491751-1.0552979,0.428051-1.5899811,0.5426397
		c-0.5366898,0.1145887-1.0412369,0.1728649-1.5156174,0.1788759l8.1026688,6.8484497l-5.9438248,0.0642872l-8.0865784-6.8504124
		l-2.7658768,0.0301809l-0.0401993-3.8452215l8.6936188-0.0905418c0.4824142-0.0462523,0.9226303-0.1527443,1.3206177-0.3175106
		c0.3980103-0.166853,0.7397232-0.3900185,1.0271606-0.6693745c0.2874374-0.279479,0.5085449-0.6151476,0.6633301-1.0071287
		c0.1527634-0.3898954,0.2271423-0.8361044,0.2211151-1.3407111l-0.0241241-2.4241505
		c-0.0040207-0.2170315-0.0321579-0.3819213-0.0884399-0.4944243c-0.0542755-0.1126256-0.1246338-0.1950707-0.2090607-0.2492976
		c-0.0844193-0.0522642-0.1728668-0.084408-0.267334-0.0925052c-0.0924759-0.0100603-0.1789017-0.0120232-0.2593079-0.0120232
		L91.2212982,3.9803612l0.1849365,17.3571072L87.560936,21.379673L87.3559113,2.1149223
		c-0.0020065-0.2673326,0.0442123-0.5205563,0.1407013-0.7577081c0.0964813-0.2372745,0.2291489-0.4442456,0.4000015-0.6252073
		c0.1708603-0.178876,0.3738708-0.3195967,0.6090622-0.4200765c0.2351761-0.1004798,0.4904556-0.1527439,0.7678452-0.1567926
		l14.5932236-0.1548296c0.8583145-0.0079746,1.5839539,0.1387577,2.1789322,0.4422826
		c0.594986,0.3054879,1.079422,0.6894947,1.4532928,1.1517751c0.3758926,0.4663292,0.6472473,0.9688505,0.8160934,1.5075642
		c0.166832,0.5427625,0.2552795,1.0472469,0.2593079,1.5216732L108.600502,7.0778117z"/>
	<path class="st1" d="M246.8465271,93.6819l0.2050323-3.5478287l0.1849213-6.9629135
		c0.0020294-0.2814407,0.0020294-0.6934204-0.0040131-1.2381439c0.7216034,0.0039215,1.3387146,0.0019608,1.8492737-0.0040512
		c0.3216095-0.0020828,0.8161011-0.0141068,1.4874725-0.0321426c0.6713715-0.0201187,1.1477509-0.0301819,1.4271393-0.0322647
		c0.9588165-0.0099411,1.760849,0.0563126,2.4101105,0.1970291c0.4964752,0.1045303,0.948761,0.2915039,1.3628235,0.5628815
		c0.4120789,0.2712631,0.7819214,0.6270523,1.1075745,1.0673676c0.325592,0.4421616,0.5688171,0.9286118,0.7296448,1.4613113
		c0.1909485,0.6391983,0.2894287,1.3105316,0.2975159,2.0100861c0.0100098,0.9567108-0.1507874,1.8773422-0.4784241,2.7617874
		c-0.3296509,0.886528-0.8261414,1.6242371-1.4874725,2.2191391c-0.6613007,0.5950241-1.4050293,0.9910583-2.2331848,1.1860046
		c-0.8261414,0.1949463-1.7507935,0.2975159-2.7719116,0.3095398l-2.4000397,0.0079727
		C248.3781891,93.6497574,247.8153687,93.6598206,246.8465271,93.6819 M248.494812,92.5119705
		c0.6994934,0.0100632,1.350769,0.012146,1.951767,0.0040512c0.5045166-0.0040512,1.0191345-0.034111,1.5417328-0.0884628
		c0.5246429-0.0542221,0.9929962-0.1486893,1.4070587-0.2874527c0.414093-0.1345825,0.8181-0.3757858,1.2161255-0.7215118
		c0.397995-0.345726,0.7216034-0.7357483,0.9708405-1.1718979c0.2512665-0.4362717,0.4362183-0.9227219,0.5568237-1.4613113
		c0.120575-0.5367508,0.178894-1.0814743,0.1728516-1.630249c-0.0060425-0.6211548-0.0944519-1.1939774-0.2593079-1.7185822
		c-0.1668396-0.5266953-0.446228-1.0009995-0.8382111-1.421196c-0.3899536-0.4200745-0.8522644-0.6974716-1.3849335-0.8321762
		c-0.5306549-0.1345901-1.2341919-0.1969147-2.1065826-0.1889343c-1.0713501,0.012146-2.0522919,0.0301743-2.9407501,0.0582733
		L248.494812,92.5119705z"/>
	<path class="st1" d="M266.7767639,92.1030579c-0.0663452,0.3155518-0.1306763,0.7175903-0.1929932,1.2061234
		c-0.5507812,0.1446457-1.0271606,0.2412033-1.4311523,0.295433c-0.4040527,0.0522614-0.8060608,0.0803528-1.2080994,0.0864868
		c-0.7155762,0.0079803-1.3608093-0.0723801-1.9336853-0.2372742c-0.572876-0.1668472-1.0653381-0.4622803-1.477417-0.8844376
		c-0.4120789-0.4220428-0.7095642-0.908493-0.8924866-1.4593506c-0.184906-0.5466919-0.2794189-1.1276093-0.2854309-1.74263
		c-0.0080261-0.8543854,0.146759-1.6503677,0.4643555-2.3840332c0.3195801-0.7356262,0.8059998-1.3145752,1.4572754-1.7406693
		c0.6532898-0.4262085,1.4834595-0.6432419,2.4945374-0.6553879c0.5205994-0.0039215,1.0211182,0.0663757,1.4975281,0.2131042
		c0.478363,0.1467361,0.8763733,0.3718643,1.1959839,0.6794357c0.3175964,0.3054886,0.566864,0.6874084,0.7437439,1.141716
		s0.267334,0.9508133,0.2733765,1.4895325c0.0019836,0.2069702-0.0120544,0.4080505-0.0462646,0.6029968l-6.5629272,0.0683365
		c-0.0200806,0.3175125-0.0301514,0.5588379-0.0281372,0.7236023c0.0080566,0.6030045,0.1387024,1.1558228,0.3980103,1.6623917
		c0.2572937,0.5044861,0.6331787,0.8844452,1.1296692,1.1396332c0.4964905,0.2573929,1.0653381,0.3799591,1.7085571,0.3739471
		C264.8209229,92.673912,265.7194519,92.4809341,266.7767639,92.1030579 M260.9334412,88.068779l5.1277161-0.0542297
		c-0.0100708-0.3618011-0.0361938-0.6411514-0.0783997-0.8442001c-0.0422058-0.1989975-0.1185913-0.4060898-0.2291565-0.6211548
		c-0.1125488-0.2131119-0.261322-0.397995-0.4502563-0.5527039c-0.1869202-0.1567917-0.4120483-0.2754288-0.6733704-0.3557892
		c-0.2633362-0.0783997-0.5447388-0.1186371-0.8502808-0.1145859c-0.3256226,0.0040436-0.6371765,0.0522614-0.9306641,0.1467285
		c-0.2954712,0.0944672-0.5547791,0.2251282-0.7778931,0.3879318c-0.2271423,0.1628036-0.4160767,0.3517456-0.5708618,0.5688934
		c-0.1567993,0.2170334-0.2713928,0.4260941-0.3477478,0.6270523
		C261.0781555,87.4597626,261.0037537,87.729187,260.9334412,88.068779"/>
	<path class="st1" d="M269.4833374,86.1109543c0.0482178-0.2532196,0.1004639-0.6270447,0.1527405-1.1215897
		c0.6854248-0.18293,1.2824402-0.3115005,1.7889709-0.3838882c0.5065308-0.0723801,1.0010071-0.1085739,1.4834595-0.1145859
		c0.5166016-0.006012,0.9989929,0.0361938,1.4512634,0.1266098c0.4502563,0.0904236,0.8261414,0.2392349,1.1276855,0.4482956
		c0.299469,0.209053,0.5004883,0.4502563,0.6010132,0.7236023c0.1004944,0.2754288,0.152771,0.5708542,0.1567688,0.8844376
		c0.0040283,0.3960342-0.0201111,1.0613556-0.070343,1.9940186c-0.0482483,0.9326553-0.0844421,1.7950134-0.108551,2.5869522
		c-0.0241394,0.7919388-0.0321655,1.4975052-0.0241394,2.1166992c-0.3095398-0.0080948-0.5628357-0.0100555-0.7578125-0.0080948
		c-0.184906,0.0019608-0.446228,0.0100632-0.7839355,0.0241699l0.1567993-2.3498077l0.1025391-2.7820206
		c-0.2010193,0.1588745-0.349762,0.2694168-0.4502869,0.3337021c-0.0984802,0.0642929-0.2110596,0.124649-0.337677,0.1809616
		c-0.1246338,0.0542297-0.2633362,0.1084595-0.4161072,0.1566696c-0.1507568,0.052269-0.446228,0.1387634-0.8843994,0.2634125
		c-0.4362183,0.1266098-0.7477722,0.221077-0.9306946,0.2874527c-0.3939819,0.1285706-0.7055359,0.2592316-0.9346924,0.3879318
		c-0.2271118,0.1285706-0.4180908,0.2692947-0.572876,0.4181137c-0.1527405,0.1506577-0.2593079,0.3014374-0.3215942,0.4522171
		c-0.0723877,0.1848907-0.1065674,0.3759079-0.1045227,0.5768738c0.0019836,0.3095322,0.0964966,0.578949,0.2833862,0.8060455
		c0.184967,0.227211,0.4181213,0.3840027,0.6975098,0.4703751c0.2794189,0.0864944,0.6130981,0.1266098,1.0030518,0.1226883
		c0.2412109-0.0020905,0.4924622-0.0222092,0.7557678-0.058403c0.2633667-0.0360641,0.6150818-0.1266098,1.0553284-0.2712555
		c-0.076416,0.2230453-0.1648254,0.5668106-0.2633362,1.0271225c-0.4180908,0.0844116-0.7578125,0.1386337-1.0211182,0.1608429
		c-0.2653198,0.0220871-0.5125732,0.0360718-0.7497864,0.0381546c-0.7859192,0.0079727-1.3990173-0.0764313-1.8432312-0.2553101
		c-0.4442444-0.1788712-0.7779236-0.4542999-0.9990234-0.828125c-0.2210999-0.3739471-0.3356628-0.7820053-0.3396912-1.2221985
		c-0.0020142-0.2592392,0.0341797-0.4963913,0.108551-0.7155075s0.1768799-0.4181137,0.3075562-0.5969849
		c0.1306458-0.1790009,0.3155518-0.3598404,0.5567627-0.540802c0.2432251-0.1808395,0.496521-0.3275681,0.7618103-0.4462051
		c0.2653503-0.1186371,0.5769043-0.2351913,0.9306946-0.3497772c0.3557739-0.1165543,0.9246216-0.2713852,1.7085571-0.4703827
		c0.2512817-0.0602341,0.4643555-0.1205978,0.6412354-0.1829224c0.178894-0.0622025,0.3356934-0.1225662,0.4723511-0.1808395
		c0.1367188-0.0582733,0.2573242-0.1266098,0.3598328-0.2070923c0.102478-0.0783997,0.196991-0.1728668,0.2814026-0.2874527
		c0.0844421-0.1125031,0.1467285-0.2251282,0.184906-0.3395996c0.038208-0.1166687,0.0583191-0.2312622,0.0562744-0.3458481
		c-0.0019836-0.2813187-0.0964355-0.5205536-0.2833862-0.7195511c-0.1849365-0.1989975-0.4261475-0.3376312-0.7216492-0.4140701
		c-0.2974854-0.078392-0.6452332-0.1126251-1.0472412-0.1105347c-0.3738708,0.006012-0.7557678,0.0401154-1.1477661,0.1024399
		c-0.3919373,0.0644073-0.7296448,0.1407242-1.0130615,0.2272186
		C270.2591858,85.8114777,269.9074402,85.9380951,269.4833374,86.1109543"/>
	<path class="st1" d="M278.3807678,93.3469696c0.0944824-1.7667999,0.1849365-3.86129,0.267334-6.2854462
		c0.0563049-1.76091,0.0904541-3.5820541,0.1045532-5.4654083l0.802002,0.0019608
		c0.1648254-0.0040436,0.4201355-0.0080948,0.7658386-0.0180283l-0.2110596,5.0533066l-0.1366882,5.1136703l-0.0160522,1.5838776
		c-0.3397217-0.0079803-0.5929871-0.0120239-0.7578125-0.0099411
		C279.1305237,93.320961,278.8571777,93.3309021,278.3807678,93.3469696"/>
	<path class="st1" d="M281.914917,93.1457672l-0.0583191-0.6310959c0-0.0704269-0.026123-0.2894211-0.0763855-0.6573563
		c0.8884583,0.3739471,1.7045593,0.5588379,2.4502869,0.5508652c0.3899536-0.006134,0.7175903-0.0603638,0.986969-0.1648941
		c0.2693481-0.1064911,0.4703674-0.261322,0.6030273-0.4663239c0.1306458-0.2050095,0.1969604-0.4140701,0.1949768-0.6312256
		c-0.0020447-0.1205978-0.0201111-0.2411957-0.0603027-0.3597107c-0.0381775-0.1205978-0.0944824-0.2351913-0.1708679-0.345726
		c-0.0763855-0.1105423-0.1869507-0.2332306-0.3356628-0.3658524c-0.146759-0.1327438-0.4542847-0.3840103-0.9206543-0.7518234
		c-0.464325-0.3678055-0.8180847-0.6552582-1.057312-0.8602676c-0.2411804-0.2070923-0.4482117-0.4200821-0.6190796-0.6391983
		s-0.29953-0.4401932-0.3799133-0.6633606c-0.0844421-0.2231674-0.1266479-0.4502563-0.1286316-0.6794357
		c-0.0040283-0.3658447,0.108551-0.7236023,0.337677-1.0693283c0.2271423-0.345726,0.5608215-0.607048,0.9970093-0.7819977
		c0.4381714-0.1728668,0.9527893-0.2632828,1.541748-0.2692947c0.6613159-0.0081024,1.3869629,0.0623245,2.1789246,0.209053
		c0.0281372,0.4482956,0.0622864,0.8563461,0.1005249,1.2282104c-0.6452637-0.2553101-1.2804565-0.3819199-1.9056091-0.3759079
		c-0.337677,0.0040436-0.6532593,0.0522614-0.9406738,0.1446457c-0.2894897,0.0925064-0.5005493,0.2291718-0.6331787,0.4080505
		c-0.1326904,0.1790009-0.1970215,0.3739471-0.1950073,0.5870514c0.0020142,0.136673,0.0241089,0.267334,0.0723572,0.3939438
		c0.0462341,0.1266174,0.1306763,0.261322,0.2492371,0.4059677c0.1186218,0.1447678,0.2633667,0.2895432,0.4301758,0.4302597
		c0.1688538,0.1426849,0.502533,0.4079285,1.0030518,0.7979507c0.5004883,0.3898926,0.8442383,0.6794357,1.0291443,0.8662872
		c0.1849365,0.1890564,0.3457336,0.3819199,0.4804077,0.5809174c0.1326904,0.1989975,0.2311707,0.3979874,0.293457,0.5950241
		c0.0623474,0.1970367,0.0945129,0.397995,0.0964966,0.6050873c0.0040283,0.4019165-0.1105347,0.7758636-0.3457336,1.123558
		c-0.2331543,0.345726-0.5849304,0.6171112-1.0532837,0.8120575c-0.4683533,0.1929855-0.9949646,0.2935867-1.579895,0.2995987
		c-0.2472534,0.0039291-0.5367126-0.0100632-0.8703918-0.0382767c-0.331665-0.0280991-0.6150818-0.0622025-0.8482361-0.1024475
		C282.5500793,93.290535,282.258606,93.2282104,281.914917,93.1457672"/>
	<path class="st1" d="M292.343811,93.199501l1.5336914-2.9769745l3.9096069-7.8473587l0.4542847-0.9849167l0.9990234-0.0019684
		c0.3095398-0.0040436,0.6472168-0.0100555,1.0070496-0.0201187l1.5336914,4.2010117l2.8321838,7.4996643l-0.8180847-0.0100555
		c-0.1547546,0.0020828-0.4602966,0.0120163-0.9205933,0.0282135c-0.1608276-0.5487747-0.4261475-1.3427963-0.7940063-2.3840332
		c-0.369873-1.0412369-0.681427-1.8834686-0.9346924-2.5286789l-4.6995544,0.0503006l-1.2201538,2.5869598l-1.0733643,2.367836
		l-0.8844604-0.0079727C293.1257324,93.1733704,292.8161926,93.1814651,292.343811,93.199501 M296.9408875,87.0827484
		l3.8674011-0.0421982l-1.6462708-4.5326309L296.9408875,87.0827484z"/>
	<path class="st1" d="M310.3660583,91.8710556c-0.0603333,0.2814484-0.1246338,0.6553879-0.1949768,1.1217194
		c-0.38797,0.0944672-0.6974792,0.1547089-0.9266663,0.1808395c-0.2291565,0.0261307-0.4462585,0.0402451-0.6532898,0.0422058
		c-0.5105286,0.006134-0.9226074-0.0542297-1.2361755-0.1808395c-0.3156128-0.1266098-0.5567932-0.3296585-0.725647-0.61306
		c-0.1708374-0.2814407-0.2572937-0.665329-0.2633057-1.153862c0-0.0623245,0.0019836-0.1748276,0.006012-0.3356705
		s0.0281372-0.7195511,0.070343-1.6783447l0.1688538-3.8573608l-1.1497498,0.0120163
		c0.0200806-0.2411957,0.0361633-0.5849609,0.0502319-1.0331345l1.1719055-0.012146
		c0.026123-0.3215561,0.0482178-0.8683701,0.0703125-1.6442337c0.5346985-0.1085815,0.9909973-0.2110214,1.3608398-0.307579
		c-0.0301514,0.8503418-0.0462036,1.4955444-0.0482483,1.9378281l2.3919983-0.0261307
		c-0.026123,0.3618011-0.0401917,0.7054443-0.0401917,1.0331345l-2.381958,0.0241699l-0.1788635,4.8482971l-0.0040283,0.3697815
		c0.0040283,0.4181137,0.0542603,0.7316971,0.1507568,0.9407501c0.0964661,0.2070999,0.2412109,0.3577576,0.4301453,0.4462128
		c0.1909485,0.090538,0.3879395,0.1347046,0.5949707,0.1327438c0.1427307-0.0020828,0.2974854-0.0160675,0.4623413-0.0402374
		C309.6585083,92.0539856,309.9499817,91.9856491,310.3660583,91.8710556"/>
	<path class="st1" d="M318.5352478,92.919899c0.1326599-1.6984634,0.2291565-3.4150848,0.2914429-5.1497421l-3.8493042-6.5589066
		h0.9165955c0.184967-0.0040512,0.4723816-0.0080948,0.8683777-0.018158
		c0.2753601,0.5688934,0.7035217,1.3528595,1.2844238,2.3538513c0.5789185,0.9990311,1.127655,1.9799042,1.6442566,2.9427414
		l2.9508362-4.7075806l0.3778687-0.6573486c0.3799133,0.0020828,0.6834412,0.0020828,0.9125977,0l0.8602905-0.0180359
		l-3.3769226,5.1136703l-1.0593262,1.6382294l-0.1266479,3.9236145l-0.0040283,1.1196289
		c-0.4100342-0.0079727-0.6914368-0.0100555-0.8462219-0.0079727
		C319.2247009,92.8958511,318.9432678,92.9038315,318.5352478,92.919899"/>
	<path class="st1" d="M329.6596375,83.887764c0.6010132-0.0080948,1.1759338,0.0723877,1.7226562,0.2392426
		c0.5467529,0.1647644,1.0231323,0.4341812,1.4251404,0.8019943c0.4020386,0.3678131,0.7095947,0.8362274,0.9226379,1.4010696
		c0.2130737,0.5647278,0.3216248,1.1638031,0.3296509,1.794899c0.0060425,0.6815186-0.0984802,1.3387451-0.311554,1.9659195
		c-0.2150879,0.6271667-0.5186157,1.1618347-0.9125671,1.6000671c-0.3939819,0.4421616-0.878418,0.7658081-1.4533081,0.9748611
		c-0.572876,0.2110214-1.1899719,0.3195953-1.8492737,0.3256073c-0.6130676,0.0081024-1.1940002-0.078392-1.7407532-0.2553101
		c-0.5487366-0.1788712-1.0211182-0.4603119-1.4251404-0.8461609c-0.4020081-0.3859711-0.7095642-0.8603973-0.9226379-1.4231567
		c-0.2130737-0.5628815-0.3236084-1.153862-0.3296509-1.772934c-0.0100403-0.9346237,0.1708679-1.7789459,0.5407104-2.5327301
		c0.3718567-0.7516937,0.9226379-1.3165436,1.6523132-1.6944122
		C328.0375061,84.0887222,328.8214417,83.8958664,329.6596375,83.887764 M329.6315308,84.9791794
		c-0.5829468,0.006134-1.1196289,0.1588745-1.6060791,0.4563904c-0.4864197,0.2973938-0.8442383,0.7416382-1.0713501,1.3326187
		c-0.229187,0.5909729-0.3397217,1.232254-0.3316956,1.9256744c0.0060425,0.6090088,0.108551,1.153862,0.3075562,1.636261
		c0.2010193,0.4843674,0.5266418,0.8722992,0.974884,1.1637955c0.4502563,0.295433,0.9909668,0.4382401,1.6201172,0.4301376
		c0.4301758-0.0040436,0.8362122-0.0803604,1.2181396-0.2311401c0.381897-0.1507797,0.7155762-0.3960266,0.9969788-0.737709
		c0.2834167-0.3416824,0.4904785-0.7578278,0.6231384-1.2502899s0.1949768-1.0089722,0.1889343-1.545723
		c-0.0040283-0.5065689-0.0783997-0.9789047-0.2210999-1.4191055c-0.1407166-0.4401932-0.3558044-0.7919388-0.6412354-1.0553436
		c-0.2874146-0.2632828-0.6090393-0.4481735-0.9688416-0.5526962
		C330.3611755,85.0254288,329.997345,84.9752502,329.6315308,84.9791794"/>
	<path class="st1" d="M343.9776917,92.6491318c-0.2814331-0.0079727-0.5226135-0.0120239-0.7236328-0.0099335
		c-0.2291565,0.0039215-0.4683533,0.0099335-0.7135925,0.0261307l0.0241394-1.6623917
		c-0.1346741,0.2613144-0.2512512,0.4603119-0.349762,0.6010361c-0.1004944,0.1426849-0.223114,0.2814407-0.3698425,0.4181137
		c-0.1487732,0.136673-0.3015442,0.2512589-0.4562988,0.345726c-0.158783,0.0923843-0.3417053,0.1769104-0.5527649,0.2512589
		c-0.2130737,0.0743484-0.4603271,0.136673-0.7437439,0.188942c-0.2834167,0.0501785-0.5849609,0.078392-0.9065247,0.0824432
		c-0.6995239,0.006012-1.2985535-0.0925064-1.7970581-0.3015594c-0.4984741-0.2050095-0.8763733-0.5025253-1.1356812-0.8904572
		c-0.2592773-0.3859711-0.3939514-0.9186707-0.4020386-1.5960236c0-0.102562,0.0040588-0.2793503,0.012085-0.5246048
		c0.0100403-0.2472076,0.0241089-0.5688934,0.0422058-0.96492l0.114563-2.8663101l0.0140686-0.920639
		c0.0040283-0.2131042,0.0040283-0.482399,0-0.8100967h0.7940063c0.1607971-0.0019608,0.4080505-0.0060043,0.7417297-0.0160675
		c-0.0723877,1.005043-0.1367188,2.1045532-0.1970215,3.2985306c-0.0602722,1.1939774-0.0884094,1.9578247-0.0843811,2.289566
		c0.006012,0.5064468,0.0924377,0.9065247,0.2592773,1.2060013s0.4402161,0.528656,0.8241577,0.6894913
		c0.3839111,0.1587601,0.8160706,0.2351913,1.2984924,0.2311478c0.4241333-0.0040512,0.8321838-0.0844116,1.2201233-0.2371521
		c0.331665-0.136673,0.6110535-0.3176346,0.8382263-0.5427628c0.2432251-0.2492981,0.446228-0.5689011,0.6090393-0.9608765
		c0.1165771-0.2894211,0.2050476-0.659317,0.2633057-1.1135025c0.038208-0.3276901,0.0703735-0.9165802,0.1025391-1.7648315
		c0.0341797-1.0332642,0.0542603-2.0824738,0.0603027-3.1498413h0.8020325
		c0.1708374-0.0020828,0.4120483-0.0080948,0.7236328-0.018158c-0.0703735,1.0352249-0.1487732,2.6051178-0.235199,4.7116318
		C344.0038147,89.7988968,343.9797058,91.1335907,343.9776917,92.6491318"/>
	<path class="st1" d="M346.2651978,92.6249619c0.1708374-3.3125153,0.2452087-5.9557877,0.2251282-7.9277115l-0.0161133-0.7919388
		c0.2914734,0.0039215,0.5326843,0.0019608,0.7216492,0c0.2190857-0.0020905,0.4623108-0.006012,0.7316589-0.0160751
		l-0.0542908,1.4291687c0.2090454-0.3557892,0.3939819-0.6271667,0.5567932-0.8100967
		c0.1608276-0.1829224,0.3437195-0.3337021,0.5487671-0.4522171c0.2050171-0.1207199,0.4382019-0.2151947,0.6995239-0.2835312
		c0.2592773-0.0683289,0.5306396-0.1045227,0.8120422-0.1064911c0.2392273-0.0040436,0.4784241,0.0220871,0.7135925,0.0783997
		c0.0100403,0.3778687,0.0341797,0.8019943,0.0743713,1.272377c-0.3558044-0.0944672-0.6753845-0.1386337-0.9568176-0.136673
		c-0.337677,0.0040512-0.6412048,0.0623245-0.910553,0.1769104c-0.267334,0.1145935-0.5085449,0.2874527-0.7216187,0.51651
		c-0.2110596,0.2291794-0.3859253,0.5005569-0.5205994,0.8181915c-0.1105652,0.2532272-0.1950073,0.5809174-0.2512817,0.9828339
		c-0.0542603,0.4020462-0.0944519,1.1337433-0.1185913,2.1970596c-0.0140686,0.7739029-0.0160828,1.5940628-0.0080566,2.4603424
		l0.0080566,0.5768738c-0.3115845-0.0099411-0.560791-0.0120239-0.7497559-0.0099411
		C346.8762207,92.600914,346.6149292,92.6088943,346.2651978,92.6249619"/>
	<path class="st1" d="M357.0458679,92.5100098l0.0944824-1.5759048c0.0180969-0.3557892,0.0341492-0.743721,0.0462036-1.1618347
		l0.1346741-5.1216431l0.0281372-2.0663986c0.0060425-0.4341888,0.0080566-0.8180695,0.0060425-1.1436768l-0.0080261-0.6794357
		c1.3608093-0.0100632,2.6452637-0.0201187,3.8553162-0.0321426l2.1266785-0.0321426l1.2744141-0.0141144
		c-0.0402222,0.5327072-0.0583191,0.9347458-0.0563049,1.2060089c-0.7296753-0.0381622-1.7547913-0.0501785-3.0814514-0.0360718
		l-2.5286865,0.0441666l-0.0844421,4.0543976l1.6502686,0.0160751c1.5618591-0.0160751,2.6935425-0.0382767,3.3990784-0.0704193
		c-0.0301514,0.4262085-0.0422058,0.8180695-0.0401917,1.1799927c-1.0592957-0.012146-1.9538269-0.0141144-2.6834412-0.006134
		c-0.7156067,0.0080948-1.5116272,0.0282135-2.3819885,0.0583954c-0.0422058,2.1125259-0.0522766,3.8994446-0.0381775,5.3628464
		l-0.8362122-0.0079727C357.888092,92.4840012,357.5966187,92.4919739,357.0458679,92.5100098"/>
	<path class="st1" d="M366.285614,92.4128418l0.1266479-2.170929l0.1266174-3.7025375l0.0401917-2.8482742h0.7919922
		l0.7758789-0.0160751c-0.0562744,0.8945084-0.1045227,1.8312149-0.1467285,2.8101196
		c-0.0422058,0.9789124-0.0723572,2.0482407-0.0924683,3.2079926c-0.0200806,1.159874-0.0260925,2.0603867-0.0200806,2.7015457
		c-0.3618164-0.0079727-0.6211548-0.0099411-0.7759094-0.0079727
		C366.9690552,92.3867111,366.6936646,92.3967667,366.285614,92.4128418 M366.5690613,81.8155975
		c0.0120544-0.5406723,0.0160522-0.94664,0.0140381-1.2220688c0.3135986,0.0080948,0.5929871,0.0120239,0.8321838,0.0080948
		c0.305542-0.0020828,0.5809021-0.0100632,0.8261414-0.0261307c-0.0080566,0.1788788-0.0220947,0.5848465-0.038208,1.2220764
		c-0.3095093-0.0019684-0.5768738-0.0019684-0.7999878,0C367.1800842,81.8016129,366.9006958,81.8056641,366.5690613,81.8155975"/>
	<path class="st1" d="M370.1578674,92.3707581c0.2351379-3.599968,0.3477173-6.5066452,0.3356628-8.7217407h0.7759094
		c0.1889343-0.0019608,0.4382019-0.006012,0.7497559-0.0160675l-0.0964966,1.7226334
		c0.1407166-0.2431641,0.2532959-0.4280548,0.3377075-0.5587158c0.0864258-0.1287003,0.1989746-0.267334,0.3417053-0.4121017
		c0.1407166-0.1447678,0.3095703-0.2814407,0.5025024-0.4060898c0.1929932-0.124649,0.4221497-0.2311401,0.6854553-0.3155518
		c0.2633057-0.0864868,0.5306702-0.1527405,0.8020325-0.1949463c0.2733765-0.0421982,0.5447083-0.0644073,0.8140869-0.0683365
		c0.4924622-0.0040436,0.9688416,0.0501785,1.4291687,0.164772c0.4602966,0.1165466,0.84021,0.3095322,1.1376953,0.578949
		c0.2994995,0.2693024,0.5005188,0.5728226,0.6030273,0.908493c0.1045227,0.3377533,0.1588135,0.7015152,0.1628418,1.0915375
		c0.0019836,0.0763092,0,0.2191162-0.0040283,0.4301376c-0.0020142,0.2131042-0.012085,0.4904938-0.0241394,0.834137
		l-0.1326599,3.6081924c-0.0080261,0.3436432-0.0120544,0.7658081-0.0120544,1.2663651
		c-0.2572937-0.0100632-0.5025024-0.012146-0.7336731-0.0100632c-0.2814331,0.0019684-0.5447388,0.0100632-0.7919922,0.0261383
		c0.0502625-0.6955109,0.0864563-1.3648834,0.108551-2.0081253l0.0924377-2.0060349
		c0.0261536-0.6875381,0.0402222-1.2080917,0.0361938-1.557869c-0.0060425-0.5044861-0.0964661-0.9065247-0.2713318-1.2060013
		c-0.1769104-0.2975159-0.4542847-0.528656-0.834198-0.6875305c-0.3819275-0.1587601-0.8080444-0.2371521-1.2784424-0.2311401
		c-0.6653137,0.006012-1.2361755,0.1708984-1.7085266,0.4904938c-0.4342041,0.2975159-0.7678833,0.7175903-1.0030518,1.2582703
		c-0.1628113,0.3880539-0.2753906,0.9568253-0.3356934,1.7086487c-0.0783691,0.9005127-0.1226196,2.3316422-0.1386719,4.2954788
		c-0.3196106-0.0099411-0.5688782-0.0120239-0.7457581-0.0099411
		C370.7850037,92.3467102,370.5176392,92.3546906,370.1578674,92.3707581"/>
	<path class="st1" d="M381.40448,94.771843c0.7598267,0.2210846,1.394989,0.3697739,1.9055481,0.4441223
		c0.5126038,0.0744705,0.9769287,0.1106644,1.3970337,0.1045303c0.4743652-0.0039291,0.9145813-0.0743484,1.3206177-0.2110214
		c0.3377075-0.1125031,0.6251526-0.2692947,0.8643188-0.4723358c0.1829224-0.1567993,0.3316956-0.3598404,0.4502563-0.6091385
		c0.1447449-0.3256073,0.2472534-0.743721,0.305542-1.2501678c0.0462341-0.4080582,0.0763855-1.2201157,0.0924683-2.4362946
		c-0.1346741,0.2613144-0.2572937,0.4703751-0.3678589,0.6331787c-0.108551,0.1608429-0.2572632,0.3276901-0.446228,0.4984741
		c-0.1869202,0.1728592-0.4060364,0.3257294-0.6572876,0.4583511c-0.2512817,0.1347122-0.5427551,0.2431641-0.8743896,0.3236465
		c-0.331665,0.0823212-0.6753845,0.124649-1.031189,0.1285782c-0.5205994,0.006012-1.0110779-0.0623245-1.4673462-0.1989975
		c-0.4582825-0.1386337-0.8683777-0.3738251-1.2301636-0.7015228c-0.3618469-0.3296509-0.6392212-0.7516937-0.8302002-1.2663574
		c-0.1929321-0.5125885-0.2914429-1.051178-0.2974854-1.6140594c-0.0080261-0.7739029,0.1226501-1.5116119,0.3939819-2.2150955
		c0.2713623-0.703598,0.6713867-1.2924957,1.2020569-1.7688828c0.5326538-0.476387,1.133667-0.8161087,1.8050537-1.017067
		c0.6733398-0.2010803,1.4110718-0.3075714,2.2131042-0.3156662c0.8824158-0.0100632,1.9819336,0.0944672,3.2985535,0.3156662
		l-0.082428,1.0612335l-0.2090454,4.8283005c0.0019836,0.0985184-0.0060425,0.6833649-0.0241394,1.7567444l-0.032135,1.7810287
		c-0.0261536,0.379837-0.0723572,0.7115784-0.1447449,0.998909c-0.0663147,0.2372742-0.1567993,0.4624023-0.2693481,0.6753845
		c-0.1004944,0.1950684-0.2271423,0.3739471-0.3799133,0.5367508c-0.1487122,0.1688156-0.3216248,0.3176346-0.5205994,0.4543076
		c-0.1990051,0.1326218-0.4120789,0.2412033-0.6412354,0.3236465c-0.3195801,0.118515-0.6512451,0.2050095-0.9949646,0.261322
		c-0.3899841,0.066246-0.7799377,0.1004791-1.1678467,0.1064911c-0.5628357,0.006012-1.1156311-0.0160751-1.6583557-0.0683365
		c-0.5426941-0.052269-1.1497498-0.1548309-1.8231506-0.307579l-0.0301514-0.4723358
		C381.4647827,95.4210968,381.4426575,95.1677551,381.40448,94.771843 M387.9091187,84.5484314
		c-0.643219-0.118515-1.2442322-0.176796-1.7990112-0.170784c-0.5628357,0.006012-1.0814514,0.0783997-1.5578613,0.2150726
		c-0.478363,0.1386337-0.9145508,0.3838806-1.3085632,0.7356262c-0.3939514,0.3557892-0.7015076,0.8121796-0.9186096,1.3708878
		c-0.217041,0.5588379-0.3236084,1.135704-0.3175659,1.7326965c0.006012,0.5568695,0.1125793,1.0634384,0.3216248,1.5197067
		c0.2090149,0.4582367,0.5266418,0.8000336,0.9527893,1.0271301c0.4281311,0.2270889,0.9105225,0.3397141,1.4492493,0.3337021
		c0.464325-0.006012,0.8764038-0.090538,1.2381897-0.2593536c0.3638306-0.1668549,0.6834717-0.4221649,0.9608154-0.7617569
		c0.2874756-0.3538284,0.5005493-0.7578354,0.6392517-1.2121429c0.1065063-0.3236389,0.184906-0.8000336,0.2351685-1.4311295
		C387.8447876,87.1415176,387.8809814,86.1103439,387.9091187,84.5484314"/>
	<path class="st1" d="M398.5796814,90.7005157c-0.0663452,0.3155441-0.1306763,0.7175903-0.1949768,1.2061234
		c-0.5487976,0.1426849-1.025177,0.2411957-1.4291687,0.2954254c-0.4040527,0.052269-0.8060608,0.0803604-1.2080994,0.0864944
		c-0.7155762,0.006012-1.3608093-0.0723877-1.9336853-0.2392349c-0.572876-0.1648941-1.0653381-0.4603195-1.477417-0.8824844
		c-0.4120483-0.4220352-0.7095337-0.9084854-0.8924561-1.459343c-0.1849365-0.5466919-0.2794189-1.12957-0.2854309-1.74263
		c-0.0100708-0.8543854,0.1467285-1.6503754,0.464325-2.3840332c0.3195801-0.7356262,0.8059998-1.3145828,1.4573059-1.7406693
		c0.6532593-0.4262085,1.483429-0.6432419,2.4924927-0.6553879c0.5226135-0.0039291,1.0231628,0.0663757,1.4995422,0.2131042
		c0.4783936,0.1467361,0.8763733,0.3718643,1.1960144,0.6794357c0.3175659,0.3054886,0.5668335,0.6874084,0.7437134,1.141716
		s0.267334,0.9508133,0.2733765,1.4895248c0.0019836,0.2069702-0.0120544,0.4080582-0.0462646,0.6030045l-6.5629272,0.0683365
		c-0.0200806,0.3175125-0.0301514,0.5588303-0.0281372,0.7236023c0.0080566,0.6029968,0.1387024,1.1558228,0.3980103,1.6623917
		c0.2572937,0.5044861,0.6331787,0.8844452,1.1296692,1.1396255c0.4964905,0.2574005,1.0653381,0.3799591,1.7085876,0.3739471
		C396.6238403,91.2713699,397.5223694,91.0783844,398.5796814,90.7005157 M392.7363586,86.6662292l5.1277161-0.0542221
		c-0.0100708-0.3618011-0.0361938-0.6432419-0.0783997-0.8442001c-0.0422058-0.1989975-0.1185913-0.4060898-0.229126-0.6211624
		c-0.1125793-0.2131042-0.261322-0.397995-0.4502563-0.5547867c-0.1869507-0.1547012-0.4120789-0.2733383-0.6734009-0.3536987
		c-0.2633057-0.0783997-0.5447388-0.1186371-0.8502808-0.1145935c-0.3256226,0.0040512-0.6371765,0.052269-0.9306641,0.1467361
		c-0.2954712,0.0944672-0.5547791,0.2230377-0.7778931,0.3879318c-0.2271423,0.1628036-0.4160767,0.351738-0.5708618,0.5688934
		c-0.1567993,0.2170334-0.2713623,0.4260864-0.3477478,0.6270447
		C392.881073,86.0572205,392.8067017,86.3266373,392.7363586,86.6662292"/>
	<path class="st1" d="M400.7877502,92.0449066c0.1708374-3.3125229,0.2452087-5.9557877,0.2251282-7.9277191l-0.0161133-0.7919388
		c0.2914734,0.0039291,0.5326843,0.0019684,0.7216492,0c0.2190857-0.0020828,0.4623108-0.006012,0.7316589-0.0160675
		l-0.0522461,1.4291687c0.2070312-0.3557892,0.3919373-0.6271744,0.5547791-0.8100967
		c0.1607971-0.1829224,0.343689-0.3337097,0.5487366-0.4522247c0.2050476-0.1207199,0.4382019-0.2151871,0.6995239-0.2835236
		c0.2593079-0.0683365,0.5306396-0.1045303,0.8120422-0.1064911c0.2392273-0.0040512,0.4784241,0.0220795,0.7135925,0.0783997
		c0.0100403,0.3778687,0.0341797,0.8019943,0.0743713,1.2723694c-0.3557739-0.0944672-0.6753845-0.1386337-0.9567871-0.136673
		c-0.3377075,0.0040512-0.6412354,0.0623245-0.9085693,0.176918c-0.2693481,0.1145859-0.5105591,0.2874527-0.7216187,0.5165024
		c-0.2130432,0.2291794-0.3879395,0.5005646-0.5205994,0.8181992c-0.1125488,0.2532196-0.196991,0.5809174-0.2512512,0.9828339
		c-0.0562744,0.4020386-0.0964966,1.1337357-0.120636,2.1970596c-0.0140381,0.7739029-0.0160828,1.5940552-0.0080261,2.4603424
		l0.0080261,0.5768661c-0.311554-0.0079727-0.560791-0.0120239-0.7497253-0.0099335
		C401.3987732,92.0208588,401.1374817,92.0288315,400.7877502,92.0449066"/>
	<path class="st1" d="M411.3590088,90.7962112c-0.0603333,0.2835236-0.1246643,0.6553879-0.1949768,1.1217117
		c-0.38797,0.0944672-0.6975098,0.1547089-0.9266968,0.1808395c-0.229126,0.0261307-0.446228,0.0402451-0.6532593,0.0422058
		c-0.5105591,0.006134-0.9246216-0.0542297-1.2382202-0.1808395c-0.3135681-0.1266098-0.5547791-0.3296585-0.7256165-0.61306
		c-0.1688538-0.2814407-0.2553101-0.665329-0.261322-1.153862c0-0.0623245,0.0020142-0.1748276,0.006012-0.3356705
		c0.0040588-0.1608429,0.026123-0.7195511,0.0683594-1.6783447l0.1708374-3.8573608l-1.1497498,0.0120239
		c0.0201111-0.2412033,0.0361633-0.5849686,0.0482483-1.0331421l1.1738892-0.012146
		c0.0261536-0.3215561,0.0482178-0.8683701,0.0683594-1.6442337c0.5366821-0.1085815,0.9909668-0.2110214,1.3628235-0.3075714
		c-0.0321655,0.8503342-0.0482483,1.4955368-0.0482483,1.9378204l2.3919983-0.0261307
		c-0.026123,0.3618011-0.0402222,0.7054443-0.0402222,1.0331345l-2.3839417,0.0241699l-0.1768799,4.8483047l-0.0060425,0.3697739
		c0.0060425,0.4181137,0.0563049,0.7316971,0.1528015,0.9407501c0.0964355,0.2070999,0.2391663,0.3577576,0.4301147,0.4462128
		c0.1889648,0.090538,0.38797,0.1347122,0.5950012,0.1327438c0.1427307-0.0020828,0.2974854-0.0160675,0.4623108-0.0402374
		C410.6514587,90.9791336,410.9408875,90.9107971,411.3590088,90.7962112"/>
	<path class="st1" d="M412.678009,91.9173126l0.1266479-2.1689682l0.1265869-3.7025375l0.0402222-2.8482742h0.7919617
		l0.7759094-0.0160675c-0.0563049,0.8945007-0.1045227,1.8312073-0.1467285,2.8101196s-0.0723572,2.0482407-0.0924988,3.2079926
		c-0.0200806,1.1579056-0.0260925,2.0603867-0.0200806,2.7015381c-0.3617859-0.0079727-0.6211243-0.0099335-0.7738647-0.0079727
		C413.3614197,91.8931427,413.0860596,91.9011154,412.678009,91.9173126 M412.9614258,81.3220367
		c0.0120544-0.5406799,0.0160828-0.9466476,0.0140686-1.2220764c0.3135681,0.0080948,0.5929565,0.0100632,0.834198,0.0080948
		c0.3035278-0.0040436,0.5788879-0.0100555,0.8240967-0.0261307c-0.0080261,0.1788788-0.0220642,0.5848465-0.0381775,1.2220764
		c-0.3095398-0.0019608-0.5769043-0.0019608-0.8000183,0S413.2950745,81.3120956,412.9614258,81.3220367"/>
	<path class="st1" d="M416.4633789,95.7658463c0.0985107-1.4794693,0.1849365-3.4936066,0.2593384-6.0422821
		c0.0743408-2.5468369,0.1085205-4.6312714,0.1025085-6.247406c0.9386902-0.2131119,1.688446-0.3557892,2.2532959-0.4341888
		c0.5628357-0.0763092,1.1296692-0.118515,1.6985168-0.124649c0.8944702-0.0100632,1.6723938,0.1226883,2.3337097,0.4000778
		c0.6633301,0.2773972,1.1819153,0.7718201,1.5558167,1.4814301c0.375885,0.7094955,0.5668335,1.5155411,0.5769043,2.4160538
		c0.006012,0.625206-0.0744019,1.2301712-0.2392273,1.8151398c-0.1668396,0.5828781-0.4241028,1.1055222-0.7718811,1.5698853
		c-0.3477478,0.4603195-0.7698364,0.8120651-1.2663574,1.0492096c-0.49646,0.2372818-1.0532837,0.3598404-1.6663513,0.3658524
		c-0.3678284,0.0040512-0.7215881-0.0361938-1.0613098-0.1205978c-0.3397217-0.0863724-0.6351929-0.1989975-0.8864441-0.3397217
		c-0.2512512-0.1405945-0.4623413-0.2994766-0.6331787-0.4743042c-0.1708679-0.1769104-0.3799438-0.442276-0.6251526-0.7940216
		l-0.0683289,3.4071121c-0.0180969,0.5567474-0.0241394,0.958786-0.0221252,1.2040405l0.0100708,0.8522949
		c-0.2914734-0.0080948-0.5467529-0.0120239-0.763855-0.0100555
		C417.050354,95.7437592,416.7870178,95.7517395,416.4633789,95.7658463 M418.3126831,84.4831619l-0.0522461,0.6553879
		l-0.0342102,0.8945007c-0.0180664,0.470253-0.032135,0.8542633-0.0401917,1.1496887
		c-0.0080261,0.2955551-0.0100403,0.5046082-0.0100403,0.6231232c0.0060425,0.4262085,0.0542908,0.8261642,0.1467285,1.2040405
		c0.0924683,0.3778687,0.2733765,0.7216339,0.5447083,1.0311737c0.2693787,0.3095398,0.5869751,0.5427628,0.948761,0.6995544
		c0.3638306,0.1567917,0.7377319,0.2331009,1.1216736,0.2291794c0.5386658-0.006012,1.0271301-0.1588821,1.4633179-0.4624023
		c0.4342041-0.3035278,0.7718811-0.7517014,1.013092-1.3467255c0.2391968-0.5929413,0.3557739-1.2381439,0.3477478-1.9376984
		c-0.0060425-0.7055664-0.1427002-1.3126221-0.4040222-1.8211517c-0.2653503-0.5065689-0.6150818-0.8724213-1.0533142-1.0934982
		c-0.4382019-0.2231674-0.9326782-0.3316193-1.483429-0.3256073
		C420.0353088,83.9927826,419.1991272,84.1596375,418.3126831,84.4831619"/>
	<polygon class="st0" points="242.4484711,89.2284088 0,89.2284088 0,15.6351528 9.4232731,15.6351528 9.4232731,17.8281631 
		2.1929948,17.8281631 2.1929948,87.0355148 242.4484711,87.0355148 	"/>
	<polygon class="st0" points="446.2386169,89.2215347 429.7357788,89.2215347 429.7357788,87.0286484 444.0455933,87.0286484 
		444.0455933,17.8274269 112.3473053,17.8274269 112.3473053,15.6363792 446.2386169,15.6363792 446.2386169,89.2215347 
		445.1430664,88.1281586 	"/>
</g>
</svg>
