<?xml version="1.0" encoding="utf-8"?>
<!-- Generator: Adobe Illustrator 25.4.1, SVG Export Plug-In . SVG Version: 6.00 Build 0)  -->
<svg version="1.1" id="Layer_1" xmlns="http://www.w3.org/2000/svg" xmlns:xlink="http://www.w3.org/1999/xlink" x="0px" y="0px"
	 width="176.5385437px" height="450.4726562px" viewBox="0 0 176.5385437 450.4726562"
	 style="enable-background:new 0 0 176.5385437 450.4726562;" xml:space="preserve">
<style type="text/css">
	.st0{opacity:0.5;}
	.st1{fill:#C9CCD2;}
	.st2{fill:url(#SVGID_1_);}
	.st3{fill:none;stroke:#FFFFFF;stroke-miterlimit:10;}
	.st4{fill:url(#SVGID_00000129205292079648333460000010717565058505429691_);}
	.st5{opacity:0.5;fill:#C9CCD2;enable-background:new    ;}
	.st6{fill:#505855;}
	.st7{fill:#00AADF;}
	.st8{fill:url(#SVGID_00000031174680816551655090000012310742876386693052_);}
	.st9{fill:#FFFFFF;}
	.st10{fill:url(#SVGID_00000130609685087903583360000012568693892910133416_);}
	.st11{fill:url(#SVGID_00000002386493210493116650000011922691048668555679_);}
	.st12{fill:url(#SVGID_00000155131536596676855610000005633135874607939219_);}
	.st13{fill:url(#SVGID_00000181774616925195079040000008836994502043890356_);}
	.st14{fill:url(#SVGID_00000131367023216054379480000009247933853466860967_);}
	.st15{fill:url(#SVGID_00000163769724833232401900000005909099334109057978_);}
	.st16{fill:url(#SVGID_00000036217526988216456040000013811276364062011010_);}
</style>
<g>
	<g>
		<g class="st0">
			<path class="st1" d="M1.867982,82.7526474v297.5575256c0,3.3287964,3.7993999,4.9810791,5.9626956,2.5823364
				c6.4432197-7.1442871,15.2764587-11.8199463,25.0471649-12.4692383
				c22.2130547-1.4764099,40.6602745,17.3079834,40.6602745,40.6893311c0,0.8258057-0.0299454,1.6440125-0.0752411,2.4577026
				v28.019989c0,2.7175903,2.6484375,4.5128479,4.9541092,3.3580933l94.2582779-47.2049561
				c1.2202148-0.611084,1.9994507-1.9197388,1.9994507-3.3579407V81.5697861
				c0-18.2545166-13.8700714-33.0528412-30.979538-33.0528412H33.9561844
				C16.2344265,48.5169449,1.867982,63.8447304,1.867982,82.7526474z"/>
		</g>
		<g>
			
				<linearGradient id="SVGID_1_" gradientUnits="userSpaceOnUse" x1="88.271347" y1="412.5090027" x2="88.271347" y2="8.3200932" gradientTransform="matrix(1 0 0 -1 0 452)">
				<stop  offset="0" style="stop-color:#00ADED"/>
				<stop  offset="0.481648" style="stop-color:#0071AF"/>
				<stop  offset="1" style="stop-color:#375584"/>
			</linearGradient>
			<path class="st2" d="M0.0041562,74.4651718v302.8184204c0,3.4006958,3.8813796,5.0886536,6.091218,2.6381226
				c6.5822239-7.2984619,15.6059999-12.0748901,25.5874557-12.7382812
				c22.6923332-1.5082397,41.5374756,17.6813965,41.5374756,41.5670471c0,0.8436279-0.0306931,1.6795654-0.0768661,2.5108337
				v28.6243896c0,2.7763062,2.7055893,4.6101685,5.0610428,3.4305115l96.2914276-48.2231445
				c1.2466583-0.6243896,2.0426331-1.9612732,2.0426331-3.4305115V73.2568817
				c0-18.6483116-14.1691742-33.7658844-31.6477356-33.7658844H32.7845078
				C14.6804276,39.4909973,0.0041562,55.1494789,0.0041562,74.4651718z"/>
		</g>
		<path class="st3" d="M5.066071,74.9071655v292.074707c0,1.4776306,1.563108,2.3030396,2.6883664,1.4416809
			c6.7342043-5.154541,14.811408-8.4070435,23.50951-8.9850769c26.4948502-1.7610474,48.4980316,20.6441956,48.4980316,48.5325317
			c0,0.9850159-0.0358124,1.9608765-0.0898438,2.9315186v21.132782c0,1.7180481,1.6792755,2.8487244,3.1328278,2.109436
			l85.3375702-43.4026184c2.0368958-1.0360107,3.3340912-3.2290649,3.3340912-5.6365967V72.7106552
			c0-15.5541115-11.8182068-28.16325-26.3966522-28.16325H33.5214539
			C17.8060207,44.5474052,5.066071,58.1399765,5.066071,74.9071655z"/>
		
			<linearGradient id="SVGID_00000155841844773965291760000000075381543292842164_" gradientUnits="userSpaceOnUse" x1="0.0041562" y1="349.0830383" x2="176.5385437" y2="349.0830383" gradientTransform="matrix(1 0 0 -1 0 452)">
			<stop  offset="0" style="stop-color:#444B4C"/>
			<stop  offset="1" style="stop-color:#5D6567"/>
		</linearGradient>
		
			<rect x="0.0041562" y="84.8353806" style="fill:url(#SVGID_00000155841844773965291760000000075381543292842164_);" width="176.5343933" height="36.1631851"/>
		<rect x="0.0041562" y="120.998558" class="st5" width="176.5343933" height="3.9562454"/>
	</g>
	<g>
		<path class="st5" d="M136.396347,64.3622437L91.9897079,79.5033188c-2.4107361,0.8219147-5.0259781,0.8219147-7.4367142,0
			L40.1463509,64.3622437c-4.1369286-1.4106293-7.1195221-5.0404549-7.7011185-9.3724098l-2.9698677-17.2967606
			c-0.9278584-6.9106407,4.4470024-13.0552654,11.4195366-13.0552654h94.7528992
			c6.9726562,0,12.3473969,6.1446247,11.4195404,13.0552654l-2.9698639,17.2967606
			C143.5158691,59.3217888,140.5332794,62.9516144,136.396347,64.3622437z"/>
		<path class="st6" d="M138.5351868,60.1555634L92.1550369,75.969696c-2.5179138,0.8584824-5.2494583,0.8584824-7.7673721,0
			L38.0075111,60.1555634c-4.3208504-1.4731407-7.4359627-5.264431-8.0435123-9.7887993l-3.101759-18.0656471
			c-0.9691601-7.2177219,4.6445293-13.6353626,11.9270134-13.6353626h98.9641953
			c7.282486,0,12.8961639,6.4176407,11.9271393,13.6353626l-3.1018829,18.0656471
			C145.9712677,54.8911324,142.8560333,58.6824226,138.5351868,60.1555634z"/>
		<g>
			<path class="st7" d="M88.2714157,73.4596405c-1.2804871,0-2.5608444-0.1950302-3.7790604-0.5857162L40.4755173,58.7586594
				c-4.2403679-1.3593407-7.2458-4.8027458-7.8434906-8.9857178l-2.9420433-16.1129799
				c-0.4390965-3.0754299,0.4625568-6.0802364,2.5375099-8.4723759c2.2377892-2.5800591,5.5483017-4.0596886,9.0832977-4.0596886
				h93.9206238c3.5348663,0,6.8460083,1.4796295,9.0838013,4.0596886c2.0750732,2.3921394,2.9767151,5.396946,2.5393677,8.4603977
				l-2.9456635,16.1369362c-0.595932,4.1709938-3.6012421,7.614399-7.8416138,8.9737396L92.0504761,72.8739243
				C90.8322601,73.2646103,89.5517731,73.4596405,88.2714157,73.4596405z M41.310791,21.7405624
				c-3.3571854,0-6.4991226,1.4025173-8.6201172,3.8484383c-1.9571609,2.2557564-2.8080311,5.0869942-2.3957596,7.9727631
				l2.9420433,16.113102c0.5653725,3.9603653,3.4104614,7.2128563,7.4252281,8.4998283l44.0168381,14.1152687
				c2.3167725,0.7431793,4.8680038,0.7431793,7.1847839,0l44.0167007-14.1152687
				c4.0148926-1.286972,6.8598633-4.539463,7.4234924-8.4878502l2.9456635-16.1370621
				c0.4103851-2.8737869-0.4403534-5.7050247-2.3975067-7.9607811c-2.1211243-2.4459209-5.2635651-3.8484383-8.6207428-3.8484383
				H41.310791z"/>
		</g>
	</g>
	<g>
		<path class="st1" d="M66.8513336,410.506958c0-18.7348328-15.7705879-33.786438-34.7605972-32.6033936
			c-16.2447472,1.0119629-29.4718342,14.2174377-30.5082493,30.4606934
			c-1.2081115,18.93573,13.7277012,34.6778564,32.3729401,34.8056335l-0.0057373,0.0057373h14.720192
			c5.4910316,0,9.5028038,2.7931824,12.3340416,6.1219177c1.98349,2.3320007,5.7830162,0.9646912,5.7830162-2.0967712v-34.7245483
			C66.8256226,411.8242493,66.8513336,411.1686707,66.8513336,410.506958z"/>
		
			<linearGradient id="SVGID_00000019670988457342619170000014957848838602498445_" gradientUnits="userSpaceOnUse" x1="34.1827011" y1="68.2920532" x2="34.1827011" y2="18.1520996" gradientTransform="matrix(1 0 0 -1 0 452)">
			<stop  offset="0" style="stop-color:#888F96"/>
			<stop  offset="1" style="stop-color:#444B4C"/>
		</linearGradient>
		<path style="fill:url(#SVGID_00000019670988457342619170000014957848838602498445_);" d="M68.3654022,406.5945129
			c0-19.6031799-16.5015411-35.3522949-36.3716202-34.1144714C14.9962425,373.539032,1.1561165,387.3564453,0.071661,404.352478
			c-1.2642622,19.813324,14.3639488,36.2851562,33.873291,36.4186707l-0.0059891,0.0059814H49.341198
			c5.7457047,0,9.9432755,2.922699,12.9057808,6.4057922c2.0754547,2.4400635,6.0510406,1.0092163,6.0510406-2.1941223v-36.3336792
			C68.3385696,407.9728394,68.3654022,407.2869263,68.3654022,406.5945129z"/>
		<circle class="st9" cx="34.1826782" cy="406.5945435" r="30.6026554"/>
		<g>
			
				<linearGradient id="SVGID_00000057853037196882422510000001491817695080379812_" gradientUnits="userSpaceOnUse" x1="-739.3171997" y1="716.649292" x2="-682.928772" y2="716.649292" gradientTransform="matrix(-1 0 0 1 -676.9403076 -310.0548706)">
				<stop  offset="0" style="stop-color:#00ADED"/>
				<stop  offset="0.481648" style="stop-color:#0071AF"/>
			</linearGradient>
			<path style="fill:url(#SVGID_00000057853037196882422510000001491817695080379812_);" d="M34.1826553,378.400177
				c15.5462341,0,28.1942215,12.6479797,28.1942215,28.1942139s-12.6479874,28.1942139-28.1942215,28.1942139
				S5.9884386,422.140625,5.9884386,406.5943909S18.636425,378.400177,34.1826553,378.400177z M34.1826553,433.7624207
				c14.980484,0,27.1680374-12.1875305,27.1680374-27.1680298c0-14.9804688-12.1875534-27.1680298-27.1680374-27.1680298
				c-14.9809799,0-27.1680336,12.187561-27.1680336,27.1680298
				C7.0146217,421.5748901,19.2016754,433.7624207,34.1826553,433.7624207z"/>
		</g>
	</g>
	<g>
		
			<linearGradient id="SVGID_00000128445300755698696950000004637993444748894127_" gradientUnits="userSpaceOnUse" x1="45.3198853" y1="437.3918762" x2="67.5471649" y2="437.3918762" gradientTransform="matrix(1 0 0 -1 0 452)">
			<stop  offset="0" style="stop-color:#444B4C"/>
			<stop  offset="1" style="stop-color:#5D6567"/>
		</linearGradient>
		<path style="fill:url(#SVGID_00000128445300755698696950000004637993444748894127_);" d="M65.9594879,8.6045637
			c5.6936646,10.5659399-4.9635696,21.2231903-15.5295143,15.5295267c-1.487381-0.8015041-2.7207184-2.0347939-3.5222702-3.5221481
			c-5.694088-10.5658932,4.9637451-21.2237282,15.5296364-15.5296478
			C63.9246941,5.8838482,65.1579819,7.1171823,65.9594879,8.6045637z"/>
		<g>
			<path class="st9" d="M56.4335899,24.6776104c-5.5522995,0-10.0694275-4.5171299-10.0694275-10.0694256
				c0-5.5526714,4.517128-10.0698013,10.0694275-10.0698013c5.5521698,0,10.069294,4.5171299,10.069294,10.0698013
				C66.5028839,20.1604805,61.9857597,24.6776104,56.4335899,24.6776104z M56.4335899,4.9953251
				c-5.3006172,0-9.6124878,4.3122425-9.6124878,9.6128597c0,5.3002434,4.3118706,9.612484,9.6124878,9.612484
				s9.612484-4.3122406,9.612484-9.612484C66.0460739,9.3075676,61.7342072,4.9953251,56.4335899,4.9953251z"/>
		</g>
		<path class="st7" d="M56.8141632,8.6738138l1.5210609,3.0819197c0.0618896,0.1252785,0.1813011,0.2121248,0.3195572,0.232214
			l3.4012299,0.4942503c0.3481331,0.0505352,0.4871368,0.4784031,0.2352104,0.7239685l-2.4611435,2.399004
			c-0.0999489,0.0974522-0.1456184,0.2379532-0.122036,0.3757095l0.5809708,3.3873796
			c0.0595207,0.3467598-0.3044586,0.6111679-0.6157837,0.4474564L56.631115,18.216423
			c-0.1236572-0.0650101-0.2713966-0.0650101-0.39505,0l-3.0421181,1.5992928
			c-0.3113213,0.1637115-0.6753044-0.1006966-0.6157837-0.4474564l0.5809708-3.3873796
			c0.0235825-0.1377563-0.0220833-0.2782574-0.1221581-0.3757095l-2.4610176-2.399004
			c-0.2519302-0.2455654-0.1129265-0.6734333,0.2352066-0.7239685l3.401104-0.4942503
			c0.1382561-0.0200891,0.2577972-0.1069355,0.3196869-0.232214l1.5209312-3.0819197
			C56.2086105,8.3583727,56.6584396,8.3583727,56.8141632,8.6738138z"/>
	</g>
	<g>
		
			<linearGradient id="SVGID_00000090282604008213615340000003788930381046259845_" gradientUnits="userSpaceOnUse" x1="114.0666428" y1="437.3918762" x2="136.2939301" y2="437.3918762" gradientTransform="matrix(1 0 0 -1 0 452)">
			<stop  offset="0" style="stop-color:#444B4C"/>
			<stop  offset="1" style="stop-color:#5D6567"/>
		</linearGradient>
		<path style="fill:url(#SVGID_00000090282604008213615340000003788930381046259845_);" d="M134.7062531,8.6045637
			c5.6936646,10.5659399-4.9635773,21.2231903-15.5295258,15.5295267c-1.487381-0.8015041-2.7207108-2.0347939-3.5222702-3.5221481
			c-5.6940842-10.5658932,4.9637451-21.2237282,15.5296402-15.5296478
			C132.6714478,5.8838482,133.9047394,7.1171823,134.7062531,8.6045637z"/>
		<g>
			<path class="st9" d="M125.1803436,24.6776104c-5.5522919,0-10.0694275-4.5171299-10.0694275-10.0694256
				c0-5.5526714,4.5171356-10.0698013,10.0694275-10.0698013c5.5521698,0,10.0693054,4.5171299,10.0693054,10.0698013
				C135.249649,20.1604805,130.7325134,24.6776104,125.1803436,24.6776104z M125.1803436,4.9953251
				c-5.3006134,0-9.6124802,4.3122425-9.6124802,9.6128597c0,5.3002434,4.3118668,9.612484,9.6124802,9.612484
				s9.6124878-4.3122406,9.6124878-9.612484C134.7928314,9.3075676,130.480957,4.9953251,125.1803436,4.9953251z"/>
		</g>
		<path class="st7" d="M125.5609207,8.6738138l1.5210571,3.0819197c0.0618896,0.1252785,0.1813049,0.2121248,0.3195572,0.232214
			l3.4012299,0.4942503c0.3481293,0.0505352,0.4871368,0.4784031,0.2352142,0.7239685l-2.4611511,2.399004
			c-0.0999451,0.0974522-0.1456146,0.2379532-0.1220245,0.3757095l0.5809631,3.3873796
			c0.0595245,0.3467598-0.3044586,0.6111679-0.6157837,0.4474564l-3.0421143-1.5992928
			c-0.1236572-0.0650101-0.2713928-0.0650101-0.39505,0l-3.0421143,1.5992928
			c-0.3113251,0.1637115-0.6753006-0.1006966-0.6157837-0.4474564l0.5809708-3.3873796
			c0.0235825-0.1377563-0.0220871-0.2782574-0.1221619-0.3757095l-2.4610138-2.399004
			c-0.2519302-0.2455654-0.1129303-0.6734333,0.2352066-0.7239685l3.4011078-0.4942503
			c0.1382523-0.0200891,0.2577896-0.1069355,0.3196793-0.232214l1.5209351-3.0819197
			C124.955368,8.3583727,125.4051971,8.3583727,125.5609207,8.6738138z"/>
	</g>
	<g>
		
			<linearGradient id="SVGID_00000052088815938954290760000009138716687630130331_" gradientUnits="userSpaceOnUse" x1="63.6676712" y1="437.8486633" x2="91.9704437" y2="437.8486633" gradientTransform="matrix(1 0 0 -1 0 452)">
			<stop  offset="0" style="stop-color:#444B4C"/>
			<stop  offset="1" style="stop-color:#5D6567"/>
		</linearGradient>
		<path style="fill:url(#SVGID_00000052088815938954290760000009138716687630130331_);" d="M89.9488449,6.5068879
			c7.2497787,13.4535618-6.3200684,27.0237484-19.7740173,19.774395c-1.8940125-1.0205441-3.4645233-2.5909519-4.4852066-4.4848843
			C58.4388466,8.3422785,72.0099182-5.2288065,85.464035,2.0219343C87.3578949,3.0425799,88.9282684,4.6129889,89.9488449,6.5068879
			z"/>
		<g>
			<path class="st9" d="M77.8189926,26.9731293c-7.0698624,0-12.8216782-5.7518177-12.8216782-12.8216791
				c0-7.0704846,5.7518158-12.8223028,12.8216782-12.8223028S90.6406708,7.080966,90.6406708,14.1514502
				C90.6406708,21.2213116,84.888855,26.9731293,77.8189926,26.9731293z M77.8189926,1.910992
				c-6.7494278,0-12.23983,5.4910302-12.23983,12.2404585c0,6.7488031,5.4904022,12.2398348,12.23983,12.2398348
				s12.2399597-5.4910316,12.2399597-12.2398348C90.0589523,7.4020224,84.5684204,1.910992,77.8189926,1.910992z"/>
		</g>
		
			<linearGradient id="SVGID_00000059293588627104444040000006814288674768168376_" gradientUnits="userSpaceOnUse" x1="77.8190155" y1="449.8836975" x2="77.8190155" y2="425.1555176" gradientTransform="matrix(1 0 0 -1 0 452)">
			<stop  offset="0" style="stop-color:#00B3DF"/>
			<stop  offset="1" style="stop-color:#00B3ED"/>
		</linearGradient>
		<path style="fill:url(#SVGID_00000059293588627104444040000006814288674768168376_);" d="M78.3036346,6.5949512
			l1.9368286,3.9244285c0.0787277,0.1594677,0.230957,0.2700214,0.4068985,0.2956018l4.3308334,0.629261
			c0.4433365,0.0645103,0.620285,0.6091719,0.2996063,0.9218683l-3.1338425,3.0547171
			c-0.1273956,0.124156-0.1855469,0.3030891-0.1554718,0.478404l0.7398148,4.313365
			c0.0757446,0.4414673-0.3876877,0.7781219-0.7842331,0.5697403l-3.8735123-2.03652
			c-0.1574783-0.0827274-0.3456421-0.0827274-0.5029907,0l-3.8736496,2.03652
			c-0.3965454,0.2083817-0.8599777-0.128273-0.7842255-0.5697403l0.7398071-4.313365
			c0.0300827-0.1753149-0.0280762-0.354248-0.1554718-0.478404l-3.1337051-3.0547171
			c-0.3208084-0.3126965-0.1438675-0.857358,0.299469-0.9218683l4.3308334-0.629261
			c0.1760635-0.0255804,0.3281708-0.1361341,0.4069061-0.2956018l1.9368286-3.9244285
			C77.5326233,6.1932869,78.1053619,6.1932869,78.3036346,6.5949512z"/>
	</g>
	<g>
		
			<linearGradient id="SVGID_00000154405604017967650990000003915747367876894860_" gradientUnits="userSpaceOnUse" x1="88.4580765" y1="437.8486633" x2="116.760849" y2="437.8486633" gradientTransform="matrix(1 0 0 -1 0 452)">
			<stop  offset="0" style="stop-color:#444B4C"/>
			<stop  offset="1" style="stop-color:#5D6567"/>
		</linearGradient>
		<path style="fill:url(#SVGID_00000154405604017967650990000003915747367876894860_);" d="M114.7392502,6.5068879
			c7.2497787,13.4535618-6.3200684,27.0237484-19.7740173,19.774395c-1.8940125-1.0205441-3.4645233-2.5909519-4.4852066-4.4848843
			C83.2292557,8.3422785,96.8003235-5.2288065,110.2544403,2.0219343
			C112.1483002,3.0425799,113.7186737,4.6129889,114.7392502,6.5068879z"/>
		<g>
			<path class="st9" d="M102.6093979,26.9731293c-7.0698624,0-12.8216782-5.7518177-12.8216782-12.8216791
				c0-7.0704846,5.7518158-12.8223028,12.8216782-12.8223028S115.431076,7.080966,115.431076,14.1514502
				C115.431076,21.2213116,109.6792603,26.9731293,102.6093979,26.9731293z M102.6093979,1.910992
				c-6.7494278,0-12.23983,5.4910302-12.23983,12.2404585c0,6.7488031,5.4904022,12.2398348,12.23983,12.2398348
				s12.2399597-5.4910316,12.2399597-12.2398348C114.8493576,7.4020224,109.3588257,1.910992,102.6093979,1.910992z"/>
		</g>
		
			<linearGradient id="SVGID_00000054959340830591085610000003315995833200627094_" gradientUnits="userSpaceOnUse" x1="102.6094208" y1="449.8836975" x2="102.6094208" y2="425.1555176" gradientTransform="matrix(1 0 0 -1 0 452)">
			<stop  offset="0" style="stop-color:#00B3DF"/>
			<stop  offset="1" style="stop-color:#00B3ED"/>
		</linearGradient>
		<path style="fill:url(#SVGID_00000054959340830591085610000003315995833200627094_);" d="M103.0940399,6.5949512
			l1.9368286,3.9244285c0.0787277,0.1594677,0.230957,0.2700214,0.4068985,0.2956018l4.3308334,0.629261
			c0.4433441,0.0645103,0.620285,0.6091719,0.2996063,0.9218683l-3.1338425,3.0547171
			c-0.1273956,0.124156-0.1855392,0.3030891-0.1554718,0.478404l0.7398148,4.313365
			c0.0757446,0.4414673-0.3876877,0.7781219-0.7842331,0.5697403l-3.8735123-2.03652
			c-0.1574783-0.0827274-0.3456421-0.0827274-0.5029907,0l-3.873642,2.03652
			c-0.396553,0.2083817-0.8599777-0.128273-0.7842331-0.5697403l0.7398071-4.313365
			c0.0300827-0.1753149-0.0280762-0.354248-0.1554718-0.478404l-3.1337051-3.0547171
			c-0.3208084-0.3126965-0.1438675-0.857358,0.299469-0.9218683l4.3308334-0.629261
			c0.1760635-0.0255804,0.3281708-0.1361341,0.4069061-0.2956018l1.9368286-3.9244285
			C102.3230286,6.1932869,102.8957672,6.1932869,103.0940399,6.5949512z"/>
	</g>
</g>
</svg>
