<?xml version="1.0" encoding="utf-8"?>
<!-- Generator: Adobe Illustrator 25.4.1, SVG Export Plug-In . SVG Version: 6.00 Build 0)  -->
<svg version="1.1" id="Layer_1" xmlns="http://www.w3.org/2000/svg" xmlns:xlink="http://www.w3.org/1999/xlink" x="0px" y="0px"
	 width="176.5385437px" height="403.5522766px" viewBox="0 0 176.5385437 403.5522766"
	 style="enable-background:new 0 0 176.5385437 403.5522766;" xml:space="preserve">
<style type="text/css">
	.st0{opacity:0.5;}
	.st1{fill:#C9CDD3;}
	.st2{fill:url(#SVGID_1_);}
	.st3{fill:none;stroke:#FFFFFF;stroke-miterlimit:10;}
	.st4{fill:url(#SVGID_00000173129657771587472870000002476723451044974742_);}
	.st5{opacity:0.5;fill:#C9CDD3;enable-background:new    ;}
	.st6{fill:#505855;}
	.st7{fill:#00AADF;}
	.st8{fill:url(#SVGID_00000049199177802401318800000016521917387713799615_);}
	.st9{fill:#FFFFFF;}
	.st10{fill:url(#SVGID_00000054976931886048765510000014661875051309098639_);}
	.st11{fill:url(#SVGID_00000030465110896151553660000009256923857933382318_);}
	.st12{fill:url(#SVGID_00000133510896581498369850000001265470627587060359_);}
	.st13{fill:url(#SVGID_00000178198719142738809220000000454126785035919780_);}
	.st14{fill:url(#SVGID_00000165202739899746264990000008546319268315808946_);}
</style>
<g>
	<g>
		<g class="st0">
			<path class="st1" d="M1.867982,85.6146011v246.9551697c0,3.3707886,3.7993999,5.0439148,5.9626956,2.6149292
				c6.4432197-7.234436,15.2764587-11.9690857,25.0471649-12.6265564
				c22.2130547-1.4950256,40.6602745,17.5263367,40.6602745,41.2026978c0,0.8362122-0.0299454,1.6647644-0.0752411,2.4887085
				v28.3735352c0,2.7518616,2.6484375,4.5697937,4.9541092,3.4004517l94.2582779-47.8005676
				c1.2202148-0.6187744,1.9994507-1.9439392,1.9994507-3.4002991V84.4168167
				c0-18.4848328-13.8700714-33.4698715-30.979538-33.4698715H33.9561844
				C16.2344265,50.9469452,1.867982,66.4681244,1.867982,85.6146011z"/>
		</g>
		<g>
			
				<linearGradient id="SVGID_1_" gradientUnits="userSpaceOnUse" x1="88.271347" y1="364.1928711" x2="88.271347" y2="9.2609644" gradientTransform="matrix(1 0 0 -1 0 406)">
				<stop  offset="0" style="stop-color:#00AEED"/>
				<stop  offset="0.481648" style="stop-color:#0071B0"/>
				<stop  offset="1" style="stop-color:#375586"/>
			</linearGradient>
			<path class="st2" d="M0.0041562,77.2225647v252.2824402c0,3.443573,3.8813796,5.152832,6.091218,2.6713867
				c6.5822239-7.3905334,15.6059999-12.2272339,25.5874557-12.8989868
				c22.6923332-1.5272522,41.5374756,17.90448,41.5374756,42.0914917c0,0.8543091-0.0306931,1.7007751-0.0768661,2.542511
				v28.9855652c0,2.8113403,2.7055893,4.668335,5.0610428,3.4737854l96.2914276-48.8315735
				c1.2466583-0.6322632,2.0426331-1.9860229,2.0426331-3.4737854V75.9990311
				c0-18.8835983-14.1691742-34.1919136-31.6477356-34.1919136H32.7845078
				C14.6804276,41.8071175,0.0041562,57.6631622,0.0041562,77.2225647z"/>
		</g>
		<path class="st3" d="M5.066071,77.6701355v241.4031677c0,1.4962463,1.563108,2.3320618,2.6883664,1.4598694
			c6.7342043-5.219574,14.811408-8.5131226,23.50951-9.0984497c26.4948502-1.7832642,48.4980316,20.9046631,48.4980316,49.1448669
			c0,0.997467-0.0358124,1.9856262-0.0898438,2.9685059v21.3994141c0,1.7397156,1.6792755,2.8846741,3.1328278,2.1360779
			l85.3375702-43.9502563c2.0368958-1.0491028,3.3340912-3.2698059,3.3340912-5.7077026V75.4459076
			c0-15.7503548-11.8182068-28.5185814-26.3966522-28.5185814H33.5214539
			C17.8060207,46.9273262,5.066071,60.6913948,5.066071,77.6701355z"/>
		
			<linearGradient id="SVGID_00000106124794450161377950000010529186246871898766_" gradientUnits="userSpaceOnUse" x1="0.0041562" y1="303.930481" x2="176.5385437" y2="303.930481" gradientTransform="matrix(1 0 0 -1 0 406)">
			<stop  offset="0" style="stop-color:#444C4C"/>
			<stop  offset="1" style="stop-color:#5D6567"/>
		</linearGradient>
		
			<rect x="0.0041562" y="83.9879456" style="fill:url(#SVGID_00000106124794450161377950000010529186246871898766_);" width="176.5343933" height="36.1631775"/>
		<rect x="0.0041562" y="120.1511307" class="st5" width="176.5343933" height="3.9562454"/>
	</g>
	<g>
		<path class="st5" d="M136.396347,64.3622437L91.9897079,79.5033112c-2.4107361,0.8219223-5.0259781,0.8219223-7.4367142,0
			L40.1463509,64.3622437c-4.1369286-1.4106331-7.1195221-5.0404549-7.7011185-9.3724136l-2.9698677-17.2967567
			c-0.9278584-6.9106445,4.4470024-13.0552673,11.4195366-13.0552673h94.7528992
			c6.9726562,0,12.3473969,6.1446228,11.4195404,13.0552673L144.0974731,54.98983
			C143.5158691,59.3217888,140.5332794,62.9516106,136.396347,64.3622437z"/>
		<path class="st6" d="M138.5351868,60.1555595L92.1550369,75.969696c-2.5179138,0.8584747-5.2494583,0.8584747-7.7673721,0
			L38.0075111,60.1555595c-4.3208504-1.4731407-7.4359627-5.264431-8.0435123-9.7887955l-3.101759-18.0656471
			c-0.9691601-7.2177238,4.6445293-13.6353645,11.9270134-13.6353645h98.9641953
			c7.282486,0,12.8961639,6.4176407,11.9271393,13.6353645l-3.1018829,18.0656471
			C145.9712677,54.8911285,142.8560333,58.6824188,138.5351868,60.1555595z"/>
		<g>
			<path class="st7" d="M88.2714157,73.4596329c-1.2804871,0-2.5608444-0.1950226-3.7790604-0.5857086L40.4755173,58.7586594
				c-4.2403679-1.3593445-7.2458-4.8027496-7.8434906-8.9857216l-2.9420433-16.1129761
				c-0.4390965-3.0754318,0.4625568-6.0802383,2.5375099-8.4723778c2.2377892-2.5800591,5.5483017-4.0596905,9.0832977-4.0596905
				h93.9206238c3.5348663,0,6.8460083,1.4796314,9.0838013,4.0596905c2.0750732,2.3921394,2.9767151,5.396946,2.5393677,8.4603996
				l-2.9456635,16.1369362c-0.595932,4.17099-3.6012421,7.6143951-7.8416138,8.9737396L92.0504761,72.8739243
				C90.8322601,73.2646103,89.5517731,73.4596329,88.2714157,73.4596329z M41.310791,21.7405586
				c-3.3571854,0-6.4991226,1.4025192-8.6201172,3.8484383c-1.9571609,2.2557583-2.8080311,5.0869961-2.3957596,7.9727631
				l2.9420433,16.113102c0.5653725,3.9603653,3.4104614,7.2128601,7.4252281,8.4998322l44.0168381,14.1152611
				c2.3167725,0.743187,4.8680038,0.743187,7.1847839,0l44.0167007-14.1152611
				c4.0148926-1.286972,6.8598633-4.5394669,7.4234924-8.487854l2.9456635-16.1370583
				c0.4103851-2.8737888-0.4403534-5.7050266-2.3975067-7.9607849c-2.1211243-2.445919-5.2635651-3.8484383-8.6207428-3.8484383
				H41.310791z"/>
		</g>
	</g>
	<g>
		<path class="st1" d="M66.8513336,363.5866089c0-18.7348633-15.7705879-33.7864685-34.7605972-32.6034241
			c-16.2447472,1.0119629-29.4718342,14.2174683-30.5082493,30.4606934
			c-1.2081115,18.93573,13.7277012,34.677887,32.3729401,34.8056641l-0.0057373,0.0057373h14.720192
			c5.4910316,0,9.5028038,2.7931824,12.3340416,6.1219177c1.98349,2.3319702,5.7830162,0.9646606,5.7830162-2.0968018v-34.7245178
			C66.8256226,364.9039001,66.8513336,364.248291,66.8513336,363.5866089z"/>
		
			<linearGradient id="SVGID_00000140003606240594279220000001809506085636279206_" gradientUnits="userSpaceOnUse" x1="34.1827011" y1="69.2124329" x2="34.1827011" y2="19.0724792" gradientTransform="matrix(1 0 0 -1 0 406)">
			<stop  offset="0" style="stop-color:#899096"/>
			<stop  offset="1" style="stop-color:#444C4C"/>
		</linearGradient>
		<path style="fill:url(#SVGID_00000140003606240594279220000001809506085636279206_);" d="M68.3654022,359.6741638
			c0-19.6031799-16.5015411-35.3523254-36.3716202-34.114502c-16.9975395,1.0589905-30.8376656,14.8764038-31.922121,31.872467
			c-1.2642622,19.8132935,14.3639488,36.2851257,33.873291,36.4186401l-0.0059891,0.006012H49.341198
			c5.7457047,0,9.9432755,2.922699,12.9057808,6.4057617c2.0754547,2.4400635,6.0510406,1.0092163,6.0510406-2.1940918v-36.3337097
			C68.3385696,361.0524597,68.3654022,360.3665466,68.3654022,359.6741638z"/>
		<circle class="st9" cx="34.1826859" cy="359.6741638" r="30.6026554"/>
		<g>
			
				<linearGradient id="SVGID_00000014629590432924411710000008217312530312363417_" gradientUnits="userSpaceOnUse" x1="-745.7960815" y1="720.7211914" x2="-689.4076538" y2="720.7211914" gradientTransform="matrix(-1 0 0 1 -683.4191895 -361.0471497)">
				<stop  offset="0" style="stop-color:#00AEED"/>
				<stop  offset="0.481648" style="stop-color:#0071B0"/>
			</linearGradient>
			<path style="fill:url(#SVGID_00000014629590432924411710000008217312530312363417_);" d="M34.1826553,331.4797974
				c15.5462341,0,28.1942215,12.6479797,28.1942215,28.1942139s-12.6479874,28.1942444-28.1942215,28.1942444
				S5.9884386,375.2202454,5.9884386,359.6740112S18.636425,331.4797974,34.1826553,331.4797974z M34.1826553,386.8420715
				c14.980484,0,27.1680374-12.187561,27.1680374-27.1680603c0-14.9804688-12.1875534-27.1680298-27.1680374-27.1680298
				c-14.9809799,0-27.1680336,12.187561-27.1680336,27.1680298
				C7.0146217,374.6545105,19.2016754,386.8420715,34.1826553,386.8420715z"/>
		</g>
	</g>
	<g>
		<g>
			
				<linearGradient id="SVGID_00000086656867730755251370000011034931678194465431_" gradientUnits="userSpaceOnUse" x1="55.7451096" y1="391.3918762" x2="77.9723892" y2="391.3918762" gradientTransform="matrix(1 0 0 -1 0 406)">
				<stop  offset="0" style="stop-color:#444C4C"/>
				<stop  offset="1" style="stop-color:#5D6567"/>
			</linearGradient>
			<path style="fill:url(#SVGID_00000086656867730755251370000011034931678194465431_);" d="M76.3847122,8.6045637
				c5.6936646,10.5659399-4.9635696,21.2231903-15.5295143,15.5295267c-1.487381-0.8015041-2.7207184-2.0347939-3.5222702-3.5221481
				c-5.694088-10.5658932,4.9637451-21.2237282,15.5296364-15.5296478
				C74.3499222,5.8838482,75.5832062,7.1171823,76.3847122,8.6045637z"/>
			<g>
				<path class="st9" d="M66.8588104,24.6776104c-5.5522957,0-10.0694237-4.5171299-10.0694237-10.0694256
					c0-5.5526714,4.517128-10.0698013,10.0694237-10.0698013c5.5521774,0,10.0692978,4.5171299,10.0692978,10.0698013
					C76.9281082,20.1604805,72.4109879,24.6776104,66.8588104,24.6776104z M66.8588104,4.9953251
					c-5.3006134,0-9.612484,4.3122425-9.612484,9.6128597c0,5.3002434,4.3118706,9.612484,9.612484,9.612484
					c5.300621,0,9.6124878-4.3122406,9.6124878-9.612484C76.4712982,9.3075676,72.1594315,4.9953251,66.8588104,4.9953251z"/>
			</g>
			<path class="st7" d="M67.2393875,8.6738138l1.5210571,3.0819197c0.0618896,0.1252785,0.1813049,0.2121248,0.3195648,0.232214
				l3.4012299,0.4942503c0.3481293,0.0505352,0.4871368,0.4784031,0.2352066,0.7239685l-2.4611435,2.399004
				c-0.0999527,0.0974522-0.1456223,0.2379532-0.1220322,0.3757095l0.5809708,3.3873796
				c0.0595169,0.3467598-0.3044662,0.6111679-0.6157913,0.4474564l-3.0421143-1.5992928
				c-0.1236496-0.0650101-0.2713928-0.0650101-0.39505,0l-3.0421143,1.5992928
				c-0.3113213,0.1637115-0.6753044-0.1006966-0.6157837-0.4474564l0.5809708-3.3873796
				c0.0235825-0.1377563-0.0220833-0.2782574-0.1221581-0.3757095l-2.4610176-2.399004
				c-0.2519302-0.2455654-0.1129265-0.6734333,0.2352066-0.7239685l3.4011078-0.4942503
				c0.1382523-0.0200891,0.2577896-0.1069355,0.3196793-0.232214l1.5209351-3.0819197
				C66.6338348,8.3583727,67.0836639,8.3583727,67.2393875,8.6738138z"/>
		</g>
		<g>
			
				<linearGradient id="SVGID_00000158714304563990097900000010684903094552443016_" gradientUnits="userSpaceOnUse" x1="98.5703125" y1="391.3918762" x2="120.7975922" y2="391.3918762" gradientTransform="matrix(1 0 0 -1 0 406)">
				<stop  offset="0" style="stop-color:#444C4C"/>
				<stop  offset="1" style="stop-color:#5D6567"/>
			</linearGradient>
			<path style="fill:url(#SVGID_00000158714304563990097900000010684903094552443016_);" d="M119.2099152,8.6045637
				c5.6936646,10.5659399-4.9635696,21.2231903-15.5295181,15.5295267c-1.487381-0.8015041-2.7207184-2.0347939-3.5222702-3.5221481
				c-5.6940842-10.5658932,4.9637451-21.2237282,15.5296402-15.5296478
				C117.1751175,5.8838482,118.4084091,7.1171823,119.2099152,8.6045637z"/>
			<g>
				<path class="st9" d="M109.6840134,24.6776104c-5.5522995,0-10.0694275-4.5171299-10.0694275-10.0694256
					c0-5.5526714,4.517128-10.0698013,10.0694275-10.0698013c5.5521698,0,10.0692978,4.5171299,10.0692978,10.0698013
					C119.7533112,20.1604805,115.2361832,24.6776104,109.6840134,24.6776104z M109.6840134,4.9953251
					c-5.3006134,0-9.6124878,4.3122425-9.6124878,9.6128597c0,5.3002434,4.3118744,9.612484,9.6124878,9.612484
					c5.300621,0,9.6124802-4.3122406,9.6124802-9.612484C119.2964935,9.3075676,114.9846344,4.9953251,109.6840134,4.9953251z"/>
			</g>
			<path class="st7" d="M110.0645905,8.6738138l1.5210571,3.0819197c0.0618896,0.1252785,0.1813049,0.2121248,0.3195572,0.232214
				l3.4012299,0.4942503c0.3481369,0.0505352,0.4871368,0.4784031,0.2352142,0.7239685l-2.4611435,2.399004
				c-0.0999527,0.0974522-0.1456223,0.2379532-0.1220398,0.3757095l0.5809708,3.3873796
				c0.0595245,0.3467598-0.3044586,0.6111679-0.6157837,0.4474564l-3.0421143-1.5992928
				c-0.1236572-0.0650101-0.2713928-0.0650101-0.39505,0l-3.0421143,1.5992928
				c-0.3113251,0.1637115-0.6753082-0.1006966-0.6157837-0.4474564l0.5809708-3.3873796
				c0.0235825-0.1377563-0.0220871-0.2782574-0.1221619-0.3757095l-2.4610138-2.399004
				c-0.2519302-0.2455654-0.1129303-0.6734333,0.2352066-0.7239685l3.4011002-0.4942503
				c0.1382599-0.0200891,0.2577972-0.1069355,0.3196869-0.232214l1.5209351-3.0819197
				C109.4590378,8.3583727,109.9088669,8.3583727,110.0645905,8.6738138z"/>
		</g>
		<g>
			
				<linearGradient id="SVGID_00000150788520860782268990000002490663855111115908_" gradientUnits="userSpaceOnUse" x1="74.0928955" y1="391.8486633" x2="102.395668" y2="391.8486633" gradientTransform="matrix(1 0 0 -1 0 406)">
				<stop  offset="0" style="stop-color:#444C4C"/>
				<stop  offset="1" style="stop-color:#5D6567"/>
			</linearGradient>
			<path style="fill:url(#SVGID_00000150788520860782268990000002490663855111115908_);" d="M100.3740692,6.5068879
				c7.2497787,13.4535618-6.3200684,27.0237484-19.7740173,19.774395c-1.8940125-1.0205441-3.4645233-2.5909519-4.4852066-4.4848843
				C68.8640747,8.3422785,82.4351425-5.2288065,95.8892593,2.0219343
				C97.7831192,3.0425799,99.3534927,4.6129889,100.3740692,6.5068879z"/>
			<g>
				<path class="st9" d="M88.2442169,26.9731293c-7.0698624,0-12.8216782-5.7518177-12.8216782-12.8216791
					c0-7.0704846,5.7518158-12.8223028,12.8216782-12.8223028s12.8216782,5.7518187,12.8216782,12.8223028
					C101.0658951,21.2213116,95.3140793,26.9731293,88.2442169,26.9731293z M88.2442169,1.910992
					c-6.7494278,0-12.23983,5.4910302-12.23983,12.2404585c0,6.7488031,5.4904022,12.2398348,12.23983,12.2398348
					s12.2399597-5.4910316,12.2399597-12.2398348C100.4841766,7.4020224,94.9936447,1.910992,88.2442169,1.910992z"/>
			</g>
			
				<linearGradient id="SVGID_00000029757268023247160040000015373424537614551705_" gradientUnits="userSpaceOnUse" x1="88.2442398" y1="403.8836975" x2="88.2442398" y2="379.1555176" gradientTransform="matrix(1 0 0 -1 0 406)">
				<stop  offset="0" style="stop-color:#00B4E0"/>
				<stop  offset="1" style="stop-color:#00B4EE"/>
			</linearGradient>
			<path style="fill:url(#SVGID_00000029757268023247160040000015373424537614551705_);" d="M88.7288589,6.5949512
				l1.9368286,3.9244285c0.0787277,0.1594677,0.230957,0.2700214,0.4068985,0.2956018l4.3308334,0.629261
				c0.4433365,0.0645103,0.620285,0.6091719,0.2996063,0.9218683l-3.1338425,3.0547171
				c-0.1273956,0.124156-0.1855469,0.3030891-0.1554718,0.478404l0.7398148,4.313365
				c0.0757446,0.4414673-0.3876877,0.7781219-0.7842331,0.5697403l-3.8735123-2.03652
				c-0.1574783-0.0827274-0.3456421-0.0827274-0.5029907,0l-3.8736496,2.03652
				c-0.3965454,0.2083817-0.8599777-0.128273-0.7842255-0.5697403l0.7398071-4.313365
				c0.0300827-0.1753149-0.0280762-0.354248-0.1554718-0.478404l-3.1337051-3.0547171
				c-0.3208084-0.3126965-0.1438675-0.857358,0.299469-0.9218683l4.3308334-0.629261
				c0.1760635-0.0255804,0.3281708-0.1361341,0.4069061-0.2956018l1.9368286-3.9244285
				C87.9578476,6.1932869,88.5305862,6.1932869,88.7288589,6.5949512z"/>
		</g>
	</g>
</g>
</svg>
