<?xml version="1.0" encoding="utf-8"?>
<!-- Generator: Adobe Illustrator 25.4.1, SVG Export Plug-In . SVG Version: 6.00 Build 0)  -->
<svg version="1.1" id="Layer_1" xmlns="http://www.w3.org/2000/svg" xmlns:xlink="http://www.w3.org/1999/xlink" x="0px" y="0px"
	 width="110.5714111px" height="110.5714111px" viewBox="0 0 110.5714111 110.5714111"
	 style="enable-background:new 0 0 110.5714111 110.5714111;" xml:space="preserve">
<style type="text/css">
	.st0{fill:#FFFFFF;}
</style>
<g>
	<path class="st0" d="M55.2857056,0C24.7522583,0,0,24.7522583,0,55.2857056s24.7522583,55.2857056,55.2857056,55.2857056
		s55.2857056-24.7522583,55.2857056-55.2857056S85.8191528,0,55.2857056,0z M55.2857056,100.2857056
		c-24.8528442,0-45-20.1472168-45-45c0-24.8528442,20.1471558-45,45-45c24.8527832,0,45,20.1471558,45,45
		C100.2857056,80.1384888,80.1384888,100.2857056,55.2857056,100.2857056z"/>
	<path class="st0" d="M40.2857056,39.4424706v31.6864738c0,5.2626038,5.8249092,8.4383316,10.248394,5.5873947l24.5822182-15.843235
		c4.0616531-2.6177292,4.0616531-8.5570679,0-11.1747971L50.5340996,33.8550682
		C46.1106148,31.0041351,40.2857056,34.179863,40.2857056,39.4424706z"/>
</g>
</svg>
