<?xml version="1.0" encoding="utf-8"?>
<!-- Generator: Adobe Illustrator 25.4.1, SVG Export Plug-In . SVG Version: 6.00 Build 0)  -->
<svg version="1.1" id="Layer_1" xmlns="http://www.w3.org/2000/svg" xmlns:xlink="http://www.w3.org/1999/xlink" x="0px" y="0px"
	 width="100px" height="100px" viewBox="0 0 100 100" style="enable-background:new 0 0 100 100;" xml:space="preserve">
<style type="text/css">
	.st0{fill:#0078b9;}
</style>
<g id="XMLID_33_">
	<path id="XMLID_34_" class="st0" d="M15.3408508,27.0806885c6.2599335,0,11.3347931-4.6279907,11.3347931-10.3432312
		c0-5.7202759-5.0748596-10.3544006-11.3347931-10.3544006C9.0748138,6.3830566,4,11.0171814,4,16.7374573
		C4,22.4526978,9.0748138,27.0806885,15.3408508,27.0806885 M6.5979614,93.6169434h20.3377838V34.9607239H6.5979614V93.6169434z
		 M55.4800415,60.9935303c0-6.726593,3.1825256-13.3045349,10.7922821-13.3045349
		c7.609726,0,9.4808502,6.5779419,9.4808502,13.1437073v32.0350037H96v-33.344696
		c0-23.1663513-13.6938934-27.1602478-22.1179504-27.1602478c-8.4170074,0-13.059433,2.8469849-18.4020081,9.7455444v-7.896759
		H35.1755981v58.6561584h20.3044434V60.9935303z"/>
</g>
</svg>
