<?xml version="1.0" encoding="utf-8"?>
<!-- Generator: Adobe Illustrator 25.4.1, SVG Export Plug-In . SVG Version: 6.00 Build 0)  -->
<svg version="1.1" id="Layer_1" xmlns="http://www.w3.org/2000/svg" xmlns:xlink="http://www.w3.org/1999/xlink" x="0px" y="0px"
	 width="100px" height="100px" viewBox="0 0 100 100" style="enable-background:new 0 0 100 100;" xml:space="preserve">
<style type="text/css">
	.st0{fill:#0078B9;}
</style>
<path class="st0" d="M45.3959961,4.3076673c-15.288044,1.706656-30.5221939,14.0754223-31.1509628,31.7438011
	c-0.3952255,10.7878609,2.6677732,18.8810043,12.9346552,21.1535492c4.4552708-7.8596001-1.4371834-9.5932007-2.3533897-15.2790604
	C21.0626755,18.6256123,51.7016411,2.7357473,67.7352295,19.0028725
	c11.0932617,11.2639294,3.7905731,45.918026-14.1023712,42.3160858c-17.1384163-3.440258,8.3895645-31.0252094-5.2906303-36.441597
	c-11.1202126-4.4013748-17.030632,13.4646168-11.7579613,22.3392277C33.4943199,62.4776878,26.8383617,76.8585052,29.5330811,96
	c8.7398758-6.3415756,11.6861038-18.4857788,14.1023674-31.1509628c4.392395,2.667778,6.7368011,5.4433365,12.3418159,5.8744965
	c20.6685028,1.5988617,32.2108841-20.632576,29.390419-41.1393967C82.8615875,11.4037628,64.7171402,2.1518912,45.3959961,4.3076673
	z"/>
</svg>
