<?xml version="1.0" encoding="utf-8"?>
<!-- Generator: Adobe Illustrator 25.4.1, SVG Export Plug-In . SVG Version: 6.00 Build 0)  -->
<svg version="1.1" id="Layer_1" xmlns="http://www.w3.org/2000/svg" xmlns:xlink="http://www.w3.org/1999/xlink" x="0px" y="0px"
	 width="93.6649857px" height="147.2428131px" viewBox="0 0 93.6649857 147.2428131"
	 style="enable-background:new 0 0 93.6649857 147.2428131;" xml:space="preserve">
<style type="text/css">
	.st0{fill:#0078B9;}
</style>
<g>
	<path class="st0" d="M51.0066109,0C73.6621628,0.119183,91.6633759,16.2307682,93.47966,38.6951294
		c1.4520416,17.959198-5.6511307,32.9620056-20.5160675,44.8482895c-0.5858002,0.4684143-1.1449127,1.0553284-1.5288086,1.6889267
		c-8.4542313,13.9533005-16.8704109,27.9272766-25.3343124,41.8752899c-0.7595253,1.2516479-1.6825409,2.4659119-2.726284,3.5004272
		c-2.0749054,2.0566101-4.3649712,2.2532196-6.5664673,0.7087097c-1.6175308-1.1348267-2.8428955-2.6346283-3.6227722-4.4639664
		c-5.9484787-13.9530792-11.8760948-27.9164276-17.8279762-41.867836c-0.2178783-0.5107346-0.5412846-1.0158234-0.946867-1.3811493
		c-9.621067-8.6658783-14.5309734-19.690773-14.4078445-33.1949577C0.2174316,26.8103294,18.3313808,5.4702687,41.978466,0.905075
		c1.2738457-0.2459229,2.5585709-0.4435441,3.8390121-0.5647367C47.5467911,0.1766592,49.2768593,0.108911,51.0066109,0z
		 M48.9424896,21.4453068c-13.2739906-0.0347729-25.1372452,10.89081-26.3592777,24.2758312
		c-1.2315559,13.4893341,8.6023369,24.5250549,21.8829288,24.5573044
		c13.5078278,0.0327988,25.2839737-10.7716026,26.5424347-24.3522301
		C72.2555542,32.4696236,62.3503342,21.4804287,48.9424896,21.4453068z"/>
	<path class="st0" d="M24.7379036,120.9777145c-2.3065624,0.717865-4.5878239,1.2655792-6.7568779,2.1485748
		c-2.1687031,0.8828583-4.3506851,1.9007416-6.3047247,3.2139664c-4.0641041,2.731308-4.2331996,5.4862518-0.7074928,8.3223114
		c2.7753677,2.2325134,6.0891542,3.5036469,9.5406485,4.4782715c7.1713371,2.0249634,14.6312027,2.567627,22.2443848,2.2486877
		c5.9239464-0.2481384,11.8070602-1.0684662,17.5992012-2.940033c2.590332-0.8370056,5.1378632-1.8300934,7.4199753-3.4154816
		c1.0782547-0.749054,2.0942459-1.6597443,2.9633865-2.6464539c1.0765228-1.2221375,1.2329636-2.6931458,0.3123627-3.8677368
		c-0.9168243-1.1698074-1.986702-2.2850952-3.2099075-3.1242599c-3.4100571-2.3394318-7.4058952-3.4910812-11.4841728-4.4250107
		c-0.2529488-0.0579453-0.5048637-0.1192474-0.9011345-0.2130356c1.2988091-1.6405869,2.5262833-3.2116089,3.7902908-4.7540741
		c0.1187515-0.1449203,0.4973488-0.1981201,0.7053528-0.1452789c4.1052856,1.0431061,8.0531158,2.4206924,11.5483551,4.727272
		c1.8767014,1.2384491,3.5294876,2.7063828,4.6633987,4.6806488c1.9273453,3.3557281,1.526535,7.326889-1.0800171,10.6170807
		c-1.9995499,2.5239868-4.611496,4.2162933-7.4275436,5.6039276c-4.8814621,2.4054108-10.0136452,3.745575-15.2347908,4.599762
		c-10.2180214,1.6717224-20.2639046,1.5523529-30.0965424-0.5024567c-4.5033283-0.9410858-8.8348131-2.3007507-12.7428951-4.606308
		c-2.3157244-1.3661652-4.4004436-3.0010834-5.7152624-5.3973846c-1.8427362-3.3584137-1.565676-6.7830811,0.8397779-10.1587982
		c1.8524356-2.5996094,4.3910618-4.4269791,7.2167578-5.6962357c2.8723116-1.2901764,5.8593245-2.2820129,8.8097296-3.3573837
		c0.266777-0.0972366,0.7720528,0.041893,0.9306564,0.2545166
		C22.7152214,118.0362701,23.7053337,119.4996719,24.7379036,120.9777145z"/>
	<path class="st0" d="M45.4624672,59.4245148c-7.4918289,0.0064697-13.0155563-6.0934105-12.367878-13.657917
		c0.6528702-7.6250954,7.225956-13.7742767,14.7426033-13.7918415c7.487587-0.0174999,13.0330086,6.1530209,12.369957,13.7643604
		C59.5498238,53.2848473,52.9418907,59.4180565,45.4624672,59.4245148z"/>
</g>
</svg>
