<?xml version="1.0" encoding="utf-8"?>
<!-- Generator: Adobe Illustrator 25.4.1, SVG Export Plug-In . SVG Version: 6.00 Build 0)  -->
<svg version="1.1" id="Layer_1" xmlns="http://www.w3.org/2000/svg" xmlns:xlink="http://www.w3.org/1999/xlink" x="0px" y="0px"
	 width="150.5924835px" height="153px" viewBox="0 0 150.5924835 153" style="enable-background:new 0 0 150.5924835 153;"
	 xml:space="preserve">
<style type="text/css">
	.st0{fill:#0078B9;}
</style>
<g>
	<g>
		<path class="st0" d="M10.7436237,118.9264984c-5.7120047,0.5347824-10.6190996-3.9939804-10.7411909-9.9151001
			c-0.0253158-1.2284241,0.1493988-2.5239639,0.4106224-3.7898407C1.5978698,99.4801254,2.8805604,93.737999,4.0602336,87.996666
			c0.7557216-3.6779938,2.5794902-6.8610992,5.5938678-9.6399078c0.5271769-0.4859619,0.8790016-1.3161011,1.0536432-1.9983673
			c1.4665709-5.7295837,2.4499245-11.5161819,4.3690872-17.1839218C24.4314842,31.5481491,50.1511002,8.4774771,78.53022,1.962234
			c39.6013947-9.0916367,71.8727341,14.2776337,72.0616684,52.143692
			c0.0353394,7.0810318-1.5157623,14.2480316-3.1400757,21.4255142c-0.3116302,1.3768921-0.2966156,2.4779358,0.4464569,3.5830841
			c1.4571075,2.1672134,1.8994141,4.8161087,1.2956238,7.7363815c-1.3409424,6.4854584-2.6870422,12.9723129-4.1605225,19.4567947
			c-0.9080658,3.9962463-3.3275299,7.31987-6.9939117,9.7778397c-1.1876373,0.7961884-1.5934448,1.6167526-1.9009857,2.8085175
			c-1.0242767,3.9691238-1.7080994,8.0455551-3.3883972,11.8758698
			c-4.9981079,11.3934021-17.0569839,19.3616638-28.7376862,19.4004059
			c-5.9052963,0.0195923-11.8028564,0.0022583-17.7039261,0.0016632c-0.5785828-0.000061-1.1571884-0.0000153-1.9014435-0.0000153
			c-0.2548828,0.9786835-0.4824829,1.8526917-0.7364883,2.8280182c-7.8529587,0-15.6369553,0-23.5353279,0
			c0.6359673-2.9804382,1.2652855-5.9297485,1.920475-9.0002594c7.7820435,0,15.5652161,0,23.52108,0
			c-0.1400146,0.8514404-0.2839737,1.7267151-0.4419022,2.6871338c0.3360443,0.0610504,0.6128998,0.1587524,0.910614,0.1584473
			c6.4870605-0.0063782,12.9497528,0.1214447,19.4711533-0.0704193
			c11.9092178-0.3503571,23.3666611-10.073288,26.0278091-21.9174957c0.4519806-2.0117111,0.8618011-4.02388,1.3090515-6.1198807
			c-1.2953644,0.1286392-2.4529877,0.2436066-3.7523041,0.3726501c3.2116089-15.0511398,6.3903046-29.9480438,9.6116028-45.0445175
			c1.2698364,0.1716309,2.4765625,0.3347244,3.7295532,0.5040894c0.0710602-0.0935974,0.223114-0.2189484,0.2580872-0.3505173
			c3.6455231-13.7077332,3.8585052-26.6462784-0.7802887-38.5191612c-0.3921967-1.0037804-0.9093781-1.3609085-2.1241302-1.2328568
			c-3.2560883,0.3432274-5.5588989-0.913063-7.2816315-3.1987495c-7.4790344-9.9229507-17.7803497-16.1445694-31.030098-18.0516891
			c-19.6203766-2.8240948-38.3800049,3.1734476-55.9858475,17.461422c-3.2440338,2.632679-6.395401,4.2699623-10.1376038,3.7993736
			c-0.3973579-0.0499725-1.1498108,0.3959122-1.4813881,0.7943649
			c-6.5657139,7.8899689-11.4791069,16.4409142-14.3884773,25.6742401
			c-1.409977,4.4747772-2.3538246,8.9980011-3.5499487,13.6600647c1.6269217-0.2017822,2.9410143-0.3647766,4.3754702-0.5426865
			C17.1026382,89.1251373,13.9221678,104.0303345,10.7436237,118.9264984z"/>
		<path class="st0" d="M39.0857773,95.6946411c-1.8943291,8.87677-3.7870865,17.7535553-5.6834221,26.6303253
			c-0.5744133,2.6888809-1.4388714,3.4038544-4.1137085,3.4057083c-4.5187798,0.0031357-9.0378895,0.0077209-13.5539694-0.0016937
			c-2.2267551-0.0046387-2.8834105-0.8389816-2.4042215-3.0881958c3.8049774-17.8598633,7.6158657-35.7197113,11.4320488-53.5795593
			c0.5260582-2.4619446,1.5093689-3.271553,3.928669-3.2739487c4.5722237-0.0045013,9.1449203-0.0110474,13.7127762,0.0046463
			c2.2234764,0.007637,2.8743858,0.8615723,2.3956795,3.1129456C42.9008865,77.8347931,40.9914589,86.7647324,39.0857773,95.6946411
			z"/>
		<path class="st0" d="M110.6892776,95.6946869c1.8943405-8.8768616,3.7860641-17.7537155,5.6841812-26.6305695
			c0.5269623-2.4643707,1.4839325-3.2684479,3.919281-3.2743835c4.5736542-0.0111465,9.1452332-0.0123672,13.7141876-0.0015106
			c2.2081451,0.0052338,2.8813934,0.8660355,2.4026489,3.1142273c-3.8146515,17.9131546-7.6369629,35.8263168-11.4648895,53.7394791
			c-0.4813309,2.252449-1.4833298,3.0789108-3.7230453,3.0846558c-4.626976,0.0118942-9.2512817,0.0109863-13.8735352,0.0006943
			c-2.2534943-0.0050125-2.8884811-0.8138962-2.4062729-3.0831146
			C106.850769,113.6610031,108.7722549,104.6778564,110.6892776,95.6946869z"/>
	</g>
</g>
</svg>
