<?xml version="1.0" encoding="utf-8"?>
<!-- Generator: Adobe Illustrator 25.4.1, SVG Export Plug-In . SVG Version: 6.00 Build 0)  -->
<svg version="1.1" id="Layer_1" xmlns="http://www.w3.org/2000/svg" xmlns:xlink="http://www.w3.org/1999/xlink" x="0px" y="0px"
	 width="149.4472198px" height="147.1867676px" viewBox="0 0 149.4472198 147.1867676"
	 style="enable-background:new 0 0 149.4472198 147.1867676;" xml:space="preserve">
<style type="text/css">
	.st0{fill:#0078B9;}
</style>
<path class="st0" d="M148.2938995,73.662262c-7.1531677,40.6236877-45.916275,73.5340881-86.6167297,73.5245056
	c-40.7410736,0-67.7325134-32.9601059-60.5077286-73.877861C8.3141365,32.9014244,47.1869392-0.019755,87.7481537,0.0000089
	C128.3977051,0.0197727,155.4724731,32.9505348,148.2938995,73.662262 M104.8992081,76.6352234H43.4534035
	c-1.3635216,9.1255112-1.9747276,18.0449905-1.4892578,26.5326691c9.3696632-0.3826981,18.5933495-1.049881,27.70718-1.0397034
	c9.1452713,0,18.1746979,0.6570053,27.3701706,1.0397034C100.5223312,94.6119385,103.0862656,85.6924591,104.8992081,76.6352234
	 M107.4565964,43.6559525c-9.3903046,1.0007706-18.574646,1.5008545-27.7100372,1.5008545
	c-9.1668243,0.0101814-18.2104454-0.5102654-27.2103958-1.5008545c-3.6401405,8.9584122-6.217144,17.8976593-8.0139961,26.9740601
	h61.4359169C107.3477707,61.5242653,107.939209,52.6047821,107.4565964,43.6559525 M106.8785477,37.974144
	c0.0398102-0.2257843,0.07341-0.3042412,0.0656815-0.3725166c-0.8481979-7.3204098-2.4176331-14.3359776-5.6173248-20.6753807
	c-1.7299042-3.4341183-3.9143906-6.5148821-7.1084671-8.7134609c-4.7258224-3.247859-10.053978-3.247859-15.9220963-0.019165
	c-3.064827,1.6877127-5.7194061,3.9443846-8.1496582,6.4861355c-6.1243057,6.4070797-10.5129051,13.7664185-14.2716866,21.4497643
	c-0.2787971,0.5791397-0.5377197,1.1576805-0.8535995,1.835041C72.0510025,39.8289528,89.2620163,39.8289528,106.8785477,37.974144
	 M42.5648537,109.2222137c-0.0416107,0.2359695-0.0919533,0.3533554-0.0813141,0.4611588
	c0.8522682,7.0748596,2.3481331,13.8945847,5.3695755,20.0764694c1.7754097,3.6209869,4.0074997,6.878418,7.3358078,9.2039642
	c2.8654785,2.0021362,6.1684113,2.9142761,10.0920677,2.1979828c4.2498169-0.7845612,7.8929749-3.0807648,11.2362518-6.014801
	c5.8538513-5.1517639,10.1219482-11.3827744,13.832489-17.9569473c1.4424438-2.5609131,2.7322311-5.2002869,4.1567154-7.9378815
	C77.3725281,107.3680115,60.132164,107.3680115,42.5648537,109.2222137 M35.9526291,104.3159943
	c-0.4117622-9.1842041,0.281044-18.3983459,1.6757202-27.700531H6.4248285
	c-1.5231099,12.0888824-0.0012188,23.1578369,4.6477089,33.3529892
	C19.3550568,107.1817474,27.6162186,105.5724945,35.9526291,104.3159943 M141.9347534,76.6154633H110.721344
	c-1.8665848,9.3614731-4.4592209,18.5558548-8.0732193,27.700531c7.9519958,1.2565002,15.6308899,2.8951035,22.8966141,5.6524582
	C133.7826385,99.75354,139.1949615,88.7043457,141.9347534,76.6154633 M111.7901077,70.6102448h31.2035294
	c1.5285797-12.1182327,0.0178528-23.196167-4.6344604-33.3721542c-8.3118591,2.786705-16.5617523,4.3863792-24.8899689,5.652462
	C113.8873672,52.0945168,113.2015305,61.2691345,111.7901077,70.6102448 M23.88867,37.228508
	C15.6340322,47.4823532,10.1988554,58.550705,7.4917965,70.62043h31.2035198
	c1.8764687-9.3614769,4.4510345-18.5654411,8.0804901-27.7400589C38.8725166,41.6244698,31.20821,40.015213,23.88867,37.228508
	 M46.1210556,139.248291c-1.1801376-1.932663-2.3186111-3.6006165-3.2694893-5.3865509
	c-3.6605415-6.8981781-5.4307632-14.6108704-6.3340454-22.6769104c-0.1033096-0.9714279-0.4410248-1.2265625-1.4095459-1.0205383
	c-6.3189545,1.3343582-12.634531,2.6495514-18.9552803,3.9940948c-0.7851753,0.1664963-1.5762653,0.4803238-2.5017242,0.7749863
	C21.1381283,127.1204758,31.8704147,135.1469879,46.1210556,139.248291 M69.2222061,8.1247473
	c-10.6603394,1.0792255-34.957798,15.5038385-40.8012619,24.1580086c3.8005219,1.7074776,18.1783981,4.9750977,20.8414955,4.7301483
	C54.2034912,26.4643993,60.1146278,16.4261608,69.2222061,8.1247473 M103.2344589,8.0558729
	c6.2769394,8.4193983,8.6150208,18.4768028,9.8476715,29.0157242c3.7853317-0.0982208,19.7162094-3.3556633,22.5293808-4.8966446
	C129.1508636,20.7334824,116.6322556,11.3726053,103.2344589,8.0558729 M121.2073212,114.9231873
	c-6.7982941-2.4039993-13.7705994-3.8755112-20.9694595-4.8960419
	c-5.0160294,10.6952362-10.9172821,20.7334747-19.9237366,29.0744171
	C95.8707352,135.1272278,109.4240265,127.1007156,121.2073212,114.9231873"/>
</svg>
