<?xml version="1.0" encoding="utf-8"?>
<!-- Generator: Adobe Illustrator 25.4.1, SVG Export Plug-In . SVG Version: 6.00 Build 0)  -->
<svg version="1.1" id="Layer_1" xmlns="http://www.w3.org/2000/svg" xmlns:xlink="http://www.w3.org/1999/xlink" x="0px" y="0px"
	 width="150.8700409px" height="109.2408295px" viewBox="0 0 150.8700409 109.2408295"
	 style="enable-background:new 0 0 150.8700409 109.2408295;" xml:space="preserve">
<style type="text/css">
	.st0{fill:#0078B9;}
</style>
<g>
	<g>
		<path class="st0" d="M0,109.2408295c3.3770144-6.3710938,6.546628-12.389328,9.7679291-18.3895798
			c0.5223017-0.9728928,0.653944-1.6322174,0.0440531-2.4538269c-8.408062-11.3270187-6.4826555-26.5190163,4.9087048-38.9004555
			c0.3665009-0.3983383,0.7012663-0.9235687,0.8321686-1.4028778c3.3528242-12.2758675,11.2004423-21.9778366,21.8615112-29.9646854
			C48.9303513,9.5020819,61.4785843,4.4008894,74.6276703,1.9003781
			c19.3297348-3.6758661,37.0730896-2.1518142,52.7064209,5.7343259
			c8.9663849,4.5230451,16.1087189,10.9286537,20.3621521,20.0569515
			c7.4387512,15.964323,1.5663452,35.4233093-15.1500397,50.2391586c-1.1617584,1.0296478-1.5075226,1.8437042-1.3606873,3.1377487
			c0.8315277,7.3286819,1.587204,14.6809311,2.2906494,22.0477371c0.0656738,0.6876144-0.2222137,1.9262085-0.686264,2.2085724
			c-0.6202545,0.3774185-1.7250824,0.31073-2.3604126,0.0200272c-7.8318405-3.5837173-15.6003418-7.2680283-23.4385147-10.8415909
			c-0.7272339-0.3315582-1.8638611-0.3639069-2.7342224-0.0621185c-9.6195984,3.3352585-19.2045059,5.1273804-28.7822876,5.5429077
			c-0.6621246,0.0287399-1.3698044,0.1725769-2.0355453,0.3986969c-17.1508446,5.8251724-33.0680313,5.8434372-47.7241898,0.0144272
			c-1.0774498-0.4285278-2.0182018-0.4012985-3.2485809,0.0871429c-6.7948208,2.6972351-13.6062899,5.3188629-20.412159,7.9658966
			C1.4892489,108.6699066,0.9236606,108.8854752,0,109.2408295z M19.6373253,44.4874573
			c3.3310051-2.1576996,6.2959614-4.3823509,9.4666481-6.0820465c18.5199051-9.928009,36.4269867-11.5673885,53.6543045-6.6607914
			c9.390625,2.6745777,17.0462723,7.6242123,22.0494843,15.6550732c6.4740677,10.3918419,4.7348785,23.7240791-4.5377426,34.9716682
			c-4.3449783,5.2703629-9.6119614,9.3962479-15.4602203,12.7763977c-0.5118561,0.2958679-1.0097961,0.6229782-1.850914,1.1442032
			c0.8527222-0.0502472,1.3136749-0.0442886,1.7795258-0.1098022c6.7324295-0.9470367,13.4378357-2.527298,20.086647-5.0275497
			c1.135582-0.4270172,1.9919281-0.4351044,2.9393234,0.0148849c6.8592606,3.2582092,13.7580719,6.4550247,20.6481247,9.6654053
			c0.490799,0.2286835,1.0113525,0.4106216,1.6771545,0.6782608c-0.0520172-0.7112122-0.075592-1.2033157-0.1253357-1.6876373
			c-0.6028442-5.8719559-1.0685577-11.7890091-1.8786316-17.5930176c-0.3686752-2.6412735,0.2929688-4.3524704,2.7626343-6.5208588
			c17.3444061-15.2286758,21.7401276-35.6324387,11.2223206-51.1234894
			c-4.1862946-6.1657677-9.8602295-10.7686005-16.6087646-14.1855249C112.4032745,3.790782,97.6256104,1.8836426,81.50811,3.7851722
			C69.2459335,5.2318549,57.2892532,8.9824047,45.8376274,15.8018446
			c-9.5822067,5.706212-17.7060032,12.9298105-23.2204952,22.6480827
			C21.529747,40.3662643,20.6742134,42.3713913,19.6373253,44.4874573z M66.1373901,64.6101837
			c-1.7162781,0.0357666-3.4185448,1.513382-3.7366028,3.2434845c-0.3202896,1.742157,0.8396606,3.0750961,2.6126404,3.0022964
			c1.696106-0.0696335,3.3041992-1.4504318,3.6467285-3.1312943C69.0099335,66.0082016,67.8486328,64.5745087,66.1373901,64.6101837
			z M47.0631142,64.6119461c-1.6952019,0.0134048-3.477314,1.5050888-3.8091927,3.1884155
			c-0.3383904,1.7162857,0.8314934,3.1028519,2.5761948,3.0534058c1.7083549-0.0484314,3.3012466-1.3805237,3.6798668-3.0773849
			C49.8948936,66.0513535,48.7714348,64.5984344,47.0631142,64.6119461z M55.2665443,70.8524323
			c1.7681313,0.0152054,3.432663-1.3435898,3.8045273-3.1057205c0.3683281-1.7453842-0.7466125-3.1549454-2.477684-3.1323929
			c-1.6422577,0.0214005-3.3493843,1.4171219-3.7429276,3.0601425
			C52.4375839,69.3982239,53.5318375,70.8375092,55.2665443,70.8524323z"/>
	</g>
</g>
</svg>
