<?xml version="1.0" encoding="utf-8"?>
<!-- Generator: Adobe Illustrator 25.4.1, SVG Export Plug-In . SVG Version: 6.00 Build 0)  -->
<svg version="1.1" id="Layer_1" xmlns="http://www.w3.org/2000/svg" xmlns:xlink="http://www.w3.org/1999/xlink" x="0px" y="0px"
	 width="151.2775421px" height="127px" viewBox="0 0 151.2775421 127" style="enable-background:new 0 0 151.2775421 127;"
	 xml:space="preserve">
<style type="text/css">
	.st0{fill:#0078B9;}
</style>
<g>
	<g>
		<path class="st0" d="M129.1334381,127c-42.0444641,0-83.773468,0-125.72789,0
			c0.8110874-0.5583878,1.4345529-0.9952164,2.0647552-1.4203339c17.4495792-11.770813,34.9032555-23.5345535,52.3401337-35.3273697
			c0.8888741-0.6011658,1.3783417-0.6927261,2.0765076-0.068512c1.6681137,1.4913864,3.4372292,2.8845901,5.249485,4.2186584
			c4.6356354,3.4124985,10.0520859,3.4045563,16.1408844,0.0036545c2.7563324-1.5395432,5.4615326-3.2005768,8.297905-4.8700485
			C102.6624146,101.9303894,115.7987289,114.3712463,129.1334381,127z"/>
		<path class="st0" d="M94.7271957,86.2791214c3.1743851-1.9519577,6.2267914-3.7775192,9.2350311-5.6878128
			c11.5254059-7.3188934,23.064209-14.6135406,34.5390701-22.0271568c4.3792725-2.8293304,8.5837708-5.9770012,12.6032257-9.902359
			c0.0746307,0.5957146,0.2266388,0.9811211,0.1537476,1.3726044c-0.2976379,1.5984039-0.6638489,3.1986694-1.0051422,4.7982483
			c-4.8389435,22.6784782-9.6779327,45.3569527-14.5169373,68.0354309c-0.112381,0.5267181-0.2247772,1.053421-0.3992004,1.8708954
			C121.7290421,111.8514252,108.2837067,99.1179352,94.7271957,86.2791214z"/>
		<path class="st0" d="M15.6412468,50.1756973c6.7874527,8.7222214,15.2859688,15.58284,23.5290833,22.6893463
			c4.9965401,4.3076019,10.1105423,8.4904633,15.1702957,12.730957c0.2417717,0.2026138,0.4692001,0.4207687,0.7819214,0.7025223
			C36.7510414,98.6898804,18.4576492,111.0285416,0,123.4779968C5.2362456,98.9384613,10.4260702,74.6164856,15.6412468,50.1756973z
			"/>
		<path class="st0" d="M129.8862,58.6310425c2.8359833-13.2908249,5.6077728-26.2806778,8.3910522-39.3244858
			c-32.2164688,0-64.3166656,0-96.5583344,0c-2.854847,13.3791924-5.7095337,26.7576027-8.636322,40.4739151
			c-4.6671295-4.333786-9.2392559-8.3533325-12.8320694-13.4489746c2.2871895-1.5310936,4.4662266-2.9922752,6.6476135-4.4492912
			c1.8315582-1.2233543,3.6519184-2.468544,5.5063515-3.6483574c0.6716614-0.4273109,0.9771576-0.8901176,1.1264381-1.6008148
			c1.4415627-6.8632202,2.9163818-13.7265453,4.3816833-20.5898418c0.0895424-0.4194202,0.1789894-0.8388386,0.2989883-1.4012012
			c0.5641708,0,1.0147362-0.0000181,1.4652901,0.0000067c8.9968605,0.0005407,17.9909286,0.0144367,26.9964294-0.0263996
			c0.6470566-0.0029287,1.4606705-0.2547579,2.0563736-0.6460333c5.5193863-3.625329,11.0095749-7.3037624,16.5049286-10.9726601
			c5.9921646-4.0005951,12.1883774-3.9966154,16.4932022,0.016433c3.9325409,3.6659799,7.8528519,7.3444724,11.8217087,10.9733334
			c0.4078064,0.3728666,1.071167,0.6254959,1.6825409,0.6281586c9.0239487,0.0394497,18.0591888,0.0270901,27.0917206,0.0270185
			c0.4244843-0.0000067,0.8489685,0,1.4296722,0c-0.1023865,0.4798164-0.1903992,0.8922482-0.2784119,1.3046732
			c-1.4644775,6.8633041-2.9133911,13.7266884-4.4143372,20.5897942c-0.176712,0.8080406-0.0139313,1.2877769,0.5075989,1.763073
			c2.6013336,2.3708076,5.1582642,4.7871017,7.8503723,7.2989197
			C142.1136932,50.6156235,136.0761566,54.4077988,129.8862,58.6310425z"/>
		<path class="st0" d="M89.5960236,44.6948013c0.9508438-1.3616905,2.5927734-1.9443245,3.6339951-1.1866951
			c0.3760071,0.2735825,0.562233,1.0267296,0.459671,1.5702629c-0.502739,2.6641731-1.13517,5.3314552-1.7142944,7.9976616
			c-0.1465912,0.674881-0.3123169,1.3543892-0.3887634,2.0239487c-0.2303467,2.0174522,0.8145752,3.1876907,2.848587,3.2529907
			c1.9551926,0.0627747,3.6213531-1.0075607,4.3151627-2.965004c1.0533371-2.9717293,1.7139435-5.9557037,1.5851288-8.8933449
			c-0.1493454-3.4060593-1.6803665-5.8700218-4.7530975-7.0162621c-1.8444824-0.6880531-3.8737564-1.1307716-5.9275818-1.3401299
			c-3.6080246-0.3677864-7.3286514-0.2933922-11.1565857,0.7012253c-5.4165802,1.4074173-9.2609787,4.6944504-10.966629,10.0050888
			c-0.8531342,2.6563034-1.4626923,5.4255981-1.6077652,8.0558205c-0.294014,5.3310661,2.6873398,8.2792854,7.4895401,9.4292336
			c6.2191086,1.4892273,12.7188797,0.9311295,19.4494705-2.0580063c0.9054489-0.4021263,1.854393-0.7077713,2.7879944-0.9299126
			c0.8340836-0.1984787,1.4607773,0.0934715,1.6610336,0.8898354c0.1974335,0.785141-0.2757416,1.4153824-0.967308,1.8754578
			c-0.6802216,0.4525146-1.4079666,0.8729782-2.1459961,1.1620407c-8.1401596,3.1881638-16.0248871,3.9528732-23.4719925,1.9944
			c-7.1093063-1.8696365-10.1010246-6.9793129-8.8109512-14.7728348c0.4016609-2.4265251,1.0439796-4.9342155,2.0383263-7.3051567
			c2.4068642-5.7390404,6.9206734-9.3558655,12.7634392-11.0903778c7.4500504-2.2116547,14.4828262-2.1195679,20.9246216,0.1883812
			c5.5140457,1.9755554,7.6872482,6.3151741,6.7441864,12.5127907c-0.349205,2.2948456-0.8885422,4.6330528-1.6495514,6.9133949
			c-1.1277161,3.3791122-3.9029617,5.4309044-7.3709259,5.7660522c-3.2164917,0.3108368-4.9977341-0.2596359-7.2023392-2.3067322
			c-4.3615341,3.2484894-8.5711365,3.5861168-12.6068497,1.8635597c-1.8070068-0.771286-2.8900986-2.2552109-3.2576599-4.2165642
			c-0.5569153-2.9718132,0.0988846-5.9941902,2.0193863-8.9189911c2.1454926-3.2674332,5.2439651-4.6408997,8.6980667-4.9848976
			C85.5834503,42.6563797,87.835228,43.1817093,89.5960236,44.6948013z M83.1344223,46.3051491
			c-1.4583893,0.0316772-3.4119873,0.3068428-4.8694382,2.0579147c-2.1260757,2.5543671-2.7127762,5.3228836-1.8385544,7.9142647
			c0.8155136,2.4173737,3.1124191,2.7606163,5.6950607,2.446022c2.4952164-0.3039474,4.2373123-1.6035385,5.1894531-4.0075493
			c0.424202-1.0710754,0.737114-2.1996651,0.8731079-3.2825546C88.6465988,47.7502441,87.2965164,46.2976418,83.1344223,46.3051491z
			"/>
	</g>
</g>
</svg>
