<?xml version="1.0" encoding="utf-8"?>
<!-- Generator: Adobe Illustrator 18.0.0, SVG Export Plug-In . SVG Version: 6.00 Build 0)  -->
<!DOCTYPE svg PUBLIC "-//W3C//DTD SVG 1.1//EN" "http://www.w3.org/Graphics/SVG/1.1/DTD/svg11.dtd">
<svg version="1.1"
	 id="svg2" xmlns:inkscape="http://www.inkscape.org/namespaces/inkscape" xmlns:rdf="http://www.w3.org/1999/02/22-rdf-syntax-ns#" xmlns:cc="http://creativecommons.org/ns#" xmlns:dc="http://purl.org/dc/elements/1.1/" xmlns:sodipodi="http://sodipodi.sourceforge.net/DTD/sodipodi-0.dtd" xmlns:svg="http://www.w3.org/2000/svg" xmlns:ns1="http://sozi.baierouge.fr" inkscape:version="0.48.1 r9760" sodipodi:docname="car-side.svg"
	 xmlns="http://www.w3.org/2000/svg" xmlns:xlink="http://www.w3.org/1999/xlink" x="0px" y="0px" viewBox="0 0 876 535"
	 enable-background="new 0 0 876 535" xml:space="preserve">
<sodipodi:namedview  fit-margin-top="0" pagecolor="#ffffff" bordercolor="#666666" showguides="true" showgrid="false" inkscape:cy="602.99002" inkscape:cx="1089.7894" borderopacity="1.0" inkscape:zoom="0.71043165" fit-margin-left="0" id="base" inkscape:window-height="1033" inkscape:document-units="px" inkscape:pageshadow="2" inkscape:pageopacity="0.0" inkscape:window-width="1920" fit-margin-bottom="0" inkscape:window-y="-3" inkscape:snap-global="false" fit-margin-right="0" inkscape:current-layer="layer2" inkscape:guide-bbox="true" inkscape:window-x="-3" inkscape:window-maximized="1">
	</sodipodi:namedview>
<g>
	
		<path id="path3070" inkscape:connector-curvature="0" sodipodi:nodetypes="csssscccsssscsccscccsscccssc" fill="none" stroke="#000000" stroke-width="2" d="
		M392.2,348.8c19.1-7.3,64.6-5.3,88.3-5.9c23.7-0.7,74,4.7,92.9,12.5c18.9,7.8,62.2,31.2,69.9,33.6c10.5,3.3,19.1,3.3,36.9,9.2
		c17.8,5.9,11.9,15.2,11.9,15.2l-13.8-2l-2.7,24.4c0,0,17.2,0.6,19.1,7.2c2,6.6,2.6,14.5-1.3,19.1c-3.9,4.6-6.6-0.7-8.5,5.9
		c-2,6.6-1.3,13.2-12.5,12.5c-11.2-0.7-45.5,0-45.5,0s-7.2-50.1-45.4-48.8c-38.2,1.3-44.1,48.8-44.1,48.8H306.6
		c0,0-2.6-48.1-44.8-48.8c-42.2-0.7-45.5,48.8-45.5,48.8H186l-8.6-17.8c-0.2,0-12.1,0-9.9-7.9c2.1-7.6-2-19.1,7.9-19.1
		c9.9,0,21.7,0.7,21.7,0.7l7.3-20.4l-19.1-1.3c0,0,15.8-11.2,54.7-15.2c38.9-4,72.5-4,88.9-14.5
		C345.5,374.5,392.2,348.8,392.2,348.8L392.2,348.8z"/>
	<path id="path3846" inkscape:connector-curvature="0" fill="none" stroke="#000000" stroke-width="0.75" d="M177.5,462.8h42.8"/>
	<path id="path3850" inkscape:connector-curvature="0" fill="none" stroke="#000000" stroke-width="0.75" d="M303.3,462.8h238.5"/>
	<path id="path3852" inkscape:connector-curvature="0" fill="none" stroke="#000000" stroke-width="0.75" d="M621.5,462.8h69.8"/>
	
		<path id="path3884" inkscape:connector-curvature="0" sodipodi:nodetypes="csccc" fill="#F0FFEB" stroke="#000000" stroke-width="2" d="
		M332.3,392.3c7.3-8.6,56.9-37.6,69.8-40.8c13.6-3.4,47.5-3.3,47.5-3.3l-3.3,44.1H332.3z"/>
	<path id="path3888" inkscape:connector-curvature="0" fill="none" stroke="#000000" stroke-width="0.75" d="M350.7,378.5v13.2"/>
	
		<path id="path3892" inkscape:connector-curvature="0" sodipodi:nodetypes="ccccc" fill="#F0FFEB" stroke="#000000" stroke-width="2" d="
		M461.5,348.8l-2,43.5h95.6c-5.2-9.6-21.5-34.5-33.6-40.8C514.8,346.9,483.2,349.5,461.5,348.8L461.5,348.8z"/>
	
		<path id="path3896" inkscape:connector-curvature="0" sodipodi:nodetypes="cscsc" fill="#F0FFEB" stroke="#000000" stroke-width="2" d="
		M538.5,352.1c0,0,36.9,38.9,39.5,40.2c2.6,1.3,53.4,0.7,53.4,0.7s-35.6-21.7-47.4-27C572.1,360.7,542.5,351.5,538.5,352.1
		L538.5,352.1z"/>
	<path id="path3900" inkscape:connector-curvature="0" sodipodi:nodetypes="csc" fill="none" stroke="#000000" stroke-width="2" d="
		M323.6,388c-6.5,14.3-8.4,33.1-8.4,43.5s1.9,42.2,10.4,48.7"/>
	
		<path id="path3900-6" inkscape:connector-curvature="0" sodipodi:nodetypes="cccc" fill="none" stroke="#000000" stroke-width="2" d="
		M456,342.5c-0.6,2.6-1.9,37.8-3,49.3c-1.7,8.6-2.3,23.6-2.8,40.3c0,10.4,3.2,37,5.8,48.7"/>
	<path id="path3920" inkscape:connector-curvature="0" fill="none" stroke="#000000" stroke-width="0.75" d="M211.9,462
		c0,0,7.1-39.6,49.3-39.6c42.2,0,50.6,40.2,50.6,40.2"/>
	<path id="path3920-5" inkscape:connector-curvature="0" fill="none" stroke="#000000" stroke-width="0.75" d="M533.2,462.6
		c0,0,7.1-39.6,49.3-39.6c42.2,0,50.7,40.2,50.7,40.2"/>
	
		<path id="path3940" inkscape:connector-curvature="0" sodipodi:nodetypes="cc" fill="none" stroke="#000000" stroke-width="0.75" d="
		M196.3,436.6h29.2"/>
	
		<path id="path3942" inkscape:connector-curvature="0" sodipodi:nodetypes="cssc" fill="none" stroke="#000000" stroke-width="2" d="
		M523.5,345.8c8.4,5.8,26,23.4,42.8,48c16.9,24.7,3.9,27.3-8.4,34.4c-12.4,7.1-22.7,19.5-31.2,51.9"/>
	
		<path id="path3944" inkscape:connector-curvature="0" sodipodi:nodetypes="cc" fill="none" stroke="#000000" stroke-width="0.75" d="
		M677.4,436.1h-59.7"/>
	<path id="path3946" inkscape:connector-curvature="0" fill="none" stroke="#000000" stroke-width="0.75" d="M296.3,436h251.3"/>
	<path id="path3948" inkscape:connector-curvature="0" fill="none" stroke="#000000" stroke-width="0.75" d="M537.1,366.5v25.3"/>
	<path id="rect3950" fill="#E6E6E6" stroke="#000000" stroke-width="0.75" d="M423.2,412.5h16.3c0.7,0,1.4,1.5,1.4,3.4l0,0
		c0,1.9-0.6,3.4-1.4,3.4h-16.3c-0.7,0-1.4-1.5-1.4-3.4l0,0C421.8,414,422.4,412.5,423.2,412.5z"/>
	<path id="rect3950-4" fill="#E6E6E6" stroke="#000000" stroke-width="0.75" d="M542,412.5h16.3c0.7,0,1.4,1.5,1.4,3.4l0,0
		c0,1.9-0.6,3.4-1.4,3.4H542c-0.7,0-1.4-1.5-1.4-3.4l0,0C540.6,414,541.2,412.5,542,412.5z"/>
	<path id="rect4014" fill="#FFCB00" stroke="#000000" stroke-width="0.75" d="M284.6,413.2h7.2c0.4,0,0.8,1.2,0.8,2.7l0,0
		c0,1.5-0.3,2.7-0.8,2.7h-7.2c-0.4,0-0.8-1.2-0.8-2.7l0,0C283.8,414.4,284.2,413.2,284.6,413.2z"/>
	
		<path id="path4141" sodipodi:sides="5" sodipodi:cx="83.048103" sodipodi:cy="388.63797" sodipodi:arg1="0" sodipodi:arg2="0.62831853" sodipodi:r1="16.949688" sodipodi:type="star" sodipodi:r2="13.712585" inkscape:flatsided="true" inkscape:rounded="0" inkscape:randomized="0" inkscape:transform-center-x="-1.6185511" fill="none" stroke="#000000" stroke-width="2" d="
		M193.1,264.8l-5.4,7.4l-8.7-2.8v-9.2l8.7-2.8L193.1,264.8z"/>
	
		<path id="path4143" inkscape:connector-curvature="0" sodipodi:nodetypes="cc" fill="none" stroke="#000000" stroke-width="0.75" d="
		M178.8,233.6l145.4-51.3"/>
	
		<path id="path4145" inkscape:connector-curvature="0" sodipodi:nodetypes="cc" fill="none" stroke="#000000" stroke-width="0.75" d="
		M178.1,299.8l145.4,53.2"/>
	
		<path id="path4165" inkscape:connector-curvature="0" sodipodi:nodetypes="ccssccccc" fill="#F0FFEB" stroke="#000000" stroke-width="2" d="
		M321.6,181.9l64.9,17.5c0,0-3.9,22.7-3.9,33.2v68.1c0,14.3,3.9,36.4,3.9,36.4l-64.9,15.6c0,0-8-28.5-8-42.8
		c0.2-15.6,0.8-71.4,1-85.7C314,209.8,321.6,181.9,321.6,181.9L321.6,181.9z"/>
	
		<path id="path4175" inkscape:connector-curvature="0" sodipodi:nodetypes="csccsc" fill="none" stroke="#000000" stroke-width="2" d="
		M386.5,199.4c0,0,43.5,2.6,70.1,2.6c49.3,0,92.8-2.6,92.8-2.6 M548.8,336.4c0,0-35.7-2.6-92.2-2.6c-31.8,0-70.1,3.2-70.1,3.2"/>
	<path id="rect4177" fill="none" stroke="#000000" stroke-width="0.75" d="M422.3,226.3h20.6c7.9,0,14.4,7.1,14.4,15.9v52
		c0,8.8-6.4,15.9-14.4,15.9h-20.6c-7.9,0-14.4-7.1-14.4-15.9v-52C407.9,233.4,414.4,226.3,422.3,226.3z"/>
	
		<path id="path4135-9" inkscape:connector-curvature="0" sodipodi:nodetypes="cccccccc" fill="none" stroke="#000000" stroke-width="2" d="
		M323.6,181.9H187.9l-6.5,47.4l-3.2,5.2V300l3.2,6.5l7.1,46.7h133.1"/>
	
		<path id="path4203" inkscape:connector-curvature="0" sodipodi:nodetypes="csscccssccc" fill="none" stroke="#000000" stroke-width="2" d="
		M548.2,199.4c0,0-5.9,22.1-5.9,33.8v67.5c0,11.7,5.9,35.7,5.9,35.7l94.8,17.5h50c0,0,6.5-37.7,6.5-53.2v-68.2
		c0-17.5-6.5-50.6-6.5-50.6h-50L548.2,199.4z"/>
	
		<path id="path4205" inkscape:connector-curvature="0" sodipodi:nodetypes="csscsccsc" fill="#F0FFEB" stroke="#000000" stroke-width="2" d="
		M553.4,207.8c0,0-3.9,18.8-3.9,26v66.9c0,9.1,3.2,26.6,3.2,26.6s43.5,12.3,57.1,12.3h19.5V195.5h-22
		C595.6,195.5,553.4,207.8,553.4,207.8L553.4,207.8z"/>
	<path id="path4207" inkscape:connector-curvature="0" fill="none" stroke="#000000" stroke-width="0.75" d="M643,181.9
		c0,0,14.3,18.8,14.3,51.3v67.5c0,29.9-14.3,53.9-14.3,53.9"/>
	<path id="path4209" inkscape:connector-curvature="0" fill="none" stroke="#000000" stroke-width="0.75" d="M313.8,233.1l14.9-14.9
		v-18.8v51.9"/>
	<path id="path4209-7" inkscape:connector-curvature="0" fill="none" stroke="#000000" stroke-width="0.75" d="M313.5,289l14.9-14.9
		v-18.8v51.9"/>
	<path id="path4209-76" inkscape:connector-curvature="0" fill="none" stroke="#000000" stroke-width="0.75" d="M627.7,253.3
		l-14.9-14.9v-18.8v51.9"/>
	
		<path id="path4243" inkscape:connector-curvature="0" sodipodi:nodetypes="cssc" fill="none" stroke="#000000" stroke-width="0.75" d="
		M321.6,181.9c0,0-19.5,36.4-19.5,51.3v67.5c0,18.8,19.5,52.6,19.5,52.6"/>
	
		<path id="path4245" inkscape:connector-curvature="0" sodipodi:nodetypes="ccsccsccccc" fill="none" stroke="#000000" stroke-width="2" d="
		M121.2,224.6l0.7-42.2c0,0,2.6-11-11.7-11.7C95.9,170,97.9,172,97.9,172l0.7,191.5h13c13,0,10.4-10.4,10.4-10.4V309
		c-5.8,0-5.2-4.4-5.2-7.8v-68.8C116.9,223.6,121.2,224.6,121.2,224.6L121.2,224.6z"/>
	<path id="path4247" inkscape:connector-curvature="0" fill="none" stroke="#000000" stroke-width="2.2" d="M98.6,180.9h22.7"/>
	<path id="path4247-2" inkscape:connector-curvature="0" fill="none" stroke="#000000" stroke-width="2.2" d="M98.9,353.5h22.7"/>
	<path id="path4247-1" inkscape:connector-curvature="0" fill="none" stroke="#000000" stroke-width="2.2" d="M98.2,208H121"/>
	<path id="path4247-0" inkscape:connector-curvature="0" fill="none" stroke="#000000" stroke-width="2.2" d="M99.5,327.9h22.7"/>
	<path id="path4281-1" inkscape:connector-curvature="0" fill="none" stroke="#000000" stroke-width="0.75" d="M102.7,207.5v120.1"
		/>
	<path id="path4281-8" inkscape:connector-curvature="0" fill="none" stroke="#000000" stroke-width="0.75" d="M107.2,208.2v120.1"
		/>
	
		<path id="path3070-9" inkscape:connector-curvature="0" sodipodi:nodetypes="csssscccsssscsccscccsscccssc" fill="none" stroke="#000000" stroke-width="2" d="
		M392.2,185.9c19.1,7.3,64.6,5.3,88.3,5.9c23.7,0.7,74-4.7,92.9-12.5c18.9-7.8,62.2-31.2,69.9-33.6c10.5-3.3,19.1-3.3,36.9-9.2
		c17.8-5.9,11.9-15.2,11.9-15.2l-13.8,2l-2.7-24.4c0,0,17.2-0.6,19.1-7.2c2-6.6,2.6-14.5-1.3-19.1c-3.9-4.6-6.6,0.7-8.5-5.9
		c-2-6.6-1.3-13.2-12.5-12.5c-11.2,0.7-45.5,0-45.5,0s-7.2,50.1-45.4,48.8c-38.2-1.3-44.1-48.8-44.1-48.8H306.6
		c0,0-2.6,48.1-44.8,48.8c-42.2,0.7-45.5-48.8-45.5-48.8H186l-8.6,17.8c-0.2,0-12.1,0-9.9,7.9c2.1,7.6-2,19.1,7.9,19.1
		c9.9,0,21.7-0.7,21.7-0.7l7.2,20.4l-19.1,1.3c0,0,15.8,11.2,54.7,15.2c38.9,4,72.5,4,88.9,14.5
		C345.5,160.2,392.2,185.9,392.2,185.9L392.2,185.9z"/>
	<path id="path3846-2" inkscape:connector-curvature="0" fill="none" stroke="#000000" stroke-width="0.75" d="M177.5,71.9h42.8"/>
	<path id="path3850-6" inkscape:connector-curvature="0" fill="none" stroke="#000000" stroke-width="0.75" d="M303.3,71.9h238.5"/>
	<path id="path3852-6" inkscape:connector-curvature="0" fill="none" stroke="#000000" stroke-width="0.75" d="M621.5,71.9h69.8"/>
	
		<path id="path3884-4" inkscape:connector-curvature="0" sodipodi:nodetypes="csccc" fill="#F0FFEB" stroke="#000000" stroke-width="2" d="
		M332.3,142.4c7.3,8.6,56.9,37.6,69.8,40.8c13.6,3.4,47.5,3.3,47.5,3.3l-3.3-44.1H332.3z"/>
	<path id="path3888-9" inkscape:connector-curvature="0" fill="none" stroke="#000000" stroke-width="0.75" d="M350.7,156.3v-13.2"
		/>
	
		<path id="path3892-5" inkscape:connector-curvature="0" sodipodi:nodetypes="ccccc" fill="#F0FFEB" stroke="#000000" stroke-width="2" d="
		M461.5,185.9l-2-43.5h95.5c-5.2,9.6-21.5,34.5-33.6,40.8C514.9,187.9,483.2,185.3,461.5,185.9z"/>
	
		<path id="path3896-0" inkscape:connector-curvature="0" sodipodi:nodetypes="cscsc" fill="#F0FFEB" stroke="#000000" stroke-width="2" d="
		M538.5,182.6c0,0,36.9-38.9,39.5-40.2c2.6-1.3,53.3-0.7,53.3-0.7s-35.6,21.7-47.4,27C572.1,174.1,542.5,183.3,538.5,182.6z"/>
	
		<path id="path3900-4" inkscape:connector-curvature="0" sodipodi:nodetypes="csc" fill="none" stroke="#000000" stroke-width="2" d="
		M323.6,146.8c-6.5-14.3-8.4-33.1-8.4-43.5s1.9-42.2,10.4-48.7"/>
	
		<path id="path3900-6-8" inkscape:connector-curvature="0" sodipodi:nodetypes="cccc" fill="none" stroke="#000000" stroke-width="2" d="
		M456,192.3c-0.6-2.6-1.9-37.8-3-49.3c-1.7-8.6-2.3-23.6-2.8-40.3c0-10.4,3.2-37,5.8-48.7"/>
	<path id="path3920-7" inkscape:connector-curvature="0" fill="none" stroke="#000000" stroke-width="0.75" d="M211.9,72.8
		c0,0,7.1,39.6,49.3,39.6c42.2,0,50.6-40.2,50.6-40.2"/>
	<path id="path3920-5-1" inkscape:connector-curvature="0" fill="none" stroke="#000000" stroke-width="0.75" d="M533.2,72.2
		c0,0,7.1,39.6,49.3,39.6c42.2,0,50.7-40.2,50.7-40.2"/>
	
		<path id="path3940-7" inkscape:connector-curvature="0" sodipodi:nodetypes="cc" fill="none" stroke="#000000" stroke-width="0.75" d="
		M196.3,98.1h29.2"/>
	
		<path id="path3942-2" inkscape:connector-curvature="0" sodipodi:nodetypes="cssc" fill="none" stroke="#000000" stroke-width="2" d="
		M523.5,189c8.4-5.8,26-23.4,42.9-48c16.9-24.7,3.9-27.3-8.4-34.4c-12.3-7.1-22.7-19.5-31.2-51.9"/>
	
		<path id="path3944-7" inkscape:connector-curvature="0" sodipodi:nodetypes="cc" fill="none" stroke="#000000" stroke-width="0.75" d="
		M677.4,98.7h-59.7"/>
	<path id="path3946-2" inkscape:connector-curvature="0" fill="none" stroke="#000000" stroke-width="0.75" d="M296.3,98.8h251.2"/>
	<path id="path3948-2" inkscape:connector-curvature="0" fill="none" stroke="#000000" stroke-width="0.75" d="M537.1,168.2v-25.3"
		/>
	<path id="rect3950-6" fill="#E6E6E6" stroke="#000000" stroke-width="0.75" d="M423.2,122.3h16.3c0.7,0,1.4-1.5,1.4-3.4l0,0
		c0-1.9-0.6-3.4-1.4-3.4h-16.3c-0.7,0-1.4,1.5-1.4,3.4l0,0C421.8,120.8,422.4,122.3,423.2,122.3z"/>
	<path id="rect3950-4-1" fill="#E6E6E6" stroke="#000000" stroke-width="0.75" d="M542,122.3h16.3c0.7,0,1.4-1.5,1.4-3.4l0,0
		c0-1.9-0.6-3.4-1.4-3.4H542c-0.7,0-1.4,1.5-1.4,3.4l0,0C540.6,120.8,541.2,122.3,542,122.3z"/>
	<path id="rect4014-0" fill="#FFCB00" stroke="#000000" stroke-width="0.75" d="M284.6,121.6h7.2c0.4,0,0.8-1.2,0.8-2.7v0
		c0-1.5-0.3-2.7-0.8-2.7h-7.2c-0.4,0-0.8,1.2-0.8,2.7v0C283.8,120.4,284.2,121.6,284.6,121.6z"/>
	
		<path id="path4335" sodipodi:ry="16.89114" sodipodi:rx="16.89114" sodipodi:cx="59.118988" sodipodi:cy="211.28101" sodipodi:type="arc" fill="#FFFFFF" stroke="#000000" stroke-width="0.75" d="
		M633.4,118.4c0,4.3-3.5,7.8-7.8,7.8s-7.8-3.5-7.8-7.8s3.5-7.8,7.8-7.8S633.4,114.1,633.4,118.4z"/>
	<path id="path4281-8-0" inkscape:connector-curvature="0" fill="none" stroke="#000000" stroke-width="0.75" d="M112.1,208v120.1"
		/>
	<path id="path4361" inkscape:connector-curvature="0" fill="#F4E9B8" d="M99.5,340.6v-12h10.4h10.4v12v12h-10.4H99.5V340.6z"/>
	<path id="path4363" inkscape:connector-curvature="0" fill="#F4E9B8" d="M99.5,194.5v-12.7h10.4h10.4v12.7v12.7h-10.4H99.5V194.5z"
		/>
	
		<path id="path4377" inkscape:connector-curvature="0" sodipodi:nodetypes="csccsc" fill="none" stroke="#000000" stroke-width="2" d="
		M97.9,170.8c0,0-2-5.8-8.4-5.8c-6.5,0-6.5,3.9-6.5,3.9v195.4c0,0,0.7,4.6,6.5,4.6c5.8,0,8.4-4.6,8.4-4.6"/>
	
		<path id="path4381" inkscape:connector-curvature="0" sodipodi:nodetypes="cssc" fill="none" stroke="#000000" stroke-width="2" d="
		M82.3,170.8c0,0-16.2-0.7-16.2,9.7v171.4c0,10.4,16.9,11.7,16.9,11.7"/>
	<path id="rect4467" fill="none" stroke="#000000" stroke-width="0.75" d="M74.2,181.9h0.6c2,0,3.6,1.3,3.6,2.9v10.4
		c0,1.6-1.6,2.9-3.6,2.9h-0.6c-2,0-3.6-1.3-3.6-2.9v-10.4C70.6,183.2,72.2,181.9,74.2,181.9z"/>
	<path id="rect4467-6" fill="none" stroke="#000000" stroke-width="0.75" d="M74.2,337.4h0.6c2,0,3.6,1.3,3.6,2.9v10.4
		c0,1.6-1.6,2.9-3.6,2.9h-0.6c-2,0-3.6-1.3-3.6-2.9v-10.4C70.6,338.7,72.2,337.4,74.2,337.4z"/>
	<rect id="rect4487" x="141.5" y="180.6" fill="none" stroke="#000000" stroke-width="0.75" width="14.3" height="174"/>
	
		<path id="path4499" inkscape:connector-curvature="0" sodipodi:nodetypes="cccccc" fill="none" stroke="#000000" stroke-width="2" d="
		M724.4,175.2v33.8h31.2v-38.3l-11.7-6.5L724.4,175.2z"/>
	
		<path id="path4501" inkscape:connector-curvature="0" sodipodi:nodetypes="cccccc" fill="none" stroke="#000000" stroke-width="2" d="
		M724.4,327.1h31.2v36.4l-11,6.5l-20.2-8.4V327.1z"/>
	<path id="path4503" inkscape:connector-curvature="0" fill="none" stroke="#000000" stroke-width="2" d="M724.4,202.5v131.1"/>
	<path id="path4505" inkscape:connector-curvature="0" fill="none" stroke="#000000" stroke-width="2" d="M755.5,202.7v131.1"/>
	<rect id="rect4534" x="731.6" y="233.1" fill="none" stroke="#000000" stroke-width="0.75" width="6.5" height="68.2"/>
	<path id="path4536" inkscape:connector-curvature="0" fill="none" stroke="#000000" stroke-width="0.75" d="M735.1,232.5v-24.7"/>
	<path id="path4536-0" inkscape:connector-curvature="0" fill="none" stroke="#000000" stroke-width="0.75" d="M735.1,326.5v-24.7"
		/>
	<path id="path4556" inkscape:connector-curvature="0" fill="none" stroke="#000000" stroke-width="0.75" d="M749.1,209.1v118.2"/>
	
		<path id="path4377-2" inkscape:connector-curvature="0" sodipodi:nodetypes="csccsc" fill="none" stroke="#000000" stroke-width="2" d="
		M755.7,171.1c0,0,1.9-5.8,8.4-5.8c6.5,0,6.5,3.9,6.5,3.9v195.4c0,0-0.6,4.6-6.5,4.6c-5.9,0-8.4-4.6-8.4-4.6"/>
	
		<path id="path4381-0" inkscape:connector-curvature="0" sodipodi:nodetypes="cssc" fill="none" stroke="#000000" stroke-width="2" d="
		M771.2,171.1c0,0,16.2-0.7,16.2,9.7v171.4c0,10.4-16.9,11.7-16.9,11.7"/>
	<path id="rect4467-5" fill="none" stroke="#000000" stroke-width="0.75" d="M780.3,182.1h-0.6c-2,0-3.6,1.3-3.6,2.9v10.4
		c0,1.6,1.6,2.9,3.6,2.9h0.6c2,0,3.6-1.3,3.6-2.9V185C783.9,183.4,782.3,182.1,780.3,182.1z"/>
	<path id="rect4467-6-5" fill="none" stroke="#000000" stroke-width="0.75" d="M780.3,337.7h-0.6c-2,0-3.6,1.3-3.6,2.9V351
		c0,1.6,1.6,2.9,3.6,2.9h0.6c2,0,3.6-1.3,3.6-2.9v-10.4C783.9,339,782.3,337.7,780.3,337.7z"/>
	<path id="path4585" inkscape:connector-curvature="0" fill="none" stroke="#000000" stroke-width="0.75" d="M723.8,174.7l31.1,34.4
		"/>
	
		<path id="path4587" inkscape:connector-curvature="0" sodipodi:nodetypes="cc" fill="none" stroke="#000000" stroke-width="0.75" d="
		M723.8,209.4l31.1-33.8"/>
	<path id="path4585-9" inkscape:connector-curvature="0" fill="none" stroke="#000000" stroke-width="0.75" d="M723.9,327l31.2,34.4
		"/>
	
		<path id="path4587-0" inkscape:connector-curvature="0" sodipodi:nodetypes="cc" fill="none" stroke="#000000" stroke-width="0.75" d="
		M723.9,361.7l31.2-33.8"/>
	
		<path id="path4610" sodipodi:ry="76.010124" sodipodi:rx="76.010124" sodipodi:cx="119.64557" sodipodi:cy="202.83545" sodipodi:type="arc" fill="#D6E1E8" stroke="#000000" stroke-width="0.75" d="
		M296.9,472.1c0,19.4-15.7,35.1-35.1,35.1s-35.1-15.7-35.1-35.1c0,0,0,0,0,0c0-19.4,15.7-35.1,35.1-35.1
		C281.2,437,296.9,452.7,296.9,472.1C296.9,472.1,296.9,472.1,296.9,472.1z"/>
	
		<path id="path4612" sodipodi:ry="44.339241" sodipodi:rx="44.339241" sodipodi:cx="103.45823" sodipodi:cy="72.632912" sodipodi:type="arc" fill="#FFFFFF" stroke="#000000" stroke-width="0.75" d="
		M282.3,472.1c0,11.3-9.2,20.5-20.5,20.5c-11.3,0-20.5-9.2-20.5-20.5c0-11.3,9.2-20.5,20.5-20.5S282.3,460.8,282.3,472.1z"/>
	
		<path id="path4610-9" sodipodi:ry="76.010124" sodipodi:rx="76.010124" sodipodi:cx="119.64557" sodipodi:cy="202.83545" sodipodi:type="arc" fill="#D6E1E8" stroke="#000000" stroke-width="0.75" d="
		M296.9,63c0,19.4-15.7,35.1-35.1,35.1S226.8,82.3,226.8,63c0,0,0,0,0,0c0-19.4,15.7-35.1,35.1-35.1C281.2,27.9,296.9,43.6,296.9,63
		C296.9,62.9,296.9,63,296.9,63z"/>
	
		<path id="path4612-4" sodipodi:ry="44.339241" sodipodi:rx="44.339241" sodipodi:cx="103.45823" sodipodi:cy="72.632912" sodipodi:type="arc" fill="#FFFFFF" stroke="#000000" stroke-width="0.75" d="
		M282.3,63c0,11.3-9.2,20.5-20.5,20.5c-11.3,0-20.5-9.2-20.5-20.5s9.2-20.5,20.5-20.5S282.3,51.7,282.3,63z"/>
	
		<path id="path4610-5" sodipodi:ry="76.010124" sodipodi:rx="76.010124" sodipodi:cx="119.64557" sodipodi:cy="202.83545" sodipodi:type="arc" fill="#D6E1E8" stroke="#000000" stroke-width="0.75" d="
		M617.3,63c0,19.4-15.7,35.1-35.1,35.1S547.2,82.3,547.2,63c0,0,0,0,0,0c0-19.4,15.7-35.1,35.1-35.1C601.6,27.9,617.3,43.6,617.3,63
		C617.3,62.9,617.3,63,617.3,63z"/>
	
		<path id="path4612-1" sodipodi:ry="44.339241" sodipodi:rx="44.339241" sodipodi:cx="103.45823" sodipodi:cy="72.632912" sodipodi:type="arc" fill="#FFFFFF" stroke="#000000" stroke-width="0.75" d="
		M602.7,63c0,11.3-9.2,20.5-20.5,20.5s-20.5-9.2-20.5-20.5s9.2-20.5,20.5-20.5S602.7,51.7,602.7,63z"/>
	
		<path id="path4610-4" sodipodi:ry="76.010124" sodipodi:rx="76.010124" sodipodi:cx="119.64557" sodipodi:cy="202.83545" sodipodi:type="arc" fill="#D6E1E8" stroke="#000000" stroke-width="0.75" d="
		M617.3,472.1c0,19.4-15.7,35.1-35.1,35.1s-35.1-15.7-35.1-35.1c0,0,0,0,0,0c0-19.4,15.7-35.1,35.1-35.1
		C601.6,437,617.3,452.7,617.3,472.1C617.3,472.1,617.3,472.1,617.3,472.1z"/>
	
		<path id="path4612-3" sodipodi:ry="44.339241" sodipodi:rx="44.339241" sodipodi:cx="103.45823" sodipodi:cy="72.632912" sodipodi:type="arc" fill="#FFFFFF" stroke="#000000" stroke-width="0.75" d="
		M602.7,472.1c0,11.3-9.2,20.5-20.5,20.5s-20.5-9.2-20.5-20.5c0-11.3,9.2-20.5,20.5-20.5S602.7,460.8,602.7,472.1z"/>
	<path id="path3083" inkscape:connector-curvature="0" fill="none" stroke="#000000" stroke-width="2" d="M787.8,265.2h18.8"/>
	
		<path id="path3853" sodipodi:ry="4.222785" sodipodi:rx="4.222785" sodipodi:cx="-59.118988" sodipodi:cy="229.57974" sodipodi:type="arc" fill="#3C3C3C" stroke="#000000" stroke-width="2" d="
		M809.9,265.6c0,1.1-0.9,1.9-1.9,1.9s-1.9-0.9-1.9-1.9c0-1.1,0.9-1.9,1.9-1.9S809.9,264.5,809.9,265.6z"/>
	<path id="path3855" inkscape:connector-curvature="0" fill="none" stroke="#000000" stroke-width="0.75" d="M529.3,272.7
		l-17.9-17.9"/>
	
		<path id="path3857" sodipodi:ry="4.222785" sodipodi:rx="4.222785" sodipodi:cx="-81.640511" sodipodi:cy="188.75949" sodipodi:type="arc" fill="#3C3C3C" stroke="#000000" stroke-width="0.75" d="
		M91.8,184.5c0,1.1-0.9,1.9-1.9,1.9c-1.1,0-1.9-0.9-1.9-1.9s0.9-1.9,1.9-1.9C90.9,182.6,91.8,183.4,91.8,184.5z"/>
	
		<path id="path3857-2" sodipodi:ry="4.222785" sodipodi:rx="4.222785" sodipodi:cx="-81.640511" sodipodi:cy="188.75949" sodipodi:type="arc" fill="#3C3C3C" stroke="#000000" stroke-width="0.75" d="
		M91.8,239.9c0,1.1-0.9,1.9-1.9,1.9c-1.1,0-1.9-0.9-1.9-1.9c0-1.1,0.9-1.9,1.9-1.9C90.9,238,91.8,238.8,91.8,239.9z"/>
	
		<path id="path3857-3" sodipodi:ry="4.222785" sodipodi:rx="4.222785" sodipodi:cx="-81.640511" sodipodi:cy="188.75949" sodipodi:type="arc" fill="#3C3C3C" stroke="#000000" stroke-width="0.75" d="
		M91.8,295.3c0,1.1-0.9,1.9-1.9,1.9c-1.1,0-1.9-0.9-1.9-1.9s0.9-1.9,1.9-1.9C90.9,293.4,91.8,294.2,91.8,295.3z"/>
	
		<path id="path3857-7" sodipodi:ry="4.222785" sodipodi:rx="4.222785" sodipodi:cx="-81.640511" sodipodi:cy="188.75949" sodipodi:type="arc" fill="#3C3C3C" stroke="#000000" stroke-width="0.75" d="
		M91.8,350.7c0,1.1-0.9,1.9-1.9,1.9c-1.1,0-1.9-0.9-1.9-1.9s0.9-1.9,1.9-1.9C90.9,348.8,91.8,349.6,91.8,350.7z"/>
	
		<path id="path3857-97" sodipodi:ry="4.222785" sodipodi:rx="4.222785" sodipodi:cx="-81.640511" sodipodi:cy="188.75949" sodipodi:type="arc" fill="#3C3C3C" stroke="#000000" stroke-width="0.75" d="
		M765.6,184.7c0,1.1-0.9,1.9-1.9,1.9c-1.1,0-1.9-0.9-1.9-1.9s0.9-1.9,1.9-1.9C764.8,182.8,765.6,183.7,765.6,184.7z"/>
	
		<path id="path3857-2-3" sodipodi:ry="4.222785" sodipodi:rx="4.222785" sodipodi:cx="-81.640511" sodipodi:cy="188.75949" sodipodi:type="arc" fill="#3C3C3C" stroke="#000000" stroke-width="0.75" d="
		M765.6,240.1c0,1.1-0.9,1.9-1.9,1.9c-1.1,0-1.9-0.9-1.9-1.9s0.9-1.9,1.9-1.9C764.8,238.2,765.6,239,765.6,240.1z"/>
	
		<path id="path3857-3-6" sodipodi:ry="4.222785" sodipodi:rx="4.222785" sodipodi:cx="-81.640511" sodipodi:cy="188.75949" sodipodi:type="arc" fill="#3C3C3C" stroke="#000000" stroke-width="0.75" d="
		M765.6,295.5c0,1.1-0.9,1.9-1.9,1.9c-1.1,0-1.9-0.9-1.9-1.9s0.9-1.9,1.9-1.9C764.8,293.6,765.6,294.5,765.6,295.5z"/>
	
		<path id="path3857-7-1" sodipodi:ry="4.222785" sodipodi:rx="4.222785" sodipodi:cx="-81.640511" sodipodi:cy="188.75949" sodipodi:type="arc" fill="#3C3C3C" stroke="#000000" stroke-width="0.75" d="
		M765.6,350.9c0,1.1-0.9,1.9-1.9,1.9c-1.1,0-1.9-0.9-1.9-1.9c0-1.1,0.9-1.9,1.9-1.9C764.8,349,765.6,349.8,765.6,350.9z"/>
</g>
</svg>
