<?xml version="1.0" encoding="utf-8"?>
<!-- Generator: Adobe Illustrator 25.4.1, SVG Export Plug-In . SVG Version: 6.00 Build 0)  -->
<svg version="1.1" id="Layer_1" xmlns="http://www.w3.org/2000/svg" xmlns:xlink="http://www.w3.org/1999/xlink" x="0px" y="0px"
	 width="140px" height="140px" viewBox="0 0 140 140" style="enable-background:new 0 0 140 140;" xml:space="preserve">
<style type="text/css">
	.st0{fill:none;stroke:#0078b9;stroke-width:8;stroke-linecap:round;stroke-linejoin:round;stroke-miterlimit:10;}
	.st1{fill:none;stroke:#0078b9;stroke-width:2;stroke-linecap:round;stroke-linejoin:round;stroke-miterlimit:10;}
</style>
<g id="XMLID_1_">
	<g id="XMLID_41_">
		<path id="XMLID_46_" class="st0" d="M45.0272446,112.5569992H27.127037c-1.4367313,0-2.8764763-0.0946274-4.2856731-0.3745651
			c-10.1934595-2.0248795-17.2580681-11.0060196-16.8222637-20.0080719
			C6.5478888,81.2517166,18.0508499,71.705246,30.9702549,74.2517014
			c1.1658955-19.6254501,16.4474049-35.0173988,34.4396286-36.1967468
			c15.3003159-1.0028801,30.1792145,8.4282761,36.548172,23.5454597
			c14.6300659,0.1055298,26.2406158,11.8560829,26.3568573,25.302578
			c0.0450439,5.2112656-1.6401672,10.2346268-4.6056671,14.4431458c-4.8849335,6.9324875-13.0052643,10.859436-21.4859467,10.859436
			H89.3032455"/>
		<path id="XMLID_45_" class="st0" d="M67.1578903,132.9396362V80.928772V132.9396362z"/>
		<path id="XMLID_44_" class="st0" d="M49.595768,98.1485825l17.3909645-17.3909683L49.595768,98.1485825z"/>
		<path id="XMLID_43_" class="st0" d="M84.3777084,98.1485825l-17.390976-17.3909683L84.3777084,98.1485825z"/>
		<path id="XMLID_42_" class="st0" d="M46.0815201,63.7089615c1.4149628-2.1278725,4.8989258-6.7475967,11.2455902-9.8398933
			c6.2055283-3.0235291,11.8587418-2.9842339,14.4084167-2.8113976"/>
	</g>
	<g id="XMLID_36_">
		
			<rect id="XMLID_40_" x="103.8461761" y="9.9409742" transform="matrix(0.2919627 -0.9564297 0.9564297 0.2919627 61.1385078 125.6629944)" class="st1" width="23.1940327" height="23.1940308"/>
		<polyline id="XMLID_39_" class="st1" points="131.058197,22.3998604 134,23.6297169 125.886795,43.0363808 
			104.4875412,34.0901489 		"/>
		<polyline id="XMLID_38_" class="st1" points="102.0243607,25.7753334 124.1515274,32.7315483 120.6680069,31.6364174 
			120.2321396,20.4837208 114.6093445,26.6076336 113.087944,21.5379944 105.5082932,26.8705902 		"/>
		<circle id="XMLID_37_" class="st1" cx="112.1493683" cy="14.8609247" r="2.2842622"/>
	</g>
</g>
</svg>
