<?xml version="1.0" encoding="utf-8"?>
<!-- Generator: Adobe Illustrator 25.4.1, SVG Export Plug-In . SVG Version: 6.00 Build 0)  -->
<svg version="1.1" id="Layer_1" xmlns="http://www.w3.org/2000/svg" xmlns:xlink="http://www.w3.org/1999/xlink" x="0px" y="0px"
	 width="300px" height="300px" viewBox="0 0 300 300" style="enable-background:new 0 0 300 300;" xml:space="preserve">
<style type="text/css">
	.st0{fill:none;stroke:#0078b9;stroke-width:16;stroke-linecap:round;stroke-linejoin:round;stroke-miterlimit:10;}
</style>
<g>
	<circle class="st0" cx="150" cy="150" r="102.0713806"/>
	<circle class="st0" cx="150" cy="150" r="43.9750519"/>
	<g>
		<path class="st0" d="M167.4563141,190.365799l42.3365173,42.3365021
			c8.7992554-6.3727875,16.5367737-14.1104279,22.9095764-22.9095612l-42.3365173-42.3365173"/>
		<path class="st0" d="M132.5437775,109.6341019L90.2072601,67.2975845
			c-8.7991486,6.3729095-16.5365601,14.1105423-22.909462,22.9096909l42.3363953,42.3363953"/>
		<path class="st0" d="M176.2288818,114.7028046l15.5006104-57.8492622
			c-9.7236938-4.3631172-20.239975-7.2751961-31.2918243-8.3978004l-15.5059357,57.8689117"/>
		<path class="st0" d="M123.7712021,185.2970886l-15.5007172,57.8493805
			c9.7236938,4.3631134,20.2399673,7.2750702,31.2918167,8.3976898l15.5059357-57.8688049"/>
		<path class="st0" d="M106.3246384,144.9317474l-57.8688011,15.5059357
			c1.1226082,11.0519714,4.0345688,21.5681305,8.397686,31.2918243l57.8493805-15.5007172"/>
		<path class="st0" d="M193.6753387,155.0681458l57.8689117-15.5059357
			c-1.1226044-11.0518646-4.0345764-21.5680161-8.3976898-31.2917099l-57.8493805,15.5007172"/>
	</g>
	<circle class="st0" cx="150" cy="150" r="132"/>
</g>
</svg>
