<?xml version="1.0" encoding="utf-8"?>
<!-- Generator: Adobe Illustrator 25.4.1, SVG Export Plug-In . SVG Version: 6.00 Build 0)  -->
<svg version="1.1" id="Layer_1" xmlns="http://www.w3.org/2000/svg" xmlns:xlink="http://www.w3.org/1999/xlink" x="0px" y="0px"
	 width="300px" height="300px" viewBox="0 0 300 300" style="enable-background:new 0 0 300 300;" xml:space="preserve">
<style type="text/css">
	.st0{fill:none;stroke:#0078b9;stroke-width:16;stroke-linecap:round;stroke-linejoin:round;stroke-miterlimit:10;}
</style>
<g>
	<line class="st0" x1="268.9381714" y1="218.4277954" x2="18" y2="218.4277954"/>
	<path class="st0" d="M227.0776825,117.3675156c-15.4073029,0-27.8508911,12.6884537-27.4517212,28.1860123
		c0.3859558,14.9846649,13.0804901,26.7362976,28.0701141,26.7362976h49.0904846c2.879303,0,5.2134399-2.334137,5.2134399-5.2134399
		v-44.4954224c0-2.8793106-2.334137-5.2134476-5.2134399-5.2134476H227.0776825z"/>
	<path class="st0" d="M199.625946,145.5535736c-0.3991547-15.4975891,12.0444031-28.1860886,27.4517365-28.1860886h41.8417816
		c0.0103455,0,0.0187073-0.0083771,0.0187073-0.0187073V70.4597244c0-9.3140182-7.5505066-16.8645248-16.8645172-16.8645248
		H34.8646088c-9.3140602,0-16.8645973,7.5505371-16.8645973,16.8645935v159.0803986
		c0,9.3140717,7.5505409,16.8646088,16.8646049,16.8646088h217.2089539c9.3140564,0,16.8645935-7.5505371,16.8645935-16.8646088
		v-57.2316284c0-0.0103302-0.0083618-0.0187073-0.0187073-0.0187073h-41.2234192
		C212.7064209,172.289856,200.0119019,160.5382233,199.625946,145.5535736z"/>
	<circle class="st0" cx="225.2508392" cy="144.8287354" r="4.2670178"/>
</g>
</svg>
