<?xml version="1.0" encoding="utf-8"?>
<!-- Generator: Adobe Illustrator 25.4.1, SVG Export Plug-In . SVG Version: 6.00 Build 0)  -->
<svg version="1.1" id="Layer_1" xmlns="http://www.w3.org/2000/svg" xmlns:xlink="http://www.w3.org/1999/xlink" x="0px" y="0px"
	 width="300px" height="300px" viewBox="0 0 300 300" style="enable-background:new 0 0 300 300;" xml:space="preserve">
<style type="text/css">
	.st0{fill:none;stroke:#0078b9;stroke-width:16;stroke-linecap:round;stroke-linejoin:round;stroke-miterlimit:10;}
</style>
<g>
	<circle class="st0" cx="70.9077225" cy="90.5658646" r="26.2487698"/>
	<rect x="55.3595505" y="152.0647278" class="st0" width="31.0963421" height="31.0963421"/>
	<rect x="55.3595505" y="209.7066498" class="st0" width="31.0963421" height="31.0963421"/>
	<path class="st0" d="M123.9118271,108.6162491h41.5387955H123.9118271z"/>
	<path class="st0" d="M123.9118271,82.763916h28.7435684H123.9118271z"/>
	<path class="st0" d="M199.5563202,127.8386307V53.6208038c0-9.2348747-7.4863586-16.7212219-16.7212372-16.7212219H36.7212219
		C27.4863472,36.8995819,20,44.3859291,20,53.6208038v192.7583923c0,9.2348785,7.4863472,16.7212372,16.7212219,16.7212372
		H182.835083c9.2348785,0,16.7212372-7.4863586,16.7212372-16.7212372v-65.2864075"/>
	<g>
		<path class="st0" d="M247.8582764,79.5366745l-83.0584564,83.0584488
			c-17.3956146,17.3956146-29.8903046,39.075531-36.2210083,62.8481445v0.0000458l0.0001678-0.0000458
			c23.7724915-6.3307343,45.4522705-18.8253937,62.8477936-36.220932l83.0585785-83.0585709
			c7.3528748-7.3528595,7.3528748-19.2742004,0-26.6270599l-0.0000305-0.0000305
			C267.1324768,72.183815,255.2111359,72.183815,247.8582764,79.5366745z"/>
		<line class="st0" x1="237.2073975" y1="90.1875458" x2="263.8344727" y2="116.8146362"/>
	</g>
</g>
</svg>
