<?xml version="1.0" encoding="utf-8"?>
<!-- Generator: Adobe Illustrator 25.4.1, SVG Export Plug-In . SVG Version: 6.00 Build 0)  -->
<svg version="1.1" id="Layer_1" xmlns="http://www.w3.org/2000/svg" xmlns:xlink="http://www.w3.org/1999/xlink" x="0px" y="0px"
	 width="300px" height="300px" viewBox="0 0 300 300" style="enable-background:new 0 0 300 300;" xml:space="preserve">
<style type="text/css">
	.st0{fill:none;stroke:#0078b9;stroke-width:16;stroke-linecap:round;stroke-linejoin:round;stroke-miterlimit:10;}
</style>
<g>
	<path class="st0" d="M60.4440804,119.6744995c2.9194908-12.9572601,5.8389778-25.9145126,8.7584648-38.8717728
		c1.9191208-8.5174103,10.6676941-13.6123352,19.0228348-11.0783539l164.6973267,49.9501266H60.4440804z"/>
	<path class="st0" d="M112.6145248,77.1212158l7.5866165-22.773777c3.1281204-9.3901024,14.3214264-13.2450027,22.5681763-7.7723312
		l110.1533966,73.0993958L112.6145248,77.1212158z"/>
	<path class="st0" d="M18,138.9815216v97.6500244c0,10.6629791,8.6440525,19.3070374,19.3070335,19.3070374h225.3859253
		C273.355957,255.9385834,282,247.2945251,282,236.631546v-97.6500244c0-10.6629791-8.644043-19.3070297-19.3070374-19.3070297
		H37.3070335C26.6440525,119.6744919,18,128.3185425,18,138.9815216z"/>
	<g>
		<path class="st0" d="M211.666687,223.5452423h23.4802704v-0.0000305c0-9.8108521,6.8170929-18.0294952,15.9728088-20.1774597
			c2.7485504-0.6448212,4.7520142-2.9993896,4.7520142-5.8225555v-19.4773102c0-2.8231812-2.0034637-5.1777496-4.7520142-5.8225708
			c-9.1557159-2.1479492-15.9728088-10.3665924-15.9728088-20.1774597v-0.0000153H211.666687"/>
		<path class="st0" d="M88.333313,223.5452423H64.8530426v-0.0000305c0-9.8108521-6.8170891-18.0294952-15.9728088-20.1774597
			c-2.7485504-0.6448212-4.7520103-2.9993896-4.7520103-5.8225555v-19.4773102c0-2.8231812,2.0034599-5.1777496,4.7520103-5.8225708
			c9.1557198-2.1479492,15.9728088-10.3665924,15.9728088-20.1774597v-0.0000153H88.333313"/>
	</g>
	<g>
		<path class="st0" d="M124.8092346,207.5722046c0,10.786087,11.2782898,19.5299225,25.1907654,19.5299225
			s25.1907654-8.7438354,25.1907654-19.5299225c0-10.7860718-11.2782898-19.5299072-25.1907654-19.5299072
			s-25.1907654-8.7438507-25.1907654-19.5299225c0-10.786087,11.2782898-19.5299225,25.1907654-19.5299225
			s25.1907654,8.7438354,25.1907654,19.5299225"/>
		<line class="st0" x1="150" y1="141.7522888" x2="150" y2="242.6380005"/>
	</g>
</g>
</svg>
