<?xml version="1.0" encoding="utf-8"?>
<!-- Generator: Adobe Illustrator 25.4.1, SVG Export Plug-In . SVG Version: 6.00 Build 0)  -->
<svg version="1.1" id="Layer_1" xmlns="http://www.w3.org/2000/svg" xmlns:xlink="http://www.w3.org/1999/xlink" x="0px" y="0px"
	 width="300px" height="300px" viewBox="0 0 300 300" style="enable-background:new 0 0 300 300;" xml:space="preserve">
<style type="text/css">
	.st0{fill:none;stroke:#0078b9;stroke-width:16;stroke-linecap:round;stroke-linejoin:round;stroke-miterlimit:10;}
</style>
<g>
	<path class="st0" d="M41.7900124,116.4106522l5.0227089-36.259407c1.4038429-10.1344604,7.6445885-18.9548187,16.734211-23.6512871
		l30.450489-15.7333031c9.0896225-4.6964684,19.8945007-4.6833267,28.9726715,0.0352325l32.4801941,16.8822327
		c5.7681732,2.998127,10.4668732,7.7082672,13.4509583,13.4837189l67.0513458,129.7722473
		c7.9817963,15.4481201,1.9291687,34.4418335-13.5189514,42.423645l-67.9533844,35.1105042
		c-15.4481201,7.981781-34.4418335,1.9291382-42.423645-13.5189819L45.0052681,135.1829987
		C42.0211792,129.407547,40.8980255,122.8499832,41.7900124,116.4106522z"/>
	<path class="st0" d="M236.2928314,201.5986023l34.2768707-28.3211212
		c14.9532471-12.3550568,15.285614-35.1624451,0.698761-47.9479904l-93.6686554-82.1014938
		c-5.3866119-4.721405-12.2221222-7.46492-19.3782043-7.7776604l-35.2515106,5.3515511"/>
	<g>
		<path class="st0" d="M147.0033264,218.8507385l-5.9769287-86.2522888L147.0033264,218.8507385z"/>
		
			<ellipse transform="matrix(0.8884193 -0.4590329 0.4590329 0.8884193 -67.4581604 99.4501038)" class="st0" cx="170.8352203" cy="188.4833984" rx="11.4045563" ry="11.404541"/>
		
			<ellipse transform="matrix(0.8884193 -0.4590329 0.4590329 0.8884193 -62.3714333 72.5372925)" class="st0" cx="118.0201797" cy="164.5638428" rx="11.4045553" ry="11.4045401"/>
	</g>
	<ellipse class="st0" cx="90.3856354" cy="80.4224625" rx="10.4192276" ry="10.4192352"/>
	<path class="st0" d="M18,18.006197l29.121376,56.3619843c6.3983688,12.3834991,21.6240997,17.2354279,34.0075989,10.837059
		l0.0000229-0.0000076"/>
</g>
</svg>
