<?xml version="1.0" encoding="utf-8"?>
<!-- Generator: Adobe Illustrator 25.4.1, SVG Export Plug-In . SVG Version: 6.00 Build 0)  -->
<svg version="1.1" id="Layer_1" xmlns="http://www.w3.org/2000/svg" xmlns:xlink="http://www.w3.org/1999/xlink" x="0px" y="0px"
	 width="300px" height="300px" viewBox="0 0 300 300" style="enable-background:new 0 0 300 300;" xml:space="preserve">
<style type="text/css">
	.st0{fill:none;stroke:#0078b9;stroke-width:16;stroke-linecap:round;stroke-linejoin:round;stroke-miterlimit:10;}
</style>
<g>
	<path class="st0" d="M101.2620773,197.9715118c-0.3430862-11.3802643-2.0050583-38.7599335-12.5415726-56.437088
		c-1.6201553-2.7181091-3.4815826-5.2596283-6.3949661-7.4791565c-10.7611465-8.1982574-25.9745026-4.4611816-33.7380447-2.5540924
		c-4.8678398,1.1957397-12.0186577,3.0353851-19.4394474,8.7790985c-0.0565128,0.0437469-0.1128101,0.0875397-0.1688919,0.1313629
		C21.970129,145.8901672,18,154.3894958,18,163.2855988V216.17099c0,10.0355682,8.1354313,18.1710052,18.1709938,18.1710052
		h227.65802c10.035553,0,18.17099-8.135437,18.17099-18.1710052v-52.8853912
		c0-8.8961029-3.9701233-17.3954315-10.9791565-22.8739624c-0.0560913-0.0438232-0.1123657-0.087616-0.1688843-0.1313629
		c-7.4208069-5.7437134-14.5716248-7.5833588-19.4394531-8.7790985c-7.7635498-1.9070892-22.9768982-5.644165-33.7380524,2.5540924
		c-2.9133759,2.2195282-4.7748108,4.7610474-6.3949585,7.4791565
		c-10.5365143,17.6771545-12.1984863,45.0568237-12.5415649,56.437088"/>
	<g>
		<line class="st0" x1="89.3108749" y1="100.1472092" x2="210.6891174" y2="100.1472092"/>
		<line class="st0" x1="150.0035858" y1="214.2755127" x2="150.0035858" y2="100.1472549"/>
	</g>
	<path class="st0" d="M243.0968018,129.9106445l-10.5609283-66.8155823
		c-2.9061279-18.385994-18.7548828-31.9263897-37.369278-31.9263897h-90.3331985
		c-18.6143799,0-34.4631424,13.5403957-37.3692703,31.9263897l-10.5609207,66.8155823"/>
	<g>
		<circle class="st0" cx="56.3562965" cy="170.8503418" r="16.9833698"/>
		<circle class="st0" cx="243.6437073" cy="170.8503418" r="16.9833679"/>
	</g>
	<g>
		<path class="st0" d="M68.361618,268.8313293h-0.0000534c-13.8638229,0-25.1026688-11.2388306-25.1026688-25.1026611v-9.386673
			h50.2053909v9.386673C93.4642868,257.5924988,82.225441,268.8313293,68.361618,268.8313293z"/>
		<path class="st0" d="M231.6384277,268.8313293h-0.0000458c-13.8638153,0-25.1026611-11.2388306-25.1026611-25.1026611v-9.386673
			h50.2053986v9.386673C256.7411194,257.5924988,245.5022583,268.8313293,231.6384277,268.8313293z"/>
	</g>
</g>
</svg>
