<?xml version="1.0" encoding="utf-8"?>
<!-- Generator: Adobe Illustrator 25.4.1, SVG Export Plug-In . SVG Version: 6.00 Build 0)  -->
<svg version="1.1" id="Layer_1" xmlns="http://www.w3.org/2000/svg" xmlns:xlink="http://www.w3.org/1999/xlink" x="0px" y="0px"
	 width="300px" height="300px" viewBox="0 0 300 300" style="enable-background:new 0 0 300 300;" xml:space="preserve">
<style type="text/css">
	.st0{fill:none;stroke:#0078b9;stroke-width:16;stroke-linecap:round;stroke-linejoin:round;stroke-miterlimit:10;}
</style>
<g>
	<path id="XMLID_30_" class="st0" d="M207.3861237,98.1128922c0-5.8958817-1.5624695-11.3733139-4.2291107-15.9537354
		c0.420517-2.7116623,0.7041016-5.4685593,0.7041016-8.2979507C203.8611145,44.1145401,179.7467804,20,150.0001068,20
		S96.1388931,44.1145401,96.1388931,73.8612061c0,2.8293915,0.283577,5.5862885,0.7040939,8.2979507
		c-2.6668396,4.5804214-4.2291031,10.0578537-4.2291031,15.9537354c0,10.8012009,5.2206955,20.20578,12.9504471,25.2102356
		c1.2388229,23.498848,20.6281509,42.1865463,44.4357758,42.1865463c23.8074036,0,43.1967316-18.6876984,44.4355621-42.1865463
		C202.1654205,118.3186722,207.3861237,108.914093,207.3861237,98.1128922z"/>
	<path id="XMLID_29_" class="st0" d="M253.9804382,216.2690735c-5.8729401-9.0856781-12.9151306-13.0417328-28.7635345-21.9956512
		c-9.566925-5.4051361-21.2711182-12.0313416-35.6762238-20.1842957
		c-8.9322205,12.1637421-23.292923,20.0928192-39.5407867,20.0928192c-16.2476501,0-30.6083527-7.9290771-39.5405655-20.0928192
		c-14.4051132,8.1529541-26.1093063,14.7789459-35.6762238,20.1840973
		c-15.8484116,8.9541168-22.8905869,12.9099731-28.7635422,21.9956512
		c-3.7228813,5.7593689-6.5276871,11.6496735-9.58778,24.2516785c-1.3854675,5.7054596-2.8010902,12.6092529-3.9886932,20.5088043
		C66.8453674,273.0660706,107.0359268,280,149.9998932,280c42.9641876,0,83.1547394-6.9339294,117.5570221-18.9708557
		c-1.1875916-7.8995361-2.603241-14.8029327-3.988678-20.5085907
		C260.5081177,227.9187469,257.7033081,222.028244,253.9804382,216.2690735z"/>
</g>
</svg>
