<?xml version="1.0" encoding="utf-8"?>
<!-- Generator: Adobe Illustrator 25.4.1, SVG Export Plug-In . SVG Version: 6.00 Build 0)  -->
<svg version="1.1" id="Layer_1" xmlns="http://www.w3.org/2000/svg" xmlns:xlink="http://www.w3.org/1999/xlink" x="0px" y="0px"
	 width="300px" height="300px" viewBox="0 0 300 300" style="enable-background:new 0 0 300 300;" xml:space="preserve">
<style type="text/css">
	.st0{fill:none;stroke:#0078b9;stroke-width:16;stroke-linecap:round;stroke-linejoin:round;stroke-miterlimit:10;}
</style>
<g>
	<path class="st0" d="M198.2721405,208.693222H57.5420418C36.8081436,208.693222,20,191.8850861,20,171.1511841v-0.0000763
		c0-20.733902,16.8081436-37.542038,37.5420418-37.542038h140.7301025"/>
	<path class="st0" d="M176.8647156,63.9148407H96.8832474c-13.314003,0-25.3430634,7.945694-30.5681839,20.1915436
		l-22.1775208,51.9764099"/>
	<path class="st0" d="M109.2386017,208.693222H54.167511v21.302002c0,15.2074432,12.3280716,27.5355072,27.5355225,27.5355072
		h0.0000534c15.2074432,0,27.5355148-12.328064,27.5355148-27.5355072V208.693222z"/>
	<circle class="st0" cx="70.6654053" cy="171.1511536" r="13.984581"/>
	<path class="st0" d="M116.5970383,171.1511536h47.7360916H116.5970383z"/>
	<path class="st0" d="M250.4198151,22.2218437v24.5584946v22.0909004v3.2979736l-21.9874115,12.6944809l-21.9875031-12.6944809
		v-3.2979736V46.7803383V22.2218437c-17.480835,8.2539825-29.5801849,26.035511-29.5801849,46.649395
		c0,17.2153168,8.443985,32.4496307,21.4074249,41.8161011v136.9306335c0,16.6570282,13.5031738,30.160202,30.1601868,30.160202
		h0.000061c16.6570129,0,30.160202-13.5031738,30.160202-30.160202V110.6873398
		C271.5560303,101.3208694,280,86.0865555,280,68.8712387C280,48.2573547,267.9005737,30.4758263,250.4198151,22.2218437z"/>
</g>
</svg>
