<?xml version="1.0" encoding="utf-8"?>
<!-- Generator: Adobe Illustrator 25.4.1, SVG Export Plug-In . SVG Version: 6.00 Build 0)  -->
<svg version="1.1" id="Layer_1" xmlns="http://www.w3.org/2000/svg" xmlns:xlink="http://www.w3.org/1999/xlink" x="0px" y="0px"
	 width="300px" height="300px" viewBox="0 0 300 300" style="enable-background:new 0 0 300 300;" xml:space="preserve">
<style type="text/css">
	.st0{fill:none;stroke:#0078b9;stroke-width:16;stroke-linecap:round;stroke-linejoin:round;stroke-miterlimit:10;}
</style>
<g>
	<g>
		<path class="st0" d="M105.1363297,234.136322c-9.8453751,9.4446564-26.464386,22.8775024-50.3181114,31.9090881
			c-13.4387894,5.0882568-25.7264595,7.4742737-35.5909462,8.5909119"/>
		<path class="st0" d="M130.9089813,63.5454865C68.5510406,63.5454865,18,108.0523148,18,162.9544983
			c0,20.0995178,6.7969398,38.7921448,18.4463043,54.4314423c-0.0936852,6.2677002-0.7284927,13.5959778-2.4916992,21.6592712
			c-3.4590607,15.8175812-9.7920094,27.8498383-14.7273998,35.5910797
			c9.8644867-1.1167603,22.1521587-3.502655,35.5910645-8.5909119c10.357605-3.9216614,19.2689438-8.6817932,26.9363022-13.5764008
			c14.8602371,6.3371429,31.5347137,9.8945465,49.1544113,9.8945465c62.3579407,0,112.9092102-44.5068359,112.9092102-99.4090271
			S193.266922,63.5454865,130.9089813,63.5454865z"/>
	</g>
	<g>
		<circle class="st0" cx="75.545433" cy="169.0909119" r="18.4090843"/>
		<circle class="st0" cx="130.9090424" cy="169.0909119" r="18.4090881"/>
		<circle class="st0" cx="186.2726593" cy="169.0909119" r="18.4090881"/>
	</g>
	<path class="st0" d="M263.5537109,179.2039185C275.203064,163.5646057,282,144.8722076,282,124.7727051
		c0-54.9021912-50.5512695-99.4090271-112.9092102-99.4090271c-44.2176285,0-82.4737701,22.3914948-101.0042038,54.986557
		c17.9611053-10.6095276,39.5684128-16.8047485,62.8223953-16.8047485c62.3579407,0,112.9092102,44.5068283,112.9092102,99.4090118
		c0,20.4516449-7.022522,39.4558563-19.0491791,55.2592163c6.0936127,3.4786377,12.8590851,6.7899475,20.4127197,9.6498566
		c13.4386597,5.0882721,25.7263489,7.4741669,35.5908203,8.5909119
		c-4.9351501-7.7412415-11.2683411-19.7734985-14.7271729-35.5910645
		C264.282196,192.8001251,263.6473694,185.4716034,263.5537109,179.2039185z"/>
</g>
</svg>
