<?xml version="1.0" encoding="utf-8"?>
<!-- Generator: Adobe Illustrator 25.4.1, SVG Export Plug-In . SVG Version: 6.00 Build 0)  -->
<svg version="1.1" id="Layer_1" xmlns="http://www.w3.org/2000/svg" xmlns:xlink="http://www.w3.org/1999/xlink" x="0px" y="0px"
	 width="300px" height="300px" viewBox="0 0 300 300" style="enable-background:new 0 0 300 300;" xml:space="preserve">
<style type="text/css">
	.st0{fill:none;stroke:#0078b9;stroke-width:16;stroke-linecap:round;stroke-linejoin:round;stroke-miterlimit:10;}
</style>
<g>
	<circle class="st0" cx="150" cy="150" r="132"/>
	<path class="st0" d="M250.9838257,234.9976196C221.2601471,217.8582458,186.7759552,208.0503235,150,208.0503235
		s-71.2601471,9.8079987-100.9838257,26.9473724"/>
	<path class="st0" d="M150,47.4401054v24.3732643V47.4401054z"/>
	<path class="st0" d="M77.4792023,77.4792023l17.2344971,17.2344971L77.4792023,77.4792023z"/>
	<path class="st0" d="M47.4401016,150h24.3732605H47.4401016z"/>
	<path class="st0" d="M252.5598907,150h-24.3732605H252.5598907z"/>
	<path class="st0" d="M222.520813,77.4792175c0,0-86.9876404,52.5186768-89.7552795,55.2863159
		c-9.5183487,9.5183563-9.5183487,24.9506226,0,34.4689636c9.5183563,9.5183563,24.9506073,9.5183563,34.4689636,0
		C170.0021362,164.4668579,222.520813,77.4792175,222.520813,77.4792175z"/>
</g>
</svg>
