<?xml version="1.0" encoding="utf-8"?>
<!-- Generator: Adobe Illustrator 25.4.1, SVG Export Plug-In . SVG Version: 6.00 Build 0)  -->
<svg version="1.1" id="Layer_1" xmlns="http://www.w3.org/2000/svg" xmlns:xlink="http://www.w3.org/1999/xlink" x="0px" y="0px"
	 width="300px" height="300px" viewBox="0 0 300 300" style="enable-background:new 0 0 300 300;" xml:space="preserve">
<style type="text/css">
	.st0{fill:none;stroke:#0078b9;stroke-width:16;stroke-linecap:round;stroke-linejoin:round;stroke-miterlimit:10;}
</style>
<g>
	<path class="st0" d="M150.0000153,149.6668549h-0.0000305c-9.6956635,0-17.555542,7.8598785-17.555542,17.5555267v70.4444733
		h35.1111145v-70.4444733C167.5555573,157.5267334,159.6956787,149.6668549,150.0000153,149.6668549z"/>
	<path class="st0" d="M210.6666718,271.0001831H89.3333359v-0.0000305c0-18.4094696,14.9238205-33.3332977,33.3332977-33.3332977
		h54.6667404c18.4094696,0,33.3332977,14.9238281,33.3332977,33.3332977V271.0001831z"/>
	<path class="st0" d="M95.5557022,151.0002594c-10.5890884-3.740921-42.8385315-16.6898346-62.2222252-50.6667023
		C24.6538258,85.1193542,21.3431568,70.578125,20,60.3335114c17.7777786,0,35.5555573,0,53.3333359,0"/>
	<path class="st0" d="M204.4443054,151.0002594c10.5890808-3.740921,42.8385315-16.6898193,62.222229-50.6667023
		C275.3461914,85.1193542,278.6568604,70.578125,280,60.3335114c-17.777771,0-35.5555573,0-53.3333282,0"/>
	<path class="st0" d="M167.5555573,186.5557404c9.1950989-11.0663757,21.2972412-23.5632324,36.8887482-35.555481
		c0.076767-0.0590515,0.1535034-0.1180115,0.2302399-0.1768646c1.5312958-1.1744385,9.0144043-7.0900726,14.4446411-16.3883667
		c6.838913-11.7103729,7.4715271-23.7533417,7.5472565-27.880188V54.5474167
		c0-14.1095505-11.4380493-25.5475979-25.5475922-25.5475979H98.8809357c-14.1095505,0-25.5475998,11.4380474-25.5475998,25.5475979
		v52.0072708c0,17.3853302,8.1980286,33.6865692,21.9919128,44.2685394
		c0.0767975,0.0589294,0.1536179,0.1179352,0.2304535,0.1770325c11.2230606,8.6320953,23.644577,20.0808258,36.8887405,35.555481"/>
</g>
</svg>
