<?xml version="1.0" encoding="utf-8"?>
<!-- Generator: Adobe Illustrator 25.4.1, SVG Export Plug-In . SVG Version: 6.00 Build 0)  -->
<svg version="1.1" id="Layer_1" xmlns="http://www.w3.org/2000/svg" xmlns:xlink="http://www.w3.org/1999/xlink" x="0px" y="0px"
	 width="300px" height="300px" viewBox="0 0 300 300" style="enable-background:new 0 0 300 300;" xml:space="preserve">
<style type="text/css">
	.st0{fill:none;stroke:#0078b9;stroke-width:16;stroke-linecap:round;stroke-linejoin:round;stroke-miterlimit:10;}
	.st1{fill:none;stroke:#0078b9;stroke-width:16;stroke-linecap:round;stroke-linejoin:round;stroke-miterlimit:10.000001;}
</style>
<g>
	<path class="st0" d="M98.2861252,161.6988678l-47.5378838-47.5378876c-4.4255142-4.4255142-4.4255142-11.6006927,0-16.026207
		l64.4346619-64.4346619c4.4255142-4.4255161,11.6006927-4.4255161,16.0261993,0l47.5378876,47.5378799
		c4.4255219,4.4255142,4.4255219,11.6006927,0,16.026207l-64.4346619,64.4346695
		C109.8868179,166.1243744,102.7116394,166.1243744,98.2861252,161.6988678z"/>
	
		<rect x="148.4975281" y="123.077774" transform="matrix(0.7071068 -0.7071068 0.7071068 0.7071068 -55.0434418 156.9963531)" class="st1" width="26.9842243" height="43.7274361"/>
	<path class="st0" d="M243.4275665,258.3338928l-75.3471375-75.3471375c-3.6495209-3.6495209-3.6495209-9.5665436,0-13.2160645
		l18.7384033-18.7384033c3.6495056-3.6495056,9.5665436-3.6495056,13.2160645,0l75.3471222,75.3471375
		c8.8239746,8.8239746,8.8239746,23.1304626,0,31.9544373l-0.0000305,0.0000305
		C266.5580139,267.1578674,252.2515259,267.1578674,243.4275665,258.3338928z"/>
	<path class="st0" d="M187.0175018,47.6688385l-22.2392426-22.239233c-8.4913635-8.4913788-22.2586212-8.4913788-30.75,0
		l-5.5448151,5.5448265l52.9892273,52.9892273l5.5448303-5.5448227
		C195.5088806,69.9274597,195.5088806,56.1602135,187.0175018,47.6688385z"/>
	<path class="st0" d="M64.7169724,169.9693604l-22.2392311-22.2392273c-8.4913788-8.4913788-8.4913788-22.2586212,0-30.75
		l5.5448265-5.5448303L101.011795,164.42453l-5.5448227,5.5448303
		C86.9755936,178.4607391,73.2083511,178.4607391,64.7169724,169.9693604z"/>
	<path class="st0" d="M145.6467285,280.9389343H30.8012333C23.731308,280.9389343,18,275.2076111,18,268.1376953v-0.0000305
		c0-7.0699158,5.731308-12.8012238,12.8012333-12.8012238h114.8454971c7.069931,0,12.801239,5.731308,12.801239,12.8012238
		v0.0000305C158.4479675,275.2076111,152.7166595,280.9389343,145.6467285,280.9389343z"/>
	<path class="st0" d="M124.5769882,234.8544464H51.8709755c-10.6264992,0-19.2409782,8.6144714-19.2409782,19.2409668v0.0000305
		c0,0.685379,0.5556107,1.2409973,1.2409935,1.2409973h108.7059784c0.6853943,0,1.2409973-0.5556183,1.2409973-1.2409973v-0.0000305
		C143.8179626,243.4689178,135.2034912,234.8544464,124.5769882,234.8544464z"/>
</g>
</svg>
