<?xml version="1.0" encoding="utf-8"?>
<!-- Generator: Adobe Illustrator 25.4.1, SVG Export Plug-In . SVG Version: 6.00 Build 0)  -->
<svg version="1.1" id="Layer_1" xmlns="http://www.w3.org/2000/svg" xmlns:xlink="http://www.w3.org/1999/xlink" x="0px" y="0px"
	 width="300px" height="300px" viewBox="0 0 300 300" style="enable-background:new 0 0 300 300;" xml:space="preserve">
<style type="text/css">
	.st0{fill:none;stroke:#0078b9;stroke-width:16;stroke-linecap:round;stroke-linejoin:round;stroke-miterlimit:10;}
</style>
<g>
	<path class="st0" d="M246.4243622,278.4417114h-0.000061c-18.631897,0-33.7360382-15.104126-33.7360382-33.7360382v-67.4722137
		c0-18.631897,15.1041412-33.7360382,33.7360382-33.7360382h0.000061c18.6319122,0,33.7360382,15.1041412,33.7360382,33.7360382
		v67.4722137C280.1604004,263.3375854,265.0562744,278.4417114,246.4243622,278.4417114z"/>
	<g>
		<circle class="st0" cx="177.1514282" cy="73.225914" r="51.6676369"/>
		<circle class="st0" cx="188.105011" cy="62.2723389" r="15.833663"/>
		<path class="st0" d="M127.6417084,88.0287857l-32.0999374,32.0999374
			c-1.3793106,1.3793106-2.1541901,3.2500687-2.1541901,5.2006836l0.0000534,4.3083191
			c0,4.0618896-3.2928772,7.3547516-7.3547592,7.3547516h-0.0001068c-4.0618896,0-7.3547668,3.2928772-7.3547668,7.3547668
			v0.0001068c0,4.0618896-3.2928696,7.3547668-7.3547592,7.3547668l-0.0000534-0.000061
			c-4.0618896,0-7.354763,3.2928772-7.354763,7.3547668v0.0001068c0,4.0618896-3.2928734,7.3547668-7.3547592,7.3547668h-0.0001106
			c-4.0618858,0-7.3547592,3.2928772-7.3547592,7.3547516l0.0000534,0.000061c0,4.0618896-3.2928734,7.3547516-7.3547592,7.3547516
			h-0.0001106c-4.0618858,0-7.3547592,3.2928772-7.3547592,7.3547668v0.0001068c0,4.0618896-3.2928772,7.3547668-7.354763,7.3547668
			h-0.0001087c-4.0618858,0-7.3547611,3.2928772-7.3547611,7.3547668v4.3084717
			c0,1.9505005,0.7748775,3.8212738,2.1541328,5.2005157l8.7937107,8.7937164
			c1.9998722,1.9998779,4.9694576,2.6757812,7.6379108,1.7385101l0.0000534,0.0000458
			c23.7748146-8.3508148,45.3692665-21.9373932,63.1874733-39.7556152l60.7356873-60.7356796
			c-7.9542999-2.3705826-15.4506683-6.6942215-21.7316437-12.9751968
			C134.3359222,103.479454,130.0122833,95.9830856,127.6417084,88.0287857z"/>
	</g>
	<path class="st0" d="M199.3011017,51.0762482C200.6494904,49.1080627,213.4442902,31.02948,233.25,31.3928528
		C257.1950378,31.8321838,269.0853882,58.8184509,270.5357056,62.25
		c10.3556519,24.5022583,0.2722473,56.6423187-25.0714264,81.2474213"/>
	<circle class="st0" cx="246.4243317" cy="175.9695282" r="6.4459219"/>
	<line class="st0" x1="239.9784088" y1="237.2334595" x2="252.8702545" y2="237.2334595"/>
</g>
</svg>
