<?xml version="1.0" encoding="utf-8"?>
<!-- Generator: Adobe Illustrator 25.4.1, SVG Export Plug-In . SVG Version: 6.00 Build 0)  -->
<svg version="1.1" id="Layer_1" xmlns="http://www.w3.org/2000/svg" xmlns:xlink="http://www.w3.org/1999/xlink" x="0px" y="0px"
	 width="300px" height="300px" viewBox="0 0 300 300" style="enable-background:new 0 0 300 300;" xml:space="preserve">
<style type="text/css">
	.st0{fill:none;stroke:#0078b9;stroke-width:16;stroke-linecap:round;stroke-linejoin:round;stroke-miterlimit:10;}
</style>
<g>
	<g>
		<path class="st0" d="M120.3260422,224.8912659c-11.3356552,10.8742676-30.4702682,26.3404388-57.9346962,36.7391052
			c-15.4730034,5.8584595-29.6206436,8.6056519-40.978302,9.8913269"/>
		<path class="st0" d="M149.9998627,28.4783077C78.2028885,28.4783077,20,79.7220764,20,142.9347382
			c0,23.1419525,7.8257847,44.6640625,21.2384987,62.6706543c-0.1078682,7.2164307-0.8387642,15.6539917-2.868866,24.9378052
			c-3.9826546,18.2118683-11.2742119,32.0654449-16.9566669,40.9784698
			c11.3576603-1.2858276,25.5053005-4.0328674,40.9784393-9.8913269
			c11.9254227-4.5152588,22.1856537-9.9959412,31.0136108-15.6314392
			c17.1096115,7.2963867,36.3080902,11.3922729,56.5948486,11.3922729C221.7968445,257.3911743,280,206.1473999,280,142.9347382
			S221.7968445,28.4783077,149.9998627,28.4783077z"/>
	</g>
	<g>
		<path class="st0" d="M94.8794403,94.8928604h62.7526398H94.8794403z"/>
		<path class="st0" d="M94.8794403,130h110.2411194H94.8794403z"/>
		<path class="st0" d="M94.8794403,165.1071472h90.9130249H94.8794403z"/>
	</g>
</g>
</svg>
