<?xml version="1.0" encoding="utf-8"?>
<!-- Generator: Adobe Illustrator 25.4.1, SVG Export Plug-In . SVG Version: 6.00 Build 0)  -->
<svg version="1.1" id="Layer_1" xmlns="http://www.w3.org/2000/svg" xmlns:xlink="http://www.w3.org/1999/xlink" x="0px" y="0px"
	 width="300px" height="300px" viewBox="0 0 300 300" style="enable-background:new 0 0 300 300;" xml:space="preserve">
<style type="text/css">
	.st0{fill:none;stroke:#0078b9;stroke-width:16;stroke-linecap:round;stroke-linejoin:round;stroke-miterlimit:10;}
</style>
<g>
	<circle class="st0" cx="150" cy="148.4472046" r="38.5"/>
	<path class="st0" d="M250.6043091,171.3894653c3.2970581-14.4653931,16.9754028-23.867981,31.3856201-22.1463623
		C281.9915161,148.977356,282,148.7133179,282,148.4472046c0-20.8325806-4.8329468-40.5339966-13.4279785-58.0552368
		c-12.234436,7.8339844-28.6584473,5.3121338-37.9199829-6.2937012
		c-9.2566528-11.5998535-8.0770874-28.1625366,2.2613525-38.3550415
		c-15.5886841-12.6005859-34.1012573-21.7223511-54.3638306-26.1904297
		c-1.5040283,14.4508057-13.7183228,25.7189331-28.5675659,25.7215576
		c-14.8493042,0.0025635-27.067627-11.2614136-28.5765991-25.711731
		c-20.2681885,4.4768677-38.7843018,13.6101685-54.3726196,26.223938
		c10.343689,10.1870728,11.5320435,26.7492676,2.2814941,38.3538818
		c-9.2555542,11.6108398-25.6785278,14.1413574-37.9170532,6.3134155C22.821228,107.9595947,18,127.6392212,18,148.4472046
		c0,0.2891846,0.0090942,0.5762329,0.0109253,0.8649902c14.4091187-1.7289429,28.0921021,7.6664429,31.3967896,22.1299438
		c3.3067017,14.4726562-4.9505615,28.8876953-18.6963501,33.5787354
		c8.7872925,18.4953613,21.7443237,34.625061,37.6630859,47.1675415
		c7.6313477-12.345459,23.5092163-17.1867065,36.8786621-10.7523804
		c13.3755493,6.4372559,19.4978638,21.8777466,14.5983276,35.5485229
		c9.6835938,2.2625122,19.7755737,3.4626465,30.1485596,3.4626465c10.3969727,0,20.5115967-1.2062988,30.2156982-3.4790039
		c-4.9063721-13.6680908,1.2078247-29.1113892,14.579895-35.555603
		c13.3658447-6.4411011,29.2458496-1.6085815,36.8838501,10.7324219
		c15.9117432-12.550415,28.8606567-28.6862793,37.6384277-47.1867676
		C255.5697632,200.274353,247.3052368,185.8637085,250.6043091,171.3894653z"/>
</g>
</svg>
