<?xml version="1.0" encoding="utf-8"?>
<!-- Generator: Adobe Illustrator 25.4.1, SVG Export Plug-In . SVG Version: 6.00 Build 0)  -->
<svg version="1.1" id="Layer_1" xmlns="http://www.w3.org/2000/svg" xmlns:xlink="http://www.w3.org/1999/xlink" x="0px" y="0px"
	 width="300px" height="300px" viewBox="0 0 300 300" style="enable-background:new 0 0 300 300;" xml:space="preserve">
<style type="text/css">
	.st0{fill:none;stroke:#0078b9;stroke-width:16;stroke-linecap:round;stroke-linejoin:round;stroke-miterlimit:10;}
</style>
<g>
	<path class="st0" d="M74.6260681,158.2574463l-39.3054619-39.3054657c-23.0941429-23.0941467-23.0941429-60.5371475,0-83.6312866
		l0.0000839-0.0000839c23.0941429-23.0941429,60.5371437-23.0941429,83.6312866,0l62.4924011,62.4924088
		c23.0941467,23.0941391,23.0941467,60.5371399,0,83.6312866l-0.0000916,0.0000916
		c-5.7735291,5.7735291-12.4438629,10.1036835-19.5626068,12.990448"/>
	<path class="st0" d="M225.3739319,141.7425537l39.3054504,39.3054657c23.0941467,23.0941467,23.0941467,60.5371552,0,83.6313019
		l-0.000061,0.000061c-23.0941467,23.0941467-60.5371552,23.0941467-83.6313019,0l-62.4924011-62.4923859
		c-23.0941391-23.0941467-23.0941391-60.5371552,0-83.6312943l0.0000839-0.0000839
		c5.7735367-5.7735291,12.4438705-10.1036835,19.5626144-12.990448"/>
</g>
</svg>
