<?xml version="1.0" encoding="utf-8"?>
<!-- Generator: Adobe Illustrator 25.4.1, SVG Export Plug-In . SVG Version: 6.00 Build 0)  -->
<svg version="1.1" id="Layer_1" xmlns="http://www.w3.org/2000/svg" xmlns:xlink="http://www.w3.org/1999/xlink" x="0px" y="0px"
	 width="120px" height="56px" viewBox="0 0 120 56" style="enable-background:new 0 0 120 56;" xml:space="preserve">
<style type="text/css">
	.st0{fill:url(#SVGID_1_);}
	.st1{fill:#BDCCD4;stroke:#726A63;stroke-width:0.25;stroke-miterlimit:10;}
	.st2{fill:#797A7D;}
	.st3{fill:#303940;}
	.st4{fill:#0A212B;}
	.st5{fill:#FBD404;}
	.st6{fill:#5E6265;}
	.st7{fill:#EC5B2A;}
	.st8{fill:#C5C9CC;}
	.st9{fill:#B1B4B8;}
</style>
<g>
	
		<radialGradient id="SVGID_1_" cx="-499.6178284" cy="569.725647" r="15.1376286" gradientTransform="matrix(1.8431855 0 0 -1 980.8883667 621.8571167)" gradientUnits="userSpaceOnUse">
		<stop  offset="0" style="stop-color:#B3B3B3"/>
		<stop  offset="1" style="stop-color:#726A63;stop-opacity:0.8"/>
	</radialGradient>
	<ellipse class="st0" cx="60" cy="52.1315041" rx="39.3626747" ry="1.4920022"/>
	<g>
		<path class="st1" d="M99.454483,35.2108879c-0.1341095,1.0851593-0.2657928,2.0977287,1.3321381,2.2419357
			c0.5351715,0.0482941,0.7304611,0.7134819,0.5781555,1.3102226c-3.9745102,0.9178467-6.4950256-0.6109581-7.6036835-4.5178604
			c-0.0161209-0.0567398-0.0564346-0.1061401-0.0802612-0.1612473c-0.9708633-2.244936-2.7390823-3.271389-5.1242828-3.2982407
			c-2.346283-0.0264091-4.6954193,0.0551548-7.0389023-0.0305061c-1.8407669-0.0673237-3.1254196,0.7236004-4.024292,2.2273865
			c-0.801651,1.3411484-1.5452499,2.7177849-2.2888184,4.0926628c-0.6603546,1.2209892-1.6018372,1.7462654-3.0436401,1.7394295
			c-9.9879074-0.0472832-19.976429-0.0639038-29.9639893,0.0119896c-1.6497765,0.0125237-2.7236862-0.3586006-3.245121-1.999649
			c-1.5231094-4.79356-4.7869148-6.8221817-9.7708206-6.0557499c-0.1175556,0.0180969-0.2433472,0.0198174-0.3602219-0.0002899
			c-4.5654087-0.7856941-7.7205849,0.9053059-9.2625847,5.3350163c-0.7969913,2.2894821-2.3427277,3.1493568-4.6844759,2.6728401
			c-0.2062387-2.8632088-0.1702747-2.9112206,2.5323801-3.2500267c0.3122692-0.0391273,0.5767574-0.1322632,0.7138577-0.4420395
			c1.7490406-1.2934875,1.9464188-3.3124332,0.5569515-5.6957531c0.9419632-2.6282711,2.9395771-3.8245277,5.5977287-4.1081848
			c7.2831955-0.7771873,14.5644073-1.5750294,21.8536758-2.2906723c1.0243111-0.1005402,1.6028633-0.4522228,2.1016197-1.329731
			c1.4831085-2.6093559,3.0893097-5.1484814,4.5871964-7.7497473c1.5852966-2.7530365,3.9285202-4.1080294,7.0936775-4.1073236
			C70.84552,9.8077307,81.7803574,9.8189735,92.7149734,9.7808151c1.9359512-0.0067453,2.8764801,1.1577682,3.3546677,2.7073402
			c0.9372711,3.0372868,1.6909561,6.1309605,2.5387497,9.1963081c0.2057343,0.7437916,0.4818497,1.4680977,0.7257156,2.1998329
			c-0.0000839,0.754549-0.0003281,1.5105972-0.0005646,2.2666664c-1.0604553,0.3303013-1.5026703,1.0244732-1.4331665,2.1533852
			c0.0731201,1.1876602,0.0619888,2.3856602,0.0023117,3.5748405c-0.0538483,1.0729904,0.3576202,1.7043152,1.4264832,1.8829346
			C99.3709412,34.2450523,99.4127197,34.7279625,99.454483,35.2108879z M52.8549881,22.5417347
			c0.0484276,0.4655151,0.3619766,0.3487511,0.6470108,0.29459c0.8586617,0.0008392,1.7173309,0.0016975,2.5759926,0.0025349
			c0.8271294,0.000618,1.6542435,0.001236,2.481369,0.0018749c0.8562355,0.0006161,1.7124825,0.0012341,2.568718,0.001852
			l0.1629295,0.0540276l0.1630325-0.0536327c0.4911499-0.0000668,0.9822998-0.0001087,1.4734535-0.0001755
			c1.9262047-0.0075169,3.8524055-0.0150566,5.7786217-0.0225945c0.5390472,0.0279961,1.0792236,0.0422802,1.6168594,0.0871601
			c0.7865829,0.0656681,1.2056122-0.1340466,1.1912384-1.0702553c-0.0488739-3.1836357-0.0353165-6.3686352-0.0063705-9.5527534
			c0.0070953-0.7811775-0.2872238-1.0683613-1.0516281-1.0482121c-3.9599457,0.1043301-7.9247131-0.1641369-11.8823662,0.1496964
			c-1.8366928,0.2020073-3.2332687,1.0625191-4.088665,2.7327347c-0.473011,0.7556944-0.9773979,1.4939985-1.408989,2.2726631
			c-0.3391304,0.6118622-1.2210007,1.3646908-0.8757439,1.8381634
			C53.2140236,19.6194706,52.5568581,21.129343,52.8549881,22.5417347z M95.3910522,22.5406342
			c0.7139893-0.3697357,0.7814255-0.9748535,0.6350784-1.6786785c-0.5716095-2.7489586-1.1560974-5.4956026-1.6874542-8.252408
			c-0.2064438-1.0710258-0.8039322-1.5394287-1.8532867-1.5314941c-2.8686371,0.0217361-5.7372437,0.0402517-8.6058731,0.0600691
			c-2.0561981-0.1822777-4.1127472-0.1772089-6.1696243-0.0123234c-0.6079788,0.0184288-1.2159653,0.0368795-1.8239441,0.0553293
			c-0.1234055,0.0413551-0.2468262,0.0827293-0.370224,0.1240845c-0.7403564,0.2650061-0.946106,0.8575573-0.9469452,1.565794
			c-0.0031738,2.7052002-0.0228806,5.4106226,0.0067444,8.1155157c0.0145493,1.3271503,0.7621307,1.9297981,2.0816116,1.9191952
			c4.0865402-0.0328217,8.1732254-0.0438881,12.2598724-0.0634193
			C91.0769882,22.7838402,93.2638931,23.3035812,95.3910522,22.5406342z"/>
		<path class="st2" d="M14.873683,38.7788277c2.3417482,0.4765167,3.8874846-0.383358,4.6844759-2.6728401
			c1.5419998-4.4297104,4.697176-6.1207104,9.2625847-5.3350163c0.1168747,0.0201073,0.2426662,0.0183868,0.3602219,0.0002899
			c4.9839058-0.7664318,8.2477112,1.2621899,9.7708206,6.0557499c0.5214348,1.6410484,1.5953445,2.0121727,3.245121,1.999649
			c9.9875603-0.0758934,19.9760818-0.0592728,29.9639893-0.0119896c1.441803,0.0068359,2.3832855-0.5184402,3.0436401-1.7394295
			c0.7435684-1.3748779,1.4871674-2.7515144,2.2888184-4.0926628c0.8988724-1.5037861,2.1835251-2.2947102,4.024292-2.2273865
			c2.343483,0.0856609,4.6926193,0.004097,7.0389023,0.0305061c2.3852005,0.0268517,4.1534195,1.0533047,5.1242828,3.2982407
			c0.0238266,0.0551071,0.0641403,0.1045074,0.0802612,0.1612473c1.1086578,3.9069023,3.6291733,5.4357071,7.6036835,4.5178604
			c0.1788635,0.7362747,0.1851501,1.4743576,0.0237885,2.2143135c-1.9562759,0.6692429-3.9760132,0.2211647-5.9635162,0.339447
			c-1.3224564-5.5044823-5.8453293-8.3707123-10.6042786-8.2506409c-5.2452927,0.132328-9.3279495,4.0319977-9.9912796,9.1221313
			c-0.3700638,0.4566536-0.9030838,0.1519012-1.3419037,0.2872505c-0.110939-1.4217606-1.2082901-1.0843849-2.0386276-1.0865021
			c-7.7398911-0.0196838-15.4798622-0.0114632-23.219799-0.0145493c-0.6594238-0.0002632-1.3220291-0.043911-1.9240799,0.3060303
			c-2.3450775-0.7834473-4.7682991-0.1238213-7.1415558-0.3867531c-1.4259834-5.1126633-5.639183-8.4429932-10.4635029-8.2709007
			c-5.1371956,0.1832466-9.1097889,3.7734947-10.1972942,9.2158165
			C15.0649986,42.8486977,14.6112003,42.4160728,14.873683,38.7788277z"/>
		<path class="st3" d="M90.6063614,50.6924171c-3.9688492,2.3493538-7.8056488,2.2705727-11.4893723-0.6246452
			c-2.6081161-2.8673973-3.2810364-6.1511307-2.1147766-9.8304977c0.6965714-1.2721558,1.6591187-2.3313675,2.7353973-3.2780724
			c3.5817795-3.1506081,9.490303-2.5504074,12.2310791,1.2130127c0.6616592,0.9085426,1.2783966,1.848877,2.0227966,2.6964035
			c-0.3047256,0.0119057-0.4170151,0.205204-0.3508453,0.4626503C94.6083527,45.095417,93.1753311,48.0770912,90.6063614,50.6924171
			z M89.7105255,46.5295715c0.6139603-0.353714,0.6947708-0.9745674,0.7946777-1.5858765
			c0.3005829-0.8505058,0.3127289-1.7008362-0.0016098-2.5509453c-0.0602264-0.2320061-0.12043-0.464035-0.1806259-0.6960449
			c-0.3138351-1.2505913-1.0496063-2.1435318-2.2441177-2.6476898c-0.407547-0.5912247-1.0065918-0.7409706-1.6765442-0.7272568
			c-0.8443298-0.3856506-1.6956329-0.3079262-2.5497971-0.0382919c-0.6208801,0.09935-1.2377777,0.2068558-1.6225739,0.7906761
			c-0.8703613,0.3082809-1.359024,1.0053177-1.7917633,1.7592964c-0.2959137,0.4832573-0.6615067,0.942627-0.537796,1.5696526
			c-0.4611511,0.8402977-0.3971405,1.6832199-0.0126038,2.5277519c-0.0060425,0.6197701,0.190979,1.1500053,0.6834106,1.549984
			c0.3170471,0.8709412,0.9653931,1.4200211,1.7676697,1.8195839c0.4428787,0.369648,0.9208908,0.6517143,1.5276794,0.6126137
			c0.8438492,0.3291512,1.6865768,0.46278,2.5256805-0.0148582c0.6317215,0.1356544,1.1018448-0.2261467,1.5946274-0.5181122
			C88.6766739,47.8705864,89.4749527,47.462162,89.7105255,46.5295715z"/>
		<path class="st3" d="M34.6877975,50.3423691c-3.6194897,2.5420799-7.3175068,2.6989594-11.097538,0.3654137
			c-2.9357109-2.7017174-4.1069603-5.936512-3.0045872-9.8719406c0.0247345-0.0883293-0.1833553-0.2419052-0.2828388-0.3650436
			c0.5633221-0.6934433,1.1365204-1.3791504,1.6883125-2.0816536c2.6066113-3.3186073,6.8297062-4.376255,10.4528008-2.7617226
			c2.2878494,1.0194931,3.5926933,2.8931465,4.8179359,4.8989296
			C38.2131042,44.2727966,37.4310036,47.5647087,34.6877975,50.3423691z M26.8181343,38.8898849
			c-1.4451714-0.0873795-2.0364113,0.979393-2.676445,1.9802361c-0.3455887,0.4487152-0.6435928,0.9139404-0.5275574,1.5226097
			c-0.4466782,0.8461838-0.3566093,1.6949272-0.0120678,2.5448532c-0.0310478,0.5891838,0.2048931,1.067749,0.6113205,1.4756813
			c0.3897171,0.8128357,0.9182663,1.4852486,1.8103352,1.79002c0.409832,0.8225098,1.0932922,0.8642387,1.8651676,0.6536789
			c0.7105045,0.5378647,1.4335995,0.4385376,2.1625328,0.0426788c0.5606441,0.177494,0.9728699-0.2060432,1.4402561-0.3810234
			c0.7601051-0.5278282,1.6834526-0.8973465,1.8963928-1.9557457c1.3099022-1.5764389,1.3687019-3.9593201,0.1428833-5.7912674
			c-0.3971214-0.8706551-0.9045334-1.6148605-1.9705544-1.7185364c-0.4944687-0.2545547-0.8153114-0.8668365-1.5005779-0.7282486
			c-0.7345142-0.3950653-1.4726391-0.3285828-2.2126961-0.0173721
			C27.2462959,38.0460815,27.2220917,38.8034515,26.8181343,38.8898849z"/>
		<path class="st3" d="M99.454483,35.2108879c-0.0417633-0.4829254-0.0835419-0.9658356-0.1253128-1.4487877
			c0.0014801-2.5370522,0.0029144-5.0741062,0.0043716-7.6111374c0.0002365-0.7560692,0.0004807-1.5121174,0.0005646-2.2666664
			c0.0176163-1.1407738-0.0079727-2.2858028,0.0635757-3.4247246c0.1003189-1.5968094,0.8179245-1.9721661,3.3406067-2.0028057
			c1.4088211-0.0170841,2.4170685,0.4250202,2.429306,1.9769268c0.0360794,4.5716915,0.0570068,9.1444626-0.0073242,13.715538
			c-0.0264893,1.8840332-2.5341873,2.8055878-4.6953735,1.7876167
			C100.0959549,35.7630806,99.7897034,35.4562531,99.454483,35.2108879z"/>
		<path class="st4" d="M93.9914856,40.868618c-0.7444-0.8475266-1.3611374-1.7878609-2.0227966-2.6964035
			c-2.7407761-3.7634201-8.6492996-4.3636208-12.2310791-1.2130127c-1.0762787,0.9467049-2.038826,2.0059166-2.7353973,3.2780724
			c-0.7242203,0.6503487-1.4484634,1.3006935-2.1727066,1.9510231c0.6633148-5.0901337,4.7459717-8.9898033,9.9912643-9.1221313
			c4.7589493-0.1200714,9.2818222,2.7461586,10.6042786,8.2506638c-0.0032883,0.2565651-0.006546,0.5131302-0.0097885,0.7696953
			C94.9406586,41.6805496,94.4660873,41.2745934,93.9914856,40.868618z"/>
		<path class="st4" d="M37.2618828,40.5263519c-1.2252426-2.0057831-2.5300865-3.8794365-4.8179359-4.8989296
			c-3.6230946-1.6145325-7.8461895-0.5568848-10.4528008,2.7617226c-0.5517921,0.7025032-1.1249905,1.3882103-1.6883011,2.0816536
			c-0.5974026,0.5919571-1.0271606,1.354641-1.8001385,1.767849c1.0875263-5.4422798,5.0601196-9.0325279,10.1973152-9.2157745
			c4.8243198-0.1720924,9.0375195,3.1582375,10.4633121,8.2709427c-0.1656227,0.1438141-0.3310471,0.2875824-0.4964828,0.4313469
			C38.1985245,41.3255577,37.7302094,40.9259567,37.2618828,40.5263519z"/>
		<path class="st5" d="M18.6768723,29.3910084c1.3894672,2.3833199,1.1920891,4.4022655-0.5569515,5.6957531
			C18.048214,33.1625175,17.7675438,31.2185669,18.6768723,29.3910084z"/>
		<path class="st6" d="M95.4152603,42.086525c0.0032425-0.2565651,0.0065002-0.5131302,0.0097885-0.7696953
			c1.9875031-0.1183052,4.0072403,0.3297729,5.9635162-0.3394699c0.0644989,0.657402-0.1378555,1.3260918-0.8164444,1.3387909
			C98.8539352,42.3483124,97.104805,42.7544441,95.4152603,42.086525z"/>
		<path class="st4" d="M88.9170074,22.8422985c-4.086647,0.0195312-8.1733322,0.0305977-12.2598724,0.0634193
			c-1.3194809,0.010603-2.0670624-0.5920448-2.0816116-1.9191952c-0.0296249-2.7048931-0.0099182-5.4103155-0.0067444-8.1155157
			c0.0008392-0.7082367,0.2065887-1.3007879,0.946701-1.5657063c0.1233368-0.0413313,0.2469101-0.0827513,0.3704681-0.1241932
			c0.6079788-0.0184288,1.2159653-0.0368795,1.8238297-0.0552845c0.6065521,1.287384,1.8370438,2.0276041,2.7553329,3.0321274
			C83.18927,17.1378803,86.0870819,19.9590511,88.9170074,22.8422985z"/>
		<path class="st4" d="M58.5738487,11.3858471c3.957653-0.3138332,7.9224205-0.0453663,11.8823662-0.1496964
			c0.7644043-0.0201492,1.0587234,0.2670345,1.0516281,1.0482121c-0.0289459,3.1841183-0.0425034,6.3691177,0.0063705,9.5527534
			c0.0143738,0.9362087-0.4046555,1.1359234-1.1912384,1.0702553c-0.5376358-0.0448799-1.0778122-0.059164-1.6168213-0.0871601
			c-1.2536316-2.2302723-3.4768066-3.5772648-5.0368729-5.517952
			C62.0361214,15.2706842,59.8802109,13.6936274,58.5738487,11.3858471z"/>
		<path class="st3" d="M88.9170074,22.8422985c-2.8299255-2.8832474-5.7277374-5.7044182-8.4518967-8.6843481
			c-0.9182892-1.0045233-2.1487808-1.7447433-2.7553329-3.0321274c2.0569916-0.1649094,4.1135406-0.1699781,6.1697998,0.0122995
			c0.0156784,0.3913383,0.2497787,0.6563673,0.5098495,0.9157972c2.8897705,2.8826733,5.7300949,5.8176126,8.6980362,8.6173143
			c0.7010269,0.6612835,1.1214371,1.7720985,2.3035889,1.8694C93.2638931,23.3035812,91.0769882,22.7838402,88.9170074,22.8422985z"
			/>
		<path class="st4" d="M95.3910522,22.5406342c-1.1821518-0.0973015-1.602562-1.2081165-2.3035889-1.8694
			c-2.9679413-2.7997017-5.8082657-5.7346411-8.6980362-8.6173143c-0.2600708-0.2594299-0.4941711-0.5244589-0.5098495-0.9157972
			c2.8685684-0.0198174,5.737175-0.0383329,8.6058121-0.0600691c1.0493546-0.0079346,1.646843,0.4604683,1.8532867,1.5314941
			c0.5313568,2.7568054,1.1158447,5.5034494,1.6874542,8.252408C96.1724777,21.5657806,96.1050415,22.1708984,95.3910522,22.5406342
			z"/>
		<path class="st3" d="M58.5738487,11.3858471c1.3063622,2.3077803,3.4622726,3.8848372,5.0954323,5.9164124
			c1.5600662,1.9406872,3.7832413,3.2876797,5.0368729,5.517952c-1.9262543,0.0075378-3.8524551,0.0150776-5.778923,0.0225945
			c-0.0722847-0.2251301-0.0774193-0.5176258-0.2262344-0.6654053c-2.7221298-2.7029514-5.2823486-5.5716286-8.2158012-8.0588188
			C55.34058,12.4483662,56.7371559,11.5878544,58.5738487,11.3858471z"/>
		<path class="st4" d="M54.4851837,14.1185818c2.9334641,2.4871902,5.4936829,5.3558674,8.2158127,8.0588188
			c0.1488152,0.1477795,0.1539497,0.4402752,0.2262344,0.6654053c-0.4908905,0.0000668-0.9820404,0.0001087-1.4729233,0.0001755
			c-0.1083488-0.1724911-0.2171974-0.1713219-0.3262291-0.0003738c-0.8562355-0.000639-1.7124825-0.0012569-2.5684395-0.0018959
			c-0.8267097-0.4393272-1.654026-0.4367695-2.4816475-0.001852c-0.8586617-0.0008373-1.7173309-0.0016956-2.575676-0.0025578
			c-0.2155609-0.0981808-0.4314461-0.1963844-0.6473274-0.2945671c-0.29813-1.4123917,0.3590355-2.9222641-0.6545372-4.3123264
			c-0.3452568-0.4734726,0.5366135-1.2263012,0.8757439-1.8381634
			C53.5077858,15.6125803,54.0121727,14.8742762,54.4851837,14.1185818z"/>
		<path class="st7" d="M99.3335419,26.1509628c-0.0014572,2.5370312-0.0028915,5.0740852-0.0043716,7.6111374
			c-1.0688629-0.1785965-1.4803314-0.8099213-1.4264832-1.8829117c0.0596771-1.1891804,0.0708084-2.3871803-0.0023117-3.5748405
			C97.8308716,27.175436,98.2730865,26.4812641,99.3335419,26.1509628z"/>
		<path class="st3" d="M56.0779915,22.8388596c0.8276215-0.4349174,1.6549377-0.4374752,2.4816475,0.001852
			C57.732235,22.8400955,56.9051208,22.8394775,56.0779915,22.8388596z"/>
		<path class="st3" d="M52.8549881,22.5417347c0.2158813,0.0981827,0.4317665,0.1963863,0.6473274,0.2945671
			C53.2169647,22.8904858,52.9034157,23.0072498,52.8549881,22.5417347z"/>
		<path class="st3" d="M75.8859482,11.1811285c-0.123558,0.0414209-0.2471313,0.0828409-0.3704681,0.1241722
			C75.639122,11.2638578,75.7625427,11.2224836,75.8859482,11.1811285z"/>
		<path class="st3" d="M61.1280785,22.8425865c0.1090317-0.170927,0.2178802-0.1720963,0.3262291,0.0003948l-0.1632996,0.0536327
			L61.1280785,22.8425865z"/>
		<path class="st4" d="M73.487587,42.4755478c-0.3510437,0.802887-1.0698776,0.6367912-1.7134857,0.637146
			c-7.9436874,0.0042992-15.8873482,0.0062599-23.8310242-0.0013008c-0.633255-0.0005951-1.3659019,0.2040787-1.7257538-0.6070366
			c0.0292625-0.2745934,0.0585175-0.5492134,0.0877571-0.8238297c0.6020508-0.3499413,1.2646561-0.3062935,1.9240799-0.3060303
			c7.7399368,0.0030861,15.479908-0.0051346,23.219799,0.0145493C72.2792969,41.3911629,73.3766479,41.0537872,73.487587,42.4755478
			z"/>
		<path class="st6" d="M46.3050804,41.6805267c-0.0292397,0.2746162-0.0584946,0.5492363-0.0877571,0.8238297
			c-1.9584236-0.0351562-3.9167557-0.0762901-5.8752899-0.1020584c-0.6536217-0.0085983-1.330574,0.0790253-1.6751823-0.6771355
			c0.1654358-0.1437645,0.3308601-0.2875328,0.4964828-0.4313469
			C41.5367813,41.5567055,43.9600029,40.8970795,46.3050804,41.6805267z"/>
		<path class="st8" d="M90.5052032,44.9436951c-0.0999069,0.6113091-0.1807175,1.2321625-0.7947617,1.5857201
			c-0.8520508-0.9126015-1.95327-1.3878822-3.1067886-1.7714386c-0.4327621,1.3384132,0.6796875,2.131649,1.119194,3.161808
			c0.0689316,0.1615601,0.1750717,0.3072472,0.2639923,0.4602699c-0.4927826,0.2919655-0.9629059,0.6537666-1.5946274,0.5181122
			c-0.232605-1.1953316-0.1713638-3.2018661-1.1270828-3.2664757c-1.2009506-0.0812073-0.8273392,1.9193077-1.3483582,2.9277534
			c-0.0515823,0.0998573-0.0351181,0.2348747-0.0502396,0.3535805c-0.6067886,0.0391006-1.0848007-0.2429657-1.5275726-0.6127472
			c0.5090942-0.8767776,1.0259094-1.7490425,1.5220413-2.6328964c0.141655-0.2523994,0.2957764-0.5356789,0.0257187-0.8170662
			c-0.2620926-0.2730751-0.5590439-0.2255898-0.7939835-0.0104256c-0.7516785,0.6883545-1.9035873,0.7547455-2.521553,1.6409378
			c-0.4924316-0.3999786-0.6894531-0.9302139-0.6834106-1.549984c0.9797211-0.2446632,1.9576187-0.4969292,2.9402008-0.7295532
			c0.3132019-0.0741539,0.5895081-0.1848793,0.5942535-0.5419617c0.0047607-0.3579636-0.2759399-0.4957161-0.5815125-0.5679512
			c-0.9795837-0.2315903-1.960144-0.4591675-2.9403381-0.6882858c-0.1237106-0.6270256,0.2418823-1.0863953,0.5380859-1.5693665
			c0.8724136,0.497963,1.7311859,1.0220222,2.6261292,1.4746246c0.2227707,0.1126633,0.5846558,0.0575752,0.8421707-0.0340805
			c0.2907333-0.103405,0.2262802-0.4254189,0.0748596-0.5931053c-0.7105484-0.7869301-0.7579193-2.0162277-1.7516861-2.6070213
			c0.3847961-0.5838203,1.0016937-0.6913261,1.6225128-0.7903442c0.2370987,0.9200745,0.4754791,1.8395081,0.7106857,2.7597351
			c0.078537,0.3072662,0.2179413,0.5775414,0.5698395,0.5837784c0.3416595,0.0060387,0.5580292-0.2446594,0.6328506-0.5392914
			c0.2327805-0.9168358,0.4271851-1.8434563,0.6364822-2.7662621c0.6699524-0.0137138,1.2689972,0.1360321,1.6759872,0.727459
			c-0.922142,0.5224037-1.0872269,1.5434837-1.5286636,2.3723412c-0.2681427,0.5034523-0.015831,1.2233467,0.5318604,0.868515
			c1.0583267-0.6856194,2.2446289-0.0233231,3.241478-0.5933685c0.0601959,0.2320099,0.1203995,0.4640388,0.1802444,0.695961
			c-0.98909-0.0496254-1.843605,0.4293404-2.752655,0.6950302c-0.3041153,0.0888557-0.5833359,0.2181625-0.5830154,0.5705948
			c0.0003357,0.350029,0.2740707,0.4930496,0.5808487,0.57201C88.6676102,44.46698,89.5862961,44.7057343,90.5052032,44.9436951z"/>
		<path class="st9" d="M90.3229675,41.6967049c-0.9968491,0.5700455-2.1831512-0.0922508-3.241478,0.5933685
			c-0.5476913,0.3548317-0.8000031-0.3650627-0.5318604-0.868515c0.4414368-0.8288574,0.6065216-1.8499374,1.5286636-2.3723412
			C89.2733612,39.5531731,90.0091324,40.4461136,90.3229675,41.6967049z"/>
		<path class="st9" d="M79.9003754,42.4030914c0.9801941,0.2291183,1.9607544,0.4566956,2.9403381,0.6882858
			c0.3055725,0.0722351,0.5862732,0.2099876,0.5815125,0.5679512c-0.0047455,0.3570824-0.2810516,0.4678078-0.5942535,0.5419617
			c-0.9825821,0.2326241-1.9604797,0.48489-2.9402008,0.7295532C79.5032349,44.0863113,79.4392242,43.2433891,79.9003754,42.4030914
			z"/>
		<path class="st9" d="M80.5711823,46.4808273c0.6179657-0.8861923,1.7698746-0.9525833,2.521553-1.6409378
			c0.2349396-0.2151642,0.5318909-0.2626495,0.7939835,0.0104256c0.2700577,0.2813873,0.1159363,0.5646667-0.0257187,0.8170662
			c-0.4961319,0.8838539-1.0129471,1.7561188-1.5220413,2.6328964
			C81.5365753,47.9008484,80.8882294,47.3517685,80.5711823,46.4808273z"/>
		<path class="st9" d="M83.8665314,48.9130249c0.0151215-0.1187057-0.0013428-0.2537231,0.0502396-0.3535805
			c0.521019-1.0084457,0.1474075-3.0089607,1.3483582-2.9277534c0.955719,0.0646095,0.8944778,2.0711441,1.1270828,3.2664757
			C85.5531082,49.3758049,84.7103806,49.2421761,83.8665314,48.9130249z"/>
		<path class="st9" d="M86.4023056,38.3217583c-0.2092972,0.9228058-0.4037018,1.8494263-0.6364822,2.7662621
			c-0.0748215,0.294632-0.2911911,0.54533-0.6328506,0.5392914c-0.3518982-0.006237-0.4913025-0.2765121-0.5698395-0.5837784
			c-0.2352066-0.9202271-0.473587-1.8396606-0.7106857-2.7597351
			C84.7066727,38.0138321,85.5579758,37.9361076,86.4023056,38.3217583z"/>
		<path class="st9" d="M90.5052032,44.9436951c-0.9189072-0.2379608-1.8375931-0.4767151-2.756813-0.7133942
			c-0.306778-0.0789604-0.580513-0.221981-0.5808487-0.57201c-0.0003204-0.3524323,0.2789001-0.481739,0.5830154-0.5705948
			c0.90905-0.2656898,1.7635651-0.7446556,2.752655-0.6950302C90.8179321,43.2428589,90.8057861,44.0931892,90.5052032,44.9436951z"
			/>
		<path class="st9" d="M87.9868393,48.3800545c-0.0889206-0.1530228-0.1950607-0.2987099-0.2639923-0.4602699
			c-0.4395065-1.030159-1.5519562-1.8233948-1.119194-3.161808c1.1535187,0.3835564,2.2547379,0.8588371,3.1067886,1.7714386
			C89.4749527,47.462162,88.6766739,47.8705864,87.9868393,48.3800545z"/>
		<path class="st9" d="M82.2299347,39.0741425c0.9937668,0.5907936,1.0411377,1.8200912,1.7516861,2.6070213
			c0.1514206,0.1676865,0.2158737,0.4897003-0.0748596,0.5931053c-0.257515,0.0916557-0.6194,0.1467438-0.8421707,0.0340805
			c-0.8949432-0.4526024-1.7537155-0.9766617-2.6261292-1.4746246
			C80.8709106,40.0794601,81.3595734,39.3824234,82.2299347,39.0741425z"/>
		<path class="st8" d="M30.0598202,38.3248215c0.6852665-0.138588,1.0061092,0.4736938,1.5005531,0.7282715
			c-0.4051361,0.7927094-0.815752,1.5826569-1.2122021,2.3796844c-0.1257038,0.2527084-0.3442211,0.5327072-0.0632668,0.8020325
			c0.2577896,0.2471275,0.5544186,0.1287346,0.8152485-0.0232773c0.8136597-0.4741783,1.6210117-0.9591331,2.4307995-1.4399261
			c1.2258186,1.8319473,1.1670189,4.2148285-0.1431236,5.7907867c-0.4745216-0.842701-1.4465504-0.9930382-2.1475792-1.5232086
			c-0.2710133-0.204937-0.7158432-0.2273979-0.9827652,0.0888824c-0.2249107,0.2665024,0.026207,0.5470314,0.1112423,0.8222847
			c0.2779026,0.8995743,1.2276897,1.5040512,1.1229496,2.5682678c-0.4673862,0.1749802-0.879612,0.5585175-1.4402561,0.3810234
			c0.0674992-1.2783699-0.4316463-2.3763809-1.057724-3.6787758c-0.8999043,1.2200661-1.2184868,2.3594933-1.1048088,3.636097
			c-0.7718754,0.2105598-1.4553356,0.1688309-1.8651352-0.653698c0.8014374-0.5926399,0.8894672-1.6390457,1.4984512-2.3567162
			c0.2336178-0.275322,0.432703-0.5900154,0.0945339-0.931118c-0.3449478-0.3479118-0.6735401-0.0695267-0.9591141,0.0854187
			c-0.8267612,0.4486504-1.6310959,0.9386559-2.4442387,1.4124146c-0.4064274-0.4079323-0.6423683-0.8864975-0.6113319-1.4756813
			c0.9673557-0.2465096,1.9330597-0.4998131,2.9030514-0.7355232c0.3092594-0.0751686,0.579834-0.1922646,0.5837898-0.5423813
			c0.0039463-0.3499413-0.2664394-0.4931564-0.5712681-0.5668716c-0.9676647-0.2340126-1.9356403-0.4668159-2.9034939-0.7000771
			c-0.1160355-0.6086693,0.1819687-1.0738945,0.5276451-1.5225449c0.7423916,0.3845062,1.4750843,0.7893562,2.2308807,1.145134
			c0.4030972,0.1897774,0.8645554,0.6537247,1.2862816,0.1729546c0.3376846-0.3849907-0.0573997-0.8212738-0.2948761-1.1069374
			c-0.5506134-0.6623611-0.5981388-1.4036636-0.545929-2.191452c0.4039574-0.0864334,0.4281616-0.8438034,1.0291004-0.5830536
			c0.0058746,0.235424-0.0019283,0.4727669,0.019783,0.7073555c0.0863132,0.9322662,0.0784874,2.3215981,0.960228,2.4335785
			c1.1042137,0.1402245,0.7085438-1.3605423,1.0950985-2.0848274
			C30.0762424,39.0745659,30.0202503,38.6742096,30.0598202,38.3248215z"/>
		<path class="st9" d="M26.8181343,38.8898849c-0.0522099,0.7877884-0.0046844,1.5290909,0.545929,2.191452
			c0.2374763,0.2856636,0.6325607,0.7219467,0.2948761,1.1069374c-0.4217262,0.4807701-0.8831844,0.0168228-1.2862816-0.1729546
			c-0.7557964-0.3557777-1.4884892-0.7606277-2.2308807-1.145134C24.781723,39.869278,25.372963,38.8025055,26.8181343,38.8898849z"
			/>
		<path class="st9" d="M23.6141319,42.3927307c0.9678535,0.2332611,1.9358292,0.4660645,2.9034939,0.7000771
			c0.3048286,0.0737152,0.5752144,0.2169304,0.5712681,0.5668716c-0.0039558,0.3501167-0.2745304,0.4672127-0.5837898,0.5423813
			c-0.9699917,0.2357101-1.9356956,0.4890137-2.9030514,0.7355232
			C23.2575226,44.0876579,23.1674538,43.2389145,23.6141319,42.3927307z"/>
		<path class="st9" d="M24.2133846,46.4132652c0.8131428-0.4737587,1.6174774-0.9637642,2.4442387-1.4124146
			c0.285574-0.1549454,0.6141663-0.4333305,0.9591141-0.0854187c0.3381691,0.3411026,0.1390839,0.6557961-0.0945339,0.931118
			c-0.608984,0.7176704-0.6970139,1.7640762-1.4984512,2.3567162
			C25.1316509,47.8985138,24.6031017,47.2261009,24.2133846,46.4132652z"/>
		<path class="st9" d="M27.8888874,48.8569641c-0.113678-1.2766037,0.2049046-2.4160309,1.1048088-3.636097
			c0.6260777,1.3023949,1.1252232,2.4004059,1.057724,3.6787758C29.3224869,49.2955017,28.5993919,49.3948288,27.8888874,48.8569641
			z"/>
		<path class="st9" d="M31.4916763,48.5186195c0.1047401-1.0642166-0.845047-1.6686935-1.1229496-2.5682678
			c-0.0850353-0.2752533-0.336153-0.5557823-0.1112423-0.8222847c0.266922-0.3162804,0.7117519-0.2938194,0.9827652-0.0888824
			c0.7010288,0.5301704,1.6730576,0.6805077,2.1475792,1.5232086C33.1751289,47.621273,32.2517815,47.9907913,31.4916763,48.5186195
			z"/>
		<path class="st9" d="M33.5309525,40.7716064c-0.8097878,0.480793-1.6171398,0.9657478-2.4307995,1.4399261
			c-0.2608299,0.1520119-0.5574589,0.2704048-0.8152485,0.0232773c-0.2809544-0.2693253-0.0624371-0.549324,0.0632668-0.8020325
			c0.39645-0.7970276,0.807066-1.5869751,1.2122021-2.3796844C32.6264191,39.1567459,33.133831,39.9009514,33.5309525,40.7716064z"
			/>
		<path class="st9" d="M30.0598202,38.3248215c-0.0395699,0.3493881,0.0164223,0.7497444-0.137476,1.0381165
			c-0.3865547,0.7242851,0.0091152,2.2250519-1.0950985,2.0848274c-0.8817406-0.1119804-0.8739147-1.5013123-0.960228-2.4335785
			c-0.0217113-0.2345886-0.0139084-0.4719315-0.019783-0.7073555
			C28.5871811,37.9962387,29.3253059,37.9297562,30.0598202,38.3248215z"/>
	</g>
</g>
</svg>
