<?xml version="1.0" encoding="utf-8"?>
<!-- Generator: Adobe Illustrator 25.4.1, SVG Export Plug-In . SVG Version: 6.00 Build 0)  -->
<svg version="1.1" id="Layer_1" xmlns="http://www.w3.org/2000/svg" xmlns:xlink="http://www.w3.org/1999/xlink" x="0px" y="0px"
	 width="120px" height="56px" viewBox="0 0 120 56" style="enable-background:new 0 0 120 56;" xml:space="preserve">
<style type="text/css">
	.st0{fill:url(#SVGID_1_);}
	.st1{fill:#BDCCD4;stroke:#726A63;stroke-width:0.25;stroke-miterlimit:10;}
	.st2{fill:#C5C9CC;}
	.st3{fill:#BDCCD4;}
	.st4{fill:#303940;}
	.st5{fill:#B1B4B8;}
	.st6{fill:#0A212B;}
	.st7{fill:#FBD404;}
	.st8{fill:#9DADF4;}
	.st9{fill:#FEFEFE;}
	.st10{fill:#797A7D;}
	.st11{fill:#E0E2E2;}
	.st12{fill:#8D7C62;}
	.st13{fill:#5E6265;}
</style>
<g>
	
		<radialGradient id="SVGID_1_" cx="-451.0890198" cy="51.9052238" r="17.4333878" gradientTransform="matrix(2.1501911 0 0 1 1029.9274902 0)" gradientUnits="userSpaceOnUse">
		<stop  offset="0" style="stop-color:#B3B3B3"/>
		<stop  offset="1" style="stop-color:#726A63;stop-opacity:0.8"/>
	</radialGradient>
	<ellipse class="st0" cx="60" cy="51.9052238" rx="52.883049" ry="1.7182807"/>
	<g>
		<path class="st1" d="M22.2597294,8.3257542c0.0102139-0.5611916,0.2024918-1.0314212,0.6792088-1.3595405
			c0.6503716,0.1377645,1.0584373,1.4383655,1.8280487,0.6470861c1.5358353-1.5790539,3.4945583-2.3573761,5.4076805-3.254878
			c2.1590309-0.2242603,4.3176422-0.6390555,6.4771309-0.6435015c23.0052834-0.0473635,46.010685-0.0350668,69.0160675-0.0216689
			c2.381485,0.0013816,3.2053299,0.9003255,3.2053299,3.3119943c-0.0000381,10.4917488-0.0041275,20.9834957-0.0067062,31.4752426
			c-1.7379456,0.3296242-3.4684448,0.7129555-5.2500076,0.7281151c-0.6055756-1.4629555-2.6512527-2.7162971-4.6951065-2.7106895
			c1.290184,0.8351593,2.5158844,1.4706917,3.0184174,2.8127861c-1.2086792,0.0623245-2.4173584,0.1246681-3.6256943,0.1870308
			l0.0527725-0.106842c0.6113968-0.5817184,0.602066-1.0694504-0.2183151-1.4322968
			c-2.4741135-1.0942841-4.9260941-1.142971-7.3823853,0.0889587c-0.728775,0.3655281-1.0712128,0.7047043-0.2865982,1.3418159
			l0.0355225,0.1066437c-0.592453-0.0422974-1.1847458-0.1184196-1.7773972-0.121624
			c-5.4404221-0.02948-10.880928-0.0463028-16.3213959-0.0667686c0.0085297-0.5220985,0.0170441-1.04422,0.0255737-1.5663567
			c2.2936707-0.0128784,4.5942764-0.1411896,6.8789902-0.0044861c2.0748215,0.1241264,3.7841263-0.3303833,5.3769836-1.7471008
			c1.5839157-1.4087257,3.5571442-2.3904381,5.0896759-3.8440666c3.6467209-3.4588509,7.8569565-4.8669968,12.8116074-4.1540813
			c2.1002579,0.3021851,3.0234146-1.3664894,4.6561966-2.6023846c-3.6070709,0-6.7843399,0.1505013-9.9384232-0.0551338
			c-1.9649734-0.1281109-3.550499,0.5709038-4.8689194,1.6934872c-3.1289749,2.6642075-6.6570587,4.7498398-9.9268951,7.2017841
			c-0.5750122,0.4311752-1.1527863,0.7762985-1.9290848,0.7624588c-2.7289276-0.0487251-5.458725-0.050087-8.188179-0.0694313
			c0-6.6188831,0-13.2377663,0-19.8566666c-0.1954651,0.0018425-0.3909073,0.003665-0.5863647,0.0054874
			c0,6.6165991,0,13.2331991,0,19.8498001c-5.161293-0.0037079-10.3225632-0.007412-15.4838753-0.011116
			c0.0106544-6.6852322,0.0213089-13.3704624,0.0319023-20.0557327c0.3124199-0.125268,0.5290909-0.345623,0.6533165-0.6578207
			c4.5803528,0,9.1607018,0,13.7410622,0c-4.400856-0.3200293-8.8000259-0.3238144-13.1991158-0.3066511
			c-0.1819229,0.000701-0.3630676,0.1978245-0.5445709,0.3034468c-0.4335213,0.0021429-0.6504707,0.2225981-0.6586418,0.6534948
			c-0.4587936,0.3761635-0.3151817,0.9013062-0.3152008,1.3747606c-0.0004616,6.2288609,0.0100746,12.4577007,0.0178452,18.6865616
			c-2.9454041,0.0354652-5.890831,0.0709534-8.8359337,0.1058617c-0.519413-0.5478134-0.3574181-1.2335739-0.3582001-1.8742714
			c-0.0074272-6.1231174,0.0068512-12.2462559-0.0183029-18.3692741c-0.0023422-0.5712652,0.3607216-1.3931856-0.6559792-1.5857029
			c-0.2585449-0.3605633-0.6400566-0.2850218-1.0010605-0.2822781c-5.126545-0.0087118-10.2550697-0.1073236-15.3789711,0.0046062
			C26.2339897,12.984952,23.5282478,11.9145794,22.2597294,8.3257542z M97.0689163,21.2918949
			c3.2109985,0.3028259,3.2449417,0.2733459,3.2457047-2.8465118c0.0001984-0.8174343-0.0204697-1.6353283,0.0008392-2.4521627
			c0.0270767-1.0374889-0.463356-1.4766769-1.4897156-1.4631195c-3.9748764,0.0525112-7.9501038,0.080308-11.9251862,0.1173573
			c-0.2336121-0.0024033-0.4672012-0.0048065-0.7008133-0.0072098c-3.9015884-0.3979921-3.9014282-0.3979921-3.9001846,3.4955816
			c0.0002213,0.6554966,0.0072708,1.3111744-0.0048294,1.9664726c-0.0164185,0.8906517,0.418045,1.2956753,1.2997055,1.2878838
			c4.2580948-0.0377102,8.5162582-0.0669289,12.7744217-0.0991726
			C96.6020508,21.425354,96.8354034,21.4262943,97.0689163,21.2918949z M72.5838318,8.3007402
			c10.9262085,0,21.8524399,0.0035048,32.7786255-0.0090322c0.6332092-0.000741,1.5110092,0.324255,1.4721146-0.9053917
			c-0.0306854-0.9700189-0.4062042-1.5677795-1.4082489-1.6561375c-0.379425-0.0334449-0.7642822-0.0052271-1.1466751-0.0052271
			C83.5744705,5.7246714,62.8692818,5.7242708,42.1641006,5.7243309c-0.6555176,0-1.3110771,0.0010614-1.9665527,0.0073295
			c-1.2707634,0.0121765-1.765686,0.9649124-1.7548904,1.924437c0.0123177,1.0939846,1.0943871,0.6194096,1.6903648,0.6211519
			C50.9499054,8.308691,61.7668686,8.3001595,72.5838318,8.3007402z M64.2644348,14.8492489
			c-1.9112625,0-3.8236237,0.0393124-5.7333412-0.01474c-1.1463318-0.032423-1.5559425,0.4455366-1.527504,1.558527
			c0.0501671,1.9646301,0.1188393,3.9383526-0.01474,5.8950138c-0.1037598,1.520155,0.4907379,1.8096218,1.8730469,1.7890339
			c3.8174133-0.0569363,7.6391106-0.0197258,11.4545403,0.1122513c0.9885254,0.0341854,0.7956848-0.4902172,0.800209-0.9801521
			c0.0217667-2.3479443-0.0210266-4.6969299,0.032341-7.0438919c0.0224533-0.9872017-0.3048859-1.3652277-1.3151779-1.3324842
			C67.979126,14.8929472,66.1210785,14.8499699,64.2644348,14.8492489z M78.0080566,25.3722992c0-0.0033245,0-0.00667,0-0.0099945
			c-0.9289246,0-1.8579102-0.0049057-2.7867737,0.0026035c-0.3377304,0.0027237-0.6996384,0.0557957-0.7091675,0.4851093
			c-0.0071335,0.3215714,0.2739029,0.4575138,0.5654373,0.4585342c1.8576279,0.0064888,3.7153549,0.0048466,5.5729752-0.0054073
			c0.2938766-0.0016212,0.5566101-0.1451149,0.5495605-0.4705505c-0.0070496-0.3246746-0.2783966-0.4521236-0.5693665-0.456049
			C79.7566376,25.364769,78.8823013,25.3722992,78.0080566,25.3722992z M74.6480179,28.4574089
			c0.0008163,0.1104279,0.0016403,0.2208366,0.0024414,0.3312645c2.4658432,0,4.9316635,0,7.3975067,0
			c-0.0013275-0.1104279-0.0026703-0.2208366-0.0039902-0.3312645
			C79.5786591,28.4574089,77.1133347,28.4574089,74.6480179,28.4574089z M81.714798,27.496542
			c-0.0009842-0.1107082-0.0019455-0.2214165-0.0029221-0.3321247c-2.3594589,0-4.7189407,0-7.0783997,0
			c0.0018616,0.1107082,0.0037003,0.2214165,0.0055695,0.3321247C76.9976196,27.496542,79.3562164,27.496542,81.714798,27.496542z
			 M81.061821,24.5387821c-0.0006409-0.1101875-0.0012817-0.2203941-0.0019226-0.3305817c-2.1404419,0-4.2808914,0-6.4213333,0
			c0.0013351,0.1101875,0.0026779,0.2203941,0.0040436,0.3305817C76.7823334,24.5387821,78.922081,24.5387821,81.061821,24.5387821z
			 M58.8205643,27.2683163c0,1.4821663,0,2.9643097,0,4.446455c0.1425476-0.0054684,0.28508-0.0109558,0.4276314-0.0164223
			C59.4021225,30.2250957,59.4536095,28.753046,58.8205643,27.2683163z"/>
		<path class="st1" d="M11.0663624,29.8665962c1.408906-1.3777847,3.3087902-1.8225002,5.0505428-2.477478
			c2.7437534-1.0318012,5.1448879-2.482563,7.1969757-4.5648918c0.4337807-0.4402084,0.8037567-1.0605202,1.5559826-1.0770226
			c0.2492352,0.3500099,0.4985085,0.7000179,0.7477627,1.0500469c-0.0073299,0.9575214-0.0146198,1.9150448-0.0219307,2.8725452
			c-0.5326519,0.3414173-1.1195793,0.4023991-1.7313385,0.3351688l0.0001202-0.019886
			c0.0489655-0.4973259,0.1438332-1.0016003-0.1903744-1.7270527c-0.4675255,0.7789841-1.3334846,0.8644981-1.386776,1.7219658
			c-0.4882545,0.5024929-1.5905895,0.0274372-1.7292957,1.0863552c-0.5898705,2.4686451-0.1445541,4.9730167-0.2513771,7.4584446
			c-0.0208683,0.4855728,0.3119774,0.6624069,0.75457,0.6482697c1.6021252-0.0511093,3.1973019,0.0682526,4.7920761,0.2732658
			c-0.5244408-0.387558-1.0814075-0.540062-1.6934071-0.5739899c-3.671917-0.2034721-3.6715164-0.2107201-3.5566216-3.9461021
			c0.5693226,0.0499859,0.7290554-0.7591362,1.3334045-0.6356907c0.1025372,0.9750252,0.8682442,0.6547565,1.3921852,0.6564579
			c6.2862968,0.0202675,12.5726738,0.0181637,18.8590126,0.0050468c0.5033531-0.0010414,1.1388245,0.2192745,1.3847313-0.520998
			c0.3694763-0.305748,0.6354103,0.0482655,0.9412804,0.1477375c0.0084724,2.5064583-0.0292969,5.0143356,0.0466042,7.5187492
			c0.0337029,1.1118469-0.3991547,1.3788261-1.431797,1.3651657c-3.6510887-0.0483437-7.303299-0.0030823-10.9549294-0.0223503
			c-1.6652699-0.0087891-3.2214737-0.1751137-4.3839092-1.7169762c-0.5870266-0.7786636-1.6004028-1.3110352-3.1299915-1.0764236
			c1.0001793,0.7873764,1.6802502,1.3046265,2.3365498,1.8504791c0.1964016,0.1633377,0.43396,0.3757439,0.3144608,0.6863174
			c-0.1270905,0.330204-0.4512444,0.2446098-0.7069263,0.2547035c-0.924799,0.0364685-1.8502979,0.0554733-2.7755165,0.080986
			c-2.4838657-1.2336121-4.9687328-1.2223167-7.4545612-0.0060463c-0.3830338-0.2352943-0.7664871-0.2119637-1.2197533-0.176918
			c-2.2517757,0.174015-4.5101395,0.1926384-6.7647381-0.0086517c-0.5503569-2.2941895-0.3055286-4.3993683,1.4599152-6.1433868
			c1.3521099,0.0315247,2.7043209,0.066391,4.0566711,0.0942078c1.1802607,0.0242538,1.6803904-0.6767654,1.6717186-1.7380676
			c-0.0089121-1.092001-0.5856247-1.6870174-1.7483807-1.6509895
			C12.9094496,29.9180851,11.9874153,29.8768501,11.0663624,29.8665962z M11.1499138,36.8346672
			c0-0.0030251,0-0.0060692,0-0.0090942c0.5415049,0,1.0830297,0.0003815,1.6245356-0.0001183
			c0.4684868-0.0004234,0.9086161-0.08255,0.8983421-0.6735611c-0.0105333-0.6056709,0.5503569-1.4418716-0.2277451-1.7686691
			c-1.1835241-0.4971466-2.4732313-0.8891907-3.6869764,0.0583382c-0.6571999,0.5130272-0.9841576,1.288826-0.822401,1.991066
			c0.1698675,0.737606,1.0200462,0.2971153,1.5655365,0.3958702C10.7109261,36.8664703,10.9333038,36.8346672,11.1499138,36.8346672
			z"/>
		<path class="st2" d="M108.8664932,38.4804878c0.0025787-10.4917469,0.0066681-20.9834938,0.0067062-31.4752426
			c0-2.4116688-0.8238449-3.3106127-3.2053299-3.3119943c-23.0053864-0.0133979-46.010788-0.0256946-69.0160675,0.0216689
			c-2.1594887,0.004446-4.3181,0.4192412-6.4771519,0.6435015c-0.1506405-0.2564034-0.3012829-0.5128264-0.4519253-0.7692499
			c1.4123726-1.0865548,3.1091843-1.1643391,4.7551689-1.1699264c12.8496246-0.0436785,25.6994095-0.035728,38.5491562-0.0398133
			c10.9359818-0.0034647,21.8719406-0.0040255,32.80793-0.0008211c3.3066025,0.0009613,4.6335602,1.3464427,4.6353836,4.7009945
			c0.0048828,8.9128132,0.0166779,17.8256874-0.0116196,26.7384224c-0.0046616,1.4622383-0.0836487,2.8950768,1.0271759,4.0527039
			C110.6719894,38.3283043,109.7939301,38.5105095,108.8664932,38.4804878z"/>
		<path class="st1" d="M23.8284302,39.5195198c0.9252186-0.0255928,1.8507175-0.0445976,2.7755165-0.0810661
			c0.255682-0.0100937,0.5798359,0.0755005,0.7069263-0.2547035c0.1194992-0.3105736-0.1180592-0.5229797-0.3144608-0.6863174
			c-0.6562996-0.5458527-1.3363705-1.0631027-2.3365498-1.8504791c1.5295887-0.2346115,2.5429649,0.29776,3.1299915,1.0764236
			c1.1624355,1.5418625,2.7186394,1.7081871,4.3839092,1.7169762c3.6516304,0.019268,7.3038406-0.0259933,10.9549294,0.0223503
			c1.0326424,0.0136604,1.4654999-0.2533188,1.431797-1.3651657c-0.075901-2.5044136-0.0381317-5.012291-0.046402-7.5186081
			c-0.1419296-1.5541,0.5408249-3.1731892-0.3666115-4.6672897c0.0072708-2.7718105,0.0213089-5.543623,0.0149384-8.3153934
			c-0.0010185-0.4489403,0.1774406-1.1143112-0.5895462-1.0927639c-3.3003998,0.0926647-6.6154594-0.3483448-9.9015999,0.26087
			c-1.1521606,0.2345333-2.1543045,0.7304573-2.9039478,1.6664314c-1.7165585,1.4554691-3.4331169,2.9109573-5.1496754,4.3664455
			c-0.2492733-0.350008-0.4985466-0.700016-0.7477818-1.0500259c0.1119499-0.1061211,0.2238998-0.2122631,0.3357906-0.3184662
			c1.2506733-0.0984116,1.9132214-0.872448,2.2807541-1.9854183c0.2298679-0.2081375,0.459734-0.416296,0.6894417-0.6245956
			c0.9196529-0.0028248,1.4898148-0.4103489,1.5844822-1.3685131c0.117918-0.0999928,0.235836-0.1999874,0.353754-0.3000011
			c1.3980312-0.2816372,2.5663757-1.0101318,3.6610832-1.8818998c0.0878143-0.0271759,0.1679039-0.0691128,0.2402992-0.1257687
			c0.555584,0.4654036,1.2244186,0.38097,1.8735504,0.3815308c2.2873001,0.0019827,4.5746231-0.000721,6.861927-0.0003405
			c2.1444931,0.0003605,2.1475143,0.0010815,2.148098,2.0739574c0.0018425,6.6440964-0.0083122,13.2882328,0.0185623,19.93223
			c0.0023041,0.5684395-0.3873787,1.3746796,0.5955772,1.6205063l0.0028839,0.0004616
			c-0.0023613,0.1065025,0.0033035,0.2125435,0.0170441,0.3181686c0.0065079,1.7574501,0.0130157,3.514904,0.0194244,5.2722588
			c-5.0021553,0.0114136-10.0041733,0.0207863-15.0062122,0.0369263c-0.6879597,0.002224-1.477417-0.171566-1.6949883,0.8190804
			c-0.4511852-0.0983124-0.9798126,0.2516136-1.3638058-0.2356377c-0.1204624-0.10466-0.2409229-0.2093201-0.3613853-0.3139801
			l0.0181446,0.0402527C27.3303585,42.462841,25.5406418,41.0142632,23.8284302,39.5195198z"/>
		<path class="st3" d="M108.8664932,38.4804878c0.9274368,0.0300217,1.8054962-0.1521835,2.6194229-0.6097565
			c0.6440048,1.8922768,0.3136063,3.8272247,0.1967468,5.7420311c-0.0321808,0.5270462-0.5061188,1.0041237-1.0306244,1.1941566
			c-2.9325256,1.0624428-5.9070892,1.9794731-9.0175476,2.3719788c0.2360153-1.9538994,0.0148163-3.8248444-1.2196121-5.4264259
			c-0.6244202-0.8101463-1.3960495-1.5067978-2.10112-2.2547798c1.2086792-0.0623245,2.4173584-0.1246681,3.6260147-0.1869125
			c0.5662842,0.0868988,1.1336594,0.1917381,1.676712-0.1021767
			C105.3980484,39.1934433,107.1285477,38.810112,108.8664932,38.4804878z"/>
		<path class="st4" d="M23.5199566,51.2698746c-2.2749462,1.1057205-4.5391979,1.259346-6.7866879-0.0763245
			c-2.3849125-1.6958694-3.0469189-4.0687447-2.6887789-6.8424988c1.786932-4.3632851,6.6126337-5.8233566,9.9034395-3.0764008
			c1.0260544,0.8564682,1.7036209,1.9345322,2.2321281,3.1319923C26.582798,47.1941566,25.6970921,49.4822807,23.5199566,51.2698746
			z M23.8227825,45.0292168c-0.046402-0.436264-0.1353416-0.8507576-0.5596695-1.0936241
			c-0.2192535-0.7018585-0.7570934-1.0911598-1.3752022-1.4017563c-0.313118-0.0976906-0.6262379-0.1953812-0.9393768-0.2930527
			c-0.5603104-0.168705-1.1188984-0.2333107-1.6721592,0.0274582c-0.3973923-0.017643-0.7421741,0.1106491-1.0381508,0.3743019
			c-0.5970592,0.2731247-1.1219215,0.6175652-1.2939911,1.3103714c-0.4219055,0.2364578-0.5086021,0.6491699-0.5663185,1.0771255
			c-0.155529,0.7057419-0.1702881,1.4077415,0.0557747,2.1033745c0.1111488,0.3450012,0.1298141,0.7426529,0.5265236,0.9251404
			c0.1818447,0.6850967,0.6924477,1.044075,1.2981796,1.308712c0.2878056,0.2742844,0.6306229,0.369072,1.019825,0.3125381
			c0.5497952,0.3278999,1.1007538,0.3251762,1.652792,0.0057259c0.3850174,0.0506096,0.7305393-0.0309601,1.0187244-0.3044281
			c0.5780754-0.2972755,1.1122093-0.6378937,1.3010826-1.3190651c0.399334-0.1811218,0.4375267-0.5635948,0.5152302-0.924057
			C24.0005798,46.4408684,23.9694786,45.7365837,23.8227825,45.0292168z"/>
		<path class="st4" d="M98.0571594,50.9861755c-2.4860687,1.6494255-4.959343,1.5140457-7.4223557-0.0532913
			c-1.3258972-1.151722-2.0856171-2.6223526-2.4356842-4.3237305c-0.0497055-0.9444466,0.268837-1.8199387,0.5492172-2.6921234
			c0.7748184-2.4101868,3.4092407-4.2436829,5.8546371-4.117012c2.7952652,0.1448135,5.2103577,2.1041565,5.6727142,4.760952
			c0.1184616,0.6807137,0.3897629,1.207859,0.719162,1.7557907c-0.716301,0.0967712-0.4872894,0.7376099-0.588028,1.1293335
			C100.0300827,48.9108162,99.2128067,50.0535469,98.0571594,50.9861755z M95.1213074,49.6768608
			c0.5189133,0.1855087,0.9014282-0.0647278,1.2591248-0.3941879c0.580658-0.2885475,1.0394135-0.6985741,1.3009033-1.3052254
			c0.3520279-0.3496284,0.5960388-0.7360458,0.4299164-1.2621727c0.2751846-0.4597359,0.2699814-0.9219131,0.0120544-1.3862953
			c0.1291733-0.6483879-0.0902176-1.1396866-0.663269-1.4715919c-0.1154327-0.5996208-0.5706253-0.8796959-1.060318-1.127327
			c-1.317482-0.8704071-2.6370087-0.8259659-3.9582596-0.008831c-0.6053543,0.2743874-1.0545731,0.7039413-1.3139191,1.3221703
			c-0.3588181,0.3581963-0.5451508,0.7725143-0.419281,1.2884445c-0.2472916,0.4621773-0.2537842,0.9228134,0.0087738,1.3817482
			c-0.1358032,0.5216599,0.0741348,0.9223175,0.4435272,1.2671585c0.2617722,0.6079941,0.7232285,1.0162582,1.3047943,1.3043861
			c0.3582382,0.3305626,0.7447739,0.5708046,1.2615891,0.3953094
			C94.1925049,49.9778023,94.6572876,49.9752808,95.1213074,49.6768608z"/>
		<path class="st5" d="M22.2597294,8.3257542c1.2685184,3.5888252,3.9742603,4.6591978,7.5520115,4.5810537
			c5.1239014-0.1119299,10.2524261-0.0133181,15.3791122-0.0047865c-0.0091934,0.4555302-0.0185051,0.9112597-0.0278168,1.3669701
			c-3.8379593-0.0263548-7.6759186-0.0527306-11.5138779-0.0791054c-2.1181355,0.0055676-4.2389755,0.0813885-6.3537273-0.0003204
			C24.3998947,14.0776758,21.5614338,12.3320379,22.2597294,8.3257542z"/>
		<path class="st1" d="M8.3893776,39.3278236c2.2545986,0.2012901,4.5129623,0.1826668,6.7647381,0.0086517
			c0.4532661-0.0350456,0.8367195-0.0583763,1.2197533,0.176857c-2.0183029,1.4499817-3.3093719,3.3541908-3.6531916,5.8499146
			c-1.8061991,0.4687843-3.078783-0.1000366-3.9087143-1.788456C8.1451502,42.2182961,8.0532875,40.7909851,8.3893776,39.3278236z"
			/>
		<path class="st6" d="M100.9948502,46.316761c-0.3293991-0.5479317-0.6007004-1.0750771-0.719162-1.7557907
			c-0.4623566-2.6567955-2.877449-4.6161385-5.6727142-4.760952c-2.4453964-0.1266708-5.0798187,1.7068253-5.8546371,4.117012
			c-0.2803802,0.8721848-0.5989227,1.7476768-0.5492401,2.6921043c-0.3321457,0.2450066-0.6642838,0.489994-0.9964142,0.7350235
			c-0.2272186-2.0625839-0.0340042-4.0430527,1.316246-5.7268295c0.6055527-0.7550888,1.3271942-1.4170761,1.9961548-2.1213188
			l-0.0357132-0.1066437c1.7463379-0.2063942,3.3770065-1.1168137,5.2466049-0.6708794
			c0.883728,0.2108231,1.669136,0.8300743,2.6408997,0.6724014l-0.0527725,0.106842
			c0.7047272,0.7479439,1.4763565,1.4445953,2.1007767,2.2547417c1.2344284,1.6015816,1.4556274,3.4725266,1.2196121,5.4264259
			C101.2867661,46.9914055,101.1209183,46.6688347,100.9948502,46.316761z"/>
		<path class="st6" d="M12.7206774,45.3632469c0.3438196-2.4957237,1.6348886-4.3999329,3.6531916-5.8499146
			c2.4858284-1.2162094,4.9706955-1.2275047,7.4545612,0.0061073c1.7122116,1.4948235,3.5019283,2.9434013,3.3158798,5.5684776
			c-0.3214302-0.2271042-0.6428604-0.4541893-0.9642715-0.6812744c-0.5284882-1.1974602-1.2060547-2.2755241-2.2321091-3.1319923
			c-3.2908058-2.7469559-8.1165075-1.2868843-9.9034395,3.0764008
			C13.5178843,44.5768509,13.3537645,45.2767296,12.7206774,45.3632469z"/>
		<path class="st5" d="M45.5130043,39.150547c-0.9827766-0.2459488-0.5930939-1.0521889-0.5953979-1.6206284
			c-0.0268745-6.6439972-0.0167198-13.2881336-0.0185623-19.93223c-0.0005836-2.072876-0.0036049-2.073597-2.148098-2.0739574
			c-2.2873039-0.0003805-4.5746269,0.0023232-6.861927,0.0003405c-0.6491318-0.0005608-1.3179665,0.0838728-1.8735504-0.3815308
			c-0.0363274-0.0653467-0.0378685-0.1314754-0.0046844-0.1984053c3.7404289-0.0141993,7.480854-0.0283985,11.221283-0.0425968
			c0.27491,0.4314375,0.3153038,0.9080954,0.3142624,1.4076653C45.530426,23.9229774,45.5226784,31.5367718,45.5130043,39.150547z"
			/>
		<path class="st7" d="M11.0663624,29.8665962c0.9210529,0.0102539,1.8430872,0.0514889,2.7629395,0.0229912
			c1.162756-0.0360279,1.7394686,0.5589886,1.7483807,1.6509895c0.0086718,1.0613022-0.4914579,1.7623215-1.6717186,1.7380676
			c-1.3523502-0.0278168-2.7045612-0.0626831-4.0566711-0.0942078
			C9.8372965,31.9254532,10.1116037,30.7712269,11.0663624,29.8665962z"/>
		<path class="st6" d="M29.7227211,3.5891719c0.1506424,0.2564235,0.3012848,0.5128465,0.4519253,0.7692499
			c-1.9131012,0.8975019-3.8718243,1.6758242-5.4076595,3.254878c-0.7696114,0.7912793-1.1776772-0.5093217-1.8280487-0.6470861
			C24.47155,4.7920423,27.8640537,3.1032212,29.7227211,3.5891719z"/>
		<path class="st4" d="M45.232048,14.9015388c-3.7404099,0.0141983-7.480835,0.0283976-11.2212639,0.0425968
			c-0.2826576-0.1736727-0.3623276-0.4446955-0.3616066-0.7542496c3.8379402,0.0263748,7.6758995,0.0527506,11.5138588,0.0791054
			C45.1860466,14.4798336,45.2090569,14.6906767,45.232048,14.9015388z"/>
		<path class="st5" d="M33.7751694,15.2683096c-1.0947075,0.871768-2.263052,1.6002626-3.6610832,1.8818998
			C31.0126896,15.8969717,32.3054199,15.4104404,33.7751694,15.2683096z"/>
		<path class="st5" d="M27.4864082,19.4433193c-0.3675327,1.1129704-1.0300808,1.8870068-2.2807541,1.9854183
			C25.7970448,20.5729733,26.4314747,19.7666321,27.4864082,19.4433193z"/>
		<path class="st5" d="M29.760313,17.4501915c-0.0946484,0.9581833-0.6648102,1.3657074-1.5844631,1.3685322
			C28.4970207,18.1229324,29.0164566,17.6566677,29.760313,17.4501915z"/>
		<path class="st3" d="M90.5150833,39.4960098c-0.6689606,0.7042427-1.3906021,1.36623-1.9961548,2.1213188
			c-1.3502502,1.6837769-1.5434647,3.6642456-1.3162003,5.7268295c-0.4566574,0.4565506-1.0319214,0.2289658-1.5478134,0.2332726
			c-4.1879501,0.0349045-8.3761368,0.0413132-12.5642624,0.0563965c-0.0962143-0.8031578-0.6662369-0.8808212-1.3126984-0.8800201
			c-4.9034271,0.0060081-9.8068733,0.0079117-14.7103004,0.0025253c-0.6408958-0.000721-1.2185097,0.0519676-1.3544922,0.8413239
			c-2.2732849-0.0062866-4.550972,0.0679321-6.8178673-0.0556526c-1.0090332-0.0549965-2.32938,0.1727295-2.7393494-1.3012428
			c-0.0161629-0.5741882,0.1586723-1.2252426-0.6032867-1.4993477c-0.0065308-1.7574539-0.0130386-3.5149078-0.0195465-5.2723999
			c0.4542084-0.0432396,0.9083977-0.0864563,1.362484-0.1295319c8.3025169-0.0107155,16.605114-0.0215492,24.9077339-0.0323639
			l0.0037994,0.147316c0.0766068,1.4520454-0.1959229,2.9284019,0.1632996,4.3607597
			c0.1484604,0.0018806,0.2968979,0.003746,0.4453354,0.0056267c0-1.4552078,0-2.9104385,0-4.3656464l0.0005417-0.1476173
			c5.4404678,0.0205269,10.8809738,0.0373497,16.3213959,0.0668297
			C89.3303528,39.3775902,89.9226456,39.4537125,90.5150833,39.4960098z M56.8981094,44.5891495
			c-0.000042,0.0868759-0.0000801,0.1737518-0.0001221,0.2606277c4.8928108,0,9.7856216,0,14.6784363,0
			c0.0000381-0.0868759,0.0000763-0.1737518,0.0001221-0.2606277
			C66.6837311,44.5891495,61.7909203,44.5891495,56.8981094,44.5891495z"/>
		<path class="st3" d="M72.5838318,8.3004398C61.7668686,8.3001595,50.9499054,8.308691,40.1330223,8.2772493
			c-0.5959778-0.0017424-1.6780472,0.4728327-1.6903648-0.6211519c-0.0107956-0.9595246,0.484127-1.9122605,1.7548904-1.924437
			c0.6554756-0.006268,1.3110352-0.0073295,1.9665527-0.0073295c20.7051811-0.0000601,41.4103699,0.0003405,62.1155472,0.0006208
			c0.3823929,0,0.7672501-0.0282178,1.1466751,0.0052271c1.0020447,0.0883579,1.3775635,0.6861186,1.4082489,1.6561375
			c0.0388947,1.2296467-0.8389053,0.9046507-1.4721146,0.9053917C94.4362717,8.304245,83.5100403,8.3007402,72.5838318,8.3004398z"
			/>
		<path class="st8" d="M72.4038315,34.9223061c2.729454,0.0193443,5.4592514,0.0207062,8.188179,0.0694313
			c0.7762985,0.0138397,1.3540726-0.3312836,1.9290848-0.7624588c3.2698364-2.4519444,6.7979202-4.5375767,9.9268951-7.2017841
			c1.3184204-1.1225834,2.9039459-1.8215981,4.8689194-1.6934872c3.1540833,0.2056351,6.3313522,0.0551338,9.9384232,0.0551338
			c-1.632782,1.2358952-2.5559387,2.9045696-4.6561966,2.6023846c-4.9546509-0.7129154-9.1648865,0.6952305-12.8116074,4.1540813
			c-1.5325317,1.4536285-3.5057602,2.4353409-5.0896759,3.8440666c-1.5928574,1.4167175-3.3021622,1.8712273-5.3769836,1.7471008
			c-2.2847137-0.1367035-4.5853195-0.0083923-6.8788681,0.0045662c-0.2238235-0.2721062-0.4486389-0.2509575-0.674202-0.0020027
			c-5.1333923,0.0027428-10.2667885,0.0054474-15.4001808,0.0081711c-0.1117706-0.1717911-0.2253036-0.1745949-0.3406372-0.0035667
			c-3.0574341-0.023571-6.1148872-0.047123-9.1723213-0.070694c0.229847-0.8714676-0.2553825-1.8422661,0.3692741-2.6589394
			c2.9454231-0.0354881,5.8908501-0.0709763,8.8360939-0.1065025c-0.0001831-0.000061,0.1365013,0.0282593,0.1365013,0.0282593
			l0.137085-0.0262566c5.1612892,0.0037041,10.3225594,0.0074081,15.4836311,0.010994
			C72.0126038,34.9212036,72.2082291,34.9217644,72.4038315,34.9223061z"/>
		<path class="st9" d="M64.2644348,14.8496094c1.8566437,0.0003605,3.7146912,0.0433378,5.5693741-0.0168028
			c1.0102921-0.0327435,1.3376312,0.3452826,1.3151779,1.3324842c-0.0533676,2.346962-0.0105743,4.6959476-0.032341,7.0438919
			c-0.0045242,0.4899349,0.1883163,1.0143375-0.800209,0.9801521c-3.8154297-0.1319771-7.6371269-0.1691875-11.4545403-0.1122513
			c-1.382309,0.0205879-1.9768066-0.2688789-1.8730469-1.7890339c0.1335793-1.9566612,0.0649071-3.9303837,0.01474-5.8950138
			c-0.0284386-1.1129904,0.3811722-1.59095,1.527504-1.558527C60.4408112,14.8885612,62.3531723,14.8492489,64.2644348,14.8496094z"
			/>
		<path class="st6" d="M96.3688354,21.2910137c-4.2581406,0.0322437-8.516304,0.0614624-12.7743988,0.0991726
			c-0.8816605,0.0077915-1.316124-0.3972321-1.2997055-1.2878838c0.0121002-0.6552982,0.0050507-1.310976,0.0048294-1.9664726
			c-0.0012436-3.8935738-0.0014038-3.8935738,3.9001846-3.4955816c-0.0129013,0.3358498,0.0719147,0.5988026,0.3436203,0.8536835
			c1.3798218,1.2945127,2.8024902,2.5546808,4.0699081,3.9539137c0.9217529,1.0176239,1.9119186,1.3951492,3.2690735,1.3605423
			C94.6889267,20.7878609,95.7335434,20.2071819,96.3688354,21.2910137z"/>
		<path class="st6" d="M86.9005585,14.647418c3.9750824-0.0370092,7.9503098-0.064806,11.9251862-0.1173172
			c1.0263596-0.0135574,1.5167923,0.4256306,1.4897156,1.4631195c-0.0213089,0.8168344-0.0006409,1.6347284-0.0008392,2.4521627
			c-0.0007629,3.1198578-0.0347061,3.1493378-3.2457047,2.8465118c-0.9311295-1.6625061-2.5738068-2.6962299-3.710289-4.1481342
			c-1.3688965-1.7487612-3.0312424-2.224719-5.0965805-1.9858589C87.7825623,15.213336,87.1222382,15.4236574,86.9005585,14.647418z
			"/>
		<path class="st4" d="M86.9005585,14.6474581c0.2216797,0.7761993,0.8820038,0.5658779,1.3614883,0.5104437
			c2.0653381-0.2388601,3.727684,0.2370977,5.0965805,1.9858589c1.1364822,1.4519043,2.7791595,2.4856281,3.710289,4.1481342
			c-0.2335129,0.1343994-0.4668655,0.1334591-0.7000809-0.0008812c-0.6352921-1.0838318-1.6799088-0.5031528-2.4864883-0.482626
			c-1.3571548,0.0346069-2.3473206-0.3429184-3.2690735-1.3605423c-1.2674179-1.3992329-2.6900864-2.6594009-4.0699081-3.9539137
			c-0.2717056-0.2548809-0.3565216-0.5178337-0.3436203-0.8536835
			C86.4333572,14.6426516,86.6669464,14.6450548,86.9005585,14.6474581z"/>
		<path class="st2" d="M45.232048,14.9015388c-0.0229912-0.2108622-0.0460014-0.4217052-0.0690117-0.6325474
			c0.0093117-0.4557104,0.0186234-0.9114399,0.0278168-1.3669701c0.3608627-0.0025635,0.7423744-0.078105,1.0009003,0.2827587
			c0.0023842,8.1292439,0.0107956,16.2581882-0.0054893,24.3870735c-0.0011597,0.5826797,0.3300018,1.386795-0.6701965,1.5790329
			l-0.0028839-0.0004616c0.0094948-7.6136532,0.0172424-15.2274475,0.0331459-22.8412209
			C45.5473709,15.8096342,45.5069771,15.3329763,45.232048,14.9015388z"/>
		<path class="st5" d="M45.5160675,39.1508865c1.0001984-0.1922379,0.6690369-0.9963531,0.6701965-1.5790329
			c0.0162849-8.1288853,0.0078735-16.2578297,0.0054893-24.3870735c1.0167198,0.1922169,0.653656,1.0141373,0.6559982,1.5854025
			c0.0251541,6.1230192,0.0108757,12.2461576,0.0183029,18.3692741c0.000782,0.6406975-0.1612129,1.326458,0.3582001,1.8742714
			c-0.6249771,0.8172531-0.1397476,1.7880516-0.3695145,2.66008c0.0137177,0.5555649,0.0273361,1.1105461,0.0409737,1.6655502
			c-0.4542046,0.0431976-0.9083939,0.0864143-1.3626022,0.1296539C45.519371,39.36343,45.5137062,39.2573891,45.5160675,39.1508865z
			"/>
		<path class="st2" d="M72.4038315,34.9223061c-0.1956024-0.0005417-0.3912277-0.0011024-0.586586-0.001503
			c0.0002213-6.616478,0.0002213-13.233078,0.0002213-19.849678c0.1954575-0.0018225,0.3908997-0.0036449,0.5863647-0.0054874
			C72.4038315,21.6845398,72.4038315,28.3034229,72.4038315,34.9223061z"/>
		<path class="st2" d="M98.3668747,39.3908882c-0.9717636,0.1576729-1.7571716-0.4615784-2.6408997-0.6724014
			c-1.8695984-0.4459343-3.500267,0.4644852-5.2466049,0.6708794c-0.7844086-0.6371117-0.4419708-0.9762878,0.2868042-1.3418159
			c2.4562912-1.2319298,4.9082718-1.1832428,7.3823853-0.0889587
			C98.9689407,38.3214378,98.9782715,38.8091698,98.3668747,39.3908882z"/>
		<path class="st9" d="M78.0080566,25.3722992c0.8742447,0,1.7485809-0.0075302,2.6226654,0.0042458
			c0.2909698,0.0039253,0.5623169,0.1313744,0.5693665,0.456049c0.0070496,0.3254356-0.2556839,0.4689293-0.5495605,0.4705505
			c-1.8576202,0.0102539-3.7153473,0.0118961-5.5729752,0.0054073c-0.2915344-0.0010204-0.5725708-0.1369629-0.5654373-0.4585342
			c0.0095291-0.4293137,0.3714371-0.4823856,0.7091675-0.4851093c0.9288635-0.0075092,1.8578491-0.0026035,2.7867737-0.0026035
			C78.0080566,25.3656292,78.0080566,25.3689747,78.0080566,25.3722992z"/>
		<path class="st2" d="M56.3335915,34.9098091l-0.1370621,0.0262566c0,0-0.1366844-0.0283203-0.1365013-0.0282593
			c-0.0076103-6.2287998-0.0181465-12.4576397-0.0176849-18.6865005c0.0000191-0.4734545-0.1435928-0.9985971,0.3152008-1.3747606
			l0.0080109,0.0075703C56.3549004,21.5393467,56.3442459,28.224577,56.3335915,34.9098091z"/>
		<path class="st2" d="M103.6164856,39.2086029c-0.5430527,0.2939148-1.1104279,0.1890755-1.676712,0.1021767
			c-0.5025101-1.3421745-1.7282104-1.9777069-3.0183945-2.8128662
			C100.9652328,36.4923058,103.01091,37.7456474,103.6164856,39.2086029z"/>
		<path class="st9" d="M74.6480179,28.4574089c2.4653168,0,4.9306412,0,7.3959579,0
			c0.0013199,0.1104279,0.0026627,0.2208366,0.0039902,0.3312645c-2.4658432,0-4.9316635,0-7.3975067,0
			C74.6496582,28.6782455,74.6488342,28.5678368,74.6480179,28.4574089z"/>
		<path class="st9" d="M81.714798,27.496542c-2.3585815,0-4.7171783,0-7.0757523,0
			c-0.0018692-0.1107082-0.0037079-0.2214165-0.0055695-0.3321247c2.3594589,0,4.7189407,0,7.0783997,0
			C81.7128525,27.2751255,81.7138138,27.3858337,81.714798,27.496542z"/>
		<path class="st2" d="M57.0161858,14.1930504c0.1815033-0.1056223,0.362648-0.3027458,0.5445709-0.3034468
			c4.3990898-0.0171633,8.7982597-0.0133781,13.1991158,0.3066511c-4.5803604,0-9.1607094,0-13.7410812-0.00002
			L57.0161858,14.1930504z"/>
		<path class="st9" d="M81.061821,24.5387821c-2.13974,0-4.2794876,0-6.4192123,0
			c-0.0013657-0.1101875-0.0027084-0.2203941-0.0040436-0.3305817c2.1404419,0,4.2808914,0,6.4213333,0
			C81.0605392,24.318388,81.0611801,24.4285946,81.061821,24.5387821z"/>
		<path class="st5" d="M58.8205643,27.2683163c0.6330452,1.4847298,0.5815582,2.9567795,0.4276314,4.4300327
			c-0.1425514,0.0054665-0.2850838,0.0109539-0.4276314,0.0164223
			C58.8205643,30.232626,58.8205643,28.7504826,58.8205643,27.2683163z"/>
		<path class="st2" d="M71.7677994,37.7393379c0.225563-0.2489548,0.4503784-0.2701035,0.6741791,0.0020218
			c-0.0086288,0.5220375-0.0171432,1.0441589-0.0256729,1.5662384c0,0-0.0005417,0.1475754-0.0002594,0.1475983
			c-0.2027893-0.0002632-0.4058456-0.0005035-0.6089172-0.0007629l-0.0038223-0.1472588
			C71.7914734,38.7845955,71.7796326,38.2619781,71.7677994,37.7393379z"/>
		<path class="st2" d="M56.3575439,14.8465452c0.0081711-0.4308968,0.2251205-0.6513519,0.6586609-0.6534748l0.0025864,0.0031643
			c-0.1242065,0.3122177-0.3408775,0.5325727-0.6532745,0.6578407L56.3575439,14.8465452z"/>
		<path class="st3" d="M44.1474762,25.9116402c0.9074364,1.4941006,0.2246819,3.1131897,0.3666115,4.6672897
			c-0.3060722-0.0996132-0.5720062-0.4536266-0.9415207-0.1474171c-0.4854927,0.0365887-0.9715424,0.1108875-1.4562912,0.103157
			C35.390049,30.427187,28.657917,30.7993851,21.936676,30.2905445c-0.6043491-0.1234455-0.764082,0.6856766-1.3334656,0.6357098
			c-0.0150986-1.286623-0.0301399-2.5732651-0.0451794-3.8599072c0.1387062-1.058918,1.2410412-0.5838623,1.7292747-1.0863342
			c0.5257034,0.0017014,1.0514488,0.0033836,1.5771713,0.0050659l-0.0001202,0.019886
			c0.0166626,0.3218517,0.0643463,0.6457253,0.0434399,0.9651337c-0.041256,0.6306629,0.1975632,1.1291103,0.8300304,1.1606541
			c0.7406712,0.0369282,0.7382679-0.5902119,0.7942638-1.1477776c0.0362892-0.3614044,0.2080574-0.7092094,0.3191261-1.0631027
			c3.9279003-0.0104752,7.8558178-0.0209293,11.7836971-0.0313835c1.4388695,0.1461773,2.8771935,0.1685066,4.3146172-0.0188046
			C42.6821747,25.8836823,43.4148331,25.8976612,44.1474762,25.9116402z M39.4189034,28.3571358
			c1.457634,0.3083725,2.923214,0.5698013,4.343338-0.1140537C42.3062325,27.9491081,40.8583107,27.8592281,39.4189034,28.3571358z"
			/>
		<path class="st6" d="M37.6349373,25.8884888c-3.9279022,0.0104542-7.8558197,0.0209084-11.783699,0.0313835
			c-0.0851746-0.0833321-0.1703682-0.1667042-0.2555428-0.2500763c0.0073109-0.9575005,0.0146008-1.9150238,0.0219307-2.8725452
			c1.7165775-1.4555092,3.433136-2.9109974,5.1496944-4.3663673c0.0570755,0.8139706,0.7088299,1.1656208,1.2375584,1.6280212
			C34.0449486,21.843153,36.082016,23.6328297,37.6349373,25.8884888z"/>
		<path class="st2" d="M11.1499138,36.8346672c-0.21661,0-0.4389877,0.0318031-0.6487083-0.0061684
			c-0.5454903-0.0987549-1.395669,0.3417358-1.5655365-0.3958702c-0.1617565-0.70224,0.1652012-1.4780388,0.822401-1.991066
			c1.2137451-0.9475288,2.5034523-0.5554848,3.6869764-0.0583382c0.7781019,0.3267975,0.2172117,1.1629982,0.2277451,1.7686691
			c0.0102739,0.591011-0.4298553,0.6731377-0.8983421,0.6735611c-0.5415058,0.0004997-1.0830307,0.0001183-1.6245356,0.0001183
			C11.1499138,36.828598,11.1499138,36.8316422,11.1499138,36.8346672z"/>
		<path class="st10" d="M21.936676,30.2905445c6.721241,0.5088406,13.453373,0.1366425,20.1795998,0.2441254
			c0.4847488,0.0077305,0.9707985-0.0665684,1.4562912-0.103157c-0.2458687,0.7398109-0.88134,0.519495-1.3846931,0.5205364
			c-6.2863388,0.0131168-12.5727158,0.0152206-18.8590126-0.0050468
			C22.8049202,30.9453011,22.0392132,31.2655697,21.936676,30.2905445z"/>
		<path class="st10" d="M20.5580311,27.0663471c0.0150394,1.2866421,0.0300808,2.5732841,0.0451794,3.8599072
			c-0.1148338,3.735363-0.1152344,3.7426109,3.5566826,3.9460831c0.6119995,0.0339279,1.1689663,0.1864319,1.6934071,0.5739899
			c-1.5947742-0.2050133-3.1899509-0.3243752-4.7920761-0.2732658c-0.4425926,0.0141373-0.7754383-0.1626968-0.75457-0.6482697
			C20.4134769,32.0393639,19.9681606,29.5349922,20.5580311,27.0663471z"/>
		<path class="st10" d="M25.5956955,25.669796c0.0851746,0.0833721,0.1703682,0.1667442,0.2555428,0.2500763
			c-0.1110897,0.3538933-0.2828579,0.7016983-0.3191471,1.0631027c-0.0559959,0.5575657-0.0535927,1.1847057-0.7942638,1.1477776
			c-0.6324673-0.0315437-0.8712864-0.5299911-0.8300304-1.1606541c0.0209064-0.3194084-0.0267773-0.6432819-0.0434399-0.9651337
			C24.4761162,26.0721951,25.0630436,26.0112133,25.5956955,25.669796z"/>
		<path class="st4" d="M23.8644772,25.9850788c-0.5257225-0.0016823-1.0514679-0.0033646-1.5771713-0.0050659
			c0.0533123-0.8574886,0.9192715-0.9430027,1.386797-1.7219868C24.0083103,24.9834785,23.9134426,25.4877529,23.8644772,25.9850788
			z"/>
		<path class="st6" d="M44.1474762,25.9116402c-0.7326431-0.013979-1.4653015-0.0279579-2.1979446-0.0419559
			c0.0436211-0.7634621-0.5349159-1.1493587-0.9802322-1.616684c-2.4046593-2.5235195-5.0519028-4.8106422-7.2980309-7.4886475
			c3.2861404-0.6092148,6.6012001-0.1682053,9.9015999-0.26087c0.7669868-0.0215473,0.5885277,0.6438236,0.5895462,1.0927639
			C44.1687851,20.3680172,44.154747,23.1398296,44.1474762,25.9116402z"/>
		<path class="st4" d="M33.6712685,16.7643528c2.2461281,2.6780052,4.8933716,4.9651279,7.2980309,7.4886475
			c0.4453163,0.4673252,1.0238533,0.8532219,0.9802322,1.616684c-1.4374237,0.1873112-2.8757477,0.1649818-4.3146172,0.0188046
			c-1.5528984-2.2556591-3.5899658-4.0453358-5.6300354-5.8295841c-0.5287285-0.4624004-1.1804829-0.8140507-1.2375584-1.6280212
			C31.516964,17.4948101,32.5191078,16.9988861,33.6712685,16.7643528z"/>
		<path class="st6" d="M46.1559448,46.2407608c-2.21735-0.4008369-4.4536247-0.1327171-6.6802635-0.1707878
			c-2.9959335-0.0512505-5.9934273-0.0087929-8.9902382-0.0138817c-0.5827198-0.0009804-1.2176094,0.1493225-1.6340885-0.4587517
			c0.2175522-0.9906654,1.0070095-0.8168755,1.6949692-0.8190994c5.002039-0.01614,10.0040569-0.0255127,15.0062122-0.0369263
			C46.3146172,45.0155182,46.139782,45.6665726,46.1559448,46.2407608z"/>
		<path class="st6" d="M27.4875298,45.3616829c-0.2238998,0.0144806-0.3482876-0.0855942-0.3613853-0.3139191
			C27.2466068,45.1523628,27.3670673,45.2570229,27.4875298,45.3616829z"/>
		<path class="st2" d="M21.9497337,49.3811035c-0.2881851,0.273468-0.633707,0.3550377-1.0187035,0.3043709
			c-0.1530247-0.8105659-0.0300007-2.1729317-0.8246651-2.1737709c-0.8018532-0.0008621-0.67342,1.3593178-0.8281479,2.1681023
			c-0.3892021,0.0565338-0.7320194-0.0382538-1.0198059-0.312561c0.2230396-0.8520393,1.4416313-1.7381248,0.7606983-2.4045372
			c-0.5261841-0.5149689-1.4393063,0.5263824-2.058897,1.0958481c-0.3967094-0.1824875-0.4153748-0.5801392-0.5248013-0.924881
			c0.6448631-0.666851,1.7522659-0.3669701,2.4402065-1.1379013c-0.6963329-0.7982903-1.7091084-0.6055336-2.4977036-0.9657326
			c0.0577164-0.4279556,0.144413-0.8406677,0.5663376-1.0770645c0.6068726,0.6902657,1.3648872,1.0459595,2.5455093,1.2123222
			c-0.4968452-1.0015182-0.8741913-1.7621384-1.2515373-2.5227547c0.2959766-0.2636528,0.6407585-0.3919449,1.0380306-0.3738632
			c0.0456009,0.8479576,0.1212616,2.1631966,0.819397,2.1796608c0.8699455,0.0204849,0.6343899-1.2975578,0.8469944-2.0487633
			c0.0140381-0.0495262,0.0044651-0.1057014,0.005888-0.1588135c0.313139,0.0976906,0.6262589,0.1953812,0.9393768,0.2930717
			c0.129715,0.7182617-0.4719906,1.1276512-0.7217064,1.6844749c-0.2431641,0.5421677-0.4158554,1.0108757,0.4096489,1.1512833
			c-0.2627506,0.5021935-0.3276978,0.8535233,0.3945484,1.0761795c0.6051502,0.1865501,1.3223515,0.1478004,1.7956448,0.6922073
			c-0.0777035,0.3604622-0.1158962,0.7429352-0.5152512,0.9240189c-0.420042-0.3362122-0.8187351-0.7054863-1.2685986-0.9953728
			c-0.2466488-0.1589546-0.5712032-0.4494019-0.8802986-0.1718712c-0.3034248,0.2725029-0.0621624,0.5932121,0.0539722,0.894619
			C21.3703785,48.3462181,21.9289856,48.7297935,21.9497337,49.3811035z"/>
		<path class="st5" d="M16.9602127,48.0585556c0.6195908-0.5694656,1.5327129-1.610817,2.058897-1.0958481
			c0.680933,0.6664124-0.5376587,1.5524979-0.7606983,2.4045372C17.6526604,49.1026306,17.1420574,48.7436523,16.9602127,48.0585556
			z"/>
		<path class="st5" d="M21.9497337,49.3811035c-0.0207481-0.65131-0.5793552-1.0348854-0.7938633-1.5917282
			c-0.1161346-0.3014069-0.3573971-0.6221161-0.0539722-0.894619c0.3090954-0.2775307,0.6336498,0.0129166,0.8802986,0.1718712
			c0.4498634,0.2898865,0.8485565,0.6591606,1.2685986,0.9953728C23.0619431,48.7432098,22.5278091,49.083828,21.9497337,49.3811035
			z"/>
		<path class="st5" d="M21.5758343,45.3695946c-0.8254852-0.1404076-0.6527939-0.6091156-0.4096298-1.1512833
			c0.2497158-0.5568237,0.8514214-0.9662132,0.7217064-1.6844749c0.6181087,0.3105965,1.1559486,0.6998978,1.3751812,1.4018364
			c-0.3280983,0.746479-1.3893394,0.6312065-1.6760426,1.4262123L21.5758343,45.3695946z"/>
		<path class="st5" d="M19.2782173,49.6798058c0.1547279-0.8087845,0.0262947-2.1689644,0.8281479-2.1681023
			c0.7946644,0.0008392,0.6716404,1.363205,0.8246651,2.1737709C20.3789711,50.004982,19.8280125,50.0077057,19.2782173,49.6798058z
			"/>
		<path class="st5" d="M18.238224,42.6425438c0.377346,0.7606163,0.7546921,1.5212364,1.2515373,2.5227547
			c-1.1806221-0.1663628-1.9386368-0.5220566-2.5455093-1.2123222
			C17.1163025,43.2601089,17.6411648,42.9156685,18.238224,42.6425438z"/>
		<path class="st5" d="M23.7660465,47.1379814c-0.4732933-0.5444069-1.1904945-0.5056572-1.7956448-0.6922073
			c-0.7222462-0.2226562-0.657299-0.5739861-0.3945484-1.0761795l0.0111752-0.0076904
			c0.7802639,0.1246071,1.503233-0.1361847,2.235754-0.3326874C23.9694786,45.7365837,24.0005798,46.4408684,23.7660465,47.1379814z
			"/>
		<path class="st5" d="M20.948534,42.2407837c-0.0014229,0.053093,0.0081501,0.1092682-0.005888,0.1587944
			c-0.2126045,0.7512054,0.0229511,2.0692482-0.8469944,2.0487633c-0.6981354-0.0164642-0.7737961-1.3317032-0.819397-2.1796608
			C19.8296356,42.007473,20.3882236,42.0720787,20.948534,42.2407837z"/>
		<path class="st5" d="M16.3779144,45.0300407c0.7885952,0.360199,1.8013706,0.1674423,2.4977036,0.9657326
			c-0.6879406,0.7709312-1.7953434,0.4710503-2.4402065,1.1379013
			C16.2076263,46.4377823,16.2223854,45.7357826,16.3779144,45.0300407z"/>
		<path class="st2" d="M23.8227825,45.0292168c-0.7325211,0.1965027-1.4554901,0.4572945-2.235754,0.3326874
			c0.2867241-0.7950249,1.3479652-0.6797523,1.6760635-1.4262314
			C23.6874409,44.1784592,23.7763805,44.5929527,23.8227825,45.0292168z"/>
		<path class="st2" d="M92.4414597,42.7212296c1.3212509-0.8171349,2.6407776-0.8615761,3.9582596,0.008831
			c-0.1203384,0.7710304-1.4319611,1.3664474-0.7358627,2.0704117c0.4295502,0.4344025,1.349884-0.2784538,1.7961807-0.9430847
			c0.5730515,0.3319054,0.7924423,0.823204,0.6638718,1.4717102c-0.8286743,0.0225105-1.6709213,0.0105553-2.405098,0.8920174
			c0.9197845,0.1899719,1.6561127,0.3420563,2.3924408,0.4941597c0.1661224,0.5261269-0.0778885,0.9125443-0.4298935,1.2621727
			c-0.7251358-0.176899-1.4131165-1.3293228-1.9531555-0.8104858c-0.647789,0.6222305,0.4593735,1.3708954,0.6522293,2.1157112
			c-0.3576965,0.3294601-0.7402115,0.5796967-1.2592239,0.3947678c-0.0246506-0.7967873-0.0847778-1.58284-0.6984177-2.280571
			c-0.6152802,0.6990929-0.6766281,1.4846649-0.6958466,2.283577c-0.5168152,0.1754951-0.9033508-0.0647469-1.2615738-0.3953094
			c0.3669891-0.7191048,0.7340012-1.4381866,1.1250839-2.2044907c-1.1403656-0.2566872-1.6437149,0.6725197-2.4298935,0.9001045
			c-0.3693924-0.344841-0.5793304-0.7454987-0.4439697-1.2672386c0.8202972-0.0451813,1.6018219-0.2017899,2.3718719-0.7150154
			c-0.8064575-0.5677223-1.5743866-0.6884422-2.3802032-0.6666527c-0.1258698-0.5159302,0.060463-0.9302483,0.419281-1.2884445
			c0.7349243,0.2315102,1.5458527,1.2819138,2.0941849,0.7262115C93.8567734,44.126049,92.5837479,43.4850121,92.4414597,42.7212296
			z"/>
		<path class="st5" d="M91.1605606,47.980751c0.7861786-0.2275848,1.2895279-1.1567917,2.4298935-0.9001045
			c-0.3910828,0.766304-0.7580948,1.4853859-1.1250839,2.2044907C91.8837891,48.9970093,91.4223328,48.5887451,91.1605606,47.980751
			z"/>
		<path class="st5" d="M92.4414597,42.7212296c0.1422882,0.7637825,1.4153137,1.4048195,0.7802658,2.0483818
			c-0.5483322,0.5557022-1.3592606-0.4947014-2.0941849-0.7262115
			C91.3868866,43.4251709,91.8361053,42.9956169,92.4414597,42.7212296z"/>
		<path class="st5" d="M96.3804321,49.2826729c-0.1928558-0.7448158-1.3000183-1.4934807-0.6522293-2.1157112
			c0.5400391-0.518837,1.2280197,0.6335869,1.9531555,0.8104858C97.4198456,48.5840988,96.9610901,48.9941254,96.3804321,49.2826729
			z"/>
		<path class="st5" d="M93.726944,49.6804466c0.0192184-0.798912,0.0805664-1.5844841,0.6958466-2.283577
			c0.6136398,0.697731,0.6737671,1.4837837,0.6984177,2.280571C94.6572876,49.9752808,94.1925049,49.9778023,93.726944,49.6804466z"
			/>
		<path class="st5" d="M97.4600372,43.8573875c-0.4462967,0.6646309-1.3666306,1.3774872-1.7961807,0.9430847
			c-0.6960983-0.7039642,0.6155243-1.2993813,0.7358627-2.0704117
			C96.8894119,42.9776917,97.3446045,43.2577667,97.4600372,43.8573875z"/>
		<path class="st5" d="M90.7082596,45.3318443c0.8058167-0.0217896,1.5737457,0.0989304,2.3802032,0.6666527
			c-0.77005,0.5132256-1.5515747,0.6698341-2.3718719,0.7150154C90.4544754,46.2546577,90.460968,45.7940216,90.7082596,45.3318443z
			"/>
		<path class="st5" d="M98.1112518,46.7152748c-0.7363281-0.1521034-1.4726562-0.3041878-2.3924408-0.4941597
			c0.7341766-0.8814621,1.5764236-0.8695068,2.405098-0.8920174C98.3812332,45.7933617,98.3864365,46.2555389,98.1112518,46.7152748
			z"/>
		<path class="st11" d="M71.7677994,37.7393379c0.0118332,0.5226402,0.023674,1.0452576,0.0355072,1.5678368
			c-8.302597,0.0107574-16.6051941,0.0215912-24.907711,0.0323067c-0.0135193-0.5551262-0.0271378-1.1101074-0.0408554-1.6656723
			c3.057354,0.0230103,6.1148071,0.0465622,9.1721611,0.0702362c0.0864182,0.2383385-0.1668434,0.5791321,0.2193527,0.7268715
			c0.0404549-0.2411423,0.0809097-0.4822845,0.1213646-0.7234077C61.5010109,37.7447853,66.634407,37.7420807,71.7677994,37.7393379
			z"/>
		<path class="st6" d="M73.0906525,47.6338463c-0.3614044,0.5837021-0.9466934,0.4418907-1.4776611,0.4424324
			c-4.8110428,0.0049057-9.6220856,0.0025215-14.4331245,0.0042267c-0.5437508,0.0001984-1.1117287,0.0862732-1.4665642-0.4826889
			c0.1358414-0.7895164,0.7134552-0.842205,1.354351-0.8414841c4.9034271,0.0053864,9.8068733,0.0034828,14.7103004-0.0025253
			C72.4244156,46.753006,72.9944382,46.8306694,73.0906525,47.6338463z"/>
		<ellipse class="st12" cx="64.2372665" cy="44.7194633" rx="10.37922" ry="0.1842925"/>
		<path class="st12" d="M71.8071289,39.4544334c0.2030716,0.0002594,0.4061279,0.0004997,0.6089172,0.0007629
			c-0.0002823,1.4551849-0.0002823,2.9104156-0.0002823,4.3656235c-0.1484375-0.0018806-0.296875-0.003746-0.4453354-0.0056267
			C71.6112061,42.3828354,71.8837357,40.9064789,71.8071289,39.4544334z"/>
		<path class="st2" d="M56.3676186,37.7474899c-0.0404549,0.2411423-0.0809097,0.4822845-0.1213646,0.7234268
			c-0.3861961-0.1477394-0.1329346-0.488533-0.2193527-0.7268524
			C56.1423149,37.5729141,56.2558479,37.5757179,56.3676186,37.7474899z"/>
		<path class="st13" d="M39.4189034,28.3571358c1.4394073-0.4979076,2.8873291-0.4080276,4.343338-0.1140537
			C42.3421173,28.9269371,40.8765373,28.6655083,39.4189034,28.3571358z"/>
	</g>
</g>
</svg>
