<?xml version="1.0" encoding="utf-8"?>
<!-- Generator: Adobe Illustrator 25.4.1, SVG Export Plug-In . SVG Version: 6.00 Build 0)  -->
<svg version="1.1" id="Layer_1" xmlns="http://www.w3.org/2000/svg" xmlns:xlink="http://www.w3.org/1999/xlink" x="0px" y="0px"
	 width="120px" height="56px" viewBox="0 0 120 56" style="enable-background:new 0 0 120 56;" xml:space="preserve">
<style type="text/css">
	.st0{fill:url(#SVGID_1_);}
	.st1{fill:#BDCCD4;stroke:#726A63;stroke-width:0.25;stroke-miterlimit:10;}
	.st2{fill:#303940;}
	.st3{fill:#0A212B;}
	.st4{fill:#E61E26;}
	.st5{fill:#FBD404;}
	.st6{fill:#C5C9CC;}
	.st7{fill:#B1B4B8;}
</style>
<g>
	<radialGradient id="SVGID_1_" cx="60" cy="51.9052238" r="26.6169548" gradientUnits="userSpaceOnUse">
		<stop  offset="0" style="stop-color:#B3B3B3"/>
		<stop  offset="1" style="stop-color:#726A63;stop-opacity:0.8"/>
	</radialGradient>
	<ellipse class="st0" cx="60" cy="51.9052238" rx="37.6028214" ry="1.7182807"/>
	<g>
		<path class="st1" d="M50.554203,29.2401943c-0.0023079,0.3115234-0.0046005,0.6230602-0.0055618,0.9349709
			c-1.5676727,0.6096497-3.3340073-0.2745533-5.070507,0.4199543c5.5747833,0,10.937664,0,16.3005333,0
			c0.8355064-0.0208187,1.6710167-0.0416355,2.5065193-0.0624657l0.1922455,0.0526619l0.1858749-0.0719337
			c0.5683136-0.0183735,1.1366501-0.036747,1.7049637-0.0551071c0.5674667,0.1900196,1.127449,0.2445164,1.6658554-0.091917
			c6.9793015-0.1576519,13.9590454-0.2996235,20.9375229-0.4878349c1.208725-0.0325947,2.4546204-0.1391659,3.3536758-1.1558247
			c2.6927109,0.2865524,5.3957062,0.5016804,8.073967,0.8883572c1.4395828,0.2078438,2.1790085,1.2589169,2.2936401,2.7146511
			c-0.870224,0.0795784-1.765686-0.1323318-2.6078644,0.2815628c-0.8385925,0.4121323-1.6002426,0.9201241-1.4221497,1.9768753
			c0.1702423,1.0101204,0.908989,1.4502716,1.9230804,1.4373207c0.8151855-0.0103874,1.6305695-0.0071335,2.4458618-0.0099411
			c1.1083603,0.5570755,1.4138565,1.4896507,1.4359131,2.6801147c0.1157761,6.2584991,0.142395,6.3037033-5.9619675,7.390461
			c-1.8556442,0.3303452-3.6736984,0.9593697-5.596077,0.8853264c0.0839767-1.7639923,0.2625656-3.5292053-0.4847412-5.224678
			c-1.8200912-4.129261-6.229744-6.2371674-10.427597-4.9608383c-4.3981018,1.3372231-6.7967148,5.4886017-5.914772,10.2374535
			c-0.6045837,0.047226-1.2094727,0.1352997-1.8143845,0.1356735c-11.0277176,0.0069618-22.0554276,0.0076332-33.0831375-0.0042648
			c-1.1498985-0.001236-2.2996979-0.0901718-3.4495354-0.1384048c0.7514725-3.6012878-0.3013687-6.621212-3.1985931-8.826973
			c-2.9096127-2.215168-6.1521282-2.4511642-9.3568592-0.6573868c-3.719099,2.0816612-4.8619251,5.4175148-4.1949844,9.4958992
			c-1.0676498,0.0481071-2.1348629,0.1183586-3.2030487,0.1392784c-1.7226906,0.0337639-2.4852905-0.7897072-2.1707239-2.523922
			c0.6039877-0.0035324,1.2081499-0.0000496,1.8119879-0.0121498c0.8366928-0.016777,1.4821415-0.3311424,1.480608-1.2656517
			c-0.0015354-0.9314423-0.635397-1.2506866-1.48032-1.2572823c-0.6040001-0.0047035-1.2080135-0.0084839-1.8120136-0.0126724
			c-0.1944351-1.3888168-0.2965679-2.730381,1.296587-3.4715042c0.1918411-0.0892448,0.2979527-0.4342613,0.3778324-0.6819954
			c1.3760414-4.26688,4.6964283-5.6526527,8.7680378-5.9675198c4.3195801-0.3340378,8.636694-0.700182,12.9548626-1.0516319
			c1.7816162,0.0919647,2.9091644-1.3318119,4.4055634-1.9009991c0.6156006,1.0581436-1.1842384,1.0815563-0.8977776,1.9972801
			c1.0229836,0.4135685,1.4821548-0.2829838,2.0103302-0.9032001c1.0090866-1.1849861,2.1303711-2.2233238,3.7404289-2.5278111
			c1.0512466,0.1715088,1.9958191,0.4890938,2.3015442,1.6807785C50.5686226,29.2647057,50.5541916,29.2401943,50.554203,29.2401943
			z M21.7849331,34.7995834c-0.6752243-0.0237122-1.0820446,0.2987251-1.2306023,0.9542274
			c-0.3944111,0.6587486-1.1564617,1.1256523-1.0792255,2.1677208c2.4629498-0.4581146,4.4273396-1.8035812,6.3878231-3.1572838
			c0.7178192-0.0436096,1.2284946-0.3080063,1.3301659-1.2401962c-1.9777489,0.0840454-3.8669834-0.0765114-5.4196625,1.2801094
			L21.7849331,34.7995834z M65.1199112,33.9252586c0.4746857,0,0.9496765,0.0106277,1.4239655-0.003231
			c0.4124222-0.0120354,0.8955917-0.0461884,0.8717651-0.5943069c-0.0286102-0.6579208-0.572403-0.3619423-0.9288177-0.386013
			c-0.8748093-0.0591125-1.7492981-0.1390038-2.6251068-0.1595001c-0.3687782-0.0086288-0.9422798-0.1349754-0.9780426,0.4226379
			c-0.0404243,0.629982,0.5487061,0.6718788,1.0162239,0.7111702
			C64.3039017,33.9499817,64.7130508,33.9230652,65.1199112,33.9252586z"/>
		<path class="st2" d="M89.117218,50.3084679c-3.3222733,2.1722336-6.5544357,2.215229-9.6737137-0.4093666
			c-0.6839676-1.1392326-1.593277-2.1708832-1.7093277-3.581192c0.0073318-0.543602,0.0121765-1.0872688,0.0223999-1.6308098
			c0.0845184-4.4920883,4.3574677-7.5620079,8.5989456-6.178669c3.4809341,1.1352921,4.8904572,3.354248,4.8934708,7.7035408
			C91.0175629,47.8268318,90.0162964,49.0410576,89.117218,50.3084679z M82.0712051,41.6480484
			c-0.7472076,0.1412888-1.0887756,0.7135315-1.4001389,1.3178673c-0.2743149,0.3534241-0.4844208,0.7261276-0.3600845,1.1992455
			c-0.1863022,0.5566864-0.1813354,1.1128769,0.0043182,1.6686058c-0.1506805,0.4780426,0.07621,0.8457832,0.3504791,1.1996803
			c0.3257751,0.7473564,0.8563004,1.2926826,1.6030807,1.6246376c0.2911072,0.4446526,0.7408752,0.4745522,1.2069778,0.4617767
			c0.5547409,0.3365707,1.105423,0.4725075,1.6431198-0.0332642c0.6245728,0.153347,1.1744232,0.0518646,1.60112-0.4695511
			c0.7157745-0.3403854,1.2554932-0.8523941,1.5567017-1.5968971c0.674614-1.3505821,0.6889343-2.6975479-0.0221481-4.0405388
			c-0.2993164-0.7376404-0.8121719-1.267807-1.5420685-1.5870895
			C85.1131973,40.5288239,83.5434723,40.2030296,82.0712051,41.6480484z"/>
		<path class="st2" d="M34.0331917,50.312336c-2.8838921,1.9809151-5.8534508,2.0339241-8.8981247,0.3953667
			c-0.8823814-1.1765289-1.9825115-2.2103615-2.3838558-3.7003632c-0.149931-0.5566254-0.5890198-0.4055328-0.9772682-0.3485298
			c0.5536957-0.5311699,0.7934971-1.1283722,0.8392124-1.9456902c0.1741276-3.1135788,1.9460506-5.3502731,4.6943817-6.1370583
			c3.1426144-0.8996696,5.3194618,0.0251808,7.522892,2.3717079c1.5235291,1.622467,0.837738,3.6237488,1.6459541,5.2907104
			C35.6619949,47.5964355,34.8475914,48.95438,34.0331917,50.312336z M33.6486855,44.9863853
			c-0.0022469-2.496727-1.9002628-4.389431-4.3722458-4.3599434c-2.3202534,0.0276527-4.2101517,1.9527626-4.2345371,4.3133812
			c-0.0260181,2.5202408,1.8289642,4.4500999,4.2858543,4.458847
			C31.8111382,49.4075012,33.6509666,47.5287666,33.6486855,44.9863853z"/>
		<path class="st3" d="M66.3682709,30.4582748c-0.5683136,0.0183601-1.1366501,0.0367336-1.7047348,0.0551949
			c-0.1259842,0.0064602-0.2521667,0.0128212-0.3783493,0.0191956c-0.8355026,0.0208187-1.6710129,0.0416355-2.5060196,0.0624924
			c-0.6765556-0.6601315-1.7139206,0.0603828-2.3850403-0.6225357c0.6758575-0.0413628,1.3540382-0.1401024,2.0271034-0.1127853
			c1.6966324,0.068903,3.2588692-0.0055008,3.8119164-2.0739422c0.0920258-0.3442669,0.4953156-0.6418686,0.8145142-0.881422
			c0.7152481-0.5367794,1.598938-1.1531658,2.4067154-0.6175327c0.9290466,0.6160488,0.0775375,1.4489365-0.1777725,2.1655216
			c-0.1112366,0.3122101-0.3673172,0.5845909-0.3474579,0.6252556c4.1957855,0,8.2515411-0.0073605,12.3072433,0.0086308
			c0.5514526,0.0021839,0.8803482-0.2260189,1.1153488-0.6916256c0.1519012-0.3009834,0.3046036-0.6166611,0.5252075-0.8651428
			c0.7904434-0.8903275,1.7940979-1.8053913,2.9629135-1.2556381c1.2515793,0.5887089-0.2140198,1.6352654-0.0209579,2.4489937
			c2.5167847,0,5.0120697,0,7.5068741-0.000124c-0.8995056,1.0165462-2.145401,1.1231174-3.354126,1.1557121
			c-6.9784775,0.1882114-13.9582214,0.330183-20.9374466,0.4875355
			C67.4716949,30.2660465,66.9086456,30.1578522,66.3682709,30.4582748z"/>
		<path class="st3" d="M91.2489929,46.2119713c-0.0030136-4.3492928-1.4125366-6.5682487-4.8934708-7.7035408
			c-4.241478-1.3833389-8.5144272,1.6865807-8.5989456,6.178669c-0.0102234,0.543541-0.0150681,1.0872078-0.0223999,1.6308098
			c-0.5506287,0.2338142-1.1012573,0.4676285-1.6518555,0.7014542c-0.8816452-4.7488518,1.5169678-8.9002304,5.9150696-10.2374535
			c4.1978531-1.276329,8.6075058,0.8315773,10.427597,4.9608383c0.7473068,1.6954727,0.568718,3.4606857,0.4847412,5.224678
			C92.3564148,46.7155495,91.8026886,46.4637604,91.2489929,46.2119713z"/>
		<path class="st3" d="M36.4763832,46.2384796c-0.8082161-1.6669617-0.1224251-3.6682434-1.6459541-5.2907104
			c-2.2034302-2.3465271-4.3802776-3.2713776-7.522892-2.3717079c-2.7483311,0.7867851-4.5202541,3.0234795-4.6943817,6.1370583
			c-0.0457153,0.817318-0.2855167,1.4145203-0.8392124,1.9456902c-0.1889973,0.2816124-0.4618282,0.3820724-0.7889175,0.365097
			c-0.6668415-4.0783844,0.4759846-7.414238,4.1950836-9.4958992c3.204731-1.7937775,6.4472466-1.5577812,9.3568592,0.6573868
			c2.8972244,2.205761,3.9500656,5.2256851,3.1983185,8.826973C37.1906357,46.9574356,36.8573952,46.5591087,36.4763832,46.2384796z
			"/>
		<path class="st3" d="M43.4144707,29.0175438c-1.4963722,0.5695-2.6239204,1.9932766-4.4055367,1.9013119
			c4.1123848-3.6138229,8.5241356-6.7335129,13.82481-8.3879986l-0.0092659-0.0153046
			c-0.0064011,0.2720947-0.0127983,0.5441895-0.0191956,0.8162842l0.0135803-0.0175247
			c-0.3833199-0.0990143-0.5650063,0.0019207-0.4216499,0.4251938l0.0237007-0.0186348
			c-0.8081169-0.2346134-1.3207855,0.1201935-1.6556091,0.8298435l0.0189705-0.0118504
			c-0.4351578-0.1728935-0.7425804-0.0910549-0.835331,0.4188824l0.0165901-0.0099277
			c-0.4261932-0.1553192-0.7401237-0.0871143-0.8341217,0.4189568l0.0140076-0.0097427
			c-1.0864487,0.1573772-2.0803299,0.4531345-2.4700241,1.6521664l0.024147-0.0181236
			c-1.505825,0.0259571-2.3830452,1.0597668-3.2872925,2.0502682L43.4144707,29.0175438z"/>
		<path class="st2" d="M48.2674789,27.5841255c-1.6100578,0.3044872-2.7313423,1.3428249-3.7404289,2.5278111
			c-0.5281754,0.6202164-0.9873466,1.3167686-2.0103302,0.9032001c-0.2864609-0.9157238,1.5133781-0.9391365,0.8977776-1.9972801
			c-0.0000267-0.0003128-0.0022469,0.0234871-0.0022469,0.0234871c1.5703392,0.0778465,2.3336525-1.1387978,3.2872925-2.0502682
			l-0.024147,0.0181122c0.9893303-0.3025684,1.9920921-0.5850525,2.4700241-1.6521549l-0.0140343,0.0097809
			c0.4446297,0.1920033,0.7636223,0.1338272,0.8341484-0.4189949l-0.0166168,0.0099659
			c0.4450035,0.1925144,0.7573738,0.1204681,0.8353577-0.4189205c0,0-0.0189705,0.0118504-0.0189972,0.0118885
			c0.7751236,0.1687889,1.344162-0.0736427,1.6556358-0.8298817l-0.0236893,0.0186348
			c0.3107529,0.0270557,0.4964561-0.0699005,0.4216385-0.4251938l-0.0135689,0.0175133
			c0.5500908-0.0175762,0.464035-0.5292473,0.6465111-0.8323383l0.0094032-0.028141
			c1.2906494,1.1473427,0.4597816,1.890995-0.5659447,2.4095268C51.2943382,25.6902237,49.6394539,26.3888721,48.2674789,27.5841255
			z"/>
		<path class="st4" d="M103.0318604,36.0115242c-0.8152924,0.0028076-1.6306763-0.0004463-2.4458618,0.0099411
			c-1.0140915,0.0129509-1.7528381-0.4272003-1.9230804-1.4373207c-0.178093-1.0567513,0.5835571-1.564743,1.4221497-1.9768753
			c0.8421783-0.4138947,1.7376404-0.2019844,2.6078644-0.2815628
			C103.2546844,33.5130272,102.9957123,34.7758484,103.0318604,36.0115242z"/>
		<path class="st3" d="M59.3941269,29.9726219c0.6711197,0.6829185,1.7084846-0.0375957,2.3850403,0.6225224
			c-5.363369-0.0000248-10.7262497-0.0000248-16.301033-0.0000248c1.7364998-0.6945076,3.5028343,0.1896954,5.070507-0.4199543
			C53.4962349,30.1073971,56.4451866,30.0400028,59.3941269,29.9726219z"/>
		<path class="st3" d="M15.6116142,42.091507c0.6040001,0.0041885,1.2080135,0.0079689,1.8120136,0.0126724
			c0.844923,0.0065956,1.4787846,0.32584,1.48032,1.2572823c0.0015335,0.9345093-0.6439152,1.2488747-1.480608,1.2656517
			c-0.603838,0.0121002-1.2080002,0.0086174-1.8119879,0.0121498C15.6114521,43.7900581,15.6115398,42.9407806,15.6116142,42.091507
			z"/>
		<path class="st3" d="M53.4612083,22.4713345l-0.0093803,0.0281639c-0.215889-0.2601948-0.4250183-0.2548065-0.6273499,0.0160542
			l0.0092659,0.0153046C53.0428391,22.5108738,53.252018,22.4911041,53.4612083,22.4713345z"/>
		<path class="st2" d="M50.5541916,29.2401943c0,0,0.014431,0.0245113,0.0148315,0.0247097L50.5541916,29.2401943z"/>
		<path class="st5" d="M25.8629284,34.7642479c-1.9604836,1.3537025-3.9248734,2.6991692-6.3878231,3.1572838
			c-0.0772362-1.0420685,0.6848145-1.5089722,1.0792751-2.1684532c0.4279118-0.2954712,1.0316505-0.3630524,1.2305527-0.953495
			l-0.0114136,0.0046158C23.1390457,35.0292931,24.4901924,33.7929802,25.8629284,34.7642479z"/>
		<path class="st3" d="M65.1199112,33.9241638c-0.4068604-0.0010986-0.8160095,0.0258179-1.2200127-0.0081482
			c-0.4675179-0.0392914-1.0566483-0.0811882-1.0162239-0.7111702c0.0357628-0.5576134,0.6092644-0.4312668,0.9780426-0.4226379
			c0.8758087,0.0204964,1.7502975,0.1003876,2.6251068,0.1595001c0.3564148,0.0240707,0.9002075-0.2719078,0.9288177,0.386013
			c0.0238266,0.5481186-0.459343,0.5822716-0.8717651,0.5943069C66.0695877,33.9358864,65.5945969,33.9252586,65.1199112,33.9241638
			z"/>
		<path class="st3" d="M25.8629284,34.7642479c-1.372736-0.9712677-2.7238827,0.2650452-4.0894089,0.0399513
			c1.5525913-1.3566589,3.4418259-1.1961021,5.4195747-1.2801476C27.091423,34.4562416,26.5807476,34.7206383,25.8629284,34.7642479
			z"/>
		<path class="st4" d="M21.7849331,34.7995834c-0.1989021,0.5904427-0.8026409,0.6580238-1.2305527,0.953495
			C20.7028885,35.0983086,21.1097088,34.7758713,21.7849331,34.7995834z"/>
		<path class="st2" d="M66.3682709,30.4582748c0.5403748-0.3004227,1.1034241-0.1922283,1.6659317-0.0922165
			C67.4957199,30.7027912,66.9357376,30.6482944,66.3682709,30.4582748z"/>
		<path class="st2" d="M64.2851868,30.5326538c0.1261826-0.0063629,0.2523651-0.0127239,0.3783493-0.0191841l-0.1861038,0.071846
			L64.2851868,30.5326538z"/>
		<path class="st6" d="M80.3109818,44.1651497c-0.1243362-0.4731064,0.0857697-0.8458099,0.3600616-1.1992455
			c0.9917831-0.0114403,1.6257553,1.0891647,2.7835388,1.0102959c-0.3322372-0.9875069-0.5340576-1.8486328-1.3833771-2.3281517
			c1.4722672-1.4450188,3.0419922-1.1192245,4.6413574-0.2555428c-0.2426071,0.8636971-1.2421036,1.4164467-1.1123276,2.5357857
			c1.0849152,0.0340271,1.6278534-1.155674,2.6543961-0.9486809c0.7110825,1.3429909,0.6967621,2.6899567,0.0221786,4.040554
			c-0.9102173,0.0565147-1.5617523-1.1511841-2.7200851-0.5023804c0.3985062,0.7190666,0.7809372,1.4091721,1.163353,2.0992622
			c-0.4266968,0.5214157-0.9765472,0.6228981-1.60112,0.4695511c-0.0180359-0.8883209,0.2200851-1.8434334-0.6769791-2.5853043
			c-0.6945419,0.7732773-0.4842148,1.8305855-0.9661407,2.6185684c-0.4661026,0.0127754-0.9158707-0.0171242-1.2069778-0.4617653
			c0.3965836-0.8176308,0.7931595-1.6352654,1.3350296-2.7524719c-1.2215195,0.4688911-2.0798187,0.7983627-2.9381104,1.1278229
			c-0.2742691-0.3538971-0.5011597-0.7216377-0.350502-1.1996803c0.8677216-0.1914558,1.7354965-0.3829079,2.6032715-0.5743637
			c-0.0001221-0.1729202-0.0002441-0.3458519-0.0003738-0.5187836
			C82.0491257,44.5488052,81.1800537,44.3569756,80.3109818,44.1651497z"/>
		<path class="st7" d="M86.7200775,48.6170464c-0.3824158-0.6900902-0.7648468-1.3801956-1.163353-2.0992622
			c1.1583328-0.6488037,1.8098679,0.5588951,2.7200851,0.5023804
			C87.9755707,47.7646523,87.4358521,48.2766609,86.7200775,48.6170464z"/>
		<path class="st7" d="M80.6657791,47.0334473c0.8582916-0.3294601,1.7165909-0.6589317,2.9381104-1.1278229
			c-0.5418701,1.1172066-0.938446,1.9348412-1.3350296,2.7524719
			C81.5220795,48.3261299,80.9915543,47.7808037,80.6657791,47.0334473z"/>
		<path class="st7" d="M83.4758377,49.1198616c0.481926-0.7879829,0.2715988-1.8452911,0.9661407-2.6185684
			c0.8970642,0.7418709,0.6589432,1.6969833,0.6769791,2.5853043
			C84.5812607,49.5923691,84.0305786,49.4564323,83.4758377,49.1198616z"/>
		<path class="st7" d="M88.254631,42.9796104c-1.0265427-0.2069931-1.5694809,0.982708-2.6543961,0.9486809
			c-0.129776-1.119339,0.8697205-1.6720886,1.1123276-2.5357857C87.4424591,41.7118034,87.9553146,42.2419701,88.254631,42.9796104z
			"/>
		<path class="st7" d="M82.0712051,41.6480484c0.8493195,0.4795189,1.0511398,1.3406448,1.3833771,2.3281517
			c-1.1577835,0.0788689-1.7917557-1.0217361-2.7835388-1.0102959
			C80.9824295,42.3615799,81.3239975,41.7893372,82.0712051,41.6480484z"/>
		<path class="st7" d="M80.3109818,44.1651497c0.869072,0.1918259,1.7381439,0.3836555,2.607193,0.57547
			c0.0001297,0.1729317,0.0002518,0.3458633,0.0003738,0.5187836c-0.867775,0.1914558-1.7355499,0.3829079-2.6032715,0.5743637
			C80.1296463,45.278038,80.1246796,44.7218475,80.3109818,44.1651497z"/>
		<path class="st7" d="M33.6486855,44.9863853c0.0022812,2.5423813-1.8375473,4.4211159-4.3209286,4.4122849
			c-2.4568901-0.0087471-4.3118725-1.9386063-4.2858543-4.458847c0.0243855-2.3606186,1.9142838-4.2857285,4.2345371-4.3133812
			C31.7484226,40.5969543,33.6464386,42.4896584,33.6486855,44.9863853z"/>
		<path class="st3" d="M46.699543,26.9910755c-0.95364,0.9114704-1.7169533,2.1281147-3.2874031,2.0503807
			C44.3164978,28.0508423,45.193718,27.0170326,46.699543,26.9910755z"/>
		<path class="st3" d="M49.1454201,25.3570328c-0.477932,1.0671024-1.4806938,1.3495865-2.4700241,1.6521549
			C47.0650902,25.8101673,48.0589714,25.51441,49.1454201,25.3570328z"/>
		<path class="st3" d="M52.4209137,23.720871c-0.3114738,0.7562389-0.8805122,0.9986706-1.6556358,0.8298817
			C51.1001282,23.8410645,51.6127968,23.4862576,52.4209137,23.720871z"/>
		<path class="st3" d="M50.7842751,24.5388641c-0.0779839,0.5393887-0.3903542,0.6114349-0.8353577,0.4189205
			C50.0416946,24.4478092,50.3491173,24.3659706,50.7842751,24.5388641z"/>
		<path class="st3" d="M52.8244781,22.5155525c0.2023315-0.2708607,0.4114609-0.2762489,0.6273499-0.0160542
			c-0.1824989,0.3030796-0.0964432,0.8147507-0.646534,0.8323269C52.8116798,23.059742,52.8180771,22.7876472,52.8244781,22.5155525
			z"/>
		<path class="st3" d="M49.9655342,24.9478188c-0.0705261,0.5528221-0.3895187,0.6109982-0.8341484,0.4189949
			C49.2254105,24.8607044,49.539341,24.7924995,49.9655342,24.9478188z"/>
		<path class="st3" d="M52.8188629,23.314312c0.0748177,0.3552933-0.1108856,0.4522495-0.4216385,0.4251938
			C52.2538567,23.3162327,52.4355431,23.2152977,52.8188629,23.314312z"/>
	</g>
</g>
</svg>
