<?xml version="1.0" encoding="utf-8"?>
<!-- Generator: Adobe Illustrator 25.4.1, SVG Export Plug-In . SVG Version: 6.00 Build 0)  -->
<svg version="1.1" id="Layer_1" xmlns="http://www.w3.org/2000/svg" xmlns:xlink="http://www.w3.org/1999/xlink" x="0px" y="0px"
	 width="120px" height="56px" viewBox="0 0 120 56" style="enable-background:new 0 0 120 56;" xml:space="preserve">
<style type="text/css">
	.st0{fill:url(#SVGID_1_);}
	.st1{fill:#BDCCD4;stroke:#726A63;stroke-width:0.25;stroke-miterlimit:10;}
	.st2{fill:#303940;}
	.st3{fill:#0A212B;}
	.st4{fill:#9DADF4;}
	.st5{fill:#FBD404;}
	.st6{fill:#111224;}
	.st7{fill:#C5C9CC;}
	.st8{fill:#B1B4B8;}
	.st9{fill:#E61E26;}
</style>
<g>
	<radialGradient id="SVGID_1_" cx="60" cy="51.9052238" r="26.6169548" gradientUnits="userSpaceOnUse">
		<stop  offset="0" style="stop-color:#B3B3B3"/>
		<stop  offset="1" style="stop-color:#726A63;stop-opacity:0.8"/>
	</radialGradient>
	<ellipse class="st0" cx="60" cy="51.9052238" rx="37.6028214" ry="1.7182807"/>
	<g>
		<path class="st1" d="M26.8614521,48.3910866c-3.5384083,0.0312805-7.0767918,0.0782089-10.6152496,0.085865
			c-1.3431377,0.0029182-2.4283495-0.688221-2.2645493-2.0449638c0.1927643-1.5964127,0.26299-3.2047234,0.4952946-4.7902298
			c0.168416-1.1495132,0.9979982-2.0969696,2.0462894-2.3836212c5.7562561-1.5739441,10.9523811-5.2166557,17.076952-5.2404175
			c5.8063278-0.0225525,10.7729416-2.1208305,15.473774-5.0830154c7.8184357-4.9267139,16.2259407-4.9526196,24.8504829-3.256897
			c8.4774551,1.6667843,16.9265976,3.4773636,25.3883896,5.2239418c3.4686356,0.7159615,4.7610779,2.1125984,5.0885315,5.613163
			c0.0705719,0.7544022,0.1384583,1.2884789,0.8520813,1.8682785c1.3471832,1.0945435,0.837616,5.9059143-0.6549759,7.0854111
			c-1.1719742,0.9261513-2.4522247,1.7150574-4.0121765,1.8377342c0.1287537-0.5296211,0.2645111-1.0570984,0.3822403-1.5885658
			c0.8673706-3.9156303-0.8045654-7.5696793-4.3292999-9.4701385c-3.2560883-1.7555962-7.2761688-1.1168098-9.9734192,1.5847473
			c-2.7139435,2.7182045-3.1370926,6.2761612-1.2567978,10.567749c-9.3878937,0.0279655-18.7758102,0.0719109-28.1637001,0.0776367
			c-5.2364388,0.0031929-10.4729271-0.0571556-15.7093925-0.0888596c0.2181587-0.5705605,0.4509392-1.1360168,0.6521873-1.7124786
			c1.6382065-4.6933327-1.0737152-9.8988266-5.7974968-11.1378479c-4.8930702-1.2834282-9.8014336,1.9265327-10.6481037,6.9371262
			C25.3840771,44.5968361,26.0451183,46.5034218,26.8614521,48.3910866z M48.1771469,32.5160561
			c0.4361229,0.0133247,0.8984871-0.0380554,1.1372528,0.4615555c-0.4135704,0.1515999-0.7943077,0.4588356-0.727375,0.8686218
			c0.0871391,0.533802,0.641407,0.367981,1.0137634,0.3582115c3.866909-0.1015434,7.7482109,0.1383324,11.5941658-0.4730263
			c3.8652344-0.1527252,7.6975403-0.554245,11.4554596-1.5173035c3.5778732-0.4132824,7.0137787-1.3578949,10.3824463-2.6417332
			c-5.1299438-1.0041733-10.0611038-2.6910152-15.2669373-2.8463459c-4.2329025-0.6713333-8.3590851-0.2672195-12.3768959,1.2285175
			c-1.9340019,0.4802399-3.5941124,1.5170307-5.2415771,2.5795155c-2.0953598,1.0719528-4.1907425,2.1439171-6.5672035,3.3596878
			C45.7836723,34.5484505,47.1189537,33.9083786,48.1771469,32.5160561z M94.6789169,31.0550461
			c-1.172554-0.2896328-2.3311615-0.6952686-3.521347-0.838501c-1.3760681-0.1655712-2.6568604-0.7634106-4.1806641-0.2627392
			c-10.7678757,3.5379353-21.8621826,5.0422039-33.1761665,5.0438747
			c-3.5376358,0.0005226-7.0754204-0.0280647-10.6127586,0.0013237c-0.4505157,0.0037422-1.1497231-0.3821754-1.3338051,0.4610291
			c-0.4555054,2.0868912,1.8023567,4.8102722,4.0069351,4.8130798c7.0073128,0.0089302,14.0147781-0.0209579,21.0218925,0.0166512
			c2.9721909,0.0159416,5.7532883-0.8829422,8.1698685-2.3567772
			C81.1134262,34.2367516,87.4227295,31.4855671,94.6789169,31.0550461z M50.677021,44.0946312
			c13.2345428,1.8262062,25.05373-2.0177612,36.0005455-9.2098083c-0.2401657-0.3410378-0.5593338-0.210453-0.8847351-0.1262093
			c-2.9839401,0.7725563-5.7333832,2.0602608-8.2898865,3.7701149c-3.625824,2.4250832-7.6911087,3.5235291-11.9452667,4.2742805
			C60.6078033,43.6765213,55.5978813,43.5986252,50.677021,44.0946312z M21.1137028,40.8926277
			c-0.0672073-0.1386909-0.1150303-0.4206505-0.234251-0.4550514c-1.1386223-0.3285408-2.2772465-0.3370209-3.2977962,0.3430557
			c-0.8880577,0.5917892-1.4324474,1.4269829-1.3598518,2.5460968c0.0109272,0.1683655,0.1817131,0.4482841,0.3102894,0.4678268
			c1.0441246,0.1587372,2.0028553-0.1739044,2.8960018-0.6658936
			C20.2891598,42.6543388,20.8469467,41.9087906,21.1137028,40.8926277z"/>
		<path class="st2" d="M38.6839294,49.2750015c-2.9882317,2.1899567-5.9863167,2.144043-8.9935303,0.039753
			c-0.5435429-0.575161-1.0871086-1.150322-1.6306496-1.7254868c-0.0692024-0.2595711-0.1058998-0.5334244-0.2126217-0.7765312
			c-1.2701187-2.8929329-0.7926369-5.6084595,1.1460075-7.9576874c1.7596989-2.132431,5.2087498-2.7339859,7.8321056-1.7168427
			c2.4765739,0.960228,4.7280731,3.9665833,4.3332901,6.8848495c-0.1618309,1.1961403-0.2718468,2.3992996-0.4054337,3.5992813
			C39.6110039,47.6068687,39.4544373,48.8252602,38.6839294,49.2750015z M30.4440174,46.0719299
			c0.2255688,0.5979881,0.544838,1.0982819,1.2487392,1.1974602c0.3732529,0.6859741,0.9709549,0.863884,1.6976051,0.7499008
			c0.5411491,0.4329376,1.0828934,0.4119339,1.6251869,0.0022087c0.5094147,0.1980019,0.8487663-0.1553574,1.228157-0.3788452
			c0.7939339-0.2852402,1.3794861-0.7898407,1.6793213-1.595211c0.4277649-0.3062592,0.4898071-0.7651215,0.5168228-1.2385979
			c0.3124619-0.6971283,0.328949-1.3936539-0.0041885-2.0894852c-0.0461769-0.4593811-0.0646133-0.930378-0.5115128-1.2220306
			c-0.324234-0.7761726-0.8487396-1.3323746-1.6909676-1.5396576c-0.4012451-0.1385422-0.8025169-0.2770729-1.2037621-0.4156151
			c-0.5519981-0.3493042-1.1032982-0.3599319-1.6538734,0.0032921c-0.7393494-0.1666794-1.2957878,0.0878029-1.6834126,0.7310448
			c-0.6809235,0.1229744-1.0174065,0.6031151-1.2428265,1.1984444
			C29.4239407,43.0060234,29.4179802,44.5383835,30.4440174,46.0719299z"/>
		<path class="st2" d="M96.7820816,49.7058067c-2.9611359,1.6445465-5.841301,1.6408653-8.6202545-0.4234085
			c-0.5498047-0.5566864-1.0996323-1.1133766-1.6494293-1.6700668c-0.2156906-0.7091751-0.4627457-1.4105415-0.6415329-2.1288986
			c-0.7031784-2.8254662,0.09729-5.3631935,2.2497482-7.1092873c2.1427155-1.7382431,4.6571503-2.5027657,7.4946518-1.0045433
			c3.6399994,1.9219131,4.9384537,5.159626,3.5477448,9.6366844C98.3693466,47.9061317,97.5757141,48.8059654,96.7820816,49.7058067
			z M88.9485779,46.036541c0.2852173,0.6818581,0.8172836,1.1196404,1.4457169,1.4621201
			c0.3929901,0.4171638,0.8409576,0.6839676,1.443573,0.5276527c0.5444183,0.3800659,1.0866089,0.432003,1.6254349-0.0110016
			c0.7477112,0.1568909,1.3272476-0.0872879,1.7398682-0.7295341c0.661438-0.1405869,0.9960251-0.6160355,1.2270355-1.1976204
			c0.4209747-0.2548714,0.4503632-0.6943855,0.5246353-1.1127281c0.2755585-0.7401733,0.248764-1.4894524,0.0675278-2.2433701
			c0.0057373-0.5216751-0.1677933-0.9564247-0.6112442-1.2602386c-0.2176895-0.6004219-0.5534744-1.0797501-1.2350464-1.2045097
			c-0.3902435-0.668663-0.9732742-0.88414-1.7139206-0.7291832c-0.5415726-0.526226-1.0886536-0.2619286-1.635643-0.0113983
			C88.6214523,40.2734108,87.3879318,43.0635643,88.9485779,46.036541z"/>
		<path class="st3" d="M40.7530708,47.6223106c0.1336136-1.199955,0.2436295-2.4031143,0.4054604-3.5992546
			c0.394783-2.9182663-1.8567162-5.9246216-4.3332901-6.8848495c-2.6233559-1.0171432-6.0724068-0.4155884-7.8321056,1.7168427
			c-1.9386444,2.3492279-2.4161263,5.0647545-1.1460075,7.9576874c0.1067219,0.2431068,0.1434193,0.5169601,0.2126217,0.7765312
			c-0.3993988,0.2672691-0.7987976,0.5345497-1.198246,0.8018188c-0.8163853-1.8876648-1.4774265-3.7942505-1.1189899-5.9153824
			c0.8466702-5.0105934,5.7550335-8.2205544,10.6481037-6.9371262c4.7237816,1.2390213,7.4357033,6.4445152,5.7974968,11.1378479
			c-0.2012482,0.5764618-0.4340286,1.1419182-0.6521606,1.7124786
			C41.0844154,48.3280067,40.8737869,48.0210724,40.7530708,47.6223106z"/>
		<path class="st3" d="M99.1630096,47.0062981c1.3907089-4.4770699,0.0922546-7.7147827-3.5477448-9.6366959
			c-2.8375015-1.4982224-5.3519363-0.7336998-7.4946518,1.0045433c-2.1524582,1.7460938-2.9529266,4.2838211-2.2497482,7.1092873
			c0.1787872,0.7183571,0.4258423,1.4197235,0.6415329,2.1288872c-0.3677673,0.2626038-0.7355881,0.5252075-1.1033783,0.7878075
			c-1.8802948-4.2915878-1.4571457-7.8495445,1.2567978-10.567749c2.6972504-2.7015572,6.7173309-3.3403435,9.9734192-1.5847473
			c3.5247345,1.9004593,5.1966705,5.5545082,4.3292999,9.4701385c-0.1177292,0.5314674-0.2534866,1.0589447-0.3822403,1.5885658
			C100.0461731,47.5133438,99.624321,47.1663322,99.1630096,47.0062981z"/>
		<path class="st4" d="M94.6789169,31.0550461c-7.2561874,0.430521-13.5654907,3.1817055-19.6260452,6.8779411
			c-2.4165802,1.473835-5.1976776,2.3727188-8.1698685,2.3567772c-7.0071144-0.0376091-14.0145798-0.0077209-21.0218925-0.0166512
			c-2.2045784-0.0028076-4.4624405-2.7261887-4.0069351-4.8130798c0.184082-0.8432045,0.8832893-0.4572868,1.3338051-0.4610291
			c3.5373383-0.0293884,7.0751228-0.0008011,10.6127586-0.0013237c11.3139839-0.0016708,22.4082909-1.5059395,33.1761665-5.0438747
			c1.5238037-0.5006714,2.8045959,0.097168,4.1806641,0.2627392C92.3477554,30.3597775,93.5063629,30.7654133,94.6789169,31.0550461
			z M69.9495926,34.1523438c-0.7879944,0.2363358-1.7683792,0.1575661-2.492363,0.8355827
			c-0.0821228,0.0769615-0.0413132,0.4572525,0.0624695,0.5335121c0.8405304,0.6174583,1.6583405,0.0440826,2.4863968-0.0953331
			c0.0658112-0.0110779,0.1336899-0.009079,0.2001038-0.0173149c0.4496155-0.0556412,1.0889053,0.0281906,1.0738831-0.6117439
			C71.2615967,34.0085258,70.5385895,34.2314148,69.9495926,34.1523438z"/>
		<path class="st2" d="M55.3890266,27.9545536c4.0178108-1.4957371,8.1439934-1.8998508,12.3768196-1.2289181
			c1.5678864,1.8828259,3.9345703,3.0552883,4.8845673,5.4884796c-3.7579193,0.9630585-7.5902252,1.3645782-11.4557114,1.5173378
			C59.7329445,31.329874,57.8087692,29.3932133,55.3890266,27.9545536z"/>
		<path class="st3" d="M55.3890266,27.9545536c2.4197426,1.4386597,4.3439178,3.3753204,5.8056755,5.7768993
			c-3.8457031,0.6113243-7.727005,0.3714485-11.593914,0.4729919c-0.3723564,0.0097694-0.9266243,0.1755905-1.0137634-0.3582115
			c-0.0669327-0.4097862,0.3138046-0.7170219,0.7274246-0.8686333c1.0215988,1.1142616,2.2697868,1.0187416,3.5115891,0.5565987
			c0.4641876-0.1727448,0.5957832-0.7134514,0.3712845-1.2155342c-0.6059837-1.3554726-1.7540359-1.5058136-3.0369263-1.3393688
			c-0.0042915-0.1483841-0.008606-0.2967548-0.0128975-0.4451389
			C51.7949142,29.4715843,53.4550247,28.4347935,55.3890266,27.9545536z"/>
		<path class="st3" d="M72.6504135,32.2141151c-0.9499969-2.4331913-3.3166809-3.6056538-4.8845673-5.4884796
			c5.2059097,0.1557312,10.1370697,1.8425732,15.2670135,2.8467464
			C79.6641922,30.8562202,76.2282867,31.8008327,72.6504135,32.2141151z"/>
		<path class="st4" d="M50.677021,44.0946312c4.9208603-0.496006,9.9307823-0.4181099,14.8806572-1.2916222
			c4.254158-0.7507515,8.3194427-1.8491974,11.9452667-4.2742805c2.5565033-1.7098541,5.3059464-2.9975586,8.2898865-3.7701149
			c0.3254013-0.0842438,0.6445694-0.2148285,0.8847351,0.1262093C75.730751,42.07687,63.9115639,45.9208374,50.677021,44.0946312z"
			/>
		<path class="st5" d="M21.1137028,40.8926277c-0.2667561,1.0161629-0.824543,1.7617111-1.6856079,2.2360344
			c-0.8931465,0.4919891-1.8518772,0.8246307-2.8960018,0.6658936c-0.1285763-0.0195427-0.2993622-0.2994614-0.3102894-0.4678268
			c-0.0725956-1.1191139,0.4717941-1.9543076,1.3598518-2.5460968c1.0205498-0.6800766,2.159174-0.6715965,3.2977962-0.3430557
			C20.9986725,40.4719772,21.0464954,40.7539368,21.1137028,40.8926277z"/>
		<path class="st3" d="M50.1603966,30.9792957c1.2828903-0.1664448,2.4309425-0.0161037,3.0369263,1.3393688
			c0.2244987,0.5020828,0.0929031,1.0427895-0.3712845,1.2155342c-1.2418022,0.4621429-2.4899902,0.557663-3.5115891-0.5565987
			c-0.2388153-0.4995995-0.7011795-0.4482193-1.1375771-0.46138C48.645874,31.7562523,49.528965,31.5301704,50.1603966,30.9792957z"
			/>
		<path class="st6" d="M50.1603966,30.9792957c-0.6314316,0.5508747-1.5145226,0.7769566-1.9835243,1.5369244
			c-1.0579185,1.3921585-2.3931999,2.0322304-4.5966263,1.3775368c2.376461-1.2157707,4.4718437-2.287735,6.5672264-3.3596382
			C50.1517906,30.6825409,50.156105,30.8309116,50.1603966,30.9792957z"/>
		<path class="st7" d="M36.2437057,47.6426544c-0.3793907,0.2234879-0.7187424,0.5768471-1.228157,0.3788567
			c-0.0020218-0.9759827-0.2659569-1.8588257-0.8426285-2.7880096c-0.6361694,0.9668655-0.8836403,1.8293762-0.7825584,2.7857895
			c-0.7266502,0.1139832-1.3243523-0.0639267-1.6975307-0.749939c0.9705067-0.5184822,1.2672977-1.3834038,1.4375362-2.4640617
			c-1.2215958,0.0552063-1.883337,0.8055191-2.6863499,1.2666397c-1.0260372-1.5335464-1.0200768-3.0659065,0.0053139-4.5970535
			c0.9235058,0.2548676,1.5146465,1.32444,2.7379894,1.2001038c-0.3209419-1.0291061-0.5293732-1.946701-1.4951878-2.3985863
			c0.3876247-0.6432419,0.9440632-0.8977242,1.6834126-0.7310791c-0.0436096,0.981945,0.1057968,1.895298,1.0324249,2.9362144
			c0.2506142-1.1854477,0.4360428-2.0624542,0.6214485-2.9394722c0.4012451,0.1385422,0.8025169,0.2770729,1.2037621,0.4156036
			c-0.0426598,0.9714775-1.0149384,1.675602-0.909565,2.772316c1.1275482-0.0727196,1.722332-0.948391,2.6005325-1.2326469
			c0.4468994,0.2916527,0.4653358,0.7626495,0.5112114,1.2220459c-0.6833916,0.5908775-2.2685127-0.0075874-2.2410736,1.1470299
			c0.0179863,0.7564507,1.4084473,0.7571716,2.2455635,0.94244c-0.0270157,0.4734764-0.0890579,0.9323387-0.5168228,1.2385864
			c-0.8573227-0.3988152-1.475132-1.4118309-2.7031364-1.0997581C35.5823898,45.9019051,35.913063,46.7722855,36.2437057,47.6426544
			z"/>
		<path class="st8" d="M36.2437057,47.6426544c-0.3306427-0.870369-0.6613159-1.7407494-1.0238152-2.6949806
			c1.2280045-0.3120728,1.8458138,0.700943,2.7031364,1.0997581C37.6231918,46.8528137,37.0376396,47.3574142,36.2437057,47.6426544
			z"/>
		<path class="st8" d="M33.3903618,48.0192909c-0.1010818-0.9564133,0.146389-1.818924,0.7825584-2.7857895
			c0.5766716,0.929184,0.8406067,1.812027,0.8426285,2.7880096C34.4732552,48.4312248,33.9315109,48.4522285,33.3903618,48.0192909z
			"/>
		<path class="st8" d="M30.4440174,46.0719299c0.8030128-0.4611206,1.4647541-1.2114334,2.6863499-1.2666397
			c-0.1702385,1.080658-0.4670296,1.9455795-1.4375362,2.4640617
			C30.9888554,47.1702118,30.6695862,46.6699181,30.4440174,46.0719299z"/>
		<path class="st8" d="M37.9241486,41.4973297c-0.8782005,0.284256-1.4729843,1.1599274-2.6005325,1.2326469
			c-0.1053734-1.096714,0.8669052-1.8008385,0.909565-2.772316C37.0754089,40.1649551,37.5999146,40.7211571,37.9241486,41.4973297z
			"/>
		<path class="st8" d="M38.4398499,44.8088455c-0.8371162-0.1852684-2.2275772-0.1859894-2.2455635-0.94244
			c-0.0274391-1.1546173,1.557682-0.5561523,2.2410736-1.1470299
			C38.7687988,43.4151917,38.7523117,44.1117172,38.4398499,44.8088455z"/>
		<path class="st8" d="M31.6921329,40.2763939c0.9658146,0.4518852,1.1742458,1.3694801,1.4951878,2.3985863
			c-1.2233429,0.1243362-1.8144836-0.9452362-2.7379894-1.2001038
			C30.6747265,40.879509,31.0112095,40.3993683,31.6921329,40.2763939z"/>
		<path class="st8" d="M35.0294189,39.542057c-0.1854057,0.877018-0.3708344,1.7540245-0.6214485,2.9394722
			c-0.9266281-1.0409164-1.0760345-1.9542694-1.0324249-2.9362144
			C33.9261208,39.1821251,34.4774208,39.1927528,35.0294189,39.542057z"/>
		<path class="st7" d="M96.9548416,44.9754143c-0.0742722,0.4183578-0.1036606,0.857872-0.5246887,1.1126785
			c-0.904892-0.2944221-1.511673-1.2555733-2.7935638-1.2467308c0.3513718,1.0506744,0.5522919,1.9830742,1.5665817,2.444416
			c-0.4126205,0.6422462-0.992157,0.886425-1.7398682,0.729557c0.0779343-0.9313889-0.090477-1.7906075-0.7733765-2.7025146
			c-0.5167999,0.9418182-0.8977356,1.7523804-0.8520584,2.7134933c-0.6026154,0.1563148-1.0505829-0.1104889-1.4429245-0.5280266
			c0.4354019-0.8059311,0.8701477-1.6114883,1.3994675-2.5922852c-1.282341,0.0985527-1.9961472,0.7793007-2.8458328,1.1305389
			c-1.5606461-2.9729767-0.3271255-5.7631302,2.8779373-6.5098267c0.0198135,0.9719429,0.2812271,1.8570824,0.8519363,2.7892685
			c0.6440048-0.9626732,0.8849869-1.8239479,0.7837067-2.7778549c0.7406464-0.1549568,1.3236771,0.0605202,1.7138443,0.7292213
			c-0.7011261,0.6609154-1.3748169,1.3357773-1.4244614,2.4419708c1.2149124-0.0054398,1.8565674-0.7853012,2.659584-1.2374992
			c0.4434509,0.3038139,0.6169815,0.7385635,0.6112671,1.2602272c-0.7953262,0.4079056-2.2997742,0.1090927-2.3760071,0.9777145
			c-0.1037292,1.1822166,1.6347885,0.2920914,2.1649628,1.128994
			C96.8456497,44.8928909,96.9064178,44.9302483,96.9548416,44.9754143z"/>
		<path class="st8" d="M91.8378677,48.0263138c-0.0456772-0.961113,0.3352585-1.7716751,0.8520584-2.7134933
			c0.6828995,0.9119072,0.8513107,1.7711258,0.7733765,2.7025146
			C92.9244766,48.4583168,92.3822861,48.4063797,91.8378677,48.0263138z"/>
		<path class="st8" d="M95.2031708,47.285778c-1.0142899-0.4613419-1.21521-1.3937416-1.5665817-2.444416
			c1.2818909-0.0088425,1.8886719,0.9523087,2.7935638,1.2467308C96.1991959,46.6697426,95.8646088,47.1451912,95.2031708,47.285778
			z"/>
		<path class="st8" d="M93.4621582,39.5381279c0.1012802,0.953907-0.1397018,1.8151817-0.7837067,2.7778549
			c-0.5707092-0.9321861-0.8321228-1.8173256-0.8519363-2.7892685
			C92.3735046,39.2761993,92.9205856,39.0119019,93.4621582,39.5381279z"/>
		<path class="st8" d="M96.4111252,41.4718208c-0.8030167,0.452198-1.4446716,1.2320595-2.659584,1.2374992
			c0.0496445-1.1061935,0.7233353-1.7810555,1.4244614-2.4419708
			C95.8576508,40.3920708,96.1934357,40.8713989,96.4111252,41.4718208z"/>
		<path class="st8" d="M96.9548416,44.9754143c-0.0484238-0.045166-0.1091919-0.0825233-0.1434937-0.1366577
			c-0.5301743-0.8369026-2.268692,0.0532227-2.1649628-1.128994c0.0762329-0.8686218,1.5806808-0.569809,2.3760071-0.9777145
			C97.2036057,43.4859772,97.2304001,44.2352562,96.9548416,44.9754143z"/>
		<path class="st8" d="M88.9485779,46.036541c0.8496857-0.3512383,1.5634918-1.0319862,2.8458328-1.1305389
			c-0.5293198,0.9807968-0.9640656,1.7863541-1.3994675,2.5922852C89.7658615,47.1561813,89.2337952,46.718399,88.9485779,46.036541
			z"/>
		<path class="st9" d="M69.9495926,34.1523438c0.5889969,0.079071,1.3120041-0.1438179,1.3304901,0.6447029
			c0.0150223,0.6399345-0.6242676,0.5561028-1.0738831,0.6117439c-0.0664139,0.0082359-0.1342926,0.006237-0.2001038,0.0173149
			c-0.8280563,0.1394157-1.6458664,0.7127914-2.4863968,0.0953331c-0.1037827-0.0762596-0.1445923-0.4565506-0.0624695-0.5335121
			C68.1812134,34.3099098,69.1615982,34.3886795,69.9495926,34.1523438z"/>
	</g>
</g>
</svg>
