<?xml version="1.0" encoding="utf-8"?>
<!-- Generator: Adobe Illustrator 25.4.1, SVG Export Plug-In . SVG Version: 6.00 Build 0)  -->
<svg version="1.1" id="Layer_1" xmlns="http://www.w3.org/2000/svg" xmlns:xlink="http://www.w3.org/1999/xlink" x="0px" y="0px"
	 width="120px" height="56px" viewBox="0 0 120 56" style="enable-background:new 0 0 120 56;" xml:space="preserve">
<style type="text/css">
	.st0{fill:url(#SVGID_1_);}
	.st1{fill:#303940;}
	.st2{fill:#0A212B;}
	.st3{fill:#EC5B2A;}
	.st4{fill:#BDCCD4;stroke:#726A63;stroke-width:0.25;stroke-miterlimit:10;}
	.st5{fill:#FBD404;}
	.st6{fill:#C5C9CC;}
	.st7{fill:#B1B4B8;}
	.st8{fill:#797A7D;}
	.st9{fill:#253E87;}
</style>
<g>
	<radialGradient id="SVGID_1_" cx="60.1915207" cy="51.9052238" r="24.9075394" gradientUnits="userSpaceOnUse">
		<stop  offset="0" style="stop-color:#B3B3B3"/>
		<stop  offset="1" style="stop-color:#726A63;stop-opacity:0.8"/>
	</radialGradient>
	<ellipse class="st0" cx="60.1915207" cy="51.9052238" rx="35.1826439" ry="1.7182807"/>
	<g>
		<path class="st1" d="M34.0041389,50.2788925c-2.8773232,1.9906349-5.8393822,2.0292244-8.8744297,0.3852158
			c-1.0842209-1.2758904-2.1747437-2.5479927-2.5717697-4.2406616c-0.0085487-0.5441284,0.014719-1.0909348-0.0307312-1.6319695
			c-0.3580513-4.262104,4.8790951-7.9245377,8.9043331-6.393486c3.7490578,1.4259834,4.7096748,4.3286362,4.9924774,7.8117867
			C35.6173897,47.5661507,34.8107567,48.9225197,34.0041389,50.2788925z M33.4788017,45.795948
			c0.1814156-0.5484695,0.2171135-1.0964508-0.0054131-1.6435852c0.079731-0.466156-0.1113319-0.852932-0.3586121-1.2232285
			c-0.293354-0.6172218-0.6452751-1.173439-1.3830376-1.3277359c-1.7866802-1.3824005-3.7874794-1.2687302-5.3835049,0.3058739
			c-1.6379566,1.6159325-1.7974415,3.5800705-0.4350948,5.3582802c0.1529274,0.6409225,0.5350285,1.0782661,1.1570091,1.302536
			c0.405592,0.5659447,0.9756393,0.6001205,1.5897961,0.4916534c0.539978,0.4946442,1.0887051,0.3730659,1.6406689,0.0232887
			c0.6322269,0.0377197,1.1732521-0.0992165,1.4438667-0.7539825c0.7322731-0.1602325,1.1048393-0.6940193,1.3800583-1.3289032
			C33.3947067,46.6434898,33.6295547,46.2764359,33.4788017,45.795948z"/>
		<path class="st1" d="M94.8495865,49.8383713c-3.5205612,2.8759956-6.7229767,2.7540665-10.1847229-0.3877487
			c-0.8054886-0.9268265-1.1395798-2.0944252-1.6262817-3.1840668c-0.0036545-0.4739151-0.0217438-0.9482155-0.0085907-1.421669
			c0.0776367-2.7940712,1.9889603-5.4642792,4.5474777-6.3647575c2.8471603-1.0020676,5.4637222-0.2815628,7.5117645,1.9907036
			c1.4924622,1.6558495,1.6020355,3.8093948,2.211525,5.7858086C96.0142746,47.1292953,96.0549164,48.9101715,94.8495865,49.8383713
			z M89.1722488,40.7251549c-2.0172882,0.2817993-3.1134415,1.5798454-3.5192795,3.4389954
			c-0.5054169,2.3153152,1.0614014,4.6232109,3.3144302,5.092186c2.3487778,0.4888954,4.6313095-0.9047585,5.1924057-3.1703682
			c0.6143646-2.4807129-0.6826172-4.5324173-3.3888931-5.3608627C90.2380142,40.350502,89.7051239,40.3569641,89.1722488,40.7251549
			z"/>
		<path class="st2" d="M98.5606232,46.9422379c-0.6099854,0.1300049-0.9299927-0.289978-1.2600098-0.6900024
			c-0.6099854-1.9700317-0.7199707-4.1300049-2.2099609-5.7800293c-2.0500488-2.2699585-4.6700439-2.9899902-7.5100098-1.9899902
			c-2.5599976,0.9000244-4.4700317,3.5700073-4.5500488,6.3600464c-0.0099487,0.4799805,0,0.9499512,0.0100098,1.4199829
			c-0.5599976,0.25-1.1099854,0.5-1.6699829,0.75c-0.25-3.0900269,0.1799927-5.8900146,2.6099854-8.2000122
			c2.7300415-2.5900269,5.8300171-3.1300049,9.1799927-1.7999878c3.3800049,1.3399658,5.1700439,4.0299683,5.4000244,7.6900024
			C98.610611,45.4522476,98.5706329,46.2022476,98.5606232,46.9422379z"/>
		<path class="st2" d="M38.0606232,44.7622452c0,0.7699585-0.1799927,1.4699707-0.8699951,1.9400024
			c-0.2600098-0.1600342-0.5100098-0.3300171-0.7700195-0.4899902c-0.2799683-3.4900513-1.2399902-6.3900146-4.9899921-7.8099976
			c-4.0200195-1.5400391-9.2600098,2.1299438-8.9000244,6.3899536c0.0400391,0.5400391,0.0200195,1.0900269,0.0300293,1.6300049
			c-0.5599976,0.1900024-1.1300049,0.3900146-1.6900024,0.5800171c-0.0499878-2.1599731-0.1500244-4.2700195,1.039978-6.289978
			c1.8200073-3.0900269,5.8099976-5.0200195,9.1500244-4.1700439C35.0506134,37.5722427,38.0706329,41.102211,38.0606232,44.7622452
			z"/>
		<path class="st3" d="M100.6706085,33.4722061c-1.0799561,0.0300293-2.1599731,0.0700073-3.2399902,0.0800171
			c-1.1900024,0.0200195-2.1799927-0.25-2.2000122-1.7199726c-0.0199585-1.4200439,0.8699951-1.8500366,2.1000366-1.9000244
			c0.1999512,0,0.3999634-0.0299683,0.5999756-0.0499878C99.0606232,30.9122066,99.9806061,32.102211,100.6706085,33.4722061z"/>
		<path class="st2" d="M18.8505993,43.3222427c0,0.8300171-0.7399902,1.2099609-1.5299683,1.25
			c-0.6699829,0.0200195-1.2600098,0.0299683-2.2600088,0.039978v-2.5700073
			c0.999999,0.0100098,1.5900259,0.0100098,2.2600088,0.0400391C18.1106091,42.1122208,18.8505993,42.5022354,18.8505993,43.3222427
			z"/>
		<path class="st2" d="M97.1206207,29.0022335c-1.4099731-0.1099854-2.5100098-0.8099976-3.4199829-1.8099976
			c-0.7200317-0.7999878-0.210022-0.9899902,0.5499878-1.0100098
			C95.2205963,27.1122189,96.3806305,27.8422604,97.1206207,29.0022335z"/>
		<path class="st4" d="M104.2606354,38.7822037c-1.3500366-1.6899414-2.1699829-3.6899414-3.5900269-5.3099976
			c-1.0799561,0.0300293-2.1599731,0.0700073-3.2399902,0.0800171c-1.1900024,0.0200195-2.1799927-0.25-2.2000122-1.7199726
			c-0.0199585-1.4200439,0.8699951-1.8500366,2.1000366-1.9000244c0.1999512,0,0.3999634-0.0299683,0.5999756-0.0499878
			c-0.2700195-0.289978-0.539978-0.5900269-0.8099976-0.8800049c-1.4099731-0.1099854-2.5100098-0.8099976-3.4199829-1.8099976
			c-0.7200317-0.7999878-0.210022-0.9899902,0.5499878-1.0100098c0.2600098-0.5299683,1.4199829-1.4000244-0.1199951-1.4400024
			c-2.8300171-0.0700073-5.0700073-1.8300171-7.7399902-2.3399658c-4.4899902-0.8800049-9.0200195-1.3200073-13.5800171-1.4300537
			c-4.7600098-0.1099854-9.5599976-0.2199707-14.2199707,0.9000244c-5.6400146,1.3599854-10.5500488,4.2800293-15.1100464,7.8099976
			c-0.8299561,0.6400146-1.6499634,1.039978-2.7299805,1.1199951c-4.8900146,0.3300171-9.7700214,0.7600098-14.6599751,1.1300049
			c-4.0900269,0.2999897-7.4200439,1.6799946-8.8300171,5.9500141c-0.1000366,0.2999878-0.2700195,0.6900024-0.5200195,0.8200073
			c-1.4899893,0.75-1.3800039,2.0199585-1.1799917,3.3399658c0.669982,0.0100098,1.3400259,0.0100098,2.0100088,0.0400391
			c0.789978,0.0299683,1.2799683,0.4199829,1.2799683,1.2399902c0,0.8300171-0.4899902,1.2099609-1.2799683,1.25
			c-0.6699829,0.0200195-1.3400269,0.0299683-2.0100088,0.039978c-0.3300171,1.7300415,0.4799795,2.5100098,2.1400137,2.5100098
			c1.0599976,0,2.1199951-0.0800171,3.1699829-0.1199951c-0.0499878-2.1599731-0.1500244-4.2700195,1.039978-6.289978
			c1.8200073-3.0900269,5.8099976-5.0200195,9.1500244-4.1700439c3.9899921,1.0300293,7.0100117,4.5599976,7.0000019,8.2200317
			c0,0.7699585-0.1799927,1.4699707-0.8699951,1.9400024c0.4400024,0.6199951,1.0999756,0.4299927,1.6799927,0.4299927
			c13.8300171,0.0100098,27.6699829,0,41.5-0.0100098c0.3400269,0,0.6699829-0.0700073,1-0.1099854
			c-0.25-3.0900269,0.1799927-5.8900146,2.6099854-8.2000122c2.7300415-2.5900269,5.8300171-3.1300049,9.1799927-1.7999878
			c3.3800049,1.3399658,5.1700439,4.0299683,5.4000244,7.6900024c0.0499878,0.75,0.0100098,1.5,0,2.2399902
			c1.4699707-0.0200195,2.75-0.6099854,3.9400024-1.3900146C104.6406403,44.1322403,105.7406158,40.6422501,104.2606354,38.7822037z
			 M25.5406017,34.2322159c-2,1.5100098-4.0999756,2.7999878-6.7199707,3.3300171
			c0.1699829-1.7199707,1.4599609-2.2999878,2.5200195-3.0700073c1.4399414-1.6499634,3.3699951-1.3099976,5.3399658-1.3800049
			C26.6306286,33.9422379,26.1806164,34.1922379,25.5406017,34.2322159z M81.6306305,33.1822281
			c-0.7399902-0.2399902-2.0800171,0.3699951-2.0900269-0.5800171c-0.0199585-1.2799702,1.3699951-0.6599751,2.1000366-0.6599751
			c0.8200073-0.0100098,2.2999878-0.5700073,2.2699585,0.7399921C83.8806305,33.5722427,82.40065,32.9122086,81.6306305,33.1822281z
			 M64.2006378,33.9322281c-0.2700195,0.039978-0.5400391,0.0100098-0.960022,0.0100098
			c-0.6099854-0.3400269-2.0999756,0.6599731-2.1300049-0.75c-0.0299683-1.3200092,1.4100342-0.7999878,2.2700195-0.9100342
			c0.2700195-0.039978,0.539978-0.0299683,0.8099976,0c0.6699829,0.0700073,1.6799927-0.2699585,1.5999756,0.9200439
			C65.7306061,34.1922379,64.8106232,33.8622208,64.2006378,33.9322281z M61.3506012,23.2622433
			c2.0400391-0.8099976,4.1500244-0.2900391,6.2300415-0.3300171c0.8800049-0.0200195,0.789978,0.75,0.6300049,1.3800049
			c-0.4500122,1.7800293-0.9900513,3.5200195-1.8300171,5.1500244c-0.1699829,0.8199463-0.8099976,0.7799683-1.4299927,0.789978
			c-3.5800171,0.0599976-7.1799927-0.1300049-10.7399902,0.4099731c-2.2600098,0.3400269-4.1199951-0.3299561-5.7800293-2.1799927
			C52.3706207,25.8622189,56.5606232,23.8522091,61.3506012,23.2622433z M89.4506378,26.9522457
			c-0.2000122,1.4899902-1.3300171,2.3099976-2.8300171,2.4899902c-3.2199707,0.3900146-6.460022,0.5200195-9.710022,0.3699951
			c-1.6799927,0.0200195-3.3499756-0.0100098-5.0199585,0.0800171c-1.460022,0.0799561-1.7300415-0.6000366-1.460022-1.8500366
			c0.289978-1.2999878,0.5100098-2.6099854,0.75-3.9199829c-0.1199951-1.0200195,0.4400024-1.2299805,1.3400269-1.2600098
			c5.0499878-0.1300049,9.9899902,0.4800415,14.789978,2.0800171C88.3206329,25.272253,89.6406403,25.5522213,89.4506378,26.9522457
			z"/>
		<path class="st2" d="M89.4506378,26.9522457c-0.2000122,1.4899902-1.3300171,2.3099976-2.8300171,2.4899902
			c-3.2199707,0.3900146-6.460022,0.5200195-9.710022,0.3699951c-1.4599609-2.3499756-3.3299561-4.2800293-5.7299805-5.6900024
			c-0.1199951-1.0200195,0.4400024-1.2299805,1.3400269-1.2600098c5.0499878-0.1300049,9.9899902,0.4800415,14.789978,2.0800171
			C88.3206329,25.272253,89.6406403,25.5522213,89.4506378,26.9522457z"/>
		<path class="st2" d="M66.3806305,29.4622555c-0.1699829,0.8199463-0.8099976,0.7799683-1.4299927,0.789978
			c-3.5800171,0.0599976-7.1799927-0.1300049-10.7399902,0.4099731c-2.2600098,0.3400269-4.1199951-0.3299561-5.7800293-2.1799927
			c3.9400024-2.6199951,8.1300049-4.6300049,12.9199829-5.2199707c0.0200195,1.0299683,0.9200439,1.4400024,1.4700317,2.0999756
			C63.9806061,26.7622433,65.6706085,27.6922359,66.3806305,29.4622555z"/>
		<path class="st1" d="M68.2106476,24.3122311c-0.4500122,1.7800293-0.9900513,3.5200195-1.8300171,5.1500244
			c-0.710022-1.7700195-2.4000244-2.7000122-3.5599976-4.1000366c-0.5499878-0.6599731-1.4500122-1.0700073-1.4700317-2.0999756
			c2.0400391-0.8099976,4.1500244-0.2900391,6.2300415-0.3300171
			C68.4606476,22.9122066,68.3706207,23.6822262,68.2106476,24.3122311z"/>
		<path class="st1" d="M76.9105988,29.8122311c-1.6799927,0.0200195-3.3499756-0.0100098-5.0199585,0.0800171
			c-1.460022,0.0799561-1.7300415-0.6000366-1.460022-1.8500366c0.289978-1.2999878,0.5100098-2.6099854,0.75-3.9199829
			C73.5806427,25.5322018,75.4506378,27.4622555,76.9105988,29.8122311z"/>
		<path class="st5" d="M25.5406017,34.2322159c-2,1.5100098-4.0999756,2.7999878-6.7199707,3.3300171
			c0.1699829-1.7199707,1.4599609-2.2999878,2.5200195-3.0700073
			C22.7306042,34.2722549,24.0906506,33.4822159,25.5406017,34.2322159z"/>
		<path class="st2" d="M26.6806164,33.1122208c-0.0499878,0.8300171-0.5,1.0800171-1.1400146,1.1199951
			c-1.4499512-0.75-2.8099976,0.0400391-4.1999512,0.2600098C22.780592,32.8422623,24.7106457,33.1822281,26.6806164,33.1122208z"/>
		<path class="st6" d="M31.7444801,48.3290482c-0.2706146,0.6547661-0.8116398,0.7917023-1.4438629,0.7539558
			c-0.1823559-0.8178444-0.2560043-1.6853065-0.9574623-2.3066597c-0.7431011,0.6753387-0.7307034,1.4744606-0.6832104,2.2833977
			c-0.6141567,0.1084671-1.1842041,0.0742912-1.5898018-0.4916382c0.4404507-0.787487,1.3482723-1.4099846,0.9836807-2.636982
			c-0.7954884,0.4958801-1.4680862,0.9151497-2.1406841,1.3344307c-1.3623466-1.7782097-1.2028618-3.7423477,0.4350948-5.3582802
			c1.5960255-1.574604,3.5968246-1.6882744,5.3830204-0.3056488c-0.8980732,0.4928627-1.0474854,1.3785896-1.4926052,2.4356232
			c1.1706409-0.4510269,2.0233822-0.7795639,2.8761272-1.1081123c0.2472801,0.3702965,0.438343,0.7570724,0.3581963,1.2230186
			c-0.964325-0.0811653-1.831255,0.1407967-2.6794319,0.7996445c0.8391895,0.7271614,1.7355576,0.868187,2.6852608,0.8441505
			c0.150753,0.4804878-0.084095,0.8475418-0.3542442,1.2041969c-0.9786491-0.0161552-1.6699905-1.0219231-2.8074665-0.883831
			C30.7166328,47.0013161,30.8710289,47.8926659,31.7444801,48.3290482z"/>
		<path class="st7" d="M33.4788017,45.795948c-0.9497032,0.0240364-1.8460712-0.1169891-2.6852608-0.8441505
			c0.848177-0.6588478,1.715107-0.8808098,2.6794319-0.7996445C33.6959152,44.6994972,33.6602173,45.2474785,33.4788017,45.795948z"
			/>
		<path class="st7" d="M33.1147766,42.9291344c-0.8527451,0.3285484-1.7054863,0.6570854-2.8761272,1.1081123
			c0.4451199-1.0570335,0.594532-1.9427605,1.4926052-2.4356232C32.4695015,41.7556953,32.8214226,42.3119125,33.1147766,42.9291344
			z"/>
		<path class="st7" d="M31.7444801,48.3290482c-0.8734512-0.4363823-1.0278473-1.3277321-1.4273891-2.2127342
			c1.137476-0.138092,1.8288174,0.8676758,2.8074665,0.883831C32.8493195,47.6350288,32.4767532,48.1688156,31.7444801,48.3290482z"
			/>
		<path class="st7" d="M28.6599445,49.059742c-0.047493-0.8089371-0.0598907-1.6080589,0.6832104-2.2833977
			c0.701458,0.6213531,0.7751064,1.4888153,0.9574623,2.3066597C29.7486496,49.4328079,29.1999226,49.5543861,28.6599445,49.059742z
			"/>
		<path class="st7" d="M25.9131393,47.2655525c0.6725979-0.419281,1.3451958-0.8385506,2.1406841-1.3344307
			c0.3645916,1.2269974-0.5432301,1.8494949-0.9836807,2.636982C26.4481678,48.3438187,26.0660667,47.9064751,25.9131393,47.2655525
			z"/>
		<path class="st7" d="M90.7709045,40.7251053c2.7062836,0.8284454,4.0032654,2.8801498,3.3889008,5.3608627
			c-0.5610962,2.2656097-2.8436279,3.6592636-5.1924057,3.1703682c-2.2530289-0.4689751-3.8198471-2.7768707-3.3144302-5.092186
			c0.405838-1.8591499,1.5019913-3.157196,3.5191803-3.438797c0.0960159,0.8302307,0.1809845,1.6640434,0.8909454,2.5381165
			C90.3297272,42.3072586,90.5503235,41.5161819,90.7709045,40.7251053z"/>
		<path class="st8" d="M90.7709045,40.7251053c-0.2205811,0.7910767-0.4411774,1.5821533-0.7078094,2.5383644
			c-0.7099609-0.874073-0.7949295-1.7078857-0.8909454-2.5381165C89.7051239,40.3569641,90.2380142,40.350502,90.7709045,40.7251053
			z"/>
		<path class="st9" d="M65.7906036,33.2022476c-0.0599976,0.9899902-0.9799805,0.6599731-1.5899658,0.7299805
			c-0.2700195,0.039978-0.5400391,0.0100098-0.960022,0.0100098c-0.6099854-0.3400269-2.0999756,0.6599731-2.1300049-0.75
			c-0.0299683-1.3200092,1.4100342-0.7999878,2.2700195-0.9100342c0.2700195-0.039978,0.539978-0.0299683,0.8099976,0
			C64.860611,32.352211,65.8706207,32.0122452,65.7906036,33.2022476z"/>
		<path class="st1" d="M83.9105988,32.6822281c-0.0299683,0.8900146-1.5099487,0.2299805-2.2799683,0.5
			c-0.7399902-0.2399902-2.0800171,0.3699951-2.0900269-0.5800171c-0.0199585-1.2799702,1.3699951-0.6599751,2.1000366-0.6599751
			C82.4606476,31.9322262,83.9406281,31.3722286,83.9105988,32.6822281z"/>
	</g>
</g>
</svg>
