<?xml version="1.0" encoding="utf-8"?>
<!-- Generator: Adobe Illustrator 25.4.1, SVG Export Plug-In . SVG Version: 6.00 Build 0)  -->
<svg version="1.1" id="Layer_1" xmlns="http://www.w3.org/2000/svg" xmlns:xlink="http://www.w3.org/1999/xlink" x="0px" y="0px"
	 width="120px" height="56px" viewBox="0 0 120 56" style="enable-background:new 0 0 120 56;" xml:space="preserve">
<style type="text/css">
	.st0{fill:url(#SVGID_1_);}
	.st1{fill:#BDCCD4;stroke:#726A63;stroke-width:0.25;stroke-miterlimit:10;}
	.st2{fill:#303940;}
	.st3{fill:#0A212B;}
	.st4{fill:#EC5B2A;}
	.st5{fill:#FBD404;}
	.st6{fill:#797A7D;}
	.st7{fill:#C5C9CC;}
	.st8{fill:#B1B4B8;}
</style>
<g>
	<radialGradient id="SVGID_1_" cx="60.0000496" cy="51.9052238" r="17.4333878" gradientUnits="userSpaceOnUse">
		<stop  offset="0" style="stop-color:#B3B3B3"/>
		<stop  offset="1" style="stop-color:#726A63;stop-opacity:0.8"/>
	</radialGradient>
	<ellipse class="st0" cx="60.0000496" cy="51.9052238" rx="24.5945816" ry="1.7182807"/>
	<g>
		<path class="st1" d="M85.8431625,27.9068718c0.4800491,0.4923496,0.3340683,1.1245003,0.3824005,1.7131138
			c-1.1447067-0.0059147-2.3686752,0.0806789-2.280159,1.5959549c0.079071,1.3536892,1.285614,1.3562527,2.324173,1.3747883
			c0.1990051,0.0035782,0.3992538-0.062809,0.5989227-0.0969276c0.1791687,1.0387955,0.6085205,1.891861,1.3394547,2.7196655
			c1.6248779,1.8401985,2.2039948,4.1352272,2.1317902,6.5509911c-0.0516968,1.729538-0.8672256,2.5785942-2.4134216,2.8359108
			c-0.4705429-3.6626778-3.9276276-6.2950897-7.7006302-5.8635178c-4.0513382,0.4634323-7.1315918,4.5285873-6.0512314,7.9860916
			c-0.352417,0.4821167-0.8746338,0.3167992-1.3309021,0.3174095c-8.266037,0.0111427-16.5320969,0.0123138-24.7981491,0.0036049
			c-0.4565964-0.0004845-0.9786491,0.1641235-1.3319969-0.3166466c0.5320511-2.7355843-0.6184311-5.2974243-3.0884933-6.8772087
			c-2.4916687-1.5935936-5.6070786-1.5244904-8.0129585,0.1777344c-2.3813591,1.6848335-3.4670448,4.4070625-2.6497459,6.6439285
			c-1.5284367,0.8948784-2.5965405,0.3128624-2.9407349-1.2326736c-0.4660454-2.0926933-0.8290577-4.2846489,1.1473732-5.9533615
			c0.3384876-0.2858543,0.5754147-0.6074257,0.5299644-1.0613365c-0.3514442-3.5100555,1.9155655-5.5360603,4.5491028-6.7835064
			c5.4081535-2.5616608,9.8287392-6.4702072,14.3527985-10.1644917c3.9193611-3.2005157,8.2444725-4.8309193,13.0736389-5.1299992
			c4.371006-0.2707214,8.7482948-0.2996883,13.1191063,0.8944969c1.9712601,0.5385532,4.2048645,0.3100986,6.1977692,1.2612324
			c-0.3867722,0.856493-1.1919785,0.4889965-1.7976151,0.6602039c-0.7689972,0.5730782-0.3516922,1.2669945-0.101593,1.8514194
			c0.9240799,2.1594372,2.1179352,4.1774178,3.4775085,6.0889015
			C84.8516083,27.4992409,85.1123734,28.1326866,85.8431625,27.9068718z M33.9691925,35.0873718
			c-0.4183922,0.0878372-0.535984,0.3672447-0.4815292,0.7561913c-0.1555252,0.5283966-0.7535629,1.3297768,0.5825043,0.9264603
			c1.9808426-0.5979576,3.7652435-1.5806999,5.4496536-2.7620888c0.8966751,0.0430031,1.3109322-0.4970703,1.6452866-1.246151
			c-2.6166153-0.5297966-3.949234-0.2633629-5.5473328,1.0641022l-0.0500679,0.0294228
			c-0.8986931-0.0817451-1.3642235,0.4015656-1.5797691,1.2109947L33.9691925,35.0873718z M59.631134,27.4634953
			c2.3892937-0.0781651,4.7342606-0.4833107,7.0697479-0.958395c0.2798843-0.0234566,0.5597763-0.0469151,0.8396606-0.0703716
			c0.1775665-0.0438423,0.3551407-0.0876846,0.5327148-0.1315269c0.7713852-0.0118313,1.5108032,0.0102291,1.7508698-1.0155926
			c0.456604-1.951189,0.991188-3.8840733,1.4893112-5.8255901c0.1755066-0.6840935,0.1819077-1.1140156-0.7943878-1.1887798
			c-3.5231705-0.2696304-7.0209579-0.3149452-10.4804726,0.5382977c-2.2893448,0.4873466-4.5612831,1.0141945-6.2912598,2.7713547
			c-1.386692,1.0307732-2.7209015,2.1440506-4.1750717,3.0686817c-1.4069786,0.8946495-2.9761238,1.5804939-0.0336914,2.4788246
			c0.2829132,0.0863647,0.5901527,0.4488602,0.6799049,0.745554c0.2709961,0.8958435,0.8812637,0.9071388,1.6193886,0.7906666
			C54.4342384,28.2569027,57.0331726,27.8632336,59.631134,27.4634953z M70.874321,25.9631977
			c1.8528595-0.2379742,3.3440323-0.4783096,4.8447876-0.6064854c1.1590195-0.0990334,1.2485046-0.9345322,1.3440628-1.7522602
			c0.2022095-1.7303772,0.453743-3.5361252-1.3672104-4.6322174c-0.8825226-0.5312157-1.9171219-0.8215103-2.9534683-0.4517803
			c-0.2118988,0.0756016-0.3159866,0.573103-0.3905258,0.8944969C71.8703537,21.4915504,71.4107208,23.5732269,70.874321,25.9631977
			z"/>
		<path class="st2" d="M85.2768784,50.3203011c-3.7878113,2.2160225-5.421608,2.1380615-8.8472137-0.4221535
			c-0.8463364-1.1106148-1.1785202-2.4156113-1.4199982-3.7549095c0.3774719-5.0657425,5.0167236-7.7793427,9.1722794-5.3633499
			c1.4731674,0.8565445,2.1483994,2.4485359,3.3036118,3.5985756c-0.8377457,0.2046661-0.4547577,0.8835068-0.438858,1.3266029
			C87.1114883,47.5108147,86.2059708,48.9134254,85.2768784,50.3203011z M84.1411133,47.8213692
			c0.8578415-1.2381287,0.841217-2.4994621,0.1002274-3.7799873c-0.2132111-0.6419258-0.6483994-1.0605507-1.2845993-1.276947
			c-1.2801743-0.8949547-2.5594406-0.9266891-3.8376694,0.0040855c-0.6394577,0.2137833-1.0625687,0.6410141-1.2668152,1.2841339
			c-0.4515686,0.3276634-0.398613,0.8343544-0.4613113,1.3000221c-0.4199982,0.4099655-0.387886,0.814682,0.0140305,1.2151527
			c0.1043701,0.4479752-0.0508575,0.9973412,0.4969177,1.2720985c0.2201309,0.4988976,0.5901718,0.8414917,1.0917587,1.0468674
			c0.3529205,0.4813805,0.8201904,0.6749535,1.4099731,0.5601311c0.4227142-0.0063744,0.8454208-0.0127449,1.2681351-0.0190926
			c0.485466,0.1309471,0.9063034,0.0487709,1.2246246-0.3714066C83.4928513,48.8277206,83.9127502,48.4210777,84.1411133,47.8213692
			z"/>
		<path class="st2" d="M44.6000557,49.4541626c-2.9912605,3.1425285-6.1571007,3.2627106-9.4108963,0.3572388
			c-0.7593918-1.1004066-1.4262695-2.2354164-1.3626022-3.6436386c-0.3842812-2.9424858,2.1441193-5.4486237,4.8184013-6.1141357
			c2.3835373-0.593132,4.7935867,0.6389313,6.2499161,3.2087669c0.5278969,0.9314842,0.948349,1.9239235,1.4178123,2.8885384
			C45.1558228,46.9481735,45.4164429,48.4803543,44.6000557,49.4541626z M43.4534416,45.8395653
			c-0.0072479-2.220768-1.5868492-3.781971-3.7918205-3.747673c-2.0589561,0.0320625-3.6547394,1.6320038-3.6840858,3.6937027
			c-0.0313339,2.2012978,1.5250969,3.7722969,3.745697,3.780674C42.0227814,49.5749512,43.4609413,48.1381187,43.4534416,45.8395653
			z"/>
		<path class="st3" d="M46.3126984,46.1509323c-0.4694748-0.9646149-0.8899269-1.9570541-1.4178238-2.8885384
			c-1.4563293-2.5698357-3.8663788-3.801899-6.2499161-3.2087669c-2.6742821,0.6655121-5.2026825,3.1716499-4.818409,6.114109
			c-0.2877693,0.1677055-0.5755348,0.3354111-0.8638153,0.5035706c-0.8178177-2.2364082,0.267868-4.9586372,2.6492271-6.6434708
			c2.40588-1.7022247,5.5212898-1.771328,8.0129585-0.1777344c2.4700623,1.5797844,3.6205444,4.1416245,3.088295,6.8770561
			C46.5795746,46.5349808,46.4461365,46.3429565,46.3126984,46.1509323z"/>
		<path class="st3" d="M87.4855576,44.3784637c-1.1552124-1.1500397-1.8304443-2.7420311-3.3036118-3.5985756
			c-4.1555557-2.4159927-8.7948074,0.2976074-9.1722794,5.3633499c-0.2783966,0.1932449-0.5568008,0.3864632-0.8352051,0.5797043
			c-1.0803604-3.4575043,1.9998932-7.5226593,6.0512314-7.9860916c3.7730026-0.431572,7.2300873,2.20084,7.7006226,5.8635178
			C87.7795792,44.5264168,87.6325684,44.4524422,87.4855576,44.3784637z"/>
		<path class="st3" d="M85.8431625,27.9068718c-0.7307892,0.2258148-0.9915543-0.4076309-1.2736282-0.8042221
			c-1.3595734-1.9114838-2.5534286-3.9294643-3.4775085-6.0889015c-0.2500992-0.584425-0.6674042-1.2783413,0.101593-1.8514194
			C83.3229599,21.7692032,84.9453354,24.6454296,85.8431625,27.9068718z"/>
		<path class="st4" d="M86.8684998,32.4938011c-0.1996689,0.0341187-0.3999176,0.1005058-0.5989227,0.0969276
			c-1.038559-0.0185356-2.2451019-0.0210991-2.324173-1.3747883c-0.0885162-1.515276,1.1354523-1.6018696,2.280159-1.5959549
			C86.6837769,30.5234451,86.7818604,31.5073528,86.8684998,32.4938011z"/>
		<path class="st3" d="M67.5405426,26.4347286c-0.2798843,0.0234566-0.5597763,0.0469151-0.8395844,0.0703716
			c-1.4730835-2.5034237-3.8590775-4.1605854-5.8074036-6.2225361c-0.4244461-0.4492168-0.9795609-0.7364655-0.8549767-1.4710274
			c3.4595146-0.8532429,6.9573021-0.8079281,10.4804726-0.5382977c0.9762955,0.0747643,0.9698944,0.5046864,0.7943878,1.1887798
			c-0.4981232,1.9415169-1.0327072,3.8744011-1.4893112,5.8255901c-0.2400665,1.0258217-0.9794846,1.0037613-1.7509766,1.0153122
			C67.895546,26.3466873,67.7180481,26.3907089,67.5405426,26.4347286z"/>
		<path class="st2" d="M60.038578,18.8115368c-0.1245842,0.7345619,0.4305305,1.0218105,0.8549767,1.4710274
			c1.9483261,2.0619507,4.3343201,3.7191124,5.8074036,6.2225361c-2.3355637,0.4750843-4.6805305,0.8802299-7.0699234,0.958395
			c-1.9613113-1.9601765-3.9225159-3.9204025-5.8837204-5.8806038
			C55.4772949,19.8257313,57.7492332,19.2988834,60.038578,18.8115368z"/>
		<path class="st3" d="M53.7473183,21.5828915c1.9612007,1.9602013,3.9224052,3.9204273,5.8837166,5.8806038
			c-2.5978622,0.3997383-5.1967964,0.7934074-7.7931862,1.2031231c-0.7381248,0.1164722-1.3483925,0.1051769-1.6193886-0.7906666
			c-0.0897522-0.2966938-0.3969917-0.6591892-0.6799049-0.745554c-2.9424324-0.8983307-1.3732872-1.5841751,0.0336914-2.4788246
			C51.0264168,23.7269421,52.3606262,22.6136646,53.7473183,21.5828915z"/>
		<path class="st3" d="M70.874321,25.9631977c0.5363998-2.3899708,0.9960327-4.4716473,1.4776459-6.5482464
			c0.0745392-0.321394,0.178627-0.8188953,0.3905258-0.8944969c1.0363464-0.36973,2.0709457-0.0794353,2.9534683,0.4517803
			c1.8209534,1.0960922,1.5694199,2.9018402,1.3672104,4.6322174c-0.0955582,0.817728-0.1850433,1.6532269-1.3440628,1.7522602
			C74.2183533,25.4848881,72.7271805,25.7252235,70.874321,25.9631977z"/>
		<path class="st5" d="M39.5198212,34.0079346c-1.6844101,1.1813889-3.468811,2.1641312-5.4496536,2.7620888
			c-1.3360672,0.4033165-0.7380295-0.3980637-0.5826874-0.9263077c0.1604462-0.2519875,0.3210793-0.5041771,0.4817085-0.7563438
			l0.0186119-0.02145c0.5992432-0.3088799,1.1906166-0.6278381,1.5799065-1.2106133c0,0,0.0500679-0.0294228,0.0501251-0.0299034
			c1.1823082-0.1767426,2.3619576-0.3739471,3.5478172-0.5210876
			C39.8265915,33.2222939,39.7722626,33.5856285,39.5198212,34.0079346z"/>
		<path class="st6" d="M39.5198212,34.0079346c0.2524414-0.4223061,0.3067703-0.7856407-0.3541718-0.7036171
			c-1.1858597,0.1471405-2.365509,0.3443451-3.5478172,0.5210876c1.5980415-1.3269844,2.9306602-1.5934181,5.5472755-1.0636215
			C40.8307533,33.5108643,40.4164963,34.0509377,39.5198212,34.0079346z"/>
		<path class="st6" d="M35.5677071,33.8553085c-0.3892899,0.5827751-0.9806633,0.9017334-1.5799065,1.2106133
			C34.2034836,34.2568741,34.669014,33.7735634,35.5677071,33.8553085z"/>
		<path class="st6" d="M33.9691887,35.0873718c-0.1606293,0.2521667-0.3212624,0.5043564-0.4817085,0.7563438
			C33.4332085,35.4546165,33.5508003,35.175209,33.9691887,35.0873718z"/>
		<path class="st2" d="M67.5405426,26.4347286c0.1775055-0.0440197,0.3550034-0.0880413,0.532608-0.1318073
			C67.8956833,26.347044,67.7181091,26.3908863,67.5405426,26.4347286z"/>
		<path class="st7" d="M77.901886,47.8399277c-0.5477676-0.2747574-0.39254-0.8241234-0.4968796-1.2720451
			c0.668251-0.1248779,1.4380493-0.0072632,1.8688736-0.7582474c-0.5352325-0.6282692-1.2571335-0.3424911-1.8829346-0.4569588
			c0.0626984-0.4656677,0.0097427-0.9723587,0.4613342-1.2999992c0.7537918-0.1251564,1.1538086,0.9910698,2.0057755,0.6111069
			c0.0519485-0.7809677-0.4801941-1.2845612-0.7389832-1.8952637c1.2782288-0.9307747,2.5574951-0.8990402,3.8376389-0.0040588
			c-0.245369,0.650631-0.9073105,1.1818962-0.6520462,2.09338c0.712822-0.3005028,1.3247528-0.5584831,1.936676-0.8164597
			c0.7409897,1.2805252,0.7576141,2.5418587-0.1002274,3.7799873c-0.7269211-0.3479462-1.2392731-1.1983986-2.361824-1.0108414
			c0.4073029,0.8188705,0.7621994,1.5323868,1.1170959,2.2458992c-0.3183212,0.4201775-0.7391586,0.5023537-1.2246246,0.37146
			c0.0112076-0.7758675,0.0639191-1.5663567-0.6675262-2.1302948c-0.640419,0.657692-0.627388,1.401722-0.6006088,2.1493607
			c-0.5897827,0.1147957-1.0570526-0.0787773-1.4094162-0.5605621c0.2657623-0.6602821,1.1672134-1.0331612,0.8624115-2.0923653
			C79.1734772,47.1595421,78.5376816,47.4997215,77.901886,47.8399277z"/>
		<path class="st8" d="M82.8963852,49.056427c-0.3548965-0.7135124-0.7097931-1.4270287-1.1170959-2.2458992
			c1.122551-0.1875572,1.634903,0.6628952,2.361824,1.0108414C83.9127502,48.4210777,83.4928513,48.8277206,82.8963852,49.056427z"
			/>
		<path class="st8" d="M79.119072,42.7685204c0.2587891,0.6107025,0.7909317,1.114296,0.7389832,1.8952637
			c-0.8519669,0.3799629-1.2519836-0.7362633-2.0057755-0.6111069
			C78.0565033,43.4095345,78.4796143,42.9823036,79.119072,42.7685204z"/>
		<path class="st8" d="M84.2413406,44.0413818c-0.6119232,0.2579765-1.2238541,0.5159569-1.936676,0.8164597
			c-0.2552643-0.9114838,0.4066772-1.442749,0.6520462-2.09338C83.5929413,42.9808311,84.0281296,43.399456,84.2413406,44.0413818z"
			/>
		<path class="st6" d="M77.3909454,45.3526764c0.6258011,0.1144676,1.347702-0.1713104,1.8829346,0.4569588
			c-0.4308243,0.7509842-1.2006226,0.6333694-1.8688736,0.7582474
			C77.0030594,46.1673584,76.9709473,45.7626419,77.3909454,45.3526764z"/>
		<path class="st8" d="M80.4036255,49.4469261c-0.0267792-0.747612-0.0398102-1.491642,0.6006088-2.149334
			c0.7314453,0.5639381,0.6787338,1.3544273,0.6675262,2.1302681
			C81.2490463,49.4341812,80.8263397,49.4405518,80.4036255,49.4469261z"/>
		<path class="st8" d="M77.901886,47.8399277c0.6357956-0.3402061,1.2715912-0.6803856,1.9547348-1.0459023
			c0.3048019,1.0592041-0.5966492,1.4320831-0.8624115,2.0923653C78.4920654,48.6814194,78.1220245,48.3388252,77.901886,47.8399277
			z"/>
		<path class="st8" d="M43.4534416,45.8395653c0.0074997,2.2985535-1.4306602,3.7353859-3.7302094,3.7267036
			c-2.2206001-0.0083771-3.7770309-1.5793762-3.745697-3.780674c0.0293465-2.0616989,1.6251297-3.6616402,3.6840858-3.6937027
			C41.8665924,42.0575943,43.4461937,43.6187973,43.4534416,45.8395653z"/>
	</g>
</g>
</svg>
