<?xml version="1.0" encoding="utf-8"?>
<!-- Generator: Adobe Illustrator 25.4.1, SVG Export Plug-In . SVG Version: 6.00 Build 0)  -->
<svg version="1.1" id="Layer_1" xmlns="http://www.w3.org/2000/svg" xmlns:xlink="http://www.w3.org/1999/xlink" x="0px" y="0px"
	 width="120px" height="56px" viewBox="0 0 120 56" style="enable-background:new 0 0 120 56;" xml:space="preserve">
<style type="text/css">
	.st0{fill:url(#SVGID_1_);}
	.st1{fill:#BDCCD4;stroke:#726A63;stroke-width:0.25;stroke-miterlimit:10;}
	.st2{fill:#C5C9CC;}
	.st3{fill:#303940;}
	.st4{fill:#B1B4B8;}
	.st5{fill:#0A212B;}
	.st6{fill:#EC5B2A;}
	.st7{fill:#FBD404;}
	.st8{fill:#688E37;}
</style>
<g>
	
		<radialGradient id="SVGID_1_" cx="-499.6178284" cy="569.5890503" r="13.7515841" gradientTransform="matrix(1.8431855 0 0 -1.3351179 980.8883667 812.2824707)" gradientUnits="userSpaceOnUse">
		<stop  offset="0" style="stop-color:#B3B3B3"/>
		<stop  offset="1" style="stop-color:#726A63;stop-opacity:0.8"/>
	</radialGradient>
	<ellipse class="st0" cx="60" cy="51.8139" rx="35.7585144" ry="1.8096058"/>
	<g>
		<path class="st1" d="M101.2376099,8.6704845c-0.0122299,6.6633959-0.0244675,13.3268013-0.036705,19.9901867
			C86.440834,28.66786,71.680748,28.6604919,56.9208145,28.710453c-1.1558495,0.0039272-1.3207169-0.4153786-1.3092461-1.4080658
			c0.0455399-3.9355011-0.024147-7.8725834,0.0441551-11.8074446c0.0191498-1.1026039-0.3227997-1.3643122-1.3772659-1.3490343
			c-4.0444374,0.0586348-8.0902367,0.024291-12.1355171,0.0246325c-0.448101-2.876812,1.4768143-4.3554688,3.4475899-5.7721672
			c2.0291672-1.4586411,4.1184731-2.8337979,6.1441917-4.2970448c0.7006836-0.5061355,1.4078064-0.7448952,2.2682114-0.7441845
			c15.8900032,0.0132368,31.779995,0.0073493,47.670002,0.0135872c1.6507568,0.0006509,1.7886047,0.2550101,1.1762009,1.9641559
			C86.2891846,5.3376307,69.7292175,5.3557339,53.1693459,5.32095c-1.7864037-0.0037446-2.9646606,0.7631779-3.8497353,2.192863
			c-0.6874008,0.11128-1.3620491,0.2436857-1.8478394,1.1566715C65.5192947,8.6704845,83.3784485,8.6704845,101.2376099,8.6704845z
			 M49.623455,12.2338285c1.5762177,0,3.1526375,0.0138369,4.7285347-0.00809
			c0.5001068-0.0069685,1.2119026,0.1877356,1.2170906-0.6596479c0.0051842-0.8493662-0.7076302-0.6665363-1.2080803-0.6702023
			c-2.4457092-0.0178814-4.8916397-0.0089903-7.3374901-0.0077686c-0.7065468,0.0003395-1.4131126,0.0127554-2.1196022,0.0081301
			c-0.5908203-0.0038853-0.9865379,0.335-1.0002747,0.8578968c-0.0180206,0.6872425,0.6174736,0.4587154,0.9913826,0.4655247
			C46.4707184,12.2484064,48.0472374,12.2318258,49.623455,12.2338285z"/>
		<path class="st1" d="M101.2734833,29.8365669c0.2602234,0.6755505,0.2515488,1.3542233,0.0237045,2.0337734
			c-1.5503693-0.0629787-2.1912766,0.6866245-2.0212173,2.2138805c0.0538101,0.4835663,0.0142593,0.9794731-0.0050049,1.4688644
			c-0.0569916,1.4487991,0.5560379,2.1714859,2.0691376,1.9402161c0.1409378,0.3545456,0.1679077,0.6981163-0.0976028,1.0134735
			c-3.4854736-0.0000801-6.970932-0.0000801-10.7453918-0.0000801c1.583168,1.55653,2.7601089,2.9590111,3.2090302,4.8229332
			c-0.8492661,0.0000229-1.6985321,0.0000381-2.5481796,0.0002403c-1.3087234-2.8419456-3.5755539-4.4128609-6.6510925-4.4481049
			c-3.1583405-0.0362244-5.4591141,1.5696526-6.8178635,4.4545135c-0.8405304-0.0089493-1.6810455-0.0178833-2.5215759-0.0268326
			c0.3813705-1.9222336,1.7378387-3.264843,3.1384583-4.8569984c-7.8395233,0-15.3725014,0.0135536-22.9052811-0.0189438
			c-0.8442955-0.0036469-1.0364799,0.3459129-1.0217209,1.0630341c0.0268745,1.3072014,0.0273361,2.6149445,0.0388069,3.9224434
			c-0.0147171,0.5214539-0.0294533,1.0429306-0.0441742,1.5643845c-4.9971313,0.0162201-9.9943085,0.0293961-14.9914017,0.0520058
			c-0.7332764,0.0033035-1.5949402-0.214386-1.8146973,0.8744164c-0.4686279,0.004425-0.967495,0.1928635-1.3668175-0.2245789
			c-0.336422-3.9012413-3.359314-6.7382393-7.2410088-6.7956924c-3.8687973-0.0572319-6.9811649,2.7912827-7.4336128,6.8034821
			c-2.2796421,0.5793457-4.1137447-0.6676598-4.466547-3.4097443c-0.2693195-2.0931664-0.4309616-4.2950096,0.1552334-6.3507309
			c0.5219765-1.8305206,1.411993-3.5643158,2.2298603-5.2981911c0.3264294-0.691988,0.9715385-1.161459,1.7473145-1.3977966
			c5.7300739-1.7455502,10.4371414-5.1004429,14.5923977-9.3126507c2.0362968-2.0642109,4.4351311-3.5668182,7.1007767-4.6683006
			c3.2791176,0.0080099,6.5595169,0.0658216,9.8373718-0.0011225c1.2300644-0.0251102,1.7109489,0.2408438,1.668251,1.6013918
			c-0.1062737,3.3857307-0.0371475,6.7770691-0.0340004,10.1661415c0.0026436,2.8474751,0.0054054,2.8541851,2.8060417,2.8521805
			C71.8662796,29.8636608,86.5698776,29.8494644,101.2734833,29.8365669z M39.5055923,18.7076969
			c-1.5257568,1.3051376-3.0539589,2.6074333-4.5763664,3.9164562c-1.0158157,0.8734169-0.6064034,2.0516949-0.4428177,3.0409584
			c0.138073,0.8350487,1.1084328,0.4134789,1.6843567,0.4145203c4.4007034,0.0079288,8.8015289-0.0433941,13.2023163-0.0763168
			c0.4358253,0.0007229,0.8716507,0.001442,1.3074799,0.0021648c2.2907372,0.1592789,2.289875,0.1592789,2.2892952-2.1017208
			c-0.0005035-2.0190754-0.031601-4.0389709,0.017643-6.0568638c0.0205002-0.8392925-0.2258644-1.1484814-1.1018677-1.122448
			c-1.962822,0.0583725-3.9296722-0.0213261-5.8927956,0.0314789c-1.2883797,0.0346432-2.6241531-0.2939892-3.8520966,0.3816204
			C41.0555382,17.3138065,40.228878,17.9240341,39.5055923,18.7076969z M53.3167114,31.2150574
			c0-1.1431141-0.0272141-2.2871094,0.0094109-3.4290447c0.0251541-0.7835827-0.2899818-1.0251064-1.0646362-1.0214806
			c-5.5709343,0.0260925-11.1420288,0.0127563-16.7130852,0.0130157c-0.5055733,0.000042-1.0220413,0.0021839-1.101902,0.6808529
			c-0.0625954,0.5321102-0.2121048,0.9783096-0.8623047,0.9715004c-0.6701393-0.0070267-0.8739128-0.4358063-1.0592079-1.0221806
			c-0.4007225-1.2681541-1.4815388-0.4209118-2.2359467-0.6036777c-0.4449577-0.1077976-0.9089203,0.0399685-0.8818874,0.6550426
			c0.0576935,1.3114643-0.1928005,2.6492252,0.2520962,4.221077c0.4808846-0.9530563,1.0665398-1.1555519,1.8454971-1.1525669
			c6.7181129,0.0256519,13.4363708,0.0170612,20.154583,0.0113735
			C52.289402,30.5384274,52.9191704,30.4881649,53.3167114,31.2150574z M19.5211601,37.7213058
			c0.5044346-0.1634636,1.7407665,0.4728355,1.5356483-0.9837723c-0.1248169-0.8865128,0.2303104-2.2083969-1.4417095-2.2016449
			c-1.5089741,0.0060883-1.5331039,1.0719643-1.679409,2.110569C17.7632542,37.8705368,18.5617371,37.8039284,19.5211601,37.7213058
			z"/>
		<path class="st2" d="M49.3196106,7.513813c0.8850746-1.4296851,2.0633316-2.1966076,3.8497353-2.192863
			c16.5598717,0.0347838,33.1198387,0.0166807,49.6797905,0.0139375c-0.0741959,1.0587192-0.8297424,1.6691055-1.5263977,2.3186507
			c-16.5198746-0.0129561-33.0391159-0.0244703-49.5583382-0.043004C50.94944,7.6096134,50.1345329,7.5474453,49.3196106,7.513813z"
			/>
		<path class="st3" d="M101.2734833,29.8365669c-14.7036057,0.0128975-29.4072037,0.0270939-44.1108055,0.0376072
			c-2.8006363,0.0020046-2.8033981-0.0047054-2.8060417-2.8521805c-0.0031471-3.3890724-0.0722733-6.7804108,0.0340004-10.1661415
			c0.0426979-1.360548-0.4381866-1.626502-1.668251-1.6013918c-3.2778549,0.0669441-6.5582542,0.0091324-9.8373718,0.0011225
			c-0.1870537-0.4026661-0.7520027-0.5472279-0.7420731-1.085042c4.0452805-0.0003414,8.0910797,0.0340023,12.1355171-0.0246325
			c1.0544662-0.0152779,1.3964157,0.2464304,1.3772659,1.3490343c-0.0683022,3.9348612,0.0013847,7.8719435-0.0441551,11.8074446
			c-0.0114708,0.9926872,0.1533966,1.411993,1.3092461,1.4080658c14.7599335-0.0499611,29.5200195-0.042593,44.2800903-0.0497818
			C101.2251205,29.0526237,101.2493057,29.4445953,101.2734833,29.8365669z"/>
		<path class="st3" d="M88.304657,51.2530937c-2.753334,1.6173363-5.4433746,1.6244583-8.0567551-0.3168564
			c-1.9943466-2.2210274-2.5438156-4.7044449-1.3623734-7.5021973c1.8687057-2.4667778,4.111763-3.9862442,7.3894348-2.9795418
			c1.639061,0.5034332,2.7193375,1.6997337,3.7767868,2.9375687C91.1016693,46.3751717,90.5723648,49.0073166,88.304657,51.2530937z
			 M81.1350555,44.3386536c-0.3321381,0.2509766-0.3685226,0.631134-0.435791,0.9977913
			c-0.1976242,0.562027-0.2118607,1.1251945-0.0107727,1.6897621c-0.0555267,0.5278664,0.1027298,0.9568825,0.5738983,1.2412224
			c0.1759262,0.5433197,0.4728165,0.9698334,1.069191,1.1071472c0.2330704,0.4933586,0.6733246,0.5903244,1.1567917,0.6046028
			c0.5499725,0.2787476,1.0990372,0.3803558,1.6455612-0.0085144c0.5970688,0.0676041,1.1029053-0.0779152,1.4404526-0.6165924
			c0.4930725-0.1239548,0.8217316-0.4066925,0.8995285-0.9316292c0.5662079-0.3141937,0.7218094-0.8107986,0.6296844-1.4174614
			c0.4028091-0.5466843,0.2910538-1.0963554,0.0095749-1.647007c0.0116501-0.373909-0.0263519-0.7301788-0.3499374-0.9849777
			c-0.3060837-0.5701752-0.6849442-1.0612907-1.3494568-1.2420387c-0.2875595-0.4801636-0.7228088-0.6454506-1.2609253-0.5913849
			c-0.6977539-0.1404724-1.396286-0.2910614-2.0492706,0.1561165c-0.2403793,0.0438385-0.5152054,0.0166435-0.635376,0.3082504
			C81.8353958,43.260643,81.3940201,43.7085457,81.1350555,44.3386536z"/>
		<path class="st3" d="M33.2952728,50.6133728c-2.9448757,2.383007-5.4311962,2.4711037-8.5103626,0.3015785
			c-1.8371277-1.72118-2.2444992-3.8909645-1.9688511-6.2750397c0.1992893-0.3830605,0.3987999-0.7659798,0.5978508-1.1491585
			c1.5136185-2.9136009,4.8469639-3.9059448,7.5759506-3.0135269c2.0382805,0.6665573,3.0866737,2.2425766,3.9349976,4.039814
			C35.2104568,46.7707291,34.9745407,48.884964,33.2952728,50.6133728z M29.7059879,42.545784
			c-1.7469921-0.3911514-3.1356754,0.0569496-4.0091934,1.711689c-0.3960571,0.257946-0.5443439,0.6341934-0.5214958,1.0921516
			c-0.1507473,0.5521507-0.2118053,1.1032028,0.0201664,1.650692c-0.0712299,0.5496902,0.0861683,1.0078049,0.5395985,1.347374
			c0.1962452,0.6774292,0.6809139,1.0648346,1.3121262,1.3048744c0.2736626,0.2878609,0.6107864,0.3764114,0.9950695,0.3167992
			c0.5495701,0.3236694,1.0975189,0.3671379,1.6431026-0.0093498c0.4133987,0.1573143,0.6806545-0.1417618,0.9877815-0.3162994
			c0.6790714-0.1824074,1.1357651-0.5950241,1.327425-1.2820892c0.4957809-0.3203621,0.6817589-0.7739334,0.5808678-1.3508568
			c0.4027481-0.5450211,0.1587601-1.1002388,0.0261154-1.653717c-0.0070305-0.4662247-0.1310844-0.8733559-0.5669327-1.1231079
			c-0.2183743-0.7106133-0.7557087-1.1062088-1.3892651-1.4068069
			C30.3569851,42.6636505,30.0825005,42.4332619,29.7059879,42.545784z"/>
		<path class="st4" d="M49.3196106,7.513813c0.8149223,0.0336323,1.6298294,0.0958004,2.4447899,0.0967212
			c16.5192223,0.0185337,33.0384636,0.0300479,49.5583382,0.043004c-0.0280151,0.3387952-0.0567093,0.6775508-0.0852661,1.0166259
			c-17.859024,0.0003204-35.7181778,0.0003204-53.7656975,0.0003204C47.9575615,7.7574987,48.6322098,7.625093,49.3196106,7.513813z
			"/>
		<path class="st5" d="M93.7061386,43.329628c-0.4489212-1.8639221-1.6258621-3.2664032-3.2090302-4.8229332
			c3.7744598,0,7.2599182,0,10.7453918,0.0000801c-0.7498245,1.4432297-1.5231934,2.8749275-2.2364502,4.3359642
			c-0.2408066,0.4932976-0.5847473,0.5680542-1.049942,0.5574379C96.5396576,43.367878,95.122818,43.3519363,93.7061386,43.329628z"
			/>
		<path class="st5" d="M34.9248581,44.5169983c-0.8483238-1.7971954-1.8967171-3.3732147-3.9349976-4.039772
			c-2.7289867-0.8924179-6.0623322,0.099926-7.5759506,3.0135269c-0.1990509,0.3831787-0.3985615,0.766098-0.5978508,1.1491585
			c-0.4301205,0.3509827-0.8602619,0.7020035-1.2902412,1.0530434c0.4526081-4.0121574,3.5649757-6.860672,7.433773-6.8034401
			c3.8816948,0.0574532,6.9045868,2.8944511,7.2411537,6.7956696C35.775547,45.2957954,35.350193,44.9063873,34.9248581,44.5169983z
			"/>
		<path class="st5" d="M90.0517502,43.392067c-1.0574493-1.2378349-2.1377258-2.4341354-3.7767868-2.9375687
			c-3.2776718-1.0067024-5.5207291,0.512764-7.3894348,2.9795418c-0.3988342-0.0326004-0.7976761-0.0651817-1.1965256-0.0977821
			c1.3587494-2.8848419,3.659523-4.4907188,6.8178635-4.4544945c3.0755386,0.035244,5.3423691,1.6061592,6.6510925,4.4481049
			C90.7894745,43.3504753,90.4206161,43.3712616,90.0517502,43.392067z"/>
		<path class="st6" d="M101.3401031,37.4933014c-1.5130997,0.2312698-2.1261292-0.4914169-2.0691376-1.9402161
			c0.0192642-0.4893913,0.058815-0.9852982,0.0050049-1.4688644c-0.1700592-1.527256,0.4708481-2.2768593,2.0212173-2.2138805
			C101.5515671,33.7439156,101.5129166,35.6180878,101.3401031,37.4933014z"/>
		<path class="st4" d="M49.623455,12.2328272c-1.5762177-0.0010014-3.1527367,0.0155792-4.7284393-0.0131559
			c-0.373909-0.0068092-1.0094032,0.2217178-0.9913826-0.4655247c0.0137367-0.5228968,0.4094543-0.8617821,1.0002747-0.8578968
			c0.7064896,0.0046253,1.4130554-0.0077906,2.1196022-0.0081301c2.4458504-0.0012217,4.8917809-0.0101128,7.3374901,0.0077686
			c0.5004501,0.0036659,1.2132645-0.1791639,1.2080803,0.6702023c-0.005188,0.8473835-0.7169838,0.6526794-1.2170906,0.6596479
			C52.7760925,12.2476654,51.1996727,12.2338285,49.623455,12.2328272z"/>
		<path class="st5" d="M75.1674271,43.3094025c-6.1541367,0.0289574-12.3082352,0.0574722-18.4623642,0.0873489
			c-0.7626152,0.0037079-1.5252151,0.014698-2.28759,0.0222702c-0.0112534-1.3075409-0.0117149-2.615284-0.0385895-3.9224854
			c-0.0147591-0.7171211,0.1774254-1.0666809,1.0217209-1.0630341c7.5327797,0.0324974,15.0657578,0.0189438,22.9052811,0.0189438
			C76.9052658,40.0446014,75.5487976,41.3872108,75.1674271,43.3094025z"/>
		<path class="st2" d="M53.3167114,31.2150574c-0.397541-0.7268925-1.0273094-0.67663-1.657383-0.6760883
			c-6.7182121,0.0056877-13.43647,0.0142784-20.154583-0.0113735c-0.7789574-0.002985-1.3646126,0.1995106-1.8454971,1.1525669
			c-0.4448967-1.5718517-0.1944027-2.9096127-0.2520962-4.221077c-0.0270329-0.6150742,0.4369297-0.7628403,0.8818874-0.6550426
			c0.7544079,0.182766,1.8352242-0.6644764,2.2359467,0.6036777c0.1852951,0.5863743,0.3890686,1.0151539,1.0592079,1.0221806
			c0.6501999,0.0068092,0.7997093-0.4393902,0.8623047-0.9715004c0.0798607-0.678669,0.5963287-0.6808109,1.101902-0.6808529
			c5.5710564-0.0002594,11.1421509,0.0130768,16.7130852-0.0130157c0.7746544-0.0036259,1.0897903,0.2378979,1.0646362,1.0214806
			C53.2894974,28.927948,53.3167114,30.0719433,53.3167114,31.2150574z M47.9909019,28.6070843
			c1.5597,0.7270546,3.1272507,0.6665573,4.7003632,0.0467777c0.2302666-1.2669296-0.7426529-1.268692-1.4118919-1.0824585
			C50.1778297,27.8779888,48.5048294,26.491087,47.9909019,28.6070843z"/>
		<path class="st5" d="M42.1405792,17.1376038c1.2281036-0.6756668,2.5638771-0.3470345,3.8522568-0.3816776
			c1.9631233-0.0528049,3.9299736,0.0268936,5.8927956-0.0314789c0.8760033-0.0260334,1.1223679,0.2831554,1.1018677,1.122448
			c-0.0492439,2.0178928-0.0181465,4.0377884-0.017643,6.0568638c0.0005798,2.2609997,0.001442,2.2609997-2.2892761,2.1017208
			c-0.0121956-0.341629-0.1370735-0.6291714-0.3844604-0.8714542
			C47.5761833,22.4699802,44.8587112,19.8034725,42.1405792,17.1376038z"/>
		<path class="st5" d="M49.3730812,26.003315c-4.4007874,0.0329227-8.8016129,0.0842457-13.2023163,0.0763168
			c-0.5759239-0.0010414-1.5462837,0.4205284-1.6843567-0.4145203c-0.1635857-0.9892635-0.572998-2.1675415,0.4428177-3.0409584
			c1.5224075-1.3090229,3.0506096-2.6113186,4.5763435-3.9164162c1.4557114,1.5279179,2.9433556,3.0269585,4.357975,4.5920048
			c1.3421822,1.4849243,2.6893959,2.8599491,4.9629478,2.4134712C48.9836273,25.6823521,49.1897507,25.9008064,49.3730812,26.003315
			z"/>
		<path class="st3" d="M49.3730812,26.003315c-0.1833305-0.1025085-0.3894539-0.3209629-0.5465889-0.290102
			c-2.2735519,0.4464779-3.6207657-0.9285469-4.9629478-2.4134712c-1.4146194-1.5650463-2.9022636-3.0640869-4.357975-4.5920048
			c0.7233086-0.7837029,1.5499687-1.3939304,2.6350899-1.5701523c2.7180519,2.6658878,5.435524,5.3323956,8.1554604,7.9964409
			c0.2473869,0.2422829,0.3722649,0.5298252,0.3844604,0.8714542C50.2447319,26.0047569,49.8089066,26.0040379,49.3730812,26.003315
			z"/>
		<path class="st3" d="M54.3735161,44.9833641c0.2928886,0.2283249,0.6857224,0.4061508,0.5589218,0.8845291
			c-0.1245766,0.4699936-0.5197906,0.4855118-0.9092598,0.4855309c-5.1503296,0.0004387-10.3006744-0.0033417-15.4509773,0.0079117
			c-0.4249344,0.0009384-0.6978569-0.2397232-1.0046654-0.4514885c0.2196388-1.0888634,1.0813026-0.8711739,1.814579-0.8744774
			C44.3792076,45.0127602,49.3763847,44.9995842,54.3735161,44.9833641z"/>
		<path class="st2" d="M19.5211601,37.7213058c-0.9594231,0.0826225-1.757906,0.149231-1.5854702-1.0748482
			c0.1463051-1.0386047,0.170435-2.1044807,1.679409-2.110569c1.67202-0.006752,1.3168926,1.3151321,1.4417095,2.2016449
			C21.2619267,38.1941414,20.0255947,37.5578423,19.5211601,37.7213058z"/>
		<path class="st2" d="M82.4682083,43.0039406c0.1201706-0.2916069,0.3949966-0.2644119,0.6354141-0.3082275
			c1.0918808,0.3036003,0.3356018,1.9035492,1.5327911,2.2069702c0.2229004-0.8097572,0.5675278-1.5400352,0.5164413-2.3631096
			c0.5381165-0.0540657,0.9733658,0.1112213,1.2587662,0.5922852c-0.5392838,0.6073036-0.893486,1.2998734-1.1538925,2.2162437
			c1.067482-0.0519867,1.7317123-0.6613693,2.5055084-0.9751053c0.3235855,0.2547989,0.3615875,0.6110687,0.3499146,0.9849777
			c-0.7684021,0.2651329-1.6867142,0.2339745-2.2824783,1.0399666c0.7778702,0.4841881,1.4914703,0.6765099,2.2729263,0.6070404
			c0.0921249,0.6066628-0.0634766,1.1032677-0.6297607,1.4172821c-0.4659119-0.8922806-1.2778702-1.1334076-2.3237-1.3401871
			c0.2840347,1.0405655,0.7277527,1.7344589,1.4242477,2.2719955c-0.3375473,0.5386772-0.8433838,0.6841965-1.4404526,0.6165733
			c0.0499039-0.8171043-0.0945816-1.5697708-0.6622696-2.2716942c-0.7033234,0.686924-0.7784195,1.5112991-0.9832916,2.2802277
			c-0.4834671-0.0142784-0.9237213-0.1112442-1.1564331-0.604763c0.6814957-0.5627441,1.4444122-1.3548431,0.9117966-2.107605
			c-0.3134689-0.4430389-1.1153946,0.531208-1.7336121,0.7918167c-0.0950165,0.0400276-0.1657639,0.1377487-0.2477341,0.2088013
			c-0.4711685-0.2843399-0.629425-0.713356-0.5739136-1.2412224c0.8474045-0.0029793,1.6872787-0.0299339,2.383873-0.6966934
			c-0.6438751-0.8172455-1.6438293-0.5801888-2.373085-0.9930687c0.0672684-0.3666573,0.103653-0.7468147,0.4358063-0.9977684
			c0.7601395,0.1874542,1.4839249,1.3887596,2.0647354,0.8398323
			C83.9845963,44.4367599,82.6016998,43.7995605,82.4682083,43.0039406z"/>
		<path class="st4" d="M83.4883728,49.9791794c0.2048721-0.7689285,0.2799683-1.5933037,0.9832916-2.2802277
			c0.567688,0.7019234,0.7121735,1.4545898,0.6622696,2.2716942C84.58741,50.3595352,84.0383453,50.2579269,83.4883728,49.9791794z"
			/>
		<path class="st4" d="M88.1035995,47.004982c-0.781456,0.0694695-1.4950562-0.1228523-2.2729263-0.6070404
			c0.5957642-0.8059921,1.5140762-0.7748337,2.2824783-1.0399666C88.3946533,45.9086266,88.5064087,46.4582977,88.1035995,47.004982
			z"/>
		<path class="st4" d="M82.4682083,43.0039406c0.1334915,0.79562,1.5163879,1.4328194,0.7315979,2.1745682
			c-0.5808105,0.5489273-1.3045959-0.6523781-2.0647354-0.8398323
			C81.3940201,43.7085457,81.8353958,43.260643,82.4682083,43.0039406z"/>
		<path class="st4" d="M80.6992645,45.3364449c0.7292557,0.4128799,1.7292099,0.1758232,2.373085,0.9930687
			c-0.6965942,0.6667595-1.5364685,0.6937141-2.383873,0.6966934
			C80.4874039,46.4616394,80.5016403,45.8984718,80.6992645,45.3364449z"/>
		<path class="st4" d="M85.1528549,42.5395737c0.0510864,0.8230743-0.293541,1.5533524-0.5164413,2.3631096
			c-1.1971893-0.303421-0.4409103-1.9033699-1.5327911-2.2069702C83.7565689,42.2485123,84.455101,42.3991013,85.1528549,42.5395737
			z"/>
		<path class="st4" d="M86.5743866,49.3540726c-0.6964951-0.5375366-1.140213-1.2314301-1.4242477-2.2719955
			c1.0458298,0.2067795,1.8577881,0.4479065,2.3237,1.3401871C87.3961182,48.9473801,87.0674591,49.2301178,86.5743866,49.3540726z"
			/>
		<path class="st4" d="M87.763237,44.3729973c-0.7737961,0.313736-1.4380264,0.9231186-2.5055084,0.9751053
			c0.2604065-0.9163704,0.6146088-1.6089401,1.1538925-2.2162437C87.0782928,43.3117065,87.4571533,43.8028221,87.763237,44.3729973
			z"/>
		<path class="st4" d="M81.2623901,48.2674294c0.0819702-0.0710526,0.1527176-0.1687737,0.2477341-0.2088013
			c0.6182175-0.2606087,1.4201431-1.2348557,1.7336121-0.7918167c0.5326157,0.7527618-0.2303009,1.5448608-0.9117966,2.107605
			C81.7352066,49.2372627,81.4383163,48.8107491,81.2623901,48.2674294z"/>
		<path class="st2" d="M25.7350636,48.3476906c-0.4534302-0.3395691-0.6108284-0.7976837-0.5391788-1.3471718
			c0.8560944,0.0583115,1.6694374-0.0388908,2.4482346-0.6467934c-0.665617-0.8573761-1.7023964-0.6146126-2.4688206-1.0041008
			c-0.0228481-0.4579582,0.1254387-0.8342056,0.5215359-1.0920906c0.1449814,0.1529503,0.2626495,0.3623962,0.440073,0.44804
			c0.5178299,0.2500153,1.0801163,0.8777466,1.5950222,0.5352745c0.6084633-0.4047089-0.1968079-0.9120636-0.2407627-1.4021797
			c-0.030859-0.3440933,0.0879097-0.6246452,0.4051876-0.8557549c0.0671253,0.1479645,0.1088772,0.2917862,0.1895599,0.4087143
			c0.3183384,0.4611969,0.1206112,1.4606705,0.8041096,1.3926849c0.6528988-0.0649605,0.7399883-0.943161,0.7983608-1.5931816
			c0.0192242-0.2139244,0.012476-0.4301567,0.0176029-0.6453476c0.3765125-0.1125221,0.6509972,0.1178665,0.9453468,0.2813339
			c-0.1057529,0.3003769-0.2254429,0.5967293-0.3140945,0.9021111c-0.1428986,0.4921379-0.830904,1.0056419-0.426836,1.4273109
			c0.5082989,0.5304451,1.0534821-0.1782036,1.5624828-0.3899689c0.2243004-0.0933151,0.3805771-0.3500595,0.5677319-0.5326271
			c0.4358482,0.249752,0.5599022,0.6568832,0.5669327,1.1231079c-0.7864685,0.37257-1.8226299,0.1425591-2.5723305,1.0582886
			c0.896965,0.3787766,1.6821117,0.6305733,2.5462151,0.5954285c0.1008911,0.5769234-0.0850868,1.0304947-0.5808868,1.3508148
			c-0.2396011-0.2061386-0.46208-0.437748-0.7226486-0.612587c-0.4256935-0.2856789-0.9249802-0.903553-1.3762875-0.5216751
			c-0.5706978,0.4829063,0.2427044,0.9003906,0.4006424,1.3639946c0.1199112,0.3520584,0.2469902,0.7016792,0.3708878,1.0523987
			c-0.307127,0.1745377-0.5743828,0.4736137-0.9877815,0.3162994c0.0226479-0.8576202-0.0123558-2.0808945-0.8234138-2.1358223
			c-0.7333202-0.0496635-0.61339,1.2562981-0.8163853,1.9850922c-0.0138569,0.0498238-0.0027828,0.1065521-0.0033035,0.16008
			c-0.3842831,0.0596123-0.7214069-0.0289383-0.9950485-0.3167992c-0.0071297-0.9140053,1.5115967-1.6503487,0.7473984-2.370636
			C27.2376499,46.7569695,26.368639,47.8158188,25.7350636,48.3476906z"/>
		<path class="st4" d="M29.7059879,42.545784c-0.005127,0.2151909,0.0016212,0.4314232-0.0176029,0.6453476
			c-0.0583725,0.6500206-0.145462,1.5282211-0.7983608,1.5931816c-0.6834984,0.0679855-0.4857712-0.931488-0.8041096-1.3926849
			c-0.0806828-0.1169281-0.1224346-0.2607498-0.1895599-0.4087143c-0.3172779,0.2311096-0.4360466,0.5116615-0.4051876,0.8557549
			c0.0439548,0.4901161,0.849226,0.9974709,0.2407627,1.4021797c-0.5149059,0.3424721-1.0771923-0.2852592-1.5950222-0.5352745
			c-0.1774235-0.0856438-0.2950916-0.2950897-0.440073-0.44804C26.5703125,42.6027336,27.9589958,42.1546326,29.7059879,42.545784z"
			/>
		<path class="st4" d="M28.0422592,49.9693642c0.0005207-0.0535278-0.0105534-0.1102562,0.0033035-0.16008
			c0.2029953-0.7287941,0.083065-2.0347557,0.8163853-1.9850922c0.811058,0.0549278,0.8460617,1.2782021,0.8234138,2.1358223
			C29.1397781,50.3365021,28.5918293,50.2930336,28.0422592,49.9693642z"/>
		<path class="st4" d="M25.7350636,48.3476906c0.6335754-0.5318718,1.5025864-1.5907211,2.0595455-1.0657616
			c0.7641983,0.7202873-0.754528,1.4566307-0.7473984,2.370636C26.4159775,49.4125252,25.9313087,49.0251198,25.7350636,48.3476906z
			"/>
		<path class="st4" d="M32.0406189,44.2339439c-0.1871548,0.1825676-0.3434315,0.439312-0.5677319,0.5326271
			c-0.5090008,0.2117653-1.054184,0.920414-1.5624828,0.3899689c-0.404068-0.421669,0.2839375-0.935173,0.426836-1.4273109
			c0.0886517-0.3053818,0.2083416-0.6017342,0.3140945-0.9021111
			C31.2849102,43.1277351,31.8222446,43.5233307,32.0406189,44.2339439z"/>
		<path class="st4" d="M30.6731434,49.6437149c-0.1238976-0.3507195-0.2509766-0.7003403-0.3708878-1.0523987
			c-0.157938-0.463604-0.9713402-0.8810883-0.4006424-1.3639946c0.4513073-0.3818779,0.9505939,0.2359962,1.3762875,0.5216751
			c0.2605686,0.174839,0.4830475,0.4064484,0.7226486,0.612587C31.8089085,49.0486908,31.3522148,49.4613075,30.6731434,49.6437149z
			"/>
		<path class="st4" d="M32.5814362,47.0107689c-0.8641033,0.0351448-1.64925-0.2166519-2.5462151-0.5954285
			c0.7497005-0.9157295,1.785862-0.6857185,2.5723305-1.0582886C32.7401962,45.9105301,32.9841843,46.4657478,32.5814362,47.0107689
			z"/>
		<path class="st4" d="M25.1752987,45.3496246c0.7664242,0.3894882,1.8032036,0.1467247,2.4688206,1.0041008
			c-0.7787971,0.6079025-1.5921402,0.7051048-2.4482346,0.6467934
			C24.9634933,46.4528275,25.0245514,45.9017754,25.1752987,45.3496246z"/>
		<path class="st7" d="M47.9909019,28.6070843c0.5139275-2.1159973,2.1869278-0.7290955,3.2884712-1.0356808
			c0.669239-0.1862335,1.6421585-0.1844711,1.4130363,1.0787163C51.1295433,28.210928,49.5614166,28.2673988,47.9909019,28.6070843z
			"/>
		<path class="st8" d="M47.9909019,28.6070843c1.5705147-0.3396854,3.1386414-0.3961563,4.7015076,0.0430355
			C51.1181526,29.2736416,49.550602,29.3341389,47.9909019,28.6070843z"/>
	</g>
</g>
</svg>
