<?xml version="1.0" encoding="utf-8"?>
<!-- Generator: Adobe Illustrator 25.4.1, SVG Export Plug-In . SVG Version: 6.00 Build 0)  -->
<svg version="1.1" id="Layer_1" xmlns="http://www.w3.org/2000/svg" xmlns:xlink="http://www.w3.org/1999/xlink" x="0px" y="0px"
	 width="120px" height="56px" viewBox="0 0 120 56" style="enable-background:new 0 0 120 56;" xml:space="preserve">
<style type="text/css">
	.st0{fill:url(#SVGID_1_);}
	.st1{fill:#BDCCD4;stroke:#726A63;stroke-width:0.25;stroke-miterlimit:10;}
	.st2{fill:#303940;}
	.st3{fill:#0A212B;}
	.st4{fill:#EC5B2A;}
	.st5{fill:#FBD404;}
	.st6{fill:#C5C9CC;}
	.st7{fill:#B1B4B8;}
	.st8{fill:#797A7D;}
</style>
<g>
	<radialGradient id="SVGID_1_" cx="60" cy="51.9052238" r="29.2141991" gradientUnits="userSpaceOnUse">
		<stop  offset="0" style="stop-color:#B3B3B3"/>
		<stop  offset="1" style="stop-color:#726A63;stop-opacity:0.8"/>
	</radialGradient>
	<ellipse class="st0" cx="60" cy="51.9052238" rx="41.2793694" ry="1.7182807"/>
	<g>
		<path class="st1" d="M12.3582497,42.4374962c-0.1412849-1.3241158-0.3442869-2.6523857,1.2153254-3.3958702
			c0.231842-0.1105156,0.352169-0.5291252,0.4529953-0.8290977c1.2949162-3.8525391,4.2943201-5.2580757,8.0277815-5.5717125
			c4.9127769-0.4127159,9.8269405-0.8124428,14.7445374-1.161087c0.9034233-0.064043,1.6041069-0.3499508,2.3005867-0.9086895
			c7.9775009-6.3998299,16.9236755-9.3797913,27.2833061-8.525589c8.5749741,0.7070522,17.2062607,0.8997326,25.8149109,0.9542427
			c3.9005203,0.0246964,7.1888351,0.9337025,9.8850174,3.6962814c2.54673,2.6094284,4.6256866,5.5347385,5.4657974,9.1746426
			c-0.7790604,0.0475731-1.5661697,0.0459785-2.3349838,0.1636772c-0.9477386,0.1450806-1.5459213,0.7515182-1.5546494,1.7204781
			c-0.0095901,1.0659332,0.6262436,1.6987762,1.6749496,1.7982101c0.7081985,0.0671616,1.4298859-0.0076103,2.1455307-0.0188904
			c0.4721909,5.4511337,0.2229614,5.7972183-5.1488647,6.461628c-2.9000473,0.3586922-5.7509232,1.1541367-8.7090378,1.0127029
			c1.1111832-2.9802856-0.0406647-5.4026451-1.9867096-7.5424538c-2.1342697-2.3467407-4.8614197-3.0604248-7.901535-2.3193512
			c-3.601593,0.8779488-6.8773193,3.8968239-6.2759552,9.9929123c-0.1932449,0.0332451-0.386528,0.0955048-0.5798416,0.095623
			c-14.0646629,0.0084915-28.1293526,0.0134926-42.1940269,0.0101318c-0.5044708-0.0001221-1.071331,0.1452599-1.4461441-0.3830872
			c0.7973404-0.3997993,0.7586555-1.1321945,0.7711983-1.866848c0.0864029-5.0549889-5.471199-9.2547989-10.3917618-7.8276253
			c-3.7225304,1.0796967-6.7766628,4.0222855-6.213213,10.0012932c-0.9103394,0.0400925-1.820487,0.0859489-2.7310801,0.1190262
			c-1.7236748,0.062603-2.6231089-0.6507072-2.3171473-2.4847336c1.0681238-0.2599411,2.938447,0.800518,3.0068045-1.0862732
			C15.4392452,41.586483,13.4575872,42.7020912,12.3582497,42.4374962z M18.2947025,35.0171013
			c-0.4094524-0.1004791-0.7233562-0.0147171-0.8499241,0.4361076c-0.7574501,0.7046585-1.6690197,1.2965584-1.8321781,2.6108246
			c2.512495-0.4518738,4.538456-1.7212067,6.4787521-3.1732597c0.696804-0.0168991,1.2311859-0.2308235,1.316946-1.1304283
			c-1.8417587,0.0709572-3.7327862-0.3547096-5.1416531,1.2774734L18.2947025,35.0171013z M60.0987778,30.9844437
			c0.1911201-0.0355282,0.4750862-0.002512,0.5594978-0.1168251c1.342823-1.8186741,1.8076401-3.9617329,2.1720924-6.1280193
			c0.0904121-0.5375004-0.2709999-0.8584461-0.8222427-0.8471775c-2.5059891,0.0512218-5.060688-0.3677959-7.4597054,0.7496643
			c-3.8731422,0.7931843-7.3307838,2.4834423-10.4826202,4.6037865c1.6969299,1.9118233,3.7263489,2.4598789,6.0419044,2.115181
			C53.4233398,30.8674927,56.7670441,31.0754776,60.0987778,30.9844437z M72.2999573,30.6023998
			c8.0019531-0.1456242,16.0039291-0.2905655,24.0058136-0.4392929c0.3267746-0.006073,0.6591187-0.015646,0.9782562-0.0780449
			c2.0812378-0.4069653,2.4102097-1.3164673,1.0150833-2.933342c-1.1589584-1.3431358-2.5679245-2.227562-4.4411774-2.1439514
			c-0.6543884,0.029211-1.3159714,0.0185089-1.9681244-0.0410633c-8.4805832-0.7746639-17.0045013-0.4738579-25.4932861-1.0364227
			c-0.5155106,1.9900761-1.0833664,3.9686012-1.5259857,5.9747601c-0.2470398,1.1197758,0.6386566,1.2017879,1.3640366,1.0103512
			C68.2445602,30.3849163,70.2817154,30.7433815,72.2999573,30.6023998z"/>
		<path class="st2" d="M30.840826,49.5393562c-3.6938705,3.040863-5.931715,3.1277084-10.0871391,0.3914871
			c-0.8981075-0.9694061-0.9141731-2.5176468-2.1447926-3.2689552c0.4769306-0.6234322,0.3753567-1.3545723,0.4072819-2.0698471
			c0.1644859-3.686573,4.1242943-6.7551689,7.6916313-5.9743996c3.7078514,0.8115273,5.6564159,3.4499359,5.7239437,7.7503777
			C31.9014416,47.4251328,31.3711338,48.4822502,30.840826,49.5393562z M27.965786,48.4710236
			c0.6655426-0.1999474,1.0745945-0.6466408,1.2593269-1.3091202c0.1297016-0.3890305,0.2594051-0.7780533,0.3891068-1.1670761
			c0.2772064-0.5315437,0.3740559-1.0632362,0.0013027-1.5953102c0.118433-0.4604492-0.0028439-0.8514786-0.3415985-1.1794968
			c-0.283823-0.6491737-0.7304192-1.1385612-1.3914642-1.4174118c-0.3232803-0.5166283-0.8575535-0.5913239-1.3924179-0.6647644
			c-0.512867-0.3872681-1.0269184-0.4441299-1.5427265-0.0054932c-0.6749306,0.0751762-1.3675423,0.1156349-1.6996918,0.8646431
			c-0.6977329,0.1463966-1.0488892,0.6563301-1.3159237,1.254509c-0.9022522,2.4511795-0.5295467,4.211216,1.4446259,5.4343987
			C24.8570347,49.6033287,26.5004311,49.8802567,27.965786,48.4710236z"/>
		<path class="st2" d="M90.8890686,49.541069c-3.968689,3.2746086-7.3864136,3.1311913-10.63134-0.4461327
			c-0.415451-1.0022278-0.8308868-2.004467-1.2463379-3.0067024c0.0107269-0.3946304-0.0086975-0.7927742,0.0368118-1.1833572
			c0.5283508-4.5365868,4.6208191-7.3731155,8.9170074-5.9488525c3.3109894,1.0976448,4.3058777,3.9183311,4.464386,7.1312904
			C92.071579,47.3079224,91.5514679,48.456234,90.8890686,49.541069z M88.9059753,42.8211441
			c-0.14151-0.6449013-0.6093445-0.9709282-1.1744766-1.2018623c-0.3228455-0.3610039-0.7249756-0.4795914-1.1949234-0.390831
			c-0.5298538-0.3771515-1.0579681-0.4031944-1.5838623,0.0079536c-0.7280807-0.1241035-1.3292542,0.0220184-1.646286,0.773159
			c-0.6705704,0.1111794-0.9753418,0.6005287-1.2059631,1.1665306c-1.302475,2.9832306-0.1173172,5.4617767,2.8538132,5.9683266
			c0.5219269,0.4476089,1.0503998,0.3670769,1.5821762,0.0196228c0.4641953,0.0760117,0.8776169-0.0077362,1.1990662-0.3809929
			c0.7403717-0.3228989,1.264679-0.8608971,1.5899353-1.5970573C90.102562,45.6429253,90.215538,44.163681,88.9059753,42.8211441z"
			/>
		<path class="st3" d="M92.4295959,46.0873146c-0.1585083-3.2129593-1.1533966-6.0336456-4.464386-7.1312904
			c-4.2961884-1.424263-8.3886566,1.4122658-8.9170074,5.9488525c-0.0455093,0.390583-0.0260849,0.7887268-0.0368347,1.1833534
			c-0.5180664,0.3504333-1.0361023,0.7008667-1.5541611,1.0513c-0.6013184-6.0960884,2.674408-9.1149635,6.276001-9.9929123
			c3.0401154-0.7410736,5.7672653-0.0273895,7.901535,2.3193512c1.9460449,2.1398087,3.0978928,4.5621681,1.9867096,7.5424576
			C93.2241745,46.7014236,92.8268967,46.394371,92.4295959,46.0873146z"/>
		<path class="st3" d="M32.4317513,46.3680191c-0.0675278-4.3004417-2.0160923-6.9388504-5.7239437-7.7503777
			c-3.567337-0.7807693-7.5271454,2.2878265-7.6916313,5.9743996c-0.0319252,0.7152748,0.0696487,1.4464149-0.4072819,2.0698471
			c-0.3704987,0.2430458-0.7098446,0.5600739-1.2051773,0.5071068c-0.5637035-5.9789848,2.4904289-8.9215736,6.2129593-10.0012703
			c4.9205627-1.4271736,10.4781647,2.7726364,10.3917618,7.8276253c-0.0125427,0.7346535,0.0261421,1.4670486-0.7720184,1.8662491
			C32.9676361,46.6966705,32.6996994,46.5323486,32.4317513,46.3680191z"/>
		<path class="st4" d="M107.4793549,39.5340919c-0.7156448,0.0112801-1.4373322,0.0860519-2.1455307,0.0188904
			c-1.0487061-0.0994339-1.6845398-0.7322769-1.6749496-1.7982101c0.008728-0.9689598,0.6069107-1.5753975,1.5546494-1.7204781
			c0.7688141-0.1176987,1.5559235-0.1161041,2.3349838-0.1636772
			C107.9092941,37.1015205,107.6743546,38.3174286,107.4793549,39.5340919z"/>
		<path class="st3" d="M12.3582497,42.4374962c1.0993376,0.264595,3.0809956-0.8510132,3.0037909,1.279541
			c-0.0683575,1.8867912-1.9386806,0.8263321-3.0068045,1.0862732
			C12.3562489,44.014843,12.3572493,43.2261696,12.3582497,42.4374962z"/>
		<path class="st3" d="M66.3965225,23.9302807c8.4887848,0.5625668,17.0127029,0.2617607,25.4932861,1.0364246
			c0.652153,0.0595722,1.313736,0.0702744,1.9681244,0.0410633c1.8732529-0.0836105,3.2822189,0.8008156,4.4411774,2.1439514
			c1.3951263,1.6168747,1.0661545,2.5263767-1.0150833,2.933342c-0.3191376,0.0623989-0.6514816,0.0719719-0.9782562,0.0780449
			c-8.0018845,0.1487274-16.0038605,0.2936687-24.0056458,0.4391232c-0.7429047-0.8168716-1.513092-1.6107597-2.2229538-2.4553814
			C68.8763504,26.71805,67.1135635,25.7795181,66.3965225,23.9302807z"/>
		<path class="st3" d="M60.0987778,30.9844379c-3.3317337,0.0910397-6.6754379-0.1169453-9.9910736,0.3766155
			c-2.3155556,0.344698-4.3449745-0.2033577-6.0419044-2.115181c3.1518364-2.1203442,6.609478-3.8106022,10.4825745-4.6036148
			c-0.000412,0.8243904,0.6579361,1.220295,1.1366119,1.7251587C57.1498947,27.9124546,58.6266518,29.4462605,60.0987778,30.9844379
			z"/>
		<path class="st2" d="M60.0987778,30.9844379c-1.472126-1.5381775-2.9488831-3.0719833-4.4137917-4.6170216
			c-0.4786758-0.5048637-1.1370239-0.9007683-1.1366119-1.7251587c2.3990631-1.1176319,4.9537621-0.6986141,7.4597511-0.749836
			c0.5512428-0.0112686,0.9126549,0.3096771,0.8222427,0.8471775c-0.3644524,2.1662865-0.8292694,4.3093452-2.1720924,6.1280193
			C60.573864,30.9819317,60.2898979,30.9489155,60.0987778,30.9844379z"/>
		<path class="st2" d="M66.3965225,23.9302807c0.717041,1.8492374,2.4798279,2.7877693,3.6806488,4.216568
			c0.7098618,0.8446217,1.4800491,1.6385098,2.2229538,2.4553814c-2.0184097,0.1411514-4.0555649-0.2173138-6.0655518,0.3131638
			c-0.7253799,0.1914368-1.6110764,0.1094246-1.3640366-1.0103512
			C65.3131561,27.8988838,65.881012,25.9203587,66.3965225,23.9302807z"/>
		<path class="st5" d="M22.0913525,34.8907738c-1.9402962,1.4520531-3.9662571,2.721386-6.4787521,3.1732597
			c0.1631584-1.3142662,1.074728-1.9061661,1.8324432-2.6110878c0.2833996-0.1454544,0.5665226-0.2906494,0.849659-0.4358444
			c0,0-0.0280571,0.0207176-0.0279121,0.0204468C19.5418453,34.991127,20.7857094,34.1347389,22.0913525,34.8907738z"/>
		<path class="st2" d="M22.0913525,34.8907738c-1.3056431-0.7560349-2.5495071,0.1003532-3.8245621,0.1467743
			c1.4087219-1.6319122,3.2997494-1.2062454,5.1415081-1.2772026
			C23.3225384,34.6599503,22.7881565,34.8738747,22.0913525,34.8907738z"/>
		<path class="st2" d="M18.2947025,35.0171013c-0.2831364,0.145195-0.5662594,0.29039-0.849659,0.4358444
			C17.5713463,35.0023842,17.8852501,34.9166222,18.2947025,35.0171013z"/>
		<path class="st6" d="M23.2476234,41.996994c0.3321495-0.7490082,1.0247612-0.7894669,1.6996193-0.8645134
			c0.0927277,0.824749-0.1033688,1.7666588,0.9166908,2.3598595c0.2309513-0.8684959,0.4285297-1.611496,0.6261082-2.354496
			c0.5348644,0.0734406,1.0691376,0.1481361,1.3917656,0.6651497c-0.440834,0.6736603-1.1047726,1.2381821-1.0465984,2.1537971
			c-0.0389519,0.0795593-0.0783615,0.1587639-0.1177826,0.2379646c0.079277-0.0394897,0.1585655-0.0789833,0.2378445-0.1184769
			c0.7728748-0.2854233,1.545763-0.5708504,2.3186398-0.8562737c0.338768,0.3280334,0.4600449,0.7190628,0.3416348,1.179512
			c-0.8353291,0.0084305-1.5888252,0.2133675-2.3188457,0.8218422c0.8123951,0.5382805,1.5188179,0.7967033,2.3175201,0.773468
			c-0.1297016,0.3890228-0.2594051,0.7780457-0.389082,1.1670761c-0.9275398-0.02491-1.5985641-0.9791832-2.7133045-0.8518486
			c0.4425087,0.8848457,0.5635586,1.7781029,1.4539528,2.1609688c-1.4653549,1.4092331-3.1087513,1.1323051-4.5894604,0.2148781
			c-1.9741726-1.2231827-2.3468781-2.9832191-1.4446487-5.4344063c0.9973068-0.2797928,1.5172005,1.1353912,2.7175941,0.7511215
			C24.2716122,43.1878128,24.1928291,42.3208771,23.2476234,41.996994z"/>
		<path class="st7" d="M23.2476234,41.996994c0.9452057,0.3238831,1.0239887,1.1908188,1.4016476,2.0056229
			c-1.2003937,0.3842697-1.7202873-1.0309143-2.7175941-0.7511215
			C22.1987343,42.6533241,22.5498905,42.1433907,23.2476234,41.996994z"/>
		<path class="st8" d="M26.4900417,41.1378441c-0.1975784,0.743-0.3951569,1.4860001-0.6261082,2.354496
			c-1.0200596-0.5932007-0.8239632-1.5351105-0.9166908-2.3598595
			C25.4631233,40.6937141,25.9771748,40.750576,26.4900417,41.1378441z"/>
		<path class="st7" d="M27.965786,48.4710236c-0.8903942-0.3828659-1.0114441-1.276123-1.4539528-2.1609688
			c1.1147404-0.1273346,1.7857647,0.8269386,2.7133045,0.8518486C29.0403805,47.8243828,28.6313286,48.2710762,27.965786,48.4710236
			z"/>
		<path class="st7" d="M29.6142197,45.9948273c-0.7987022,0.0232353-1.505125-0.2351875-2.3175201-0.773468
			c0.7300205-0.6084747,1.4835167-0.8134117,2.3188457-0.8218422C29.9882755,44.931591,29.8914261,45.4632835,29.6142197,45.9948273
			z"/>
		<path class="st7" d="M26.8347511,43.9564362c-0.0577164-0.9152603,0.6062222-1.4797821,1.0470562-2.1534424
			c0.6616974,0.2784653,1.1082935,0.7678528,1.3921165,1.4170151c-0.7728901,0.2854195-1.5457783,0.5708466-2.3186531,0.8562698
			L26.8347511,43.9564362z"/>
		<path class="st6" d="M87.7355194,48.7830505c-0.3214493,0.3732567-0.7348709,0.4570045-1.1990662,0.3809814
			c-0.1981812-0.7583542-0.3963623-1.5166893-0.6216354-2.3786469c-1.041214,0.7010994-0.9733353,1.5396652-0.9605408,2.3590355
			c-2.9711304-0.5065498-4.1562881-2.985096-2.8537445-5.9682922c0.9024963-0.0318184,1.3944321,1.1167183,2.5747452,0.8837357
			c-0.3447571-0.8599319-0.444519-1.6987572-1.3688507-2.0503006c0.3170319-0.7511406,0.9182053-0.8972626,1.646286-0.7731514
			c-0.031868,0.8758049,0.1727982,1.6464386,0.9907608,2.3814316c0.231041-0.9307556,0.412056-1.6600761,0.5931015-2.3893929
			c0.4699478-0.0887604,0.8720779,0.0298271,1.1949005,0.3908272c-0.0058365,0.974575-1.2437592,1.4987602-0.9691238,2.7459831
			c0.8540497-0.4331818,1.6947861-0.6883354,2.1436234-1.544117c1.3095627,1.3425369,1.1965866,2.8217812,0.4194794,4.3648453
			c-0.8430023-0.3544006-1.6860123-0.7087784-2.5855179-1.0869026
			C86.5244522,47.2907791,87.720314,47.8117218,87.7355194,48.7830505z"/>
		<path class="st7" d="M87.7355194,48.7830505c-0.0152054-0.9713287-1.2110672-1.4922714-0.9955826-2.6839638
			c0.8995056,0.3781242,1.7425156,0.732502,2.5855179,1.0869026C89.0001984,47.9221535,88.4758911,48.4601517,87.7355194,48.7830505
			z"/>
		<path class="st7" d="M84.954277,49.1444206c-0.0127945-0.8193703-0.0806732-1.6579361,0.9605408-2.3590355
			c0.2252731,0.8619576,0.4234543,1.6202927,0.6216354,2.3786469C86.0046768,49.5114975,85.4762039,49.5920296,84.954277,49.1444206
			z"/>
		<path class="st7" d="M83.306427,42.0095634c0.9243317,0.3515434,1.0240936,1.1903687,1.3688507,2.0503006
			c-1.1803131,0.2329826-1.6722488-0.915554-2.5747452-0.8837357C82.3310852,42.6100922,82.6358566,42.1207428,83.306427,42.0095634
			z"/>
		<path class="st7" d="M86.5365753,41.2284508c-0.1810455,0.7293167-0.3620605,1.4586372-0.5931015,2.3893929
			c-0.8179626-0.734993-1.0226288-1.5056267-0.9907608-2.3814316
			C85.4786072,40.8252563,86.0067215,40.8512993,86.5365753,41.2284508z"/>
		<path class="st7" d="M88.9059753,42.8211441c-0.4488373,0.8557816-1.2895737,1.1109352-2.1436234,1.544117
			c-0.2746353-1.2472229,0.9632874-1.7714081,0.9691238-2.7459831
			C88.2966309,41.8502159,88.7644653,42.1762428,88.9059753,42.8211441z"/>
		<path class="st7" d="M26.9552708,44.0762787c-0.0792789,0.0394936-0.1585674,0.0789871-0.2378445,0.1184769
			c0.0394211-0.0792007,0.0788307-0.1584053,0.1177826-0.2379646
			C26.8347511,43.9564362,26.9552708,44.0762787,26.9552708,44.0762787z"/>
	</g>
</g>
</svg>
