<?xml version="1.0" encoding="utf-8"?>
<!-- Generator: Adobe Illustrator 25.4.1, SVG Export Plug-In . SVG Version: 6.00 Build 0)  -->
<svg version="1.1" id="Layer_1" xmlns="http://www.w3.org/2000/svg" xmlns:xlink="http://www.w3.org/1999/xlink" x="0px" y="0px"
	 width="120px" height="56px" viewBox="0 0 120 56" style="enable-background:new 0 0 120 56;" xml:space="preserve">
<style type="text/css">
	.st0{fill:url(#SVGID_1_);}
	.st1{fill:#BDCCD4;stroke:#726A63;stroke-width:0.25;stroke-miterlimit:10;}
	.st2{fill:#303940;}
	.st3{fill:#0A212B;}
	.st4{fill:#E61E26;}
	.st5{fill:#FBD404;}
	.st6{fill:#5E6265;}
	.st7{fill:#C5C9CC;}
	.st8{fill:#B1B4B8;}
</style>
<g>
	
		<radialGradient id="SVGID_1_" cx="-422.2029419" cy="51.9052238" r="17.4333878" gradientTransform="matrix(1.8431855 0 0 1 838.1983032 0)" gradientUnits="userSpaceOnUse">
		<stop  offset="0" style="stop-color:#B3B3B3"/>
		<stop  offset="1" style="stop-color:#726A63;stop-opacity:0.8"/>
	</radialGradient>
	<ellipse class="st0" cx="60" cy="51.9052238" rx="45.3323784" ry="1.7182807"/>
	<g>
		<path class="st1" d="M2.1167996,40.2449226c-0.4710642-1.4903717,1.1104167-1.8962784,1.5383778-2.9116669
			c1.1041429,0.0478287,2.2082794,0.0953255,3.3123901,0.143486c2.7689867,0.1209145,3.3614092-0.5258331,3.431159-3.294651
			c0.0491257-1.950222-0.6951075-2.8518028-2.6809435-2.712101c-0.8246775,0.058033-1.6597509-0.031683-2.4900961-0.0542259
			c1.4772215-2.2143974,3.7417355-3.0249157,6.2105036-3.2551212c5.2387314-0.4884129,10.4864712-0.8899021,15.7360172-1.2457962
			c1.3027325-0.0883198,2.3802414-0.4472103,3.423111-1.2396545c3.0881672-2.3467121,6.2243252-4.6310234,9.3648891-6.9077721
			c3.11306-2.2568436,6.5461159-3.4830666,10.457695-3.4287138c5.8893585,0.0818205,11.7807274,0.0105095,17.6711769,0.0262747
			c3.4433289,0.0092154,3.9339294,0.5188513,3.920105,3.979681c-0.0088425,2.2161484-0.04496,4.4321957-0.0688553,6.6483707
			c-0.0084457,3.9415245-0.1096802,7.8858662,0.0153656,11.8230495c0.0591125,1.8615761-0.4216843,2.4693832-2.3882065,2.4548607
			c-12.5155449-0.0925102-25.0321159-0.0518417-37.548336-0.0417862c-1.5874367,0.0012703-3.1748047,0.0797386-4.7612705,0.1216011
			c-4.7876282-6.152977-11.7182961-4.8250275-14.8956137-0.1473694c-2.1490116,0.0101051-1.3548708-1.2336617-0.8020611-2.1291733
			c0.4973936-0.805748,1.2724113-1.4400558,2.0636358-2.3008385c-1.3567591-0.1588211-1.9938478,0.6265411-2.2782736,1.2482071
			c-1.6763,3.6637688-4.8424697,3.3573265-7.990634,3.2063789C2.9447775,40.2081604,2.5302365,40.2380676,2.1167996,40.2449226z
			 M67.783783,26.944725c1.9773712-0.485239,1.5972824-2.0043736,1.4923325-3.4028206
			c0.0258484-1.0987072,0.0792999-2.1975918,0.0719223-3.2960949c-0.0165176-2.457449-0.462265-2.906208-2.868309-2.9263401
			c-1.1000214-0.0092144-2.2003326,0.0153351-3.3005028,0.024601c-2.4719772,0.0240917-2.0788765,1.7969646-2.0451088,3.350523
			c-0.0096092,1.3803463-0.007946,2.7608948-0.0319023,4.1409874c-0.0252686,1.4550591,0.6639481,2.1829185,2.1274796,2.163929
			C64.7477036,26.9798355,66.2657547,26.9628773,67.783783,26.944725z M41.9422112,19.73102
			c-2.0212479,1.4137554-4.0424919,2.8275089-5.853241,4.0940475c1.6037483,4.1248417,5.0057297,3.1222992,8.0261955,3.1677399
			c1.5179749,0.0228233,3.0368919-0.0168552,4.555378-0.0283051c2.2044983-0.0162983,4.4089966-0.0325966,6.6134911-0.0488949
			c2.9392433,0.1843319,3.3204803-0.1537418,3.3284264-2.9754372c0.0040855-1.4503365,0.0068665-2.9008522-0.010891-4.3510361
			c-0.0132637-1.0838051-0.4994392-2.0835285-1.5824318-2.111557c-3.4988518-0.0905018-7.0181808-0.5111847-10.4983177,0.2629814
			C44.8163834,17.9940434,43.3027458,18.6864376,41.9422112,19.73102z M35.9690094,27.6615429
			c-1.4610939-0.371027-2.0455742-1.009449-1.9385529-2.1562119c0.0327759-0.3510971-0.1498184-0.7720585-0.5060425-0.7847519
			c-0.2680779-0.0095692-0.6821747,0.2552624-0.7965431,0.5052948c-0.2896881,0.6333961-0.9835796,1.3691769-0.3555832,2.0159264
			C33.1963997,28.0905247,34.2662811,28.5445652,35.9690094,27.6615429z M59.3606796,16.449852
			c-0.0017624-0.0699902-0.003521-0.1399555-0.0052872-0.2099476c-3.6863823,0-7.3727722,0-11.0591545,0
			c0.001049,0.0699921,0.0021019,0.1399574,0.0031471,0.2099476C51.9864883,16.449852,55.6735802,16.449852,59.3606796,16.449852z
			 M58.3262444,29.8676376c-1.4808235-0.5506611-2.9588585-0.6244602-5.0503845-0.0219841
			C55.3603554,30.4398766,56.8418007,30.303196,58.3262444,29.8676376z M46.3423462,16.544569
			c-0.1080475,0.0618668-0.2122498,0.1215267-0.3164558,0.1812096c0.1051445,0.0571194,0.2103729,0.1590481,0.3154221,0.158844
			c0.1059799-0.0002022,0.2117805-0.1016979,0.3176537-0.158844C46.5546989,16.6660957,46.4504242,16.606411,46.3423462,16.544569z"
			/>
		<path class="st1" d="M72.7257538,26.2690353c8.1754684-0.0325451,16.3509216-0.0726051,24.5264359-0.0949459
			c5.2670822-0.0143681,10.5342636-0.0010147,15.8013992-0.0037308c1.6865463-0.000864,3.0394592,0.4135971,3.1314774,2.4474716
			c-2.5559387-0.0243206-3.000206,0.410984-3.0310974,2.9701061c-0.0427017,3.5361748,0.3069992,3.9940758,3.078392,4.0309105
			c-0.1093674,0.9193497,1.6222992,0.6932831,1.1433868,1.8416214c-0.5128479,0.9616928-1.5575943,0.9187393-2.3629608,1.0235367
			c-3.0678177,0.3992805-6.1631088,0.5821915-9.2379608,0.9347343c-1.7121201,0.1962624-2.8358307-0.3264198-3.6874008-1.903286
			c-0.6385422-1.182354-1.7947998-1.9742889-3.3553238-2.0099068c0.5035019,0.7615738,1.1679611,1.345211,1.8189011,1.9435234
			c0.5677338,0.5217934,1.2978287,1.1708298,1.103569,1.8880501c-0.2501907,0.9237175-1.343605,0.2902451-2.0029144,0.5851135
			c-1.3754349-1.5730324-2.9031754-2.888237-5.0123596-3.4240952c-4.1730728-1.0602226-7.1742325,0.7619514-9.7111664,3.8144112
			c-3.3185577-0.0297508-6.639595-0.1468086-9.954628-0.0526505c-1.6728897,0.0475235-2.3064423-0.3739967-2.2514572-2.1653519
			C72.8429108,34.1563759,72.7383194,30.2112961,72.7257538,26.2690353z M92.7159348,29.8181591
			c5.6827621,0,11.3655396,0.0020313,17.0483093-0.0032234c0.5519943-0.0005074,1.112236,0.0008621,1.6518402-0.0941086
			c0.2159653-0.0380039,0.386467-0.3344688,0.577652-0.5132923c-0.187355-0.1820984-0.350441-0.4763031-0.5670776-0.5232182
			c-0.4661331-0.1009369-0.9598236-0.0968742-1.4422607-0.0970516c-11.4348373-0.0044689-22.8696899-0.0038586-34.3045273-0.0037327
			c-0.3464813,0-0.6945572-0.0149269-1.0389862,0.0129471c-0.32547,0.0263519-0.7699127-0.0389175-0.8120575,0.4291363
			c-0.0472565,0.5247917,0.383255,0.7012024,0.8019333,0.7453003c0.5490799,0.0578289,1.1066513,0.0450096,1.6605759,0.0452633
			C81.7662048,29.8187428,87.241066,29.817728,92.7159348,29.8181591z M98.0190811,35.0910072
			c-0.6649017-0.8096542-1.2962952-0.7322235-2.2109299-0.5142059
			C96.5718384,34.8796921,97.0552673,35.2457657,98.0190811,35.0910072z"/>
		<path class="st1" d="M72.7257538,26.2690353c0.0125656,3.9422607,0.117157,7.8873405-0.0037079,11.8255119
			c-0.054985,1.7913551,0.5785675,2.2128754,2.2514572,2.1653519c3.315033-0.0941582,6.6360703,0.0228996,9.9539948,0.0521431
			c-0.7064819,1.5268021-0.9731827,3.1633987-1.197876,4.8104324c-0.3411713,0.0325203-0.6823273,0.093399-1.0235138,0.0934982
			c-17.7567444,0.0055847-35.5134964,0.0072632-53.2702332-0.0005569c-0.3981571-0.0001793-0.7962627-0.1137848-1.1943951-0.1745071
			c0.2504005-1.6841736-0.5641022-3.1452484-0.9825306-4.689312c1.5873985-0.0427017,3.1747665-0.12117,4.7622032-0.1224403
			c12.5162201-0.0100555,25.0327911-0.050724,37.548336,0.0417862c1.9665222,0.0145226,2.447319-0.5932846,2.3882065-2.4548607
			c-0.1250458-3.9371834-0.0238113-7.881525-0.0153656-11.8230495
			C72.203476,26.0849838,72.4646149,26.1770096,72.7257538,26.2690353z"/>
		<path class="st2" d="M25.1148434,49.7858162c-3.5374241,3.0236969-6.2996063,3.1351967-10.5338964,0.4252281
			c-1.401042-1.8295403-2.3232899-3.8251534-2.1508799-6.2005043c0.1650476-0.4499512,0.3235178-0.9024658,0.4961653-1.3494987
			c1.850668-4.7916718,6.6123667-6.3386307,10.9137716-3.6064224c1.8486347,1.1742058,2.2938194,3.1705589,3.1611252,4.9322128
			C27.0178528,46.1297913,26.4280891,48.07547,25.1148434,49.7858162z M18.6579323,40.5531654
			c-0.464941,0.0299568-0.9311905,0.0565109-1.2439098,0.4805183c-0.7628574,0.3550797-1.2788944,0.9503975-1.645813,1.6908722
			c-0.7480831,1.6345177-1.0448303,3.2340012,0.3647194,4.7011185c0.1460018,0.6770096,0.6073303,1.0324478,1.2386246,1.2145462
			c0.3399372,0.394001,0.7431927,0.6572838,1.2897606,0.6246872c0.7049866,0.1769218,1.410223,0.1899185,2.1157703,0.0032768
			c0.5200348-0.0274963,0.9733963-0.1890297,1.2834625-0.6385498c0.6042919-0.2233276,1.1109142-0.5431213,1.2301769-1.2455177
			c0.6384354-0.4122009,0.8898163-0.9847221,0.7176628-1.7326622c0.2284966-0.560154,0.1845989-1.1235352,0.0198059-1.6883087
			c0.1371346-0.4922981-0.0920429-0.8712692-0.3810024-1.2317581c-0.3428631-0.7568512-0.8902607-1.3103065-1.6466064-1.6560211
			c-0.2886944-0.4572639-0.7644672-0.4776726-1.228281-0.5260086
			C20.0668907,40.2065353,19.3620949,40.2039452,18.6579323,40.5531654z"/>
		<path class="st2" d="M97.8406372,49.7950592c-3.6991348,3.1630936-6.6570129,3.1624603-10.8999329-0.0023117
			c-1.1766052-1.7403297-1.8561859-3.6294975-1.7252579-5.761364c1.0005341-3.4496841,2.990387-5.9409714,6.7740479-6.2599792
			c3.7954483-0.3200264,6.1882553,1.7033119,7.800209,6.211544C99.7376633,46.1207275,99.2465363,48.11129,97.8406372,49.7950592z
			 M96.7765961,45.6544762c0.2569885-0.561348,0.2021408-1.1268616,0.0226669-1.694046
			c0.1519165-0.4946861-0.1268158-0.8560371-0.379425-1.2254906c-0.3262329-0.7674599-0.8846436-1.3051224-1.6354523-1.6523361
			c-1.5162582-1.0756073-3.0506744-0.9828682-4.5978088-0.0714645c-0.7030106,0.4196396-1.3277588,0.9149094-1.6474609,1.7049408
			c-0.3553925,0.3488121-0.5074463,0.7618523-0.3973541,1.2577286c-0.3543243,0.5599251-0.4816513,1.1159172,0.0288391,1.6608162
			c-0.1595154,0.7716522,0.0082016,1.4111633,0.7366028,1.8242798c0.1416321,0.6681519,0.6512299,0.9799995,1.2073517,1.2467651
			c1.6131516,0.9378052,3.2059326,1.1024132,4.7620316-0.1254616c0.6219711-0.170166,1.043335-0.5452309,1.2079468-1.18256
			C96.7007523,46.9696541,96.9499359,46.3959427,96.7765961,45.6544762z"/>
		<path class="st1" d="M99.6516571,39.9222336c0.6593094-0.2948685,1.7527237,0.338604,2.0029144-0.5851135
			c0.1942596-0.7172203-0.5358353-1.3662567-1.103569-1.8880501c-0.6509399-0.5983124-1.3153992-1.1819496-1.8189011-1.9435234
			c1.560524,0.0356178,2.7167816,0.8275528,3.3553238,2.0099068c0.8515701,1.5768661,1.9752808,2.0995483,3.6874008,1.903286
			c3.074852-0.3525429,6.1701431-0.5354538,9.2379608-0.9347343c0.8053665-0.1047974,1.8501129-0.0618439,2.3629608-1.0235367
			c1.2078781,2.0446854,0.6372681,3.6825562-1.9800339,4.4141731c-3.587265,1.0027199-7.2586517,1.7353745-10.9274673,2.3985519
			c-1.2592773,0.2276154-2.5745621,1.1580353-3.9202652,0.1871986
			C101.6530991,42.6703835,100.0792007,41.4095078,99.6516571,39.9222336z"/>
		<path class="st1" d="M2.1167996,40.2449226c0.4134369-0.006855,0.8279779-0.0367622,1.2401359-0.0169601
			c3.1481643,0.1509476,6.3143339,0.4573898,7.990634-3.2063789c0.2844257-0.621666,0.9215145-1.4070282,2.2782736-1.2482071
			c-0.7912245,0.8607826-1.5662422,1.4950905-2.0636358,2.3008385c-0.5528097,0.8955116-1.3469505,2.1392784,0.8023882,2.1292763
			c-0.786376,1.4550056-1.2424936,3.0069389-1.3661327,4.6564369c-2.5737734,0.529438-5.1449165,0.7033844-7.7091222-0.057045
			c0.2348387-0.5945816,0.8027749-0.3952179,1.2352328-0.5166702c0.8692565-0.2440643,1.5687685-0.7468452,1.4802232-1.6986427
			c-0.0928292-0.997921-0.7485304-1.5743217-1.8340964-1.5266457c-0.6839089,0.0300064-1.3694236,0.0234795-2.0542178,0.033329
			C2.1165872,40.811142,2.1166918,40.5280342,2.1167996,40.2449226z"/>
		<path class="st3" d="M99.6516571,39.9222336c0.4275436,1.4872742,2.001442,2.7481499,0.8963242,4.5381584
			c-0.252739-0.1591225-0.5055008-0.3182716-0.7582779-0.4774437c-1.6119537-4.5082321-4.0047607-6.5315704-7.800209-6.211544
			c-3.7836609,0.3190079-5.7735138,2.8102951-6.7740631,6.2599792c-0.4952621,0.3636894-0.9905472,0.7273788-1.4858093,1.0910912
			c0.2246933-1.6470337,0.491394-3.2836304,1.197876-4.8104324c2.5375671-3.0519524,5.5387268-4.8741264,9.7117996-3.8139038
			C96.7484818,37.0339966,98.2762222,38.3492012,99.6516571,39.9222336z"/>
		<path class="st3" d="M10.9984627,44.8599281c0.1236391-1.649498,0.5797567-3.2014313,1.3661327-4.6564369
			c3.1769905-4.6777611,10.1076584-6.0057106,14.8952866,0.1472931c0.4174957,1.5448761,1.2319984,3.0059509,0.9816227,4.6901741
			c-0.4134388-0.3513756-0.82691-0.7027512-1.2403755-1.0541267c-0.8673058-1.7616539-1.3124905-3.758007-3.1611252-4.9322128
			c-4.301405-2.7322083-9.0631037-1.1852493-10.9137716,3.6064224c-0.1726475,0.4470329-0.3311176,0.8995476-0.4961653,1.3494987
			C11.8550825,44.1288414,11.7638149,45.0624619,10.9984627,44.8599281z"/>
		<path class="st4" d="M116.2323608,35.6188469c-2.7713928-0.0368347-3.1210938-0.4947357-3.078392-4.0309105
			c0.0308914-2.5591221,0.4751587-2.9944267,3.0310974-2.9701061
			C116.4503632,30.9498177,116.3737717,33.2841148,116.2323608,35.6188469z"/>
		<path class="st5" d="M3.6968272,36.4553108c-0.1427045-1.3209419-0.1276281-2.6108627,0.7348373-3.7340164
			c0.887208,0.0164261,1.7746511,0.024044,2.6614814,0.0515862c1.088882,0.0337639,1.8863072,0.5015144,1.9494309,1.6632042
			c0.0675192,1.2425995-0.7020788,1.9098587-1.864665,2.0014801C6.0242491,36.5284729,4.8577156,36.4560966,3.6968272,36.4553108z"
			/>
		<path class="st6" d="M3.6968272,36.4553108c1.1608884,0.0007858,2.3274219,0.0731621,3.4810846-0.017746
			c1.1625862-0.0916214,1.9321842-0.7588806,1.864665-2.0014801c-0.0631237-1.1616898-0.860549-1.6294403-1.9494309-1.6632042
			c-0.8868303-0.0275421-1.7742734-0.0351601-2.6614814-0.0515862c0.0414786-0.5717049,0.3371439-0.9884014,0.7960954-1.3055058
			c0.8302722,0.0225182,1.6653457,0.1122341,2.4900231,0.0542011c1.985836-0.1397018,2.7300692,0.761879,2.6809435,2.712101
			c-0.0697498,2.7688179-0.6621723,3.4155655-3.431159,3.294651c-1.1041107-0.0481606-2.2082472-0.0956573-3.3123901-0.143486
			C3.6690478,37.0405998,3.6829374,36.7479668,3.6968272,36.4553108z"/>
		<path class="st3" d="M2.1164823,41.0942535c0.6847942-0.0098495,1.3703089-0.0033226,2.0542178-0.033329
			c1.085566-0.0476761,1.7412672,0.5287247,1.8340964,1.5266457c0.0885453,0.9517975-0.6109667,1.4545784-1.4802232,1.6986427
			c-0.4324579,0.1214523-1.0003941-0.0779114-1.2352328,0.5166702C1.5076227,44.0064812,2.1234319,42.4519043,2.1164823,41.0942535z
			"/>
		<path class="st3" d="M46.5208206,17.7405586c3.4801369-0.7741661,6.9994659-0.3534832,10.4983177-0.2629814
			c1.0829926,0.0280285,1.5691681,1.0277519,1.5824318,2.111557c0.0177574,1.4501839,0.0149765,2.9006996,0.010891,4.3510361
			c-0.007946,2.8216953-0.389183,3.1597691-3.3284264,2.975462c0.0022736-0.5264931-0.2846832-0.9001827-0.6403275-1.2468376
			C51.9342918,23.0279026,49.2280464,20.383709,46.5208206,17.7405586z"/>
		<path class="st2" d="M46.5208206,17.7405586c2.7072258,2.6431503,5.4134712,5.287344,8.1228867,7.928236
			c0.3556442,0.3466549,0.642601,0.7203445,0.6403275,1.2468376c-2.2044945,0.0162735-4.4089928,0.0325718-6.6137924,0.0486412
			c-1.7495003-2.8701591-4.6397476-4.6787262-6.7280312-7.2332535
			C43.3027458,18.6864376,44.8163834,17.9940434,46.5208206,17.7405586z"/>
		<path class="st3" d="M41.9422112,19.73102c2.0882835,2.5545273,4.9785309,4.3630943,6.7280312,7.2332535
			c-1.5181847,0.0116787-3.0371017,0.0513573-4.5550766,0.0285339c-3.0204659-0.0454407-6.4224472,0.9571018-8.0261955-3.1677399
			C37.8997192,22.5585289,39.9209633,21.1447754,41.9422112,19.73102z"/>
		<path class="st2" d="M69.2761154,23.5419044c0.10495,1.398447,0.4850388,2.9175816-1.492485,3.4026947
			c-0.3542786-0.4107304-0.6682587-0.866293-1.0693741-1.2242184c-1.867836-1.666708-3.1987915-3.9309635-5.580143-5.0257874
			c-0.0337639-1.5535583-0.4268646-3.3264313,2.0451508-3.3504734
			C64.8275528,19.7878361,66.8616638,21.851944,69.2761154,23.5419044z"/>
		<path class="st3" d="M61.1341171,20.6945934c2.3813477,1.0948238,3.7123032,3.3590794,5.5801392,5.0257874
			c0.4011154,0.3579254,0.7150955,0.813488,1.0693741,1.2241936c-1.5178757,0.0183029-3.0359268,0.0352612-4.553936,0.0549355
			c-1.4635315,0.0189896-2.1527481-0.7088699-2.1274796-2.163929
			C61.1261711,23.4554882,61.1245079,22.0749397,61.1341171,20.6945934z"/>
		<path class="st3" d="M69.2761154,23.5419044c-2.4144516-1.6899605-4.4485626-3.7540684-6.0968513-6.1977844
			c1.100132-0.0093155,2.2004433-0.033865,3.3004646-0.0246506c2.406044,0.0201321,2.8517914,0.4688911,2.868309,2.9263401
			C69.3554153,21.3443127,69.3019638,22.4431973,69.2761154,23.5419044z"/>
		<path class="st6" d="M35.9690094,27.6615429c-1.7027283,0.8830223-2.7726097,0.4289818-3.5967216-0.4197426
			c-0.6279964-0.6467495,0.0658951-1.3825302,0.3555832-2.0159264c0.1143684-0.2500324,0.5284653-0.514864,0.7965431-0.5052948
			c0.3562241,0.0126934,0.5388184,0.4336548,0.5060425,0.7847519
			C33.9234352,26.6520939,34.5079155,27.2905159,35.9690094,27.6615429z"/>
		<path class="st6" d="M59.3606796,16.449852c-3.6870995,0-7.3741913,0-11.0612946,0
			c-0.0010452-0.0699902-0.0020981-0.1399555-0.0031471-0.2099476c3.6863823,0,7.3727722,0,11.0591545,0
			C59.3571587,16.3098965,59.3589172,16.3798618,59.3606796,16.449852z"/>
		<path class="st6" d="M58.3262444,29.8676376c-1.4844437,0.4355583-2.965889,0.5722389-5.0503845-0.0219841
			C55.3673859,29.2431774,56.8454208,29.3169765,58.3262444,29.8676376z"/>
		<path class="st6" d="M46.3423462,16.544569c0.108078,0.061842,0.2123528,0.1215267,0.3166199,0.1812096
			c-0.1058731,0.0571461-0.2116737,0.1586418-0.3176537,0.158844c-0.1050491,0.0002041-0.2102776-0.1017246-0.3154221-0.158844
			C46.1300964,16.6660957,46.2342987,16.6064358,46.3423462,16.544569z"/>
		<path class="st6" d="M92.7159348,29.8179302c-5.4748688-0.0002022-10.9497299,0.0008125-16.4245987-0.0017509
			c-0.5539246-0.0002537-1.111496,0.0125656-1.6605759-0.0452633c-0.4186783-0.0440979-0.8491898-0.2205086-0.8019333-0.7453003
			c0.0421448-0.4680538,0.4865875-0.4027843,0.8120575-0.4291363c0.344429-0.027874,0.6925049-0.0129471,1.0389862-0.0129471
			c11.4348373-0.0001259,22.8696899-0.0007362,34.3045273,0.0037327c0.4824371,0.0001774,0.9761276-0.0038853,1.4422607,0.0970516
			c0.2166367,0.0469151,0.3797226,0.3411198,0.5670776,0.5232182c-0.191185,0.1788235-0.3616867,0.4752884-0.577652,0.5132923
			c-0.5396042,0.0949707-1.0998459,0.0936012-1.6518402,0.0941086
			C104.0814743,29.8201904,98.3986969,29.8181591,92.7159348,29.8179302z"/>
		<path class="st6" d="M98.0190811,35.0910072c-0.9638138,0.1547585-1.4472427-0.2113152-2.2109299-0.5142059
			C96.7227859,34.3587837,97.3541794,34.281353,98.0190811,35.0910072z"/>
		<path class="st7" d="M24.0083866,45.6514549c0.1721535,0.7479401-0.0792274,1.3204613-0.7177162,1.7325592
			c-0.671093-0.7221985-1.3691063-1.391922-2.4878445-1.4615326c-0.0103188,1.2443771,0.7964478,1.8905411,1.2577209,2.7071533
			c-0.3100662,0.4495201-0.7634277,0.6110535-1.2834549,0.6385498c-0.5401897-0.7775154,0.0488911-2.4158936-1.1563358-2.4165764
			c-0.7528687-0.0004311-0.8339424,1.4930878-0.9594421,2.4132996c-0.5465679,0.0325966-0.9498234-0.2306862-1.2896671-0.6247902
			c0.370882-0.7966805,1.6653423-1.6539612,0.9502144-2.3303871c-0.7084675-0.6701317-1.5733166,0.4440117-2.1889324,1.1159439
			c-1.4095497-1.4671173-1.1128025-3.0666008-0.3647261-4.7010918c1.0318727-0.0243721,1.5847311,1.3577003,2.7936049,0.9987335
			c-0.1033516-1.0668716-0.7813835-1.8127022-1.1477852-2.6896324c0.3127193-0.4240074,0.7789688-0.4505615,1.2439251-0.4803658
			c0.608923,0.8067093,0.0833282,2.0312576,1.0581169,2.866478c0.6092091-0.932579,0.8783321-1.8829269,1.0562382-2.8704376
			c0.4638138,0.048336,0.9395866,0.0687447,1.2282734,0.5260086c-0.1742496,0.9600449-1.4767761,1.5143127-1.0587196,2.7719383
			c1.0701637-0.1267281,1.6912689-1.1073112,2.7053337-1.1159172c0.2889595,0.3604889,0.518137,0.73946,0.3810329,1.2317581
			c-0.9791698,0.0579071-1.9063644,0.2562523-2.7772522,0.8812447
			C22.1080132,45.7444458,23.0657005,45.6702919,24.0083866,45.6514549z"/>
		<path class="st8" d="M20.7723026,40.5493584c-0.177906,0.9875107-0.4470291,1.9378586-1.0562382,2.8704376
			c-0.9747887-0.8352203-0.449194-2.0597687-1.0581169-2.866478C19.3620949,40.2039452,20.0668907,40.2065353,20.7723026,40.5493584
			z"/>
		<path class="st8" d="M17.4140224,41.0336838c0.3664017,0.8769302,1.0444336,1.6227608,1.1477852,2.6896324
			c-1.2088737,0.3589668-1.7617321-1.0231056-2.7936049-0.9987335C16.135128,41.9840813,16.651165,41.3887634,17.4140224,41.0336838
			z"/>
		<path class="st8" d="M23.6471901,42.7313881c-1.0140648,0.008606-1.63517,0.9891891-2.7053337,1.1159172
			c-0.4180565-1.2576256,0.88447-1.8118935,1.0587196-2.7719383C22.7569294,41.4210815,23.304327,41.9745369,23.6471901,42.7313881z
			"/>
		<path class="st8" d="M18.661314,49.2649078c0.1254997-0.9202118,0.2065735-2.4137306,0.9594421-2.4132996
			c1.2052269,0.0006828,0.6161461,1.639061,1.1563358,2.4165764C20.071537,49.4548264,19.3663006,49.4418297,18.661314,49.2649078z"
			/>
		<path class="st8" d="M22.0605469,48.6296349c-0.4612732-0.8166122-1.2680397-1.4627762-1.2577209-2.7071533
			c1.1187382,0.0696106,1.8167515,0.7393341,2.4878445,1.4615326
			C23.1714611,48.0865135,22.6648388,48.4063072,22.0605469,48.6296349z"/>
		<path class="st8" d="M16.1329288,47.4256744c0.6156158-0.6719322,1.4804649-1.7860756,2.1889324-1.1159439
			c0.7151279,0.6764259-0.5793324,1.5337067-0.9502144,2.3303871C16.7402592,48.4581223,16.2789307,48.102684,16.1329288,47.4256744
			z"/>
		<path class="st8" d="M24.0083866,45.6514549c-0.9426861,0.018837-1.9003735,0.0929909-2.7574158-0.8070641
			c0.8708878-0.6249924,1.7980824-0.8233376,2.7772522-0.8812447C24.1929855,44.5279198,24.2368832,45.091301,24.0083866,45.6514549
			z"/>
		<path class="st7" d="M88.1417618,43.9738083c-0.1100922-0.4958763,0.0419617-0.9089165,0.3973541-1.2577057
			c1.0249557,0.0040894,1.5728455,1.2799683,2.8349915,1.0285912c-0.1294708-1.0598907-0.7989883-1.8423309-1.1875305-2.7335548
			c1.5471344-0.9114037,3.0815506-1.0041428,4.5978088,0.0714378c-0.184021,0.9547653-1.4767456,1.5105553-1.0564194,2.7652626
			c1.0702744-0.1126404,1.6778564-1.1136856,2.6918716-1.1128998c0.2526093,0.3694534,0.5313416,0.7308044,0.3794556,1.2254906
			c-0.9658737-0.0020828-1.7945328,0.3661003-2.7280731,0.8945732c0.8422928,0.9082565,1.7895889,0.800869,2.7053757,0.7994728
			c0.1733398,0.7414665-0.0758438,1.3151779-0.6921158,1.7430687c-0.5939941-0.791729-1.4032211-1.0993385-2.4597473-1.24049
			c0.2085648,1.0717964,0.514473,1.85952,1.2518539,2.4231529c-1.5560989,1.2278748-3.14888,1.0632668-4.7618179,0.1252327
			c0.4034424-0.823822,1.0165329-1.5698586,1.1447449-2.632061c-1.3736649,0.4534569-1.3736649,0.4534569-2.3523102,1.3855247
			c-0.7284012-0.4131165-0.8961182-1.0526276-0.7366409-1.8242798c0.951416,0.0739746,1.8370285-0.0762863,2.8817978-0.8981018
			C89.9162216,44.4387894,89.0289993,44.2062988,88.1417618,43.9738083z"/>
		<path class="st8" d="M96.419838,42.7349396c-1.0140152-0.0007858-1.6215973,1.0002594-2.6918716,1.1128998
			c-0.4203262-1.2547073,0.8723984-1.8104973,1.0564194-2.7652626C95.5351944,41.4298172,96.093605,41.9674797,96.419838,42.7349396
			z"/>
		<path class="st8" d="M90.1865768,41.0111389c0.3885422,0.8912239,1.0580597,1.6736641,1.1875305,2.7335548
			c-1.262146,0.2513771-1.8100357-1.0245018-2.8349915-1.0285912
			C88.8588181,41.9260483,89.4835663,41.4307785,90.1865768,41.0111389z"/>
		<path class="st8" d="M88.1417618,43.9738083c0.8872375,0.2324905,1.7744598,0.4649811,2.9105988,0.7627144
			c-1.0447693,0.8218155-1.9303818,0.9720764-2.8817978,0.8981018
			C87.6601105,45.0897255,87.7874374,44.5337334,88.1417618,43.9738083z"/>
		<path class="st8" d="M94.8765869,48.5802078c-0.737381-0.563633-1.0432892-1.3513565-1.2518539-2.4231529
			c1.0565262,0.1411514,1.8657532,0.448761,2.4597473,1.24049C95.9199219,48.034977,95.498558,48.4100418,94.8765869,48.5802078z"/>
		<path class="st8" d="M96.7765961,45.6544762c-0.9157867,0.0013962-1.8630829,0.1087837-2.7053757-0.7994728
			c0.9335403-0.5284729,1.7621994-0.896656,2.7280731-0.8945732C96.9787369,44.5276146,97.0335846,45.0931282,96.7765961,45.6544762
			z"/>
		<path class="st8" d="M88.9072037,47.4589043c0.9786453-0.9320679,0.9786453-0.9320679,2.3523102-1.3855247
			c-0.128212,1.0622025-0.7413025,1.808239-1.1447449,2.632061C89.5584335,48.4389038,89.0488358,48.1270561,88.9072037,47.4589043z
			"/>
	</g>
</g>
</svg>
