<?xml version="1.0" encoding="utf-8"?>
<!-- Generator: Adobe Illustrator 25.4.1, SVG Export Plug-In . SVG Version: 6.00 Build 0)  -->
<svg version="1.1" id="Layer_1" xmlns="http://www.w3.org/2000/svg" xmlns:xlink="http://www.w3.org/1999/xlink" x="0px" y="0px"
	 width="120px" height="56px" viewBox="0 0 120 56" style="enable-background:new 0 0 120 56;" xml:space="preserve">
<style type="text/css">
	.st0{fill:url(#SVGID_1_);}
	.st1{fill:#BDCCD4;stroke:#726A63;stroke-width:0.25;stroke-miterlimit:10;}
	.st2{fill:#303940;}
	.st3{fill:#0A212B;}
	.st4{fill:#E61E26;}
	.st5{fill:#BDCCD4;}
	.st6{fill:#FBD404;}
	.st7{fill:#5E6265;}
	.st8{fill:#C5C9CC;}
	.st9{fill:#B1B4B8;}
	.st10{fill:#797A7D;}
</style>
<g>
	<radialGradient id="SVGID_1_" cx="60" cy="51.9052238" r="26.6169548" gradientUnits="userSpaceOnUse">
		<stop  offset="0" style="stop-color:#B3B3B3"/>
		<stop  offset="1" style="stop-color:#726A63;stop-opacity:0.8"/>
	</radialGradient>
	<ellipse class="st0" cx="60" cy="51.9052238" rx="37.6028214" ry="1.7182807"/>
	<g>
		<path class="st1" d="M19.5281792,47.1439209c-5.0847912,0.5082817-5.5717058,0.2745094-5.1851263-4.6581802
			c0.3368206-4.2978096,4.1994333-9.8249207,9.9060354-9.9244576c4.8503418-0.0846062,9.6895332-0.7308636,14.5379868-1.0658875
			c0.9758415-0.0674248,1.7233391-0.401907,2.4719429-0.99506c7.413044-5.8736801,15.6603241-8.7214031,25.3173141-8.5771923
			c10.2329712,0.1528149,19.811203,1.8780136,28.6114502,7.2202091c1.2944489,0.7857952,2.7007675,0.2904587,4.0471573,0.2929668
			c3.0721436,0.0057144,3.9080963,0.5886898,4.6818619,3.5768986c-0.7875137,0.0092354-1.5868607-0.0635986-2.3598175,0.0472908
			c-1.3118668,0.1882019-1.9495163,1.5397911-1.3342056,2.672821c0.6669617,1.2281494,2.9877853,1.258564,4.1115417,0.0538788
			c-0.5875778,0.2655411-0.2086334,0.5953445,0.0064926,0.7918816c2.3037796,2.1047935,1.112236,4.7911797,1.1049194,7.2259331
			c-0.0029526,0.9803467-1.1815643,1.5431557-2.1847076,1.734024c-2.8985443,0.5515137-5.8096771,1.0369186-8.7158508,1.5482712
			c0.0022659-0.3288536-0.0063477-0.6581955,0.0083923-0.9864922c0.249855-5.5623474-3.8309174-8.9106598-7.7783585-9.1910133
			c-4.581955-0.3254128-9.2592468,3.7253342-8.8071365,8.7139816c0.0495605,0.5468636-0.1198196,1.0369568-0.3833084,1.5035362
			c-0.1393051-0.000103-0.2785797-0.000206-0.4178543-0.000309c-0.1264954-0.2049522-0.2492218-0.2020721-0.3682251,0.0066719
			c-0.1280594,0.0277557-0.2561111,0.0797577-0.3841858,0.0798187c-13.2459679,0.006279-26.4919281,0.0097198-39.737896,0.0071831
			c-0.5067596-0.0000954-1.0697212,0.1269264-1.4207878-0.4230461c0.7410049-0.2931557,0.843605-0.9047165,0.8500328-1.6047325
			c0.0277824-3.0212021-2.3970909-6.4105682-5.5354195-7.7043953c-2.9349861-1.2100105-6.1953506-0.4914093-8.5008698,1.7616272
			C19.8154202,41.4529762,19.165823,44.123539,19.5281792,47.1439209z M24.0311451,34.897953
			c0.6918278-0.1902924,1.2269402-0.5800171,1.9664059-1.6044044c-1.8106441,0.367836-3.315876-0.1738091-4.4689522,1.1465912
			c-2.467308,0.7990341-3.2031307,1.467083-3.6473026,3.3493958C20.2161255,37.3920212,22.0669956,36.0227013,24.0311451,34.897953z
			 M45.9815178,29.7856541c-0.9866104,0.1415024-0.8525314,0.8783894-0.7297974,1.5105762
			c0.2744179,1.4134598,1.5743103,1.0341454,2.8847923,1.1950569c-1.6886711,1.0910759-2.9244308,1.549427-4.4552307,0.4454536
			c-0.7315826-0.5275955-1.9447975-1.3526802-2.7239914-0.2593384c-1.1148911,1.5643959-0.4209785,2.6402779,1.5014458,2.6333046
			c6.480114-0.0234833,12.9608421,0.1279068,19.4377213-0.3381386c1.4983101-0.1078186,2.57304-0.3779182,2.9091072-2.4427757
			c0.2613449,2.7708282,0.2630844,2.8331528,2.4816132,2.771244c3.7983627-0.1059914,7.5906372,0.0804138,11.402153-0.2214737
			c3.3015594-0.2615089,4.4200211-0.7592926,5.2905426-4.2907162c-6.1580276,0.715086-12.2581329,0.5279083-18.354393,0.5642395
			c-0.7671051,0.0045738-1.5838318,0.2374401-2.2813606-0.314579c0.3794594-0.6366787,0.3782883-1.1823578-0.2317734-1.7267056
			c-0.7798996-0.6958752-1.6465721-1.3684673-2.2026749-2.2278576c-1.9611778-3.0307674-4.4899178-2.9438992-7.3803864-1.6151466
			C50.8821945,26.6856689,48.024929,27.5188942,45.9815178,29.7856541z M71.6049423,23.8674488
			c-0.3934479,0-0.791832-0.0394554-1.1792068,0.0090485c-0.6141434,0.0768909-1.4419403-0.3409786-1.7873077,0.3935852
			c-0.354599,0.7541866,0.4464111,1.1415977,0.8743973,1.5865078c1.1362839,1.1812439,2.3857727,2.261528,3.4482651,3.5034313
			c0.9263382,1.0827656,2.0384827,1.4579124,3.3191223,1.1629829c1.9477158-0.4485531,3.906723-0.3219528,5.864151-0.3272076
			c0.899704-0.0024166,1.6786957-0.2840252,2.3957443-0.7576046c0.7546997-0.498436,1.2352982-1.2910175,1.1523056-2.1441193
			c-0.075058-0.771328-0.9049911-1.0989532-1.5927887-1.302721C80.0218735,24.7832966,75.8842545,23.9013062,71.6049423,23.8674488z
			 M91.3954926,31.4550152c-3.5421829-1.3313923-6.2415085-0.595129-6.8341827,1.7796574
			C86.7978897,32.652256,88.9987488,32.0791397,91.3954926,31.4550152z"/>
		<path class="st2" d="M32.8929901,49.5201569c-3.7319298,3.038929-5.8195362,3.1218681-10.1232357,0.4022064
			c-0.5826225-1.0953064-1.3443546-2.1027679-1.6384239-3.3396568c-0.0086975-0.4587097-0.026886-0.917469-0.0246391-1.3761253
			c0.0242729-4.9556732,5.1218624-8.2514725,9.5255566-6.0598068c2.9542046,1.4702759,3.8644791,4.0925598,3.5096169,7.247963
			C34.1764717,47.6167145,33.1417961,48.4114227,32.8929901,49.5201569z M27.0285034,49.1146049
			c0.51577,0.503418,1.0454636,0.3749275,1.5798244,0.0348167c2.916008-0.5639381,3.9144726-3.5413132,2.7308178-5.9248962
			c-0.2691612-0.6061058-0.6354847-1.1132698-1.3200779-1.2963371c-0.4689484-0.2385864-0.9378929-0.477169-1.4068394-0.7157631
			c-0.5373669-0.29739-1.0714817-0.4895592-1.5830498,0.0488663c-0.6177444-0.2095108-1.1211033-0.0255508-1.5403328,0.4477921
			c-0.7079601,0.3038368-1.1882439,0.8318901-1.5014038,1.5245361c-0.6058998,1.5253181-0.9455776,3.0203857,0.4901485,4.3137245
			c0.0283566,0.5191841,0.3472805,0.7637405,0.8176785,0.8651276
			C25.6915627,49.0944366,26.2882633,49.2816811,27.0285034,49.1146049z"/>
		<path class="st2" d="M91.422699,49.5306435c-4.0963821,3.3031235-7.2073441,3.169117-10.6333923-0.4580269
			c-0.4105301-0.8899193-0.8210602-1.7798424-1.2315979-2.6697693c0.0015411-0.4574242-0.0271606-0.9172745,0.0093002-1.3718987
			c0.3754807-4.6823196,4.0921326-7.3338585,8.6364059-6.1705475c2.8831177,0.7380638,4.718071,3.5956001,4.784256,7.4504433
			C92.4660187,47.3841133,91.9443588,48.4573784,91.422699,49.5306435z M90.1999741,45.9746208
			c0.3994446-0.5252151,0.3840561-1.0509033,0.0017929-1.5770035c0.1274872-0.4735909-0.0087509-0.8683586-0.3584976-1.1992912
			c-0.3120956-0.7479286-0.8878021-1.2349358-1.5851746-1.6015167c-1.5694199-0.8306236-3.0746689-0.9354324-4.4531403,0.3937111
			c-0.6887512,0.1532631-1.0395813,0.6598587-1.3088226,1.2517586c-0.5700912,1.3435173-0.7118988,2.6725273,0.1343689,3.9680824
			c0.2870102,0.7859001,0.8938828,1.2655411,1.5895691,1.6601372c0.339325,0.4132309,0.8435745,0.2882271,1.2778549,0.3915901
			c0.5149994,0.3936806,1.0272751,0.3935966,1.5367584-0.010643c0.4433289-0.0661392,0.9099884-0.0716705,1.224884-0.4714928
			c0.7973175-0.268837,1.2442093-0.8859596,1.5919189-1.6016731C90.1875,46.8407135,90.3258743,46.4459229,90.1999741,45.9746208z"
			/>
		<path class="st3" d="M92.9876709,46.3108444c-0.066185-3.8548431-1.9011383-6.7123795-4.784256-7.4504433
			c-4.5442734-1.163311-8.2609253,1.4882278-8.6364059,6.1705475c-0.0364609,0.4546242-0.0077591,0.9144745-0.0093155,1.3718948
			c-0.6567841,0.2438202-1.1340332,0.9765167-1.9728928,0.7244911c0.2634506-0.4665833,0.4328308-0.9566765,0.3832703-1.50354
			c-0.4521103-4.9886475,4.2251816-9.0393944,8.8071365-8.7139816c3.9474411,0.2803535,8.0282135,3.6286659,7.7783585,9.1910133
			c-0.01474,0.3282967-0.0061264,0.6576385-0.0083923,0.9864922C93.831398,47.2188263,93.5340347,46.5151176,92.9876709,46.3108444z
			"/>
		<path class="st3" d="M34.1418648,46.3947372c0.3548622-3.1554031-0.5554123-5.7776871-3.5096169-7.247963
			c-4.4036942-2.1916656-9.5012836,1.1041336-9.5255566,6.0598068c-0.0022469,0.4586563,0.0159416,0.9174156,0.0246391,1.3761253
			c-0.5344009,0.1870689-1.0687981,0.3741417-1.6031723,0.5612183c-0.3623352-3.0203857,0.287262-5.6909485,2.541399-7.8937759
			c2.3055191-2.2530365,5.5658836-2.9716377,8.5008698-1.7616272c3.1383286,1.2938271,5.5632019,4.6831932,5.5354195,7.7043953
			c-0.0064278,0.700016-0.1090279,1.3115768-0.8500252,1.6047325
			C34.8845062,46.6633492,34.5131836,46.5290451,34.1418648,46.3947372z"/>
		<path class="st4" d="M104.3343201,35.7872086c-1.1237564,1.2046852-3.4445801,1.1742706-4.1115417-0.0538788
			c-0.6153107-1.1330299,0.0223389-2.4846191,1.3342056-2.672821c0.7729568-0.1108894,1.5723038-0.0380554,2.3598099-0.0472908
			C104.0560074,33.9382553,104.1951523,34.8627319,104.3343201,35.7872086z"/>
		<path class="st5" d="M63.4410515,30.9101734c0.7567177,0.5988579,1.6427345,0.3462315,2.4749336,0.3412704
			c6.6135254-0.0394135,13.0878983-0.3075333,19.7684326-1.0832939c-0.9443893,3.8310604-2.0144348,4.8422604-5.5961304,5.1259594
			c-4.1349182,0.3275032-8.2489624,0.1252785-12.369606,0.2402611c-2.4067764,0.0671654-3.1954956,1.6220741-3.4790192-1.3838539
			c-0.3645782,2.2400589-0.7436638,0.910553-2.3691063,1.0275154c-7.026432,0.5055923-14.057045,0.3413582-21.0869865,0.3668327
			c-2.0855408,0.0075645-2.8383293-1.1596031-1.6288414-2.856739c0.8453064-1.1861095,3.0309563-1.4200916,3.8246078-0.8477306
			c1.6606903,1.1976414,1.7479401,2.061327,3.5798912,0.8776722c-1.4216728-0.1745644-2.4479904,0.005085-2.7456932-1.5283031
			c-0.1331482-0.6858292,0.5943718-1.9415493,1.6647034-2.0950661c2.0836487,0.7973938,3.4573059,2.5219822,5.9491234,1.8291721
			c1.9250793,0.4286537,3.4568558,1.3205147,5.2793884,0.0450859
			C58.9515152,30.9493637,61.1962852,30.9297714,63.4410515,30.9101734z M60.9337044,32.9807549c0-0.0038719,0-0.00774,0-0.0116119
			c-0.3540039,0-0.7092972-0.0193901-1.0617332,0.004158c-0.6714401,0.0448647-1.5778351-0.165802-1.5202026,0.9408798
			c0.0483742,0.9288979,0.8512917,0.7678795,1.462471,0.7837563c0.7781868,0.0202141,1.5587006,0.0264359,2.3357697-0.0114326
			c0.5837402-0.02845,1.2060318-0.1623077,1.1527748-0.9251099c-0.0419655-0.6010017-0.577076-0.7452354-1.0953712-0.7756004
			C61.7841988,32.9609985,61.3583755,32.9807549,60.9337044,32.9807549z M80.6048203,32.5534325
			c-0.6901245,0.3290062-2.3578644-0.6030731-2.3478241,0.5899696c0.0115433,1.3711319,1.6884918,0.4780807,2.6013184,0.720108
			c0.3283005,0.087059,0.700325,0.0294495,1.050621,0.0083961c0.4740829-0.0285034,1.1266632,0.0674095,1.1543274-0.5994797
			c0.0352631-0.8501701-0.7182922-0.6686249-1.2410431-0.7133255
			C81.4732361,32.5292587,81.1196365,32.5534325,80.6048203,32.5534325z"/>
		<path class="st3" d="M71.6052246,23.865818c4.2790298,0.0354881,8.4166489,0.9174786,12.4944,2.1255341
			c0.6877975,0.2037678,1.5177307,0.5313931,1.5927887,1.302721c0.0829926,0.8531017-0.3976059,1.6456833-1.1523056,2.1441193
			c-0.7170486,0.4735794-1.4960403,0.755188-2.3957443,0.7576046c-1.957428,0.0052547-3.9164352-0.1213455-5.864151,0.3272076
			c-1.2806396,0.2949295-6.3927841-0.0802174-7.3191223-1.1629829c-1.0624924-1.2419033-2.3119812-2.3221874-3.4482651-3.5034313
			c-0.4279861-0.44491-1.2289963-0.8323212-0.8743973-1.5865078c0.3453674-0.7345638,5.1731644-0.3166943,5.7873077-0.3935852
			C70.8131104,23.8279934,71.2114944,23.8674488,71.6052246,23.865818z"/>
		<path class="st3" d="M66.3441162,31.0385075c-2.069191,0.0180664-7.1383972,0.0361252-9.2081604,0.053154
			c-1.752533-0.0261574-3.5327797-0.518158-5.2326889,0.3159657c-2.2969246,0.6386223-4.0010605-0.8869534-5.9217415-1.6219807
			c2.0434036-2.2667522,4.9006691-3.0999775,7.54776-4.3168488c2.8904686-1.3287525,8.4192085-1.4156208,10.3803864,1.6151466
			c0.5561028,0.8593903,1.4227715,1.5319824,2.2026787,2.2278576
			C66.7224121,29.8561497,66.7235794,30.4018288,66.3441162,31.0385075z"/>
		<path class="st6" d="M24.0311451,34.897953c-1.9641495,1.1247482-3.8150196,2.4940681-6.1498489,2.8915825
			c0.4441719-1.8823128,1.1799946-2.5503616,3.6471214-3.3493614C22.3248253,34.799015,23.3873215,33.7038345,24.0311451,34.897953z
			"/>
		<path class="st7" d="M91.3954926,31.4550152c-2.3967438,0.6241245-4.5976028,1.1972408-6.8341827,1.7796574
			C85.1539841,30.8598862,87.8533096,30.1236229,91.3954926,31.4550152z"/>
		<path class="st3" d="M24.0311451,34.897953c-0.6438236-1.1941185-1.7063198-0.098938-2.5027275-0.4577789
			c1.1532574-1.3204346,2.6584892-0.7787895,4.4691334-1.1466255C25.2580853,34.3179359,24.7229729,34.7076607,24.0311451,34.897953
			z"/>
		<path class="st3" d="M77.1669083,47.1270218l-0.1832886,0.0522232l-0.1849899-0.0455513
			C76.9176865,46.9249496,77.0404129,46.9220695,77.1669083,47.1270218z"/>
		<path class="st8" d="M31.3391457,43.2245255c1.1836548,2.3835831,0.1851902,5.3609581-2.7308159,5.9248962
			c-0.2027149-0.7557678-0.4054375-1.5115356-0.6349812-2.3673058c-1.0280304,0.6859741-0.9730225,1.5139351-0.9448452,2.332489
			c-0.7402401,0.1670761-1.3369408-0.0201683-1.7327232-0.7023735c0.7050552-0.5438843,1.3114109-1.1396523,1.2645645-2.3786545
			c-0.8990211,0.471756-1.7503719,0.5965805-2.0827541,1.5137672c-1.4357262-1.2933388-1.0960484-2.7884064-0.4901752-4.3137245
			c0.9774418-0.1768723,1.6429482,0.7987099,2.6471024,0.8814049c-0.090662-1.0800667-0.8823948-1.6129112-1.1456718-2.405941
			c0.4192295-0.4733429,0.9225883-0.6573029,1.5403366-0.4478302c-0.0132542,0.8839302-0.1603718,1.8062782,0.6719952,2.5300026
			c0.8339195-0.7379761,0.3357906-1.8489304,0.9110508-2.5788307c0.4689465,0.2385941,0.937891,0.4771767,1.4062195,0.7160034
			c-0.8841991,0.4662895-1.0507202,1.3188171-1.4415607,2.3416061
			C29.6824627,43.8515816,30.5108032,43.5380554,31.3391457,43.2245255z"/>
		<path class="st9" d="M28.6122284,41.2124252c-0.5752602,0.7299004-0.0771313,1.8408546-0.9110508,2.5788307
			c-0.8323669-0.7237244-0.6852493-1.6460724-0.6719952-2.5300026
			C27.5407467,40.7228661,28.0748615,40.9150352,28.6122284,41.2124252z"/>
		<path class="st9" d="M27.0285034,49.1146049c-0.0281773-0.8185539-0.0831852-1.6465149,0.9448452-2.332489
			c0.2295437,0.8557701,0.4322662,1.6115379,0.6349812,2.3673058C28.073967,49.4895325,27.5442734,49.6180229,27.0285034,49.1146049
			z"/>
		<path class="st9" d="M31.3391457,43.2245255c-0.8283424,0.31353-1.656683,0.6270561-2.7622585,1.0455093
			c0.3908405-1.022789,0.5573616-1.8753166,1.4415607-2.3416061C30.703661,42.1112556,31.0699844,42.6184196,31.3391457,43.2245255z
			"/>
		<path class="st9" d="M25.4888458,41.7090836c0.2632771,0.7930298,1.0550098,1.3258743,1.1456718,2.405941
			c-1.0041542-0.082695-1.6696606-1.0582771-2.6471024-0.8814049C24.300602,42.5409737,24.7808857,42.0129204,25.4888458,41.7090836
			z"/>
		<path class="st9" d="M24.4775906,47.5473442c0.3323822-0.9171867,1.183733-1.0420113,2.0827541-1.5137672
			c0.0468464,1.2390022-0.5595093,1.8347702-1.2645645,2.3786545
			C24.8248711,48.3110847,24.5059471,48.0665283,24.4775906,47.5473442z"/>
		<path class="st8" d="M83.8049545,41.9905205c1.3784714-1.3291435,2.8837204-1.2243347,4.4531174-0.3937035
			c0.0095215,0.9666405-1.2296066,1.4815331-0.9886627,2.5976105c0.9047089-0.350132,1.7392883-0.6731224,2.5738602-0.9961014
			c0.3497467,0.3309326,0.4859848,0.7257004,0.3585052,1.1992912c-0.8410416-0.0543976-1.5560379,0.2395363-2.3986511,0.8008652
			c0.8477097,0.520462,1.5536957,0.8376312,2.3968506,0.7761383c0.1259003,0.471302-0.0124741,0.8660927-0.3484879,1.2036476
			c-0.784996-0.2882462-1.5699997-0.5764809-2.3553619-0.864254c-0.076767-0.0404282-0.1531754-0.0813217-0.2295837-0.1222115
			c0.0404282,0.0768051,0.080864,0.1536102,0.1212845,0.230423c-0.133606,0.9427452,0.8220978,1.4827347,0.8717422,2.3577271
			c-0.3148956,0.3998222-0.7815552,0.4053535-1.224823,0.471405c-0.2095337-0.77145-0.4191208-1.54282-0.6755219-2.486496
			c-0.8498917,0.8326797-0.8107452,1.6795006-0.8612976,2.4972267c-0.4342804-0.103363-0.93853,0.0216408-1.2778091-0.3916817
			c0.0430145-0.9230194,1.0023575-1.6160736,0.7245865-2.7878075c-0.8451843,0.4118805-1.579689,0.7698212-2.3142014,1.1277618
			c-0.8462677-1.2955551-0.7044601-2.6245651-0.1343918-3.9680824c0.9912415-0.2784958,1.5061264,1.1374588,2.5842285,0.779747
			C84.9379654,43.1047134,84.6922073,42.3469734,83.8049545,41.9905205z"/>
		<path class="st9" d="M82.6305008,47.2103615c0.7345123-0.3579407,1.469017-0.7158813,2.3142014-1.1277618
			c0.277771,1.1717339-0.681572,1.8647881-0.7245865,2.7878075C83.5243835,48.4759026,82.917511,47.9962616,82.6305008,47.2103615z"
			/>
		<path class="st9" d="M90.1999741,45.9746208c-0.8431549,0.0614929-1.5491409-0.2556763-2.3968506-0.7761383
			c0.8426132-0.5613289,1.5576096-0.8552628,2.3986511-0.8008652
			C90.5840302,44.9237175,90.5994186,45.4494057,90.1999741,45.9746208z"/>
		<path class="st9" d="M83.8049545,41.9905205c0.8872528,0.3564529,1.1330109,1.114193,1.275383,2.0315056
			c-1.0781021,0.3577118-1.5929871-1.0582428-2.5842285-0.779747
			C82.7653732,42.6503792,83.1162033,42.1437836,83.8049545,41.9905205z"/>
		<path class="st10" d="M85.4979248,49.2620888c0.0505524-0.8177261,0.0114059-1.664547,0.8612976-2.4972267
			c0.2564011,0.943676,0.4659882,1.7150459,0.6755219,2.486496C86.5251999,49.6556854,86.0129242,49.6557693,85.4979248,49.2620888z
			"/>
		<path class="st9" d="M88.2595673,48.779953c-0.0496445-0.8749924-1.0053482-1.4149818-0.8717422-2.3577271l0.1086655-0.1086769
			c0.784996,0.2882385,1.5699997,0.5764732,2.3549957,0.8647194C89.5037766,47.8939934,89.0568848,48.511116,88.2595673,48.779953z"
			/>
		<path class="st9" d="M89.8432693,43.1983261c-0.8345718,0.322979-1.6691513,0.6459694-2.5738602,0.9961014
			c-0.2409439-1.1160774,0.9981842-1.63097,0.9886627-2.5976105C88.9554672,41.9633904,89.5311737,42.4503975,89.8432693,43.1983261
			z"/>
		<path class="st2" d="M60.9159393,32.9480858c0.4123917,0,0.825901-0.0191841,1.2368736,0.0048943
			c0.5033073,0.0294876,1.0229454,0.169548,1.063694,0.75317c0.0517197,0.7407455-0.552578,0.8707314-1.1194344,0.8983574
			c-0.7546005,0.0367737-1.5125427,0.0307312-2.2682228,0.0111046c-0.5935059-0.0154228-1.3732071,0.1409416-1.4201813-0.7610931
			c-0.0559654-1.0746803,0.8242188-0.8701019,1.4762421-0.9136696c0.3422432-0.0228691,0.6872597-0.0040398,1.0310287-0.0040398
			C60.9159393,32.940567,60.9159393,32.9443283,60.9159393,32.9480858z"/>
		<path class="st2" d="M80.6835861,32.5559082c0.5092239,0,0.8589859-0.0239105,1.2041779,0.0056076
			c0.5170746,0.0442162,1.2624512-0.1353607,1.2275696,0.7055779c-0.0273666,0.6596489-0.6728592,0.5647774-1.1417923,0.592968
			c-0.3464966,0.0208282-0.7144852,0.0778084-1.0392227-0.0083008c-0.9029083-0.2394028-2.5616531,0.6439552-2.5730667-0.7122917
			C78.351326,31.959383,80.000946,32.8813438,80.6835861,32.5559082z"/>
		<path class="st2" d="M51.9032669,31.4076271c1.6999092-0.8341236,3.4801559-0.342123,5.2326889-0.3159657
			C55.4565353,32.2683678,53.677784,31.8027534,51.9032669,31.4076271z"/>
		<path class="st9" d="M87.387825,46.422226c-0.0404205-0.0768127-0.0808563-0.1536179-0.1212845-0.230423
			c0.0764084,0.0408897,0.1528168,0.0817833,0.2295837,0.1222115C87.4964905,46.313549,87.387825,46.422226,87.387825,46.422226z"/>
	</g>
</g>
</svg>
