<?xml version="1.0" encoding="utf-8"?>
<!-- Generator: Adobe Illustrator 25.4.1, SVG Export Plug-In . SVG Version: 6.00 Build 0)  -->
<svg version="1.1" id="Layer_1" xmlns="http://www.w3.org/2000/svg" xmlns:xlink="http://www.w3.org/1999/xlink" x="0px" y="0px"
	 width="120px" height="56px" viewBox="0 0 120 56" style="enable-background:new 0 0 120 56;" xml:space="preserve">
<style type="text/css">
	.st0{fill:url(#SVGID_1_);}
	.st1{fill:#BDCCD4;stroke:#726A63;stroke-width:0.25;stroke-miterlimit:10;}
	.st2{fill:#303940;}
	.st3{fill:#0A212B;}
	.st4{fill:#E61E26;}
	.st5{fill:#5E6265;}
	.st6{fill:#FBD404;}
	.st7{fill:#688E37;}
	.st8{fill:#C5C9CC;}
	.st9{fill:#B1B4B8;}
</style>
<g>
	<radialGradient id="SVGID_1_" cx="60" cy="51.9052238" r="29.2141991" gradientUnits="userSpaceOnUse">
		<stop  offset="0" style="stop-color:#B3B3B3"/>
		<stop  offset="1" style="stop-color:#726A63;stop-opacity:0.8"/>
	</radialGradient>
	<ellipse class="st0" cx="60" cy="51.9052238" rx="41.2793694" ry="1.7182807"/>
	<g>
		<path class="st1" d="M105.7967911,33.9408417c1.2288361,0.8015671,1.7288208,1.9279099,1.5047302,3.3766785
			c-2.7700577,1.3210564-5.7652969,1.5542679-8.6128922,0.8393478c-1.066864-0.2678452-1.4319839,0.278347-2.1241989,0.3936653
			c-2.3333664-2.8566093-5.2194366-4.3895035-9.0293808-4.0658226c-3.3009644,0.2804298-5.4099731,2.3265648-7.4264297,4.59795
			c-0.5237503-0.8944817-1.3982086-0.5645714-2.1393051-0.5654945c-12.9572144-0.0161552-25.9144325-0.0101776-38.8716698-0.0179024
			c-0.7182465-0.0004272-1.643734,0.1902466-2.1138077-0.1728058c-1.1712494-0.9046059-1.2709198,0.029911-1.6081581,0.6957321
			c-0.8116951-0.8401451-1.5423279-1.7823639-2.4492836-2.5025406c-3.6701641-2.9143562-9.5988312-3.4489288-13.9874573,2.0703278
			c-2.0170307-0.0282669-4.0340853-0.0565414-6.051115-0.0848083c0.8711109-0.9917145,1.0085506-2.2257156,1.1088953-3.4587135
			c0.124424-1.5283012,0.5076981-2.9859123,1.1924391-4.3480549c1.2905407-2.5671463,3.2137108-4.2050343,6.2217693-4.5294666
			c3.9845028-0.4297466,7.9346809-1.2447357,11.925621-1.5288372c3.8387718-0.2732735,7.137207-1.7113571,10.1309471-3.8951797
			c6.1637039-4.4961491,13.2351799-5.8132191,20.610363-6.3524008c8.4809265-0.6200247,16.9657516-0.5568008,25.4427948-0.1958675
			c2.3419952,0.0997152,4.74189,0.3509703,7.061348,0.8039312c3.0274658,0.5912209,4.203804,3.2284336,5.6632385,5.5647812
			c1.8229675,2.9183941,4.2516937,5.5649052,3.5264816,9.4187355c-0.911026-0.0305405-1.821907-0.0492001-2.7317581-0.0902538
			c-1.4803543-0.0668068-2.2159576,0.8443527-2.3260117,2.1109104c-0.1212692,1.3957176,0.9900131,1.9033165,2.1627579,2.014698
			C103.838913,34.1108284,104.8226089,33.9756126,105.7967911,33.9408417z M21.9661102,30.6075535
			c0.141777-0.1373196,0.283556-0.2746391,0.4253597-0.411953l-0.0167522,0.0165596
			c0.9271526-0.245573,1.5078125-0.8338318,1.9872379-1.90658c-1.9916248-0.0921612-3.7008743-0.1350155-5.1461372,1.1318016
			l0.0302258-0.0175381c-0.6639633,0.0148087-1.064785,0.3524704-1.2185688,0.9931984
			c-0.5009251,0.5755672-1.0018501,1.1511307-1.5027752,1.7266979c-0.5817451,0.4985809-0.649332,1.1419144-0.6696033,1.9455032
			c1.1800747-0.3996658,2.3580265-0.4040108,2.9549103-1.5417213l-0.0030384,0.0047913
			c0.3382015,0.008606,0.6480789-0.0375404,0.7898102-0.4086685l-0.005497,0.0072174
			c0.384264,0.010498,0.7035675-0.0755157,0.7787228-0.5242023c0.3404179-0.2081299,0.6808109-0.4162598,1.0212288-0.6243896
			c0.2021351-0.1401463,0.4042931-0.2802925,0.6064281-0.4204369L21.9661102,30.6075535z M33.0235596,34.5614967
			c0.0587654,0.2891083,0.0789871,0.6151352,0.502903,0.5815353c0.0458908-0.0036392,0.1205177-0.0772476,0.1235046-0.1222496
			c0.0284424-0.4285278-0.3088875-0.4305954-0.5921326-0.4934998c-1.4949894-1.2044373-3.2180252-1.5311584-5.0950851-1.2676125
			C29.6495571,33.6937447,31.3363895,34.1278114,33.0235596,34.5614967z M88.9784851,23.583313
			c2.2942429-0.0560169,4.5885162-0.11203,6.8827667-0.1680489c0.7829361,0.0130291,1.5718079,0.0921288,2.347374,0.0227337
			c1.0198517-0.091259,1.4681396-0.7848206,1.4198532-1.7562809c-0.1145172-2.303896-2.6774673-5.0596199-4.9654312-5.4198875
			c-1.4254684-0.2244663-2.8534317-0.3100195-4.2931213-0.2212811c-0.6648331-0.0184669-1.3296661-0.0369339-1.9944992-0.0553999
			c-6.7332458-0.3887949-13.4666214-0.6250477-20.2007675-0.0180635c-0.7800903,0.016264-1.5602112,0.0325279-2.340332,0.0482445
			c-0.9030991-0.0199404-1.8201294-0.1689978-2.6715927,0.2887211c-3.5153694,0.1620579-7.0138931,0.4362278-10.3846169,1.5607719
			c-3.1619377,0.55439-5.6542931,2.3912411-8.3500137,4.1019859c0.5895767,0.403141,1.1727219,0.5806713,1.3067398,0.9303417
			c0.7336464,1.9140224,2.3222084,1.5038223,3.7637596,1.4901314c2.9376259-0.0278969,5.8750343-0.080164,8.8125191-0.1223907
			c0.7901688-0.0018311,1.5803413-0.0036659,2.3705101-0.0054989c1.587429-0.0048237,3.1748581-0.0096474,4.7622833-0.0144672
			c3.4181595-0.1267319,6.8362961-0.2534676,10.2544556-0.3802013c3.5059738-0.044241,7.0119629-0.08848,10.5189743-0.1307449
			C87.187088,24.5885983,88.07341,23.9138603,88.9784851,23.583313z M79.8503036,26.1105976
			c1.3427505,1.3312187,2.8225555,0.8228512,4.2656708,0.8117065c0.0137405-0.195446,0.0274811-0.3908901,0.0412445-0.5863361
			C82.7215729,26.2608452,81.2859268,26.1857204,79.8503036,26.1105976z M55.0058632,27.3762932
			c1.3900681,0.5763073,2.7769012,0.6219864,4.1593513-0.0510941C57.7765236,26.9733143,56.3896866,26.928957,55.0058632,27.3762932
			z M35.8338699,36.9808197c-0.2227211-0.2767181-0.3411636-0.5018692-0.5271759-0.6247215
			c-0.1052856-0.0695152-0.4373131-0.0172081-0.467926,0.0596504c-0.1425514,0.3575554,0.0809402,0.6037102,0.3923378,0.720295
			C35.3529739,37.1816673,35.5359459,37.0639801,35.8338699,36.9808197z"/>
		<path class="st2" d="M33.0062523,49.1208153c-3.895174,3.5803413-7.708828,3.7059402-11.7739582,0.3877563
			c-1.6880131-1.7763634-2.208149-3.9930115-2.389122-6.3375015c0.2310848-0.6106834,0.4772072-1.2161636,0.690937-1.8328667
			c1.7998295-5.1933098,7.6867733-6.836422,12.1939678-3.7142525c2.1153717,1.4653664,2.3886147,3.6119614,3.2822609,5.5794334
			C34.8886871,45.3609123,34.410202,47.3975792,33.0062523,49.1208153z M22.6961651,46.4408989
			c0.3102169,0.7600365,0.8272667,1.3131027,1.6056747,1.6046524c0.4316521,0.4883881,0.9528484,0.7557869,1.622282,0.6573448
			c0.6650238,0.3353806,1.3293972,0.4034576,1.9925404-0.005043c0.6717491,0.1194687,1.1987801-0.1369629,1.634985-0.629364
			c0.7858562-0.2899857,1.2932663-0.8574371,1.6095085-1.615345c0.42589-0.4578819,0.7451916-0.9539146,0.5809002-1.6230278
			c0.2515717-0.6668625,0.2041111-1.3372192,0.0235023-2.0091324c0.1370544-0.466629-0.1721497-0.7937012-0.3621597-1.1580467
			c-0.3781643-0.9126663-1.0525894-1.5407219-1.9124432-1.9906273c-0.4145145-0.4692078-0.940773-0.656189-1.556818-0.6164665
			c-0.6787376-0.2204628-1.3556213-0.2241821-2.0303822,0.0175171
			C22.6665173,39.4813385,20.7981358,43.6559868,22.6961651,46.4408989z"/>
		<path class="st2" d="M94.6285095,49.131752c-3.8970566,3.6068153-6.7266922,3.6568832-12.1877518,0.2157326
			c-0.8302002-1.9402466-2.210022-3.7316895-1.6394196-6.0515213c0.1433258-4.1437263,3.2040024-7.1702385,7.267395-7.1862679
			c4.7405701-0.0186958,7.0085449,1.8292351,8.4830933,6.9119301C96.7128372,45.3108215,96.0530472,47.3416481,94.6285095,49.131752
			z M86.7765808,39.2996902l-0.0139618,0.0065079c-1.3326035,0.2890701-2.0296555,1.2935715-2.6650848,2.3674622
			c-0.1715927,0.3620834-0.4817123,0.6822128-0.3444901,1.1377983c-0.1693497,0.9598007-0.4093323,1.9247704,0.2068558,2.8270912
			c0.0694504,0.2865753,0.0057144,0.6356544,0.3682404,0.7847099c0.3145523,0.7434044,0.7817307,1.3306351,1.5975266,1.5610962
			c0.3772964,0.5909996,0.9436646,0.7634506,1.6052399,0.7251854c0.6662979,0.2060127,1.3329163,0.4499779,1.9934769-0.0170212
			c0.7044601,0.1253624,1.2629929-0.122261,1.7052002-0.6671944c0.821434-0.2113419,1.2347412-0.8433685,1.5863724-1.5389862
			c0.4118576-0.4781342,0.7649078-0.9755592,0.544426-1.6609612c0.4690628-0.6568527,0.3529282-1.3256493,0.0407867-1.9984398
			c0.1607208-0.4728928-0.1234818-0.8136673-0.3480606-1.1721458c-0.410675-0.8967438-0.9943542-1.627449-1.9348373-2.0156441
			c-0.4431458-0.4171066-0.9376602-0.6928444-1.5760269-0.5729218C88.5961456,38.857254,87.6521454,38.673111,86.7765808,39.2996902
			z"/>
		<path class="st1" d="M96.5644302,38.5505333c0.692215-0.1153183,1.0573349-0.6615105,2.1241989-0.3936653
			c2.8475952,0.71492,5.8428345,0.4817085,8.6128922-0.8393478c0.2457809,1.2778397-0.1708984,2.4717903-0.5282898,3.6532326
			c-0.3471909,1.1477165-1.1801682,2.0185852-2.3606491,2.1171684c-2.071312,0.1729889-4.1415405,0.5604973-6.2365952,0.3227882
			C98.0026321,41.6700172,97.2284393,40.1285362,96.5644302,38.5505333z"/>
		<path class="st3" d="M35.0103378,43.2033844c-0.8936462-1.9674721-1.1668892-4.1140671-3.2822609-5.5794334
			c-4.5071945-3.1221695-10.3941383-1.4790573-12.1939678,3.7142525c-0.2137299,0.616703-0.4598522,1.2221832-0.690937,1.8328667
			c-0.4438457,0.2256927-0.8876934,0.4513969-1.3315411,0.677063c-0.0222244-1.8879242,0.5750198-3.6076584,1.4273071-5.2581558
			c4.3886261-5.5192566,10.3172932-4.984684,13.9874573-2.0703278c0.9069557,0.7201767,1.6375885,1.6623955,2.4494781,2.5016708
			c0.4510536,1.6001434,1.0059242,3.1795387,1.013588,4.8727188C35.9297562,43.6638222,35.470047,43.4336052,35.0103378,43.2033844z
			"/>
		<path class="st3" d="M96.5644302,38.5505333c0.6640091,1.5780029,1.4382019,3.1194839,1.611557,4.8601761
			c-0.5414658-0.1296806-1.0827942-0.259388-1.6241379-0.3890915c-1.4745712-5.0826874-3.7425461-6.9306183-8.4831161-6.9119225
			c-4.0633926,0.0160294-7.1240692,3.0425415-7.2673645,7.1863136c-0.6858978-0.5220032-1.0165329,0.3998528-1.5768967,0.388031
			c-0.2399063-1.6365204,0.5877686-3.0679092,0.8841476-4.6013794c2.0164566-2.2713852,4.1254654-4.3175201,7.4264297-4.59795
			C91.3449936,34.1610298,94.2310638,35.693924,96.5644302,38.5505333z"/>
		<path class="st1" d="M18.9389381,38.5899773c-0.8522873,1.6504974-1.4495316,3.3702316-1.4273071,5.2581558
			c-1.0592651,0.3736725-2.1605921,0.2260742-3.2211838,0.122776c-1.0627127-0.103508-1.731328-0.7674332-1.6049519-1.9625778
			c0.3832026,0.0145836,0.7663326,0.0335045,1.1496553,0.0427475c0.7090616,0.0171013,1.2833586-0.1936264,1.4118319-0.9826012
			c0.1347637-0.8274269-0.3301497-1.3833961-1.026123-1.6436882c-0.4530792-0.1694489-1.0039473-0.0774345-1.5109949-0.1025505
			c-0.1707516-0.3226509-0.0716362-0.5864792,0.1780787-0.8172607
			C14.9048529,38.5334358,16.9219074,38.5617104,18.9389381,38.5899773z"/>
		<path class="st4" d="M105.7967911,33.9408417c-0.9741821,0.034771-1.9578781,0.1699867-2.9200821,0.0786095
			c-1.1727448-0.1113815-2.2840271-0.6189804-2.1627579-2.014698c0.110054-1.2665577,0.8456573-2.1777172,2.3260117-2.1109104
			c0.9098511,0.0410538,1.8207321,0.0597134,2.7317581,0.0902538
			C105.7804947,31.3042259,105.7886429,32.6225357,105.7967911,33.9408417z"/>
		<path class="st2" d="M12.7098646,39.3222389c0.5070477,0.025116,1.0579157-0.0668983,1.5109949,0.1025505
			c0.6959734,0.2602921,1.1608868,0.8162613,1.026123,1.6436882c-0.1284733,0.7889748-0.7027702,0.9997025-1.4118319,0.9826012
			c-0.3833227-0.009243-0.7664528-0.0281639-1.1496553-0.0427475
			C12.6936188,41.1129532,12.7017412,40.2175941,12.7098646,39.3222389z"/>
		<path class="st1" d="M80.1086197,39.0826607c-0.2963791,1.5334702-1.124054,2.964859-0.8842239,4.6014099
			c-0.593483,0.6385269-1.3642273,0.328083-2.0450821,0.3292694c-12.2240982,0.0213203-24.4481964,0.0198059-36.6723213,0.0096588
			c-1.3725395-0.0011444-2.7450104-0.0839996-4.1175308-0.1289597c-0.0076637-1.6931801-0.5625343-3.2725754-1.013588-4.8727188
			c0.3370438-0.6649513,0.4367142-1.5994682,1.6079636-0.6948624c0.4700737,0.3630524,1.3955612,0.1723785,2.1138077,0.1728058
			c12.9572372,0.0077248,25.9144554,0.0017471,38.8716698,0.0179024
			C78.7104111,38.5180893,79.5848694,38.188179,80.1086197,39.0826607z"/>
		<path class="st3" d="M86.2163086,23.7320042c-3.5059738,0.044239-7.0119629,0.0884781-10.5179596,0.132782
			c-2.1729813-2.9515648-5.1304474-5.1558819-7.5236893-7.8976984c6.7341461-0.606987,13.4675217-0.3707342,20.2003632,0.0179424
			C87.655159,18.567276,86.9357376,21.149641,86.2163086,23.7320042z"/>
		<path class="st2" d="M68.1746597,15.9670849c2.3932419,2.7418194,5.350708,4.9461365,7.5236893,7.8977013
			c-3.4181366,0.1266708-6.8362732,0.2534065-10.2545242,0.3803463c-0.7826309-0.4696159-0.8502884-1.0810776-0.6607361-1.9670963
			c0.4423752-2.0677185,0.7118073-4.1724281,1.0512619-6.2621593
			C66.6144485,15.9996128,67.3945694,15.9833488,68.1746597,15.9670849z"/>
		<path class="st3" d="M58.3111229,24.2648945c-2.9374847,0.042223-5.8748932,0.0944901-8.8125191,0.1223869
			c-1.4415512,0.0136909-3.0301132,0.4238911-3.7637596-1.4901314c-0.1340179-0.3496704-0.7171631-0.5272007-1.3067398-0.9303417
			c2.6957207-1.7107449,5.188076-3.547596,8.3499908-4.1016293c0.5835533,1.1279373,1.6967392,1.7802792,2.4617424,2.7398777
			C56.2334213,21.8513222,57.8616829,22.5650902,58.3111229,24.2648945z"/>
		<path class="st2" d="M58.3111229,24.2648907c-0.44944-1.6998005-2.0777016-2.4135685-3.0712852-3.6598339
			c-0.7650032-0.9595985-1.8781891-1.6119404-2.4617424-2.7398777c3.3707466-1.1249008,6.8692703-1.3990707,10.3837242-1.5604992
			c-0.8273163,2.6519909-1.6537628,5.3033524-2.4801865,7.95471C59.8914642,24.2612247,59.1012917,24.2630596,58.3111229,24.2648907
			z"/>
		<path class="st3" d="M90.3703308,16.0411835c1.4392853-0.0893736,2.8672485-0.0038204,4.292717,0.2206459
			c2.2879639,0.3602676,4.850914,3.1159916,4.9654312,5.4198875c0.0482864,0.9714603-0.4000015,1.6650219-1.4198532,1.7562809
			c-0.7755661,0.0693951-1.5644379-0.0097046-2.3474731-0.0224495c-1.1310959-2.6489449-3.2439575-4.3607445-5.5876694-5.8521614
			C90.3057861,17.0559864,90.3380585,16.5485859,90.3703308,16.0411835z"/>
		<path class="st5" d="M60.681633,24.2593918c0.8264236-2.6513596,1.6528702-5.302721,2.4801865-7.9547119
			c0.8523788-0.4583483,1.7694092-0.3092909,2.6725311-0.2890759c-0.3394547,2.090004-0.6088867,4.1947136-1.0512619,6.2624321
			c-0.1895523,0.8860188-0.1218948,1.4974804,0.6607361,1.9670963C63.8564911,24.2497444,62.269062,24.2545681,60.681633,24.2593918
			z"/>
		<path class="st2" d="M90.2734833,17.5633869c2.3437119,1.4914169,4.4565735,3.2032166,5.5876694,5.8521614
			c-2.2941513,0.0557346-4.5884247,0.1117477-6.8816071,0.1669464
			C89.1336899,21.5158787,89.5871506,19.5146198,90.2734833,17.5633869z"/>
		<path class="st5" d="M90.2734833,17.5633869c-0.6863327,1.9512329-1.1397934,3.9524918-1.2939377,6.0191078
			c-0.9061356,0.3313656-1.7924576,1.0061035-2.7627335,0.1504974c0.7189255-2.5833511,1.4383469-5.1657162,2.1582108-7.747962
			c0.6652374,0.0185843,1.3300705,0.0370512,1.9951172,0.0558367
			C90.3380585,16.5485859,90.3057861,17.0559864,90.2734833,17.5633869z"/>
		<path class="st6" d="M21.3912334,30.9982758c-0.3404179,0.2081242-0.6808109,0.416254-1.0214214,0.6249504
			c-0.2596474,0.1749287-0.5190754,0.3492832-0.7785301,0.5236359l0.0053997-0.0071869
			c-0.3319817,0.0034943-0.6107655,0.1095886-0.7897129,0.408638l0.0029888-0.0047569
			c-0.4317951,0.1402435-0.8920574,0.2254372-1.2898426,0.4312973c-1.0566139,0.5467758-1.041935-0.1082497-0.9954147-0.8351173
			c0.5009251-0.5755634,1.0018501-1.1511269,1.5028477-1.7267971c0.3821907-0.3605957,1.0926743-0.3181667,1.2184963-0.9930954
			l-0.0301304,0.0175571c0.9558125-0.0705128,1.9125156-0.1300678,2.8670502-0.2139454
			c1.7623253-0.1548634,0.4048233,0.5977859,0.2917538,0.9887047l0.0166798-0.0164871
			c-0.1418266,0.1373444-0.2835579,0.2746143-0.4252872,0.4118805c0,0,0.0315514-0.0297203,0.0314312-0.0296783
			C21.7953815,30.7180386,21.5932961,30.85816,21.3912334,30.9982758z"/>
		<path class="st2" d="M22.3747177,30.2121601c0.1130695-0.3909187,1.4705715-1.143568-0.2917538-0.9887047
			c-0.9545345,0.0838776-1.9112377,0.1434326-2.8670502,0.2139454c1.4451675-1.2668362,3.154417-1.2239819,5.1460419-1.1318207
			C23.8825302,29.3783283,23.3018703,29.9665871,22.3747177,30.2121601z"/>
		<path class="st5" d="M79.8503036,26.1105976c1.4356232,0.0751228,2.8712692,0.1502476,4.3069153,0.2253704
			c-0.0137634,0.195446-0.027504,0.3908901-0.0412445,0.5863361C82.6728592,26.9334488,81.1930542,27.4418163,79.8503036,26.1105976
			z"/>
		<path class="st5" d="M55.0058632,27.3762932c1.3838234-0.4473362,2.7706604-0.4029789,4.1593513-0.0510941
			C57.7827644,27.9982796,56.3959312,27.9526005,55.0058632,27.3762932z"/>
		<path class="st5" d="M33.0231972,34.5618782c-1.6868076-0.4340668-3.3736401-0.8681335-5.0604477-1.3022079
			c1.8770599-0.263546,3.6000957,0.0631752,5.0950851,1.2676125L33.0231972,34.5618782z"/>
		<path class="st7" d="M16.5247002,32.13974c-0.0465202,0.7268639-0.0611992,1.3818893,0.9954147,0.8351135
			c0.3977852-0.2058601,0.8580475-0.2910538,1.2898426-0.4312973c-0.5968342,1.1376762-1.774786,1.1420212-2.9548607,1.541687
			C15.8753681,33.2816544,15.942955,32.6383209,16.5247002,32.13974z"/>
		<path class="st5" d="M35.8338699,36.9808197c-0.297924,0.0831604-0.480896,0.2008476-0.6027641,0.1552238
			c-0.3113976-0.1165848-0.5348892-0.3627396-0.3923378-0.720295c0.0306129-0.0768585,0.3626404-0.1291656,0.467926-0.0596504
			C35.4927063,36.4789505,35.6111488,36.7041016,35.8338699,36.9808197z"/>
		<path class="st5" d="M33.0578346,34.5272827c0.2832451,0.0629044,0.620575,0.0649719,0.5921326,0.4934998
			c-0.0029869,0.045002-0.0776138,0.1186104-0.1235046,0.1222496c-0.4239159,0.0335999-0.4441376-0.2924271-0.5030708-0.5813484
			C33.0231972,34.5618782,33.0578346,34.5272827,33.0578346,34.5272827z"/>
		<path class="st2" d="M19.2460442,29.4198437c-0.1258221,0.6749287-0.8363056,0.6324997-1.2184963,0.9930954
			C18.1812592,29.7723141,18.5820808,29.4346523,19.2460442,29.4198437z"/>
		<path class="st7" d="M19.5912819,32.146862c0.2594547-0.1743526,0.5188828-0.3487072,0.7785301-0.5236359
			C20.2948494,32.0713463,19.9755459,32.1573601,19.5912819,32.146862z"/>
		<path class="st7" d="M18.8069687,32.5483131c0.1789474-0.2990494,0.4577312-0.4051437,0.7897129-0.408638
			C19.4550476,32.5107727,19.1451702,32.5569191,18.8069687,32.5483131z"/>
		<path class="st2" d="M21.3912334,30.9982758c0.2020626-0.1401157,0.4041481-0.2802372,0.606308-0.4204063
			C21.7955265,30.7179775,21.5933685,30.8581238,21.3912334,30.9982758z"/>
		<path class="st2" d="M21.9661102,30.6075535c0.1417294-0.1372662,0.2834606-0.2745361,0.4252872-0.4118862
			C22.2496662,30.3329144,22.1078873,30.4702339,21.9661102,30.6075535z"/>
		<path class="st8" d="M29.5516472,48.0684891c-0.4362049,0.4924011-0.9632359,0.7488327-1.634985,0.6293869
			c-0.0443497-1.0664673,0.0114746-2.7197037-0.943037-2.7855721c-0.9352264-0.0645447-0.7505684,1.656147-1.0468025,2.5970993
			c-0.0185604,0.0589409-0.0026283,0.128746-0.0027237,0.1934929c-0.6694107,0.0984421-1.1906071-0.1689568-1.6221867-0.6574059
			c0.5920143-0.9570198,1.4274025-1.8076782,1.4901447-3.263958c-1.1639233,0.6238632-2.1299076,1.1416168-3.095892,1.6593666
			c-1.8980293-2.7849121-0.0296478-6.9595604,3.2075901-7.3675728c0.1488895,1.0424538,0.0019283,2.7586021,1.0274963,2.7593002
			c0.9792652,0.0006676,0.8956242-1.719059,1.0028858-2.776783c0.616045-0.0397224,1.1423035,0.1472588,1.5567932,0.6164627
			c-0.370306,0.605732-0.7794685,1.1920509-1.0958557,1.8247604c-0.1786575,0.3572845-0.6788826,0.7753296-0.166172,1.1914482
			c0.3553867,0.288414,0.7222958,0.0003586,1.0448761-0.2245255c0.6410656-0.4469147,1.2916985-0.8748055,2.1296196-0.8010521
			c0.1900101,0.3643456,0.4992142,0.6914177,0.3621597,1.1580467c-1.0086956,0.2698975-2.7776012,0.1003914-2.7663689,1.0699501
			c0.0118103,1.0183029,1.6740322,0.9366264,2.7428665,0.9391823c0.1642914,0.6691132-0.1550102,1.1651459-0.580925,1.6229858
			c-0.9160652-0.3156586-1.9144688-1.6174622-2.6583366-0.8454666
			C27.8362045,46.2994537,29.1313972,47.2358055,29.5516472,48.0684891z"/>
		<path class="st9" d="M31.4033985,41.6629372c-0.8379211-0.0737534-1.488554,0.3541374-2.1296196,0.8010521
			c-0.3225803,0.224884-0.6894894,0.5129395-1.0448761,0.2245255c-0.5127106-0.4161186-0.0124855-0.8341637,0.166172-1.1914482
			c0.3163872-0.6327095,0.7255497-1.2190285,1.0958557-1.8247604
			C30.3508091,40.1222153,31.0252342,40.7502708,31.4033985,41.6629372z"/>
		<path class="st9" d="M25.924099,48.7028961c0.0000954-0.0647469-0.0158367-0.134552,0.0027237-0.1934929
			c0.2962341-0.9409523,0.1115761-2.661644,1.0468025-2.5970993c0.9545116,0.0658684,0.8986874,1.7191048,0.943037,2.7855721
			C27.2535191,49.1063538,26.5891457,49.0382767,25.924099,48.7028961z"/>
		<path class="st9" d="M22.6961651,46.4408989c0.9659843-0.5177498,1.9319687-1.0355034,3.095892-1.6593666
			c-0.0627422,1.4562798-0.8981304,2.3069382-1.4901447,3.263958C23.5234318,47.7540016,23.006382,47.2009354,22.6961651,46.4408989
			z"/>
		<path class="st9" d="M27.9341373,39.0558434c-0.1072617,1.057724-0.0236206,2.7774506-1.0028858,2.776783
			c-1.025568-0.0006981-0.8786068-1.7168465-1.0274963-2.7593002C26.578516,38.8316612,27.2553997,38.8353806,27.9341373,39.0558434
			z"/>
		<path class="st9" d="M31.7420559,44.8301163c-1.0688343-0.0025558-2.7310562,0.0791206-2.7428665-0.9391823
			c-0.0112324-0.9695587,1.7576733-0.8000526,2.7663689-1.0699501C31.946167,43.492897,31.9936275,44.1632538,31.7420559,44.8301163
			z"/>
		<path class="st9" d="M29.5516472,48.0684891c-0.4202499-0.8326836-1.7154427-1.7690353-1.0488529-2.4608536
			c0.7438679-0.7719955,1.7422714,0.529808,2.6583366,0.8454666C30.8449135,47.2110519,30.3375034,47.7785034,29.5516472,48.0684891
			z"/>
		<path class="st8" d="M83.7530441,42.811451c-0.1372223-0.4555779,0.1728973-0.7757072,0.3444672-1.1377945
			c0.6667328,0.24366,1.3482208,0.4543457,1.9948578,0.7430534c0.4040527,0.1804123,0.8018112,0.6472969,1.2060318,0.197525
			c0.3830109-0.426178-0.1797638-0.8162346-0.2627106-1.2355919c-0.1115952-0.5642471-1.0180206-0.9994583-0.2846909-1.7029381
			c0.0206375,0.04496,0.0339203,0.0961685,0.064743,0.1324692c0.0185165,0.0218048,0.0644302,0.02034,0.0980301,0.0293388
			c-0.0550995-0.0530701-0.1102219-0.1061401-0.1653214-0.1592102c0.007515-0.1239204,0.0122452-0.2479515,0.0141678-0.3720856
			l0.0139313-0.006546c0.5852432,0.0135956,0.6365814,0.4877968,0.8684158,0.882
			c0.3455276,0.5875435-0.0008926,1.819519,0.8722687,1.7374992c0.9586334-0.0900497,0.8540649-1.2738609,1.0039902-2.0716362
			c0.0475159-0.2528267,0.0162277-0.5204544,0.021019-0.7813072c0.6383667-0.1199226,1.1328812,0.1558151,1.5760269,0.5729218
			c-0.401062,0.6715202-0.825264,1.3307076-1.1927032,2.0201302c-0.1657562,0.3110161-0.5277023,0.6872902-0.0859299,1.034462
			c0.2885284,0.226738,0.6109848,0.0385361,0.9169083-0.0841293c0.7696609-0.3086052,1.3321686-1.1175003,2.2965622-0.9548187
			c0.2245789,0.3584785,0.5087814,0.6992531,0.3480835,1.1721458c-1.0902863,0.0611687-2.798233,0.0774345-2.7950516,1.053421
			c0.0032806,1.0125084,1.6753387,0.9563828,2.7542419,0.9450188c0.2204819,0.6854019-0.1325684,1.182827-0.5445709,1.6608315
			c-0.8817902-0.409935-1.8019333-1.8000908-2.6134109-0.9920235c-0.7436981,0.7405701,0.3004303,1.8081474,1.0271835,2.5311394
			c-0.4422073,0.5449333-1.0007401,0.7925568-1.7052002,0.6672363c0.0057144-1.0809593,0.1619568-2.6577759-0.9442368-2.8021584
			c-0.9198532-0.1200485-0.6333771,1.591938-1.0301514,2.4322662c-0.0509033,0.1079216-0.0148468,0.256916-0.0190887,0.3868713
			c-0.6615753,0.0382652-1.2279434-0.1341858-1.605217-0.7251968c0.4461594-0.6155624,0.9123306-1.2179184,1.3298264-1.8523178
			c0.2060165-0.3130188,0.4280853-0.7170639,0.0893555-1.0526772c-0.3646164-0.3613052-0.7238083,0.00354-1.0331345,0.1687737
			c-0.6772232,0.3617363-1.3242416,0.7799759-1.9835968,1.1751366c-0.3625259-0.1490555-0.29879-0.4981346-0.3682098-0.7847099
			c0.1592484-0.2006378,0.2864227-0.4430695,0.4836121-0.5942421c0.6601105-0.5061607,2.2171173-0.0034904,2.0545883-1.223484
			c-0.1208801-0.9074593-1.5631104-0.5950279-2.3585815-0.9762001
			C84.0304565,42.7923622,83.8828201,42.8205261,83.7530441,42.811451z"/>
		<path class="st9" d="M86.7509995,39.6756935c-0.7333298,0.7034912,0.1730957,1.1387024,0.2846909,1.7029495
			c0.0829468,0.4193573,0.6457214,0.8094139,0.2627106,1.2355919c-0.4042206,0.4497719-0.8019791-0.0171127-1.2060318-0.197525
			c-0.646637-0.2887077-1.328125-0.4993935-1.9948578-0.7430534c0.6354523-1.0738869,1.3325043-2.0783882,2.6651077-2.3674507
			c-0.0019226,0.1241455-0.0066528,0.2481766-0.0141678,0.372097L86.7509995,39.6756935z"/>
		<path class="st9" d="M93.0531082,41.6547928c-0.9643936-0.1626816-1.5269012,0.6462135-2.2965622,0.9548187
			c-0.3059235,0.1226654-0.6283798,0.3108673-0.9169083,0.0841293c-0.4417725-0.3471718-0.0798264-0.7234459,0.0859299-1.034462
			c0.3674393-0.6894226,0.7916412-1.3486099,1.1927032-2.0201302C92.058754,40.0273438,92.6424332,40.758049,93.0531082,41.6547928z
			"/>
		<path class="st9" d="M84.3281403,46.4232597c0.6593552-0.3951607,1.3063736-0.8134003,1.9835968-1.1751366
			c0.3093262-0.1652336,0.6685181-0.5300789,1.0331345-0.1687737c0.3387299,0.3356133,0.1166611,0.7396584-0.0893555,1.0526772
			c-0.4174957,0.6343994-0.883667,1.2367554-1.3298264,1.8523178
			C85.1098709,47.7538948,84.6426926,47.1666641,84.3281403,46.4232597z"/>
		<path class="st9" d="M89.542244,39.066227c-0.0047913,0.2608528,0.0264969,0.5284805-0.021019,0.7813072
			c-0.1499252,0.7977753-0.0453568,1.9815865-1.0039902,2.0716362c-0.8731613,0.0820198-0.526741-1.1499557-0.8722687-1.7374992
			c-0.2318344-0.3942032-0.2831726-0.8684044-0.8684158-0.882C87.6521454,38.673111,88.5961456,38.857254,89.542244,39.066227z"/>
		<path class="st9" d="M83.7530441,42.811451c0.129776,0.0090752,0.2774124-0.0190887,0.3865051,0.0331726
			c0.7954712,0.3811722,2.2377014,0.0687408,2.3585815,0.9762001c0.162529,1.2199936-1.3944778,0.7173233-2.0545883,1.223484
			c-0.1971893,0.1511726-0.3243637,0.3936043-0.4836121,0.5942421
			C83.3437119,44.7362289,83.5836945,43.7712593,83.7530441,42.811451z"/>
		<path class="st9" d="M93.3603821,44.8253784c-1.0789032,0.011364-2.7509613,0.0674896-2.7542419-0.9450188
			c-0.0031815-0.9759865,1.7047653-0.9922523,2.7950516-1.053421
			C93.7133102,43.4997292,93.8294449,44.1685257,93.3603821,44.8253784z"/>
		<path class="st9" d="M91.2295837,48.0253258c-0.7267532-0.7229919-1.7708817-1.7905693-1.0271835-2.5311394
			c0.8114777-0.8080673,1.7316208,0.5820885,2.6134109,0.9920235C92.464325,47.1819572,92.0510178,47.8139839,91.2295837,48.0253258
			z"/>
		<path class="st9" d="M87.5309067,48.7095413c0.0042419-0.1299553-0.0318146-0.2789497,0.0190887-0.3868713
			c0.3967743-0.8403282,0.1102982-2.5523148,1.0301514-2.4322662c1.1061935,0.1443825,0.9499512,1.721199,0.9442368,2.8021584
			C88.8638229,49.1595192,88.1972046,48.915554,87.5309067,48.7095413z"/>
		<path class="st9" d="M86.7484512,39.6783028c0.0550995,0.0530701,0.1102219,0.1061401,0.1653214,0.1592102
			c-0.0335999-0.0089989-0.0795135-0.007534-0.0980301-0.0293388c-0.0308228-0.0363007-0.0441055-0.0875092-0.064743-0.1324692
			L86.7484512,39.6783028z"/>
	</g>
</g>
</svg>
