<?xml version="1.0" encoding="utf-8"?>
<!-- Generator: Adobe Illustrator 25.4.1, SVG Export Plug-In . SVG Version: 6.00 Build 0)  -->
<svg version="1.1" id="Layer_1" xmlns="http://www.w3.org/2000/svg" xmlns:xlink="http://www.w3.org/1999/xlink" x="0px" y="0px"
	 width="120px" height="56px" viewBox="0 0 120 56" style="enable-background:new 0 0 120 56;" xml:space="preserve">
<style type="text/css">
	.st0{fill:url(#SVGID_1_);}
	.st1{fill:#BDCCD4;stroke:#726A63;stroke-width:0.25;stroke-miterlimit:10;}
	.st2{fill:#303940;}
	.st3{fill:#0A212B;}
	.st4{fill:#C5C9CC;}
	.st5{fill:#EC5B2A;}
	.st6{fill:#797A7D;}
	.st7{fill:#FBD404;}
	.st8{fill:#BDCCD4;}
	.st9{fill:#FEFEFE;}
	.st10{fill:#B1B4B8;}
	.st11{fill:#111224;}
	.st12{fill:#E0E2E2;}
</style>
<g>
	
		<radialGradient id="SVGID_1_" cx="-422.2029419" cy="51.9052238" r="17.4333878" gradientTransform="matrix(1.8431855 0 0 1 838.1983032 0)" gradientUnits="userSpaceOnUse">
		<stop  offset="0" style="stop-color:#B3B3B3"/>
		<stop  offset="1" style="stop-color:#726A63;stop-opacity:0.8"/>
	</radialGradient>
	<ellipse class="st0" cx="60" cy="51.9052238" rx="45.3323784" ry="1.7182807"/>
	<g>
		<path class="st1" d="M10.642087,31.044384c0.3987141-3.1325092,2.1651421-5.4375973,4.4858541-7.4046688
			c3.7256126-3.1579418,7.4884453-6.2611084,11.597662-8.9283705c4.5612869-2.9607086,9.2904186-5.5179758,14.6886005-6.579443
			c0.7724762-0.1518893,1.5901413-0.0985546,2.3869019-0.0987425c19.1743813-0.0045805,38.3493385,0.0712595,57.5226326-0.0728078
			c3.4259186-0.0257678,6.09935,2.4520411,7.0848312,5.0735822c1.5917358,4.2343025,2.4968643,8.5948505,2.6540604,13.123457
			c0.0468979,1.350771,0.5462799,2.6843929,0.1481705,4.0545521c-2.1475143,0.0072784-2.480217,0.3218288-2.4916382,2.3945866
			c-0.0083847,1.5206909,0.0207748,3.0418396-0.0069427,4.5620499c-0.0251389,1.3776283,0.5178757,2.1561279,1.9904785,2.0647469
			c-0.6362991,1.7033653,1.2333069,2.8378296,1.0097427,4.4474525c-2.2025223,0.5369263-4.4277954,0.7640686-6.7029953,0.7158775
			c-1.1466141-0.0242615-1.9228134-0.1430626-2.103775-1.5054016c-0.1242981-0.9359703-0.4939804-1.8519096-1.1083984-2.627018
			c-0.2057037-0.2595444-0.3535614-0.6841087-0.7525253-0.520237c-0.4196472,0.1723671-0.2136307,0.5574455-0.1079636,0.872097
			c0.2338104,0.6962814,0.4927292,1.385891,0.6882019,2.0929413c0.4559402,1.6489868,0.2277145,1.9315796-1.5310822,1.9886169
			c-1.098259-5.7478409-5.4111633-8.8997192-10.4785843-7.5110054c-3.9374313,1.0790138-5.8186264,3.9457512-6.2890396,7.8690796
			c-4.9670029-0.0061493-9.9345398-0.0537338-14.9006577,0.0096016c-1.301651,0.0165863-1.7078323-0.4013519-1.6275558-1.6674995
			c0.0973511-1.5353317,0.1024475-3.0868912-0.0008774-4.6214294c-0.0880661-1.3081436,0.4009628-1.6500931,1.6608429-1.6327133
			c4.7378082,0.0653191,9.4770737,0.0268784,14.2157898,0.0243683c0.4560852-0.0002518,0.9133377-0.0045815,1.367836-0.0376282
			c0.3165817-0.0230484,0.5360947-0.1986771,0.4962006-0.549099c-0.0289764-0.2546234-0.2132645-0.3977509-0.4634399-0.4140015
			c-0.3979568-0.0258293-0.7973557-0.0407028-1.1961365-0.0408478c-6.1464081-0.0023842-12.2928238-0.0016327-18.4392319-0.0015907
			c-5.8805809,0.000042-11.7611504-0.0000839-17.6417313,0.0006065c-0.3995934,0.000042-0.8004494-0.0126114-1.19841,0.0145149
			c-0.407093,0.0277557-0.8691063,0.1113968-0.8448563,0.6278648c0.022068,0.4697647,0.4850655,0.3760033,0.8046646,0.3934441
			c0.3985176,0.0217934,0.7990189,0.0080948,1.1986656,0.0081177c5.9376678,0.0002708,11.8758583,0.043148,17.8126488-0.0290527
			c1.5270157-0.0185738,2.0379791,0.5106316,1.9390564,1.988739c-0.0988922,1.4778328-0.0474472,2.967926-0.0144882,4.4516144
			c0.0220871,0.9939728-0.3574677,1.4655991-1.3994675,1.4633598c-7.7646103-0.0166893-15.5293083,0.0044975-23.2938728-0.0208931
			c-1.4539909-0.0047493-2.6385651-0.3921471-2.7881966-2.2265511c-0.0811005-0.9942017-0.71521-1.7778664-1.9428177-2.2126198
			c0.316494,1.0976944,0.5224304,1.9145737,0.7884216,2.7113953c0.4459953,1.3360252-0.1074295,1.8221664-1.4002151,1.7302246
			c-0.2096786-2.4098778-1.028347-4.5311584-2.9544144-6.1038246c-2.5496006-2.0817947-5.4165974-2.5974655-8.4611568-1.3887138
			c-3.3393536,1.325798-4.9671326,3.9774399-5.2892418,7.4928932c-3.7369823,0.0067978-7.4739523,0.0135727-11.2109337,0.0203705
			c-0.5690298-0.9095154-0.1486883-2.0913086,0.332077-2.4322968c1.5644875-1.1096344,1.2864666-2.6510735,1.4346857-4.1302261
			c0.6201477-0.0161057,1.2405882-0.0249939,1.8603802-0.0497589c1.4305754-0.0571213,2.1271591-0.8871956,1.8614473-2.2173233
			c-0.3529301-1.7667236,1.3320522-4.2715969-1.7030745-5.1162529C11.8017426,30.9539871,11.2058983,31.0567665,10.642087,31.044384
			z M27.4188728,15.9146194c0.1141453-0.1143036,0.2283039-0.2286072,0.3424511-0.3429317
			c0.1217175-0.083642,0.4675465,0.1599417,0.3655415-0.2503605c-0.1204014,0.084897-0.2407913,0.1697931-0.3612328,0.2546902
			c-0.1142521,0.1142197-0.2285137,0.2284403-0.3428383,0.342618c-0.0279446,0.0475206-0.0558758,0.0950613-0.0837994,0.142602
			C27.3656216,16.0123787,27.3922462,15.9634991,27.4188728,15.9146194z M18.1418171,25.8387203l0.0179672-0.0131359
			c-0.6974735,0.1368504-0.9438896,0.7009029-1.0175247,1.2759781c-0.0318737,0.2488327,0.4311028,0.1986771,0.690258,0.2150745
			c0.1354275,0.4017048,0.2708569,0.8033905,0.4062843,1.2050743c-0.2839184,0.0233421-0.5754185,0.0135326-0.8503227,0.0763206
			c-0.7704887,0.1759834-1.7361736-0.4546013-2.3068562,0.5490341c-0.9125786,1.6049385-0.1526937,2.8181496,1.7313633,2.8877125
			c6.5657959,0.2423706,13.1170235-0.5274487,19.6735554-0.2780304c1.4157448,0.0538368,1.8899956,0.0070705,1.9487267-1.5276966
			c0.0638466-1.6685638-0.7842522-1.657917-1.9917831-1.6499271c-5.0755577,0.0335064-10.151535,0.0035763-15.2273674-0.0031376
			c-1.354023-0.4130421-2.4270782-1.1107235-2.6770191-2.6423321c0.0607815-0.0736847,0.1122227-0.1534157,0.1543045-0.2391682
			c1.47682-0.3360729,2.8362503-0.3153877,3.6415958,1.2628841c0.2424755,0.4751606,0.6661091,0.3539543,1.0350304,0.3522396
			c1.9242668-0.0089951,3.8484077-0.0412254,5.7726021-0.065382c2.1079178,0.010437,4.231781,0.4076023,6.3117142-0.2603378
			c1.0305748-0.3519878,1.2979584-1.1827984,1.3173065-2.1461716c0.0170784-0.8502178,0.0257263-1.7025299-0.0137939-2.5515156
			c-0.0808411-1.7362461,0.7326202-3.9911575-0.3261681-5.0624542c-0.9795189-0.991087-3.2357826-0.1296349-4.9151478-0.2976093
			c-2.0457764-0.2046165-3.6349754,0.5827923-5.0025005,1.9989052c-1.0610065,0.6323624-2.0223198,1.3919334-2.8929005,2.2672729
			c-1.790617,1.3400211-3.6269436,2.6233597-5.2190189,4.2095375
			C18.2162552,25.4884243,18.0229435,25.5705605,18.1418171,25.8387203z M38.4160576,14.9350996
			c-3.0722084,0-6.1444206,0-9.216629,0c0.0009823,0.0891428,0.001976,0.1782646,0.0029583,0.2674065
			c3.0682774,0,6.1365452,0,9.204813,0c0.449173,0.010437,0.8983459,0.020874,1.3475189,0.031311
			c0.1629333,0.9078836-0.3341675,1.8991995,0.3465195,2.7416391c-0.0073204,2.5219822-0.0146294,5.0439644-0.0219498,7.5659485
			c-0.5377426,0.5188332-0.300045,1.1861229-0.3035393,1.7854614c-0.0229759,3.9369011-0.0138779,7.8739738-0.0149422,11.8110008
			c-0.0004387,1.6112137-0.0000839,3.2224274-0.0000839,4.8336182c0.111824-0.001255,0.2236481-0.002533,0.3354759-0.003788
			c0-5.0083237,0-10.0166702,0-15.0249958c1.6905746,0.3419056,3.1263084-0.8627491,4.8259621-0.7550755
			c0.9839859,0.0623074,0.4463272-0.6829147,0.0934715-0.9857731c-1.0803528-0.9272938-1.5903168-2.1997986-2.1799202-3.4232159
			c-0.9284515-1.9264526-1.8244972-3.8685303-2.7342873-5.804039c0.0001488-0.9136562,0.0002823-1.8273125,0.0004311-2.7409697
			c21.5631752,0,43.1263466,0,64.6895294,0c0.001358-0.1146173,0.002739-0.2292557,0.004097-0.343873
			c-0.7904205,0-1.580864-0.000021-2.3713074-0.000021c-12.6649933,0.000021-25.3299866-0.0054169-37.9949875,0.0020494
			C55.7581406,14.8968868,47.0871048,14.9200201,38.4160576,14.9350996z M86.3627625,16.9361801
			c-2.73983,0.0166912-5.4796524,0.0333595-8.2194824,0.0500507c-3.1979904-0.2417221-6.3975754-0.1889515-9.5976334-0.0525398
			c-4.2253342,0.0179462-8.4506874,0.0358906-12.6759872,0.0538368c-2.0560341-0.2211609-4.1139603-0.206604-6.1730194-0.0493393
			c-2.5589294,0.002634-5.1179543,0.0175896-7.6767502,0.0002708c-0.7479935-0.0050621-1.2721481,0.0150185-0.7707596,0.9954376
			c1.0863762,2.1243343,2.0546646,4.3117313,3.203495,6.4006138c0.8722878,1.5860729,2.1079369,2.9250278,4.0933723,2.9532013
			c3.4685631,0.0492344,6.938839-0.0220451,10.40839-0.0428143c1.8252029,0.11903,3.6501923,0.1564484,5.4746437-0.0142651
			c0.808197,0.0748768,1.6163864,0.1497555,2.4245834,0.2246552c0.27845,0.6536121,0.8634415,0.438097,1.3397141,0.4384747
			c11.8506851,0.0096207,23.7013855,0.0103741,35.5520859-0.0019245c0.520607-0.0005226,1.188591,0.2612152,1.4475708-0.5235596
			c1.2944412-0.2308884,1.8087997-1.0079231,1.678894-2.3008423c-0.2212448-2.2021217-0.4254227-4.4063129-0.5993576-6.6125946
			c-0.0915298-1.1605873-0.7225494-1.5313988-1.8115463-1.5203342c-4.0883102,0.0414753-8.1770172,0.0426464-12.2655563,0.058897
			C90.25354,16.7355576,88.3085022,16.7998734,86.3627625,16.9361801z M33.4976082,12.6231728
			c0.4394875,0.3729877,0.9076118,0.2015219,1.3316841,0.2017097c22.8802223,0.0101442,45.7604446,0.0092869,68.6406631,0.0088892
			c0.3422012,0,0.6855698,0.0075922,1.0261841-0.0178623c0.2163467-0.0161886,0.4791718-0.0249939,0.5218658-0.3222466
			c0.0501328-0.3492699-0.1864014-0.5350628-0.4688034-0.5977888c-0.3291092-0.0730581-0.6763916-0.087553-1.0157928-0.087594
			c-22.6519852-0.0037231-45.3039856-0.0033674-67.9559784-0.0036812
			C34.7848473,11.8045778,34.0043793,11.8303242,33.4976082,12.6231728z M63.5012627,10.4280376
			c-4.2628288-2.3826017-8.8252029-1.5881433-13.2925148-1.6966953C39.7859573,8.478034,38.8456535,9.4298611,37.1285362,10.4280376
			C45.7790298,10.4280376,54.6401482,10.4280376,63.5012627,10.4280376z M42.1736526,35.5967064
			c0.968235-1.576786,0.1824455-3.1272774-0.0055771-4.6962433C41.7643204,32.4625244,41.7386894,34.0231857,42.1736526,35.5967064z
			 M108.8238297,26.5256729c-0.0261917-2.2864113,0.5513763-4.6064968-0.490097-6.8362255
			C108.6389313,21.9602757,108.6855774,24.2455158,108.8238297,26.5256729z M15.7793369,43.7679329
			c-0.0003662,0.0526237-0.0007219,0.1052475-0.0010881,0.1578712c1.1366701,0,2.2733393,0,3.410018,0
			c0.0003548-0.0526237,0.0007114-0.1052475,0.0010777-0.1578712
			C18.0526752,43.7679329,16.9160061,43.7679329,15.7793369,43.7679329z M108.0210648,18.359026
			c0.172699-0.5083313,0.5379715-1.0555477-0.3391037-1.2910576
			C107.8173676,17.5835171,107.9192047,17.9712715,108.0210648,18.359026z M66.7560349,33.3244362
			c-0.291748,0.7729988-0.3824539,1.1200104,0,1.5422134C66.7560349,34.4377747,66.7560349,34.114418,66.7560349,33.3244362z
			 M107.5276871,16.2362595c-0.0265808-0.0356598-0.0531464-0.0713005-0.0797272-0.1069622
			c-0.0326309,0.0293865-0.0652847,0.058773-0.0979309,0.0881386c0.0445938,0.0459309,0.0891876,0.0918827,0.1337738,0.1378136
			C107.4984283,16.3155937,107.5130463,16.2759151,107.5276871,16.2362595z"/>
		<path class="st2" d="M96.0110321,50.8150902c-3.0320969,1.8424568-6.0007553,1.7548409-8.9049683-0.2927551
			c-0.8408356-0.9867134-1.5249481-2.0767097-2.1237564-3.2229042c0.0005112-0.797493,0.0197067-1.5954666-0.0017471-2.3923721
			c-0.0909195-3.3769073,2.2252426-5.4869347,4.7861557-6.2792625c2.9843216-0.9233589,6.2242737,0.5534706,7.8099976,3.0421982
			c1.1738663,1.8423309,1.0186462,3.7334137,0.765274,5.69944C97.9053802,48.7482529,96.9255447,49.7595863,96.0110321,50.8150902z
			 M95.8933182,44.3658905c0.1677399-0.6043167-0.1252441-1.0423927-0.5207596-1.443512
			c-0.2784042-0.6595116-0.7335281-1.1398811-1.4124527-1.3933754c-0.3976212-0.3754768-0.8303909-0.6525688-1.4147263-0.5051117
			c-0.5786972-0.2151184-1.1595612-0.1882858-1.7417374-0.0156479c-0.5778656-0.0686035-1.0285034,0.1572647-1.3859329,0.598835
			c-0.6835556,0.227417-1.124939,0.6963234-1.3635941,1.3674011c-0.3961945,0.3692017-0.6489716,0.7935181-0.5239792,1.3630714
			c-0.2235565,0.5841103-0.1822662,1.1698074-0.0105515,1.7562828c-0.064003,0.5545959,0.1256409,0.9919434,0.5999527,1.2976646
			c0.305687,0.8201866,0.9014435,1.3563995,1.6787109,1.7149544c1.4171143,0.5590553,2.8129883,0.6896744,4.1579895-0.2061005
			c0.6249008-0.2890549,1.146431-0.6788177,1.3465881-1.3817711c0.4899673-0.3582001,0.6964722-0.8356819,0.6052399-1.438427
			C96.152359,45.5065842,96.3515167,44.9334145,95.8933182,44.3658905z"/>
		<path class="st2" d="M32.924015,50.2096062c-3.2105865,2.497261-5.8546219,2.5959816-9.2918816,0.3468628
			c-0.8652382-0.9377708-1.7798347-1.8440857-2.0247993-3.1771202c-0.029417-0.2250099-0.03862-0.454895-0.0913582-0.6743202
			c-0.6985512-2.9064331,0.5907917-6.0056877,3.12043-7.4625854c1.9485092-1.1221428,6.3240223-0.9863586,8.264122,1.0335274
			c1.9930687,2.0749741,2.13657,4.3765068,2.024025,6.9040718C34.2546158,48.1878624,33.849102,49.370285,32.924015,50.2096062z
			 M30.1521645,41.3300514c-0.3358822-0.1110802-0.6717663-0.2221451-1.0076504-0.3332253
			c-1.8802509-0.2972946-3.5538654-0.0854607-4.5321922,1.8394623c-0.6140823,0.3358002-0.7342014,0.8844604-0.6545849,1.519165
			c-0.3915405,0.5704536-0.3547077,1.145256-0.0175285,1.7231102c-0.0401878,0.6206932,0.0590134,1.1772156,0.6861992,1.4906998
			c0.3420753,0.9719048,1.1066761,1.4504738,2.0325165,1.7407417c0.1348648,0.0341148,0.2697277,0.0682068,0.4045925,0.1023178
			c0.6936855,0.1681633,1.3879795,0.1625977,2.0828171,0.0074043c0.1351776-0.0365372,0.2703457-0.073101,0.4055233-0.1096382
			c1.0799141-0.2449226,1.7517338-0.981926,2.2806053-1.8913155c0.3676033-0.3753319,0.5150452-0.8207703,0.4272728-1.3411713
			c0.390255-0.5834618,0.3082237-1.1706467,0.0138893-1.7595062c0.1055183-0.6449318-0.1058311-1.1452103-0.6763058-1.481575
			C31.3948555,42.0664711,30.7769051,41.6950073,30.1521645,41.3300514z"/>
		<path class="st3" d="M98.3419876,47.3694344c0.2533722-1.9660263,0.4085922-3.8571091-0.765274-5.69944
			c-1.5857239-2.4887276-4.825676-3.9655571-7.8099976-3.0421982c-2.5609131,0.7923279-4.8770752,2.9023552-4.7861557,6.2792625
			c0.0214539,0.7969055,0.0022583,1.5948792,0.0017471,2.3923721c-0.3224258,0.258934-0.6448517,0.517868-0.9672852,0.7768059
			c-0.1296082-0.2098045-0.2592087-0.4196091-0.3888168-0.6294136c-0.0999603-0.7970314-0.1999359-1.5940628-0.2999191-2.3910942
			c0.4704056-3.9233284,2.3516006-6.7900658,6.289032-7.8690796c5.067421-1.3887138,9.3803253,1.7631645,10.4785843,7.5110054
			c-0.0939102,0.8136787-0.1878204,1.6273384-0.2817307,2.4410172c-0.0393219,0.315094-0.0786438,0.630188-0.1179657,0.945282
			C98.9510498,48.3991737,98.9127579,47.3804779,98.3419876,47.3694344z"/>
		<path class="st3" d="M34.9245529,47.1800423c0.112545-2.527565-0.0309563-4.8290977-2.024025-6.9040718
			c-1.9400997-2.019886-6.3156128-2.1556702-8.264122-1.0335274c-2.5296383,1.4568977-3.8189812,4.5561523-3.12043,7.4625854
			c0.0527382,0.2194252,0.0619411,0.4493103,0.0913582,0.6743202c-0.6448269-0.1344032-0.7768478,0.7121964-1.3538036,0.7076569
			c-0.0793438-0.2096977-0.1586761-0.4193993-0.2380199-0.6290779c-0.0872917-0.8106461-0.1745834-1.621273-0.2618732-2.4319191
			c0.3221092-3.5154533,1.9498882-6.1670952,5.2892418-7.4928932c3.0445595-1.2087517,5.9115562-0.6930809,8.4611568,1.3887138
			c1.9260674,1.5726662,2.7447357,3.6939468,2.9544029,6.1038246c-0.0820808,0.8093681-0.1641655,1.6187401-0.2461128,2.4280891
			c-0.0853653,0.2100143-0.1708603,0.4200287-0.25634,0.6300621C35.4358559,47.9837685,35.2531891,47.4986076,34.9245529,47.1800423
			z"/>
		<path class="st4" d="M99.8121719,47.1386719c0.0939102-0.8136787,0.1878204-1.6273384,0.2817307-2.4410172
			c1.7587967-0.0570374,1.9870224-0.3396301,1.5310822-1.9886169c-0.1954727-0.7070503-0.4543915-1.3966599-0.6882019-2.0929413
			c-0.1056671-0.3146515-0.3116837-0.6997299,0.1079636-0.872097c0.3989639-0.1638718,0.5468216,0.2606926,0.7525253,0.520237
			c0.614418,0.7751083,0.9841003,1.6910477,1.1083984,2.627018c0.1809616,1.362339,0.9571609,1.4811401,2.103775,1.5054016
			c2.2751999,0.0481911,4.500473-0.1789513,6.7029953-0.7158775c-0.0063629,0.3518829-0.0126572,0.7037277-0.0189514,1.0555077
			c-0.7661972,0.4825211-1.487999,1.0776558-2.4178009,1.205513C106.1256332,46.3748131,103,47.0043945,99.8121719,47.1386719z"/>
		<path class="st4" d="M19.7536373,45.0260086c0.0872898,0.8106461,0.1745815,1.621273,0.2616634,2.4318581
			c-0.8458691-0.0160217-1.6925011-0.0113182-2.5370007-0.0516853c-2.8603754-0.1367226-5.741354,0.3246727-8.5847998-0.2949715
			l0.0086908,0.0089951c0.0682993-0.3319321-0.0589409-0.5719604-0.3463316-0.7366714
			c-0.0042038-0.4457321-0.0084076-0.8914413-0.0128946-1.3371544C12.279685,45.0395813,16.016655,45.0328064,19.7536373,45.0260086
			z"/>
		<path class="st5" d="M110.7026978,39.233326c-1.4726028,0.0913811-2.0156174-0.6871185-1.9904785-2.0647469
			c0.0277176-1.5202103-0.001442-3.0413589,0.0069427-4.5620499c0.0114212-2.0727577,0.3441238-2.3873081,2.4916382-2.3945866
			C111.4185944,33.2404404,111.2369843,36.2468071,110.7026978,39.233326z"/>
		<path class="st2" d="M10.642087,31.044384c0.5638113,0.0123825,1.1596556-0.0903969,1.6861324,0.0561371
			c3.0351267,0.844656,1.3501444,3.3495293,1.7030745,5.1162529c0.2657118,1.3301277-0.430872,2.160202-1.8614473,2.2173233
			c-0.619792,0.024765-1.2402325,0.0336533-1.8603802,0.0497589c-0.1511364-0.4436607-0.2153263-0.8888931-0.024147-1.3387222
			c1.4149513,0.1115417,2.4494686-0.1749802,2.4035482-1.9454651c-0.0455437-1.7564125-0.3655109-2.0927963-2.4029942-2.1292953
			C10.1972332,32.3585739,10.2632217,31.6739864,10.642087,31.044384z"/>
		<path class="st6" d="M99.8121719,47.1386719c3.1878281-0.1342773,6.3134613-0.7638588,9.4635162-1.1968727
			c0.9298019-0.1278572,1.6516037-0.7229919,2.4178009-1.205513c0.0033493,1.3161354-1.0050583,1.7810478-1.9751892,1.9679909
			c-3.3130493,0.6383629-6.6311417,1.2990036-10.0240707,1.3796768
			C99.7335281,47.7688599,99.77285,47.4537659,99.8121719,47.1386719z"/>
		<path class="st7" d="M10.2858734,33.0703735c2.0374832,0.036499,2.3574505,0.3728828,2.4029942,2.1292953
			c0.0459204,1.7704849-0.9885969,2.0570068-2.4035482,1.9454651
			C10.2855072,35.7868729,10.2856855,34.4286346,10.2858734,33.0703735z"/>
		<path class="st6" d="M8.8935003,47.1112099c2.8434458,0.6196442,5.7244244,0.1582489,8.5847998,0.2949715
			c0.8444996,0.0403671,1.6911316,0.0356636,2.5370007,0.0516853c0.0795536,0.2097397,0.158886,0.4194412,0.2382298,0.6291389
			c-3.3895531,0.0371475-6.7790937,0.0895195-10.1687393,0.0980759C9.4409666,48.1867104,8.8349581,47.9728928,8.8935003,47.1112099
			z"/>
		<path class="st6" d="M8.5558596,46.3835335c0.2873907,0.164711,0.4146309,0.4047394,0.3463316,0.7366714
			C8.4163523,47.0487785,8.5817947,46.6711655,8.5558596,46.3835335z"/>
		<path class="st8" d="M36.2122002,47.4537659c0.0820732-0.8093719,0.1641579-1.6187439,0.2462387-2.428112
			c1.2927971,0.0919418,1.8462219-0.3941994,1.4002266-1.7302246c-0.2659912-0.7968216-0.4719276-1.6137009-0.7884216-2.7113953
			c1.2276077,0.4347534,1.8617172,1.2184181,1.9428177,2.2126198c0.1496315,1.834404,1.3342056,2.2218018,2.7881966,2.2265511
			c7.7645645,0.0253906,15.5292625,0.0042038,23.2938728,0.0208931c1.0419998,0.0022392,1.4215546-0.4693871,1.3994675-1.4633598
			c-0.032959-1.4836884-0.084404-2.9737816,0.0144882-4.4516144c0.0989227-1.4781075-0.4120407-2.0073128-1.9390564-1.988739
			c-5.9367905,0.0722008-11.8749809,0.0293236-17.8126488,0.0290527c-0.3996468-0.0000229-0.800148,0.0136757-1.1986656-0.0081177
			c-0.3195992-0.0174408-0.7825966,0.0763206-0.8046646-0.3934441c-0.02425-0.516468,0.4377632-0.6001091,0.8448563-0.6278648
			c0.3979607-0.0271263,0.7988167-0.014473,1.19841-0.0145149c5.8805809-0.0006905,11.7611504-0.0005646,17.6417313-0.0006065
			c6.1464081-0.000042,12.2928238-0.0007935,18.4392319,0.0015907c0.3987808,0.000145,0.7981796,0.0150185,1.1961365,0.0408478
			c0.2501755,0.0162506,0.4344635,0.1593781,0.4634399,0.4140015c0.0398941,0.3504219-0.1796188,0.5260506-0.4962006,0.549099
			c-0.4544983,0.0330467-0.9117508,0.0373764-1.367836,0.0376282c-4.7387161,0.0025101-9.4779816,0.0409508-14.2157898-0.0243683
			c-1.2598801-0.0173798-1.748909,0.3245697-1.6608429,1.6327133c0.1033249,1.5345383,0.0982285,3.0860977,0.0008774,4.6214294
			c-0.0802765,1.2661476,0.3259048,1.6840858,1.6275558,1.6674995c4.9661179-0.0633354,9.9336548-0.0157509,14.9006577-0.0096016
			c0.0999908,0.7970314,0.1999664,1.5940628,0.2999268,2.3910942
			C67.8215408,47.4491425,52.0168686,47.4514427,36.2122002,47.4537659z"/>
		<path class="st3" d="M66.8536148,27.455267c-0.808197-0.0748787-1.6163864-0.1497574-2.4245834-0.2246342
			c0.1152802-0.7915096-0.3999481-1.2528877-0.8900871-1.741518c-2.2608948-2.2540531-4.5135994-4.5163059-6.7693253-6.7755051
			c-0.4805489-0.4813099-1.0545235-0.9137192-0.8999977-1.7261028c4.225338-0.0179253,8.4506912-0.0358696,12.6760178-0.0537949
			c0.0046616,0.724411,0.5787659,1.078722,1.0088654,1.5124702c2.2839508,2.3030376,4.5850143,4.5891132,6.8678131,6.8932819
			c0.4303741,0.4343967,1.0023727,0.7853394,1.0559387,1.4934368c-0.0083923,0.1430416-0.0165482,0.2855816-0.0247116,0.4281006
			C73.9202347,27.3257561,70.3869247,27.3905106,66.8536148,27.455267z"/>
		<path class="st3" d="M58.9543877,27.2448978c-3.4695511,0.0207691-6.939827,0.0920486-10.40839,0.0428143
			c-1.9854355-0.0281734-3.2210846-1.3671284-4.0933723-2.9532013c-1.1488304-2.0888824-2.1171188-4.2762794-3.203495-6.4006138
			c-0.5013885-0.9804192,0.0227661-1.0004997,0.7707596-0.9954376c2.5587959,0.0173187,5.1178207,0.0023632,7.6767502-0.0002708
			c-0.1306915,0.8769913,0.5046921,1.3317375,1.0148964,1.8634968
			C53.4346771,21.6400166,56.3953323,24.2464771,58.9543877,27.2448978z"/>
		<path class="st3" d="M92.1953964,16.9934044c4.088562-0.0162506,8.177269-0.0174217,12.2655792-0.058897
			c1.0889969-0.0110645,1.7200165,0.3597469,1.8115463,1.5203342c0.1739349,2.2062817,0.3781128,4.4104729,0.5993576,6.6125946
			c0.1299057,1.2929192-0.3844528,2.0699539-1.678894,2.3008633c-1.3675919-0.0372295-2.7351761-0.0744591-4.1027679-0.1116905
			c0.142395-0.8719711-0.4638062-1.3443909-0.9872131-1.8674488c-2.2966385-2.2953835-4.5954132-4.5886955-6.8774948-6.8984699
			C92.7994385,18.0594521,92.1956711,17.7269783,92.1953964,16.9934044z"/>
		<path class="st2" d="M77.4784851,26.8324203c-0.0537949-0.7076168-0.6257935-1.0585594-1.0561676-1.4929562
			c-2.2827988-2.3041687-4.5838623-4.5902443-6.8678131-6.8932819c-0.4300995-0.4337482-1.0042038-0.7880592-1.0088654-1.5124702
			c3.2000656-0.1364326,6.3996506-0.1892033,9.5976562,0.0525188c-0.1176147,0.6381779,0.2236938,1.0653362,0.6401062,1.485218
			c2.4662704,2.48699,4.8994446,5.0074673,7.4003983,7.4588814c0.4970169,0.4871655,0.4166107,0.8445091,0.1728592,1.3248997
			c-2.8474808,0.1941795-5.6956863,0.1462212-8.5440979,0.0255165
			C77.7012024,27.1313038,77.5898361,26.981863,77.4784851,26.8324203z"/>
		<path class="st3" d="M86.3566666,27.2552299c0.2437439-0.4803905,0.3241501-0.8377342-0.1728668-1.3248997
			c-2.5009537-2.4514141-4.9341278-4.9718914-7.4003983-7.4588814c-0.4164124-0.4198818-0.7577209-0.8470402-0.6401062-1.485218
			c2.7398148-0.0166912,5.4796371-0.0333595,8.2194824-0.0500507c-0.1134186,0.7848587,0.3933182,1.2451687,0.8812866,1.7313309
			c2.3268814,2.318203,4.6513824,4.6388931,6.9603806,6.9748745c0.462677,0.4680901,1.1096115,0.8396568,1.0812912,1.6413307
			C92.3093872,27.2742004,89.3330231,27.2647038,86.3566666,27.2552299z"/>
		<path class="st4" d="M33.4976082,12.6231728c0.5067711-0.7928486,1.2872391-0.8185949,2.0798264-0.818574
			c22.651989,0.0003138,45.3039894-0.000042,67.9559784,0.0036812c0.3394012,0.000041,0.6866837,0.0145359,1.0157928,0.087594
			c0.282402,0.062726,0.5189362,0.2485189,0.4688034,0.5977888c-0.0426941,0.2972527-0.3055191,0.3060579-0.5218658,0.3222466
			c-0.3406143,0.0254545-0.6839828,0.0178623-1.0261841,0.0178623c-22.8802185,0.0003977-45.7604408,0.001255-68.6406631-0.0088892
			C34.40522,12.8246946,33.9370956,12.9961605,33.4976082,12.6231728z"/>
		<path class="st8" d="M21.2161179,28.5760078c5.0758324,0.0066929,10.1518097,0.036623,15.2273674,0.0031166
			c1.207531-0.0079899,2.0556297-0.0186367,1.9917831,1.6499271c-0.0587311,1.5347672-0.5329819,1.5815334-1.9487267,1.5276966
			c-6.5565319-0.2494183-13.1077595,0.520401-19.6735554,0.2780304c-1.884057-0.0695629-2.6439419-1.282774-1.7313633-2.8877125
			c0.5706825-1.0036354,1.5363674-0.3730507,2.3068562-0.5490341c0.2749043-0.062788,0.5664043-0.0529785,0.8498325-0.0757351
			C19.2237091,28.9260311,20.2131424,29.1312332,21.2161179,28.5760078z M31.8375759,29.8613148
			c0.7558994,1.1054096,3.7052517,1.1575317,4.8493366,0.0856895
			C35.5431328,29.0185604,32.9634209,28.9729862,31.8375759,29.8613148z"/>
		<path class="st2" d="M58.9543877,27.2448978c-2.5590553-2.9984207-5.5197105-5.6048813-8.2428513-8.4432125
			c-0.5102043-0.5317593-1.1455879-0.9865055-1.0148964-1.8634758c2.0590591-0.1572857,4.1169853-0.1718426,6.1730003,0.0493183
			c-0.1545448,0.8123627,0.4194298,1.244772,0.8999786,1.7260818c2.2557259,2.2591991,4.5084305,4.521452,6.7693253,6.7755051
			c0.490139,0.4886303,1.0053673,0.9500084,0.8900871,1.741539C62.6045799,27.4013462,60.7795906,27.3639278,58.9543877,27.2448978z
			"/>
		<path class="st2" d="M95.2857361,27.2837162c0.0283203-0.8016739-0.6186142-1.1732407-1.0812912-1.6413307
			c-2.3089981-2.3359814-4.6334991-4.6566715-6.9603806-6.9748745c-0.4879684-0.4861622-0.9947052-0.9464722-0.8812866-1.7313309
			c1.9457245-0.1363068,3.8907623-0.2006226,5.8326416,0.0572243c0.0002518,0.7335739,0.6040192,1.0660477,1.0300903,1.4972858
			c2.2820816,2.3097744,4.5808563,4.6030865,6.8774948,6.8984699c0.523407,0.5230579,1.1296082,0.9954777,0.987236,1.8674488
			C99.1562119,27.4392662,97.2212067,27.4105282,95.2857361,27.2837162z"/>
		<path class="st3" d="M26.5140419,18.925045c1.3675251-1.4161129,2.9567242-2.2035217,5.0025005-1.9989052
			c1.6793652,0.1679745,3.9356289-0.6934776,4.9151478,0.2976093c1.0587883,1.0712967,0.245327,3.3262081,0.3261681,5.0624542
			c0.0395203,0.8489857,0.0308723,1.7012978,0.0137939,2.5515156c-0.0193481,0.9633732-0.2867317,1.7941837-1.3173485,2.1461086
			c-0.9784737-0.5181828-1.6059837-1.4273853-2.3948288-2.1560841
			C30.9011745,22.8339424,29.1067829,20.4373055,26.5140419,18.925045z"/>
		<path class="st2" d="M26.5140419,18.925045c2.592741,1.5122604,4.3871326,3.9088974,6.545433,5.9026985
			c0.7888451,0.7286987,1.4163551,1.6379013,2.3948288,2.1560841c-2.0798912,0.6680031-4.2037544,0.2708378-6.3116817,0.2604008
			c-1.2829533-1.3458576-2.6093998-2.6538143-3.8296585-4.0542812c-0.5711956-0.6555386-1.618063-0.9244709-1.6918221-1.9976292
			C24.4917221,20.3169785,25.4530354,19.5574074,26.5140419,18.925045z"/>
		<path class="st8" d="M63.5012627,10.4280376c-8.8611145,0-17.7222328,0-26.3727264,0
			c1.7171173-0.9981766,2.6574211-1.9500036,13.0802116-1.6966953C54.6760597,8.8398943,59.2384338,8.0454359,63.5012627,10.4280376
			z"/>
		<path class="st3" d="M23.6211414,21.192318c0.0737591,1.0731583,1.1206264,1.3420906,1.6918221,1.9976292
			c1.2202587,1.4004669,2.5467052,2.7084236,3.8296585,4.0542812c-1.9241848,0.0241566-3.8483257,0.0563869-5.7725925,0.065382
			c-0.3689213,0.0017147-0.7925549,0.122921-1.0350304-0.3522396c-0.8053455-1.5782719-2.1647758-1.5989571-3.6417103-1.263073
			c-0.0971527-0.0975933-0.1941814-0.1950378-0.2912083-0.2924843
			C19.9941978,23.8156776,21.8305244,22.5323391,23.6211414,21.192318z"/>
		<path class="st8" d="M40.0792885,25.5414047c0.0073204-2.5219841,0.0146294-5.0439663,0.0219383-7.5659695l0.0002327-0.0007954
			c0.9097557,1.9354668,1.8058014,3.8775444,2.7342529,5.803997c0.5896034,1.2234173,1.0995674,2.4959221,2.1799202,3.4232159
			c0.3528557,0.3028584,0.8905144,1.0480804-0.0934715,0.9857731c-1.6996536-0.1076736-3.1353874,1.096981-4.8259315,0.7550335
			C40.0906029,27.8088856,40.0849457,26.6751347,40.0792885,25.5414047z"/>
		<path class="st9" d="M95.2857361,27.2837162c1.9354706,0.126812,3.8704758,0.15555,5.8045044-0.0271072
			c1.367569,0.0372314,2.7351532,0.074461,4.1027451,0.1116905c-0.2589798,0.7847538-0.9269638,0.523016-1.4475708,0.5235386
			c-11.8507004,0.0122986-23.7014008,0.0115452-35.5520859,0.0019245c-0.4762726-0.0003777-1.061264,0.2151375-1.3397141-0.4384956
			c3.5333099-0.0647564,7.0666199-0.1295109,10.5998993-0.1942654c0.1196594,0.006609,0.239357,0.0131779,0.3590469,0.0197449
			c2.8484116,0.1207047,5.6966171,0.168663,8.5440979-0.0255165C89.3330231,27.2647038,92.3093872,27.2742004,95.2857361,27.2837162
			z"/>
		<path class="st10" d="M39.7547188,15.2338171c-0.449173-0.010437-0.8983459-0.020874-1.3477402-0.0309973
			c-0.0040131-0.0892887-0.0009193-0.1786404,0.009079-0.2677202c8.6710472-0.0150795,17.342083-0.0382128,26.0131264-0.0433159
			c12.6650009-0.0074663,25.3299942-0.0020285,37.9949875-0.0020494c0.7904434,0,1.5808868,0.000021,2.3713074,0.000021
			c-0.001358,0.1146173-0.002739,0.2292557-0.004097,0.343873c-21.563179,0-43.1263504,0-64.6895447-0.000021
			C39.9861183,15.2336702,39.8704147,15.2337542,39.7547188,15.2338171z"/>
		<path class="st4" d="M40.0792885,25.5414047c0.0056572,1.1337299,0.0113144,2.2674809,0.0169411,3.4012547
			c-0.0000305,5.0083675-0.0000305,10.0167141-0.0000305,15.0250378c-0.1118279,0.001255-0.2236519,0.002533-0.3354759,0.003788
			c0-1.6111908-0.0003548-3.2224045,0.0000839-4.8336182c0.0010643-3.937027-0.0080338-7.8740997,0.0149422-11.8110008
			C39.7792435,26.7275276,39.5415459,26.0602379,40.0792885,25.5414047z"/>
		<path class="st10" d="M21.2161179,28.5759869c-1.0029755,0.5552464-1.9924088,0.3500443-2.9778061-0.053669
			c-0.1349373-0.4022903-0.2703667-0.8039761-0.4057941-1.2056808c0.1090851-0.4970169,0.2181702-0.9940338,0.3272667-1.4910526
			l-0.0179768,0.0131569c0.1324158,0.0316658,0.2648544,0.0632896,0.3972912,0.0949135
			C18.7890396,27.4652634,19.8620949,28.1629448,21.2161179,28.5759869z"/>
		<path class="st10" d="M42.1736526,35.5967064c-0.4349632-1.5735207-0.4093323-3.134182-0.0055771-4.6962433
			C42.3560982,32.469429,43.1418877,34.0199203,42.1736526,35.5967064z"/>
		<path class="st4" d="M38.4160576,14.9350996c-0.0099983,0.0890799-0.013092,0.1784315-0.009079,0.2677202
			c-3.0680466-0.0003138-6.1363144-0.0003138-9.2045918-0.0003138c-0.0009823-0.0891418-0.001976-0.1782637-0.0029583-0.2674065
			C32.271637,14.9350996,35.3438492,14.9350996,38.4160576,14.9350996z"/>
		<path class="st4" d="M108.8238297,26.5256729c-0.1382523-2.2801571-0.1848984-4.5653973-0.490097-6.8362255
			C109.375206,21.9191761,108.7976379,24.2392616,108.8238297,26.5256729z"/>
		<ellipse class="st4" cx="17.483799" cy="43.8468704" rx="2.4112442" ry="0.1116316"/>
		<path class="st4" d="M39.7547188,15.2338171c0.115696-0.0000629,0.2313995-0.0001469,0.3471146-0.0002098
			c-0.0001259,0.9136782-0.0002594,1.8273344-0.0003967,2.7410116l-0.0002098,0.0008163
			C39.4205513,17.1330166,39.9176521,16.1417007,39.7547188,15.2338171z"/>
		<path class="st4" d="M108.0210648,18.359026c-0.10186-0.3877544-0.2036972-0.7755089-0.3391037-1.2910576
			C108.5590363,17.3034782,108.1937637,17.8506947,108.0210648,18.359026z"/>
		<path class="st3" d="M18.1597843,25.8255844c-0.1090965,0.4970188-0.2181816,0.9940357-0.3272667,1.4910526
			c-0.2591553-0.0163975-0.7221317,0.0337582-0.690258-0.2150745
			C17.2158947,26.5264874,17.4623108,25.9624348,18.1597843,25.8255844z"/>
		<path class="st4" d="M66.7560349,33.3244362c0,0.7899818,0,1.1133385,0,1.5422134
			C66.3735809,34.4444466,66.4642868,34.097435,66.7560349,33.3244362z"/>
		<path class="st4" d="M27.7656841,15.5760384c0.1203899-0.084918,0.2407799-0.1698141,0.3611813-0.2547112
			c0.102005,0.4103022-0.243824,0.1667185-0.3655415,0.2503605L27.7656841,15.5760384z"/>
		<path class="st4" d="M107.5276871,16.2362595c-0.0146408,0.0396557-0.0292587,0.0793343-0.0438843,0.1189899
			c-0.0445862-0.0459309-0.08918-0.0918827-0.1337738-0.1378136c0.0326462-0.0293655,0.0653-0.0587521,0.0979309-0.0881386
			C107.4745407,16.164959,107.5011063,16.2005997,107.5276871,16.2362595z"/>
		<path class="st4" d="M27.7613335,15.5716877c-0.1141567,0.1143246-0.2283154,0.2286282-0.3424721,0.3429317l0.0039959,0.0040579
			c0.1142616-0.1142197,0.2285233-0.2284403,0.3428059-0.342639L27.7613335,15.5716877z"/>
		<path class="st3" d="M18.5390987,25.9336548c-0.1324368-0.0316238-0.2648754-0.0632477-0.3972912-0.0949135
			c-0.1188641-0.2681808,0.0744476-0.350317,0.260294-0.4369068c0.0970058,0.0974255,0.1940346,0.19487,0.2911873,0.2924633
			C18.6513214,25.7802391,18.5998802,25.8599701,18.5390987,25.9336548z"/>
		<path class="st4" d="M27.4188614,15.9146194c-0.0266151,0.0488796-0.0532398,0.0977592-0.0798759,0.1466179
			c0.0279331-0.0475407,0.0558643-0.0950813,0.0838394-0.142581L27.4188614,15.9146194z"/>
		<path class="st4" d="M95.3725586,42.9223785c0.3955154,0.4011192,0.6884995,0.8391953,0.5207825,1.443512
			c-0.9317703,0.0162315-2.4213409,0.0148926-2.4093781,0.8028259c0.013092,0.8625145,1.4745331,0.8692932,2.4241028,0.911438
			c0.0912323,0.6027451-0.1152725,1.0802269-0.6052551,1.4383659c-0.6050262-0.7118225-1.4286041-0.9939499-2.3553925-1.2927513
			c-0.2852478,1.2174149,0.740387,1.8039703,1.0088196,2.6745834c-1.3450012,0.8957748-2.7408752,0.7651558-4.1579895,0.2061234
			c-0.1820602-1.0732002,1.0251389-1.8108521,0.7919922-3.1022034c-0.9195709,0.5163002-1.695137,0.9517632-2.4707108,1.387207
			c-0.4743042-0.3057022-0.6639481-0.7430496-0.5999603-1.2976456c0.9027481,0.0103111,2.4028931-0.2668419,2.3450775-0.7233238
			c-0.1326828-1.0474548-1.4015274-0.9625778-2.3345108-1.032959c-0.1249924-0.5695534,0.1277847-0.9938698,0.5239792-1.3630714
			c0.9540787,0.2062263,1.7213058,1.7576828,2.5700684,0.9890137c0.4928894-0.4463577-0.6324005-1.6094551-1.2064743-2.3564148
			c0.3574295-0.4415703,0.8080673-0.6674385,1.3859177-0.598835c0.2298889,0.8753624,0.0742569,2.3849449,0.9264069,2.3954048
			c0.787941,0.0096397,0.7689285-1.4649734,0.8153458-2.3797569c0.5843353-0.1474571,1.0171051,0.1296349,1.4146881,0.5051537
			c-0.4274521,0.8132401-1.3179169,1.4530487-1.0045319,2.5978432
			C93.9744339,44.0719833,94.6110229,43.370266,95.3725586,42.9223785z"/>
		<path class="st10" d="M89.4177094,41.6070786c0.5740738,0.7469597,1.6993637,1.9100571,1.2064743,2.3564148
			c-0.8487625,0.7686691-1.6159897-0.7827873-2.5700684-0.9890137
			C88.2927704,42.3034019,88.7341537,41.8344955,89.4177094,41.6070786z"/>
		<path class="st10" d="M95.9080658,46.0801544c-0.9495697-0.0421448-2.4110107-0.0489235-2.4241028-0.911438
			c-0.0119629-0.7879333,1.4776077-0.7865944,2.4093781-0.8028259
			C96.3515167,44.9334145,96.152359,45.5065842,95.9080658,46.0801544z"/>
		<path class="st10" d="M95.3725586,42.9223785c-0.7615356,0.4478874-1.3981247,1.1496048-2.4170227,1.2045097
			c-0.313385-1.1447945,0.5770798-1.7846031,1.0045319-2.5978432C94.6390305,41.7824974,95.0941544,42.262867,95.3725586,42.9223785
			z"/>
		<path class="st10" d="M93.9562378,48.9003525c-0.2684326-0.8706131-1.2940674-1.4571686-1.0088196-2.6745834
			c0.9267883,0.2988014,1.7503662,0.5809288,2.3553925,1.2927513
			C95.1026688,48.2215347,94.5811386,48.6112976,93.9562378,48.9003525z"/>
		<path class="st10" d="M88.1195297,47.3914795c0.7755737-0.4354439,1.5511398-0.8709068,2.4707108-1.387207
			c0.2331467,1.2913513-0.9740524,2.0290031-0.7919922,3.1022034
			C89.0209808,48.7478981,88.4252243,48.2116852,88.1195297,47.3914795z"/>
		<path class="st10" d="M87.5301361,44.3375511c0.9329834,0.0703812,2.201828-0.0144958,2.3345108,1.032959
			c0.0578156,0.4564819-1.4423294,0.7336349-2.3450775,0.7233238
			C87.3478699,45.5073586,87.3065796,44.9216614,87.5301361,44.3375511z"/>
		<path class="st10" d="M92.5453796,41.0238914c-0.0464172,0.9147835-0.0274048,2.3893967-0.8153458,2.3797569
			c-0.85215-0.0104599-0.6965179-1.5200424-0.9264069-2.3954048C91.3858185,40.8356056,91.9666824,40.808773,92.5453796,41.0238914z
			"/>
		<path class="st4" d="M32.2597351,46.0776024c0.0877724,0.520401-0.0596695,0.9658394-0.4272614,1.3411713
			c-0.5703583-0.3401909-1.1485386-0.668087-1.7089424-1.0239449c-0.5901222-0.3747444-1.0378113-0.3056602-1.3372917,0.3591843
			c-1.7512531,0.1233177-1.350687,1.6411629-1.722723,2.6582909c-0.1348648-0.0340919-0.2697277-0.0681839-0.4044991-0.1025505
			c0.1851139-0.5431976-0.3604069-1.0437088-0.0492973-1.6265221c0.2183704-0.4090462,0.7674255-0.9743347,0.3002548-1.3384094
			c-0.5927067-0.4619637-1.0795803,0.2558174-1.5636196,0.5624619c-0.2710037,0.1716728-0.4819374,0.4382019-0.7199364,0.6619797
			c-0.6271973-0.3134842-0.7263985-0.8700066-0.6861153-1.4906998c0.9746246,0.0316658,1.8827496-0.1392975,2.8091755-0.9168968
			c-0.9336414-0.6122856-1.8112507-0.8631897-2.7917423-0.8062134c-0.0796165-0.6347046,0.0405025-1.1833649,0.6547108-1.5188904
			c0.2149696,0.5357933,0.7361565,0.6836662,1.1877346,0.8885155c0.3647785,0.1654625,0.6566563,0.826416,1.1364708,0.3589325
			c0.3411636-0.3323479-0.0464954-0.7300606-0.1848431-1.0844765c-0.0205593-0.0526237-0.0502281-0.1017723-0.0699196-0.1546707
			c-0.1475182-0.3960571-0.5625362-0.8963165,0.1257648-1.106163c0.5702858-0.1738701,0.547821,0.3912697,0.6294975,0.7632332
			c0.1589794,0.7240334,0.4634361,1.2875633,1.3521194,1.1750603c1.3941517,1.2505226,1.9281158-0.3729057,2.8080463-0.8404732
			c0.5704746,0.3363647,0.7818241,0.8366432,0.6767673,1.4816589c-0.9488888,0.0564728-2.392767,0.0333824-2.4615803,0.8975525
			c-0.0624542,0.7842102,1.4476318,0.635437,2.277689,0.8605118C32.1429443,46.0905495,32.2030563,46.0777893,32.2597351,46.0776024
			z"/>
		<path class="st10" d="M28.7892838,43.6769943c-0.8886948,0.1125031-1.1931515-0.4510269-1.3521309-1.1750603
			c-0.0816765-0.3719635-0.0592117-0.9371033-0.6294975-0.7632332c-0.6883011,0.2098465-0.273283,0.7101059-0.1257648,1.106163
			c0.0196915,0.0528984,0.0493603,0.102047,0.0699196,0.1546707c0.1383476,0.3544159,0.5260067,0.7521286,0.1848431,1.0844765
			c-0.4798145,0.4674835-0.7716923-0.19347-1.1364708-0.3589325c-0.4515781-0.2048492-0.972765-0.3527222-1.1877346-0.8885155
			c0.9782009-1.9251976,2.6518154-2.1370316,4.5320663-1.8397369c-0.0378361,0.9002686-0.5473919,1.738945-0.3486099,2.6701279
			L28.7892838,43.6769943z"/>
		<path class="st10" d="M28.7862186,46.753994c0.2995014-0.6648254,0.7471905-0.7339096,1.3373127-0.3591652
			c0.5604038,0.3558578,1.1385841,0.683754,1.7089424,1.0239449c-0.528883,0.9093895-1.2007027,1.6463928-2.2807426,1.8907928
			c0.0746365-0.9447784,0.3977299-1.9627838-0.7548027-2.5427094L28.7862186,46.753994z"/>
		<path class="st10" d="M24.6264191,47.5692635c0.237999-0.2237778,0.4489326-0.4903069,0.7199364-0.6619797
			c0.4840393-0.3066444,0.9709129-1.0244255,1.5636196-0.5624619c0.4671707,0.3640747-0.0818844,0.9293633-0.3002548,1.3384094
			c-0.3111095,0.5828133,0.2344112,1.0833244,0.0492973,1.626545C25.7330837,49.0197372,24.968483,48.5411682,24.6264191,47.5692635
			z"/>
		<path class="st10" d="M27.0635166,49.412323c0.372036-1.0171471-0.0285301-2.5349922,1.722723-2.6583099l0.0106888,0.0128021
			c-0.1984272,0.925766,0.3030777,1.7593575,0.3494053,2.6529121C28.4514961,49.5749207,27.7572021,49.5804863,27.0635166,49.412323
			z"/>
		<path class="st10" d="M31.5973186,42.8365211c-0.8799305,0.4675674-1.4138947,2.0909958-2.8080463,0.8404732l0.0066319-0.0099983
			c0.8322525-0.5583229,1.0989895-1.4448929,1.3562603-2.3369446
			C30.7769051,41.6950073,31.3948555,42.0664711,31.5973186,42.8365211z"/>
		<path class="st10" d="M23.957737,44.3554535c0.9804916-0.0569763,1.8581009,0.1939278,2.7917423,0.8062134
			c-0.9264259,0.7775993-1.8345509,0.9485626-2.8091755,0.9168968
			C23.6030293,45.5007095,23.5661964,44.9259071,23.957737,44.3554535z"/>
		<path class="st10" d="M32.2597351,46.0776024c-0.0566788,0.0001869-0.1167908,0.0129471-0.1695404-0.001358
			c-0.8300571-0.2250748-2.3401432-0.0763016-2.277689-0.8605118c0.0688133-0.8641701,1.5126915-0.8410797,2.4615803-0.8975525
			C32.5679588,44.9069557,32.6499901,45.4941406,32.2597351,46.0776024z"/>
		<path class="st4" d="M30.1521645,41.3300514c-0.2572708,0.8920517-0.5240078,1.7786217-1.3562603,2.3369446
			c-0.198782-0.9312248,0.3107738-1.7699013,0.3486099-2.6701698
			C29.4803982,41.1079063,29.8162823,41.2189713,30.1521645,41.3300514z"/>
		<path class="st4" d="M29.1463337,49.4197273c-0.0463276-0.8935547-0.5478325-1.7271461-0.3494053-2.6529121
			c1.1525326,0.5799675,0.8294392,1.5979729,0.7548027,2.5427513
			C29.4166794,49.3466263,29.2815113,49.3831902,29.1463337,49.4197273z"/>
		<path class="st6" d="M84.0150223,48.0762558c-0.2777023,0.0418091-0.5553818,0.1201172-0.8330994,0.1202011
			c-15.404213,0.0050201-30.8084221,0.0042267-46.2126274-0.0021744c-0.3377686-0.000145-0.6755028-0.0720558-1.0132904-0.1104965
			c0.0854607-0.2100143,0.1709557-0.4200287,0.256321-0.630043c15.8045425-0.0023003,31.6092148-0.0046005,47.4138794-0.0069199
			C83.7558136,47.6566277,83.8854141,47.8664322,84.0150223,48.0762558z"/>
		<path class="st11" d="M77.812561,27.2807465c-0.1196899-0.006567-0.2393875-0.0131359-0.3590469-0.0197239
			c0.008194-0.14254,0.0163498-0.28508,0.0247421-0.4281216C77.5898361,26.981863,77.7012024,27.1313038,77.812561,27.2807465z"/>
		<path class="st12" d="M31.8375759,29.8613148c1.125845-0.8883286,3.7055569-0.8427544,4.8492413,0.0858154
			C35.070343,29.918623,33.4539642,29.8899689,31.8375759,29.8613148z"/>
		<path class="st10" d="M31.8375759,29.8613148c1.6163883,0.0286541,3.2327671,0.0573082,4.8492413,0.0858154
			C35.5428276,31.0188465,32.5934753,30.9667244,31.8375759,29.8613148z"/>
	</g>
</g>
</svg>
